G04*
G04 #@! TF.GenerationSoftware,Altium Limited,Altium Designer,24.4.1 (13)*
G04*
G04 Layer_Color=16711935*
%FSLAX26Y26*%
%MOIN*%
G70*
G04*
G04 #@! TF.SameCoordinates,905C8A78-2083-4C7B-A4A3-8DC1081A3543*
G04*
G04*
G04 #@! TF.FilePolarity,Negative*
G04*
G01*
G75*
%ADD14C,0.010000*%
G04:AMPARAMS|DCode=86|XSize=25.197mil|YSize=21.26mil|CornerRadius=5.315mil|HoleSize=0mil|Usage=FLASHONLY|Rotation=90.000|XOffset=0mil|YOffset=0mil|HoleType=Round|Shape=RoundedRectangle|*
%AMROUNDEDRECTD86*
21,1,0.025197,0.010630,0,0,90.0*
21,1,0.014567,0.021260,0,0,90.0*
1,1,0.010630,0.005315,0.007284*
1,1,0.010630,0.005315,-0.007284*
1,1,0.010630,-0.005315,-0.007284*
1,1,0.010630,-0.005315,0.007284*
%
%ADD86ROUNDEDRECTD86*%
G04:AMPARAMS|DCode=88|XSize=24.409mil|YSize=22.047mil|CornerRadius=5.512mil|HoleSize=0mil|Usage=FLASHONLY|Rotation=270.000|XOffset=0mil|YOffset=0mil|HoleType=Round|Shape=RoundedRectangle|*
%AMROUNDEDRECTD88*
21,1,0.024409,0.011024,0,0,270.0*
21,1,0.013386,0.022047,0,0,270.0*
1,1,0.011024,-0.005512,-0.006693*
1,1,0.011024,-0.005512,0.006693*
1,1,0.011024,0.005512,0.006693*
1,1,0.011024,0.005512,-0.006693*
%
%ADD88ROUNDEDRECTD88*%
G04:AMPARAMS|DCode=89|XSize=37.402mil|YSize=35.433mil|CornerRadius=4.429mil|HoleSize=0mil|Usage=FLASHONLY|Rotation=270.000|XOffset=0mil|YOffset=0mil|HoleType=Round|Shape=RoundedRectangle|*
%AMROUNDEDRECTD89*
21,1,0.037402,0.026575,0,0,270.0*
21,1,0.028543,0.035433,0,0,270.0*
1,1,0.008858,-0.013287,-0.014272*
1,1,0.008858,-0.013287,0.014272*
1,1,0.008858,0.013287,0.014272*
1,1,0.008858,0.013287,-0.014272*
%
%ADD89ROUNDEDRECTD89*%
G04:AMPARAMS|DCode=90|XSize=37.402mil|YSize=35.433mil|CornerRadius=4.429mil|HoleSize=0mil|Usage=FLASHONLY|Rotation=0.000|XOffset=0mil|YOffset=0mil|HoleType=Round|Shape=RoundedRectangle|*
%AMROUNDEDRECTD90*
21,1,0.037402,0.026575,0,0,0.0*
21,1,0.028543,0.035433,0,0,0.0*
1,1,0.008858,0.014272,-0.013287*
1,1,0.008858,-0.014272,-0.013287*
1,1,0.008858,-0.014272,0.013287*
1,1,0.008858,0.014272,0.013287*
%
%ADD90ROUNDEDRECTD90*%
G04:AMPARAMS|DCode=91|XSize=24.409mil|YSize=22.047mil|CornerRadius=5.512mil|HoleSize=0mil|Usage=FLASHONLY|Rotation=0.000|XOffset=0mil|YOffset=0mil|HoleType=Round|Shape=RoundedRectangle|*
%AMROUNDEDRECTD91*
21,1,0.024409,0.011024,0,0,0.0*
21,1,0.013386,0.022047,0,0,0.0*
1,1,0.011024,0.006693,-0.005512*
1,1,0.011024,-0.006693,-0.005512*
1,1,0.011024,-0.006693,0.005512*
1,1,0.011024,0.006693,0.005512*
%
%ADD91ROUNDEDRECTD91*%
G04:AMPARAMS|DCode=93|XSize=25.197mil|YSize=21.26mil|CornerRadius=5.315mil|HoleSize=0mil|Usage=FLASHONLY|Rotation=180.000|XOffset=0mil|YOffset=0mil|HoleType=Round|Shape=RoundedRectangle|*
%AMROUNDEDRECTD93*
21,1,0.025197,0.010630,0,0,180.0*
21,1,0.014567,0.021260,0,0,180.0*
1,1,0.010630,-0.007284,0.005315*
1,1,0.010630,0.007284,0.005315*
1,1,0.010630,0.007284,-0.005315*
1,1,0.010630,-0.007284,-0.005315*
%
%ADD93ROUNDEDRECTD93*%
G04:AMPARAMS|DCode=96|XSize=52.165mil|YSize=92.52mil|CornerRadius=4.956mil|HoleSize=0mil|Usage=FLASHONLY|Rotation=90.000|XOffset=0mil|YOffset=0mil|HoleType=Round|Shape=RoundedRectangle|*
%AMROUNDEDRECTD96*
21,1,0.052165,0.082608,0,0,90.0*
21,1,0.042254,0.092520,0,0,90.0*
1,1,0.009911,0.041304,0.021127*
1,1,0.009911,0.041304,-0.021127*
1,1,0.009911,-0.041304,-0.021127*
1,1,0.009911,-0.041304,0.021127*
%
%ADD96ROUNDEDRECTD96*%
G04:AMPARAMS|DCode=110|XSize=31.496mil|YSize=78.74mil|CornerRadius=7.874mil|HoleSize=0mil|Usage=FLASHONLY|Rotation=0.000|XOffset=0mil|YOffset=0mil|HoleType=Round|Shape=RoundedRectangle|*
%AMROUNDEDRECTD110*
21,1,0.031496,0.062992,0,0,0.0*
21,1,0.015748,0.078740,0,0,0.0*
1,1,0.015748,0.007874,-0.031496*
1,1,0.015748,-0.007874,-0.031496*
1,1,0.015748,-0.007874,0.031496*
1,1,0.015748,0.007874,0.031496*
%
%ADD110ROUNDEDRECTD110*%
%ADD122C,0.050000*%
G04:AMPARAMS|DCode=123|XSize=62.992mil|YSize=43.307mil|CornerRadius=21.654mil|HoleSize=0mil|Usage=FLASHONLY|Rotation=0.000|XOffset=0mil|YOffset=0mil|HoleType=Round|Shape=RoundedRectangle|*
%AMROUNDEDRECTD123*
21,1,0.062992,0.000000,0,0,0.0*
21,1,0.019685,0.043307,0,0,0.0*
1,1,0.043307,0.009843,0.000000*
1,1,0.043307,-0.009843,0.000000*
1,1,0.043307,-0.009843,0.000000*
1,1,0.043307,0.009843,0.000000*
%
%ADD123ROUNDEDRECTD123*%
%ADD124C,0.062992*%
G04:AMPARAMS|DCode=125|XSize=62.992mil|YSize=62.992mil|CornerRadius=7.874mil|HoleSize=0mil|Usage=FLASHONLY|Rotation=0.000|XOffset=0mil|YOffset=0mil|HoleType=Round|Shape=RoundedRectangle|*
%AMROUNDEDRECTD125*
21,1,0.062992,0.047244,0,0,0.0*
21,1,0.047244,0.062992,0,0,0.0*
1,1,0.015748,0.023622,-0.023622*
1,1,0.015748,-0.023622,-0.023622*
1,1,0.015748,-0.023622,0.023622*
1,1,0.015748,0.023622,0.023622*
%
%ADD125ROUNDEDRECTD125*%
%ADD126C,0.070866*%
%ADD127C,0.068898*%
%ADD128C,0.118110*%
%ADD129C,0.196850*%
G04:AMPARAMS|DCode=153|XSize=57.087mil|YSize=39.37mil|CornerRadius=9.842mil|HoleSize=0mil|Usage=FLASHONLY|Rotation=0.000|XOffset=0mil|YOffset=0mil|HoleType=Round|Shape=RoundedRectangle|*
%AMROUNDEDRECTD153*
21,1,0.057087,0.019685,0,0,0.0*
21,1,0.037402,0.039370,0,0,0.0*
1,1,0.019685,0.018701,-0.009843*
1,1,0.019685,-0.018701,-0.009843*
1,1,0.019685,-0.018701,0.009843*
1,1,0.019685,0.018701,0.009843*
%
%ADD153ROUNDEDRECTD153*%
G04:AMPARAMS|DCode=154|XSize=52.165mil|YSize=92.52mil|CornerRadius=4.956mil|HoleSize=0mil|Usage=FLASHONLY|Rotation=180.000|XOffset=0mil|YOffset=0mil|HoleType=Round|Shape=RoundedRectangle|*
%AMROUNDEDRECTD154*
21,1,0.052165,0.082608,0,0,180.0*
21,1,0.042254,0.092520,0,0,180.0*
1,1,0.009911,-0.021127,0.041304*
1,1,0.009911,0.021127,0.041304*
1,1,0.009911,0.021127,-0.041304*
1,1,0.009911,-0.021127,-0.041304*
%
%ADD154ROUNDEDRECTD154*%
G04:AMPARAMS|DCode=155|XSize=133.858mil|YSize=39.37mil|CornerRadius=4.921mil|HoleSize=0mil|Usage=FLASHONLY|Rotation=0.000|XOffset=0mil|YOffset=0mil|HoleType=Round|Shape=RoundedRectangle|*
%AMROUNDEDRECTD155*
21,1,0.133858,0.029528,0,0,0.0*
21,1,0.124016,0.039370,0,0,0.0*
1,1,0.009842,0.062008,-0.014764*
1,1,0.009842,-0.062008,-0.014764*
1,1,0.009842,-0.062008,0.014764*
1,1,0.009842,0.062008,0.014764*
%
%ADD155ROUNDEDRECTD155*%
%ADD156C,0.078740*%
G36*
X3581875Y2745875D02*
X2902875D01*
Y3053875D01*
X3581875D01*
Y2745875D01*
D02*
G37*
G36*
X3852498Y2561047D02*
X3853036Y2560970D01*
X3854075Y2560855D01*
X3854690Y2560778D01*
X3856190Y2560663D01*
X3856497Y2560586D01*
X3857805Y2560355D01*
X3858843Y2560240D01*
X3859458Y2560086D01*
X3860189Y2559970D01*
X3860497Y2559894D01*
X3861150Y2559701D01*
X3861881Y2559586D01*
X3862189Y2559509D01*
X3862689Y2559317D01*
X3863265Y2559201D01*
X3863689Y2559086D01*
X3864073Y2558932D01*
X3864573Y2558817D01*
X3865111Y2558586D01*
X3866034Y2558355D01*
X3866150Y2558240D01*
X3866573Y2558124D01*
X3867265Y2557817D01*
X3867880Y2557663D01*
X3867995Y2557548D01*
X3868495Y2557355D01*
X3869341Y2556971D01*
X3871880Y2555740D01*
X3872264Y2555510D01*
X3872726Y2555202D01*
X3873033Y2555125D01*
X3873187Y2554971D01*
X3874264Y2554356D01*
X3874494Y2554125D01*
X3874648Y2554048D01*
X3875110Y2553741D01*
X3875264Y2553664D01*
X3875494Y2553433D01*
X3875648Y2553356D01*
X3876725Y2552587D01*
X3876879Y2552510D01*
X3876917Y2552395D01*
X3877186Y2552202D01*
X3877340Y2552125D01*
X3877571Y2551895D01*
X3877725Y2551818D01*
X3877956Y2551587D01*
X3878109Y2551510D01*
X3878417Y2551202D01*
X3878571Y2551126D01*
X3879263Y2550433D01*
X3879417Y2550356D01*
X3881686Y2548088D01*
X3881763Y2547934D01*
X3882378Y2547318D01*
X3882570Y2547049D01*
X3882724Y2546972D01*
X3882839Y2546780D01*
X3882916Y2546626D01*
X3883070Y2546472D01*
X3883262Y2546203D01*
X3883647Y2545742D01*
X3883993Y2545319D01*
X3884070Y2545165D01*
X3884185Y2545126D01*
X3884378Y2544780D01*
X3885147Y2543704D01*
X3885454Y2543165D01*
X3885685Y2542934D01*
X3886224Y2541935D01*
X3886416Y2541742D01*
X3886608Y2541242D01*
X3886800Y2541050D01*
X3886993Y2540550D01*
X3887146Y2540396D01*
X3887300Y2540012D01*
X3887531Y2539627D01*
X3887685Y2539243D01*
X3887877Y2538897D01*
X3888069Y2538397D01*
X3888339Y2537897D01*
X3888454Y2537397D01*
X3888569Y2537282D01*
X3888762Y2536782D01*
X3889031Y2536128D01*
X3889146Y2535705D01*
X3889262Y2535359D01*
X3889454Y2534859D01*
X3889531Y2534551D01*
X3889646Y2534128D01*
X3889838Y2533628D01*
X3889915Y2533090D01*
X3890108Y2532590D01*
X3890223Y2532090D01*
X3890300Y2531552D01*
X3890415Y2531129D01*
X3890492Y2530821D01*
X3890569Y2530436D01*
X3890646Y2529744D01*
X3890723Y2529360D01*
X3890838Y2528860D01*
X3890915Y2528629D01*
X3890992Y2527091D01*
X3891069Y2526860D01*
X3891146Y2525783D01*
X3891223Y2525552D01*
X3891300Y2520938D01*
X3891223Y2519707D01*
X3891030Y2518131D01*
X3890954Y2517208D01*
X3890877Y2516592D01*
X3890800Y2516208D01*
X3890723Y2515900D01*
X3890608Y2515323D01*
X3890531Y2514785D01*
X3890338Y2514131D01*
X3890261Y2513823D01*
X3890184Y2513362D01*
X3890108Y2513054D01*
X3889954Y2512670D01*
X3889838Y2512170D01*
X3889723Y2511824D01*
X3889531Y2511324D01*
X3889454Y2511016D01*
X3889300Y2510632D01*
X3889185Y2510363D01*
X3889069Y2509939D01*
X3888762Y2509247D01*
X3888377Y2508401D01*
X3887454Y2506479D01*
X3887070Y2505786D01*
X3886454Y2504709D01*
X3886300Y2504556D01*
X3886224Y2504402D01*
X3885685Y2503556D01*
X3885301Y2503017D01*
X3885070Y2502633D01*
X3884762Y2502325D01*
X3884685Y2502171D01*
X3884532Y2502018D01*
X3884301Y2501633D01*
X3884070Y2501402D01*
X3883993Y2501249D01*
X3883685Y2500941D01*
X3883608Y2500787D01*
X3883301Y2500479D01*
X3883224Y2500325D01*
X3882609Y2499710D01*
X3882532Y2499556D01*
X3881840Y2498864D01*
X3881763Y2498710D01*
X3881340Y2498287D01*
X3881186Y2498211D01*
X3881147Y2498095D01*
X3880570Y2497518D01*
X3880417Y2497441D01*
X3880378Y2497326D01*
X3880263Y2497287D01*
X3879494Y2496518D01*
X3879340Y2496441D01*
X3878725Y2495826D01*
X3878571Y2495749D01*
X3878263Y2495442D01*
X3878109Y2495365D01*
X3877802Y2495057D01*
X3877648Y2494980D01*
X3877494Y2494826D01*
X3877110Y2494596D01*
X3876802Y2494288D01*
X3876648Y2494211D01*
X3876494Y2494057D01*
X3876110Y2493827D01*
X3875879Y2493596D01*
X3875725Y2493519D01*
X3875571Y2493365D01*
X3875187Y2493134D01*
X3874956Y2492904D01*
X3874802Y2492827D01*
X3874264Y2492442D01*
X3874110Y2492365D01*
X3873879Y2492135D01*
X3873648Y2492058D01*
X3873495Y2491904D01*
X3872956Y2491596D01*
X3872802Y2491442D01*
X3872649Y2491365D01*
X3871803Y2490827D01*
X3871110Y2490442D01*
X3870957Y2490289D01*
X3870572Y2490135D01*
X3870418Y2489981D01*
X3869880Y2489673D01*
X3868495Y2488904D01*
X3866996Y2488097D01*
X3866496Y2487904D01*
X3866342Y2487751D01*
X3866188Y2487674D01*
X3863804Y2486520D01*
X3863265Y2486289D01*
X3862881Y2486135D01*
X3862035Y2485751D01*
X3861727Y2485674D01*
X3861612Y2485559D01*
X3861112Y2485366D01*
X3860420Y2485059D01*
X3860112Y2484982D01*
X3859689Y2484789D01*
X3858958Y2484520D01*
X3858843Y2484405D01*
X3858420Y2484289D01*
X3858035Y2484136D01*
X3857920Y2484020D01*
X3857497Y2483905D01*
X3856843Y2483636D01*
X3856420Y2483520D01*
X3856113Y2483443D01*
X3855959Y2483290D01*
X3855344Y2483136D01*
X3854690Y2482867D01*
X3854113Y2482751D01*
X3853998Y2482636D01*
X3853498Y2482444D01*
X3853190Y2482367D01*
X3852767Y2482174D01*
X3852344Y2482059D01*
X3851998Y2481944D01*
X3851613Y2481790D01*
X3851190Y2481675D01*
X3850844Y2481559D01*
X3850114Y2481290D01*
X3849767Y2481175D01*
X3849268Y2480982D01*
X3848960Y2480905D01*
X3848614Y2480790D01*
X3848114Y2480598D01*
X3847806Y2480521D01*
X3847460Y2480329D01*
X3847037Y2480213D01*
X3846037Y2479829D01*
X3845345Y2479521D01*
X3845037Y2479444D01*
X3844499Y2479213D01*
X3844191Y2479136D01*
X3843384Y2478790D01*
X3842884Y2478675D01*
X3842769Y2478560D01*
X3842269Y2478367D01*
X3841961Y2478290D01*
X3841846Y2478175D01*
X3841346Y2477983D01*
X3841038Y2477906D01*
X3840923Y2477791D01*
X3840423Y2477598D01*
X3839731Y2477291D01*
X3838923Y2476944D01*
X3838500Y2476829D01*
X3838346Y2476675D01*
X3837731Y2476445D01*
X3837615Y2476329D01*
X3837115Y2476137D01*
X3836731Y2475906D01*
X3836500Y2475829D01*
X3836116Y2475675D01*
X3835731Y2475445D01*
X3833808Y2474522D01*
X3832501Y2473829D01*
X3832116Y2473599D01*
X3831732Y2473445D01*
X3831193Y2473137D01*
X3831039Y2473060D01*
X3830886Y2472907D01*
X3830578Y2472830D01*
X3830424Y2472676D01*
X3829732Y2472291D01*
X3829194Y2471984D01*
X3829040Y2471830D01*
X3828655Y2471676D01*
X3828425Y2471445D01*
X3828194Y2471368D01*
X3827886Y2471061D01*
X3827579Y2470984D01*
X3827425Y2470830D01*
X3827040Y2470599D01*
X3826886Y2470445D01*
X3826502Y2470215D01*
X3826271Y2469984D01*
X3826117Y2469907D01*
X3825579Y2469523D01*
X3825425Y2469446D01*
X3825194Y2469215D01*
X3825040Y2469138D01*
X3824810Y2468907D01*
X3824656Y2468830D01*
X3824425Y2468600D01*
X3824271Y2468523D01*
X3824117Y2468369D01*
X3823964Y2468292D01*
X3823733Y2468061D01*
X3823579Y2467984D01*
X3822964Y2467369D01*
X3822810Y2467292D01*
X3820926Y2465408D01*
X3820733Y2465139D01*
X3820580Y2465062D01*
X3820541Y2464946D01*
X3820310Y2464715D01*
X3819772Y2464023D01*
X3819695Y2463869D01*
X3819387Y2463562D01*
X3819311Y2463408D01*
X3819157Y2463254D01*
X3818926Y2462870D01*
X3818695Y2462639D01*
X3818618Y2462408D01*
X3818465Y2462254D01*
X3818157Y2461716D01*
X3818003Y2461562D01*
X3817388Y2460485D01*
X3817157Y2460101D01*
X3817003Y2459716D01*
X3816849Y2459562D01*
X3816773Y2459409D01*
X3816003Y2457717D01*
X3815926Y2457409D01*
X3815734Y2457063D01*
X3815657Y2456755D01*
X3815542Y2456332D01*
X3815427Y2456217D01*
X3815311Y2455794D01*
X3815234Y2455486D01*
X3815119Y2455140D01*
X3814927Y2454640D01*
X3814850Y2454102D01*
X3814619Y2453563D01*
X3814542Y2452794D01*
X3814311Y2451871D01*
X3814234Y2451641D01*
X3814157Y2450564D01*
X3814081Y2450256D01*
X3814004Y2449487D01*
X3813927Y2449256D01*
X3813850Y2446718D01*
X3813773Y2446488D01*
X3813811Y2445142D01*
X3813888Y2443065D01*
X3813965Y2442296D01*
X3814119Y2441296D01*
X3814196Y2440450D01*
X3814273Y2439988D01*
X3814427Y2439373D01*
X3814504Y2438912D01*
X3814619Y2438181D01*
X3814773Y2437796D01*
X3814927Y2437104D01*
X3815003Y2436797D01*
X3815196Y2436297D01*
X3815311Y2435797D01*
X3815580Y2435143D01*
X3815696Y2434643D01*
X3816003Y2433951D01*
X3816234Y2433413D01*
X3816388Y2433028D01*
X3816773Y2432182D01*
X3817042Y2431682D01*
X3817234Y2431182D01*
X3817388Y2431028D01*
X3817465Y2430874D01*
X3817619Y2430490D01*
X3817772Y2430336D01*
X3817926Y2429952D01*
X3818080Y2429798D01*
X3818388Y2429259D01*
X3818618Y2428875D01*
X3819541Y2427567D01*
X3819811Y2427144D01*
X3819964Y2427067D01*
X3820080Y2426875D01*
X3820157Y2426721D01*
X3820387Y2426490D01*
X3820464Y2426337D01*
X3820772Y2426029D01*
X3820849Y2425875D01*
X3821156Y2425568D01*
X3821233Y2425414D01*
X3821849Y2424798D01*
X3821925Y2424645D01*
X3822041Y2424529D01*
X3822195Y2424452D01*
X3822233Y2424337D01*
X3823502Y2423068D01*
X3823656Y2422991D01*
X3823810Y2422760D01*
X3823964Y2422683D01*
X3824579Y2422068D01*
X3824733Y2421991D01*
X3825117Y2421607D01*
X3825271Y2421530D01*
X3825387Y2421414D01*
X3826156Y2420799D01*
X3826617Y2420414D01*
X3827040Y2420068D01*
X3827194Y2419992D01*
X3827425Y2419761D01*
X3827579Y2419684D01*
X3828348Y2419146D01*
X3828732Y2418915D01*
X3828886Y2418761D01*
X3829271Y2418530D01*
X3829424Y2418453D01*
X3829578Y2418299D01*
X3829809Y2418222D01*
X3829963Y2418069D01*
X3830655Y2417684D01*
X3831193Y2417376D01*
X3831347Y2417300D01*
X3831463Y2417184D01*
X3831963Y2416992D01*
X3832116Y2416838D01*
X3832424Y2416761D01*
X3832885Y2416454D01*
X3833193Y2416377D01*
X3833655Y2416069D01*
X3833962Y2415992D01*
X3834462Y2415723D01*
X3834885Y2415608D01*
X3835385Y2415338D01*
X3835885Y2415223D01*
X3836269Y2414992D01*
X3836885Y2414838D01*
X3837308Y2414646D01*
X3837731Y2414531D01*
X3838039Y2414454D01*
X3838538Y2414262D01*
X3839115Y2414146D01*
X3839538Y2414031D01*
X3839923Y2413877D01*
X3840653Y2413762D01*
X3841653Y2413454D01*
X3842692Y2413339D01*
X3843307Y2413185D01*
X3843691Y2413108D01*
X3844537Y2413031D01*
X3845153Y2412954D01*
X3846037Y2412839D01*
X3846268Y2412762D01*
X3848806Y2412685D01*
X3849037Y2412608D01*
X3852229Y2412646D01*
X3854997Y2412723D01*
X3855920Y2412800D01*
X3856920Y2412954D01*
X3857613Y2413031D01*
X3858382Y2413108D01*
X3858843Y2413185D01*
X3859458Y2413339D01*
X3860420Y2413454D01*
X3860727Y2413531D01*
X3861073Y2413646D01*
X3861381Y2413723D01*
X3862112Y2413839D01*
X3862535Y2413954D01*
X3863035Y2414146D01*
X3863573Y2414223D01*
X3864111Y2414454D01*
X3864650Y2414531D01*
X3865342Y2414838D01*
X3865803Y2414915D01*
X3866188Y2415069D01*
X3866457Y2415184D01*
X3866880Y2415300D01*
X3867303Y2415492D01*
X3867803Y2415684D01*
X3868495Y2415992D01*
X3869303Y2416338D01*
X3869726Y2416454D01*
X3869880Y2416607D01*
X3870034Y2416684D01*
X3871341Y2417300D01*
X3872341Y2417838D01*
X3872726Y2418069D01*
X3874341Y2418992D01*
X3874494Y2419146D01*
X3875033Y2419453D01*
X3875571Y2419838D01*
X3875956Y2420068D01*
X3876110Y2420222D01*
X3876494Y2420453D01*
X3876648Y2420607D01*
X3877033Y2420838D01*
X3877186Y2420991D01*
X3877456Y2421184D01*
X3877917Y2421568D01*
X3878340Y2421914D01*
X3878494Y2421991D01*
X3878725Y2422222D01*
X3878878Y2422299D01*
X3879494Y2422914D01*
X3879648Y2422991D01*
X3879955Y2423299D01*
X3880109Y2423376D01*
X3880224Y2423491D01*
X3880301Y2423645D01*
X3880417Y2423683D01*
X3881032Y2424298D01*
X3881301Y2424491D01*
X3881378Y2424645D01*
X3881494Y2424760D01*
X3881647Y2424837D01*
X3881801Y2425068D01*
X3881955Y2425145D01*
X3882070Y2425260D01*
X3882147Y2425414D01*
X3882378Y2425568D01*
X3882455Y2425721D01*
X3883147Y2426414D01*
X3883224Y2426567D01*
X3883455Y2426721D01*
X3883532Y2426875D01*
X3884224Y2427567D01*
X3884301Y2427721D01*
X3884416Y2427836D01*
X3884570Y2427913D01*
X3884685Y2428106D01*
X3884762Y2428260D01*
X3884993Y2428490D01*
X3885070Y2428644D01*
X3885378Y2428952D01*
X3885454Y2429106D01*
X3885685Y2429336D01*
X3885762Y2429490D01*
X3885993Y2429721D01*
X3886185Y2429990D01*
X3886531Y2430413D01*
X3886608Y2430567D01*
X3886839Y2430798D01*
X3886916Y2430951D01*
X3887070Y2431105D01*
X3887300Y2431490D01*
X3887531Y2431720D01*
X3887608Y2431874D01*
X3888146Y2432643D01*
X3888531Y2433182D01*
X3888762Y2433566D01*
X3889069Y2433874D01*
X3889146Y2434182D01*
X3889377Y2434412D01*
X3889454Y2434566D01*
X3889915Y2435335D01*
X3889992Y2435489D01*
X3890146Y2435643D01*
X3890223Y2435874D01*
X3890531Y2436181D01*
X3890608Y2436489D01*
X3890838Y2436720D01*
X3890915Y2436874D01*
X3891069Y2437258D01*
X3891223Y2437412D01*
X3891300Y2437643D01*
X3891607Y2438104D01*
X3891761Y2438489D01*
X3891953Y2438681D01*
X3892146Y2439181D01*
X3892338Y2439373D01*
X3892492Y2439758D01*
X3892800Y2439835D01*
X3893338Y2439296D01*
X3893492Y2439219D01*
X3893530Y2439104D01*
X3893646Y2438989D01*
X3893799Y2438912D01*
X3893915Y2438796D01*
X3893992Y2438642D01*
X3894107Y2438604D01*
X3894299Y2438412D01*
X3894376Y2438258D01*
X3894492Y2438220D01*
X3895684Y2437027D01*
X3896145Y2436643D01*
X3896222Y2436489D01*
X3896337Y2436451D01*
X3897952Y2434835D01*
X3898106Y2434758D01*
X3899875Y2432990D01*
X3900029Y2432913D01*
X3900183Y2432682D01*
X3900337Y2432605D01*
X3902183Y2430759D01*
X3902336Y2430682D01*
X3902375Y2430567D01*
X3902683Y2430336D01*
X3902760Y2430182D01*
X3903106Y2429990D01*
X3903144Y2429567D01*
X3902952Y2429528D01*
X3902606Y2428875D01*
X3902298Y2428336D01*
X3902067Y2427952D01*
X3901529Y2427106D01*
X3901298Y2426721D01*
X3900990Y2426260D01*
X3900914Y2426029D01*
X3900683Y2425798D01*
X3900606Y2425644D01*
X3900068Y2424798D01*
X3899760Y2424260D01*
X3899529Y2424029D01*
X3899452Y2423876D01*
X3899298Y2423722D01*
X3898991Y2423183D01*
X3898837Y2423030D01*
X3898606Y2422645D01*
X3898491Y2422606D01*
X3897991Y2421876D01*
X3897914Y2421722D01*
X3897760Y2421568D01*
X3897568Y2421299D01*
X3897222Y2420876D01*
X3897145Y2420722D01*
X3896914Y2420491D01*
X3896837Y2420338D01*
X3896607Y2420107D01*
X3896530Y2419953D01*
X3896222Y2419645D01*
X3896145Y2419492D01*
X3895838Y2419184D01*
X3895760Y2419030D01*
X3895491Y2418761D01*
X3895453Y2418722D01*
X3895376Y2418569D01*
X3895068Y2418261D01*
X3894991Y2418107D01*
X3894684Y2417800D01*
X3894607Y2417646D01*
X3893915Y2416954D01*
X3893838Y2416800D01*
X3893722Y2416761D01*
X3893607Y2416646D01*
X3893530Y2416492D01*
X3890877Y2413839D01*
X3890723Y2413762D01*
X3890569Y2413531D01*
X3890415Y2413454D01*
X3889723Y2412762D01*
X3889569Y2412685D01*
X3889262Y2412377D01*
X3889108Y2412300D01*
X3888800Y2411993D01*
X3888646Y2411916D01*
X3888416Y2411685D01*
X3888262Y2411608D01*
X3887877Y2411224D01*
X3887723Y2411147D01*
X3887493Y2410916D01*
X3887339Y2410839D01*
X3887185Y2410685D01*
X3886800Y2410454D01*
X3886493Y2410147D01*
X3886339Y2410070D01*
X3886185Y2409916D01*
X3885800Y2409685D01*
X3885647Y2409532D01*
X3885262Y2409301D01*
X3885108Y2409147D01*
X3884724Y2408916D01*
X3884493Y2408686D01*
X3884262Y2408609D01*
X3884108Y2408455D01*
X3883570Y2408147D01*
X3883532Y2408032D01*
X3883032Y2407763D01*
X3882647Y2407532D01*
X3881801Y2406994D01*
X3880724Y2406378D01*
X3880263Y2406070D01*
X3879955Y2405994D01*
X3879724Y2405763D01*
X3879417Y2405686D01*
X3878955Y2405378D01*
X3878725Y2405301D01*
X3878225Y2405032D01*
X3877725Y2404840D01*
X3877571Y2404686D01*
X3877417Y2404609D01*
X3875725Y2403840D01*
X3875418Y2403763D01*
X3874918Y2403494D01*
X3874418Y2403379D01*
X3874302Y2403263D01*
X3873802Y2403071D01*
X3873149Y2402802D01*
X3872726Y2402686D01*
X3871956Y2402379D01*
X3871649Y2402302D01*
X3871110Y2402071D01*
X3870495Y2401917D01*
X3870072Y2401802D01*
X3869688Y2401648D01*
X3869303Y2401571D01*
X3868995Y2401494D01*
X3868611Y2401340D01*
X3868034Y2401225D01*
X3867611Y2401110D01*
X3867226Y2400956D01*
X3866496Y2400840D01*
X3866188Y2400764D01*
X3865803Y2400610D01*
X3864804Y2400456D01*
X3863573Y2400148D01*
X3862535Y2400033D01*
X3862150Y2399956D01*
X3861843Y2399879D01*
X3861458Y2399802D01*
X3860535Y2399725D01*
X3859920Y2399648D01*
X3859151Y2399495D01*
X3858305Y2399418D01*
X3856343Y2399302D01*
X3856113Y2399225D01*
X3854574Y2399148D01*
X3854344Y2399072D01*
X3847306Y2399110D01*
X3846307Y2399187D01*
X3845460Y2399264D01*
X3844768Y2399341D01*
X3843538Y2399418D01*
X3842692Y2399495D01*
X3842307Y2399572D01*
X3841807Y2399687D01*
X3841269Y2399764D01*
X3840269Y2399841D01*
X3839846Y2399956D01*
X3839538Y2400033D01*
X3838808Y2400148D01*
X3838269Y2400225D01*
X3837846Y2400341D01*
X3837539Y2400418D01*
X3836885Y2400533D01*
X3836577Y2400610D01*
X3836231Y2400725D01*
X3835923Y2400802D01*
X3835193Y2400918D01*
X3834693Y2401110D01*
X3833885Y2401302D01*
X3833385Y2401494D01*
X3832885Y2401610D01*
X3832578Y2401687D01*
X3832155Y2401879D01*
X3831732Y2401994D01*
X3831078Y2402263D01*
X3830578Y2402379D01*
X3830270Y2402456D01*
X3830117Y2402610D01*
X3829809Y2402686D01*
X3829117Y2402994D01*
X3828809Y2403071D01*
X3827963Y2403456D01*
X3827425Y2403686D01*
X3827271Y2403763D01*
X3826579Y2404071D01*
X3826425Y2404148D01*
X3824041Y2405301D01*
X3823656Y2405532D01*
X3823118Y2405840D01*
X3822425Y2406224D01*
X3821349Y2406840D01*
X3821195Y2406994D01*
X3820657Y2407301D01*
X3820272Y2407532D01*
X3820041Y2407763D01*
X3819503Y2408070D01*
X3819118Y2408301D01*
X3818964Y2408455D01*
X3818580Y2408686D01*
X3818426Y2408839D01*
X3818041Y2409070D01*
X3817811Y2409301D01*
X3817657Y2409378D01*
X3817503Y2409532D01*
X3817234Y2409724D01*
X3816811Y2410070D01*
X3816657Y2410147D01*
X3816426Y2410378D01*
X3816273Y2410454D01*
X3816042Y2410685D01*
X3815888Y2410762D01*
X3815580Y2411070D01*
X3815427Y2411147D01*
X3815042Y2411531D01*
X3814888Y2411608D01*
X3814581Y2411916D01*
X3814427Y2411993D01*
X3814119Y2412300D01*
X3813965Y2412377D01*
X3813811Y2412608D01*
X3813657Y2412685D01*
X3812581Y2413762D01*
X3812427Y2413839D01*
X3812389Y2413954D01*
X3812273Y2414069D01*
X3812119Y2414146D01*
X3812004Y2414262D01*
X3811927Y2414415D01*
X3811696Y2414569D01*
X3811619Y2414723D01*
X3810543Y2415800D01*
X3810466Y2415954D01*
X3810235Y2416108D01*
X3810158Y2416261D01*
X3809850Y2416569D01*
X3809773Y2416723D01*
X3809466Y2417030D01*
X3809389Y2417184D01*
X3809081Y2417492D01*
X3809004Y2417646D01*
X3808697Y2417953D01*
X3808620Y2418107D01*
X3808312Y2418415D01*
X3808235Y2418569D01*
X3808120Y2418684D01*
X3807812Y2419146D01*
X3807466Y2419568D01*
X3806312Y2421184D01*
X3806005Y2421722D01*
X3805851Y2421876D01*
X3805236Y2422953D01*
X3805082Y2423106D01*
X3804774Y2423645D01*
X3804390Y2424337D01*
X3803698Y2425644D01*
X3803467Y2426029D01*
X3802698Y2427644D01*
X3802621Y2427952D01*
X3802467Y2428106D01*
X3802390Y2428413D01*
X3802159Y2428952D01*
X3802006Y2429336D01*
X3801698Y2430028D01*
X3801621Y2430413D01*
X3801313Y2431105D01*
X3801236Y2431567D01*
X3801082Y2431951D01*
X3800967Y2432220D01*
X3800852Y2432720D01*
X3800736Y2433143D01*
X3800583Y2433528D01*
X3800467Y2434182D01*
X3800313Y2434566D01*
X3800160Y2435182D01*
X3800083Y2435720D01*
X3799890Y2436374D01*
X3799814Y2436758D01*
X3799737Y2437450D01*
X3799660Y2437912D01*
X3799544Y2438335D01*
X3799467Y2438566D01*
X3799390Y2439489D01*
X3799275Y2440527D01*
X3799121Y2441450D01*
X3799006Y2443719D01*
X3798929Y2445872D01*
X3799006Y2448949D01*
X3799083Y2450872D01*
X3799275Y2452448D01*
X3799390Y2453333D01*
X3799506Y2454371D01*
X3799583Y2454756D01*
X3799660Y2455063D01*
X3799775Y2455717D01*
X3799852Y2456255D01*
X3800083Y2457101D01*
X3800160Y2457409D01*
X3800236Y2457947D01*
X3800390Y2458332D01*
X3800544Y2459024D01*
X3800660Y2459447D01*
X3800813Y2459832D01*
X3800929Y2460332D01*
X3801159Y2460870D01*
X3801236Y2461178D01*
X3801390Y2461716D01*
X3801506Y2461831D01*
X3801621Y2462254D01*
X3801698Y2462562D01*
X3801813Y2462677D01*
X3802006Y2463177D01*
X3802313Y2463869D01*
X3802698Y2464715D01*
X3802852Y2465100D01*
X3803082Y2465485D01*
X3803236Y2465869D01*
X3804005Y2467254D01*
X3804313Y2467792D01*
X3804467Y2467946D01*
X3804544Y2468100D01*
X3805082Y2468946D01*
X3805313Y2469330D01*
X3805466Y2469484D01*
X3805697Y2469869D01*
X3805851Y2470022D01*
X3806082Y2470407D01*
X3806312Y2470638D01*
X3806389Y2470791D01*
X3806620Y2471022D01*
X3806812Y2471291D01*
X3807159Y2471715D01*
X3807235Y2471868D01*
X3807543Y2472176D01*
X3807620Y2472330D01*
X3807774Y2472407D01*
X3807851Y2472561D01*
X3808235Y2472945D01*
X3808312Y2473099D01*
X3808543Y2473253D01*
X3808620Y2473407D01*
X3808735Y2473522D01*
X3808889Y2473599D01*
X3808927Y2473714D01*
X3810966Y2475752D01*
X3811119Y2475829D01*
X3811273Y2476060D01*
X3811427Y2476137D01*
X3812119Y2476829D01*
X3812273Y2476906D01*
X3812581Y2477214D01*
X3812735Y2477291D01*
X3813042Y2477598D01*
X3813196Y2477675D01*
X3813504Y2477983D01*
X3813657Y2478060D01*
X3813965Y2478367D01*
X3814119Y2478444D01*
X3814273Y2478598D01*
X3814542Y2478790D01*
X3814965Y2479136D01*
X3815119Y2479213D01*
X3815350Y2479444D01*
X3815503Y2479521D01*
X3815657Y2479675D01*
X3816042Y2479905D01*
X3816196Y2480059D01*
X3816580Y2480290D01*
X3816811Y2480521D01*
X3816965Y2480598D01*
X3817195Y2480829D01*
X3817734Y2481136D01*
X3818118Y2481367D01*
X3818349Y2481598D01*
X3818887Y2481905D01*
X3819272Y2482136D01*
X3819426Y2482290D01*
X3820503Y2482905D01*
X3820733Y2483136D01*
X3821041Y2483213D01*
X3821272Y2483443D01*
X3821656Y2483597D01*
X3821810Y2483751D01*
X3822964Y2484366D01*
X3823156Y2484559D01*
X3823656Y2484751D01*
X3823810Y2484905D01*
X3823964Y2484982D01*
X3824348Y2485135D01*
X3824541Y2485328D01*
X3824963Y2485443D01*
X3825156Y2485635D01*
X3825656Y2485828D01*
X3825810Y2485981D01*
X3825963Y2486059D01*
X3826502Y2486289D01*
X3826886Y2486520D01*
X3827194Y2486597D01*
X3827348Y2486751D01*
X3827963Y2486981D01*
X3828117Y2487135D01*
X3828271Y2487212D01*
X3828655Y2487366D01*
X3828809Y2487443D01*
X3828925Y2487558D01*
X3829424Y2487674D01*
X3829578Y2487827D01*
X3829732Y2487904D01*
X3830424Y2488212D01*
X3830809Y2488366D01*
X3831655Y2488750D01*
X3831963Y2488827D01*
X3832078Y2488943D01*
X3832578Y2489135D01*
X3832962Y2489366D01*
X3833270Y2489443D01*
X3834116Y2489827D01*
X3834424Y2489904D01*
X3834924Y2490173D01*
X3835423Y2490289D01*
X3835539Y2490404D01*
X3836039Y2490596D01*
X3836731Y2490904D01*
X3837193Y2490981D01*
X3837308Y2491096D01*
X3837808Y2491288D01*
X3838115Y2491365D01*
X3838461Y2491558D01*
X3838885Y2491673D01*
X3839423Y2491827D01*
X3839538Y2491942D01*
X3839961Y2492058D01*
X3840961Y2492442D01*
X3841499Y2492673D01*
X3842192Y2492827D01*
X3842576Y2493057D01*
X3842961Y2493134D01*
X3843653Y2493442D01*
X3843961Y2493519D01*
X3844653Y2493827D01*
X3845114Y2493903D01*
X3845807Y2494211D01*
X3846422Y2494365D01*
X3846576Y2494519D01*
X3847191Y2494673D01*
X3847883Y2494980D01*
X3848191Y2495057D01*
X3848883Y2495365D01*
X3849191Y2495442D01*
X3849537Y2495634D01*
X3849960Y2495749D01*
X3850383Y2495942D01*
X3850883Y2496134D01*
X3851190Y2496211D01*
X3851344Y2496365D01*
X3851652Y2496441D01*
X3852498Y2496826D01*
X3853036Y2497057D01*
X3853421Y2497211D01*
X3854267Y2497595D01*
X3854574Y2497672D01*
X3854728Y2497826D01*
X3855036Y2497903D01*
X3855613Y2498249D01*
X3856113Y2498364D01*
X3856343Y2498595D01*
X3856651Y2498672D01*
X3857305Y2499018D01*
X3857728Y2499133D01*
X3857882Y2499287D01*
X3858035Y2499364D01*
X3858420Y2499518D01*
X3859266Y2499979D01*
X3860573Y2500672D01*
X3861266Y2501056D01*
X3861804Y2501364D01*
X3861958Y2501441D01*
X3862112Y2501595D01*
X3862419Y2501671D01*
X3862573Y2501825D01*
X3864188Y2502748D01*
X3864419Y2502979D01*
X3864573Y2503056D01*
X3865419Y2503594D01*
X3865957Y2503979D01*
X3866496Y2504287D01*
X3866534Y2504402D01*
X3866803Y2504594D01*
X3866957Y2504671D01*
X3867188Y2504902D01*
X3867342Y2504979D01*
X3867496Y2505133D01*
X3867880Y2505363D01*
X3868111Y2505594D01*
X3868265Y2505671D01*
X3868572Y2505979D01*
X3868726Y2506055D01*
X3868880Y2506286D01*
X3869034Y2506363D01*
X3869918Y2507248D01*
X3869995Y2507401D01*
X3870111Y2507440D01*
X3870226Y2507555D01*
X3870303Y2507709D01*
X3870918Y2508324D01*
X3870995Y2508478D01*
X3871303Y2508786D01*
X3871380Y2508940D01*
X3871687Y2509247D01*
X3871764Y2509401D01*
X3871918Y2509555D01*
X3872149Y2509939D01*
X3872302Y2510093D01*
X3872533Y2510478D01*
X3872764Y2510709D01*
X3872918Y2511093D01*
X3873149Y2511324D01*
X3873456Y2511862D01*
X3873533Y2512016D01*
X3873879Y2512593D01*
X3874072Y2513093D01*
X3874225Y2513247D01*
X3874302Y2513401D01*
X3874687Y2514247D01*
X3874764Y2514554D01*
X3875033Y2515054D01*
X3875148Y2515554D01*
X3875340Y2515977D01*
X3875456Y2516400D01*
X3875533Y2516708D01*
X3875725Y2517208D01*
X3875840Y2517938D01*
X3876071Y2518861D01*
X3876148Y2519092D01*
X3876225Y2520399D01*
X3876302Y2520630D01*
X3876379Y2522553D01*
X3876456Y2522784D01*
X3876417Y2523130D01*
X3876340Y2524668D01*
X3876187Y2526668D01*
X3876110Y2527437D01*
X3875956Y2528052D01*
X3875840Y2528706D01*
X3875764Y2529244D01*
X3875687Y2529552D01*
X3875533Y2529936D01*
X3875456Y2530398D01*
X3875379Y2530706D01*
X3875187Y2531206D01*
X3875071Y2531628D01*
X3874841Y2532167D01*
X3874764Y2532474D01*
X3874379Y2533321D01*
X3873533Y2535090D01*
X3873341Y2535282D01*
X3873187Y2535666D01*
X3872687Y2536397D01*
X3872456Y2536782D01*
X3872226Y2537012D01*
X3872149Y2537166D01*
X3871841Y2537474D01*
X3871764Y2537628D01*
X3871456Y2537935D01*
X3871380Y2538089D01*
X3869572Y2539896D01*
X3869418Y2539973D01*
X3869034Y2540358D01*
X3868880Y2540435D01*
X3868765Y2540550D01*
X3867265Y2541666D01*
X3866996Y2541858D01*
X3866265Y2542358D01*
X3865727Y2542665D01*
X3865573Y2542819D01*
X3865034Y2543127D01*
X3863881Y2543742D01*
X3863496Y2543973D01*
X3862881Y2544204D01*
X3862765Y2544319D01*
X3862266Y2544511D01*
X3861881Y2544742D01*
X3861573Y2544819D01*
X3861189Y2544973D01*
X3861073Y2545088D01*
X3860651Y2545203D01*
X3859997Y2545473D01*
X3859574Y2545588D01*
X3859228Y2545703D01*
X3858843Y2545857D01*
X3858535Y2545934D01*
X3858151Y2546011D01*
X3857766Y2546165D01*
X3856959Y2546357D01*
X3856305Y2546549D01*
X3855459Y2546703D01*
X3854997Y2546780D01*
X3854382Y2546934D01*
X3853498Y2547049D01*
X3852575Y2547203D01*
X3852344Y2547280D01*
X3851037Y2547357D01*
X3850806Y2547434D01*
X3848037Y2547511D01*
X3847806Y2547588D01*
X3844691Y2547549D01*
X3843768Y2547472D01*
X3842538Y2547395D01*
X3841923Y2547318D01*
X3841538Y2547242D01*
X3841230Y2547165D01*
X3840500Y2547049D01*
X3839961Y2546972D01*
X3839307Y2546780D01*
X3838577Y2546665D01*
X3838077Y2546472D01*
X3837269Y2546280D01*
X3836616Y2546011D01*
X3836116Y2545896D01*
X3835347Y2545588D01*
X3834808Y2545434D01*
X3834654Y2545280D01*
X3834347Y2545203D01*
X3833808Y2544973D01*
X3833655Y2544896D01*
X3832962Y2544588D01*
X3832809Y2544511D01*
X3831501Y2543896D01*
X3830193Y2543204D01*
X3829655Y2542896D01*
X3829424Y2542665D01*
X3829117Y2542588D01*
X3828963Y2542435D01*
X3828425Y2542127D01*
X3828001Y2541858D01*
X3827271Y2541358D01*
X3826886Y2541127D01*
X3826733Y2540973D01*
X3826348Y2540742D01*
X3826194Y2540589D01*
X3825810Y2540358D01*
X3825579Y2540127D01*
X3825425Y2540050D01*
X3825117Y2539743D01*
X3824963Y2539666D01*
X3824810Y2539512D01*
X3824656Y2539435D01*
X3824502Y2539281D01*
X3824348Y2539204D01*
X3824117Y2538974D01*
X3823964Y2538897D01*
X3823656Y2538589D01*
X3823502Y2538512D01*
X3822887Y2537897D01*
X3822733Y2537820D01*
X3822425Y2537512D01*
X3822272Y2537435D01*
X3821656Y2536820D01*
X3821503Y2536743D01*
X3820118Y2535359D01*
X3819849Y2535166D01*
X3819772Y2535013D01*
X3818349Y2533590D01*
X3818041Y2533513D01*
X3817503Y2534051D01*
X3817349Y2534128D01*
X3816657Y2534820D01*
X3816503Y2534897D01*
X3816349Y2535128D01*
X3816196Y2535205D01*
X3815503Y2535897D01*
X3815350Y2535974D01*
X3814734Y2536589D01*
X3814581Y2536666D01*
X3814196Y2537051D01*
X3814042Y2537128D01*
X3813427Y2537743D01*
X3813158Y2537935D01*
X3813081Y2538089D01*
X3812965Y2538128D01*
X3812273Y2538820D01*
X3812119Y2538897D01*
X3811504Y2539512D01*
X3811235Y2539704D01*
X3811158Y2539858D01*
X3811043Y2539896D01*
X3810658Y2540281D01*
X3810504Y2540358D01*
X3809812Y2541050D01*
X3809658Y2541127D01*
X3808966Y2541819D01*
X3808812Y2541896D01*
X3808389Y2542319D01*
X3807928Y2542704D01*
X3807851Y2542858D01*
X3807735Y2542896D01*
X3807235Y2543396D01*
X3807159Y2543704D01*
X3807466Y2544011D01*
X3807543Y2544165D01*
X3807928Y2544550D01*
X3808005Y2544704D01*
X3808158Y2544780D01*
X3808235Y2544934D01*
X3808620Y2545319D01*
X3808697Y2545473D01*
X3808812Y2545511D01*
X3808927Y2545626D01*
X3809004Y2545780D01*
X3809120Y2545896D01*
X3809274Y2545972D01*
X3809312Y2546088D01*
X3809504Y2546280D01*
X3809658Y2546357D01*
X3809697Y2546472D01*
X3809889Y2546665D01*
X3810043Y2546742D01*
X3810120Y2546895D01*
X3810389Y2547088D01*
X3810466Y2547242D01*
X3810581Y2547357D01*
X3810735Y2547434D01*
X3810773Y2547549D01*
X3810889Y2547665D01*
X3811043Y2547742D01*
X3811735Y2548434D01*
X3811889Y2548511D01*
X3812427Y2549049D01*
X3812581Y2549126D01*
X3812965Y2549510D01*
X3813119Y2549587D01*
X3813350Y2549818D01*
X3813619Y2550010D01*
X3814042Y2550356D01*
X3814196Y2550433D01*
X3814427Y2550664D01*
X3814581Y2550741D01*
X3814696Y2550856D01*
X3816196Y2551972D01*
X3816580Y2552202D01*
X3816811Y2552433D01*
X3816965Y2552510D01*
X3817503Y2552894D01*
X3817734Y2552971D01*
X3817888Y2553125D01*
X3818964Y2553741D01*
X3819118Y2553894D01*
X3819657Y2554202D01*
X3820964Y2554894D01*
X3821503Y2555202D01*
X3821887Y2555433D01*
X3822041Y2555510D01*
X3822425Y2555663D01*
X3822810Y2555894D01*
X3824502Y2556663D01*
X3825194Y2556971D01*
X3825502Y2557048D01*
X3826194Y2557355D01*
X3826733Y2557509D01*
X3826886Y2557663D01*
X3827502Y2557817D01*
X3827925Y2558009D01*
X3828348Y2558124D01*
X3828655Y2558201D01*
X3829078Y2558394D01*
X3829501Y2558509D01*
X3829809Y2558586D01*
X3830232Y2558778D01*
X3830693Y2558855D01*
X3831078Y2558932D01*
X3831693Y2559163D01*
X3832462Y2559317D01*
X3832847Y2559470D01*
X3833424Y2559586D01*
X3833962Y2559663D01*
X3834616Y2559855D01*
X3836000Y2560086D01*
X3836308Y2560163D01*
X3837154Y2560316D01*
X3837923Y2560393D01*
X3838308Y2560470D01*
X3839154Y2560624D01*
X3841000Y2560778D01*
X3842038Y2560893D01*
X3842269Y2560970D01*
X3844807Y2561047D01*
X3845037Y2561124D01*
X3845307Y2561086D01*
X3847114Y2561124D01*
X3852498Y2561047D01*
D02*
G37*
G36*
X2936713D02*
X2937251Y2560970D01*
X2938290Y2560855D01*
X2938905Y2560778D01*
X2939828Y2560701D01*
X2940674Y2560624D01*
X2941135Y2560547D01*
X2941712Y2560432D01*
X2942020Y2560355D01*
X2943058Y2560240D01*
X2943366Y2560163D01*
X2944250Y2559970D01*
X2944789Y2559894D01*
X2945096Y2559817D01*
X2945481Y2559663D01*
X2946096Y2559586D01*
X2946404Y2559509D01*
X2946904Y2559317D01*
X2947557Y2559201D01*
X2947865Y2559124D01*
X2948288Y2558932D01*
X2948788Y2558817D01*
X2949326Y2558586D01*
X2949788Y2558509D01*
X2950480Y2558201D01*
X2950865Y2558124D01*
X2951288Y2557932D01*
X2951787Y2557740D01*
X2952326Y2557509D01*
X2952711Y2557355D01*
X2953403Y2557048D01*
X2956095Y2555740D01*
X2956787Y2555356D01*
X2957863Y2554740D01*
X2958017Y2554587D01*
X2959094Y2553971D01*
X2959248Y2553818D01*
X2959633Y2553587D01*
X2960901Y2552625D01*
X2961325Y2552279D01*
X2961478Y2552202D01*
X2961709Y2551972D01*
X2961863Y2551895D01*
X2962171Y2551587D01*
X2962324Y2551510D01*
X2962632Y2551202D01*
X2962786Y2551126D01*
X2963401Y2550510D01*
X2963555Y2550433D01*
X2964324Y2549664D01*
X2964478Y2549587D01*
X2964593Y2549472D01*
X2964670Y2549318D01*
X2964786Y2549280D01*
X2965362Y2548703D01*
X2965439Y2548549D01*
X2966131Y2547857D01*
X2966208Y2547703D01*
X2966555Y2547357D01*
X2967708Y2545972D01*
X2968054Y2545550D01*
X2968131Y2545396D01*
X2968362Y2545165D01*
X2968439Y2545011D01*
X2968593Y2544857D01*
X2968823Y2544473D01*
X2969054Y2544242D01*
X2969362Y2543704D01*
X2969593Y2543319D01*
X2969746Y2543165D01*
X2969823Y2543011D01*
X2970131Y2542550D01*
X2970746Y2541473D01*
X2971131Y2540781D01*
X2972054Y2539012D01*
X2972438Y2538166D01*
X2972746Y2537474D01*
X2972823Y2537166D01*
X2973054Y2536628D01*
X2973207Y2536243D01*
X2973284Y2535936D01*
X2973477Y2535512D01*
X2973592Y2535090D01*
X2973669Y2534782D01*
X2973861Y2534359D01*
X2973977Y2533782D01*
X2974092Y2533359D01*
X2974246Y2532974D01*
X2974361Y2532321D01*
X2974476Y2531898D01*
X2974630Y2531282D01*
X2974784Y2530360D01*
X2974861Y2529975D01*
X2974938Y2529667D01*
X2975015Y2529283D01*
X2975092Y2528514D01*
X2975169Y2527821D01*
X2975284Y2527091D01*
X2975361Y2526860D01*
X2975438Y2523937D01*
X2975515Y2523707D01*
X2975476Y2520745D01*
X2975399Y2518823D01*
X2975322Y2518131D01*
X2975245Y2517669D01*
X2975169Y2517285D01*
X2975053Y2516323D01*
X2974976Y2515785D01*
X2974784Y2515131D01*
X2974669Y2514323D01*
X2974592Y2514016D01*
X2974399Y2513516D01*
X2974284Y2512785D01*
X2974092Y2512362D01*
X2973977Y2511939D01*
X2973900Y2511631D01*
X2973784Y2511285D01*
X2973630Y2510901D01*
X2973515Y2510401D01*
X2973400Y2510286D01*
X2973207Y2509786D01*
X2972977Y2509247D01*
X2972823Y2508863D01*
X2972515Y2508171D01*
X2972361Y2507786D01*
X2972131Y2507401D01*
X2971977Y2507017D01*
X2971208Y2505632D01*
X2970592Y2504556D01*
X2970439Y2504402D01*
X2970131Y2503863D01*
X2969746Y2503325D01*
X2969516Y2502941D01*
X2969362Y2502787D01*
X2969093Y2502364D01*
X2968747Y2501941D01*
X2968670Y2501787D01*
X2968439Y2501556D01*
X2968362Y2501402D01*
X2968131Y2501172D01*
X2968054Y2501018D01*
X2967670Y2500633D01*
X2967593Y2500479D01*
X2967477Y2500441D01*
X2967439Y2500325D01*
X2967285Y2500172D01*
X2967208Y2500018D01*
X2966593Y2499403D01*
X2966516Y2499249D01*
X2964247Y2496980D01*
X2964093Y2496903D01*
X2963401Y2496211D01*
X2963247Y2496134D01*
X2962940Y2495826D01*
X2962786Y2495749D01*
X2962555Y2495519D01*
X2962286Y2495326D01*
X2961825Y2494942D01*
X2961401Y2494596D01*
X2961248Y2494519D01*
X2961017Y2494288D01*
X2960863Y2494211D01*
X2960709Y2494057D01*
X2960440Y2493865D01*
X2959479Y2493134D01*
X2959325Y2493057D01*
X2959171Y2492904D01*
X2958787Y2492673D01*
X2958633Y2492519D01*
X2958479Y2492442D01*
X2957941Y2492058D01*
X2957787Y2491981D01*
X2957633Y2491827D01*
X2957094Y2491519D01*
X2956710Y2491288D01*
X2956556Y2491135D01*
X2956018Y2490827D01*
X2955633Y2490596D01*
X2955172Y2490289D01*
X2955018Y2490212D01*
X2954633Y2489981D01*
X2954095Y2489673D01*
X2952711Y2488904D01*
X2951403Y2488212D01*
X2951018Y2487981D01*
X2950711Y2487904D01*
X2950480Y2487674D01*
X2950172Y2487597D01*
X2949788Y2487366D01*
X2949173Y2487135D01*
X2949019Y2486981D01*
X2948403Y2486751D01*
X2948250Y2486597D01*
X2947942Y2486520D01*
X2947557Y2486366D01*
X2947173Y2486135D01*
X2946865Y2486059D01*
X2946750Y2485943D01*
X2946250Y2485751D01*
X2945827Y2485559D01*
X2945327Y2485366D01*
X2945019Y2485289D01*
X2944865Y2485135D01*
X2944558Y2485059D01*
X2943712Y2484674D01*
X2943404Y2484597D01*
X2942904Y2484328D01*
X2942404Y2484213D01*
X2942289Y2484097D01*
X2941789Y2483905D01*
X2941481Y2483828D01*
X2941135Y2483636D01*
X2940828Y2483559D01*
X2940328Y2483443D01*
X2940174Y2483290D01*
X2939251Y2483059D01*
X2939136Y2482943D01*
X2938713Y2482828D01*
X2937713Y2482444D01*
X2937405Y2482367D01*
X2937059Y2482174D01*
X2936559Y2482059D01*
X2936251Y2481982D01*
X2935905Y2481790D01*
X2935329Y2481675D01*
X2934636Y2481367D01*
X2934329Y2481290D01*
X2933790Y2481059D01*
X2933406Y2480982D01*
X2932713Y2480675D01*
X2932252Y2480598D01*
X2931829Y2480405D01*
X2931445Y2480252D01*
X2930945Y2480136D01*
X2930791Y2479983D01*
X2930483Y2479905D01*
X2929791Y2479598D01*
X2929483Y2479521D01*
X2928945Y2479367D01*
X2928829Y2479252D01*
X2928406Y2479136D01*
X2927868Y2478906D01*
X2927483Y2478752D01*
X2926791Y2478444D01*
X2926407Y2478367D01*
X2925907Y2478098D01*
X2925484Y2477983D01*
X2925138Y2477791D01*
X2924638Y2477598D01*
X2923946Y2477291D01*
X2923100Y2476906D01*
X2922561Y2476675D01*
X2921946Y2476445D01*
X2921831Y2476329D01*
X2921331Y2476137D01*
X2920946Y2475906D01*
X2920715Y2475829D01*
X2920331Y2475675D01*
X2920177Y2475599D01*
X2920062Y2475483D01*
X2919639Y2475368D01*
X2919485Y2475214D01*
X2919331Y2475137D01*
X2918331Y2474676D01*
X2917947Y2474445D01*
X2917793Y2474368D01*
X2917408Y2474214D01*
X2916716Y2473829D01*
X2915870Y2473368D01*
X2915331Y2473060D01*
X2914639Y2472676D01*
X2913562Y2472061D01*
X2913409Y2471907D01*
X2912332Y2471291D01*
X2912178Y2471138D01*
X2911640Y2470830D01*
X2911371Y2470638D01*
X2910640Y2470138D01*
X2910102Y2469753D01*
X2909409Y2469215D01*
X2909256Y2469138D01*
X2909025Y2468907D01*
X2908871Y2468830D01*
X2908563Y2468523D01*
X2908410Y2468446D01*
X2908102Y2468138D01*
X2907948Y2468061D01*
X2907640Y2467753D01*
X2907486Y2467677D01*
X2907102Y2467292D01*
X2906948Y2467215D01*
X2905064Y2465331D01*
X2904987Y2465177D01*
X2904679Y2464869D01*
X2904602Y2464715D01*
X2904295Y2464408D01*
X2904218Y2464254D01*
X2903910Y2463946D01*
X2903833Y2463793D01*
X2903679Y2463639D01*
X2903449Y2463254D01*
X2903295Y2463100D01*
X2903064Y2462716D01*
X2902910Y2462562D01*
X2902680Y2462177D01*
X2902526Y2462024D01*
X2901910Y2460947D01*
X2901718Y2460755D01*
X2901526Y2460255D01*
X2901295Y2460024D01*
X2901218Y2459716D01*
X2900911Y2459255D01*
X2900834Y2458947D01*
X2900603Y2458563D01*
X2900526Y2458409D01*
X2900449Y2458101D01*
X2900218Y2457717D01*
X2900142Y2457409D01*
X2899834Y2456717D01*
X2899680Y2456101D01*
X2899488Y2455678D01*
X2899372Y2455255D01*
X2899296Y2454948D01*
X2899180Y2454602D01*
X2898988Y2453794D01*
X2898911Y2453486D01*
X2898796Y2453063D01*
X2898565Y2451679D01*
X2898411Y2451064D01*
X2898334Y2450602D01*
X2898219Y2448872D01*
X2898142Y2448641D01*
X2898065Y2446564D01*
X2897988Y2446334D01*
X2898065Y2444334D01*
X2898142Y2443334D01*
X2898219Y2442796D01*
X2898296Y2441565D01*
X2898411Y2440527D01*
X2898565Y2439912D01*
X2898680Y2439027D01*
X2898757Y2438719D01*
X2898949Y2438066D01*
X2899065Y2437335D01*
X2899257Y2436835D01*
X2899449Y2436028D01*
X2899642Y2435604D01*
X2899757Y2435182D01*
X2900142Y2434182D01*
X2900372Y2433643D01*
X2900526Y2433259D01*
X2900834Y2432566D01*
X2900988Y2432182D01*
X2901218Y2431797D01*
X2901295Y2431490D01*
X2901487Y2431298D01*
X2901680Y2430798D01*
X2901872Y2430605D01*
X2902064Y2430105D01*
X2902218Y2429952D01*
X2902295Y2429798D01*
X2902833Y2428952D01*
X2903141Y2428413D01*
X2903295Y2428260D01*
X2903526Y2427875D01*
X2903679Y2427721D01*
X2903910Y2427336D01*
X2904141Y2427106D01*
X2904218Y2426952D01*
X2904448Y2426721D01*
X2904525Y2426567D01*
X2904833Y2426260D01*
X2904910Y2426106D01*
X2905218Y2425798D01*
X2905294Y2425644D01*
X2905602Y2425337D01*
X2905679Y2425183D01*
X2906371Y2424491D01*
X2906448Y2424337D01*
X2907640Y2423145D01*
X2907794Y2423068D01*
X2908486Y2422376D01*
X2908640Y2422299D01*
X2909025Y2421914D01*
X2909179Y2421837D01*
X2909486Y2421530D01*
X2909640Y2421453D01*
X2909717Y2421299D01*
X2909871Y2421222D01*
X2910178Y2420914D01*
X2910332Y2420838D01*
X2910563Y2420607D01*
X2910948Y2420376D01*
X2911178Y2420145D01*
X2911332Y2420068D01*
X2911486Y2419915D01*
X2911755Y2419722D01*
X2912486Y2419222D01*
X2913024Y2418838D01*
X2913562Y2418530D01*
X2913716Y2418376D01*
X2913870Y2418299D01*
X2914332Y2417992D01*
X2914870Y2417684D01*
X2915562Y2417300D01*
X2917793Y2416146D01*
X2917947Y2416069D01*
X2918639Y2415761D01*
X2919023Y2415608D01*
X2919562Y2415377D01*
X2919715Y2415300D01*
X2920023Y2415223D01*
X2920408Y2415069D01*
X2920677Y2414954D01*
X2920985Y2414877D01*
X2921407Y2414762D01*
X2921523Y2414646D01*
X2922023Y2414531D01*
X2922330Y2414454D01*
X2922753Y2414262D01*
X2923330Y2414146D01*
X2923753Y2414031D01*
X2924138Y2413877D01*
X2924869Y2413762D01*
X2925522Y2413569D01*
X2925830Y2413492D01*
X2926714Y2413377D01*
X2927330Y2413223D01*
X2927560Y2413146D01*
X2928329Y2413070D01*
X2929368Y2412954D01*
X2930252Y2412839D01*
X2930483Y2412762D01*
X2933098Y2412685D01*
X2933329Y2412608D01*
X2936521Y2412646D01*
X2939289Y2412723D01*
X2940212Y2412800D01*
X2941135Y2412954D01*
X2941827Y2413031D01*
X2942597Y2413108D01*
X2943058Y2413185D01*
X2943673Y2413339D01*
X2944635Y2413454D01*
X2944942Y2413531D01*
X2945788Y2413762D01*
X2946327Y2413839D01*
X2946635Y2413916D01*
X2947019Y2414069D01*
X2947327Y2414146D01*
X2947865Y2414223D01*
X2948288Y2414415D01*
X2948788Y2414531D01*
X2949096Y2414608D01*
X2949519Y2414800D01*
X2950019Y2414915D01*
X2951018Y2415300D01*
X2951557Y2415531D01*
X2951864Y2415608D01*
X2952711Y2415992D01*
X2953018Y2416069D01*
X2953403Y2416300D01*
X2953787Y2416377D01*
X2954249Y2416684D01*
X2954556Y2416761D01*
X2955018Y2417069D01*
X2955325Y2417146D01*
X2955787Y2417453D01*
X2956095Y2417530D01*
X2956287Y2417723D01*
X2956787Y2417915D01*
X2957017Y2418146D01*
X2957325Y2418222D01*
X2957479Y2418376D01*
X2958556Y2418992D01*
X2958710Y2419146D01*
X2959248Y2419453D01*
X2959633Y2419684D01*
X2959786Y2419838D01*
X2960171Y2420068D01*
X2960325Y2420222D01*
X2960709Y2420453D01*
X2960940Y2420684D01*
X2961094Y2420761D01*
X2961671Y2421184D01*
X2962094Y2421530D01*
X2962247Y2421607D01*
X2962478Y2421837D01*
X2962632Y2421914D01*
X2962940Y2422222D01*
X2963093Y2422299D01*
X2963709Y2422914D01*
X2963863Y2422991D01*
X2964170Y2423299D01*
X2964324Y2423376D01*
X2965016Y2424068D01*
X2965170Y2424145D01*
X2966901Y2425875D01*
X2966978Y2426029D01*
X2967670Y2426721D01*
X2967747Y2426875D01*
X2968362Y2427490D01*
X2968439Y2427644D01*
X2968670Y2427798D01*
X2968747Y2427952D01*
X2969054Y2428260D01*
X2969131Y2428413D01*
X2969362Y2428644D01*
X2969554Y2428913D01*
X2969900Y2429336D01*
X2969977Y2429490D01*
X2970208Y2429721D01*
X2970285Y2429875D01*
X2970515Y2430105D01*
X2970708Y2430375D01*
X2971054Y2430798D01*
X2972977Y2433490D01*
X2973284Y2434028D01*
X2973438Y2434182D01*
X2973669Y2434566D01*
X2973977Y2435105D01*
X2974130Y2435258D01*
X2974746Y2436335D01*
X2974899Y2436489D01*
X2975207Y2437027D01*
X2975976Y2438412D01*
X2976284Y2438950D01*
X2976476Y2439219D01*
X2976630Y2439604D01*
X2976899Y2439796D01*
X2977168Y2439758D01*
X2978784Y2438143D01*
X2978937Y2438066D01*
X2979091Y2437835D01*
X2979245Y2437758D01*
X2980937Y2436066D01*
X2981206Y2435874D01*
X2981283Y2435720D01*
X2981398Y2435604D01*
X2981552Y2435528D01*
X2981706Y2435297D01*
X2981860Y2435220D01*
X2982052Y2435028D01*
X2982129Y2434874D01*
X2982244Y2434835D01*
X2983706Y2433374D01*
X2983860Y2433297D01*
X2983936Y2433143D01*
X2984206Y2432951D01*
X2984283Y2432797D01*
X2984398Y2432682D01*
X2984552Y2432605D01*
X2984706Y2432374D01*
X2984860Y2432297D01*
X2987013Y2430144D01*
X2987167Y2430067D01*
X2987282Y2429798D01*
X2987128Y2429413D01*
X2986744Y2428721D01*
X2986282Y2427952D01*
X2985667Y2426875D01*
X2985513Y2426721D01*
X2985206Y2426183D01*
X2984975Y2425798D01*
X2984821Y2425644D01*
X2984744Y2425491D01*
X2984206Y2424645D01*
X2983821Y2424106D01*
X2983514Y2423568D01*
X2983283Y2423337D01*
X2983206Y2423183D01*
X2982975Y2422953D01*
X2982898Y2422799D01*
X2982591Y2422337D01*
X2982398Y2422068D01*
X2982052Y2421645D01*
X2981975Y2421491D01*
X2981860Y2421453D01*
X2981360Y2420722D01*
X2981283Y2420568D01*
X2980975Y2420261D01*
X2980898Y2420107D01*
X2980668Y2419876D01*
X2980591Y2419722D01*
X2980283Y2419415D01*
X2980206Y2419261D01*
X2979899Y2418953D01*
X2979822Y2418799D01*
X2979514Y2418492D01*
X2979437Y2418338D01*
X2978822Y2417723D01*
X2978745Y2417569D01*
X2978053Y2416877D01*
X2977976Y2416723D01*
X2976591Y2415338D01*
X2976515Y2415184D01*
X2976399Y2415069D01*
X2976130Y2414877D01*
X2976053Y2414723D01*
X2975938Y2414685D01*
X2974784Y2413531D01*
X2974630Y2413454D01*
X2974246Y2413070D01*
X2974092Y2412993D01*
X2973938Y2412762D01*
X2973784Y2412685D01*
X2973400Y2412300D01*
X2973246Y2412223D01*
X2973207Y2412108D01*
X2972938Y2411916D01*
X2972784Y2411839D01*
X2972746Y2411724D01*
X2972554Y2411608D01*
X2972400Y2411531D01*
X2972092Y2411224D01*
X2971938Y2411147D01*
X2971708Y2410916D01*
X2971554Y2410839D01*
X2971361Y2410647D01*
X2969323Y2409147D01*
X2968939Y2408916D01*
X2968785Y2408762D01*
X2968400Y2408532D01*
X2967862Y2408147D01*
X2967324Y2407840D01*
X2967170Y2407686D01*
X2966093Y2407070D01*
X2965939Y2406917D01*
X2965401Y2406609D01*
X2964709Y2406224D01*
X2963401Y2405532D01*
X2963017Y2405301D01*
X2962632Y2405148D01*
X2961786Y2404686D01*
X2961632Y2404609D01*
X2959940Y2403840D01*
X2959633Y2403763D01*
X2959248Y2403532D01*
X2958940Y2403456D01*
X2958517Y2403263D01*
X2958017Y2403071D01*
X2957364Y2402802D01*
X2956941Y2402686D01*
X2956171Y2402379D01*
X2955864Y2402302D01*
X2955325Y2402071D01*
X2954633Y2401917D01*
X2954210Y2401725D01*
X2953710Y2401610D01*
X2953403Y2401533D01*
X2952903Y2401340D01*
X2952326Y2401225D01*
X2952018Y2401148D01*
X2951672Y2401033D01*
X2951249Y2400918D01*
X2950941Y2400840D01*
X2950403Y2400764D01*
X2950019Y2400610D01*
X2949288Y2400494D01*
X2948826Y2400418D01*
X2948519Y2400341D01*
X2948096Y2400225D01*
X2947788Y2400148D01*
X2946750Y2400033D01*
X2946135Y2399879D01*
X2945250Y2399764D01*
X2944212Y2399648D01*
X2943827Y2399572D01*
X2943366Y2399495D01*
X2942520Y2399418D01*
X2940559Y2399302D01*
X2940328Y2399225D01*
X2938789Y2399148D01*
X2938559Y2399072D01*
X2931521Y2399110D01*
X2930521Y2399187D01*
X2929675Y2399264D01*
X2928560Y2399379D01*
X2927330Y2399456D01*
X2926022Y2399687D01*
X2925484Y2399764D01*
X2924484Y2399841D01*
X2924061Y2399956D01*
X2923753Y2400033D01*
X2923023Y2400148D01*
X2922484Y2400225D01*
X2921831Y2400418D01*
X2921100Y2400533D01*
X2920792Y2400610D01*
X2920446Y2400725D01*
X2920139Y2400802D01*
X2919677Y2400879D01*
X2919292Y2400956D01*
X2918908Y2401110D01*
X2918100Y2401302D01*
X2917562Y2401533D01*
X2917101Y2401610D01*
X2916562Y2401764D01*
X2916447Y2401879D01*
X2915947Y2401994D01*
X2915293Y2402263D01*
X2914793Y2402379D01*
X2914101Y2402686D01*
X2913562Y2402840D01*
X2913447Y2402956D01*
X2913024Y2403071D01*
X2911332Y2403840D01*
X2911024Y2403917D01*
X2910909Y2404032D01*
X2910178Y2404302D01*
X2910025Y2404455D01*
X2909871Y2404532D01*
X2909486Y2404686D01*
X2909102Y2404917D01*
X2908717Y2405071D01*
X2906640Y2406224D01*
X2905564Y2406840D01*
X2905410Y2406994D01*
X2905256Y2407070D01*
X2904795Y2407378D01*
X2904410Y2407609D01*
X2903872Y2407993D01*
X2903333Y2408301D01*
X2903103Y2408532D01*
X2902949Y2408609D01*
X2902718Y2408839D01*
X2902564Y2408916D01*
X2902026Y2409301D01*
X2901872Y2409378D01*
X2901641Y2409608D01*
X2901487Y2409685D01*
X2901180Y2409993D01*
X2901026Y2410070D01*
X2900911Y2410185D01*
X2900872Y2410224D01*
X2900488Y2410454D01*
X2900257Y2410685D01*
X2900103Y2410762D01*
X2899718Y2411147D01*
X2899565Y2411224D01*
X2899257Y2411531D01*
X2899103Y2411608D01*
X2898949Y2411839D01*
X2898796Y2411916D01*
X2898488Y2412223D01*
X2898334Y2412300D01*
X2897719Y2412916D01*
X2897565Y2412993D01*
X2896334Y2414223D01*
X2896180Y2414300D01*
X2896142Y2414415D01*
X2895065Y2415492D01*
X2894988Y2415646D01*
X2894296Y2416338D01*
X2894219Y2416492D01*
X2893912Y2416800D01*
X2893835Y2416954D01*
X2893219Y2417569D01*
X2893142Y2417723D01*
X2892912Y2417953D01*
X2892681Y2418338D01*
X2892450Y2418569D01*
X2892373Y2418722D01*
X2892143Y2418953D01*
X2892066Y2419107D01*
X2891835Y2419338D01*
X2891604Y2419722D01*
X2891374Y2419953D01*
X2891297Y2420107D01*
X2890758Y2420876D01*
X2890451Y2421414D01*
X2890297Y2421568D01*
X2890066Y2421953D01*
X2889835Y2422184D01*
X2889758Y2422491D01*
X2889528Y2422722D01*
X2889374Y2423106D01*
X2889220Y2423260D01*
X2888912Y2423799D01*
X2888220Y2425106D01*
X2887220Y2427029D01*
X2886836Y2427875D01*
X2886605Y2428413D01*
X2886451Y2428798D01*
X2886182Y2429452D01*
X2886067Y2429875D01*
X2885759Y2430567D01*
X2885682Y2430874D01*
X2885451Y2431413D01*
X2885298Y2432105D01*
X2885105Y2432528D01*
X2884913Y2433413D01*
X2884682Y2433951D01*
X2884605Y2434489D01*
X2884528Y2434797D01*
X2884336Y2435451D01*
X2884221Y2436181D01*
X2884105Y2436604D01*
X2884028Y2436912D01*
X2883913Y2437412D01*
X2883798Y2438450D01*
X2883721Y2438835D01*
X2883606Y2439335D01*
X2883529Y2439873D01*
X2883375Y2441950D01*
X2883221Y2442334D01*
X2883144Y2450410D01*
X2883221Y2450641D01*
X2883336Y2450910D01*
X2883413Y2451294D01*
X2883490Y2452217D01*
X2883567Y2453217D01*
X2883644Y2453679D01*
X2883759Y2454256D01*
X2883836Y2454563D01*
X2883952Y2455602D01*
X2884028Y2455909D01*
X2884144Y2456332D01*
X2884221Y2456640D01*
X2884298Y2457178D01*
X2884490Y2457832D01*
X2884605Y2458255D01*
X2884682Y2458793D01*
X2884875Y2459216D01*
X2884990Y2459716D01*
X2885182Y2460370D01*
X2885374Y2460870D01*
X2885451Y2461178D01*
X2885644Y2461601D01*
X2885759Y2462024D01*
X2885836Y2462331D01*
X2885990Y2462485D01*
X2886067Y2462793D01*
X2886836Y2464485D01*
X2887682Y2466254D01*
X2888066Y2466946D01*
X2888374Y2467484D01*
X2888451Y2467638D01*
X2888605Y2467792D01*
X2888682Y2468023D01*
X2888836Y2468177D01*
X2889143Y2468715D01*
X2889528Y2469253D01*
X2889797Y2469676D01*
X2890528Y2470638D01*
X2890604Y2470791D01*
X2890835Y2471022D01*
X2890912Y2471176D01*
X2891220Y2471484D01*
X2891297Y2471638D01*
X2891604Y2471945D01*
X2891681Y2472099D01*
X2892220Y2472637D01*
X2892296Y2472791D01*
X2892758Y2473253D01*
X2892835Y2473407D01*
X2893066Y2473560D01*
X2893142Y2473714D01*
X2895181Y2475752D01*
X2895334Y2475829D01*
X2895950Y2476445D01*
X2896104Y2476521D01*
X2896411Y2476829D01*
X2896680Y2477021D01*
X2896757Y2477175D01*
X2896873Y2477214D01*
X2897257Y2477598D01*
X2897411Y2477675D01*
X2897719Y2477983D01*
X2897873Y2478060D01*
X2898103Y2478290D01*
X2898257Y2478367D01*
X2898488Y2478598D01*
X2898872Y2478829D01*
X2899103Y2479059D01*
X2899257Y2479136D01*
X2899565Y2479444D01*
X2899718Y2479521D01*
X2899949Y2479752D01*
X2900103Y2479829D01*
X2900641Y2480213D01*
X2900795Y2480290D01*
X2900949Y2480444D01*
X2901334Y2480675D01*
X2901487Y2480829D01*
X2901872Y2481059D01*
X2902410Y2481444D01*
X2902949Y2481751D01*
X2903103Y2481905D01*
X2903487Y2482136D01*
X2903641Y2482290D01*
X2904718Y2482905D01*
X2904948Y2483136D01*
X2905256Y2483213D01*
X2905487Y2483443D01*
X2905718Y2483520D01*
X2906179Y2483828D01*
X2906564Y2483982D01*
X2906717Y2484136D01*
X2907871Y2484751D01*
X2908063Y2484943D01*
X2908486Y2485059D01*
X2908717Y2485289D01*
X2908871Y2485366D01*
X2909256Y2485520D01*
X2910909Y2486405D01*
X2911409Y2486597D01*
X2911563Y2486751D01*
X2911717Y2486828D01*
X2913332Y2487597D01*
X2915870Y2488750D01*
X2916562Y2489058D01*
X2917101Y2489289D01*
X2917485Y2489443D01*
X2918331Y2489827D01*
X2918639Y2489904D01*
X2918985Y2490096D01*
X2919408Y2490212D01*
X2919792Y2490365D01*
X2919908Y2490481D01*
X2920331Y2490596D01*
X2920754Y2490789D01*
X2921254Y2490981D01*
X2922023Y2491288D01*
X2922561Y2491442D01*
X2922677Y2491558D01*
X2923100Y2491673D01*
X2923638Y2491827D01*
X2923753Y2491942D01*
X2924253Y2492058D01*
X2924945Y2492365D01*
X2925253Y2492442D01*
X2926022Y2492750D01*
X2926330Y2492827D01*
X2927099Y2493134D01*
X2927407Y2493211D01*
X2927830Y2493403D01*
X2928253Y2493519D01*
X2928945Y2493827D01*
X2929560Y2493980D01*
X2929983Y2494173D01*
X2930406Y2494288D01*
X2931098Y2494596D01*
X2931406Y2494673D01*
X2931791Y2494826D01*
X2932406Y2495057D01*
X2933098Y2495365D01*
X2933406Y2495442D01*
X2933752Y2495634D01*
X2934175Y2495749D01*
X2934483Y2495826D01*
X2934598Y2495942D01*
X2935098Y2496134D01*
X2935405Y2496211D01*
X2935559Y2496365D01*
X2935867Y2496441D01*
X2936713Y2496826D01*
X2937251Y2497057D01*
X2937636Y2497211D01*
X2939020Y2497826D01*
X2939635Y2498057D01*
X2939751Y2498172D01*
X2940251Y2498364D01*
X2940635Y2498595D01*
X2940789Y2498672D01*
X2941635Y2499057D01*
X2941943Y2499133D01*
X2942097Y2499287D01*
X2942251Y2499364D01*
X2942789Y2499595D01*
X2944096Y2500287D01*
X2944481Y2500518D01*
X2944981Y2500787D01*
X2945481Y2500979D01*
X2945635Y2501133D01*
X2946711Y2501748D01*
X2947404Y2502133D01*
X2947557Y2502287D01*
X2947942Y2502441D01*
X2948096Y2502594D01*
X2948250Y2502671D01*
X2948788Y2503056D01*
X2949019Y2503133D01*
X2949173Y2503287D01*
X2949557Y2503517D01*
X2949711Y2503671D01*
X2949865Y2503748D01*
X2950865Y2504440D01*
X2951134Y2504633D01*
X2951557Y2504979D01*
X2951711Y2505056D01*
X2951941Y2505286D01*
X2952095Y2505363D01*
X2952326Y2505594D01*
X2952480Y2505671D01*
X2952787Y2505979D01*
X2952941Y2506055D01*
X2953633Y2506748D01*
X2953903Y2506940D01*
X2953979Y2507094D01*
X2954749Y2507863D01*
X2954825Y2508017D01*
X2955133Y2508324D01*
X2955210Y2508478D01*
X2955518Y2508786D01*
X2955595Y2508940D01*
X2955710Y2508978D01*
X2955902Y2509247D01*
X2955979Y2509401D01*
X2956095Y2509439D01*
X2956171Y2509593D01*
X2956671Y2510324D01*
X2957056Y2510862D01*
X2957364Y2511401D01*
X2957517Y2511555D01*
X2957902Y2512247D01*
X2958440Y2513247D01*
X2958594Y2513631D01*
X2958748Y2513785D01*
X2958825Y2514093D01*
X2958979Y2514477D01*
X2959094Y2514593D01*
X2959209Y2515093D01*
X2959517Y2515785D01*
X2959594Y2516092D01*
X2959709Y2516515D01*
X2959863Y2516900D01*
X2959979Y2517554D01*
X2960094Y2517900D01*
X2960286Y2518707D01*
X2960402Y2519746D01*
X2960517Y2520476D01*
X2960594Y2520707D01*
X2960671Y2522938D01*
X2960594Y2525091D01*
X2960479Y2526129D01*
X2960286Y2527629D01*
X2960209Y2528168D01*
X2960132Y2528475D01*
X2960017Y2528898D01*
X2959902Y2529629D01*
X2959825Y2529936D01*
X2959671Y2530321D01*
X2959517Y2531013D01*
X2959286Y2531552D01*
X2959209Y2531936D01*
X2958979Y2532474D01*
X2958825Y2532859D01*
X2958748Y2533167D01*
X2958633Y2533282D01*
X2958363Y2534013D01*
X2958210Y2534167D01*
X2958133Y2534320D01*
X2957979Y2534705D01*
X2957594Y2535397D01*
X2957441Y2535551D01*
X2957364Y2535782D01*
X2957210Y2535936D01*
X2956902Y2536474D01*
X2956748Y2536628D01*
X2956518Y2537012D01*
X2956402Y2537051D01*
X2956210Y2537397D01*
X2955902Y2537704D01*
X2955825Y2537858D01*
X2955441Y2538243D01*
X2955364Y2538397D01*
X2955249Y2538435D01*
X2955210Y2538550D01*
X2954172Y2539589D01*
X2954018Y2539666D01*
X2953710Y2539973D01*
X2953557Y2540050D01*
X2953249Y2540358D01*
X2953095Y2540435D01*
X2952864Y2540666D01*
X2952711Y2540742D01*
X2952557Y2540896D01*
X2950941Y2542050D01*
X2950557Y2542281D01*
X2950403Y2542435D01*
X2949326Y2543050D01*
X2949134Y2543242D01*
X2948634Y2543434D01*
X2948480Y2543588D01*
X2948327Y2543665D01*
X2947942Y2543819D01*
X2947557Y2544050D01*
X2947173Y2544204D01*
X2946788Y2544434D01*
X2946250Y2544665D01*
X2945865Y2544819D01*
X2945327Y2545050D01*
X2944942Y2545203D01*
X2944635Y2545280D01*
X2944212Y2545473D01*
X2943789Y2545588D01*
X2943250Y2545819D01*
X2942635Y2545972D01*
X2942212Y2546088D01*
X2941712Y2546280D01*
X2941174Y2546357D01*
X2940866Y2546434D01*
X2940481Y2546588D01*
X2940020Y2546665D01*
X2939482Y2546742D01*
X2939174Y2546818D01*
X2938751Y2546934D01*
X2938290Y2547011D01*
X2937521Y2547088D01*
X2937059Y2547165D01*
X2936175Y2547280D01*
X2935944Y2547357D01*
X2934098Y2547434D01*
X2933867Y2547511D01*
X2929022Y2547588D01*
X2928791Y2547511D01*
X2927253Y2547434D01*
X2926484Y2547357D01*
X2925945Y2547280D01*
X2925330Y2547126D01*
X2924792Y2547049D01*
X2923869Y2546895D01*
X2923484Y2546742D01*
X2922869Y2546665D01*
X2922446Y2546549D01*
X2922061Y2546396D01*
X2921561Y2546280D01*
X2921254Y2546203D01*
X2920715Y2545972D01*
X2920408Y2545896D01*
X2919869Y2545665D01*
X2919485Y2545588D01*
X2918639Y2545203D01*
X2918100Y2545050D01*
X2917985Y2544934D01*
X2917562Y2544819D01*
X2917101Y2544511D01*
X2916793Y2544434D01*
X2916408Y2544204D01*
X2916254Y2544127D01*
X2915870Y2543973D01*
X2915024Y2543511D01*
X2914332Y2543127D01*
X2913255Y2542512D01*
X2913101Y2542358D01*
X2912716Y2542204D01*
X2912563Y2542050D01*
X2912178Y2541819D01*
X2912024Y2541742D01*
X2911986Y2541627D01*
X2911640Y2541435D01*
X2911486Y2541358D01*
X2911332Y2541204D01*
X2911063Y2541089D01*
X2910102Y2540358D01*
X2909948Y2540281D01*
X2909717Y2540050D01*
X2909563Y2539973D01*
X2909332Y2539743D01*
X2909179Y2539666D01*
X2908871Y2539358D01*
X2908717Y2539281D01*
X2908563Y2539127D01*
X2908294Y2538935D01*
X2907871Y2538589D01*
X2907717Y2538512D01*
X2907410Y2538204D01*
X2907256Y2538128D01*
X2907217Y2538012D01*
X2907102Y2537897D01*
X2906948Y2537820D01*
X2906333Y2537205D01*
X2906179Y2537128D01*
X2905372Y2536320D01*
X2904910Y2535936D01*
X2904833Y2535782D01*
X2904718Y2535743D01*
X2903449Y2534474D01*
X2903372Y2534320D01*
X2903256Y2534205D01*
X2903103Y2534128D01*
X2903064Y2534013D01*
X2902641Y2533590D01*
X2902334Y2533513D01*
X2902180Y2533667D01*
X2902026Y2533744D01*
X2901410Y2534359D01*
X2901257Y2534436D01*
X2900795Y2534897D01*
X2900641Y2534974D01*
X2900564Y2535128D01*
X2900411Y2535205D01*
X2900026Y2535590D01*
X2899872Y2535666D01*
X2899834Y2535782D01*
X2899718Y2535897D01*
X2899565Y2535974D01*
X2898949Y2536589D01*
X2898680Y2536782D01*
X2898603Y2536935D01*
X2898488Y2536974D01*
X2898026Y2537435D01*
X2897873Y2537512D01*
X2897796Y2537666D01*
X2897642Y2537743D01*
X2897257Y2538128D01*
X2897104Y2538204D01*
X2896488Y2538820D01*
X2896334Y2538897D01*
X2895642Y2539589D01*
X2895488Y2539666D01*
X2895373Y2539781D01*
X2895296Y2539935D01*
X2895181Y2539973D01*
X2894488Y2540666D01*
X2894335Y2540742D01*
X2893719Y2541358D01*
X2893566Y2541435D01*
X2893104Y2541896D01*
X2892950Y2541973D01*
X2892335Y2542588D01*
X2892181Y2542665D01*
X2891566Y2543281D01*
X2891412Y2543358D01*
X2891335Y2543511D01*
X2891374Y2543704D01*
X2891912Y2544242D01*
X2891989Y2544396D01*
X2892604Y2545011D01*
X2892681Y2545165D01*
X2893066Y2545550D01*
X2893142Y2545703D01*
X2893258Y2545819D01*
X2893412Y2545896D01*
X2893566Y2546126D01*
X2893835Y2546319D01*
X2893912Y2546472D01*
X2894027Y2546588D01*
X2894181Y2546665D01*
X2894219Y2546780D01*
X2894412Y2546972D01*
X2894565Y2547049D01*
X2894604Y2547165D01*
X2894796Y2547357D01*
X2894950Y2547434D01*
X2894988Y2547549D01*
X2895104Y2547665D01*
X2895258Y2547742D01*
X2895642Y2548126D01*
X2895796Y2548203D01*
X2896411Y2548818D01*
X2896565Y2548895D01*
X2896950Y2549280D01*
X2897104Y2549357D01*
X2897180Y2549510D01*
X2897334Y2549587D01*
X2897450Y2549703D01*
X2897873Y2550049D01*
X2898026Y2550126D01*
X2898180Y2550280D01*
X2898334Y2550356D01*
X2898642Y2550664D01*
X2898796Y2550741D01*
X2899026Y2550972D01*
X2899180Y2551049D01*
X2899296Y2551164D01*
X2900026Y2551664D01*
X2900411Y2551895D01*
X2900641Y2552125D01*
X2900795Y2552202D01*
X2901026Y2552433D01*
X2901564Y2552741D01*
X2901949Y2552971D01*
X2902103Y2553125D01*
X2902641Y2553433D01*
X2903333Y2553818D01*
X2903487Y2553971D01*
X2904487Y2554510D01*
X2905025Y2554817D01*
X2905410Y2555048D01*
X2905564Y2555125D01*
X2905948Y2555279D01*
X2906102Y2555433D01*
X2906256Y2555510D01*
X2907563Y2556125D01*
X2907717Y2556202D01*
X2908717Y2556663D01*
X2909025Y2556740D01*
X2909179Y2556894D01*
X2909486Y2556971D01*
X2910178Y2557278D01*
X2910486Y2557355D01*
X2911024Y2557586D01*
X2911409Y2557740D01*
X2911717Y2557817D01*
X2912140Y2558009D01*
X2912563Y2558124D01*
X2912870Y2558201D01*
X2913293Y2558394D01*
X2913793Y2558509D01*
X2914293Y2558701D01*
X2915101Y2558894D01*
X2915524Y2559009D01*
X2916024Y2559201D01*
X2916562Y2559278D01*
X2916947Y2559432D01*
X2917639Y2559586D01*
X2918177Y2559663D01*
X2918831Y2559855D01*
X2919215Y2559932D01*
X2919831Y2560009D01*
X2920215Y2560086D01*
X2920831Y2560240D01*
X2921446Y2560316D01*
X2922138Y2560393D01*
X2922523Y2560470D01*
X2923369Y2560624D01*
X2924369Y2560701D01*
X2925215Y2560778D01*
X2926253Y2560893D01*
X2926484Y2560970D01*
X2929022Y2561047D01*
X2929253Y2561124D01*
X2929445Y2561086D01*
X2931560Y2561124D01*
X2936713Y2561047D01*
D02*
G37*
G36*
X3345728D02*
X3346728Y2560970D01*
X3348420Y2560816D01*
X3349189Y2560740D01*
X3350420Y2560663D01*
X3351458Y2560547D01*
X3352381Y2560393D01*
X3353381Y2560316D01*
X3353996Y2560240D01*
X3354304Y2560163D01*
X3354804Y2560047D01*
X3355111Y2559970D01*
X3356111Y2559894D01*
X3356534Y2559778D01*
X3356919Y2559701D01*
X3357726Y2559586D01*
X3358342Y2559432D01*
X3358765Y2559317D01*
X3359495Y2559201D01*
X3359803Y2559124D01*
X3360226Y2559009D01*
X3360534Y2558932D01*
X3361264Y2558817D01*
X3361687Y2558701D01*
X3362187Y2558509D01*
X3362726Y2558432D01*
X3363226Y2558240D01*
X3363802Y2558124D01*
X3364110Y2558048D01*
X3364610Y2557855D01*
X3365110Y2557740D01*
X3365418Y2557663D01*
X3365840Y2557471D01*
X3366417Y2557355D01*
X3366802Y2557202D01*
X3367071Y2557086D01*
X3367571Y2556971D01*
X3368109Y2556740D01*
X3368725Y2556586D01*
X3369417Y2556279D01*
X3369955Y2556125D01*
X3370071Y2556009D01*
X3370494Y2555894D01*
X3371301Y2555548D01*
X3371801Y2555433D01*
X3371955Y2555279D01*
X3372263Y2555202D01*
X3373955Y2554433D01*
X3374493Y2554202D01*
X3374878Y2554048D01*
X3375724Y2553664D01*
X3376031Y2553587D01*
X3376185Y2553433D01*
X3376570Y2553279D01*
X3376954Y2553048D01*
X3377108Y2552971D01*
X3377493Y2552818D01*
X3379569Y2551741D01*
X3380954Y2550972D01*
X3381107Y2550818D01*
X3381492Y2550664D01*
X3381684Y2550472D01*
X3382184Y2550280D01*
X3382415Y2550049D01*
X3382722Y2549972D01*
X3382953Y2549741D01*
X3383338Y2549587D01*
X3383569Y2549357D01*
X3383722Y2549280D01*
X3384492Y2548818D01*
X3384645Y2548664D01*
X3384799Y2548588D01*
X3385645Y2548049D01*
X3386184Y2547742D01*
X3386337Y2547588D01*
X3386722Y2547357D01*
X3386876Y2547203D01*
X3387260Y2546972D01*
X3387414Y2546818D01*
X3387799Y2546588D01*
X3388029Y2546357D01*
X3388183Y2546280D01*
X3388722Y2545896D01*
X3388876Y2545819D01*
X3388914Y2545703D01*
X3389222Y2545550D01*
X3389645Y2545203D01*
X3389798Y2545126D01*
X3390029Y2544896D01*
X3390183Y2544819D01*
X3390414Y2544588D01*
X3390568Y2544511D01*
X3390875Y2544204D01*
X3391029Y2544127D01*
X3391183Y2543973D01*
X3391337Y2543896D01*
X3391490Y2543742D01*
X3391644Y2543665D01*
X3391875Y2543434D01*
X3392029Y2543358D01*
X3392336Y2543050D01*
X3392490Y2542973D01*
X3392798Y2542665D01*
X3392952Y2542588D01*
X3393259Y2542281D01*
X3393413Y2542204D01*
X3393721Y2541896D01*
X3393875Y2541819D01*
X3394490Y2541204D01*
X3394644Y2541127D01*
X3395259Y2540512D01*
X3395413Y2540435D01*
X3395798Y2540050D01*
X3395951Y2539973D01*
X3396028Y2539820D01*
X3396182Y2539743D01*
X3397336Y2538589D01*
X3397490Y2538512D01*
X3398566Y2537435D01*
X3398720Y2537358D01*
X3398759Y2537243D01*
X3398951Y2537051D01*
X3399105Y2536974D01*
X3399143Y2536858D01*
X3400912Y2535090D01*
X3400989Y2534936D01*
X3402066Y2533859D01*
X3402143Y2533705D01*
X3402527Y2533321D01*
X3402604Y2533167D01*
X3403219Y2532551D01*
X3403296Y2532398D01*
X3403912Y2531782D01*
X3403989Y2531628D01*
X3404373Y2531244D01*
X3404450Y2531090D01*
X3404681Y2530859D01*
X3404758Y2530706D01*
X3405065Y2530398D01*
X3405142Y2530244D01*
X3405258Y2530129D01*
X3405873Y2529360D01*
X3406219Y2528937D01*
X3406296Y2528783D01*
X3406604Y2528475D01*
X3406680Y2528321D01*
X3406796Y2528206D01*
X3408296Y2526168D01*
X3408565Y2525745D01*
X3408911Y2525322D01*
X3409296Y2524783D01*
X3410065Y2523630D01*
X3410372Y2523091D01*
X3410603Y2522861D01*
X3410718Y2522591D01*
X3411218Y2521861D01*
X3411526Y2521322D01*
X3411680Y2521169D01*
X3411834Y2520784D01*
X3411987Y2520630D01*
X3412372Y2519938D01*
X3412680Y2519400D01*
X3413141Y2518631D01*
X3413756Y2517477D01*
X3413987Y2517092D01*
X3414141Y2516708D01*
X3414372Y2516323D01*
X3414641Y2515823D01*
X3414833Y2515323D01*
X3414987Y2515169D01*
X3415218Y2514554D01*
X3415372Y2514400D01*
X3415448Y2514247D01*
X3415525Y2513939D01*
X3415794Y2513439D01*
X3415910Y2513016D01*
X3416064Y2512862D01*
X3416218Y2512478D01*
X3416602Y2511631D01*
X3416679Y2511324D01*
X3416794Y2511209D01*
X3416987Y2510709D01*
X3417294Y2510016D01*
X3417371Y2509709D01*
X3417679Y2509017D01*
X3417756Y2508709D01*
X3418063Y2508017D01*
X3418140Y2507709D01*
X3418333Y2507286D01*
X3418448Y2506863D01*
X3418717Y2506209D01*
X3418832Y2505709D01*
X3418948Y2505363D01*
X3419102Y2504979D01*
X3419217Y2504479D01*
X3419409Y2504056D01*
X3419602Y2503248D01*
X3419794Y2502748D01*
X3419909Y2502171D01*
X3419986Y2501864D01*
X3420140Y2501479D01*
X3420294Y2500787D01*
X3420563Y2499903D01*
X3420678Y2499172D01*
X3420871Y2498518D01*
X3421063Y2497403D01*
X3421255Y2496749D01*
X3421332Y2496441D01*
X3421409Y2495826D01*
X3421486Y2495365D01*
X3421640Y2494749D01*
X3421717Y2494288D01*
X3421794Y2493519D01*
X3421870Y2493057D01*
X3421947Y2492750D01*
X3422101Y2491904D01*
X3422178Y2490904D01*
X3422255Y2490289D01*
X3422409Y2489366D01*
X3422486Y2488520D01*
X3422563Y2487289D01*
X3422678Y2485943D01*
X3422755Y2485712D01*
X3422832Y2482021D01*
X3422909Y2481790D01*
X3422870Y2477367D01*
X3422793Y2474368D01*
X3422716Y2473522D01*
X3422640Y2472753D01*
X3422524Y2471330D01*
X3422447Y2470330D01*
X3422332Y2469292D01*
X3422255Y2468907D01*
X3422140Y2467792D01*
X3422024Y2466754D01*
X3421870Y2466138D01*
X3421794Y2465677D01*
X3421717Y2464908D01*
X3421640Y2464446D01*
X3421486Y2463831D01*
X3421371Y2462947D01*
X3421294Y2462639D01*
X3421101Y2461985D01*
X3420986Y2461178D01*
X3420794Y2460524D01*
X3420678Y2460024D01*
X3420601Y2459485D01*
X3420486Y2459062D01*
X3420294Y2458563D01*
X3420217Y2458024D01*
X3420025Y2457524D01*
X3419909Y2456948D01*
X3419832Y2456640D01*
X3419640Y2456140D01*
X3419525Y2455640D01*
X3419448Y2455332D01*
X3419256Y2454909D01*
X3419140Y2454409D01*
X3418909Y2453871D01*
X3418756Y2453256D01*
X3418525Y2452717D01*
X3418448Y2452256D01*
X3418217Y2451718D01*
X3418063Y2451333D01*
X3417986Y2451025D01*
X3417794Y2450679D01*
X3417679Y2450256D01*
X3417486Y2449833D01*
X3417294Y2449333D01*
X3417217Y2449026D01*
X3417064Y2448872D01*
X3416987Y2448564D01*
X3416218Y2446872D01*
X3415987Y2446334D01*
X3415910Y2446180D01*
X3415525Y2445334D01*
X3414602Y2443411D01*
X3414372Y2443026D01*
X3414218Y2442642D01*
X3414064Y2442488D01*
X3413987Y2442180D01*
X3413679Y2441719D01*
X3413602Y2441411D01*
X3413449Y2441258D01*
X3413064Y2440565D01*
X3412756Y2440027D01*
X3412372Y2439335D01*
X3412064Y2438796D01*
X3411834Y2438566D01*
X3411757Y2438258D01*
X3411603Y2438104D01*
X3411295Y2437566D01*
X3411026Y2437143D01*
X3410526Y2436412D01*
X3410295Y2436028D01*
X3410142Y2435874D01*
X3409834Y2435335D01*
X3409449Y2434797D01*
X3409218Y2434412D01*
X3409065Y2434259D01*
X3408796Y2433836D01*
X3408065Y2432874D01*
X3407988Y2432720D01*
X3407757Y2432490D01*
X3407680Y2432336D01*
X3407526Y2432182D01*
X3407296Y2431797D01*
X3407142Y2431644D01*
X3406911Y2431259D01*
X3406757Y2431182D01*
X3406680Y2431028D01*
X3406373Y2430721D01*
X3406296Y2430567D01*
X3406065Y2430336D01*
X3405834Y2429952D01*
X3405527Y2429644D01*
X3405450Y2429490D01*
X3405219Y2429259D01*
X3405142Y2429106D01*
X3404835Y2428798D01*
X3404758Y2428644D01*
X3404527Y2428413D01*
X3404335Y2428144D01*
X3404181Y2428067D01*
X3404142Y2427952D01*
X3403758Y2427567D01*
X3403681Y2427414D01*
X3403296Y2427029D01*
X3403219Y2426875D01*
X3402604Y2426260D01*
X3402527Y2426106D01*
X3402412Y2425991D01*
X3402258Y2425914D01*
X3402220Y2425798D01*
X3401527Y2425106D01*
X3401450Y2424952D01*
X3401335Y2424914D01*
X3401220Y2424798D01*
X3401028Y2424529D01*
X3400874Y2424452D01*
X3400720Y2424222D01*
X3400451Y2424029D01*
X3400374Y2423876D01*
X3400258Y2423760D01*
X3400104Y2423683D01*
X3400066Y2423568D01*
X3399874Y2423376D01*
X3399720Y2423299D01*
X3399682Y2423183D01*
X3399489Y2422991D01*
X3399335Y2422914D01*
X3399297Y2422799D01*
X3398797Y2422299D01*
X3398643Y2422222D01*
X3398489Y2421991D01*
X3398336Y2421914D01*
X3397643Y2421222D01*
X3397490Y2421145D01*
X3397336Y2420914D01*
X3397182Y2420838D01*
X3396490Y2420145D01*
X3396336Y2420068D01*
X3395798Y2419530D01*
X3395644Y2419453D01*
X3395490Y2419299D01*
X3395336Y2419222D01*
X3395028Y2418915D01*
X3394875Y2418838D01*
X3394798Y2418684D01*
X3394644Y2418607D01*
X3394336Y2418299D01*
X3394182Y2418222D01*
X3393875Y2417915D01*
X3393721Y2417838D01*
X3393490Y2417607D01*
X3393336Y2417530D01*
X3393029Y2417223D01*
X3392875Y2417146D01*
X3392644Y2416915D01*
X3392375Y2416723D01*
X3391952Y2416377D01*
X3391798Y2416300D01*
X3391644Y2416146D01*
X3391260Y2415915D01*
X3391029Y2415684D01*
X3390875Y2415608D01*
X3390721Y2415454D01*
X3390452Y2415261D01*
X3390029Y2414915D01*
X3389875Y2414838D01*
X3389722Y2414685D01*
X3389337Y2414454D01*
X3389222Y2414338D01*
X3388260Y2413685D01*
X3387722Y2413300D01*
X3387337Y2413070D01*
X3387183Y2412916D01*
X3386799Y2412685D01*
X3386645Y2412531D01*
X3386107Y2412223D01*
X3385953Y2412070D01*
X3384876Y2411454D01*
X3384722Y2411300D01*
X3384568Y2411224D01*
X3384107Y2410916D01*
X3383953Y2410839D01*
X3383184Y2410378D01*
X3382492Y2409993D01*
X3382338Y2409839D01*
X3382184Y2409762D01*
X3381800Y2409608D01*
X3381646Y2409455D01*
X3381492Y2409378D01*
X3381107Y2409224D01*
X3380954Y2409070D01*
X3380569Y2408916D01*
X3380415Y2408762D01*
X3380031Y2408609D01*
X3379646Y2408378D01*
X3379492Y2408301D01*
X3378915Y2407955D01*
X3378492Y2407840D01*
X3378262Y2407609D01*
X3377877Y2407532D01*
X3377416Y2407224D01*
X3377185Y2407147D01*
X3376800Y2406994D01*
X3376685Y2406878D01*
X3376185Y2406686D01*
X3376070Y2406570D01*
X3375339Y2406301D01*
X3375224Y2406186D01*
X3374724Y2405994D01*
X3374301Y2405801D01*
X3373801Y2405609D01*
X3373301Y2405340D01*
X3372801Y2405224D01*
X3372686Y2405109D01*
X3372186Y2404917D01*
X3371494Y2404609D01*
X3371186Y2404532D01*
X3370494Y2404225D01*
X3369878Y2404071D01*
X3369763Y2403956D01*
X3369340Y2403840D01*
X3368648Y2403532D01*
X3367956Y2403379D01*
X3367532Y2403186D01*
X3367033Y2403071D01*
X3366686Y2402956D01*
X3366302Y2402802D01*
X3365802Y2402686D01*
X3365264Y2402456D01*
X3364571Y2402302D01*
X3364264Y2402225D01*
X3363879Y2402071D01*
X3363572Y2401994D01*
X3363033Y2401917D01*
X3362533Y2401725D01*
X3362226Y2401648D01*
X3361764Y2401571D01*
X3361456Y2401494D01*
X3361072Y2401340D01*
X3360341Y2401225D01*
X3360034Y2401148D01*
X3359611Y2401033D01*
X3359303Y2400956D01*
X3358495Y2400840D01*
X3358188Y2400764D01*
X3357765Y2400648D01*
X3356919Y2400494D01*
X3356303Y2400418D01*
X3355919Y2400341D01*
X3355611Y2400264D01*
X3354957Y2400148D01*
X3353919Y2400033D01*
X3353535Y2399956D01*
X3352689Y2399802D01*
X3351612Y2399725D01*
X3350920Y2399648D01*
X3349997Y2399495D01*
X3349228Y2399418D01*
X3347535Y2399341D01*
X3346536Y2399264D01*
X3345113Y2399148D01*
X3344882Y2399072D01*
X3336845Y2399110D01*
X3335537Y2399187D01*
X3334768Y2399264D01*
X3333038Y2399379D01*
X3332038Y2399456D01*
X3331000Y2399572D01*
X3330538Y2399648D01*
X3329923Y2399725D01*
X3329000Y2399802D01*
X3328385Y2399879D01*
X3327615Y2400033D01*
X3327154Y2400110D01*
X3326385Y2400187D01*
X3326000Y2400264D01*
X3325693Y2400341D01*
X3325308Y2400418D01*
X3324424Y2400533D01*
X3324116Y2400610D01*
X3323693Y2400725D01*
X3322578Y2400918D01*
X3322270Y2400994D01*
X3321924Y2401110D01*
X3321424Y2401225D01*
X3320886Y2401302D01*
X3320232Y2401494D01*
X3319924Y2401571D01*
X3319463Y2401648D01*
X3319155Y2401725D01*
X3318771Y2401879D01*
X3318194Y2401994D01*
X3317771Y2402110D01*
X3317386Y2402263D01*
X3316886Y2402379D01*
X3316463Y2402494D01*
X3316079Y2402648D01*
X3315502Y2402763D01*
X3315079Y2402956D01*
X3314656Y2403071D01*
X3314348Y2403148D01*
X3313925Y2403340D01*
X3313502Y2403456D01*
X3313195Y2403532D01*
X3312772Y2403725D01*
X3312349Y2403840D01*
X3311656Y2404148D01*
X3311349Y2404225D01*
X3310810Y2404455D01*
X3310503Y2404532D01*
X3309964Y2404763D01*
X3309580Y2404917D01*
X3309272Y2404994D01*
X3308772Y2405263D01*
X3308272Y2405378D01*
X3308157Y2405494D01*
X3307426Y2405763D01*
X3307311Y2405878D01*
X3306811Y2406070D01*
X3306503Y2406147D01*
X3306388Y2406263D01*
X3305888Y2406455D01*
X3305503Y2406686D01*
X3305350Y2406763D01*
X3304504Y2407147D01*
X3304196Y2407224D01*
X3304042Y2407378D01*
X3303427Y2407609D01*
X3303273Y2407763D01*
X3302888Y2407916D01*
X3302504Y2408147D01*
X3302350Y2408224D01*
X3301965Y2408378D01*
X3300658Y2409070D01*
X3299966Y2409455D01*
X3299812Y2409608D01*
X3299658Y2409685D01*
X3299274Y2409839D01*
X3299120Y2409993D01*
X3298735Y2410147D01*
X3298581Y2410301D01*
X3297581Y2410839D01*
X3297428Y2410993D01*
X3296735Y2411377D01*
X3296351Y2411608D01*
X3296197Y2411762D01*
X3295120Y2412377D01*
X3294890Y2412608D01*
X3294736Y2412685D01*
X3294274Y2412993D01*
X3294120Y2413070D01*
X3293967Y2413223D01*
X3293428Y2413531D01*
X3292352Y2414300D01*
X3291967Y2414531D01*
X3291813Y2414685D01*
X3290583Y2415608D01*
X3290429Y2415684D01*
X3290198Y2415915D01*
X3290044Y2415992D01*
X3289890Y2416146D01*
X3289506Y2416377D01*
X3289198Y2416684D01*
X3289044Y2416761D01*
X3288814Y2416992D01*
X3288660Y2417069D01*
X3288352Y2417376D01*
X3288198Y2417453D01*
X3288044Y2417607D01*
X3287891Y2417684D01*
X3287737Y2417838D01*
X3287583Y2417915D01*
X3287352Y2418146D01*
X3287083Y2418338D01*
X3287006Y2418492D01*
X3286891Y2418530D01*
X3286583Y2418838D01*
X3286429Y2418915D01*
X3286045Y2419299D01*
X3285891Y2419376D01*
X3285353Y2419915D01*
X3285199Y2419992D01*
X3284814Y2420376D01*
X3284660Y2420453D01*
X3283584Y2421530D01*
X3283430Y2421607D01*
X3283276Y2421837D01*
X3283122Y2421914D01*
X3281046Y2423991D01*
X3280661Y2424452D01*
X3280507Y2424529D01*
X3280469Y2424645D01*
X3279700Y2425414D01*
X3279623Y2425568D01*
X3279007Y2426183D01*
X3278930Y2426337D01*
X3278623Y2426644D01*
X3278546Y2426798D01*
X3278431Y2426914D01*
X3278046Y2427375D01*
X3277892Y2427452D01*
X3277854Y2427567D01*
X3277546Y2427875D01*
X3277469Y2428029D01*
X3277354Y2428144D01*
X3277008Y2428567D01*
X3276931Y2428721D01*
X3276700Y2428952D01*
X3276623Y2429106D01*
X3276316Y2429413D01*
X3276239Y2429567D01*
X3276085Y2429721D01*
X3275892Y2429990D01*
X3275546Y2430413D01*
X3275470Y2430567D01*
X3275316Y2430721D01*
X3275123Y2430990D01*
X3274777Y2431413D01*
X3274393Y2431951D01*
X3274316Y2432105D01*
X3274162Y2432259D01*
X3274085Y2432413D01*
X3273854Y2432643D01*
X3273777Y2432797D01*
X3273239Y2433566D01*
X3272970Y2433989D01*
X3272470Y2434720D01*
X3272201Y2435143D01*
X3271855Y2435566D01*
X3271778Y2435874D01*
X3271970Y2436066D01*
X3272355Y2436297D01*
X3274585Y2437374D01*
X3274970Y2437527D01*
X3275085Y2437643D01*
X3275585Y2437835D01*
X3275931Y2438027D01*
X3276431Y2438220D01*
X3276585Y2438373D01*
X3276738Y2438450D01*
X3277431Y2438758D01*
X3277815Y2438912D01*
X3278200Y2439142D01*
X3278354Y2439219D01*
X3279969Y2439988D01*
X3280353Y2440142D01*
X3280738Y2440373D01*
X3281046Y2440450D01*
X3281199Y2440604D01*
X3281815Y2440834D01*
X3281968Y2440988D01*
X3282584Y2441219D01*
X3282738Y2441373D01*
X3283045Y2441450D01*
X3283622Y2441796D01*
X3284199Y2441911D01*
X3284545Y2441411D01*
X3284930Y2440873D01*
X3285237Y2440335D01*
X3285468Y2440104D01*
X3285545Y2439950D01*
X3286660Y2438373D01*
X3287006Y2437950D01*
X3287083Y2437796D01*
X3287314Y2437566D01*
X3287391Y2437412D01*
X3287545Y2437258D01*
X3287814Y2436835D01*
X3288583Y2435912D01*
X3288737Y2435835D01*
X3288852Y2435643D01*
X3288929Y2435489D01*
X3289237Y2435182D01*
X3289314Y2435028D01*
X3289852Y2434489D01*
X3289929Y2434336D01*
X3290621Y2433643D01*
X3290698Y2433490D01*
X3293736Y2430452D01*
X3293890Y2430375D01*
X3294044Y2430144D01*
X3294197Y2430067D01*
X3294890Y2429375D01*
X3295044Y2429298D01*
X3295466Y2428875D01*
X3295890Y2428529D01*
X3296043Y2428452D01*
X3296274Y2428221D01*
X3296428Y2428144D01*
X3296735Y2427836D01*
X3296889Y2427760D01*
X3296928Y2427644D01*
X3297197Y2427452D01*
X3297351Y2427375D01*
X3297389Y2427260D01*
X3297774Y2427029D01*
X3298197Y2426683D01*
X3298351Y2426606D01*
X3298466Y2426490D01*
X3299427Y2425760D01*
X3299812Y2425529D01*
X3299966Y2425375D01*
X3300235Y2425183D01*
X3300966Y2424683D01*
X3301350Y2424452D01*
X3301504Y2424298D01*
X3301889Y2424068D01*
X3302042Y2423914D01*
X3303119Y2423299D01*
X3303273Y2423145D01*
X3303427Y2423068D01*
X3303965Y2422683D01*
X3304273Y2422606D01*
X3304427Y2422453D01*
X3304965Y2422145D01*
X3305657Y2421760D01*
X3306196Y2421453D01*
X3306349Y2421376D01*
X3306465Y2421260D01*
X3306965Y2421068D01*
X3307119Y2420914D01*
X3307272Y2420838D01*
X3307657Y2420684D01*
X3309311Y2419799D01*
X3309811Y2419607D01*
X3309964Y2419453D01*
X3310118Y2419376D01*
X3310810Y2419069D01*
X3311426Y2418838D01*
X3311541Y2418722D01*
X3312272Y2418453D01*
X3312425Y2418299D01*
X3312733Y2418222D01*
X3313579Y2417838D01*
X3314233Y2417569D01*
X3314656Y2417453D01*
X3315156Y2417184D01*
X3315656Y2417069D01*
X3316040Y2416838D01*
X3316425Y2416761D01*
X3317425Y2416377D01*
X3317732Y2416300D01*
X3318155Y2416108D01*
X3318732Y2415992D01*
X3319117Y2415838D01*
X3319386Y2415723D01*
X3319963Y2415608D01*
X3320501Y2415377D01*
X3321193Y2415223D01*
X3321616Y2415108D01*
X3322001Y2414954D01*
X3322462Y2414877D01*
X3322847Y2414800D01*
X3323347Y2414608D01*
X3323655Y2414531D01*
X3324193Y2414454D01*
X3324616Y2414338D01*
X3325423Y2414146D01*
X3325962Y2414069D01*
X3326385Y2413954D01*
X3327769Y2413723D01*
X3328154Y2413646D01*
X3328461Y2413569D01*
X3328846Y2413492D01*
X3330231Y2413339D01*
X3330692Y2413262D01*
X3331077Y2413185D01*
X3331961Y2413070D01*
X3332961Y2412993D01*
X3334691Y2412800D01*
X3336729Y2412685D01*
X3339114Y2412608D01*
X3344267Y2412685D01*
X3346190Y2412762D01*
X3346959Y2412839D01*
X3347997Y2412954D01*
X3348766Y2413031D01*
X3349843Y2413108D01*
X3350458Y2413185D01*
X3350920Y2413262D01*
X3351304Y2413339D01*
X3352266Y2413454D01*
X3353573Y2413685D01*
X3353881Y2413762D01*
X3354650Y2413839D01*
X3354957Y2413916D01*
X3355381Y2414031D01*
X3355957Y2414146D01*
X3356496Y2414223D01*
X3356803Y2414300D01*
X3357342Y2414454D01*
X3357649Y2414531D01*
X3358188Y2414608D01*
X3358688Y2414800D01*
X3359341Y2414915D01*
X3360226Y2415184D01*
X3360803Y2415300D01*
X3361341Y2415531D01*
X3362033Y2415684D01*
X3362572Y2415915D01*
X3363033Y2415992D01*
X3364033Y2416377D01*
X3364341Y2416454D01*
X3364764Y2416646D01*
X3365187Y2416761D01*
X3365879Y2417069D01*
X3366187Y2417146D01*
X3366879Y2417453D01*
X3367417Y2417607D01*
X3367571Y2417761D01*
X3367879Y2417838D01*
X3368725Y2418222D01*
X3369263Y2418453D01*
X3369417Y2418530D01*
X3370109Y2418838D01*
X3370494Y2418992D01*
X3370878Y2419222D01*
X3371032Y2419299D01*
X3371878Y2419684D01*
X3372263Y2419838D01*
X3372378Y2419953D01*
X3372878Y2420145D01*
X3373070Y2420338D01*
X3373570Y2420530D01*
X3373724Y2420684D01*
X3373878Y2420761D01*
X3374262Y2420914D01*
X3374416Y2421068D01*
X3374570Y2421145D01*
X3374954Y2421299D01*
X3375108Y2421453D01*
X3375493Y2421607D01*
X3375647Y2421760D01*
X3376723Y2422376D01*
X3376877Y2422530D01*
X3377954Y2423145D01*
X3378108Y2423299D01*
X3378262Y2423376D01*
X3378800Y2423760D01*
X3378954Y2423837D01*
X3379108Y2423991D01*
X3379262Y2424068D01*
X3380031Y2424606D01*
X3380569Y2424914D01*
X3380723Y2425068D01*
X3380992Y2425260D01*
X3381415Y2425606D01*
X3381569Y2425683D01*
X3381800Y2425914D01*
X3381953Y2425991D01*
X3382107Y2426144D01*
X3382492Y2426375D01*
X3382722Y2426606D01*
X3382992Y2426798D01*
X3383415Y2427144D01*
X3383569Y2427221D01*
X3383799Y2427452D01*
X3383953Y2427529D01*
X3384030Y2427683D01*
X3384184Y2427760D01*
X3384492Y2428067D01*
X3384645Y2428144D01*
X3384953Y2428452D01*
X3385107Y2428529D01*
X3385414Y2428836D01*
X3385568Y2428913D01*
X3385953Y2429298D01*
X3386107Y2429375D01*
X3386799Y2430067D01*
X3386953Y2430144D01*
X3387030Y2430298D01*
X3387183Y2430375D01*
X3387876Y2431067D01*
X3388029Y2431144D01*
X3388183Y2431374D01*
X3388337Y2431451D01*
X3388529Y2431644D01*
X3388606Y2431797D01*
X3388722Y2431836D01*
X3388837Y2431951D01*
X3388914Y2432105D01*
X3389145Y2432259D01*
X3389337Y2432528D01*
X3389491Y2432605D01*
X3389606Y2432720D01*
X3389683Y2432874D01*
X3389914Y2433028D01*
X3389991Y2433182D01*
X3390106Y2433297D01*
X3390260Y2433374D01*
X3390414Y2433605D01*
X3390568Y2433682D01*
X3390683Y2433797D01*
X3390760Y2433951D01*
X3391375Y2434566D01*
X3391567Y2434835D01*
X3391721Y2434912D01*
X3391760Y2435028D01*
X3392221Y2435489D01*
X3392298Y2435643D01*
X3392836Y2436181D01*
X3392913Y2436335D01*
X3393221Y2436643D01*
X3393298Y2436797D01*
X3393606Y2437104D01*
X3393682Y2437258D01*
X3393990Y2437566D01*
X3394067Y2437720D01*
X3394375Y2438027D01*
X3394452Y2438181D01*
X3394759Y2438489D01*
X3394836Y2438642D01*
X3395067Y2438873D01*
X3395144Y2439027D01*
X3395298Y2439181D01*
X3395528Y2439566D01*
X3395721Y2439758D01*
X3396028Y2440219D01*
X3396759Y2441181D01*
X3397143Y2441719D01*
X3397413Y2442142D01*
X3397913Y2442873D01*
X3398143Y2443257D01*
X3398297Y2443411D01*
X3398605Y2443949D01*
X3398759Y2444103D01*
X3399682Y2445718D01*
X3399912Y2445949D01*
X3399989Y2446257D01*
X3400143Y2446411D01*
X3401527Y2449026D01*
X3402066Y2450025D01*
X3402296Y2450641D01*
X3402412Y2450756D01*
X3402681Y2451487D01*
X3402796Y2451602D01*
X3402989Y2452102D01*
X3403258Y2452602D01*
X3403373Y2453102D01*
X3403489Y2453217D01*
X3403681Y2453717D01*
X3403912Y2454256D01*
X3403989Y2454409D01*
X3404066Y2454717D01*
X3404373Y2455409D01*
X3404450Y2455717D01*
X3404565Y2456063D01*
X3404758Y2456563D01*
X3404835Y2456871D01*
X3404988Y2457255D01*
X3405065Y2457409D01*
X3405142Y2457717D01*
X3405258Y2458140D01*
X3405411Y2458524D01*
X3405604Y2459409D01*
X3405796Y2459832D01*
X3405911Y2460485D01*
X3406104Y2460985D01*
X3406180Y2461293D01*
X3406296Y2462024D01*
X3406373Y2462331D01*
X3406527Y2462716D01*
X3406604Y2463331D01*
X3406757Y2463946D01*
X3406873Y2464369D01*
X3406950Y2464831D01*
X3407027Y2465523D01*
X3407104Y2465985D01*
X3407257Y2466600D01*
X3407373Y2467484D01*
X3407488Y2468523D01*
X3407642Y2469446D01*
X3407719Y2470292D01*
X3407796Y2471753D01*
X3407873Y2472599D01*
X3407950Y2473291D01*
X3408065Y2476714D01*
X3407950Y2476829D01*
X3259510Y2476906D01*
X3259164Y2477021D01*
X3259087Y2477329D01*
X3259164Y2477560D01*
X3259087Y2477714D01*
X3259126Y2479752D01*
X3259241Y2483021D01*
X3259318Y2484943D01*
X3259433Y2487212D01*
X3259510Y2487904D01*
X3259587Y2488366D01*
X3259664Y2489135D01*
X3259741Y2490135D01*
X3259818Y2490750D01*
X3259972Y2491673D01*
X3260049Y2492288D01*
X3260126Y2492981D01*
X3260203Y2493365D01*
X3260318Y2493865D01*
X3260395Y2494173D01*
X3260472Y2494942D01*
X3260549Y2495480D01*
X3260664Y2495903D01*
X3260779Y2496480D01*
X3260856Y2497018D01*
X3260972Y2497441D01*
X3261164Y2498249D01*
X3261241Y2498787D01*
X3261433Y2499441D01*
X3261548Y2500172D01*
X3261741Y2500672D01*
X3261933Y2501479D01*
X3262048Y2501902D01*
X3262202Y2502287D01*
X3262318Y2503017D01*
X3262510Y2503441D01*
X3262702Y2504248D01*
X3262894Y2504671D01*
X3263010Y2505094D01*
X3263087Y2505402D01*
X3263279Y2505825D01*
X3263394Y2506248D01*
X3263471Y2506555D01*
X3263702Y2507094D01*
X3263779Y2507401D01*
X3264087Y2508094D01*
X3264240Y2508709D01*
X3264394Y2508863D01*
X3264471Y2509170D01*
X3264740Y2509824D01*
X3264856Y2510247D01*
X3265240Y2511093D01*
X3265317Y2511401D01*
X3265432Y2511516D01*
X3265702Y2512247D01*
X3265817Y2512362D01*
X3266086Y2513093D01*
X3266240Y2513247D01*
X3266317Y2513554D01*
X3266471Y2513939D01*
X3266625Y2514093D01*
X3266702Y2514400D01*
X3266971Y2514900D01*
X3267163Y2515400D01*
X3267317Y2515554D01*
X3267394Y2515708D01*
X3267548Y2516092D01*
X3269009Y2518861D01*
X3269240Y2519092D01*
X3269317Y2519400D01*
X3269470Y2519553D01*
X3269855Y2520246D01*
X3270163Y2520784D01*
X3270393Y2521169D01*
X3270701Y2521630D01*
X3270778Y2521861D01*
X3271009Y2522091D01*
X3271086Y2522245D01*
X3271624Y2523091D01*
X3271932Y2523630D01*
X3272162Y2523860D01*
X3272239Y2524091D01*
X3272355Y2524207D01*
X3272739Y2524822D01*
X3274239Y2526860D01*
X3274470Y2527245D01*
X3274624Y2527398D01*
X3274816Y2527668D01*
X3275162Y2528091D01*
X3275239Y2528244D01*
X3275470Y2528475D01*
X3275546Y2528629D01*
X3275854Y2528937D01*
X3275931Y2529090D01*
X3276162Y2529321D01*
X3276239Y2529475D01*
X3276469Y2529706D01*
X3276662Y2529975D01*
X3277008Y2530398D01*
X3277085Y2530552D01*
X3277315Y2530782D01*
X3277392Y2530936D01*
X3277777Y2531321D01*
X3277854Y2531475D01*
X3278008Y2531552D01*
X3278084Y2531705D01*
X3278392Y2532013D01*
X3278584Y2532282D01*
X3278738Y2532359D01*
X3278777Y2532474D01*
X3279161Y2532859D01*
X3279238Y2533013D01*
X3279623Y2533398D01*
X3279700Y2533551D01*
X3280315Y2534167D01*
X3280392Y2534320D01*
X3280507Y2534436D01*
X3280661Y2534513D01*
X3280700Y2534628D01*
X3282545Y2536474D01*
X3282622Y2536628D01*
X3282738Y2536666D01*
X3282853Y2536782D01*
X3282930Y2536935D01*
X3283161Y2537089D01*
X3283353Y2537358D01*
X3283507Y2537435D01*
X3285660Y2539589D01*
X3285814Y2539666D01*
X3285968Y2539896D01*
X3286122Y2539973D01*
X3286314Y2540166D01*
X3286352Y2540204D01*
X3286737Y2540589D01*
X3286891Y2540666D01*
X3287275Y2541050D01*
X3287429Y2541127D01*
X3287737Y2541435D01*
X3287891Y2541512D01*
X3288583Y2542204D01*
X3288737Y2542281D01*
X3289083Y2542627D01*
X3289506Y2542973D01*
X3289660Y2543050D01*
X3289890Y2543281D01*
X3290044Y2543358D01*
X3290275Y2543588D01*
X3290429Y2543665D01*
X3290736Y2543973D01*
X3290890Y2544050D01*
X3291121Y2544280D01*
X3291390Y2544473D01*
X3291813Y2544819D01*
X3291967Y2544896D01*
X3292198Y2545126D01*
X3292352Y2545203D01*
X3292505Y2545357D01*
X3292890Y2545588D01*
X3293044Y2545742D01*
X3293467Y2546011D01*
X3293890Y2546357D01*
X3294044Y2546434D01*
X3294082Y2546549D01*
X3294197Y2546588D01*
X3294736Y2546972D01*
X3294890Y2547049D01*
X3295044Y2547203D01*
X3295428Y2547434D01*
X3295659Y2547665D01*
X3295813Y2547742D01*
X3296659Y2548280D01*
X3297197Y2548588D01*
X3297351Y2548741D01*
X3297505Y2548818D01*
X3298043Y2549203D01*
X3298274Y2549280D01*
X3298428Y2549434D01*
X3298966Y2549741D01*
X3299120Y2549895D01*
X3299504Y2550049D01*
X3299697Y2550241D01*
X3300197Y2550433D01*
X3300350Y2550587D01*
X3300889Y2550895D01*
X3301581Y2551279D01*
X3302119Y2551587D01*
X3303581Y2552356D01*
X3303965Y2552587D01*
X3304350Y2552741D01*
X3306119Y2553664D01*
X3307811Y2554433D01*
X3308349Y2554664D01*
X3308503Y2554740D01*
X3309195Y2555048D01*
X3309426Y2555125D01*
X3310118Y2555433D01*
X3310426Y2555510D01*
X3311118Y2555817D01*
X3311426Y2555894D01*
X3311964Y2556125D01*
X3312349Y2556279D01*
X3312887Y2556432D01*
X3313002Y2556548D01*
X3313502Y2556663D01*
X3314041Y2556894D01*
X3314733Y2557048D01*
X3315156Y2557240D01*
X3315579Y2557355D01*
X3315887Y2557432D01*
X3316309Y2557625D01*
X3317117Y2557817D01*
X3317617Y2558009D01*
X3317925Y2558086D01*
X3318386Y2558163D01*
X3318694Y2558240D01*
X3319078Y2558394D01*
X3319655Y2558509D01*
X3320078Y2558624D01*
X3320463Y2558778D01*
X3321193Y2558894D01*
X3321501Y2558970D01*
X3321924Y2559086D01*
X3322424Y2559201D01*
X3322962Y2559278D01*
X3323270Y2559355D01*
X3323693Y2559470D01*
X3324001Y2559547D01*
X3324616Y2559624D01*
X3325077Y2559701D01*
X3325693Y2559855D01*
X3326154Y2559932D01*
X3326923Y2560009D01*
X3327308Y2560086D01*
X3327615Y2560163D01*
X3328538Y2560316D01*
X3329538Y2560393D01*
X3330153Y2560470D01*
X3331077Y2560624D01*
X3331999Y2560701D01*
X3333076Y2560778D01*
X3334499Y2560893D01*
X3334730Y2560970D01*
X3337960Y2561047D01*
X3338268Y2561124D01*
X3338575Y2561047D01*
X3338806Y2561124D01*
X3345728Y2561047D01*
D02*
G37*
G36*
X3166063D02*
X3166832Y2560970D01*
X3167870Y2560855D01*
X3168486Y2560778D01*
X3170062Y2560663D01*
X3170678Y2560509D01*
X3170908Y2560432D01*
X3171831Y2560355D01*
X3172139Y2560278D01*
X3172677Y2560201D01*
X3173062Y2560047D01*
X3173831Y2559970D01*
X3174139Y2559894D01*
X3174908Y2559663D01*
X3175215Y2559586D01*
X3175754Y2559509D01*
X3176254Y2559317D01*
X3176754Y2559201D01*
X3177177Y2559086D01*
X3177561Y2558932D01*
X3178061Y2558817D01*
X3178599Y2558586D01*
X3178984Y2558509D01*
X3179984Y2558124D01*
X3180291Y2558048D01*
X3180676Y2557817D01*
X3181291Y2557663D01*
X3181407Y2557548D01*
X3181907Y2557355D01*
X3182291Y2557202D01*
X3182407Y2557086D01*
X3182830Y2556971D01*
X3183214Y2556740D01*
X3183368Y2556663D01*
X3183753Y2556509D01*
X3184137Y2556279D01*
X3184522Y2556125D01*
X3185906Y2555356D01*
X3186983Y2554740D01*
X3187137Y2554587D01*
X3187675Y2554279D01*
X3188060Y2554048D01*
X3188175Y2553933D01*
X3188790Y2553548D01*
X3189213Y2553202D01*
X3189598Y2552971D01*
X3189905Y2552664D01*
X3190059Y2552587D01*
X3190213Y2552433D01*
X3190598Y2552202D01*
X3190905Y2551895D01*
X3191059Y2551818D01*
X3191290Y2551587D01*
X3191444Y2551510D01*
X3191751Y2551202D01*
X3191905Y2551126D01*
X3192290Y2550741D01*
X3192443Y2550664D01*
X3192482Y2550549D01*
X3192597Y2550433D01*
X3192751Y2550356D01*
X3193751Y2549357D01*
X3193905Y2549280D01*
X3193943Y2549164D01*
X3194136Y2548972D01*
X3194289Y2548895D01*
X3194328Y2548780D01*
X3194520Y2548588D01*
X3194674Y2548511D01*
X3194712Y2548395D01*
X3195405Y2547703D01*
X3195481Y2547549D01*
X3195712Y2547395D01*
X3195789Y2547242D01*
X3196097Y2546934D01*
X3196289Y2546665D01*
X3196443Y2546588D01*
X3196481Y2546472D01*
X3196597Y2546357D01*
X3196943Y2545934D01*
X3197020Y2545780D01*
X3197251Y2545550D01*
X3197327Y2545396D01*
X3197558Y2545165D01*
X3197750Y2544896D01*
X3198097Y2544473D01*
X3199635Y2542319D01*
X3199942Y2541781D01*
X3200173Y2541550D01*
X3200250Y2541319D01*
X3200481Y2541089D01*
X3201096Y2540012D01*
X3201481Y2539320D01*
X3201635Y2539166D01*
X3201788Y2538781D01*
X3201981Y2538589D01*
X3202173Y2538089D01*
X3202365Y2537897D01*
X3202557Y2537397D01*
X3202711Y2537243D01*
X3202942Y2536628D01*
X3203096Y2536474D01*
X3203173Y2536320D01*
X3203327Y2535936D01*
X3203557Y2535551D01*
X3204173Y2534244D01*
X3204403Y2533628D01*
X3204519Y2533513D01*
X3204711Y2533013D01*
X3205326Y2531628D01*
X3205403Y2531398D01*
X3205711Y2530706D01*
X3205788Y2530398D01*
X3206095Y2529706D01*
X3206172Y2529398D01*
X3206441Y2528744D01*
X3206557Y2528321D01*
X3206864Y2527629D01*
X3206941Y2527168D01*
X3207172Y2526629D01*
X3207249Y2526168D01*
X3207364Y2525745D01*
X3207518Y2525668D01*
X3207634Y2525783D01*
X3207711Y2526860D01*
X3207634Y2527091D01*
X3207672Y2556971D01*
X3207634Y2557548D01*
X3207749Y2557663D01*
X3221901Y2557740D01*
X3222208Y2557663D01*
X3222247Y2402802D01*
X3222131Y2402456D01*
X3207749Y2402379D01*
X3207364Y2402533D01*
X3207287Y2483059D01*
X3207211Y2486981D01*
X3207134Y2488289D01*
X3206980Y2490365D01*
X3206903Y2491904D01*
X3206826Y2493365D01*
X3206749Y2494134D01*
X3206557Y2495788D01*
X3206480Y2497018D01*
X3206211Y2499133D01*
X3206134Y2500056D01*
X3206057Y2500749D01*
X3205980Y2501133D01*
X3205826Y2502133D01*
X3205749Y2502979D01*
X3205672Y2503441D01*
X3205519Y2504056D01*
X3205442Y2504671D01*
X3205365Y2505440D01*
X3205134Y2506363D01*
X3205019Y2507325D01*
X3204942Y2507632D01*
X3204788Y2508171D01*
X3204711Y2508478D01*
X3204634Y2509247D01*
X3204442Y2509901D01*
X3204326Y2510401D01*
X3204249Y2510939D01*
X3204019Y2511785D01*
X3203942Y2512093D01*
X3203865Y2512631D01*
X3203634Y2513170D01*
X3203557Y2513785D01*
X3203442Y2514208D01*
X3203288Y2514593D01*
X3203173Y2515246D01*
X3202980Y2515746D01*
X3202865Y2516169D01*
X3202788Y2516477D01*
X3202557Y2517015D01*
X3202481Y2517554D01*
X3202173Y2518246D01*
X3202096Y2518707D01*
X3201788Y2519400D01*
X3201711Y2519861D01*
X3201404Y2520553D01*
X3201250Y2521169D01*
X3201096Y2521322D01*
X3201019Y2521630D01*
X3200711Y2522322D01*
X3200635Y2522630D01*
X3200289Y2523437D01*
X3200173Y2523860D01*
X3199981Y2524053D01*
X3199865Y2524476D01*
X3199635Y2524860D01*
X3199558Y2525091D01*
X3199173Y2525937D01*
X3199019Y2526322D01*
X3198866Y2526475D01*
X3198789Y2526629D01*
X3198250Y2527783D01*
X3197866Y2528475D01*
X3197558Y2529014D01*
X3197174Y2529706D01*
X3196866Y2530244D01*
X3196712Y2530398D01*
X3196097Y2531475D01*
X3195943Y2531628D01*
X3195866Y2531782D01*
X3194366Y2533897D01*
X3194020Y2534320D01*
X3193943Y2534474D01*
X3193636Y2534782D01*
X3193559Y2534936D01*
X3193251Y2535243D01*
X3193174Y2535397D01*
X3192943Y2535628D01*
X3192867Y2535782D01*
X3192174Y2536474D01*
X3192097Y2536628D01*
X3191982Y2536666D01*
X3191867Y2536782D01*
X3191790Y2536935D01*
X3191674Y2537051D01*
X3191521Y2537128D01*
X3191482Y2537243D01*
X3190598Y2538128D01*
X3190444Y2538204D01*
X3190290Y2538435D01*
X3190136Y2538512D01*
X3189444Y2539204D01*
X3189290Y2539281D01*
X3188983Y2539589D01*
X3188829Y2539666D01*
X3188598Y2539896D01*
X3188444Y2539973D01*
X3188329Y2540089D01*
X3187906Y2540435D01*
X3187752Y2540512D01*
X3187713Y2540627D01*
X3187521Y2540742D01*
X3187367Y2540819D01*
X3187252Y2540935D01*
X3186291Y2541588D01*
X3185752Y2541973D01*
X3185368Y2542204D01*
X3184829Y2542588D01*
X3184522Y2542665D01*
X3184368Y2542819D01*
X3183829Y2543127D01*
X3182061Y2544050D01*
X3181676Y2544204D01*
X3181522Y2544357D01*
X3181215Y2544434D01*
X3180368Y2544819D01*
X3180061Y2544896D01*
X3179676Y2545126D01*
X3179292Y2545203D01*
X3178907Y2545357D01*
X3178638Y2545473D01*
X3178215Y2545588D01*
X3177561Y2545857D01*
X3177061Y2545972D01*
X3176061Y2546280D01*
X3175523Y2546357D01*
X3175023Y2546549D01*
X3174369Y2546665D01*
X3173831Y2546742D01*
X3173523Y2546818D01*
X3173100Y2546934D01*
X3172370Y2547049D01*
X3171331Y2547165D01*
X3170562Y2547318D01*
X3169716Y2547395D01*
X3166986Y2547511D01*
X3166755Y2547588D01*
X3162717Y2547549D01*
X3160448Y2547434D01*
X3159448Y2547357D01*
X3158410Y2547242D01*
X3157487Y2547088D01*
X3156641Y2547011D01*
X3156180Y2546934D01*
X3155795Y2546857D01*
X3154911Y2546665D01*
X3154372Y2546588D01*
X3153719Y2546396D01*
X3153065Y2546280D01*
X3152757Y2546203D01*
X3152257Y2546011D01*
X3151604Y2545896D01*
X3151065Y2545665D01*
X3150758Y2545588D01*
X3150104Y2545396D01*
X3149604Y2545203D01*
X3148796Y2544857D01*
X3148296Y2544742D01*
X3148181Y2544626D01*
X3147450Y2544357D01*
X3147335Y2544242D01*
X3146835Y2544050D01*
X3146450Y2543819D01*
X3146297Y2543742D01*
X3145912Y2543588D01*
X3145220Y2543204D01*
X3144143Y2542588D01*
X3144028Y2542473D01*
X3143066Y2541819D01*
X3142913Y2541742D01*
X3142566Y2541473D01*
X3142143Y2541127D01*
X3141990Y2541050D01*
X3141951Y2540935D01*
X3141605Y2540742D01*
X3140990Y2540127D01*
X3140836Y2540050D01*
X3140336Y2539550D01*
X3139875Y2539166D01*
X3139798Y2539012D01*
X3139028Y2538243D01*
X3138952Y2538089D01*
X3138644Y2537781D01*
X3138567Y2537628D01*
X3138259Y2537320D01*
X3138182Y2537166D01*
X3137875Y2536858D01*
X3137798Y2536705D01*
X3137683Y2536589D01*
X3137029Y2535628D01*
X3136644Y2535090D01*
X3136337Y2534551D01*
X3136106Y2534320D01*
X3136029Y2534167D01*
X3135798Y2533782D01*
X3135491Y2533244D01*
X3135106Y2532551D01*
X3134645Y2531782D01*
X3134568Y2531628D01*
X3134414Y2531244D01*
X3134183Y2530859D01*
X3133414Y2529167D01*
X3133337Y2528860D01*
X3133222Y2528744D01*
X3133029Y2528244D01*
X3132952Y2527937D01*
X3132837Y2527821D01*
X3132722Y2527398D01*
X3132491Y2526860D01*
X3132337Y2526475D01*
X3132260Y2526168D01*
X3132068Y2525745D01*
X3131953Y2525322D01*
X3131876Y2525014D01*
X3131684Y2524591D01*
X3131568Y2524091D01*
X3131453Y2523668D01*
X3131299Y2523284D01*
X3131184Y2522630D01*
X3130991Y2522130D01*
X3130799Y2521322D01*
X3130722Y2521015D01*
X3130568Y2520630D01*
X3130491Y2520015D01*
X3130414Y2519707D01*
X3130222Y2519053D01*
X3130107Y2518400D01*
X3130030Y2517861D01*
X3129914Y2517438D01*
X3129838Y2517131D01*
X3129761Y2516669D01*
X3129684Y2515977D01*
X3129607Y2515593D01*
X3129530Y2515285D01*
X3129453Y2514900D01*
X3129376Y2514285D01*
X3129299Y2513516D01*
X3129222Y2513054D01*
X3129145Y2512747D01*
X3129030Y2512016D01*
X3128953Y2511016D01*
X3128838Y2509978D01*
X3128761Y2509517D01*
X3128646Y2508324D01*
X3128492Y2505863D01*
X3128415Y2505632D01*
X3128338Y2503479D01*
X3128261Y2503248D01*
X3128184Y2402571D01*
X3128069Y2402456D01*
X3113686Y2402379D01*
X3113340Y2402494D01*
X3113263Y2487020D01*
X3113186Y2490558D01*
X3113071Y2495288D01*
X3112994Y2496211D01*
X3112917Y2496980D01*
X3112840Y2497672D01*
X3112686Y2499826D01*
X3112609Y2500441D01*
X3112532Y2500825D01*
X3112456Y2501287D01*
X3112379Y2502287D01*
X3112302Y2502979D01*
X3112225Y2503363D01*
X3112148Y2503671D01*
X3112033Y2504402D01*
X3111917Y2505440D01*
X3111763Y2506055D01*
X3111648Y2506786D01*
X3111571Y2507325D01*
X3111494Y2507632D01*
X3111379Y2508055D01*
X3111264Y2508863D01*
X3111187Y2509170D01*
X3110994Y2509824D01*
X3110879Y2510632D01*
X3110610Y2511516D01*
X3110533Y2511978D01*
X3110456Y2512362D01*
X3110302Y2512747D01*
X3110187Y2513324D01*
X3110110Y2513631D01*
X3109879Y2514170D01*
X3109802Y2514785D01*
X3109533Y2515439D01*
X3109418Y2515939D01*
X3109341Y2516246D01*
X3109148Y2516669D01*
X3109033Y2517169D01*
X3108802Y2517707D01*
X3108648Y2518323D01*
X3108418Y2518861D01*
X3108341Y2519246D01*
X3108149Y2519669D01*
X3107956Y2520169D01*
X3107879Y2520476D01*
X3107687Y2520822D01*
X3107572Y2521245D01*
X3107380Y2521669D01*
X3107110Y2522399D01*
X3106956Y2522553D01*
X3106880Y2522861D01*
X3106649Y2523399D01*
X3106341Y2524168D01*
X3106187Y2524322D01*
X3106110Y2524706D01*
X3105803Y2525168D01*
X3105726Y2525476D01*
X3105457Y2525976D01*
X3105264Y2526475D01*
X3105111Y2526629D01*
X3105034Y2526783D01*
X3104880Y2527168D01*
X3104649Y2527552D01*
X3104495Y2527937D01*
X3104111Y2528629D01*
X3103803Y2529167D01*
X3103419Y2529860D01*
X3103188Y2530244D01*
X3102649Y2531090D01*
X3102342Y2531628D01*
X3102188Y2531782D01*
X3102111Y2531936D01*
X3101342Y2533013D01*
X3101265Y2533167D01*
X3101111Y2533321D01*
X3100842Y2533744D01*
X3099765Y2535128D01*
X3099611Y2535205D01*
X3099573Y2535320D01*
X3099188Y2535705D01*
X3099111Y2535859D01*
X3098881Y2536089D01*
X3098689Y2536359D01*
X3098535Y2536436D01*
X3098496Y2536551D01*
X3096535Y2538512D01*
X3096381Y2538589D01*
X3095766Y2539204D01*
X3095612Y2539281D01*
X3095304Y2539589D01*
X3095151Y2539666D01*
X3094843Y2539973D01*
X3094689Y2540050D01*
X3094497Y2540243D01*
X3094035Y2540550D01*
X3093612Y2540896D01*
X3093074Y2541281D01*
X3092689Y2541512D01*
X3092459Y2541742D01*
X3092305Y2541819D01*
X3091843Y2542127D01*
X3090767Y2542742D01*
X3090074Y2543127D01*
X3089959Y2543242D01*
X3089459Y2543434D01*
X3089305Y2543588D01*
X3089151Y2543665D01*
X3087536Y2544434D01*
X3087229Y2544511D01*
X3086844Y2544742D01*
X3086536Y2544819D01*
X3085998Y2545050D01*
X3085613Y2545203D01*
X3085306Y2545280D01*
X3084767Y2545511D01*
X3084152Y2545665D01*
X3083729Y2545857D01*
X3083229Y2545972D01*
X3082345Y2546242D01*
X3081883Y2546319D01*
X3081499Y2546396D01*
X3080999Y2546588D01*
X3080691Y2546665D01*
X3079922Y2546742D01*
X3079499Y2546857D01*
X3079191Y2546934D01*
X3078461Y2547049D01*
X3077422Y2547165D01*
X3077038Y2547242D01*
X3076576Y2547318D01*
X3075807Y2547395D01*
X3073000Y2547511D01*
X3072769Y2547588D01*
X3068655Y2547549D01*
X3067347Y2547472D01*
X3065655Y2547395D01*
X3064732Y2547318D01*
X3063925Y2547203D01*
X3063617Y2547126D01*
X3063078Y2547049D01*
X3062079Y2546972D01*
X3061463Y2546818D01*
X3061233Y2546742D01*
X3060463Y2546665D01*
X3059848Y2546511D01*
X3059425Y2546396D01*
X3058771Y2546280D01*
X3058348Y2546165D01*
X3057849Y2545972D01*
X3057310Y2545896D01*
X3056772Y2545665D01*
X3056156Y2545511D01*
X3055810Y2545396D01*
X3055426Y2545242D01*
X3054926Y2545126D01*
X3054811Y2545011D01*
X3054311Y2544819D01*
X3053772Y2544588D01*
X3053541Y2544511D01*
X3051926Y2543742D01*
X3051542Y2543588D01*
X3050773Y2543127D01*
X3049773Y2542588D01*
X3049542Y2542358D01*
X3049004Y2542050D01*
X3048619Y2541819D01*
X3048388Y2541588D01*
X3048235Y2541512D01*
X3048081Y2541358D01*
X3047696Y2541127D01*
X3047389Y2540819D01*
X3047235Y2540742D01*
X3046927Y2540435D01*
X3046773Y2540358D01*
X3046158Y2539743D01*
X3046004Y2539666D01*
X3045581Y2539243D01*
X3045504Y2539089D01*
X3045273Y2538935D01*
X3045197Y2538781D01*
X3044197Y2537781D01*
X3044120Y2537628D01*
X3043927Y2537435D01*
X3042812Y2535936D01*
X3042620Y2535666D01*
X3042120Y2534936D01*
X3041812Y2534397D01*
X3041659Y2534244D01*
X3041351Y2533705D01*
X3040582Y2532321D01*
X3040044Y2531321D01*
X3039966Y2531013D01*
X3039813Y2530859D01*
X3039736Y2530706D01*
X3039428Y2530013D01*
X3039274Y2529629D01*
X3039197Y2529321D01*
X3039082Y2529206D01*
X3038890Y2528706D01*
X3038582Y2528014D01*
X3038505Y2527706D01*
X3038274Y2527168D01*
X3038198Y2526860D01*
X3038044Y2526322D01*
X3037928Y2526206D01*
X3037813Y2525706D01*
X3037736Y2525399D01*
X3037544Y2524976D01*
X3037428Y2524476D01*
X3037352Y2524168D01*
X3037121Y2523630D01*
X3037044Y2523091D01*
X3036928Y2522668D01*
X3036736Y2522168D01*
X3036659Y2521630D01*
X3036582Y2521322D01*
X3036429Y2520938D01*
X3036352Y2520323D01*
X3036275Y2520015D01*
X3036082Y2519361D01*
X3035967Y2518631D01*
X3035890Y2518092D01*
X3035813Y2517784D01*
X3035736Y2517554D01*
X3035621Y2516823D01*
X3035544Y2516131D01*
X3035467Y2515746D01*
X3035390Y2515439D01*
X3035313Y2515054D01*
X3035198Y2513785D01*
X3035121Y2513477D01*
X3035044Y2512939D01*
X3034967Y2512631D01*
X3034890Y2512093D01*
X3034814Y2510862D01*
X3034698Y2509824D01*
X3034621Y2509363D01*
X3034544Y2508593D01*
X3034467Y2506901D01*
X3034390Y2505825D01*
X3034275Y2504094D01*
X3034198Y2503863D01*
X3034121Y2483636D01*
Y2483559D01*
Y2402802D01*
X3034006Y2402456D01*
X3019624Y2402379D01*
X3019316Y2402456D01*
X3019200Y2402648D01*
X3019239Y2501210D01*
X3019316Y2504517D01*
X3019393Y2507517D01*
X3019470Y2508824D01*
X3019624Y2510363D01*
X3019739Y2512478D01*
X3019816Y2513016D01*
X3020008Y2514593D01*
X3020162Y2516439D01*
X3020239Y2516900D01*
X3020393Y2517669D01*
X3020470Y2518438D01*
X3020546Y2519284D01*
X3020623Y2519592D01*
X3020816Y2520476D01*
X3020931Y2521515D01*
X3021085Y2522130D01*
X3021200Y2522861D01*
X3021277Y2523399D01*
X3021392Y2523822D01*
X3021585Y2524630D01*
X3021662Y2525168D01*
X3021854Y2525822D01*
X3021969Y2526552D01*
X3022085Y2526975D01*
X3022238Y2527360D01*
X3022354Y2528014D01*
X3022469Y2528437D01*
X3022623Y2528821D01*
X3022738Y2529552D01*
X3022931Y2529975D01*
X3023161Y2530821D01*
X3023315Y2531206D01*
X3023431Y2531628D01*
X3023508Y2531936D01*
X3023700Y2532359D01*
X3023815Y2532859D01*
X3024123Y2533551D01*
X3024277Y2534167D01*
X3024430Y2534320D01*
X3024507Y2534705D01*
X3024738Y2535243D01*
X3024892Y2535628D01*
X3025276Y2536474D01*
X3025507Y2537012D01*
X3025584Y2537166D01*
X3025892Y2537858D01*
X3026122Y2538474D01*
X3026276Y2538628D01*
X3026353Y2538781D01*
X3026507Y2539166D01*
X3027276Y2540627D01*
X3027584Y2541166D01*
X3027738Y2541319D01*
X3027891Y2541704D01*
X3028045Y2541858D01*
X3028661Y2542934D01*
X3028891Y2543165D01*
X3028968Y2543396D01*
X3029122Y2543550D01*
X3029353Y2543934D01*
X3029507Y2544088D01*
X3029737Y2544473D01*
X3029891Y2544626D01*
X3030122Y2545011D01*
X3030430Y2545319D01*
X3030506Y2545473D01*
X3030814Y2545780D01*
X3030891Y2545934D01*
X3031006Y2545972D01*
X3031199Y2546242D01*
X3031276Y2546396D01*
X3031506Y2546626D01*
X3031583Y2546780D01*
X3032660Y2547857D01*
X3032737Y2548011D01*
X3032852Y2548049D01*
X3032968Y2548164D01*
X3033044Y2548318D01*
X3033160Y2548434D01*
X3033314Y2548511D01*
X3033468Y2548741D01*
X3033621Y2548818D01*
X3033852Y2549126D01*
X3034006Y2549203D01*
X3035083Y2550280D01*
X3035236Y2550356D01*
X3035544Y2550664D01*
X3035698Y2550741D01*
X3036006Y2551049D01*
X3036159Y2551126D01*
X3036506Y2551472D01*
X3036928Y2551818D01*
X3037082Y2551895D01*
X3037313Y2552125D01*
X3037467Y2552202D01*
X3037621Y2552356D01*
X3038005Y2552587D01*
X3038159Y2552741D01*
X3038698Y2553125D01*
X3039082Y2553356D01*
X3039236Y2553510D01*
X3039620Y2553741D01*
X3039774Y2553894D01*
X3040851Y2554510D01*
X3041082Y2554740D01*
X3041389Y2554817D01*
X3041543Y2554971D01*
X3042851Y2555663D01*
X3044466Y2556509D01*
X3045235Y2556817D01*
X3045350Y2556932D01*
X3045773Y2557048D01*
X3046273Y2557317D01*
X3046773Y2557432D01*
X3046889Y2557548D01*
X3047273Y2557702D01*
X3047773Y2557817D01*
X3047888Y2557932D01*
X3048388Y2558124D01*
X3048696Y2558201D01*
X3049119Y2558394D01*
X3049619Y2558509D01*
X3050273Y2558778D01*
X3050926Y2558894D01*
X3051465Y2559124D01*
X3051926Y2559201D01*
X3052542Y2559355D01*
X3052926Y2559509D01*
X3053541Y2559586D01*
X3053849Y2559663D01*
X3054503Y2559855D01*
X3054887Y2559932D01*
X3055503Y2560009D01*
X3055887Y2560086D01*
X3056195Y2560163D01*
X3057041Y2560316D01*
X3057733Y2560393D01*
X3058195Y2560470D01*
X3058579Y2560547D01*
X3059310Y2560663D01*
X3060079Y2560740D01*
X3061309Y2560816D01*
X3061540Y2560893D01*
X3062694Y2560970D01*
X3062925Y2561047D01*
X3067616Y2561124D01*
X3071846Y2561047D01*
X3072615Y2560970D01*
X3073654Y2560855D01*
X3074269Y2560778D01*
X3075038Y2560701D01*
X3075884Y2560624D01*
X3076269Y2560547D01*
X3076576Y2560470D01*
X3077999Y2560278D01*
X3078538Y2560124D01*
X3078768Y2560047D01*
X3079461Y2559970D01*
X3080076Y2559817D01*
X3080460Y2559663D01*
X3081076Y2559586D01*
X3081960Y2559317D01*
X3082537Y2559201D01*
X3083075Y2558970D01*
X3083768Y2558817D01*
X3084306Y2558586D01*
X3084921Y2558432D01*
X3085344Y2558240D01*
X3085767Y2558124D01*
X3086575Y2557778D01*
X3087075Y2557663D01*
X3087190Y2557548D01*
X3087690Y2557355D01*
X3088382Y2557048D01*
X3089228Y2556663D01*
X3090843Y2555894D01*
X3091074Y2555817D01*
X3091920Y2555356D01*
X3092613Y2554971D01*
X3093151Y2554664D01*
X3093920Y2554202D01*
X3094458Y2553894D01*
X3094843Y2553664D01*
X3094997Y2553510D01*
X3095535Y2553202D01*
X3095920Y2552971D01*
X3096073Y2552818D01*
X3096458Y2552587D01*
X3096612Y2552433D01*
X3097150Y2552125D01*
X3097381Y2551895D01*
X3097535Y2551818D01*
X3097689Y2551664D01*
X3098073Y2551433D01*
X3098304Y2551202D01*
X3098458Y2551126D01*
X3098765Y2550818D01*
X3098919Y2550741D01*
X3099150Y2550510D01*
X3099304Y2550433D01*
X3099611Y2550126D01*
X3099765Y2550049D01*
X3100073Y2549741D01*
X3100227Y2549664D01*
X3100534Y2549357D01*
X3100688Y2549280D01*
X3101380Y2548588D01*
X3101534Y2548511D01*
X3101649Y2548395D01*
X3101727Y2548241D01*
X3101842Y2548203D01*
X3104188Y2545857D01*
X3104265Y2545703D01*
X3104495Y2545550D01*
X3104572Y2545396D01*
X3104995Y2544973D01*
X3106533Y2543127D01*
X3106880Y2542704D01*
X3107418Y2542012D01*
X3107610Y2541742D01*
X3107956Y2541319D01*
X3108033Y2541166D01*
X3108187Y2541012D01*
X3108418Y2540627D01*
X3108648Y2540396D01*
X3108725Y2540243D01*
X3109264Y2539474D01*
X3109494Y2539089D01*
X3109725Y2538858D01*
X3109802Y2538704D01*
X3110110Y2538243D01*
X3110187Y2538012D01*
X3110494Y2537704D01*
X3110571Y2537397D01*
X3110725Y2537243D01*
X3111033Y2536705D01*
X3111417Y2536012D01*
X3111571Y2535859D01*
X3111725Y2535474D01*
X3111917Y2535282D01*
X3112110Y2534782D01*
X3112302Y2534590D01*
X3112494Y2534090D01*
X3112648Y2533936D01*
X3112725Y2533782D01*
X3112879Y2533398D01*
X3113109Y2533013D01*
X3113263Y2532628D01*
X3113494Y2532244D01*
X3113648Y2531859D01*
X3113878Y2531475D01*
X3114263Y2530629D01*
X3114340Y2530321D01*
X3114455Y2530206D01*
X3114724Y2529475D01*
X3114878Y2529321D01*
X3114955Y2529014D01*
X3115340Y2528168D01*
X3115417Y2527860D01*
X3115647Y2527475D01*
X3115724Y2527168D01*
X3115955Y2526629D01*
X3116032Y2526322D01*
X3116147Y2525976D01*
X3116301Y2525899D01*
X3116417Y2526014D01*
X3116570Y2526629D01*
X3116801Y2527398D01*
X3116878Y2527937D01*
X3116955Y2528244D01*
X3117109Y2528629D01*
X3117186Y2528937D01*
X3117263Y2529475D01*
X3117455Y2529898D01*
X3117647Y2530782D01*
X3117878Y2531321D01*
X3118032Y2531936D01*
X3118224Y2532359D01*
X3118339Y2532859D01*
X3118647Y2533551D01*
X3118724Y2533859D01*
X3118916Y2534282D01*
X3119032Y2534705D01*
X3119185Y2535090D01*
X3119301Y2535205D01*
X3119416Y2535628D01*
X3119801Y2536474D01*
X3120108Y2537166D01*
X3120877Y2538781D01*
X3121031Y2539166D01*
X3121147Y2539281D01*
X3121339Y2539781D01*
X3121493Y2539935D01*
X3121570Y2540089D01*
X3121723Y2540473D01*
X3121877Y2540627D01*
X3121954Y2540858D01*
X3122339Y2541396D01*
X3122416Y2541704D01*
X3122570Y2541858D01*
X3122800Y2542242D01*
X3123108Y2542781D01*
X3123339Y2543011D01*
X3123646Y2543550D01*
X3123877Y2543934D01*
X3124031Y2544088D01*
X3124262Y2544473D01*
X3124415Y2544626D01*
X3124646Y2545011D01*
X3124877Y2545242D01*
X3124954Y2545396D01*
X3125261Y2545703D01*
X3125338Y2545857D01*
X3125569Y2546088D01*
X3125646Y2546242D01*
X3125954Y2546549D01*
X3126030Y2546703D01*
X3126338Y2547011D01*
X3126415Y2547165D01*
X3127107Y2547857D01*
X3127184Y2548011D01*
X3127300Y2548126D01*
X3127453Y2548203D01*
X3127492Y2548318D01*
X3127684Y2548511D01*
X3127838Y2548588D01*
X3127876Y2548703D01*
X3128761Y2549587D01*
X3128915Y2549664D01*
X3129068Y2549895D01*
X3129222Y2549972D01*
X3129914Y2550664D01*
X3130068Y2550741D01*
X3130453Y2551126D01*
X3130607Y2551202D01*
X3130838Y2551433D01*
X3130991Y2551510D01*
X3131299Y2551818D01*
X3131453Y2551895D01*
X3131760Y2552202D01*
X3131914Y2552279D01*
X3132068Y2552433D01*
X3132453Y2552664D01*
X3132683Y2552894D01*
X3132837Y2552971D01*
X3132991Y2553125D01*
X3133376Y2553356D01*
X3133529Y2553510D01*
X3134068Y2553818D01*
X3134606Y2554202D01*
X3135144Y2554510D01*
X3135375Y2554740D01*
X3135683Y2554817D01*
X3135837Y2554971D01*
X3136529Y2555356D01*
X3138029Y2556163D01*
X3138529Y2556356D01*
X3138682Y2556509D01*
X3139067Y2556663D01*
X3139759Y2556971D01*
X3140605Y2557355D01*
X3141105Y2557548D01*
X3141490Y2557702D01*
X3141990Y2557817D01*
X3142105Y2557932D01*
X3142605Y2558124D01*
X3142913Y2558201D01*
X3143336Y2558394D01*
X3143836Y2558509D01*
X3144374Y2558740D01*
X3145066Y2558894D01*
X3145566Y2559086D01*
X3145874Y2559163D01*
X3146527Y2559278D01*
X3147066Y2559509D01*
X3147681Y2559586D01*
X3147989Y2559663D01*
X3148642Y2559855D01*
X3149027Y2559932D01*
X3149642Y2560009D01*
X3150027Y2560086D01*
X3150334Y2560163D01*
X3151180Y2560316D01*
X3151873Y2560393D01*
X3152334Y2560470D01*
X3152719Y2560547D01*
X3153180Y2560624D01*
X3155449Y2560816D01*
X3155680Y2560893D01*
X3156757Y2560970D01*
X3156987Y2561047D01*
X3161833Y2561124D01*
X3166063Y2561047D01*
D02*
G37*
G36*
X3783162Y2557702D02*
X3783239Y2557548D01*
X3782854Y2556702D01*
X3782547Y2556009D01*
X3782470Y2555856D01*
X3782162Y2555163D01*
X3782085Y2554933D01*
X3781316Y2553241D01*
X3781086Y2552702D01*
X3781009Y2552548D01*
X3780701Y2551856D01*
X3780547Y2551472D01*
X3780240Y2550780D01*
X3779470Y2549087D01*
X3779240Y2548549D01*
X3779163Y2548395D01*
X3778855Y2547703D01*
X3778701Y2547318D01*
X3778394Y2546626D01*
X3777624Y2544934D01*
X3777278Y2544127D01*
X3777163Y2543704D01*
X3777009Y2543550D01*
X3776855Y2543165D01*
X3776548Y2542473D01*
X3776163Y2541627D01*
X3775932Y2541089D01*
X3775625Y2540320D01*
X3775509Y2540204D01*
X3775394Y2539781D01*
X3775163Y2539397D01*
X3775086Y2539243D01*
X3775010Y2538935D01*
X3774817Y2538589D01*
X3774548Y2537858D01*
X3774394Y2537704D01*
X3774317Y2537397D01*
X3774164Y2537012D01*
X3774010Y2536858D01*
X3773933Y2536551D01*
X3773779Y2536166D01*
X3773664Y2536051D01*
X3773548Y2535628D01*
X3773318Y2535243D01*
X3773241Y2535013D01*
X3772087Y2532474D01*
X3771856Y2531936D01*
X3771702Y2531552D01*
X3771318Y2530706D01*
X3771010Y2530013D01*
X3770626Y2529167D01*
X3770280Y2528360D01*
X3770164Y2527937D01*
X3770010Y2527783D01*
X3769856Y2527398D01*
X3769472Y2526552D01*
X3769164Y2525860D01*
X3768780Y2525014D01*
X3768434Y2524207D01*
X3768318Y2523784D01*
X3768164Y2523630D01*
X3768011Y2523245D01*
X3767703Y2522553D01*
X3766934Y2520861D01*
X3766588Y2520053D01*
X3766472Y2519630D01*
X3766318Y2519477D01*
X3766165Y2519092D01*
X3765857Y2518400D01*
X3765088Y2516708D01*
X3764857Y2516169D01*
X3764703Y2515785D01*
X3764319Y2514939D01*
X3764011Y2514247D01*
X3763242Y2512555D01*
X3763011Y2512016D01*
X3762858Y2511631D01*
X3762473Y2510785D01*
X3762396Y2510478D01*
X3762281Y2510363D01*
X3762012Y2509632D01*
X3761858Y2509478D01*
X3761781Y2509170D01*
X3761627Y2508786D01*
X3761473Y2508632D01*
X3761396Y2508324D01*
X3760627Y2506632D01*
X3760550Y2506325D01*
X3760435Y2506209D01*
X3760166Y2505479D01*
X3760012Y2505325D01*
X3759935Y2505017D01*
X3758781Y2502479D01*
X3758704Y2502171D01*
X3758589Y2502056D01*
X3758320Y2501325D01*
X3758166Y2501172D01*
X3758089Y2500864D01*
X3757320Y2499172D01*
X3757243Y2498864D01*
X3757128Y2498749D01*
X3756858Y2498018D01*
X3756743Y2497903D01*
X3756474Y2497172D01*
X3756320Y2497018D01*
X3756243Y2496711D01*
X3755474Y2495019D01*
X3755397Y2494711D01*
X3755282Y2494596D01*
X3755012Y2493865D01*
X3754897Y2493750D01*
X3754628Y2493019D01*
X3754474Y2492865D01*
X3754397Y2492557D01*
X3753628Y2490865D01*
X3753320Y2490173D01*
X3752936Y2489327D01*
X3752628Y2488635D01*
X3752551Y2488404D01*
X3751782Y2486712D01*
X3751167Y2485328D01*
X3751013Y2484943D01*
X3750706Y2484251D01*
X3749936Y2482559D01*
X3749860Y2482251D01*
X3749744Y2482136D01*
X3749552Y2481636D01*
X3749398Y2481251D01*
X3749283Y2481136D01*
X3749167Y2480713D01*
X3748936Y2480329D01*
X3748860Y2480098D01*
X3748090Y2478406D01*
X3747860Y2477867D01*
X3747783Y2477714D01*
X3747475Y2477021D01*
X3747321Y2476637D01*
X3747014Y2475945D01*
X3746245Y2474253D01*
X3746014Y2473714D01*
X3745937Y2473560D01*
X3745629Y2472868D01*
X3745552Y2472637D01*
X3744399Y2470099D01*
X3744168Y2469561D01*
X3744091Y2469407D01*
X3743784Y2468715D01*
X3743707Y2468484D01*
X3742937Y2466792D01*
X3742707Y2466254D01*
X3742630Y2466100D01*
X3742322Y2465408D01*
X3742168Y2465023D01*
X3741861Y2464331D01*
X3741092Y2462639D01*
X3740745Y2461831D01*
X3740630Y2461408D01*
X3740476Y2461255D01*
X3740322Y2460870D01*
X3740015Y2460178D01*
X3739246Y2458486D01*
X3738900Y2457678D01*
X3738784Y2457255D01*
X3738592Y2457063D01*
X3738477Y2456640D01*
X3738246Y2456255D01*
X3738169Y2456024D01*
X3737400Y2454332D01*
X3737169Y2453794D01*
X3737092Y2453640D01*
X3736785Y2452948D01*
X3736631Y2452564D01*
X3736323Y2451871D01*
X3735554Y2450179D01*
X3735323Y2449641D01*
X3735169Y2449256D01*
X3734785Y2448410D01*
X3734477Y2447718D01*
X3733708Y2446026D01*
X3733477Y2445488D01*
X3733323Y2445103D01*
X3732939Y2444257D01*
X3732631Y2443565D01*
X3732247Y2442719D01*
X3732016Y2442180D01*
X3731862Y2441796D01*
X3731093Y2440104D01*
X3731016Y2439796D01*
X3730901Y2439681D01*
X3730632Y2438950D01*
X3730516Y2438835D01*
X3730247Y2438104D01*
X3730093Y2437950D01*
X3730016Y2437643D01*
X3729247Y2435951D01*
X3729170Y2435643D01*
X3729055Y2435528D01*
X3728786Y2434797D01*
X3728632Y2434643D01*
X3728555Y2434336D01*
X3728401Y2433951D01*
X3728209Y2433682D01*
X3728093Y2433182D01*
X3727940Y2433028D01*
X3727786Y2432643D01*
X3727401Y2431797D01*
X3727094Y2431105D01*
X3726709Y2430259D01*
X3726478Y2429721D01*
X3726325Y2429336D01*
X3725555Y2427644D01*
X3725479Y2427336D01*
X3725363Y2427221D01*
X3725094Y2426490D01*
X3724940Y2426337D01*
X3724863Y2426029D01*
X3724094Y2424337D01*
X3723787Y2423645D01*
X3723402Y2422799D01*
X3723094Y2422107D01*
X3723017Y2421876D01*
X3722248Y2420184D01*
X3722171Y2419876D01*
X3722056Y2419761D01*
X3721864Y2419261D01*
X3721710Y2418876D01*
X3721595Y2418761D01*
X3721479Y2418338D01*
X3721248Y2417953D01*
X3721171Y2417723D01*
X3720402Y2416031D01*
X3720172Y2415492D01*
X3719864Y2414723D01*
X3719749Y2414608D01*
X3719633Y2414185D01*
X3719403Y2413800D01*
X3719326Y2413569D01*
X3718557Y2411877D01*
X3718326Y2411339D01*
X3718095Y2410724D01*
X3717941Y2410570D01*
X3717864Y2410262D01*
X3716711Y2407724D01*
X3716480Y2407186D01*
X3716403Y2407032D01*
X3716095Y2406340D01*
X3715941Y2405955D01*
X3715634Y2405263D01*
X3714865Y2403571D01*
X3714634Y2403032D01*
X3714326Y2402263D01*
X3714173Y2402110D01*
X3714096Y2401648D01*
X3713788Y2401187D01*
X3713711Y2400648D01*
X3713865Y2400033D01*
X3714019Y2399879D01*
X3714096Y2399572D01*
X3714480Y2398726D01*
X3714634Y2398187D01*
X3714788Y2398033D01*
X3714865Y2397649D01*
X3715019Y2397264D01*
X3715134Y2397149D01*
X3715249Y2396726D01*
X3715403Y2396341D01*
X3715519Y2396226D01*
X3715634Y2395803D01*
X3715826Y2395380D01*
X3716018Y2394880D01*
X3716326Y2394188D01*
X3716403Y2393880D01*
X3716672Y2393380D01*
X3716787Y2392880D01*
X3716903Y2392765D01*
X3717095Y2392265D01*
X3717172Y2391957D01*
X3717287Y2391842D01*
X3717480Y2391342D01*
X3717557Y2391034D01*
X3717711Y2390881D01*
X3717787Y2390573D01*
X3718095Y2389881D01*
X3718172Y2389573D01*
X3718557Y2388727D01*
X3718633Y2388419D01*
X3718903Y2387919D01*
X3719018Y2387419D01*
X3719133Y2387304D01*
X3719326Y2386804D01*
X3719403Y2386497D01*
X3719518Y2386381D01*
X3719710Y2385881D01*
X3720018Y2385189D01*
X3720172Y2384651D01*
X3720287Y2384535D01*
X3720402Y2384112D01*
X3720556Y2383728D01*
X3720672Y2383612D01*
X3720787Y2383189D01*
X3720941Y2382805D01*
X3721056Y2382689D01*
X3721171Y2382189D01*
X3721364Y2381843D01*
X3721556Y2381343D01*
X3721864Y2380651D01*
X3721941Y2380344D01*
X3722210Y2379844D01*
X3722325Y2379344D01*
X3722441Y2379228D01*
X3722633Y2378729D01*
X3722863Y2378190D01*
X3723017Y2377806D01*
X3723325Y2377113D01*
X3723402Y2376806D01*
X3723710Y2376113D01*
X3723787Y2375806D01*
X3724056Y2375306D01*
X3724171Y2374806D01*
X3724286Y2374691D01*
X3724479Y2374191D01*
X3724556Y2373883D01*
X3724671Y2373768D01*
X3724863Y2373268D01*
X3724940Y2372960D01*
X3725094Y2372806D01*
X3725171Y2372499D01*
X3725555Y2371653D01*
X3725709Y2371114D01*
X3725825Y2370999D01*
X3725940Y2370576D01*
X3726325Y2369730D01*
X3726555Y2369191D01*
X3726632Y2368961D01*
X3726978Y2368153D01*
X3727094Y2367730D01*
X3727363Y2367230D01*
X3727478Y2366730D01*
X3727594Y2366615D01*
X3727786Y2366115D01*
X3728017Y2365577D01*
X3728170Y2365192D01*
X3728401Y2364654D01*
X3728478Y2364423D01*
X3728786Y2363731D01*
X3728863Y2363577D01*
X3728940Y2363269D01*
X3729247Y2362577D01*
X3729324Y2362269D01*
X3729593Y2361769D01*
X3729709Y2361270D01*
X3729824Y2361154D01*
X3729978Y2360770D01*
X3730093Y2360347D01*
X3730209Y2360231D01*
X3730401Y2359731D01*
X3730478Y2359424D01*
X3730632Y2359270D01*
X3730709Y2358962D01*
X3730939Y2358424D01*
X3731093Y2358039D01*
X3731324Y2357501D01*
X3731478Y2357116D01*
X3731824Y2356309D01*
X3731939Y2355809D01*
X3732055Y2355693D01*
X3732247Y2355194D01*
X3732439Y2354771D01*
X3732631Y2354271D01*
X3732708Y2353963D01*
X3732862Y2353809D01*
X3732939Y2353501D01*
X3733170Y2352963D01*
X3733323Y2352579D01*
X3733554Y2352040D01*
X3733708Y2351656D01*
X3733939Y2351117D01*
X3734016Y2350963D01*
X3734093Y2350656D01*
X3734285Y2350233D01*
X3734477Y2349733D01*
X3734785Y2349041D01*
X3735131Y2348233D01*
X3735246Y2347733D01*
X3735362Y2347618D01*
X3735554Y2347118D01*
X3735631Y2346810D01*
X3735746Y2346695D01*
X3735939Y2346195D01*
X3736015Y2345887D01*
X3736169Y2345733D01*
X3736246Y2345426D01*
X3736631Y2344580D01*
X3736708Y2344272D01*
X3737323Y2342888D01*
X3737400Y2342580D01*
X3737592Y2342157D01*
X3737784Y2341657D01*
X3737861Y2341349D01*
X3738015Y2341196D01*
X3738092Y2340888D01*
X3738477Y2340042D01*
X3738630Y2339504D01*
X3738746Y2339388D01*
X3738861Y2338965D01*
X3739015Y2338581D01*
X3739130Y2338465D01*
X3739246Y2338042D01*
X3739399Y2337658D01*
X3739515Y2337542D01*
X3739630Y2337119D01*
X3739823Y2336696D01*
X3740015Y2336196D01*
X3740322Y2335504D01*
X3740399Y2335197D01*
X3740669Y2334697D01*
X3740784Y2334197D01*
X3740899Y2334081D01*
X3741092Y2333581D01*
X3741169Y2333274D01*
X3741284Y2333158D01*
X3741476Y2332659D01*
X3741784Y2331966D01*
X3741861Y2331659D01*
X3742168Y2330966D01*
X3742399Y2330428D01*
X3742553Y2330044D01*
X3742630Y2329736D01*
X3742860Y2329351D01*
X3742937Y2329044D01*
X3743130Y2328621D01*
X3743322Y2328121D01*
X3743399Y2327813D01*
X3743553Y2327659D01*
X3743630Y2327352D01*
X3744014Y2326506D01*
X3744168Y2325967D01*
X3744283Y2325852D01*
X3744399Y2325429D01*
X3744553Y2325044D01*
X3744668Y2324929D01*
X3744783Y2324506D01*
X3744937Y2324121D01*
X3745052Y2324006D01*
X3745168Y2323506D01*
X3745360Y2323160D01*
X3745552Y2322660D01*
X3745860Y2321968D01*
X3745937Y2321660D01*
X3746206Y2321160D01*
X3746322Y2320660D01*
X3746437Y2320545D01*
X3746629Y2320045D01*
X3746860Y2319507D01*
X3747014Y2319122D01*
X3747321Y2318430D01*
X3747398Y2318122D01*
X3747706Y2317430D01*
X3747783Y2317122D01*
X3748052Y2316622D01*
X3748167Y2316123D01*
X3748283Y2316007D01*
X3748475Y2315507D01*
X3748552Y2315200D01*
X3748667Y2315084D01*
X3748860Y2314584D01*
X3749167Y2313892D01*
X3749321Y2313354D01*
X3749475Y2313200D01*
X3749552Y2312892D01*
X3749783Y2312354D01*
X3749936Y2311969D01*
X3750244Y2311277D01*
X3750321Y2310970D01*
X3750629Y2310277D01*
X3750782Y2309893D01*
X3750744Y2309700D01*
X3734554Y2309739D01*
X3734477Y2310046D01*
X3734169Y2310739D01*
X3734093Y2310893D01*
X3734016Y2311200D01*
X3733708Y2311892D01*
X3733554Y2312431D01*
X3733400Y2312585D01*
X3733323Y2312969D01*
X3733170Y2313354D01*
X3733054Y2313469D01*
X3732939Y2313892D01*
X3732862Y2314200D01*
X3732747Y2314315D01*
X3732554Y2314815D01*
X3732247Y2315507D01*
X3732170Y2315815D01*
X3731862Y2316507D01*
X3731785Y2316815D01*
X3731593Y2317161D01*
X3731478Y2317584D01*
X3731324Y2317968D01*
X3731208Y2318084D01*
X3731093Y2318507D01*
X3730901Y2318930D01*
X3730709Y2319430D01*
X3730632Y2319737D01*
X3730478Y2319891D01*
X3730401Y2320199D01*
X3730170Y2320737D01*
X3730016Y2321122D01*
X3729939Y2321429D01*
X3729670Y2321929D01*
X3729555Y2322429D01*
X3729439Y2322545D01*
X3729247Y2323045D01*
X3729017Y2323583D01*
X3728940Y2323737D01*
X3728863Y2324044D01*
X3728555Y2324737D01*
X3728401Y2325275D01*
X3728247Y2325429D01*
X3728170Y2325736D01*
X3727824Y2326544D01*
X3727709Y2327044D01*
X3727594Y2327159D01*
X3727401Y2327659D01*
X3727324Y2327967D01*
X3727171Y2328121D01*
X3727094Y2328428D01*
X3726786Y2329121D01*
X3726709Y2329428D01*
X3726325Y2330274D01*
X3726248Y2330582D01*
X3725940Y2331274D01*
X3725671Y2331928D01*
X3725555Y2332351D01*
X3725286Y2332851D01*
X3725171Y2333274D01*
X3724979Y2333697D01*
X3724786Y2334197D01*
X3724709Y2334504D01*
X3724556Y2334658D01*
X3724479Y2334966D01*
X3724248Y2335504D01*
X3724094Y2335889D01*
X3723787Y2336581D01*
X3723633Y2337196D01*
X3723517Y2337312D01*
X3723325Y2337812D01*
X3723056Y2338465D01*
X3722941Y2338888D01*
X3722710Y2339273D01*
X3722633Y2339581D01*
X3722402Y2340119D01*
X3722248Y2340503D01*
X3721902Y2341311D01*
X3721787Y2341811D01*
X3721671Y2341926D01*
X3721479Y2342426D01*
X3721171Y2343119D01*
X3721095Y2343426D01*
X3720787Y2344118D01*
X3720710Y2344426D01*
X3720518Y2344772D01*
X3720402Y2345195D01*
X3720249Y2345580D01*
X3720133Y2345695D01*
X3720018Y2346118D01*
X3719825Y2346541D01*
X3719633Y2347041D01*
X3719556Y2347349D01*
X3719403Y2347502D01*
X3719326Y2347810D01*
X3719095Y2348349D01*
X3718941Y2348733D01*
X3718864Y2349041D01*
X3718633Y2349425D01*
X3718557Y2349810D01*
X3718287Y2350310D01*
X3718172Y2350733D01*
X3717980Y2351156D01*
X3717787Y2351656D01*
X3717711Y2351963D01*
X3717557Y2352117D01*
X3717480Y2352425D01*
X3717249Y2352963D01*
X3717095Y2353348D01*
X3716749Y2354155D01*
X3716634Y2354655D01*
X3716518Y2354771D01*
X3716326Y2355271D01*
X3716018Y2355963D01*
X3715941Y2356270D01*
X3715634Y2356963D01*
X3715480Y2357501D01*
X3715326Y2357655D01*
X3715249Y2357962D01*
X3714903Y2358770D01*
X3714788Y2359270D01*
X3714673Y2359385D01*
X3714480Y2359885D01*
X3714173Y2360577D01*
X3714096Y2360885D01*
X3713903Y2361308D01*
X3713711Y2361808D01*
X3713403Y2362500D01*
X3713250Y2363039D01*
X3713134Y2363154D01*
X3713019Y2363577D01*
X3712827Y2364000D01*
X3712634Y2364500D01*
X3712557Y2364807D01*
X3712404Y2364961D01*
X3712327Y2365269D01*
X3711981Y2366077D01*
X3711865Y2366500D01*
X3711635Y2366884D01*
X3711558Y2367192D01*
X3711327Y2367730D01*
X3711173Y2368115D01*
X3710827Y2368922D01*
X3710711Y2369422D01*
X3710596Y2369538D01*
X3710404Y2370037D01*
X3710096Y2370730D01*
X3710019Y2371037D01*
X3709712Y2371729D01*
X3709635Y2372037D01*
X3709404Y2372422D01*
X3709327Y2372806D01*
X3709173Y2373191D01*
X3709058Y2373306D01*
X3708943Y2373729D01*
X3708750Y2374152D01*
X3708558Y2374652D01*
X3708481Y2374960D01*
X3708327Y2375114D01*
X3708250Y2375421D01*
X3708020Y2375960D01*
X3707866Y2376344D01*
X3707789Y2376652D01*
X3707597Y2376998D01*
X3707481Y2377421D01*
X3707327Y2377806D01*
X3707212Y2377921D01*
X3707097Y2378344D01*
X3706904Y2378767D01*
X3706712Y2379267D01*
X3706635Y2379575D01*
X3706481Y2379728D01*
X3706405Y2380036D01*
X3706058Y2380844D01*
X3705943Y2381267D01*
X3705674Y2381767D01*
X3705559Y2382266D01*
X3705443Y2382382D01*
X3705251Y2382882D01*
X3705020Y2383420D01*
X3704943Y2383574D01*
X3704866Y2383882D01*
X3704559Y2384574D01*
X3704405Y2385112D01*
X3704251Y2385266D01*
X3704174Y2385574D01*
X3703828Y2386381D01*
X3703713Y2386881D01*
X3703597Y2386997D01*
X3703405Y2387496D01*
X3703328Y2387804D01*
X3703174Y2387958D01*
X3703097Y2388265D01*
X3702790Y2388958D01*
X3702713Y2389265D01*
X3702328Y2390111D01*
X3702174Y2390650D01*
X3702059Y2390765D01*
X3701944Y2391188D01*
X3701751Y2391611D01*
X3701559Y2392111D01*
X3701482Y2392419D01*
X3701367Y2392534D01*
X3701175Y2393034D01*
X3701021Y2393419D01*
X3700905Y2393688D01*
X3700790Y2394111D01*
X3700559Y2394495D01*
X3700482Y2394803D01*
X3700252Y2395341D01*
X3700098Y2395726D01*
X3699752Y2396534D01*
X3699636Y2397033D01*
X3699521Y2397149D01*
X3699329Y2397649D01*
X3699021Y2398341D01*
X3698944Y2398649D01*
X3698636Y2399341D01*
X3698559Y2399648D01*
X3698329Y2400033D01*
X3698252Y2400418D01*
X3698098Y2400802D01*
X3697983Y2400918D01*
X3697867Y2401340D01*
X3697675Y2401764D01*
X3697483Y2402263D01*
X3697406Y2402571D01*
X3697252Y2402725D01*
X3697175Y2403032D01*
X3696829Y2403840D01*
X3696714Y2404340D01*
X3696598Y2404455D01*
X3696252Y2405417D01*
X3696137Y2405532D01*
X3696021Y2405955D01*
X3695829Y2406378D01*
X3695637Y2406878D01*
X3695329Y2407570D01*
X3695175Y2408109D01*
X3695022Y2408262D01*
X3694868Y2408878D01*
X3694599Y2409378D01*
X3694483Y2409878D01*
X3694368Y2409993D01*
X3694176Y2410493D01*
X3693945Y2411031D01*
X3693868Y2411185D01*
X3693791Y2411493D01*
X3693483Y2412185D01*
X3693329Y2412723D01*
X3693176Y2412877D01*
X3693099Y2413185D01*
X3692753Y2413992D01*
X3692637Y2414492D01*
X3692522Y2414608D01*
X3692330Y2415108D01*
X3692022Y2415800D01*
X3691945Y2416108D01*
X3691637Y2416800D01*
X3691561Y2417107D01*
X3691330Y2417492D01*
X3691253Y2417800D01*
X3691022Y2418338D01*
X3690868Y2418722D01*
X3690599Y2419376D01*
X3690484Y2419799D01*
X3690215Y2420299D01*
X3690099Y2420722D01*
X3689830Y2421222D01*
X3689715Y2421722D01*
X3689484Y2422107D01*
X3689407Y2422414D01*
X3689176Y2422953D01*
X3689023Y2423337D01*
X3688715Y2424029D01*
X3688561Y2424645D01*
X3688407Y2424798D01*
X3688330Y2425106D01*
X3688100Y2425644D01*
X3687869Y2426260D01*
X3687561Y2426952D01*
X3687484Y2427260D01*
X3687292Y2427606D01*
X3687177Y2428029D01*
X3687023Y2428413D01*
X3686907Y2428529D01*
X3686792Y2428952D01*
X3686600Y2429375D01*
X3686407Y2429875D01*
X3686331Y2430182D01*
X3686177Y2430336D01*
X3686100Y2430644D01*
X3685792Y2431336D01*
X3685715Y2431644D01*
X3685331Y2432490D01*
X3685177Y2433028D01*
X3685062Y2433143D01*
X3684946Y2433566D01*
X3684754Y2433989D01*
X3684562Y2434489D01*
X3684254Y2435182D01*
X3684100Y2435720D01*
X3683946Y2435874D01*
X3683869Y2436181D01*
X3683562Y2436874D01*
X3683408Y2437489D01*
X3683293Y2437604D01*
X3683100Y2438104D01*
X3682831Y2438758D01*
X3682716Y2439181D01*
X3682485Y2439566D01*
X3682408Y2439873D01*
X3682177Y2440412D01*
X3682023Y2440796D01*
X3681677Y2441604D01*
X3681562Y2442104D01*
X3681447Y2442219D01*
X3681254Y2442719D01*
X3680947Y2443411D01*
X3680870Y2443719D01*
X3680562Y2444411D01*
X3680408Y2444949D01*
X3680255Y2445103D01*
X3680178Y2445411D01*
X3679832Y2446218D01*
X3679716Y2446718D01*
X3679601Y2446834D01*
X3679409Y2447334D01*
X3679332Y2447641D01*
X3679178Y2447795D01*
X3679101Y2448103D01*
X3678793Y2448795D01*
X3678716Y2449102D01*
X3678332Y2449948D01*
X3678178Y2450487D01*
X3678063Y2450602D01*
X3677947Y2451025D01*
X3677755Y2451448D01*
X3677563Y2451948D01*
X3677486Y2452256D01*
X3677332Y2452410D01*
X3677255Y2452717D01*
X3677024Y2453256D01*
X3676794Y2453871D01*
X3676486Y2454563D01*
X3676409Y2454871D01*
X3676217Y2455217D01*
X3676101Y2455640D01*
X3675948Y2456024D01*
X3675832Y2456140D01*
X3675717Y2456563D01*
X3675524Y2456986D01*
X3675332Y2457486D01*
X3675025Y2458178D01*
X3674948Y2458486D01*
X3674640Y2459178D01*
X3674563Y2459485D01*
X3674332Y2459870D01*
X3674256Y2460255D01*
X3674102Y2460639D01*
X3673986Y2460755D01*
X3673871Y2461178D01*
X3673679Y2461601D01*
X3673486Y2462101D01*
X3673410Y2462408D01*
X3673256Y2462562D01*
X3673179Y2462870D01*
X3672948Y2463408D01*
X3672794Y2463793D01*
X3672448Y2464600D01*
X3672333Y2465100D01*
X3672217Y2465215D01*
X3672025Y2465715D01*
X3671756Y2466369D01*
X3671640Y2466792D01*
X3671410Y2467177D01*
X3671333Y2467484D01*
X3671102Y2468023D01*
X3670948Y2468407D01*
X3670602Y2469215D01*
X3670487Y2469715D01*
X3670372Y2469830D01*
X3670179Y2470330D01*
X3669948Y2470868D01*
X3669872Y2471022D01*
X3669795Y2471330D01*
X3669602Y2471753D01*
X3669410Y2472253D01*
X3669333Y2472561D01*
X3669179Y2472714D01*
X3669102Y2473022D01*
X3668756Y2473829D01*
X3668641Y2474329D01*
X3668526Y2474445D01*
X3668333Y2474945D01*
X3668256Y2475252D01*
X3668103Y2475406D01*
X3668026Y2475714D01*
X3667718Y2476406D01*
X3667641Y2476714D01*
X3667256Y2477560D01*
X3667103Y2478098D01*
X3666987Y2478213D01*
X3666872Y2478637D01*
X3666718Y2479021D01*
X3666603Y2479136D01*
X3666487Y2479636D01*
X3666218Y2480136D01*
X3666103Y2480559D01*
X3665834Y2481059D01*
X3665718Y2481559D01*
X3665449Y2482059D01*
X3665334Y2482559D01*
X3665218Y2482674D01*
X3665026Y2483174D01*
X3664718Y2483867D01*
X3664642Y2484174D01*
X3664449Y2484597D01*
X3664257Y2485097D01*
X3663949Y2485789D01*
X3663872Y2486097D01*
X3663565Y2486789D01*
X3663488Y2487097D01*
X3663296Y2487443D01*
X3663180Y2487866D01*
X3662911Y2488366D01*
X3662796Y2488789D01*
X3662603Y2489212D01*
X3662411Y2489712D01*
X3662104Y2490404D01*
X3662027Y2490712D01*
X3661719Y2491404D01*
X3661373Y2492211D01*
X3661258Y2492711D01*
X3661142Y2492827D01*
X3660950Y2493327D01*
X3660719Y2493865D01*
X3660642Y2494019D01*
X3660488Y2494634D01*
X3660334Y2494788D01*
X3660258Y2495096D01*
X3660027Y2495634D01*
X3659873Y2496019D01*
X3659527Y2496826D01*
X3659450Y2497134D01*
X3659412Y2497172D01*
Y2497326D01*
X3659296Y2497441D01*
X3659104Y2497941D01*
X3658873Y2498480D01*
X3658796Y2498633D01*
X3658719Y2498941D01*
X3658412Y2499633D01*
X3658258Y2500172D01*
X3658104Y2500325D01*
X3658027Y2500633D01*
X3657681Y2501441D01*
X3657566Y2501941D01*
X3657450Y2502056D01*
X3657258Y2502556D01*
X3656950Y2503248D01*
X3656874Y2503556D01*
X3656681Y2503979D01*
X3656489Y2504479D01*
X3656181Y2505171D01*
X3656028Y2505709D01*
X3655912Y2505825D01*
X3655797Y2506248D01*
X3655604Y2506671D01*
X3655451Y2507055D01*
X3655335Y2507478D01*
X3655220Y2507594D01*
X3655028Y2508094D01*
X3654720Y2508786D01*
X3654643Y2509093D01*
X3654335Y2509786D01*
X3654258Y2510093D01*
X3654066Y2510439D01*
X3653951Y2510862D01*
X3653759Y2511285D01*
X3653566Y2511785D01*
X3653489Y2512093D01*
X3653374Y2512208D01*
X3653182Y2512708D01*
X3652874Y2513401D01*
X3652797Y2513708D01*
X3652490Y2514400D01*
X3652413Y2514708D01*
X3652220Y2515054D01*
X3652105Y2515477D01*
X3651951Y2515862D01*
X3651836Y2515977D01*
X3651720Y2516400D01*
X3651528Y2516823D01*
X3651336Y2517323D01*
X3651259Y2517631D01*
X3651105Y2517784D01*
X3651028Y2518092D01*
X3650798Y2518631D01*
X3650644Y2519015D01*
X3650567Y2519323D01*
X3650298Y2519823D01*
X3650182Y2520323D01*
X3650067Y2520438D01*
X3649875Y2520938D01*
X3649644Y2521476D01*
X3649567Y2521707D01*
X3649259Y2522399D01*
X3649182Y2522707D01*
X3648952Y2523245D01*
X3648798Y2523630D01*
X3648452Y2524437D01*
X3648336Y2524937D01*
X3648221Y2525053D01*
X3648029Y2525552D01*
X3647798Y2526091D01*
X3647721Y2526322D01*
X3647413Y2527014D01*
X3647336Y2527322D01*
X3647106Y2527860D01*
X3646798Y2528706D01*
X3646683Y2528821D01*
X3646567Y2529244D01*
X3646375Y2529667D01*
X3646183Y2530167D01*
X3646106Y2530475D01*
X3645952Y2530629D01*
X3645875Y2530936D01*
X3645568Y2531628D01*
X3645491Y2531936D01*
X3645106Y2532782D01*
X3644952Y2533321D01*
X3644837Y2533436D01*
X3644722Y2533859D01*
X3644529Y2534282D01*
X3644337Y2534782D01*
X3644260Y2535090D01*
X3644145Y2535205D01*
X3643952Y2535705D01*
X3643722Y2536243D01*
X3643645Y2536474D01*
X3643337Y2537166D01*
X3643260Y2537474D01*
X3643029Y2538012D01*
X3642876Y2538397D01*
X3642645Y2538935D01*
X3642568Y2539089D01*
X3642414Y2539704D01*
X3642299Y2539820D01*
X3642106Y2540320D01*
X3641799Y2541012D01*
X3641722Y2541319D01*
X3641414Y2542012D01*
X3641337Y2542319D01*
X3641145Y2542665D01*
X3641030Y2543088D01*
X3640876Y2543473D01*
X3640760Y2543588D01*
X3640645Y2544011D01*
X3640453Y2544434D01*
X3640261Y2544934D01*
X3640184Y2545242D01*
X3640030Y2545396D01*
X3639953Y2545703D01*
X3639722Y2546242D01*
X3639568Y2546626D01*
X3639492Y2546934D01*
X3639261Y2547318D01*
X3639107Y2547934D01*
X3638992Y2548049D01*
X3638799Y2548549D01*
X3638530Y2549203D01*
X3638415Y2549626D01*
X3638184Y2550010D01*
X3638107Y2550318D01*
X3637876Y2550856D01*
X3637722Y2551241D01*
X3637376Y2552048D01*
X3637261Y2552548D01*
X3637146Y2552664D01*
X3636953Y2553164D01*
X3636646Y2553856D01*
X3636569Y2554164D01*
X3636261Y2554856D01*
X3636107Y2555394D01*
X3635954Y2555548D01*
X3635877Y2555856D01*
X3635569Y2556548D01*
X3635415Y2557163D01*
X3635261Y2557317D01*
X3635184Y2557625D01*
X3635300Y2557740D01*
X3651336Y2557702D01*
X3651490Y2557317D01*
X3651644Y2557163D01*
X3651797Y2556471D01*
X3651913Y2556356D01*
X3652105Y2555856D01*
X3652182Y2555548D01*
X3652374Y2555202D01*
X3652490Y2554779D01*
X3652682Y2554356D01*
X3652874Y2553856D01*
X3653182Y2553164D01*
X3653336Y2552548D01*
X3653489Y2552395D01*
X3653566Y2552010D01*
X3653759Y2551587D01*
X3653951Y2551087D01*
X3654258Y2550395D01*
X3654335Y2550010D01*
X3654528Y2549587D01*
X3654720Y2549087D01*
X3655028Y2548395D01*
X3655181Y2547780D01*
X3655335Y2547626D01*
X3655412Y2547318D01*
X3655720Y2546626D01*
X3655797Y2546319D01*
X3656104Y2545626D01*
X3656181Y2545242D01*
X3656335Y2544857D01*
X3656450Y2544742D01*
X3656566Y2544242D01*
X3656835Y2543742D01*
X3656912Y2543434D01*
X3657027Y2543011D01*
X3657181Y2542858D01*
X3657258Y2542550D01*
X3657566Y2541858D01*
X3657643Y2541550D01*
X3657950Y2540858D01*
X3658027Y2540550D01*
X3658258Y2540012D01*
X3658335Y2539858D01*
X3658489Y2539243D01*
X3658642Y2539089D01*
X3658719Y2538781D01*
X3659027Y2538089D01*
X3659104Y2537781D01*
X3659412Y2537089D01*
X3659488Y2536782D01*
X3659796Y2536089D01*
X3659873Y2535782D01*
X3660181Y2535090D01*
X3660258Y2534782D01*
X3660565Y2534090D01*
X3660642Y2533782D01*
X3660950Y2533090D01*
X3661027Y2532782D01*
X3661334Y2532090D01*
X3661488Y2531552D01*
X3661642Y2531398D01*
X3661719Y2530936D01*
X3661988Y2530436D01*
X3662065Y2530129D01*
X3662180Y2529706D01*
X3662334Y2529552D01*
X3662411Y2529244D01*
X3662719Y2528552D01*
X3662796Y2528244D01*
X3663103Y2527552D01*
X3663180Y2527245D01*
X3663526Y2526437D01*
X3663642Y2525937D01*
X3663757Y2525822D01*
X3663911Y2525437D01*
X3664026Y2524937D01*
X3664180Y2524783D01*
X3664257Y2524476D01*
X3664565Y2523784D01*
X3664642Y2523476D01*
X3664988Y2522668D01*
X3665103Y2522168D01*
X3665218Y2522053D01*
X3665372Y2521669D01*
X3665488Y2521169D01*
X3665603Y2521053D01*
X3665795Y2520553D01*
X3666026Y2520015D01*
X3666103Y2519707D01*
X3666410Y2519015D01*
X3666487Y2518707D01*
X3666834Y2517900D01*
X3666949Y2517400D01*
X3667064Y2517285D01*
X3667218Y2516900D01*
X3667334Y2516400D01*
X3667449Y2516285D01*
X3667641Y2515785D01*
X3667872Y2515246D01*
X3667949Y2514939D01*
X3668256Y2514247D01*
X3668333Y2513939D01*
X3668679Y2513131D01*
X3668795Y2512631D01*
X3668910Y2512516D01*
X3669102Y2512016D01*
X3669179Y2511708D01*
X3669372Y2511362D01*
X3669487Y2510939D01*
X3669679Y2510516D01*
X3669872Y2510016D01*
X3670102Y2509478D01*
X3670179Y2509170D01*
X3670525Y2508363D01*
X3670641Y2507863D01*
X3670756Y2507747D01*
X3670948Y2507248D01*
X3671218Y2506594D01*
X3671333Y2506171D01*
X3671525Y2505748D01*
X3671717Y2505248D01*
X3671948Y2504709D01*
X3672025Y2504402D01*
X3672371Y2503594D01*
X3672486Y2503094D01*
X3672602Y2502979D01*
X3672794Y2502479D01*
X3673063Y2501825D01*
X3673179Y2501402D01*
X3673371Y2500979D01*
X3673563Y2500479D01*
X3673717Y2500095D01*
X3673832Y2499826D01*
X3673948Y2499326D01*
X3674063Y2499210D01*
X3674256Y2498710D01*
X3674332Y2498403D01*
X3674525Y2498057D01*
X3674640Y2497634D01*
X3674832Y2497211D01*
X3675025Y2496711D01*
X3675255Y2496172D01*
X3675332Y2496019D01*
X3675409Y2495711D01*
X3675563Y2495326D01*
X3675678Y2495057D01*
X3675794Y2494557D01*
X3675909Y2494442D01*
X3676063Y2494057D01*
X3676178Y2493557D01*
X3676294Y2493442D01*
X3676486Y2492942D01*
X3676755Y2492288D01*
X3676870Y2491865D01*
X3677024Y2491481D01*
X3677140Y2491365D01*
X3677255Y2490865D01*
X3677524Y2490365D01*
X3677640Y2489866D01*
X3677870Y2489481D01*
X3677947Y2489173D01*
X3678216Y2488520D01*
X3678332Y2488097D01*
X3678486Y2487712D01*
X3678601Y2487597D01*
X3678716Y2487097D01*
X3678985Y2486597D01*
X3679101Y2486097D01*
X3679370Y2485597D01*
X3679485Y2485097D01*
X3679716Y2484713D01*
X3679793Y2484405D01*
X3680062Y2483751D01*
X3680178Y2483328D01*
X3680331Y2482943D01*
X3680447Y2482828D01*
X3680562Y2482328D01*
X3680831Y2481828D01*
X3680947Y2481328D01*
X3681216Y2480829D01*
X3681331Y2480329D01*
X3681562Y2479944D01*
X3681639Y2479636D01*
X3681947Y2478944D01*
X3682023Y2478560D01*
X3682177Y2478175D01*
X3682293Y2478060D01*
X3682408Y2477560D01*
X3682677Y2477060D01*
X3682793Y2476560D01*
X3683023Y2476175D01*
X3683100Y2475868D01*
X3683408Y2475175D01*
X3683485Y2474791D01*
X3683639Y2474406D01*
X3683754Y2474291D01*
X3683869Y2473868D01*
X3684100Y2473330D01*
X3684177Y2473176D01*
X3684254Y2472868D01*
X3684562Y2472176D01*
X3684639Y2471868D01*
X3684946Y2471176D01*
X3685023Y2470868D01*
X3685331Y2470176D01*
X3685485Y2469638D01*
X3685600Y2469523D01*
X3685715Y2469099D01*
X3685792Y2468792D01*
X3685908Y2468677D01*
X3686061Y2468292D01*
X3686177Y2467792D01*
X3686331Y2467638D01*
X3686407Y2467331D01*
X3686715Y2466638D01*
X3686792Y2466331D01*
X3687100Y2465639D01*
X3687177Y2465331D01*
X3687523Y2464523D01*
X3687638Y2464023D01*
X3687753Y2463908D01*
X3687946Y2463408D01*
X3688177Y2462870D01*
X3688253Y2462562D01*
X3688561Y2461870D01*
X3688638Y2461562D01*
X3688946Y2460870D01*
X3689023Y2460562D01*
X3689253Y2460024D01*
X3689407Y2459639D01*
X3689484Y2459332D01*
X3689676Y2458986D01*
X3689792Y2458563D01*
X3690099Y2457870D01*
X3690176Y2457563D01*
X3690484Y2456871D01*
X3690638Y2456332D01*
X3690753Y2456217D01*
X3690868Y2455794D01*
X3691099Y2455255D01*
X3691253Y2454871D01*
X3691330Y2454563D01*
X3691522Y2454217D01*
X3691637Y2453794D01*
X3691945Y2453102D01*
X3692022Y2452794D01*
X3692330Y2452102D01*
X3692483Y2451564D01*
X3692599Y2451448D01*
X3692714Y2451025D01*
X3693060Y2450218D01*
X3693176Y2449718D01*
X3693291Y2449602D01*
X3693483Y2449102D01*
X3693714Y2448564D01*
X3693791Y2448256D01*
X3694099Y2447564D01*
X3694176Y2447257D01*
X3694406Y2446718D01*
X3694560Y2446334D01*
X3694637Y2446026D01*
X3694829Y2445680D01*
X3694945Y2445257D01*
X3695137Y2444834D01*
X3695329Y2444334D01*
X3695560Y2443796D01*
X3695637Y2443488D01*
X3695945Y2442796D01*
X3696021Y2442488D01*
X3696367Y2441680D01*
X3696483Y2441181D01*
X3696598Y2441065D01*
X3696791Y2440565D01*
X3697060Y2439912D01*
X3697175Y2439489D01*
X3697367Y2439066D01*
X3697560Y2438566D01*
X3697637Y2438258D01*
X3697752Y2438143D01*
X3697867Y2437720D01*
X3698213Y2436912D01*
X3698329Y2436412D01*
X3698444Y2436297D01*
X3698636Y2435797D01*
X3698906Y2435143D01*
X3699021Y2434720D01*
X3699213Y2434297D01*
X3699405Y2433797D01*
X3699713Y2433028D01*
X3699867Y2432490D01*
X3700021Y2432336D01*
X3700098Y2432028D01*
X3700367Y2431374D01*
X3700482Y2430951D01*
X3700675Y2430528D01*
X3700867Y2430028D01*
X3701136Y2429375D01*
X3701251Y2428952D01*
X3701521Y2428452D01*
X3701636Y2427952D01*
X3701867Y2427567D01*
X3701944Y2427183D01*
X3702136Y2426760D01*
X3702328Y2426260D01*
X3702559Y2425721D01*
X3702636Y2425568D01*
X3702713Y2425260D01*
X3702982Y2424606D01*
X3703097Y2424183D01*
X3703367Y2423683D01*
X3703482Y2423183D01*
X3703713Y2422799D01*
X3703789Y2422414D01*
X3703982Y2421991D01*
X3704174Y2421491D01*
X3704405Y2420953D01*
X3704482Y2420799D01*
X3704559Y2420491D01*
X3704866Y2419799D01*
X3705020Y2419184D01*
X3705174Y2419030D01*
X3705251Y2418722D01*
X3705559Y2418030D01*
X3705635Y2417646D01*
X3705789Y2417261D01*
X3705943Y2417107D01*
X3706020Y2416569D01*
X3706135Y2416454D01*
X3706289Y2416377D01*
X3706597Y2416454D01*
X3706674Y2416607D01*
X3706789Y2417030D01*
X3707020Y2417415D01*
X3707097Y2417569D01*
X3707251Y2418107D01*
X3707404Y2418261D01*
X3707481Y2418569D01*
X3707866Y2419415D01*
X3708097Y2419953D01*
X3708250Y2420338D01*
X3708327Y2420645D01*
X3708443Y2420761D01*
X3708635Y2421260D01*
X3708827Y2421684D01*
X3709096Y2422414D01*
X3709250Y2422568D01*
X3709327Y2422876D01*
X3709712Y2423722D01*
X3709942Y2424260D01*
X3710096Y2424645D01*
X3710404Y2425337D01*
X3710635Y2425875D01*
X3710942Y2426721D01*
X3711096Y2426875D01*
X3711173Y2427183D01*
X3711558Y2428029D01*
X3711788Y2428567D01*
X3711942Y2428952D01*
X3712019Y2429259D01*
X3712134Y2429375D01*
X3712327Y2429875D01*
X3712634Y2430567D01*
X3712865Y2431105D01*
X3713096Y2431720D01*
X3713327Y2432105D01*
X3713403Y2432413D01*
X3713557Y2432797D01*
X3713673Y2432913D01*
X3713788Y2433336D01*
X3714057Y2433836D01*
X3714173Y2434259D01*
X3714403Y2434643D01*
X3714480Y2434951D01*
X3714634Y2435335D01*
X3714788Y2435489D01*
X3714865Y2435797D01*
X3715480Y2437181D01*
X3715634Y2437566D01*
X3715711Y2437873D01*
X3715865Y2438027D01*
X3715941Y2438335D01*
X3716326Y2439181D01*
X3716557Y2439719D01*
X3716711Y2440104D01*
X3717326Y2441488D01*
X3717480Y2441873D01*
X3717557Y2442180D01*
X3717672Y2442296D01*
X3717864Y2442796D01*
X3718172Y2443488D01*
X3718403Y2444026D01*
X3718557Y2444411D01*
X3718941Y2445257D01*
X3719172Y2445795D01*
X3719249Y2445949D01*
X3719403Y2446488D01*
X3719518Y2446603D01*
X3719710Y2447103D01*
X3720018Y2447795D01*
X3720364Y2448603D01*
X3720479Y2449026D01*
X3720595Y2449141D01*
X3720787Y2449641D01*
X3721171Y2450487D01*
X3721479Y2451179D01*
X3721556Y2451487D01*
X3721787Y2451871D01*
X3721864Y2452179D01*
X3722248Y2453025D01*
X3722863Y2454409D01*
X3722941Y2454563D01*
X3723094Y2455102D01*
X3723210Y2455217D01*
X3723402Y2455717D01*
X3723710Y2456409D01*
X3723940Y2456948D01*
X3724094Y2457332D01*
X3724440Y2458140D01*
X3724556Y2458563D01*
X3724709Y2458716D01*
X3724786Y2458947D01*
X3725171Y2459793D01*
X3725248Y2460101D01*
X3725517Y2460601D01*
X3725632Y2461101D01*
X3725786Y2461255D01*
X3725940Y2461639D01*
X3726017Y2461947D01*
X3726132Y2462062D01*
X3726325Y2462562D01*
X3726632Y2463254D01*
X3727017Y2464100D01*
X3727171Y2464639D01*
X3727324Y2464792D01*
X3727401Y2465100D01*
X3727786Y2465946D01*
X3728017Y2466485D01*
X3728170Y2466869D01*
X3728786Y2468253D01*
X3728863Y2468407D01*
X3729017Y2468946D01*
X3729170Y2469099D01*
X3729247Y2469407D01*
X3729632Y2470253D01*
X3729863Y2470791D01*
X3730016Y2471176D01*
X3730632Y2472561D01*
X3730709Y2472714D01*
X3730862Y2473253D01*
X3731016Y2473407D01*
X3731093Y2473714D01*
X3731478Y2474560D01*
X3731708Y2475099D01*
X3731862Y2475483D01*
X3732477Y2476867D01*
X3732554Y2477021D01*
X3732708Y2477560D01*
X3732862Y2477714D01*
X3732939Y2478021D01*
X3733323Y2478867D01*
X3733554Y2479406D01*
X3733785Y2480021D01*
X3733977Y2480367D01*
X3734093Y2480790D01*
X3734285Y2481136D01*
X3734554Y2481867D01*
X3734708Y2482021D01*
X3734785Y2482328D01*
X3735169Y2483174D01*
X3735400Y2483713D01*
X3735554Y2484097D01*
X3735631Y2484405D01*
X3735746Y2484520D01*
X3735939Y2485020D01*
X3736246Y2485712D01*
X3736631Y2486558D01*
X3736708Y2486866D01*
X3736938Y2487251D01*
X3737015Y2487558D01*
X3737169Y2487943D01*
X3737284Y2488058D01*
X3737400Y2488481D01*
X3737669Y2488981D01*
X3737784Y2489404D01*
X3738015Y2489789D01*
X3738092Y2490019D01*
X3738477Y2490865D01*
X3738553Y2491173D01*
X3738784Y2491558D01*
X3738861Y2491865D01*
X3739015Y2492250D01*
X3739130Y2492365D01*
X3739246Y2492788D01*
X3739515Y2493288D01*
X3739630Y2493711D01*
X3739823Y2494057D01*
X3740092Y2494788D01*
X3740245Y2494942D01*
X3740322Y2495249D01*
X3740707Y2496095D01*
X3740938Y2496634D01*
X3741092Y2497018D01*
X3741169Y2497326D01*
X3741284Y2497441D01*
X3741476Y2497941D01*
X3741784Y2498633D01*
X3742168Y2499479D01*
X3742245Y2499787D01*
X3742476Y2500172D01*
X3742553Y2500479D01*
X3742937Y2501325D01*
X3743014Y2501633D01*
X3743130Y2501748D01*
X3743322Y2502248D01*
X3743630Y2502941D01*
X3743860Y2503479D01*
X3744014Y2503863D01*
X3744399Y2504709D01*
X3744630Y2505248D01*
X3744783Y2505632D01*
X3744860Y2505940D01*
X3744976Y2506055D01*
X3745168Y2506555D01*
X3745476Y2507248D01*
X3745860Y2508094D01*
X3745937Y2508401D01*
X3746168Y2508786D01*
X3746245Y2509093D01*
X3746629Y2509939D01*
X3746706Y2510247D01*
X3746822Y2510363D01*
X3747014Y2510862D01*
X3747629Y2512247D01*
X3747706Y2512401D01*
X3747860Y2512939D01*
X3748014Y2513093D01*
X3748090Y2513401D01*
X3748475Y2514247D01*
X3748706Y2514785D01*
X3748860Y2515169D01*
X3748936Y2515477D01*
X3749052Y2515593D01*
X3749244Y2516092D01*
X3749436Y2516515D01*
X3749706Y2517246D01*
X3749860Y2517400D01*
X3749936Y2517707D01*
X3750552Y2519092D01*
X3750706Y2519477D01*
X3750782Y2519784D01*
X3750898Y2519899D01*
X3751090Y2520399D01*
X3751398Y2521092D01*
X3751628Y2521630D01*
X3751859Y2522245D01*
X3752090Y2522630D01*
X3752167Y2522938D01*
X3752321Y2523322D01*
X3752436Y2523437D01*
X3752551Y2523860D01*
X3752821Y2524360D01*
X3752936Y2524783D01*
X3753167Y2525168D01*
X3753244Y2525476D01*
X3753397Y2525860D01*
X3753551Y2526014D01*
X3753628Y2526322D01*
X3754013Y2527168D01*
X3754243Y2527706D01*
X3754397Y2528091D01*
X3754474Y2528398D01*
X3754590Y2528514D01*
X3754782Y2529014D01*
X3755090Y2529706D01*
X3755320Y2530244D01*
X3755474Y2530629D01*
X3756089Y2532013D01*
X3756243Y2532398D01*
X3756320Y2532705D01*
X3756474Y2532859D01*
X3756551Y2533167D01*
X3756935Y2534013D01*
X3757166Y2534551D01*
X3757320Y2534936D01*
X3757704Y2535782D01*
X3757935Y2536320D01*
X3758012Y2536474D01*
X3758166Y2537012D01*
X3758281Y2537128D01*
X3758474Y2537628D01*
X3758781Y2538320D01*
X3759012Y2538858D01*
X3759166Y2539243D01*
X3759781Y2540627D01*
X3759935Y2541012D01*
X3760012Y2541319D01*
X3760166Y2541473D01*
X3760242Y2541781D01*
X3760627Y2542627D01*
X3760973Y2543434D01*
X3761088Y2543857D01*
X3761204Y2543973D01*
X3761396Y2544473D01*
X3761781Y2545319D01*
X3761858Y2545626D01*
X3762012Y2545780D01*
X3762088Y2546088D01*
X3762473Y2546934D01*
X3762704Y2547472D01*
X3762858Y2547857D01*
X3763473Y2549241D01*
X3763550Y2549395D01*
X3763704Y2549933D01*
X3763857Y2550087D01*
X3763934Y2550395D01*
X3764319Y2551241D01*
X3764550Y2551779D01*
X3764703Y2552164D01*
X3764934Y2552702D01*
X3765088Y2553087D01*
X3765396Y2553779D01*
X3765780Y2554625D01*
X3765857Y2554933D01*
X3766126Y2555433D01*
X3766242Y2555932D01*
X3766395Y2556086D01*
X3766549Y2556471D01*
X3766626Y2556779D01*
X3766742Y2556894D01*
X3767011Y2557625D01*
X3767126Y2557740D01*
X3783162Y2557702D01*
D02*
G37*
G36*
X3482131Y2558778D02*
X3482207Y2558548D01*
X3482131Y2558009D01*
X3482361Y2557778D01*
X3501051Y2557702D01*
X3501128Y2544626D01*
X3501012Y2544280D01*
X3482400Y2544204D01*
X3482131Y2543857D01*
X3482169Y2543511D01*
X3482131Y2523553D01*
Y2523476D01*
Y2403417D01*
X3482207Y2403186D01*
X3482131Y2403032D01*
X3482169Y2402917D01*
X3482131Y2402571D01*
X3482015Y2402456D01*
X3467633Y2402379D01*
X3467287Y2402494D01*
X3467210Y2544011D01*
X3467094Y2544127D01*
X3439560Y2544204D01*
X3439253Y2544280D01*
X3439137Y2544473D01*
X3439176Y2557663D01*
X3467017Y2557740D01*
X3467133Y2557855D01*
X3467210Y2614924D01*
X3482092Y2614962D01*
X3482131Y2558778D01*
D02*
G37*
G36*
X3572194Y2561086D02*
X3574271Y2561009D01*
X3575040Y2560932D01*
X3575501Y2560855D01*
X3576193Y2560778D01*
X3577116Y2560701D01*
X3577885Y2560624D01*
X3578347Y2560547D01*
X3579116Y2560393D01*
X3579808Y2560316D01*
X3580270Y2560240D01*
X3580577Y2560163D01*
X3581462Y2559970D01*
X3582000Y2559894D01*
X3582654Y2559701D01*
X3583039Y2559624D01*
X3583500Y2559547D01*
X3583808Y2559470D01*
X3584192Y2559317D01*
X3584769Y2559201D01*
X3585192Y2559086D01*
X3585577Y2558932D01*
X3586077Y2558817D01*
X3586615Y2558586D01*
X3586999Y2558509D01*
X3587999Y2558124D01*
X3588307Y2558048D01*
X3588653Y2557855D01*
X3589076Y2557740D01*
X3589922Y2557355D01*
X3590230Y2557278D01*
X3590345Y2557163D01*
X3590845Y2556971D01*
X3591345Y2556702D01*
X3591768Y2556586D01*
X3591922Y2556432D01*
X3592537Y2556202D01*
X3592691Y2556048D01*
X3592845Y2555971D01*
X3593229Y2555817D01*
X3593921Y2555433D01*
X3594075Y2555279D01*
X3594229Y2555202D01*
X3594614Y2555048D01*
X3594767Y2554894D01*
X3595152Y2554740D01*
X3595383Y2554510D01*
X3595537Y2554433D01*
X3596383Y2553894D01*
X3596767Y2553664D01*
X3596921Y2553510D01*
X3597306Y2553279D01*
X3597459Y2553125D01*
X3597844Y2552894D01*
X3597998Y2552741D01*
X3598267Y2552548D01*
X3598690Y2552202D01*
X3598844Y2552125D01*
X3599075Y2551895D01*
X3599228Y2551818D01*
X3599613Y2551433D01*
X3599767Y2551356D01*
X3600305Y2550818D01*
X3600459Y2550741D01*
X3600843Y2550356D01*
X3600997Y2550280D01*
X3603266Y2548011D01*
X3603343Y2547857D01*
X3603728Y2547472D01*
X3603805Y2547318D01*
X3604112Y2547011D01*
X3604189Y2546857D01*
X3604497Y2546549D01*
X3604574Y2546396D01*
X3605035Y2545934D01*
X3605266Y2545550D01*
X3605420Y2545396D01*
X3605689Y2544973D01*
X3606035Y2544550D01*
X3606420Y2544011D01*
X3606727Y2543473D01*
X3606881Y2543319D01*
X3607189Y2542781D01*
X3607343Y2542627D01*
X3607958Y2541550D01*
X3608342Y2540858D01*
X3608881Y2539858D01*
X3609035Y2539474D01*
X3609150Y2539358D01*
X3609419Y2538628D01*
X3609573Y2538474D01*
X3609650Y2538166D01*
X3609804Y2537781D01*
X3609919Y2537666D01*
X3610034Y2537243D01*
X3610227Y2536820D01*
X3610419Y2536320D01*
X3610650Y2535782D01*
X3610803Y2535090D01*
X3610996Y2534666D01*
X3611188Y2533859D01*
X3611380Y2533359D01*
X3611496Y2532782D01*
X3611649Y2532167D01*
X3611803Y2531782D01*
X3611880Y2531013D01*
X3611957Y2530706D01*
X3612073Y2530283D01*
X3612149Y2529975D01*
X3612226Y2529360D01*
X3612303Y2528667D01*
X3612419Y2527937D01*
X3612496Y2527706D01*
X3612573Y2526398D01*
X3612649Y2526168D01*
X3612726Y2522553D01*
X3612803Y2522322D01*
X3612726Y2521861D01*
X3612649Y2519246D01*
X3612573Y2518477D01*
X3612496Y2517477D01*
X3612419Y2517169D01*
X3612342Y2516938D01*
X3612265Y2516092D01*
X3612188Y2515785D01*
X3612111Y2515246D01*
X3611957Y2514862D01*
X3611880Y2514247D01*
X3611727Y2513631D01*
X3611573Y2513247D01*
X3611496Y2512785D01*
X3611419Y2512478D01*
X3611227Y2512055D01*
X3611111Y2511478D01*
X3610803Y2510785D01*
X3610727Y2510478D01*
X3610496Y2509939D01*
X3610419Y2509632D01*
X3610034Y2508786D01*
X3609419Y2507478D01*
X3609265Y2507094D01*
X3609035Y2506709D01*
X3608958Y2506479D01*
X3608650Y2506017D01*
X3608496Y2505632D01*
X3608265Y2505402D01*
X3608189Y2505094D01*
X3607881Y2504786D01*
X3607804Y2504479D01*
X3607573Y2504248D01*
X3607266Y2503710D01*
X3607035Y2503325D01*
X3606881Y2503171D01*
X3606650Y2502787D01*
X3606497Y2502633D01*
X3606266Y2502248D01*
X3606035Y2502018D01*
X3605958Y2501864D01*
X3605727Y2501633D01*
X3605651Y2501479D01*
X3605343Y2501172D01*
X3605266Y2501018D01*
X3604958Y2500710D01*
X3604881Y2500556D01*
X3604651Y2500325D01*
X3604574Y2500172D01*
X3604189Y2499787D01*
X3604112Y2499633D01*
X3603420Y2498941D01*
X3603343Y2498787D01*
X3603228Y2498749D01*
X3603035Y2498557D01*
X3602959Y2498403D01*
X3602843Y2498364D01*
X3602651Y2498172D01*
X3602574Y2498018D01*
X3602420Y2497941D01*
X3602228Y2497672D01*
X3602074Y2497595D01*
X3601074Y2496595D01*
X3600920Y2496518D01*
X3600536Y2496134D01*
X3600382Y2496057D01*
X3600074Y2495749D01*
X3599921Y2495672D01*
X3599613Y2495365D01*
X3599459Y2495288D01*
X3599151Y2494980D01*
X3598998Y2494903D01*
X3598959Y2494788D01*
X3598767Y2494673D01*
X3598613Y2494596D01*
X3598459Y2494442D01*
X3597767Y2493903D01*
X3597613Y2493827D01*
X3597383Y2493596D01*
X3597229Y2493519D01*
X3597075Y2493365D01*
X3596690Y2493134D01*
X3596536Y2492981D01*
X3596152Y2492750D01*
X3595921Y2492519D01*
X3595383Y2492211D01*
X3594998Y2491981D01*
X3594767Y2491750D01*
X3594614Y2491673D01*
X3594152Y2491365D01*
X3593921Y2491288D01*
X3593768Y2491135D01*
X3593229Y2490827D01*
X3593075Y2490673D01*
X3592691Y2490519D01*
X3592537Y2490365D01*
X3591460Y2489750D01*
X3590614Y2489289D01*
X3590076Y2488981D01*
X3589384Y2488597D01*
X3586846Y2487289D01*
X3586461Y2487135D01*
X3586346Y2487020D01*
X3585846Y2486828D01*
X3585500Y2486635D01*
X3585000Y2486443D01*
X3584615Y2486212D01*
X3584231Y2486135D01*
X3583769Y2485828D01*
X3583461Y2485751D01*
X3582962Y2485482D01*
X3582539Y2485366D01*
X3582115Y2485174D01*
X3581616Y2484982D01*
X3580231Y2484366D01*
X3579924Y2484289D01*
X3579539Y2484136D01*
X3579424Y2484020D01*
X3578924Y2483905D01*
X3578231Y2483597D01*
X3577924Y2483520D01*
X3577385Y2483290D01*
X3577001Y2483213D01*
X3576309Y2482905D01*
X3575924Y2482828D01*
X3575424Y2482636D01*
X3574694Y2482367D01*
X3574271Y2482174D01*
X3573694Y2482059D01*
X3573001Y2481751D01*
X3572694Y2481675D01*
X3572155Y2481444D01*
X3571771Y2481367D01*
X3571079Y2481059D01*
X3570617Y2480982D01*
X3569617Y2480598D01*
X3569079Y2480444D01*
X3568964Y2480329D01*
X3568464Y2480213D01*
X3568041Y2480021D01*
X3567541Y2479829D01*
X3566887Y2479559D01*
X3566387Y2479444D01*
X3566003Y2479213D01*
X3565618Y2479136D01*
X3565080Y2478906D01*
X3564695Y2478752D01*
X3564387Y2478675D01*
X3564272Y2478560D01*
X3563772Y2478367D01*
X3563465Y2478290D01*
X3563349Y2478175D01*
X3562849Y2477983D01*
X3562542Y2477906D01*
X3562388Y2477752D01*
X3562080Y2477675D01*
X3561234Y2477291D01*
X3560696Y2477060D01*
X3560311Y2476906D01*
X3559465Y2476521D01*
X3556389Y2475060D01*
X3556004Y2474906D01*
X3554850Y2474291D01*
X3554466Y2474060D01*
X3554312Y2473983D01*
X3553927Y2473829D01*
X3553774Y2473676D01*
X3553620Y2473599D01*
X3553235Y2473445D01*
X3551851Y2472676D01*
X3550774Y2472061D01*
X3550620Y2471907D01*
X3549544Y2471291D01*
X3549390Y2471138D01*
X3549005Y2470907D01*
X3547928Y2470138D01*
X3547544Y2469907D01*
X3547390Y2469753D01*
X3547006Y2469523D01*
X3546852Y2469369D01*
X3546159Y2468830D01*
X3546006Y2468753D01*
X3545698Y2468446D01*
X3545544Y2468369D01*
X3545313Y2468138D01*
X3545044Y2467946D01*
X3544967Y2467792D01*
X3544852Y2467753D01*
X3544544Y2467446D01*
X3544390Y2467369D01*
X3543544Y2466523D01*
X3543391Y2466446D01*
X3543237Y2466215D01*
X3543083Y2466138D01*
X3542968Y2466023D01*
X3542891Y2465869D01*
X3542198Y2465177D01*
X3542122Y2465023D01*
X3541814Y2464715D01*
X3541737Y2464562D01*
X3541429Y2464254D01*
X3541352Y2464100D01*
X3541045Y2463793D01*
X3540968Y2463639D01*
X3540814Y2463485D01*
X3540583Y2463100D01*
X3540430Y2462947D01*
X3540199Y2462562D01*
X3539968Y2462331D01*
X3539891Y2462101D01*
X3539660Y2461870D01*
X3539045Y2460793D01*
X3538661Y2460101D01*
X3538430Y2459716D01*
X3538276Y2459332D01*
X3538161Y2459216D01*
X3537968Y2458716D01*
X3537738Y2458332D01*
X3537661Y2458024D01*
X3537392Y2457524D01*
X3537276Y2457101D01*
X3536968Y2456409D01*
X3536815Y2455794D01*
X3536622Y2455371D01*
X3536507Y2454717D01*
X3536276Y2454179D01*
X3536199Y2453640D01*
X3536046Y2453025D01*
X3535930Y2452602D01*
X3535853Y2452217D01*
X3535776Y2451525D01*
X3535700Y2451064D01*
X3535623Y2450756D01*
X3535546Y2450372D01*
X3535469Y2449526D01*
X3535392Y2448141D01*
X3535276Y2445334D01*
X3535353Y2444796D01*
X3535430Y2442873D01*
X3535507Y2441642D01*
X3535815Y2439950D01*
X3535892Y2439181D01*
X3536084Y2438527D01*
X3536199Y2438027D01*
X3536276Y2437489D01*
X3536469Y2436989D01*
X3536584Y2436489D01*
X3536699Y2436066D01*
X3536853Y2435681D01*
X3536968Y2435258D01*
X3537276Y2434489D01*
X3537430Y2433951D01*
X3537584Y2433797D01*
X3537661Y2433490D01*
X3538045Y2432643D01*
X3538122Y2432336D01*
X3538276Y2432182D01*
X3538507Y2431567D01*
X3538661Y2431413D01*
X3538738Y2431259D01*
X3538891Y2430874D01*
X3539045Y2430721D01*
X3539122Y2430567D01*
X3539276Y2430182D01*
X3539430Y2430028D01*
X3539584Y2429644D01*
X3539737Y2429490D01*
X3540045Y2428952D01*
X3540276Y2428567D01*
X3540430Y2428413D01*
X3540660Y2428029D01*
X3540814Y2427875D01*
X3541045Y2427490D01*
X3541276Y2427260D01*
X3541352Y2427106D01*
X3541506Y2426952D01*
X3541737Y2426567D01*
X3542045Y2426260D01*
X3542122Y2426106D01*
X3542737Y2425491D01*
X3542814Y2425337D01*
X3543198Y2424952D01*
X3543275Y2424798D01*
X3543391Y2424760D01*
X3543429Y2424645D01*
X3545313Y2422760D01*
X3545467Y2422683D01*
X3546159Y2421991D01*
X3546313Y2421914D01*
X3546621Y2421607D01*
X3546775Y2421530D01*
X3547313Y2420991D01*
X3547698Y2420761D01*
X3547928Y2420530D01*
X3548082Y2420453D01*
X3548390Y2420145D01*
X3548544Y2420068D01*
X3548698Y2419915D01*
X3549082Y2419684D01*
X3549236Y2419530D01*
X3549774Y2419222D01*
X3549813Y2419107D01*
X3549928Y2419069D01*
X3550390Y2418761D01*
X3550774Y2418530D01*
X3550928Y2418376D01*
X3552005Y2417761D01*
X3553389Y2416992D01*
X3553774Y2416761D01*
X3554158Y2416607D01*
X3554543Y2416377D01*
X3555389Y2415992D01*
X3556773Y2415377D01*
X3557081Y2415300D01*
X3557773Y2414992D01*
X3558388Y2414838D01*
X3558811Y2414646D01*
X3559657Y2414415D01*
X3560042Y2414262D01*
X3560350Y2414185D01*
X3560734Y2414108D01*
X3561042Y2414031D01*
X3561426Y2413877D01*
X3562080Y2413762D01*
X3562388Y2413685D01*
X3563041Y2413492D01*
X3564003Y2413377D01*
X3564311Y2413300D01*
X3564733Y2413185D01*
X3565195Y2413108D01*
X3566041Y2413031D01*
X3566656Y2412954D01*
X3567541Y2412839D01*
X3567772Y2412762D01*
X3570310Y2412685D01*
X3570540Y2412608D01*
X3573809Y2412646D01*
X3576501Y2412723D01*
X3577424Y2412800D01*
X3578347Y2412954D01*
X3579039Y2413031D01*
X3579885Y2413108D01*
X3580347Y2413185D01*
X3580962Y2413339D01*
X3581846Y2413454D01*
X3582154Y2413531D01*
X3582577Y2413646D01*
X3582885Y2413723D01*
X3583808Y2413877D01*
X3584538Y2414146D01*
X3585077Y2414223D01*
X3585577Y2414415D01*
X3586000Y2414531D01*
X3586307Y2414608D01*
X3586846Y2414838D01*
X3587307Y2414915D01*
X3587999Y2415223D01*
X3588307Y2415300D01*
X3588999Y2415608D01*
X3589307Y2415684D01*
X3589999Y2415992D01*
X3590537Y2416223D01*
X3590691Y2416300D01*
X3591691Y2416761D01*
X3591999Y2416838D01*
X3592153Y2416992D01*
X3592306Y2417069D01*
X3592691Y2417223D01*
X3593537Y2417684D01*
X3594075Y2417992D01*
X3594767Y2418376D01*
X3595306Y2418684D01*
X3595537Y2418915D01*
X3595844Y2418992D01*
X3596075Y2419222D01*
X3596229Y2419299D01*
X3597075Y2419838D01*
X3597613Y2420222D01*
X3597998Y2420453D01*
X3598229Y2420684D01*
X3598382Y2420761D01*
X3598613Y2420991D01*
X3598998Y2421222D01*
X3599228Y2421453D01*
X3599382Y2421530D01*
X3599613Y2421760D01*
X3599767Y2421837D01*
X3600074Y2422145D01*
X3600228Y2422222D01*
X3600613Y2422606D01*
X3600767Y2422683D01*
X3601074Y2422991D01*
X3601228Y2423068D01*
X3601536Y2423376D01*
X3601689Y2423452D01*
X3602382Y2424145D01*
X3602535Y2424222D01*
X3602613Y2424376D01*
X3602882Y2424568D01*
X3602959Y2424722D01*
X3603074Y2424837D01*
X3603228Y2424914D01*
X3603382Y2425145D01*
X3603535Y2425222D01*
X3603651Y2425337D01*
X3603728Y2425491D01*
X3603958Y2425644D01*
X3604035Y2425798D01*
X3604727Y2426490D01*
X3604804Y2426644D01*
X3605420Y2427260D01*
X3605497Y2427414D01*
X3605958Y2427875D01*
X3606035Y2428029D01*
X3606343Y2428336D01*
X3606420Y2428490D01*
X3606573Y2428644D01*
X3606766Y2428913D01*
X3606919Y2428990D01*
X3607035Y2429182D01*
X3607112Y2429336D01*
X3607343Y2429567D01*
X3607419Y2429721D01*
X3607727Y2430028D01*
X3607804Y2430182D01*
X3608112Y2430490D01*
X3608189Y2430644D01*
X3608304Y2430759D01*
X3608689Y2431374D01*
X3609419Y2432336D01*
X3609650Y2432720D01*
X3609804Y2432874D01*
X3610034Y2433259D01*
X3610188Y2433413D01*
X3610496Y2433951D01*
X3610650Y2434105D01*
X3610727Y2434259D01*
X3611265Y2435105D01*
X3611573Y2435643D01*
X3611727Y2435797D01*
X3612342Y2436874D01*
X3612496Y2437027D01*
X3612573Y2437181D01*
X3612726Y2437566D01*
X3612880Y2437720D01*
X3612957Y2437873D01*
X3613111Y2438258D01*
X3613265Y2438412D01*
X3613419Y2438796D01*
X3613611Y2438989D01*
X3613803Y2439489D01*
X3614188Y2439873D01*
X3614380Y2439835D01*
X3614572Y2439566D01*
X3615034Y2439181D01*
X3615111Y2439027D01*
X3615226Y2438912D01*
X3615380Y2438835D01*
X3617149Y2437066D01*
X3617302Y2436989D01*
X3617380Y2436835D01*
X3617649Y2436643D01*
X3617726Y2436489D01*
X3617841Y2436374D01*
X3617995Y2436297D01*
X3618149Y2436066D01*
X3618302Y2435989D01*
X3620148Y2434143D01*
X3620302Y2434066D01*
X3620379Y2433912D01*
X3620648Y2433720D01*
X3620725Y2433566D01*
X3620840Y2433451D01*
X3620994Y2433374D01*
X3621110Y2433259D01*
X3621187Y2433105D01*
X3621302Y2433066D01*
X3622840Y2431528D01*
X3622994Y2431451D01*
X3623071Y2431298D01*
X3623225Y2431221D01*
X3624417Y2430028D01*
X3624494Y2429798D01*
X3624340Y2429259D01*
X3624109Y2429029D01*
X3624032Y2428721D01*
X3623878Y2428567D01*
X3623494Y2427875D01*
X3623186Y2427336D01*
X3623032Y2427183D01*
X3622879Y2426798D01*
X3622725Y2426644D01*
X3622417Y2426106D01*
X3622186Y2425721D01*
X3621956Y2425491D01*
X3621879Y2425337D01*
X3621340Y2424491D01*
X3621110Y2424106D01*
X3620956Y2423952D01*
X3620725Y2423568D01*
X3620494Y2423337D01*
X3620418Y2423183D01*
X3620033Y2422645D01*
X3619956Y2422491D01*
X3619802Y2422337D01*
X3619533Y2421914D01*
X3619187Y2421491D01*
X3619110Y2421338D01*
X3618956Y2421184D01*
X3618879Y2421030D01*
X3618572Y2420722D01*
X3618495Y2420568D01*
X3618264Y2420338D01*
X3618187Y2420184D01*
X3617956Y2419953D01*
X3617726Y2419568D01*
X3617418Y2419261D01*
X3617341Y2419107D01*
X3616803Y2418569D01*
X3616726Y2418415D01*
X3616341Y2418030D01*
X3616264Y2417876D01*
X3615649Y2417261D01*
X3615572Y2417107D01*
X3615457Y2416992D01*
X3615072Y2416530D01*
X3614918Y2416454D01*
X3614880Y2416338D01*
X3612457Y2413916D01*
X3612303Y2413839D01*
X3611611Y2413146D01*
X3611457Y2413070D01*
X3611073Y2412685D01*
X3610919Y2412608D01*
X3610381Y2412070D01*
X3610227Y2411993D01*
X3609919Y2411685D01*
X3609765Y2411608D01*
X3609535Y2411377D01*
X3609265Y2411185D01*
X3608842Y2410839D01*
X3608689Y2410762D01*
X3608458Y2410531D01*
X3608304Y2410454D01*
X3608189Y2410339D01*
X3606689Y2409224D01*
X3606304Y2408993D01*
X3606150Y2408839D01*
X3605612Y2408532D01*
X3605573Y2408416D01*
X3605151Y2408224D01*
X3604997Y2408070D01*
X3604612Y2407840D01*
X3604420Y2407647D01*
X3603920Y2407455D01*
X3603689Y2407224D01*
X3603305Y2407070D01*
X3603151Y2406917D01*
X3602613Y2406609D01*
X3601920Y2406224D01*
X3601382Y2405917D01*
X3600997Y2405686D01*
X3600613Y2405532D01*
X3600459Y2405378D01*
X3600151Y2405301D01*
X3599690Y2404994D01*
X3599382Y2404917D01*
X3598921Y2404609D01*
X3598613Y2404532D01*
X3598229Y2404302D01*
X3597998Y2404225D01*
X3596306Y2403456D01*
X3595767Y2403302D01*
X3595652Y2403186D01*
X3595229Y2403071D01*
X3594537Y2402763D01*
X3594229Y2402686D01*
X3593575Y2402417D01*
X3593075Y2402302D01*
X3592652Y2402110D01*
X3592229Y2401994D01*
X3591922Y2401917D01*
X3591576Y2401802D01*
X3591191Y2401648D01*
X3590807Y2401571D01*
X3590499Y2401494D01*
X3590114Y2401340D01*
X3589537Y2401225D01*
X3589115Y2401110D01*
X3588730Y2400956D01*
X3587999Y2400840D01*
X3587345Y2400648D01*
X3587038Y2400571D01*
X3586230Y2400456D01*
X3585923Y2400379D01*
X3585500Y2400264D01*
X3585192Y2400187D01*
X3584500Y2400110D01*
X3584038Y2400033D01*
X3583654Y2399956D01*
X3583346Y2399879D01*
X3582462Y2399764D01*
X3581423Y2399648D01*
X3581039Y2399572D01*
X3580308Y2399456D01*
X3579539Y2399379D01*
X3577078Y2399225D01*
X3576847Y2399148D01*
X3568925Y2399072D01*
X3568618Y2399148D01*
X3566541Y2399302D01*
X3566003Y2399379D01*
X3564541Y2399456D01*
X3563618Y2399610D01*
X3563388Y2399687D01*
X3562234Y2399764D01*
X3561926Y2399841D01*
X3561388Y2399918D01*
X3561003Y2400071D01*
X3560080Y2400148D01*
X3559773Y2400225D01*
X3559350Y2400341D01*
X3559042Y2400418D01*
X3558311Y2400533D01*
X3557312Y2400840D01*
X3556773Y2400918D01*
X3556350Y2401033D01*
X3555850Y2401225D01*
X3555312Y2401302D01*
X3554889Y2401494D01*
X3554389Y2401610D01*
X3554081Y2401687D01*
X3553658Y2401879D01*
X3553235Y2401994D01*
X3552928Y2402071D01*
X3552505Y2402263D01*
X3552005Y2402379D01*
X3551505Y2402648D01*
X3551005Y2402763D01*
X3550620Y2402994D01*
X3550313Y2403071D01*
X3549505Y2403417D01*
X3549082Y2403532D01*
X3548890Y2403725D01*
X3548467Y2403840D01*
X3548082Y2404071D01*
X3547698Y2404225D01*
X3547467Y2404302D01*
X3545236Y2405455D01*
X3544852Y2405686D01*
X3544390Y2405994D01*
X3544083Y2406070D01*
X3543852Y2406301D01*
X3543698Y2406378D01*
X3543314Y2406532D01*
X3543160Y2406686D01*
X3543006Y2406763D01*
X3542237Y2407224D01*
X3542083Y2407378D01*
X3541545Y2407686D01*
X3541160Y2407916D01*
X3540929Y2408147D01*
X3540776Y2408224D01*
X3539160Y2409378D01*
X3539007Y2409455D01*
X3538776Y2409685D01*
X3538622Y2409762D01*
X3538391Y2409993D01*
X3538238Y2410070D01*
X3538007Y2410301D01*
X3537738Y2410493D01*
X3537315Y2410839D01*
X3537161Y2410916D01*
X3536853Y2411224D01*
X3536699Y2411300D01*
X3536161Y2411839D01*
X3536007Y2411916D01*
X3535623Y2412300D01*
X3535469Y2412377D01*
X3535392Y2412531D01*
X3535238Y2412608D01*
X3534084Y2413762D01*
X3533930Y2413839D01*
X3533854Y2413992D01*
X3533700Y2414069D01*
X3533277Y2414492D01*
X3533200Y2414646D01*
X3531815Y2416031D01*
X3531738Y2416184D01*
X3531431Y2416492D01*
X3531354Y2416646D01*
X3531123Y2416800D01*
X3531046Y2416954D01*
X3530739Y2417261D01*
X3530662Y2417415D01*
X3530431Y2417646D01*
X3530239Y2417915D01*
X3529893Y2418338D01*
X3529816Y2418492D01*
X3529585Y2418722D01*
X3529508Y2418876D01*
X3529393Y2418992D01*
X3528662Y2419953D01*
X3528431Y2420338D01*
X3528278Y2420491D01*
X3528047Y2420876D01*
X3527893Y2421030D01*
X3527662Y2421414D01*
X3527508Y2421568D01*
X3526893Y2422645D01*
X3526739Y2422799D01*
X3526124Y2423876D01*
X3525739Y2424568D01*
X3524509Y2426952D01*
X3524278Y2427567D01*
X3524163Y2427683D01*
X3523970Y2428183D01*
X3523663Y2428875D01*
X3523586Y2429182D01*
X3523317Y2429682D01*
X3523201Y2430182D01*
X3523009Y2430528D01*
X3522894Y2430951D01*
X3522817Y2431259D01*
X3522624Y2431682D01*
X3522394Y2432528D01*
X3522240Y2432913D01*
X3522086Y2433682D01*
X3521817Y2434412D01*
X3521740Y2434951D01*
X3521548Y2435604D01*
X3521394Y2436451D01*
X3521317Y2436835D01*
X3521163Y2437450D01*
X3521086Y2437912D01*
X3521009Y2438681D01*
X3520932Y2439066D01*
X3520779Y2439988D01*
X3520702Y2440758D01*
X3520586Y2442565D01*
X3520509Y2442796D01*
X3520432Y2444872D01*
X3520356Y2445103D01*
X3520394Y2448064D01*
X3520471Y2449449D01*
X3520548Y2450295D01*
X3520702Y2452217D01*
X3520779Y2452986D01*
X3520932Y2453756D01*
X3521048Y2454486D01*
X3521125Y2455255D01*
X3521317Y2455909D01*
X3521432Y2456717D01*
X3521509Y2457024D01*
X3521702Y2457678D01*
X3521817Y2458332D01*
X3521932Y2458755D01*
X3522086Y2459139D01*
X3522202Y2459639D01*
X3522432Y2460178D01*
X3522509Y2460639D01*
X3522817Y2461331D01*
X3522971Y2461947D01*
X3523278Y2462639D01*
X3523509Y2463177D01*
X3523586Y2463408D01*
X3523970Y2464254D01*
X3524893Y2466177D01*
X3525278Y2466869D01*
X3525893Y2467946D01*
X3526047Y2468100D01*
X3526124Y2468253D01*
X3526662Y2469099D01*
X3527047Y2469638D01*
X3527124Y2469792D01*
X3527278Y2469945D01*
X3527355Y2470099D01*
X3527508Y2470253D01*
X3527739Y2470638D01*
X3527970Y2470868D01*
X3528047Y2471022D01*
X3528239Y2471215D01*
X3528547Y2471676D01*
X3528700Y2471753D01*
X3528739Y2471868D01*
X3529124Y2472253D01*
X3529200Y2472407D01*
X3529816Y2473022D01*
X3529893Y2473176D01*
X3532777Y2476060D01*
X3532931Y2476137D01*
X3533315Y2476521D01*
X3533469Y2476598D01*
X3533623Y2476829D01*
X3533777Y2476906D01*
X3534392Y2477521D01*
X3534546Y2477598D01*
X3534853Y2477906D01*
X3535007Y2477983D01*
X3535238Y2478213D01*
X3535623Y2478444D01*
X3535853Y2478675D01*
X3536007Y2478752D01*
X3536315Y2479059D01*
X3536469Y2479136D01*
X3536622Y2479290D01*
X3537007Y2479521D01*
X3537161Y2479675D01*
X3537584Y2479944D01*
X3538007Y2480290D01*
X3539084Y2481059D01*
X3540237Y2481828D01*
X3540776Y2482136D01*
X3540929Y2482290D01*
X3541083Y2482367D01*
X3541622Y2482751D01*
X3541852Y2482828D01*
X3542006Y2482982D01*
X3542545Y2483290D01*
X3542698Y2483367D01*
X3542852Y2483520D01*
X3543160Y2483597D01*
X3543314Y2483751D01*
X3543852Y2484059D01*
X3544544Y2484443D01*
X3545083Y2484751D01*
X3545929Y2485212D01*
X3547236Y2485905D01*
X3547621Y2486135D01*
X3548005Y2486289D01*
X3548851Y2486751D01*
X3549236Y2486905D01*
X3549620Y2487135D01*
X3550005Y2487289D01*
X3550390Y2487520D01*
X3550620Y2487597D01*
X3551005Y2487751D01*
X3551389Y2487981D01*
X3552235Y2488366D01*
X3552543Y2488443D01*
X3552658Y2488558D01*
X3553389Y2488827D01*
X3553505Y2488943D01*
X3554004Y2489135D01*
X3554697Y2489443D01*
X3555004Y2489519D01*
X3555389Y2489750D01*
X3555696Y2489827D01*
X3556081Y2489981D01*
X3556196Y2490096D01*
X3556619Y2490212D01*
X3557042Y2490404D01*
X3557542Y2490596D01*
X3558235Y2490904D01*
X3558542Y2490981D01*
X3559234Y2491288D01*
X3559542Y2491365D01*
X3559965Y2491558D01*
X3560388Y2491673D01*
X3561042Y2491942D01*
X3561465Y2492058D01*
X3562157Y2492365D01*
X3562465Y2492442D01*
X3563003Y2492673D01*
X3563388Y2492750D01*
X3564080Y2493057D01*
X3564387Y2493134D01*
X3564926Y2493288D01*
X3565041Y2493403D01*
X3565464Y2493519D01*
X3566118Y2493788D01*
X3566541Y2493903D01*
X3567079Y2494134D01*
X3567387Y2494211D01*
X3568079Y2494519D01*
X3568695Y2494673D01*
X3569387Y2494980D01*
X3569925Y2495134D01*
X3570040Y2495249D01*
X3570463Y2495365D01*
X3570848Y2495519D01*
X3570963Y2495634D01*
X3571386Y2495749D01*
X3571925Y2495980D01*
X3572079Y2496057D01*
X3572386Y2496134D01*
X3573078Y2496441D01*
X3573925Y2496826D01*
X3574232Y2496903D01*
X3574617Y2497134D01*
X3574924Y2497211D01*
X3575309Y2497364D01*
X3575424Y2497480D01*
X3575847Y2497595D01*
X3576347Y2497864D01*
X3576847Y2498057D01*
X3576963Y2498172D01*
X3577462Y2498364D01*
X3577962Y2498633D01*
X3578385Y2498749D01*
X3578539Y2498903D01*
X3578693Y2498980D01*
X3580616Y2499903D01*
X3581308Y2500287D01*
X3581693Y2500518D01*
X3582193Y2500787D01*
X3582692Y2500979D01*
X3582923Y2501210D01*
X3583231Y2501287D01*
X3583385Y2501441D01*
X3584077Y2501825D01*
X3585153Y2502441D01*
X3585307Y2502594D01*
X3585846Y2502902D01*
X3586230Y2503133D01*
X3586461Y2503363D01*
X3586999Y2503671D01*
X3587384Y2503902D01*
X3587538Y2504056D01*
X3587922Y2504287D01*
X3588038Y2504402D01*
X3588499Y2504709D01*
X3589268Y2505325D01*
X3589691Y2505671D01*
X3589845Y2505748D01*
X3590153Y2506055D01*
X3590307Y2506132D01*
X3590460Y2506363D01*
X3590614Y2506440D01*
X3591499Y2507325D01*
X3591576Y2507478D01*
X3591691Y2507517D01*
X3591806Y2507632D01*
X3591883Y2507786D01*
X3592268Y2508171D01*
X3592345Y2508324D01*
X3592652Y2508632D01*
X3592729Y2508786D01*
X3592960Y2509017D01*
X3593037Y2509170D01*
X3593345Y2509478D01*
X3593421Y2509632D01*
X3593652Y2509863D01*
X3593729Y2510016D01*
X3594268Y2510785D01*
X3594575Y2511324D01*
X3594729Y2511478D01*
X3595267Y2512478D01*
X3595575Y2512939D01*
X3595652Y2513324D01*
X3595844Y2513516D01*
X3596113Y2514247D01*
X3596267Y2514400D01*
X3596344Y2514708D01*
X3596536Y2515208D01*
X3596690Y2515593D01*
X3596806Y2516092D01*
X3596998Y2516515D01*
X3597113Y2517015D01*
X3597190Y2517323D01*
X3597383Y2517977D01*
X3597459Y2518438D01*
X3597536Y2519053D01*
X3597613Y2519438D01*
X3597729Y2520092D01*
X3597805Y2520323D01*
X3597882Y2522861D01*
X3597805Y2525476D01*
X3597652Y2526783D01*
X3597575Y2527014D01*
X3597498Y2527937D01*
X3597421Y2528244D01*
X3597344Y2528783D01*
X3597190Y2529167D01*
X3597113Y2529783D01*
X3597036Y2530090D01*
X3596844Y2530590D01*
X3596729Y2531090D01*
X3596652Y2531398D01*
X3596459Y2531821D01*
X3596344Y2532244D01*
X3596037Y2532936D01*
X3595652Y2533782D01*
X3595498Y2534167D01*
X3595114Y2534859D01*
X3594421Y2536012D01*
X3594114Y2536551D01*
X3593883Y2536782D01*
X3593806Y2536935D01*
X3593691Y2537051D01*
X3593345Y2537474D01*
X3593268Y2537628D01*
X3593114Y2537781D01*
X3592922Y2538051D01*
X3592768Y2538128D01*
X3592729Y2538243D01*
X3592422Y2538550D01*
X3592229Y2538820D01*
X3592076Y2538897D01*
X3591076Y2539896D01*
X3590922Y2539973D01*
X3590691Y2540204D01*
X3590537Y2540281D01*
X3590422Y2540396D01*
X3589999Y2540742D01*
X3589845Y2540819D01*
X3589614Y2541050D01*
X3589461Y2541127D01*
X3589307Y2541281D01*
X3588922Y2541512D01*
X3588768Y2541666D01*
X3588384Y2541896D01*
X3588153Y2542127D01*
X3587999Y2542204D01*
X3587153Y2542742D01*
X3587115Y2542781D01*
X3586461Y2543127D01*
X3585923Y2543434D01*
X3585769Y2543511D01*
X3585653Y2543627D01*
X3585153Y2543819D01*
X3585000Y2543973D01*
X3584846Y2544050D01*
X3583154Y2544819D01*
X3582846Y2544896D01*
X3582462Y2545126D01*
X3582154Y2545203D01*
X3581500Y2545473D01*
X3581077Y2545588D01*
X3580770Y2545665D01*
X3580347Y2545857D01*
X3579770Y2545972D01*
X3579270Y2546165D01*
X3578462Y2546357D01*
X3577809Y2546549D01*
X3576693Y2546742D01*
X3576155Y2546895D01*
X3575924Y2546972D01*
X3574924Y2547049D01*
X3574617Y2547126D01*
X3574078Y2547203D01*
X3573848Y2547280D01*
X3572540Y2547357D01*
X3572309Y2547434D01*
X3569464Y2547511D01*
X3569233Y2547588D01*
X3566118Y2547549D01*
X3564464Y2547434D01*
X3563426Y2547318D01*
X3563041Y2547242D01*
X3562734Y2547165D01*
X3562003Y2547049D01*
X3561465Y2546972D01*
X3560811Y2546780D01*
X3560157Y2546665D01*
X3559850Y2546588D01*
X3559350Y2546396D01*
X3558696Y2546280D01*
X3558311Y2546126D01*
X3558042Y2546011D01*
X3557542Y2545896D01*
X3556850Y2545588D01*
X3556312Y2545434D01*
X3556196Y2545319D01*
X3555773Y2545203D01*
X3554927Y2544819D01*
X3554620Y2544742D01*
X3554466Y2544588D01*
X3553851Y2544357D01*
X3553735Y2544242D01*
X3553235Y2544050D01*
X3552774Y2543742D01*
X3552466Y2543665D01*
X3552274Y2543473D01*
X3551774Y2543281D01*
X3551582Y2543088D01*
X3551197Y2542934D01*
X3550428Y2542473D01*
X3549813Y2542088D01*
X3548851Y2541435D01*
X3548313Y2541050D01*
X3548159Y2540973D01*
X3548005Y2540819D01*
X3547852Y2540742D01*
X3547698Y2540589D01*
X3547275Y2540320D01*
X3546852Y2539973D01*
X3546698Y2539896D01*
X3546544Y2539743D01*
X3546390Y2539666D01*
X3546082Y2539358D01*
X3545929Y2539281D01*
X3545621Y2538974D01*
X3545467Y2538897D01*
X3545160Y2538589D01*
X3545006Y2538512D01*
X3544775Y2538281D01*
X3544621Y2538204D01*
X3544314Y2537897D01*
X3544044Y2537704D01*
X3543967Y2537551D01*
X3543852Y2537512D01*
X3543468Y2537128D01*
X3543314Y2537051D01*
X3543160Y2536820D01*
X3543006Y2536743D01*
X3541545Y2535282D01*
X3541391Y2535205D01*
X3541352Y2535090D01*
X3539737Y2533474D01*
X3539545Y2533513D01*
X3539007Y2534051D01*
X3538853Y2534128D01*
X3538238Y2534743D01*
X3538084Y2534820D01*
X3537468Y2535436D01*
X3537315Y2535512D01*
X3536930Y2535897D01*
X3536661Y2536089D01*
X3536584Y2536243D01*
X3536469Y2536282D01*
X3535776Y2536974D01*
X3535623Y2537051D01*
X3534930Y2537743D01*
X3534776Y2537820D01*
X3534623Y2538051D01*
X3534469Y2538128D01*
X3534084Y2538512D01*
X3533930Y2538589D01*
X3533315Y2539204D01*
X3533161Y2539281D01*
X3532469Y2539973D01*
X3532315Y2540050D01*
X3531623Y2540742D01*
X3531469Y2540819D01*
X3531316Y2541050D01*
X3531162Y2541127D01*
X3530546Y2541742D01*
X3530393Y2541819D01*
X3529777Y2542435D01*
X3529624Y2542512D01*
X3529162Y2542973D01*
X3529008Y2543050D01*
X3528662Y2543396D01*
X3528585Y2543627D01*
X3528739Y2543780D01*
X3528816Y2543934D01*
X3529431Y2544550D01*
X3529508Y2544704D01*
X3530200Y2545396D01*
X3530277Y2545550D01*
X3532469Y2547742D01*
X3532623Y2547818D01*
X3533238Y2548434D01*
X3533392Y2548511D01*
X3534084Y2549203D01*
X3534238Y2549280D01*
X3534546Y2549587D01*
X3534700Y2549664D01*
X3534930Y2549895D01*
X3535084Y2549972D01*
X3535315Y2550203D01*
X3535738Y2550472D01*
X3535815Y2550626D01*
X3536007Y2550741D01*
X3536161Y2550818D01*
X3536199Y2550933D01*
X3536622Y2551202D01*
X3538238Y2552356D01*
X3538622Y2552587D01*
X3538776Y2552741D01*
X3539314Y2553048D01*
X3539545Y2553279D01*
X3539853Y2553356D01*
X3540083Y2553587D01*
X3540468Y2553741D01*
X3540622Y2553894D01*
X3541160Y2554202D01*
X3541852Y2554587D01*
X3543160Y2555279D01*
X3544314Y2555894D01*
X3545160Y2556279D01*
X3545467Y2556356D01*
X3545660Y2556548D01*
X3546082Y2556663D01*
X3546429Y2556856D01*
X3546928Y2557048D01*
X3547313Y2557202D01*
X3547582Y2557317D01*
X3548005Y2557432D01*
X3548505Y2557702D01*
X3549005Y2557817D01*
X3549428Y2558009D01*
X3549851Y2558124D01*
X3550159Y2558201D01*
X3550505Y2558394D01*
X3551082Y2558509D01*
X3551505Y2558701D01*
X3552312Y2558894D01*
X3552735Y2559009D01*
X3553120Y2559163D01*
X3553851Y2559278D01*
X3554389Y2559509D01*
X3555081Y2559586D01*
X3555389Y2559663D01*
X3555812Y2559778D01*
X3556119Y2559855D01*
X3557042Y2560009D01*
X3557427Y2560086D01*
X3557735Y2560163D01*
X3558657Y2560316D01*
X3559427Y2560393D01*
X3559811Y2560470D01*
X3560119Y2560547D01*
X3560580Y2560624D01*
X3561580Y2560701D01*
X3562503Y2560778D01*
X3563465Y2560893D01*
X3563695Y2560970D01*
X3566849Y2561047D01*
X3567079Y2561124D01*
X3572194Y2561086D01*
D02*
G37*
%LPC*%
G36*
X3342959Y2547588D02*
X3338383Y2547549D01*
X3335807Y2547434D01*
X3334345Y2547357D01*
X3333307Y2547242D01*
X3332845Y2547165D01*
X3331653Y2547049D01*
X3330615Y2546934D01*
X3330231Y2546857D01*
X3329923Y2546780D01*
X3328885Y2546665D01*
X3328346Y2546588D01*
X3327923Y2546472D01*
X3327615Y2546396D01*
X3326731Y2546280D01*
X3326423Y2546203D01*
X3326000Y2546088D01*
X3325500Y2545972D01*
X3324962Y2545896D01*
X3324654Y2545819D01*
X3324270Y2545665D01*
X3323731Y2545588D01*
X3323424Y2545511D01*
X3322424Y2545203D01*
X3321886Y2545126D01*
X3321463Y2544934D01*
X3320963Y2544819D01*
X3320540Y2544704D01*
X3320155Y2544550D01*
X3319578Y2544434D01*
X3318886Y2544127D01*
X3318578Y2544050D01*
X3318040Y2543819D01*
X3317348Y2543665D01*
X3316963Y2543434D01*
X3316579Y2543358D01*
X3315733Y2542973D01*
X3315425Y2542896D01*
X3315079Y2542704D01*
X3314656Y2542588D01*
X3314156Y2542319D01*
X3313733Y2542204D01*
X3313348Y2541973D01*
X3313118Y2541896D01*
X3312733Y2541742D01*
X3312349Y2541512D01*
X3311503Y2541127D01*
X3311195Y2541050D01*
X3311041Y2540896D01*
X3310887Y2540819D01*
X3310503Y2540666D01*
X3310118Y2540435D01*
X3309733Y2540281D01*
X3307657Y2539127D01*
X3307119Y2538820D01*
X3306426Y2538435D01*
X3306273Y2538281D01*
X3305888Y2538128D01*
X3305657Y2537897D01*
X3305503Y2537820D01*
X3305042Y2537512D01*
X3304811Y2537435D01*
X3304657Y2537282D01*
X3304119Y2536974D01*
X3303581Y2536589D01*
X3303042Y2536282D01*
X3302811Y2536051D01*
X3302658Y2535974D01*
X3302504Y2535820D01*
X3301965Y2535512D01*
X3301812Y2535359D01*
X3301427Y2535128D01*
X3301196Y2534897D01*
X3301043Y2534820D01*
X3300889Y2534666D01*
X3300504Y2534436D01*
X3300273Y2534205D01*
X3300120Y2534128D01*
X3299966Y2533974D01*
X3299274Y2533436D01*
X3299120Y2533359D01*
X3298889Y2533128D01*
X3298735Y2533051D01*
X3298428Y2532744D01*
X3298274Y2532667D01*
X3297966Y2532359D01*
X3297812Y2532282D01*
X3297505Y2531975D01*
X3297351Y2531898D01*
X3297043Y2531590D01*
X3296889Y2531513D01*
X3296582Y2531206D01*
X3296428Y2531129D01*
X3296120Y2530821D01*
X3295966Y2530744D01*
X3295928Y2530629D01*
X3295813Y2530513D01*
X3295659Y2530436D01*
X3295044Y2529821D01*
X3294890Y2529744D01*
X3294274Y2529129D01*
X3294120Y2529052D01*
X3292890Y2527821D01*
X3292736Y2527744D01*
X3292698Y2527629D01*
X3292582Y2527514D01*
X3292428Y2527437D01*
X3291544Y2526552D01*
X3291467Y2526398D01*
X3290390Y2525322D01*
X3290313Y2525168D01*
X3289621Y2524476D01*
X3289544Y2524322D01*
X3288929Y2523707D01*
X3288852Y2523553D01*
X3288544Y2523245D01*
X3288468Y2523091D01*
X3288121Y2522745D01*
X3287775Y2522322D01*
X3287698Y2522168D01*
X3287468Y2521938D01*
X3287391Y2521784D01*
X3287083Y2521476D01*
X3287006Y2521322D01*
X3286852Y2521169D01*
X3286314Y2520476D01*
X3286237Y2520323D01*
X3286006Y2520092D01*
X3285929Y2519938D01*
X3285776Y2519784D01*
X3285391Y2519246D01*
X3285160Y2518861D01*
X3285006Y2518707D01*
X3284776Y2518323D01*
X3284622Y2518169D01*
X3284391Y2517784D01*
X3284237Y2517631D01*
X3284007Y2517246D01*
X3283853Y2517092D01*
X3283776Y2516938D01*
X3283238Y2516092D01*
X3282930Y2515554D01*
X3282699Y2515323D01*
X3282545Y2514939D01*
X3282392Y2514785D01*
X3282007Y2514093D01*
X3281392Y2513016D01*
X3280930Y2512170D01*
X3280392Y2511170D01*
X3280238Y2510785D01*
X3280046Y2510593D01*
X3279930Y2510170D01*
X3279776Y2510016D01*
X3279700Y2509863D01*
X3279392Y2509170D01*
X3279161Y2508555D01*
X3279046Y2508440D01*
X3278777Y2507709D01*
X3278661Y2507594D01*
X3278469Y2507094D01*
X3278161Y2506401D01*
X3278008Y2505863D01*
X3277892Y2505748D01*
X3277777Y2505325D01*
X3277585Y2504902D01*
X3277392Y2504402D01*
X3277315Y2504094D01*
X3277085Y2503556D01*
X3277008Y2503248D01*
X3276738Y2502594D01*
X3276623Y2502095D01*
X3276431Y2501595D01*
X3276239Y2500787D01*
X3276008Y2500249D01*
X3275931Y2499787D01*
X3275816Y2499364D01*
X3275662Y2498980D01*
X3275508Y2498134D01*
X3275431Y2497826D01*
X3275277Y2497441D01*
X3275162Y2496711D01*
X3274931Y2495942D01*
X3274854Y2495634D01*
X3274777Y2494865D01*
X3274700Y2494557D01*
X3274585Y2494134D01*
X3274508Y2493750D01*
X3274431Y2493057D01*
X3274354Y2492442D01*
X3274277Y2492135D01*
X3274200Y2491750D01*
X3274085Y2490789D01*
X3274162Y2490481D01*
X3407180Y2490442D01*
X3407296Y2490558D01*
X3407257Y2491211D01*
X3407104Y2491981D01*
X3406988Y2492788D01*
X3406911Y2493557D01*
X3406757Y2494096D01*
X3406680Y2494326D01*
X3406604Y2495173D01*
X3406450Y2495788D01*
X3406334Y2496211D01*
X3406219Y2496941D01*
X3405950Y2497826D01*
X3405834Y2498557D01*
X3405719Y2498980D01*
X3405527Y2499479D01*
X3405450Y2500018D01*
X3405258Y2500441D01*
X3405065Y2501325D01*
X3404873Y2501748D01*
X3404758Y2502248D01*
X3404488Y2502902D01*
X3404373Y2503402D01*
X3404066Y2504171D01*
X3403989Y2504479D01*
X3403835Y2504863D01*
X3403719Y2505133D01*
X3403604Y2505555D01*
X3403373Y2505940D01*
X3403296Y2506248D01*
X3403066Y2506786D01*
X3402912Y2507171D01*
X3402681Y2507709D01*
X3402604Y2507863D01*
X3401450Y2510401D01*
X3401181Y2510901D01*
X3400989Y2511401D01*
X3400835Y2511555D01*
X3400758Y2511708D01*
X3400604Y2512093D01*
X3400143Y2512939D01*
X3399835Y2513477D01*
X3399451Y2514170D01*
X3399143Y2514708D01*
X3398912Y2515093D01*
X3398374Y2515939D01*
X3398066Y2516477D01*
X3397913Y2516631D01*
X3397836Y2516785D01*
X3397297Y2517631D01*
X3396528Y2518707D01*
X3396297Y2519092D01*
X3396144Y2519246D01*
X3395913Y2519630D01*
X3395759Y2519784D01*
X3395528Y2520169D01*
X3395221Y2520476D01*
X3395144Y2520630D01*
X3394990Y2520784D01*
X3394798Y2521053D01*
X3394452Y2521476D01*
X3394375Y2521630D01*
X3394221Y2521784D01*
X3393990Y2522168D01*
X3393836Y2522245D01*
X3393759Y2522399D01*
X3393452Y2522707D01*
X3393375Y2522861D01*
X3393067Y2523168D01*
X3392990Y2523322D01*
X3392606Y2523707D01*
X3392529Y2523860D01*
X3392298Y2524091D01*
X3392221Y2524245D01*
X3391836Y2524630D01*
X3391760Y2524783D01*
X3391644Y2524822D01*
X3391529Y2524937D01*
X3391452Y2525091D01*
X3390721Y2525822D01*
X3390337Y2526283D01*
X3390068Y2526475D01*
Y2526552D01*
X3388029Y2528590D01*
X3387876Y2528667D01*
X3387837Y2528783D01*
X3387722Y2528898D01*
X3387568Y2528975D01*
X3387453Y2529090D01*
X3387376Y2529244D01*
X3387260Y2529283D01*
X3386568Y2529975D01*
X3386414Y2530052D01*
X3385799Y2530667D01*
X3385645Y2530744D01*
X3385261Y2531129D01*
X3385107Y2531206D01*
X3384799Y2531513D01*
X3384645Y2531590D01*
X3384338Y2531898D01*
X3384184Y2531975D01*
X3383646Y2532513D01*
X3383492Y2532590D01*
X3383261Y2532821D01*
X3382876Y2533051D01*
X3382646Y2533282D01*
X3382492Y2533359D01*
X3382184Y2533667D01*
X3382030Y2533744D01*
X3381876Y2533897D01*
X3381492Y2534128D01*
X3381300Y2534320D01*
X3380838Y2534628D01*
X3380415Y2534974D01*
X3379877Y2535359D01*
X3379492Y2535590D01*
X3379338Y2535743D01*
X3378954Y2535974D01*
X3378800Y2536128D01*
X3378416Y2536359D01*
X3378262Y2536512D01*
X3377723Y2536820D01*
X3377570Y2536974D01*
X3377416Y2537051D01*
X3376570Y2537589D01*
X3376031Y2537897D01*
X3375800Y2538128D01*
X3375493Y2538204D01*
X3375339Y2538358D01*
X3374647Y2538743D01*
X3374108Y2539050D01*
X3373416Y2539435D01*
X3372340Y2540050D01*
X3372109Y2540127D01*
X3370801Y2540819D01*
X3370417Y2541050D01*
X3370263Y2541127D01*
X3369417Y2541512D01*
X3368725Y2541819D01*
X3367033Y2542588D01*
X3366725Y2542665D01*
X3366033Y2542973D01*
X3365494Y2543127D01*
X3365379Y2543242D01*
X3364956Y2543358D01*
X3364418Y2543588D01*
X3364264Y2543665D01*
X3363648Y2543819D01*
X3363110Y2544050D01*
X3362802Y2544127D01*
X3362264Y2544357D01*
X3361572Y2544511D01*
X3361034Y2544742D01*
X3360572Y2544819D01*
X3360264Y2544896D01*
X3359726Y2545126D01*
X3359265Y2545203D01*
X3358380Y2545473D01*
X3357726Y2545588D01*
X3357419Y2545665D01*
X3357073Y2545780D01*
X3356765Y2545857D01*
X3356111Y2545972D01*
X3354881Y2546280D01*
X3354111Y2546357D01*
X3353804Y2546434D01*
X3353381Y2546549D01*
X3352650Y2546665D01*
X3351612Y2546780D01*
X3351304Y2546857D01*
X3350381Y2547011D01*
X3349305Y2547088D01*
X3348612Y2547165D01*
X3347613Y2547318D01*
X3346613Y2547395D01*
X3343190Y2547511D01*
X3342959Y2547588D01*
D02*
G37*
%LPD*%
D14*
X4670354Y5098425D02*
X4662854Y5102755D01*
Y5094095D01*
X4670354Y5098425D01*
X4591614Y5059055D02*
X4584114Y5063385D01*
Y5054725D01*
X4591614Y5059055D01*
X4709724Y5177165D02*
X4702224Y5181495D01*
Y5172835D01*
X4709724Y5177165D01*
X4591614Y4901575D02*
X4584114Y4905905D01*
Y4897245D01*
X4591614Y4901575D01*
X4709724D02*
X4702224Y4905905D01*
Y4897245D01*
X4709724Y4901575D01*
X4749095Y4783465D02*
X4741595Y4787795D01*
Y4779135D01*
X4749095Y4783465D01*
X4827835Y5019685D02*
X4820335Y5024015D01*
Y5015355D01*
X4827835Y5019685D01*
X5182165Y5059055D02*
X5174665Y5063385D01*
Y5054725D01*
X5182165Y5059055D01*
D86*
X4374843Y5360000D02*
D03*
X4415000D02*
D03*
X4374921Y5318966D02*
D03*
X4415079D02*
D03*
X3955079Y4610000D02*
D03*
X3914921D02*
D03*
X3955079Y4520000D02*
D03*
X3914921D02*
D03*
X3679921Y4735000D02*
D03*
X3720079D02*
D03*
X3675000Y5935000D02*
D03*
X3715157D02*
D03*
X3930000Y5775000D02*
D03*
X3889843D02*
D03*
X3929921Y5816034D02*
D03*
X3889764D02*
D03*
X4678784Y5995129D02*
D03*
X4718942D02*
D03*
X4751394Y5995346D02*
D03*
X4791552D02*
D03*
Y5954313D02*
D03*
X4751394D02*
D03*
X4681611Y6323253D02*
D03*
X4721769D02*
D03*
X4470076Y6332104D02*
D03*
X4510233D02*
D03*
Y6291069D02*
D03*
X4470076D02*
D03*
X4399921Y6331885D02*
D03*
X4440079D02*
D03*
D88*
X4704724Y5019685D02*
D03*
X4666929D02*
D03*
X4980315Y4940945D02*
D03*
X5018110D02*
D03*
Y4862205D02*
D03*
X4980315D02*
D03*
X4703898Y5295000D02*
D03*
X4666102D02*
D03*
X4587000Y5334000D02*
D03*
X4624795D02*
D03*
X4268898Y4586939D02*
D03*
X4231102D02*
D03*
X4273898Y5786939D02*
D03*
X4236102D02*
D03*
D89*
X4862205Y4980315D02*
D03*
X4923228D02*
D03*
X5374016Y5255905D02*
D03*
X5435039D02*
D03*
X4265512Y4738967D02*
D03*
X4204488D02*
D03*
X4265512Y5938967D02*
D03*
X4204488D02*
D03*
D90*
X4744000Y5078488D02*
D03*
Y5139512D02*
D03*
X4784000Y4929512D02*
D03*
Y4868488D02*
D03*
X4902000Y4866958D02*
D03*
Y4927982D02*
D03*
X5413386Y4744095D02*
D03*
Y4683071D02*
D03*
X4138317Y4635512D02*
D03*
Y4574488D02*
D03*
X3640000Y4635512D02*
D03*
Y4574488D02*
D03*
Y5834512D02*
D03*
Y5773488D02*
D03*
X4138317Y5835512D02*
D03*
Y5774488D02*
D03*
D91*
X5059000Y4902858D02*
D03*
Y4940653D02*
D03*
X2214968Y3503685D02*
D03*
Y3541481D02*
D03*
X2779492Y3548848D02*
D03*
Y3511053D02*
D03*
X3401684Y3498762D02*
D03*
Y3536557D02*
D03*
X3919055Y3539512D02*
D03*
Y3501717D02*
D03*
X4085000Y4643898D02*
D03*
Y4606102D02*
D03*
X3695000Y4643898D02*
D03*
Y4606102D02*
D03*
Y5844000D02*
D03*
Y5806205D02*
D03*
X4085000Y5806000D02*
D03*
Y5843795D02*
D03*
X4045454Y6994884D02*
D03*
Y6957089D02*
D03*
X4130278Y6994884D02*
D03*
Y6957089D02*
D03*
D93*
X5375000Y4450079D02*
D03*
Y4409921D02*
D03*
X5416034D02*
D03*
Y4450079D02*
D03*
X2214968Y3574937D02*
D03*
Y3615095D02*
D03*
X2256625D02*
D03*
Y3574937D02*
D03*
X2513218Y3613968D02*
D03*
Y3573811D02*
D03*
X2779492Y3621968D02*
D03*
Y3581811D02*
D03*
X2821492Y3582811D02*
D03*
Y3622968D02*
D03*
X3074492Y3569811D02*
D03*
Y3609968D02*
D03*
X3442399Y3615095D02*
D03*
Y3574937D02*
D03*
X3400995Y3574937D02*
D03*
Y3615094D02*
D03*
X3690000Y3612047D02*
D03*
Y3571890D02*
D03*
X3919055Y3614937D02*
D03*
Y3574780D02*
D03*
X3960280D02*
D03*
Y3614937D02*
D03*
X4221510Y3569811D02*
D03*
Y3609968D02*
D03*
X4790000Y6095079D02*
D03*
Y6054921D02*
D03*
X4762449Y6323557D02*
D03*
Y6283400D02*
D03*
X4790000Y6379921D02*
D03*
Y6420079D02*
D03*
X6800000Y7779921D02*
D03*
Y7820079D02*
D03*
X6850000Y7779921D02*
D03*
Y7820079D02*
D03*
X7000000Y7779921D02*
D03*
Y7820079D02*
D03*
X7050000Y7779921D02*
D03*
Y7820079D02*
D03*
X6775000Y5720079D02*
D03*
Y5679921D02*
D03*
X6855000Y5720157D02*
D03*
Y5680000D02*
D03*
X6935000Y5720157D02*
D03*
Y5680000D02*
D03*
X7075000Y5720157D02*
D03*
Y5680000D02*
D03*
X7175000Y5720157D02*
D03*
Y5680000D02*
D03*
X6865000Y4294921D02*
D03*
Y4335079D02*
D03*
X6910000Y4294921D02*
D03*
Y4335079D02*
D03*
X6985000Y4294921D02*
D03*
Y4335079D02*
D03*
X7030000Y4294843D02*
D03*
Y4335000D02*
D03*
X4066966Y7027847D02*
D03*
Y7068004D02*
D03*
X4108000D02*
D03*
Y7027847D02*
D03*
X6805000Y2205157D02*
D03*
Y2165000D02*
D03*
X6850000Y2205157D02*
D03*
Y2165000D02*
D03*
X6891034Y2205079D02*
D03*
Y2164921D02*
D03*
X7115000Y2205079D02*
D03*
Y2164921D02*
D03*
X7160000Y2205079D02*
D03*
Y2164921D02*
D03*
D96*
X4485000Y4254468D02*
D03*
Y4375532D02*
D03*
D110*
X4267422Y4660000D02*
D03*
X4188681D02*
D03*
X3510895D02*
D03*
X3589636D02*
D03*
X3510630Y5859000D02*
D03*
X3589370D02*
D03*
X4267422Y5860000D02*
D03*
X4188681D02*
D03*
D122*
X7120079Y7820433D02*
D03*
X7000000Y5679488D02*
D03*
X7120079Y4320433D02*
D03*
X7000000Y2179488D02*
D03*
D123*
X5276480Y7074535D02*
D03*
Y7191465D02*
D03*
X4961520D02*
D03*
Y7074535D02*
D03*
D124*
X3519483Y6910000D02*
D03*
X2668425Y6750000D02*
D03*
X2670000Y6470000D02*
D03*
X3500000Y4980709D02*
D03*
Y4319291D02*
D03*
Y6180709D02*
D03*
Y5519291D02*
D03*
D125*
X3421058Y6910000D02*
D03*
X2570000Y6750000D02*
D03*
X2571575Y6470000D02*
D03*
D126*
X3040000Y6480000D02*
D03*
X2940000D02*
D03*
X3040000Y6580000D02*
D03*
X2940000D02*
D03*
X3040000Y6680000D02*
D03*
X2940000D02*
D03*
X3040000Y6780000D02*
D03*
Y6880000D02*
D03*
Y6980000D02*
D03*
X2940000D02*
D03*
X3040000Y7080000D02*
D03*
X2940000D02*
D03*
X3040000Y7180000D02*
D03*
X2940000D02*
D03*
X3040000Y7280000D02*
D03*
X2940000D02*
D03*
X3040000Y7380000D02*
D03*
X2940000D02*
D03*
Y6880000D02*
D03*
Y6780000D02*
D03*
D127*
X4003543Y4846850D02*
D03*
Y4563386D02*
D03*
X3622047Y5024016D02*
D03*
X3799213Y4275984D02*
D03*
X2314961D02*
D03*
X2669291D02*
D03*
X3023622D02*
D03*
X3377953D02*
D03*
X2137795Y5024016D02*
D03*
X2492126D02*
D03*
X2846457D02*
D03*
X3200787D02*
D03*
X4003543Y6046850D02*
D03*
Y5763386D02*
D03*
X3622047Y6224016D02*
D03*
X3799213Y5475984D02*
D03*
X2314961D02*
D03*
X2669291D02*
D03*
X3023622D02*
D03*
X3377953D02*
D03*
X2137795Y6224016D02*
D03*
X2492126D02*
D03*
X2846457D02*
D03*
X3200787D02*
D03*
D128*
X2330701Y7150000D02*
D03*
Y6950000D02*
D03*
Y6750000D02*
D03*
D129*
X2500000Y2992500D02*
D03*
Y7492500D02*
D03*
X6500000Y1992500D02*
D03*
Y7992500D02*
D03*
X5750000Y5750000D02*
D03*
X4250000Y4250000D02*
D03*
X7000000Y8125000D02*
D03*
Y1875000D02*
D03*
Y4625000D02*
D03*
Y5375000D02*
D03*
D153*
X4814000Y5136402D02*
D03*
Y5061598D02*
D03*
X5059000Y5414598D02*
D03*
Y5489402D02*
D03*
X4921000Y4584402D02*
D03*
Y4509598D02*
D03*
D154*
X5040846Y5098425D02*
D03*
X4919783D02*
D03*
D155*
X2660000Y7099528D02*
D03*
Y7040472D02*
D03*
Y7280472D02*
D03*
Y7339528D02*
D03*
D156*
X6040522Y5815000D02*
D03*
X5935000D02*
D03*
X3665870Y7193748D02*
D03*
X6040522Y5709478D02*
D03*
X4825000Y5720000D02*
D03*
X4225000Y5330000D02*
D03*
X5550292Y5923914D02*
D03*
X4825000Y5611123D02*
D03*
X3665869Y6999420D02*
D03*
X4220000Y6970000D02*
D03*
X4075756Y6499000D02*
D03*
X3915580Y7410792D02*
D03*
M02*
