G04*
G04 #@! TF.GenerationSoftware,Altium Limited,Altium Designer,24.4.1 (13)*
G04*
G04 Layer_Color=65535*
%FSLAX26Y26*%
%MOIN*%
G70*
G04*
G04 #@! TF.SameCoordinates,905C8A78-2083-4C7B-A4A3-8DC1081A3543*
G04*
G04*
G04 #@! TF.FilePolarity,Positive*
G04*
G01*
G75*
%ADD10C,0.010000*%
%ADD11C,0.009842*%
%ADD12C,0.015000*%
%ADD13C,0.007874*%
%ADD14C,0.010000*%
%ADD15C,0.006024*%
%ADD16C,0.005000*%
%ADD17C,0.005906*%
%ADD18C,0.012000*%
%ADD19C,0.006500*%
%ADD20C,0.008000*%
%ADD21C,0.005906*%
%ADD22C,0.005906*%
G36*
X6168000Y7960000D02*
X6168398Y7960000D01*
X6169133Y7959695D01*
X6169695Y7959133D01*
X6170000Y7958398D01*
X6170000Y7958000D01*
X6170000Y7958000D01*
X6170000Y7902000D01*
X6170000Y7901602D01*
X6169695Y7900867D01*
X6169133Y7900304D01*
X6168397Y7900000D01*
X6167999Y7900000D01*
X6151602D01*
X6150867Y7900304D01*
X6150305Y7900867D01*
X6150000Y7901602D01*
X6150000Y7902000D01*
X6150000Y7902000D01*
X6150000Y7958000D01*
Y7958398D01*
X6150304Y7959133D01*
X6150867Y7959695D01*
X6151602Y7960000D01*
X6152000Y7960000D01*
X6152000Y7960000D01*
X6168000Y7960000D01*
D02*
G37*
G36*
X4468504Y5492126D02*
Y5531496D01*
X4507874D01*
X4468504Y5492126D01*
D02*
G37*
G36*
X3103711Y3222142D02*
X3104264Y3221588D01*
X3104564Y3220865D01*
Y3220473D01*
X3104564Y3220473D01*
X3104564Y3212599D01*
X3104564Y3212208D01*
X3104264Y3211484D01*
X3103711Y3210931D01*
X3102987Y3210631D01*
X3102595Y3210631D01*
X3102596Y3210631D01*
X3094722Y3210631D01*
X3094330Y3210631D01*
X3093606Y3210930D01*
X3093052Y3211484D01*
X3092753Y3212208D01*
X3092753Y3212600D01*
Y3220473D01*
Y3220865D01*
X3093053Y3221588D01*
X3093607Y3222142D01*
X3094330Y3222442D01*
X3094722D01*
X3094722Y3222442D01*
X3102987D01*
X3103711Y3222142D01*
D02*
G37*
G36*
X4063560Y3222141D02*
X4064114Y3221588D01*
X4064414Y3220864D01*
Y3220473D01*
X4064414Y3220472D01*
X4064414Y3212599D01*
X4064414Y3212207D01*
X4064114Y3211483D01*
X4063560Y3210930D01*
X4062836Y3210630D01*
X4062445Y3210631D01*
X4062445Y3210630D01*
X4054571Y3210630D01*
X4054180Y3210630D01*
X4053456Y3210930D01*
X4052902Y3211483D01*
X4052602Y3212207D01*
X4052603Y3212599D01*
Y3220472D01*
Y3220864D01*
X4052902Y3221587D01*
X4053456Y3222141D01*
X4054179Y3222441D01*
X4054571D01*
X4054571Y3222441D01*
X4062837D01*
X4063560Y3222141D01*
D02*
G37*
G36*
X3586052D02*
X3586606Y3221588D01*
X3586905Y3220864D01*
Y3220473D01*
X3586905Y3220472D01*
X3586905Y3212599D01*
X3586905Y3212207D01*
X3586606Y3211483D01*
X3586052Y3210930D01*
X3585328Y3210630D01*
X3584936Y3210631D01*
X3584937Y3210630D01*
X3577063Y3210630D01*
X3576671Y3210630D01*
X3575948Y3210930D01*
X3575394Y3211483D01*
X3575094Y3212207D01*
X3575095Y3212599D01*
Y3220472D01*
Y3220864D01*
X3575394Y3221587D01*
X3575948Y3222141D01*
X3576671Y3222441D01*
X3577063D01*
X3577063Y3222441D01*
X3585329D01*
X3586052Y3222141D01*
D02*
G37*
G36*
X6218000Y1920000D02*
X6218398Y1920000D01*
X6219133Y1919695D01*
X6219695Y1919133D01*
X6220000Y1918398D01*
X6220000Y1918000D01*
X6220000Y1918000D01*
X6220000Y1862000D01*
X6220000Y1861602D01*
X6219695Y1860867D01*
X6219133Y1860304D01*
X6218397Y1860000D01*
X6217999Y1860000D01*
X6201602D01*
X6200867Y1860304D01*
X6200305Y1860867D01*
X6200000Y1861602D01*
X6200000Y1862000D01*
X6200000Y1862000D01*
X6200000Y1918000D01*
Y1918398D01*
X6200304Y1919133D01*
X6200867Y1919695D01*
X6201602Y1920000D01*
X6202000Y1920000D01*
X6202000Y1920000D01*
X6218000Y1920000D01*
D02*
G37*
D10*
X4151024Y3601260D02*
D03*
X2446024D02*
D03*
X3006024D02*
D03*
X3621024D02*
D03*
X4366850Y6339134D02*
D03*
X3861488Y6909953D02*
D03*
X4646850Y6002283D02*
D03*
X4647480Y6332283D02*
D03*
X4030890Y6450654D02*
D03*
X5042228Y7211740D02*
D03*
X3868532Y7663748D02*
D03*
X3810791Y7382252D02*
D03*
X3331339Y7222677D02*
D03*
X2891968Y7430000D02*
D03*
X5852772Y4550260D02*
D03*
X5996614Y5807480D02*
D03*
D11*
X4454921Y5550000D02*
X4447539Y5554262D01*
Y5545738D01*
X4454921Y5550000D01*
X5722921Y5364953D02*
X5715539Y5369215D01*
Y5360691D01*
X5722921Y5364953D01*
D12*
X6217000Y1830000D02*
X6210000Y1837000D01*
X6203000Y1830000D01*
X6210000Y1823000D01*
X6217000Y1830000D01*
X6167000Y7870000D02*
X6160000Y7877000D01*
X6153000Y7870000D01*
X6160000Y7863000D01*
X6167000Y7870000D01*
D13*
X7232283Y7868110D02*
X7224409D01*
X7232283D01*
X3794095Y5063386D02*
X3786220D01*
X3794095D01*
Y6263386D02*
X3786220D01*
X3794095D01*
X7232283Y4368110D02*
X7224409D01*
X7232283D01*
X4468504Y5492126D02*
X4507874Y5531496D01*
X4468504Y4468504D02*
Y5531496D01*
X5531496Y4468504D02*
Y5531496D01*
X4468504D02*
X5531496D01*
X4468504Y4468504D02*
X5531496D01*
X6739000Y2118000D02*
Y2223000D01*
X6739000Y4247000D02*
Y4347000D01*
X6739567Y4347047D02*
X6887795D01*
X6740000Y6223000D02*
Y6326000D01*
Y6177000D02*
X6740000Y6123000D01*
X6740000Y5976000D02*
X6740000Y5921000D01*
X6740000Y5617000D02*
Y5624000D01*
Y5617000D02*
X6789000D01*
X7051000D02*
X7082000D01*
X7230000Y5617520D02*
X7260433D01*
X6739567Y7700000D02*
Y7847047D01*
X7112205Y7864173D02*
Y7878543D01*
X6739567Y7847047D02*
X6887795D01*
Y7878543D01*
X7112205D01*
X7153543Y7847047D02*
X7260433D01*
Y5617520D02*
Y7847047D01*
X3348223Y7011378D02*
X3387593D01*
X3367908Y6991693D02*
Y7031063D01*
X2497165Y6851378D02*
X2536535D01*
X2516850Y6831693D02*
Y6871063D01*
X2518425Y6551693D02*
Y6591063D01*
X2498740Y6571378D02*
X2538110D01*
X7112205Y4364173D02*
Y4378543D01*
X6887795Y4347047D02*
Y4378543D01*
X7112205D01*
X7153543Y4347047D02*
X7260433D01*
Y2117520D02*
Y4347047D01*
X6739567Y2117520D02*
X7260433D01*
D14*
X4495669Y3222362D02*
X4487795D01*
X4495669D01*
X4280000Y7162520D02*
X4272500Y7166850D01*
Y7158190D01*
X4280000Y7162520D01*
X3713512Y5305842D02*
X3705638D01*
X3713512D01*
X2383850Y7264961D02*
X2375976D01*
X2383850D01*
X6475000Y4450000D02*
X6467500Y4454330D01*
Y4445670D01*
X6475000Y4450000D01*
X6122866Y5939819D02*
X6114992D01*
X6122866D01*
X6110000Y1795000D02*
X6210000Y1995000D01*
X6310000Y1795000D01*
X6110000D02*
X6310000D01*
X6060000Y7835000D02*
X6160000Y8035000D01*
X6260000Y7835000D01*
X6060000D02*
X6260000D01*
X2210000Y4570007D02*
Y4609994D01*
X2229994Y4629987D01*
X2249987Y4609994D01*
Y4570007D01*
Y4599997D01*
X2210000D01*
X2269981Y4550013D02*
Y4609994D01*
X2299971D01*
X2309968Y4599997D01*
Y4580003D01*
X2299971Y4570007D01*
X2269981D01*
X2329961Y4609994D02*
Y4570007D01*
Y4590000D01*
X2339958Y4599997D01*
X2349955Y4609994D01*
X2359952D01*
X2389942Y4570007D02*
X2409935D01*
X2399939D01*
Y4609994D01*
X2389942D01*
X2439926Y4570007D02*
X2459919D01*
X2449922D01*
Y4629987D01*
X2439926D01*
X2589877Y4570007D02*
X2549890D01*
X2589877Y4609994D01*
Y4619990D01*
X2579880Y4629987D01*
X2559887D01*
X2549890Y4619990D01*
X2609871D02*
X2619867Y4629987D01*
X2639861D01*
X2649858Y4619990D01*
Y4580003D01*
X2639861Y4570007D01*
X2619867D01*
X2609871Y4580003D01*
Y4619990D01*
X2709838Y4570007D02*
X2669851D01*
X2709838Y4609994D01*
Y4619990D01*
X2699841Y4629987D01*
X2679848D01*
X2669851Y4619990D01*
X2759822Y4570007D02*
Y4629987D01*
X2729832Y4599997D01*
X2769819D01*
X2249987Y4729987D02*
X2229994D01*
X2239990D01*
Y4680003D01*
X2229994Y4670007D01*
X2219997D01*
X2210000Y4680003D01*
X2279977Y4670007D02*
X2299971D01*
X2309968Y4680003D01*
Y4699997D01*
X2299971Y4709994D01*
X2279977D01*
X2269981Y4699997D01*
Y4680003D01*
X2279977Y4670007D01*
X2329961Y4709994D02*
Y4670007D01*
Y4690000D01*
X2339958Y4699997D01*
X2349955Y4709994D01*
X2359952D01*
X2429929Y4729987D02*
Y4670007D01*
X2399939D01*
X2389942Y4680003D01*
Y4699997D01*
X2399939Y4709994D01*
X2429929D01*
X2459919D02*
X2479913D01*
X2489910Y4699997D01*
Y4670007D01*
X2459919D01*
X2449922Y4680003D01*
X2459919Y4690000D01*
X2489910D01*
X2509903Y4670007D02*
Y4709994D01*
X2539893D01*
X2549890Y4699997D01*
Y4670007D01*
X2629864Y4729987D02*
Y4670007D01*
Y4699997D01*
X2669851D01*
Y4729987D01*
Y4670007D01*
X2699842Y4709994D02*
X2719835D01*
X2729832Y4699997D01*
Y4670007D01*
X2699842D01*
X2689845Y4680003D01*
X2699842Y4690000D01*
X2729832D01*
X2749825Y4709994D02*
Y4670007D01*
Y4690000D01*
X2759822Y4699997D01*
X2769819Y4709994D01*
X2779816D01*
X2809806D02*
Y4670007D01*
Y4690000D01*
X2819803Y4699997D01*
X2829800Y4709994D01*
X2839796D01*
X2869787Y4670007D02*
X2889780D01*
X2879783D01*
Y4709994D01*
X2869787D01*
X2919770Y4670007D02*
X2949761D01*
X2959758Y4680003D01*
X2949761Y4690000D01*
X2929767D01*
X2919770Y4699997D01*
X2929767Y4709994D01*
X2959758D01*
X2979751Y4699997D02*
X3019738D01*
X3039732Y4729987D02*
X3079719D01*
X3059725D01*
Y4670007D01*
X3109709D02*
X3129702D01*
X3139699Y4680003D01*
Y4699997D01*
X3129702Y4709994D01*
X3109709D01*
X3099712Y4699997D01*
Y4680003D01*
X3109709Y4670007D01*
X3169690D02*
X3189683D01*
X3199680Y4680003D01*
Y4699997D01*
X3189683Y4709994D01*
X3169690D01*
X3159693Y4699997D01*
Y4680003D01*
X3169690Y4670007D01*
X3219673Y4709994D02*
X3239667Y4670007D01*
X3259660Y4709994D01*
X3279654D02*
Y4680003D01*
X3289651Y4670007D01*
X3319641D01*
Y4660010D01*
X3309644Y4650013D01*
X3299648D01*
X3319641Y4670007D02*
Y4709994D01*
X2210000Y5800007D02*
Y5839994D01*
X2229994Y5859987D01*
X2249987Y5839994D01*
Y5800007D01*
Y5829997D01*
X2210000D01*
X2289974Y5780013D02*
X2299971D01*
X2309968Y5790010D01*
Y5839994D01*
X2279977D01*
X2269981Y5829997D01*
Y5810003D01*
X2279977Y5800007D01*
X2309968D01*
X2349955Y5780013D02*
X2359952D01*
X2369948Y5790010D01*
Y5839994D01*
X2339958D01*
X2329961Y5829997D01*
Y5810003D01*
X2339958Y5800007D01*
X2369948D01*
X2389942Y5839994D02*
Y5800007D01*
Y5820000D01*
X2399939Y5829997D01*
X2409935Y5839994D01*
X2419932D01*
X2479913Y5800007D02*
X2459919D01*
X2449922Y5810003D01*
Y5829997D01*
X2459919Y5839994D01*
X2479913D01*
X2489910Y5829997D01*
Y5820000D01*
X2449922D01*
X2529896Y5780013D02*
X2539893D01*
X2549890Y5790010D01*
Y5839994D01*
X2519900D01*
X2509903Y5829997D01*
Y5810003D01*
X2519900Y5800007D01*
X2549890D01*
X2579880Y5839994D02*
X2599874D01*
X2609871Y5829997D01*
Y5800007D01*
X2579880D01*
X2569884Y5810003D01*
X2579880Y5820000D01*
X2609871D01*
X2639861Y5849990D02*
Y5839994D01*
X2629864D01*
X2649858D01*
X2639861D01*
Y5810003D01*
X2649858Y5800007D01*
X2679848D02*
X2699841D01*
X2689845D01*
Y5839994D01*
X2679848D01*
X2739829Y5800007D02*
X2759822D01*
X2769819Y5810003D01*
Y5829997D01*
X2759822Y5839994D01*
X2739829D01*
X2729832Y5829997D01*
Y5810003D01*
X2739829Y5800007D01*
X2789812D02*
Y5839994D01*
X2819803D01*
X2829800Y5829997D01*
Y5800007D01*
X2949761Y5849990D02*
X2939764Y5859987D01*
X2919770D01*
X2909774Y5849990D01*
Y5839994D01*
X2919770Y5829997D01*
X2939764D01*
X2949761Y5820000D01*
Y5810003D01*
X2939764Y5800007D01*
X2919770D01*
X2909774Y5810003D01*
X2969754Y5839994D02*
Y5810003D01*
X2979751Y5800007D01*
X3009741D01*
Y5790010D01*
X2999744Y5780013D01*
X2989748D01*
X3009741Y5800007D02*
Y5839994D01*
X3029735Y5800007D02*
X3059725D01*
X3069722Y5810003D01*
X3059725Y5820000D01*
X3039732D01*
X3029735Y5829997D01*
X3039732Y5839994D01*
X3069722D01*
X3099712Y5849990D02*
Y5839994D01*
X3089715D01*
X3109709D01*
X3099712D01*
Y5810003D01*
X3109709Y5800007D01*
X3169689D02*
X3149696D01*
X3139699Y5810003D01*
Y5829997D01*
X3149696Y5839994D01*
X3169689D01*
X3179686Y5829997D01*
Y5820000D01*
X3139699D01*
X3199680Y5800007D02*
Y5839994D01*
X3209677D01*
X3219673Y5829997D01*
Y5800007D01*
Y5829997D01*
X3229670Y5839994D01*
X3239667Y5829997D01*
Y5800007D01*
X2239990Y5949987D02*
X2219997D01*
X2210000Y5939990D01*
Y5900003D01*
X2219997Y5890007D01*
X2239990D01*
X2249987Y5900003D01*
Y5939990D01*
X2239990Y5949987D01*
X2309968Y5929994D02*
X2279977D01*
X2269981Y5919997D01*
Y5900003D01*
X2279977Y5890007D01*
X2309968D01*
X2339958Y5939990D02*
Y5929994D01*
X2329961D01*
X2349955D01*
X2339958D01*
Y5900003D01*
X2349955Y5890007D01*
X2389942D02*
X2409935D01*
X2419932Y5900003D01*
Y5919997D01*
X2409935Y5929994D01*
X2389942D01*
X2379945Y5919997D01*
Y5900003D01*
X2389942Y5890007D01*
X2439926Y5919997D02*
X2479913D01*
X2529896Y5949987D02*
X2509903D01*
X2499906Y5939990D01*
Y5900003D01*
X2509903Y5890007D01*
X2529896D01*
X2539893Y5900003D01*
Y5939990D01*
X2529896Y5949987D01*
X2559887Y5870013D02*
Y5929994D01*
X2589877D01*
X2599874Y5919997D01*
Y5900003D01*
X2589877Y5890007D01*
X2559887D01*
X2629864Y5939990D02*
Y5929994D01*
X2619867D01*
X2639861D01*
X2629864D01*
Y5900003D01*
X2639861Y5890007D01*
X2669851D02*
X2689845D01*
X2679848D01*
Y5929994D01*
X2669851D01*
X2759822D02*
X2729832D01*
X2719835Y5919997D01*
Y5900003D01*
X2729832Y5890007D01*
X2759822D01*
X2789812Y5929994D02*
X2809806D01*
X2819803Y5919997D01*
Y5890007D01*
X2789812D01*
X2779816Y5900003D01*
X2789812Y5910000D01*
X2819803D01*
X2839796Y5890007D02*
X2859790D01*
X2849793D01*
Y5949987D01*
X2839796D01*
X2949761D02*
Y5890007D01*
X2979751D01*
X2989748Y5900003D01*
Y5939990D01*
X2979751Y5949987D01*
X2949761D01*
X3019738Y5929994D02*
X3039731D01*
X3049728Y5919997D01*
Y5890007D01*
X3019738D01*
X3009741Y5900003D01*
X3019738Y5910000D01*
X3049728D01*
X3079719Y5939990D02*
Y5929994D01*
X3069722D01*
X3089715D01*
X3079719D01*
Y5900003D01*
X3089715Y5890007D01*
X3129702Y5929994D02*
X3149696D01*
X3159693Y5919997D01*
Y5890007D01*
X3129702D01*
X3119706Y5900003D01*
X3129702Y5910000D01*
X3159693D01*
X2910000Y7610010D02*
Y7649997D01*
X2929994Y7669990D01*
X2949987Y7649997D01*
Y7610010D01*
Y7640000D01*
X2910000D01*
X2690000Y7610010D02*
Y7669990D01*
X2719990D01*
X2729987Y7659993D01*
Y7640000D01*
X2719990Y7630003D01*
X2690000D01*
X2709994D02*
X2729987Y7610010D01*
X2789968Y7669990D02*
X2749981D01*
Y7610010D01*
X2789968D01*
X2749981Y7640000D02*
X2769974D01*
X2809961Y7669990D02*
Y7630003D01*
X2829955Y7610010D01*
X2849948Y7630003D01*
Y7669990D01*
X2700065Y2789997D02*
Y2760006D01*
X2710061Y2750010D01*
X2740052D01*
Y2789997D01*
X2800032Y2799994D02*
X2790036Y2809990D01*
X2770042D01*
X2760045Y2799994D01*
Y2760006D01*
X2770042Y2750010D01*
X2790036D01*
X2800032Y2760006D01*
X2919994Y2799994D02*
X2909997Y2809990D01*
X2890003D01*
X2880006Y2799994D01*
Y2789997D01*
X2890003Y2780000D01*
X2909997D01*
X2919994Y2770003D01*
Y2760006D01*
X2909997Y2750010D01*
X2890003D01*
X2880006Y2760006D01*
X2939987Y2809990D02*
X2979974D01*
X2959981D01*
Y2750010D01*
X2999968D02*
Y2789997D01*
X3019961Y2809990D01*
X3039955Y2789997D01*
Y2750010D01*
Y2780000D01*
X2999968D01*
X3059948Y2809990D02*
X3099935D01*
X3079942D01*
Y2750010D01*
X3395060Y2809990D02*
X3355073D01*
Y2780000D01*
X3375066D01*
X3355073D01*
Y2750010D01*
X3415053D02*
Y2809990D01*
X3445044D01*
X3455041Y2799994D01*
Y2780000D01*
X3445044Y2770003D01*
X3415053D01*
X3515021Y2799994D02*
X3505024Y2809990D01*
X3485031D01*
X3475034Y2799994D01*
Y2760006D01*
X3485031Y2750010D01*
X3505024D01*
X3515021Y2760006D01*
Y2780000D01*
X3495028D01*
X3535015Y2750010D02*
Y2789997D01*
X3555008Y2809990D01*
X3575002Y2789997D01*
Y2750010D01*
Y2780000D01*
X3535015D01*
X3654976Y2809990D02*
X3674969D01*
X3664973D01*
Y2750010D01*
X3654976D01*
X3674969D01*
X3704960D02*
Y2809990D01*
X3724953Y2789997D01*
X3744947Y2809990D01*
Y2750010D01*
X3804927Y2799994D02*
X3794930Y2809990D01*
X3774937D01*
X3764940Y2799994D01*
Y2760006D01*
X3774937Y2750010D01*
X3794930D01*
X3804927Y2760006D01*
Y2780000D01*
X3784934D01*
X4070074Y2750010D02*
Y2809990D01*
X4100065D01*
X4110061Y2799994D01*
Y2780000D01*
X4100065Y2770003D01*
X4070074D01*
X4130055Y2809990D02*
Y2750010D01*
X4150048Y2770003D01*
X4170042Y2750010D01*
Y2809990D01*
X4190036Y2750010D02*
Y2809990D01*
X4220026D01*
X4230023Y2799994D01*
Y2780000D01*
X4220026Y2770003D01*
X4190036D01*
X4210029D02*
X4230023Y2750010D01*
X4349984Y2799994D02*
X4339987Y2809990D01*
X4319994D01*
X4309997Y2799994D01*
Y2789997D01*
X4319994Y2780000D01*
X4339987D01*
X4349984Y2770003D01*
Y2760006D01*
X4339987Y2750010D01*
X4319994D01*
X4309997Y2760006D01*
X4369977Y2809990D02*
X4409965D01*
X4389971D01*
Y2750010D01*
X4429958D02*
Y2789997D01*
X4449952Y2809990D01*
X4469945Y2789997D01*
Y2750010D01*
Y2780000D01*
X4429958D01*
X4489939Y2809990D02*
X4529926D01*
X4509932D01*
Y2750010D01*
X4720010Y2890065D02*
Y2910058D01*
Y2900061D01*
X4779990D01*
Y2890065D01*
Y2910058D01*
Y2940048D02*
X4720010D01*
X4779990Y2980035D01*
X4720010D01*
Y3000029D02*
Y3020023D01*
Y3010026D01*
X4779990D01*
Y3000029D01*
Y3020023D01*
X4720010Y3050013D02*
Y3090000D01*
Y3070006D01*
X4779990D01*
X4679990Y2990032D02*
X4620010D01*
X4640003Y3010026D01*
X4620010Y3030019D01*
X4679990D01*
Y3090000D02*
Y3050013D01*
X4640003Y3090000D01*
X4630007D01*
X4620010Y3080003D01*
Y3060010D01*
X4630007Y3050013D01*
X4579990Y3010026D02*
X4520010D01*
X4540003Y3030019D01*
X4520010Y3050013D01*
X4579990D01*
Y3070006D02*
Y3090000D01*
Y3080003D01*
X4520010D01*
X4530006Y3070006D01*
X4479990Y2990032D02*
X4420010D01*
X4440003Y3010026D01*
X4420010Y3030019D01*
X4479990D01*
X4430006Y3050013D02*
X4420010Y3060010D01*
Y3080003D01*
X4430006Y3090000D01*
X4469993D01*
X4479990Y3080003D01*
Y3060010D01*
X4469993Y3050013D01*
X4430006D01*
X2920006Y5170010D02*
Y5209997D01*
X2940000Y5229990D01*
X2959994Y5209997D01*
Y5170010D01*
Y5200000D01*
X2920006D01*
Y5329990D02*
Y5270010D01*
X2949997D01*
X2959994Y5280007D01*
Y5290003D01*
X2949997Y5300000D01*
X2920006D01*
X2949997D01*
X2959994Y5309997D01*
Y5319993D01*
X2949997Y5329990D01*
X2920006D01*
X2599987Y5230007D02*
Y5269993D01*
X2589990Y5279990D01*
X2569997D01*
X2560000Y5269993D01*
Y5230007D01*
X2569997Y5220010D01*
X2589990D01*
X2579994Y5240003D02*
X2599987Y5220010D01*
X2589990D02*
X2599987Y5230007D01*
X2659968Y5269993D02*
X2649971Y5279990D01*
X2629977D01*
X2619981Y5269993D01*
Y5259997D01*
X2629977Y5250000D01*
X2649971D01*
X2659968Y5240003D01*
Y5230007D01*
X2649971Y5220010D01*
X2629977D01*
X2619981Y5230007D01*
X2719948Y5279990D02*
X2679961D01*
Y5250000D01*
X2699955D01*
X2679961D01*
Y5220010D01*
X2739942D02*
Y5279990D01*
X2769932D01*
X2779929Y5269993D01*
Y5250000D01*
X2769932Y5240003D01*
X2739942D01*
X2799922Y5250000D02*
X2839910D01*
X2819916Y5269993D02*
Y5230007D01*
X5030110Y2629990D02*
Y2570010D01*
Y2600000D01*
X5070097D01*
Y2629990D01*
Y2570010D01*
X5090091D02*
Y2629990D01*
X5120081D01*
X5130078Y2619994D01*
Y2600000D01*
X5120081Y2590003D01*
X5090091D01*
X5190058Y2619994D02*
X5180061Y2629990D01*
X5160068D01*
X5150071Y2619994D01*
Y2580006D01*
X5160068Y2570010D01*
X5180061D01*
X5190058Y2580006D01*
X5250039Y2619994D02*
X5240042Y2629990D01*
X5220048D01*
X5210052Y2619994D01*
Y2580006D01*
X5220048Y2570010D01*
X5240042D01*
X5250039Y2580006D01*
X5270032Y2600000D02*
X5310019D01*
X5330013Y2629990D02*
Y2570010D01*
X5360003D01*
X5370000Y2580006D01*
Y2590003D01*
X5360003Y2600000D01*
X5330013D01*
X5360003D01*
X5370000Y2609997D01*
Y2619994D01*
X5360003Y2629990D01*
X5330013D01*
X5190058Y2529990D02*
X5170065D01*
X5180061D01*
Y2480006D01*
X5170065Y2470010D01*
X5160068D01*
X5150071Y2480006D01*
X5210052Y2529990D02*
X5250039D01*
X5230045D01*
Y2470010D01*
X5270032D02*
Y2509997D01*
X5290026Y2529990D01*
X5310019Y2509997D01*
Y2470010D01*
Y2500000D01*
X5270032D01*
X5370000Y2519994D02*
X5360003Y2529990D01*
X5340010D01*
X5330013Y2519994D01*
Y2480006D01*
X5340010Y2470010D01*
X5360003D01*
X5370000Y2480006D01*
Y2500000D01*
X5350006D01*
X5684987Y7549990D02*
X5664993D01*
X5674990D01*
Y7500007D01*
X5664993Y7490010D01*
X5654997D01*
X5645000Y7500007D01*
X5704981Y7549990D02*
X5744968D01*
X5724974D01*
Y7490010D01*
X5764961D02*
Y7529997D01*
X5784955Y7549990D01*
X5804948Y7529997D01*
Y7490010D01*
Y7520000D01*
X5764961D01*
X5864929Y7539993D02*
X5854932Y7549990D01*
X5834939D01*
X5824942Y7539993D01*
Y7500007D01*
X5834939Y7490010D01*
X5854932D01*
X5864929Y7500007D01*
Y7520000D01*
X5844935D01*
X5645000Y7649990D02*
Y7590010D01*
Y7620000D01*
X5684987D01*
Y7649990D01*
Y7590010D01*
X5704981D02*
Y7649990D01*
X5734971D01*
X5744968Y7639993D01*
Y7620000D01*
X5734971Y7610003D01*
X5704981D01*
X5804948Y7639993D02*
X5794952Y7649990D01*
X5774958D01*
X5764961Y7639993D01*
Y7600007D01*
X5774958Y7590010D01*
X5794952D01*
X5804948Y7600007D01*
X5864929Y7639993D02*
X5854932Y7649990D01*
X5834939D01*
X5824942Y7639993D01*
Y7600007D01*
X5834939Y7590010D01*
X5854932D01*
X5864929Y7600007D01*
X5884922Y7620000D02*
X5924909D01*
X5944903Y7649990D02*
Y7590010D01*
X5974893D01*
X5984890Y7600007D01*
Y7610003D01*
X5974893Y7620000D01*
X5944903D01*
X5974893D01*
X5984890Y7629997D01*
Y7639993D01*
X5974893Y7649990D01*
X5944903D01*
X4944987Y7549990D02*
X4924993D01*
X4934990D01*
Y7500007D01*
X4924993Y7490010D01*
X4914997D01*
X4905000Y7500007D01*
X4964981Y7549990D02*
X5004968D01*
X4984974D01*
Y7490010D01*
X5024961D02*
Y7529997D01*
X5044955Y7549990D01*
X5064948Y7529997D01*
Y7490010D01*
Y7520000D01*
X5024961D01*
X5124929Y7539993D02*
X5114932Y7549990D01*
X5094939D01*
X5084942Y7539993D01*
Y7500007D01*
X5094939Y7490010D01*
X5114932D01*
X5124929Y7500007D01*
Y7520000D01*
X5104935D01*
X4944987Y7649990D02*
X4905000D01*
Y7620000D01*
X4924993D01*
X4905000D01*
Y7590010D01*
X4964981D02*
Y7649990D01*
X4994971D01*
X5004968Y7639993D01*
Y7620000D01*
X4994971Y7610003D01*
X4964981D01*
X5064948Y7639993D02*
X5054952Y7649990D01*
X5034958D01*
X5024961Y7639993D01*
Y7600007D01*
X5034958Y7590010D01*
X5054952D01*
X5064948Y7600007D01*
Y7620000D01*
X5044955D01*
X5084942Y7590010D02*
Y7629997D01*
X5104935Y7649990D01*
X5124929Y7629997D01*
Y7590010D01*
Y7620000D01*
X5084942D01*
X4219990Y7390000D02*
X4160010D01*
Y7419990D01*
X4170006Y7429987D01*
X4190000D01*
X4199997Y7419990D01*
Y7390000D01*
Y7409993D02*
X4219990Y7429987D01*
X4160010Y7489968D02*
Y7449980D01*
X4219990D01*
Y7489968D01*
X4190000Y7449980D02*
Y7469974D01*
X4170006Y7549948D02*
X4160010Y7539951D01*
Y7519958D01*
X4170006Y7509961D01*
X4180003D01*
X4190000Y7519958D01*
Y7539951D01*
X4199997Y7549948D01*
X4209993D01*
X4219990Y7539951D01*
Y7519958D01*
X4209993Y7509961D01*
X4160010Y7609929D02*
Y7569942D01*
X4219990D01*
Y7609929D01*
X4190000Y7569942D02*
Y7589935D01*
X4160010Y7629922D02*
Y7669909D01*
Y7649916D01*
X4219990D01*
X3460010Y7410036D02*
X3519990D01*
Y7440026D01*
X3509994Y7450023D01*
X3499997D01*
X3490000Y7440026D01*
Y7410036D01*
Y7440026D01*
X3480003Y7450023D01*
X3470006D01*
X3460010Y7440026D01*
Y7410036D01*
Y7500007D02*
Y7480013D01*
X3470006Y7470016D01*
X3509994D01*
X3519990Y7480013D01*
Y7500007D01*
X3509994Y7510003D01*
X3470006D01*
X3460010Y7500007D01*
Y7559987D02*
Y7539994D01*
X3470006Y7529997D01*
X3509994D01*
X3519990Y7539994D01*
Y7559987D01*
X3509994Y7569984D01*
X3470006D01*
X3460010Y7559987D01*
Y7589977D02*
Y7629965D01*
Y7609971D01*
X3519990D01*
X4780036Y6840010D02*
Y6899990D01*
X4810026D01*
X4820023Y6889993D01*
Y6870000D01*
X4810026Y6860003D01*
X4780036D01*
X4840016Y6840010D02*
Y6899990D01*
X4870007D01*
X4880003Y6889993D01*
Y6870000D01*
X4870007Y6860003D01*
X4840016D01*
X4860010D02*
X4880003Y6840010D01*
X4929987Y6899990D02*
X4909994D01*
X4899997Y6889993D01*
Y6850007D01*
X4909994Y6840010D01*
X4929987D01*
X4939984Y6850007D01*
Y6889993D01*
X4929987Y6899990D01*
X4999965Y6889993D02*
X4989968Y6899990D01*
X4969974D01*
X4959977Y6889993D01*
Y6850007D01*
X4969974Y6840010D01*
X4989968D01*
X4999965Y6850007D01*
Y6870000D01*
X4979971D01*
X4785034Y6940010D02*
Y6999990D01*
X4815024D01*
X4825021Y6989993D01*
Y6970000D01*
X4815024Y6960003D01*
X4785034D01*
X4845015Y6940010D02*
Y6999990D01*
X4865008Y6979997D01*
X4885002Y6999990D01*
Y6940010D01*
X4904995Y6999990D02*
X4924989D01*
X4914992D01*
Y6940010D01*
X4904995D01*
X4924989D01*
X4994966Y6989993D02*
X4984969Y6999990D01*
X4964976D01*
X4954979Y6989993D01*
Y6950007D01*
X4964976Y6940010D01*
X4984969D01*
X4994966Y6950007D01*
D15*
X3599011Y6910000D02*
X3598624Y6919976D01*
X3597465Y6929893D01*
X3595541Y6939690D01*
X3592863Y6949308D01*
X3589448Y6958690D01*
X3585317Y6967779D01*
X3580494Y6976520D01*
X3575008Y6984861D01*
X3568891Y6992753D01*
X3562182Y7000146D01*
X3554920Y7006998D01*
X3547149Y7013266D01*
X3538916Y7018913D01*
X3530269Y7023904D01*
X3521262Y7028211D01*
X3511948Y7031807D01*
X3502384Y7034671D01*
X3492626Y7036784D01*
X3482734Y7038136D01*
X3472767Y7038716D01*
X3462785Y7038522D01*
X3452848Y7037556D01*
X3443016Y7035822D01*
X3433347Y7033332D01*
X3423901Y7030100D01*
X3414734Y7026145D01*
X3405901Y7021492D01*
X3397454Y7016169D01*
X3389446Y7010207D01*
X3381924Y7003642D01*
X3374933Y6996515D01*
X3368515Y6988866D01*
X3362710Y6980744D01*
X3357551Y6972196D01*
X3353070Y6963274D01*
X3349294Y6954032D01*
X3346246Y6944525D01*
X3343944Y6934810D01*
X3342401Y6924946D01*
X3341627Y6914992D01*
Y6905008D01*
X3342401Y6895054D01*
X3343944Y6885190D01*
X3346246Y6875475D01*
X3349294Y6865968D01*
X3353070Y6856726D01*
X3357551Y6847804D01*
X3362710Y6839256D01*
X3368515Y6831134D01*
X3374933Y6823486D01*
X3381924Y6816358D01*
X3389446Y6809793D01*
X3397454Y6803831D01*
X3405900Y6798508D01*
X3414734Y6793855D01*
X3423901Y6789900D01*
X3433347Y6786668D01*
X3443016Y6784178D01*
X3452848Y6782444D01*
X3462785Y6781478D01*
X3472767Y6781284D01*
X3482734Y6781864D01*
X3492626Y6783216D01*
X3502384Y6785329D01*
X3511948Y6788193D01*
X3521262Y6791789D01*
X3530269Y6796096D01*
X3538916Y6801088D01*
X3547149Y6806735D01*
X3554920Y6813003D01*
X3562182Y6819854D01*
X3568892Y6827248D01*
X3575008Y6835139D01*
X3580494Y6843480D01*
X3585317Y6852222D01*
X3589449Y6861311D01*
X3592863Y6870693D01*
X3595541Y6880311D01*
X3597465Y6890108D01*
X3598624Y6900024D01*
X3599011Y6910000D01*
X2747953Y6750000D02*
X2747566Y6759976D01*
X2746407Y6769893D01*
X2744483Y6779690D01*
X2741805Y6789308D01*
X2738390Y6798690D01*
X2734259Y6807779D01*
X2729436Y6816520D01*
X2723950Y6824861D01*
X2717833Y6832753D01*
X2711124Y6840146D01*
X2703862Y6846998D01*
X2696091Y6853266D01*
X2687858Y6858913D01*
X2679211Y6863904D01*
X2670204Y6868211D01*
X2660890Y6871807D01*
X2651326Y6874671D01*
X2641568Y6876784D01*
X2631676Y6878136D01*
X2621709Y6878716D01*
X2611727Y6878522D01*
X2601790Y6877556D01*
X2591958Y6875822D01*
X2582289Y6873332D01*
X2572843Y6870100D01*
X2563676Y6866145D01*
X2554843Y6861492D01*
X2546396Y6856169D01*
X2538388Y6850207D01*
X2530866Y6843642D01*
X2523875Y6836515D01*
X2517457Y6828866D01*
X2511652Y6820744D01*
X2506493Y6812196D01*
X2502012Y6803274D01*
X2498236Y6794032D01*
X2495188Y6784525D01*
X2492886Y6774810D01*
X2491343Y6764946D01*
X2490569Y6754992D01*
Y6745008D01*
X2491343Y6735054D01*
X2492886Y6725190D01*
X2495188Y6715475D01*
X2498236Y6705968D01*
X2502012Y6696726D01*
X2506493Y6687804D01*
X2511652Y6679256D01*
X2517457Y6671134D01*
X2523875Y6663486D01*
X2530866Y6656358D01*
X2538388Y6649793D01*
X2546396Y6643831D01*
X2554842Y6638508D01*
X2563676Y6633855D01*
X2572843Y6629900D01*
X2582289Y6626668D01*
X2591958Y6624178D01*
X2601790Y6622444D01*
X2611727Y6621478D01*
X2621709Y6621284D01*
X2631676Y6621864D01*
X2641568Y6623216D01*
X2651326Y6625329D01*
X2660890Y6628193D01*
X2670204Y6631789D01*
X2679211Y6636096D01*
X2687858Y6641088D01*
X2696091Y6646735D01*
X2703862Y6653003D01*
X2711124Y6659854D01*
X2717834Y6667248D01*
X2723950Y6675139D01*
X2729436Y6683480D01*
X2734259Y6692222D01*
X2738391Y6701311D01*
X2741805Y6710693D01*
X2744483Y6720311D01*
X2746407Y6730108D01*
X2747566Y6740024D01*
X2747953Y6750000D01*
X2749528Y6470000D02*
X2749140Y6479976D01*
X2747981Y6489893D01*
X2746057Y6499690D01*
X2743380Y6509308D01*
X2739965Y6518690D01*
X2735834Y6527779D01*
X2731010Y6536520D01*
X2725524Y6544861D01*
X2719408Y6552753D01*
X2712699Y6560146D01*
X2705437Y6566998D01*
X2697666Y6573266D01*
X2689432Y6578913D01*
X2680786Y6583904D01*
X2671779Y6588211D01*
X2662465Y6591807D01*
X2652901Y6594671D01*
X2643143Y6596784D01*
X2633251Y6598136D01*
X2623284Y6598716D01*
X2613302Y6598522D01*
X2603365Y6597556D01*
X2593533Y6595822D01*
X2583864Y6593332D01*
X2574418Y6590100D01*
X2565251Y6586145D01*
X2556417Y6581492D01*
X2547971Y6576169D01*
X2539963Y6570207D01*
X2532441Y6563642D01*
X2525450Y6556515D01*
X2519032Y6548866D01*
X2513227Y6540744D01*
X2508068Y6532196D01*
X2503587Y6523274D01*
X2499811Y6514032D01*
X2496763Y6504525D01*
X2494460Y6494810D01*
X2492918Y6484946D01*
X2492144Y6474992D01*
Y6465008D01*
X2492918Y6455054D01*
X2494460Y6445190D01*
X2496763Y6435475D01*
X2499811Y6425968D01*
X2503587Y6416726D01*
X2508068Y6407804D01*
X2513227Y6399256D01*
X2519032Y6391134D01*
X2525450Y6383486D01*
X2532440Y6376358D01*
X2539963Y6369793D01*
X2547971Y6363831D01*
X2556417Y6358508D01*
X2565251Y6353855D01*
X2574418Y6349900D01*
X2583864Y6346668D01*
X2593532Y6344178D01*
X2603365Y6342444D01*
X2613302Y6341478D01*
X2623284Y6341284D01*
X2633251Y6341864D01*
X2643143Y6343216D01*
X2652901Y6345329D01*
X2662465Y6348193D01*
X2671779Y6351789D01*
X2680786Y6356096D01*
X2689432Y6361088D01*
X2697666Y6366735D01*
X2705437Y6373003D01*
X2712699Y6379854D01*
X2719408Y6387248D01*
X2725524Y6395139D01*
X2731011Y6403480D01*
X2735834Y6412222D01*
X2739965Y6421311D01*
X2743380Y6430693D01*
X2746057Y6440311D01*
X2747981Y6450108D01*
X2749140Y6460024D01*
X2749528Y6470000D01*
X3869362Y6634362D02*
X3889047D01*
X3869362D02*
Y6654047D01*
X4164638Y6634362D02*
Y6654047D01*
X4144953Y6634362D02*
X4164638D01*
Y6909953D02*
Y6929638D01*
X4144953D02*
X4164638D01*
X3869362D02*
X3889047D01*
X6740000Y7850000D02*
Y8080000D01*
X6690000Y8130000D02*
X6740000Y8080000D01*
X6440000Y8130000D02*
X6690000D01*
X6720000Y2100000D02*
X6740000Y2120000D01*
X6380000Y2100000D02*
X6720000D01*
X5160000Y2970000D02*
Y3020000D01*
X4810000Y3370000D02*
X5160000Y3020000D01*
X4740000Y3370000D02*
X4810000D01*
X5090000Y2675000D02*
Y2885000D01*
X4835000Y2815000D02*
X5490000D01*
X4835000Y2675000D02*
Y2885000D01*
Y2675000D02*
X5490000D01*
Y2885000D01*
X4835000D02*
X5490000D01*
X4632000Y6235000D02*
X4642000D01*
X4739626Y6153573D02*
X4745626D01*
X4739634Y6183573D02*
X4745618D01*
X4748000Y6290000D02*
X4758250D01*
X6070000Y5380000D02*
Y5660000D01*
X5690000Y5220000D02*
X5910000D01*
X4600000Y2270000D02*
Y2630000D01*
X2550000Y2630000D02*
X4600000D01*
Y2720000D01*
X2550000Y2270000D02*
X4600000Y2270000D01*
X2550000D02*
Y2720000D01*
Y2720000D02*
X4600000Y2720000D01*
X4060000Y3020000D02*
X4280000Y2840000D01*
X3580000D02*
Y3020000D01*
X2880000Y2840000D02*
X3100000Y3020000D01*
X3940000Y2270000D02*
Y2720000D01*
X3220000Y2270000D02*
Y2720000D01*
X4675000Y3175000D02*
X4750000Y3125000D01*
X4625000Y3175000D02*
X4650000Y3125000D01*
X4550000D02*
X4575000Y3175000D01*
X4450000Y3125000D02*
X4525000Y3175000D01*
X4750000Y3110000D02*
Y3125000D01*
X4650000Y3110000D02*
Y3125000D01*
X4550000Y3110000D02*
Y3125000D01*
X4450000Y3110000D02*
Y3125000D01*
X4625000Y3175000D02*
Y3185000D01*
X4675000Y3175000D02*
Y3185000D01*
X4575000Y3175000D02*
Y3185000D01*
X4525000Y3175000D02*
Y3185000D01*
X2940000Y5350000D02*
Y5420000D01*
X2950000Y5410000D01*
X2930000D02*
X2940000Y5420000D01*
Y5080000D02*
Y5150000D01*
Y5080000D02*
X2950000Y5090000D01*
X2930000D02*
X2940000Y5080000D01*
X5600000Y5395000D02*
X5625000Y5420000D01*
X5600000Y5350000D02*
Y5395000D01*
X3850000Y6450000D02*
X3870000Y6470000D01*
X4595462Y6104833D02*
X4601447D01*
X4595454Y6134833D02*
X4601454D01*
X4726088Y5945620D02*
X4737157D01*
X4726088Y5985777D02*
X4737157D01*
X4622806Y5985778D02*
X4633875D01*
X4622806Y5945620D02*
X4633875D01*
X4694820Y6199709D02*
Y6210779D01*
X4654663Y6199709D02*
Y6210779D01*
X4684095Y6272071D02*
X4695164D01*
X4684095Y6312228D02*
X4695164D01*
X4739566Y6483478D02*
X4745566D01*
X4739574Y6513478D02*
X4745559D01*
X4654486Y6529615D02*
Y6540684D01*
X4694643Y6529615D02*
Y6540684D01*
X4595890Y6477431D02*
X4601874D01*
X4595882Y6507431D02*
X4601882D01*
X4595890Y6434739D02*
X4601874D01*
X4595882Y6464739D02*
X4601882D01*
X4629630Y6343150D02*
Y6349150D01*
X4599630Y6343158D02*
Y6349142D01*
X4461983Y6490999D02*
X4467983D01*
X4461990Y6520999D02*
X4467975D01*
X4420996Y6529993D02*
Y6541063D01*
X4380839Y6529993D02*
Y6541063D01*
X4595462Y6147244D02*
X4601447D01*
X4595454Y6177244D02*
X4601454D01*
X4555118Y6220866D02*
Y6260236D01*
X4479365Y6217866D02*
Y6223866D01*
X4449365Y6217874D02*
Y6223858D01*
X4433753Y6292707D02*
X4439753D01*
X4433761Y6322707D02*
X4439745D01*
X4359540Y6323455D02*
X4365540D01*
X4359548Y6293455D02*
X4365532D01*
X4315462Y6441308D02*
X4321447D01*
X4315454Y6471308D02*
X4321454D01*
X4315462Y6484000D02*
X4321447D01*
X4315454Y6514000D02*
X4321454D01*
X5680000Y5345000D02*
X5690000Y5335000D01*
X5725000D01*
X3982234Y3841560D02*
Y3852629D01*
X4022392Y3841560D02*
Y3852629D01*
X4157608Y3841560D02*
Y3852629D01*
X4197766Y3841560D02*
Y3852629D01*
X4241004Y3722276D02*
Y3728276D01*
X4211004Y3722284D02*
Y3728268D01*
X4198593Y3722276D02*
Y3728276D01*
X4168593Y3722284D02*
Y3728268D01*
X4164734Y3585390D02*
Y3591390D01*
X4194734Y3585398D02*
Y3591382D01*
X4207146Y3585390D02*
Y3591390D01*
X4237146Y3585398D02*
Y3591382D01*
X4197510Y3515919D02*
X4205510D01*
X4197510Y3545919D02*
X4205510D01*
X4124510Y3544890D02*
Y3552890D01*
X4094510Y3544890D02*
Y3552890D01*
X3720000Y3710000D02*
X3810000Y3770000D01*
Y3840000D01*
X4011407Y3722276D02*
Y3728276D01*
X3981407Y3722284D02*
Y3728268D01*
X3968996Y3722276D02*
Y3728276D01*
X3938996Y3722284D02*
Y3728268D01*
X3845631Y3755473D02*
X3851615D01*
X3845623Y3725473D02*
X3851623D01*
X3850000Y3649567D02*
X3889370D01*
X3671412Y3707825D02*
Y3713809D01*
X3701412Y3707817D02*
Y3713817D01*
X3629000Y3707825D02*
Y3713809D01*
X3659000Y3707817D02*
Y3713817D01*
X3707146Y3592024D02*
Y3598008D01*
X3677146Y3592016D02*
Y3598016D01*
X3664734Y3592024D02*
Y3598008D01*
X3634734Y3592016D02*
Y3598016D01*
X3666000Y3552545D02*
X3674000D01*
X3666000Y3522545D02*
X3674000D01*
X3555000Y3550801D02*
Y3558801D01*
X3585000Y3550801D02*
Y3558801D01*
X3510000Y3550801D02*
Y3558801D01*
X3540000Y3550801D02*
Y3558801D01*
X3461249Y3707825D02*
Y3713809D01*
X3491249Y3707817D02*
Y3713817D01*
X3418838Y3707825D02*
Y3713809D01*
X3448838Y3707817D02*
Y3713817D01*
X3510787Y3822268D02*
Y3869512D01*
X3556063Y3908882D02*
X3563937D01*
X3609213Y3822268D02*
Y3869512D01*
X3556063Y3782898D02*
X3563937D01*
X3645856Y3925472D02*
Y3949095D01*
X3634045Y3937284D02*
X3657667D01*
X3667510Y3933740D02*
X3766329D01*
Y3767992D02*
Y3933740D01*
X3647431Y3767992D02*
Y3915630D01*
X3353671Y3767992D02*
Y3915630D01*
X3472569Y3767992D02*
Y3933740D01*
X3373750D02*
X3472569D01*
X3340285Y3937284D02*
X3363907D01*
X3352096Y3925472D02*
Y3949095D01*
X3091903Y3707817D02*
Y3713817D01*
X3061903Y3707825D02*
Y3713809D01*
X3049492Y3707817D02*
Y3713817D01*
X3019492Y3707825D02*
Y3713809D01*
X3092146Y3585898D02*
Y3591882D01*
X3062146Y3585890D02*
Y3591890D01*
X3019734Y3586890D02*
Y3592890D01*
X3049734Y3586898D02*
Y3592882D01*
X3092146Y3511691D02*
Y3519691D01*
X3062146Y3511691D02*
Y3519691D01*
X3020424Y3511691D02*
Y3519691D01*
X3050424Y3511691D02*
Y3519691D01*
X4421000Y3485000D02*
X4429000D01*
X4421000Y3455000D02*
X4429000D01*
X4421000Y3440000D02*
X4429000D01*
X4421000Y3410000D02*
X4429000D01*
X4421000Y3390000D02*
X4429000D01*
X4421000Y3360000D02*
X4429000D01*
X4421000Y3340000D02*
X4429000D01*
X4421000Y3310000D02*
X4429000D01*
X4477953Y3242047D02*
Y3497953D01*
X4501575D01*
X4698425Y3242047D02*
X4722047D01*
Y3497953D01*
X4698425D02*
X4722047D01*
X4116225Y3268752D02*
Y3276752D01*
X4146225Y3268752D02*
Y3276752D01*
X4075191Y3268201D02*
Y3276201D01*
X4105191Y3268201D02*
Y3276201D01*
X4013508Y3268201D02*
Y3276201D01*
X4043508Y3268201D02*
Y3276201D01*
X3972475Y3268303D02*
Y3276303D01*
X4002475Y3268303D02*
Y3276303D01*
X4003390Y3113189D02*
Y3136811D01*
X4113626Y3113189D02*
Y3136811D01*
X3638717Y3268199D02*
Y3276199D01*
X3668717Y3268199D02*
Y3276199D01*
X3597683Y3268199D02*
Y3276199D01*
X3627683Y3268199D02*
Y3276199D01*
X3536000Y3268199D02*
Y3276199D01*
X3566000Y3268199D02*
Y3276199D01*
X3494966Y3268200D02*
Y3276200D01*
X3524966Y3268200D02*
Y3276200D01*
X3636118Y3113189D02*
Y3136811D01*
X3525882Y3113189D02*
Y3136811D01*
X3183659Y3268753D02*
Y3276753D01*
X3153659Y3268753D02*
Y3276753D01*
X3141920Y3268753D02*
Y3276753D01*
X3111920Y3268753D02*
Y3276753D01*
X3083044Y3268754D02*
Y3276754D01*
X3053044Y3268754D02*
Y3276754D01*
X3042011Y3268753D02*
Y3276753D01*
X3012011Y3268753D02*
Y3276753D01*
X3153777Y3113190D02*
Y3136812D01*
X3043541Y3113190D02*
Y3136812D01*
X2949492Y3552801D02*
Y3560801D01*
X2979492Y3552801D02*
Y3560801D01*
X2870262Y3707817D02*
Y3713817D01*
X2840262Y3707825D02*
Y3713809D01*
X2827850Y3707817D02*
Y3713817D01*
X2797850Y3707825D02*
Y3713809D01*
X2941063Y3782898D02*
X2948937D01*
X2994212Y3822268D02*
Y3869512D01*
X2941063Y3908882D02*
X2948937D01*
X2895787Y3822268D02*
Y3869512D01*
X3032478Y3767992D02*
Y3915630D01*
X3151376Y3767992D02*
Y3933740D01*
X3052557D02*
X3151376D01*
X3019093Y3937284D02*
X3042715D01*
X3030904Y3925472D02*
Y3949095D01*
X2738623Y3767992D02*
Y3915630D01*
X2857520Y3767992D02*
Y3933740D01*
X2758702D02*
X2857520D01*
X2725237Y3937284D02*
X2748859D01*
X2737048Y3925472D02*
Y3949095D01*
X2335787Y3822268D02*
Y3869512D01*
X2381063Y3908882D02*
X2388937D01*
X2434213Y3822268D02*
Y3869512D01*
X2381063Y3782898D02*
X2388937D01*
X2263169Y3841355D02*
Y3852424D01*
X2223012Y3841355D02*
Y3852424D01*
X2317392Y3841560D02*
Y3852629D01*
X2277234Y3841560D02*
Y3852629D01*
X2547173Y3841560D02*
Y3852629D01*
X2507015Y3841560D02*
Y3852629D01*
X2492766Y3841560D02*
Y3852629D01*
X2452608Y3841560D02*
Y3852629D01*
X2534200Y3765600D02*
X2549200Y3785600D01*
X2490000Y3680000D02*
X2500000Y3670000D01*
X2540000D01*
X2506188Y3722284D02*
Y3728268D01*
X2536188Y3722276D02*
Y3728276D01*
X2463592Y3722284D02*
Y3728268D01*
X2493592Y3722276D02*
Y3728276D01*
X2276408Y3722284D02*
Y3728268D01*
X2306408Y3722276D02*
Y3728276D01*
X2233996Y3722284D02*
Y3728268D01*
X2263996Y3722276D02*
Y3728276D01*
X2646084Y3750270D02*
X2652068D01*
X2646076Y3720270D02*
X2652076D01*
X2650000Y3644567D02*
X2689370D01*
X2532630Y3589898D02*
Y3595882D01*
X2502630Y3589890D02*
Y3595890D01*
X2490218Y3589898D02*
Y3595882D01*
X2460218Y3589890D02*
Y3595890D01*
X2501941Y3516615D02*
Y3524615D01*
X2531941Y3516615D02*
Y3524615D01*
X2489529Y3516615D02*
Y3524615D01*
X2459529Y3516615D02*
Y3524615D01*
X2361218Y3556269D02*
X2369218D01*
X2361218Y3586269D02*
X2369218D01*
X2361218Y3545236D02*
X2369218D01*
X2361218Y3515236D02*
X2369218D01*
X4290000Y6899671D02*
Y6907671D01*
X4260000Y6899671D02*
Y6907671D01*
X4207994Y6757630D02*
X4213979D01*
X4207986Y6727630D02*
X4213986D01*
X4207994Y6899362D02*
X4213979D01*
X4207986Y6869362D02*
X4213986D01*
X4115278Y6972994D02*
Y6978979D01*
X4145278Y6972986D02*
Y6978986D01*
X4102866Y6972986D02*
Y6978986D01*
X4072866Y6972994D02*
Y6978979D01*
X4030454Y6972994D02*
Y6978979D01*
X4060454Y6972986D02*
Y6978986D01*
X4018043Y6972986D02*
Y6978986D01*
X3988043Y6972994D02*
Y6978979D01*
X3810092Y6899362D02*
X3816092D01*
X3810100Y6869362D02*
X3816084D01*
X3702000Y6874595D02*
X3710000D01*
X3702000Y6844595D02*
X3710000D01*
X3810100Y6727630D02*
X3816084D01*
X3810092Y6757630D02*
X3816092D01*
X3702000Y6678000D02*
X3710000D01*
X3702000Y6708000D02*
X3710000D01*
X3702000Y6636758D02*
X3710000D01*
X3702000Y6666758D02*
X3710000D01*
X3702000Y6595484D02*
X3710000D01*
X3702000Y6625484D02*
X3710000D01*
X4039412Y6585014D02*
Y6591014D01*
X4069412Y6585021D02*
Y6591006D01*
X4101860Y6516233D02*
Y6524233D01*
X4131860Y6516233D02*
Y6524233D01*
X4142894Y6516233D02*
Y6524233D01*
X4172894Y6516233D02*
Y6524233D01*
X4183927Y6516233D02*
Y6524233D01*
X4213927Y6516233D02*
Y6524233D01*
X4027000Y6585021D02*
Y6591006D01*
X3997000Y6585014D02*
Y6591014D01*
X3575000Y6460000D02*
X3735000Y6515000D01*
X3945306Y6516000D02*
Y6524000D01*
X3915306Y6516000D02*
Y6524000D01*
X3908110Y6445000D02*
X3914095D01*
X3908102Y6475000D02*
X3914102D01*
X3904272Y6516000D02*
Y6524000D01*
X3874272Y6516000D02*
Y6524000D01*
X3863239Y6516233D02*
Y6524233D01*
X3833239Y6516233D02*
Y6524233D01*
X3822205Y6516233D02*
Y6524233D01*
X3792205Y6516233D02*
Y6524233D01*
X3781000Y6516233D02*
Y6524233D01*
X3751000Y6516233D02*
Y6524233D01*
X5036000Y7352067D02*
X5044000D01*
X5036000Y7322067D02*
X5044000D01*
X5036000Y7281034D02*
X5044000D01*
X5036000Y7311034D02*
X5044000D01*
X5036000Y7270000D02*
X5044000D01*
X5036000Y7240000D02*
X5044000D01*
X5196000Y6995000D02*
X5204000D01*
X5196000Y7025000D02*
X5204000D01*
X5181992Y6908937D02*
Y6964055D01*
X5584005Y7583232D02*
Y7591232D01*
X5614005Y7583232D02*
Y7591232D01*
X5614005Y7435662D02*
Y7443662D01*
X5584005Y7435662D02*
Y7443662D01*
X4689408Y7583232D02*
Y7591232D01*
X4719408Y7583232D02*
Y7591232D01*
X4387008Y7596520D02*
X4392992D01*
X4387000Y7566520D02*
X4393000D01*
X4308110D02*
X4314095D01*
X4308102Y7596520D02*
X4314102D01*
X4386000Y7079662D02*
X4394000D01*
X4386000Y7049662D02*
X4394000D01*
X4594606Y7422717D02*
X4626102Y7374882D01*
X4594606Y7222323D02*
X4626102Y7270158D01*
X4594606Y7422717D02*
Y7552048D01*
X4594606Y7222323D02*
X4594606Y7092992D01*
X4626102Y7270158D02*
Y7374882D01*
X4263898Y7270158D02*
Y7374882D01*
X4295394Y7422717D01*
X4263898Y7270158D02*
X4295394Y7222323D01*
Y7422717D02*
Y7552048D01*
Y7092992D02*
Y7222323D01*
Y7552048D02*
X4594606D01*
X4295394Y7092992D02*
X4594606D01*
X3745000Y7291000D02*
Y7299000D01*
X3775000Y7291000D02*
Y7299000D01*
X3945303Y7660795D02*
X4043729D01*
X3945303Y7385204D02*
X4043729D01*
X4102784Y7660795D02*
X4122469D01*
Y7385204D02*
Y7660795D01*
X4102784Y7385204D02*
X4122469D01*
X3866563D02*
Y7641110D01*
Y7385204D02*
X3886248D01*
X3789137Y7660795D02*
X3808822D01*
Y7404890D02*
Y7660795D01*
X3552917D02*
X3572602D01*
X3552917Y7385205D02*
Y7660795D01*
Y7385205D02*
X3572602D01*
X3631657Y7660795D02*
X3730082D01*
X3631657Y7385205D02*
X3730082D01*
X3304641Y7269219D02*
Y7275219D01*
X3274641Y7269227D02*
Y7275211D01*
X3262918Y7268219D02*
Y7276219D01*
X3232918Y7268219D02*
Y7276219D01*
X3341181Y7080945D02*
X3349055D01*
Y7116378D01*
X3341181Y7199055D02*
X3349055D01*
Y7163622D02*
Y7199055D01*
X3230945Y7080945D02*
X3238819D01*
X3230945D02*
Y7116378D01*
Y7163622D02*
Y7199055D01*
X3238819D01*
X3395685Y7172413D02*
Y7178397D01*
X3365685Y7172405D02*
Y7178405D01*
Y7097714D02*
Y7103698D01*
X3395685Y7097706D02*
Y7103706D01*
X3470271Y6890315D02*
X3480113Y6900158D01*
X3539168Y6801732D02*
X3578538Y6841102D01*
X3480113Y6782047D02*
X3598223Y6900158D01*
X3470271Y6811575D02*
X3529326Y6870630D01*
X3470271Y6850945D02*
X3489956Y6870630D01*
X3558853Y6900158D02*
X3595271Y6936575D01*
X3558853Y6939528D02*
X3585428Y6966102D01*
X3529326Y6949370D02*
X3569680Y6989724D01*
X3470271Y7008425D02*
X3497338Y7035492D01*
X3470271Y6969055D02*
X3526373Y7025158D01*
X3470271Y6929685D02*
X3549011Y7008425D01*
X3470271Y6782047D02*
Y7037953D01*
X3285685Y7036882D02*
X3293685D01*
X3285685Y7006882D02*
X3293685D01*
X3215715Y7036882D02*
X3223715D01*
X3215715Y7006882D02*
X3223715D01*
X3169759Y7080896D02*
Y7086896D01*
X3139759Y7080904D02*
Y7086888D01*
X3212641Y7081482D02*
Y7087482D01*
X3182641Y7081489D02*
Y7087474D01*
X3156000Y6765000D02*
X3164000D01*
X3156000Y6795000D02*
X3164000D01*
X2940000Y7430000D02*
X3090000D01*
X2890000Y6430000D02*
Y7380000D01*
X3090000Y6430000D02*
Y7430000D01*
X2890000Y6430000D02*
X3090000D01*
X2815000Y7322000D02*
Y7328000D01*
X2785000Y7322008D02*
Y7327992D01*
X2626000Y6955000D02*
X2634000D01*
X2626000Y6925000D02*
X2634000D01*
X2536551Y6955000D02*
X2544551D01*
X2536551Y6925000D02*
X2544551D01*
X2619213Y6730315D02*
X2629055Y6740158D01*
X2688110Y6641732D02*
X2727480Y6681102D01*
X2629055Y6622047D02*
X2747165Y6740158D01*
X2619213Y6651575D02*
X2678268Y6710630D01*
X2619213Y6690945D02*
X2638898Y6710630D01*
X2707795Y6740158D02*
X2744213Y6776575D01*
X2707795Y6779528D02*
X2734370Y6806102D01*
X2678268Y6789370D02*
X2718622Y6829724D01*
X2619213Y6848425D02*
X2646280Y6875492D01*
X2619213Y6809055D02*
X2675315Y6865158D01*
X2619213Y6769685D02*
X2697953Y6848425D01*
X2619213Y6622047D02*
Y6877953D01*
X2620787Y6342047D02*
Y6597953D01*
Y6489685D02*
X2699528Y6568425D01*
X2620787Y6529055D02*
X2676890Y6585158D01*
X2620787Y6568425D02*
X2647854Y6595492D01*
X2679843Y6509370D02*
X2720197Y6549724D01*
X2709370Y6499528D02*
X2735945Y6526102D01*
X2709370Y6460158D02*
X2745787Y6496575D01*
X2620787Y6410945D02*
X2640472Y6430630D01*
X2620787Y6371575D02*
X2679843Y6430630D01*
X2630630Y6342047D02*
X2748740Y6460158D01*
X2689685Y6361732D02*
X2729055Y6401102D01*
X2620787Y6450315D02*
X2630630Y6460158D01*
X4214272Y5901339D02*
X4241831D01*
X4214272Y5818661D02*
X4241831D01*
X4158396Y5799465D02*
Y5810535D01*
X4118238Y5799465D02*
Y5810535D01*
X4100000Y5821008D02*
Y5826992D01*
X4070000Y5821000D02*
Y5827000D01*
X3904874Y5227591D02*
X3910858D01*
X3904866Y5197591D02*
X3910866D01*
X3904874Y5275002D02*
X3910858D01*
X3904866Y5245002D02*
X3910866D01*
X3713512Y5329465D02*
X3737134D01*
X3709575Y5305842D02*
X3713512Y5309779D01*
X3815874Y5179858D02*
X3839496D01*
Y5203480D01*
X3713512Y5179858D02*
Y5203480D01*
Y5179858D02*
X3737134D01*
X3839496Y5305842D02*
Y5329465D01*
X3815874D02*
X3839496D01*
X3656504Y5250252D02*
Y5256236D01*
X3686504Y5250244D02*
Y5256244D01*
X4214272Y4618661D02*
X4241831D01*
X4214272Y4701339D02*
X4241831D01*
X4158396Y4599465D02*
Y4610535D01*
X4118238Y4599465D02*
Y4610535D01*
X4100000Y4622008D02*
Y4627992D01*
X4070000Y4622000D02*
Y4628000D01*
X4656699Y5628368D02*
X4664699D01*
X4656699Y5658368D02*
X4664699D01*
X2409441Y7295472D02*
X2410425Y6624213D01*
X2055110Y7295472D02*
X2409441D01*
X2055110Y6624213D02*
X2410425D01*
X5613282Y2426000D02*
Y2434000D01*
X5643282Y2426000D02*
Y2434000D01*
X5596718Y2426000D02*
Y2434000D01*
X5566718Y2426000D02*
Y2434000D01*
X6600000Y4711000D02*
Y4719000D01*
X6630000Y4711000D02*
Y4719000D01*
X6641000Y4630000D02*
X6649000D01*
X6641000Y4660000D02*
X6649000D01*
X6641000Y4580000D02*
X6649000D01*
X6641000Y4610000D02*
X6649000D01*
X6630000Y4521000D02*
Y4529000D01*
X6600000Y4521000D02*
Y4529000D01*
X6585000Y4521000D02*
Y4529000D01*
X6555000Y4521000D02*
Y4529000D01*
X6035689Y4711000D02*
Y4719000D01*
X6065689Y4711000D02*
Y4719000D01*
X6209803Y4769606D02*
X6257638Y4801102D01*
X6362362Y4801102D02*
X6410197Y4769606D01*
X6080472Y4769606D02*
X6209803D01*
X6410197Y4769606D02*
X6539528Y4769606D01*
X6257638Y4801102D02*
X6362362D01*
X6257638Y4438898D02*
X6362362D01*
X6209803Y4470394D02*
X6257638Y4438898D01*
X6362362D02*
X6410197Y4470394D01*
X6080472D02*
X6209803D01*
X6410197D02*
X6539528D01*
X6080472D02*
Y4769606D01*
X6539528Y4470394D02*
Y4769606D01*
X5971000Y4705000D02*
X5979000D01*
X5971000Y4675000D02*
X5979000D01*
X5971000Y4660000D02*
X5979000D01*
X5971000Y4630000D02*
X5979000D01*
X6020000Y4561000D02*
Y4569000D01*
X5990000Y4561000D02*
Y4569000D01*
X6065000Y4523110D02*
Y4529095D01*
X6035000Y4523102D02*
Y4529102D01*
X5679051Y4595167D02*
Y4601167D01*
X5649051Y4595175D02*
Y4601159D01*
X7079758Y4937232D02*
Y4972665D01*
Y4937232D02*
X7093537D01*
X7196181Y5062992D02*
X7209961D01*
X7196181Y4937008D02*
X7209961D01*
Y5062992D01*
X7080039D02*
X7093819D01*
X7080039Y5027559D02*
Y5062992D01*
X6785039Y5027559D02*
Y5062992D01*
X6798819D01*
X6914961Y4937008D02*
Y5062992D01*
X6901181Y4937008D02*
X6914961D01*
X6901181Y5062992D02*
X6914961D01*
X6784758Y4937232D02*
X6798537D01*
X6784758D02*
Y4972665D01*
X5989008Y5916197D02*
X6012630D01*
X5989008D02*
Y5939819D01*
X6091370Y6065803D02*
X6114992D01*
Y6042181D02*
Y6065803D01*
X5989008Y6042181D02*
Y6065803D01*
X6012630D01*
X6114992Y5935882D02*
X6118929Y5939819D01*
X6091370Y5916197D02*
X6114992D01*
X6049008Y5904295D02*
X6054992D01*
X6049000Y5874295D02*
X6055000D01*
X6047008Y5853160D02*
X6052992D01*
X6047000Y5823160D02*
X6053000D01*
X6074370Y5741535D02*
Y5753346D01*
X6062559Y5741535D02*
X6074370D01*
X5995630D02*
Y5753346D01*
Y5741535D02*
X6007441D01*
X6062559Y5808465D02*
X6074370D01*
Y5796654D02*
Y5808465D01*
X5971034Y5726000D02*
Y5734000D01*
X5941034Y5726000D02*
Y5734000D01*
X5930000Y5726000D02*
Y5734000D01*
X5900000Y5726000D02*
Y5734000D01*
X6016000Y5647235D02*
X6024000D01*
X6016000Y5677235D02*
X6024000D01*
X6016000Y5606202D02*
X6024000D01*
X6016000Y5636202D02*
X6024000D01*
X6016000Y5565168D02*
X6024000D01*
X6016000Y5595168D02*
X6024000D01*
X6015955Y5524134D02*
X6023955D01*
X6015955Y5554134D02*
X6023955D01*
X6016000Y5483101D02*
X6024000D01*
X6016000Y5513101D02*
X6024000D01*
X6016000Y5442067D02*
X6024000D01*
X6016000Y5472067D02*
X6024000D01*
X6016000Y5401034D02*
X6024000D01*
X6016000Y5431034D02*
X6024000D01*
X6016000Y5360000D02*
X6024000D01*
X6016000Y5390000D02*
X6024000D01*
X5885323Y5390543D02*
Y5408201D01*
X5867665Y5390543D02*
X5885323D01*
Y5546114D02*
Y5563772D01*
X5867665D02*
X5885323D01*
X5712095D02*
X5729752D01*
X5712095Y5546114D02*
Y5563772D01*
Y5390543D02*
Y5408201D01*
Y5390543D02*
X5729752D01*
X5635000Y5561000D02*
Y5569000D01*
X5605000Y5561000D02*
Y5569000D01*
Y5461000D02*
Y5469000D01*
X5635000Y5461000D02*
Y5469000D01*
X5655000Y5462000D02*
Y5468000D01*
X5685000Y5462008D02*
Y5467992D01*
Y5381000D02*
Y5389000D01*
X5655000Y5381000D02*
Y5389000D01*
X5889134Y5265921D02*
Y5273921D01*
X5919134Y5265921D02*
Y5273921D01*
X5848101Y5266000D02*
Y5274000D01*
X5878101Y5266000D02*
Y5274000D01*
X5807067Y5266000D02*
Y5274000D01*
X5837067Y5266000D02*
Y5274000D01*
X5766034Y5266000D02*
Y5274000D01*
X5796034Y5266000D02*
Y5274000D01*
X5725000Y5266000D02*
Y5274000D01*
X5755000Y5266000D02*
Y5274000D01*
X5683966Y5266000D02*
Y5274000D01*
X5713966Y5266000D02*
Y5274000D01*
X4040787Y3822268D02*
Y3869512D01*
X4086063Y3908882D02*
X4093937D01*
X4139213Y3822268D02*
Y3869512D01*
X4086063Y3782898D02*
X4093937D01*
D16*
X2716535Y4271063D02*
X2976378D01*
X2362205D02*
X2622047D01*
X2185039Y5028937D02*
X2444882D01*
X2539370D02*
X2799213D01*
X2893701D02*
X3153543D01*
X3425197Y4271063D02*
X3751968D01*
X3068701D02*
X3330709D01*
X3248032Y5028937D02*
X3574803D01*
X4008465Y4271063D02*
Y4516142D01*
Y4610630D02*
Y4799606D01*
Y4894095D02*
Y5028937D01*
X2043307Y4271063D02*
X2269685D01*
X2043307D02*
Y5028937D01*
X2092716D01*
X3846457Y4271063D02*
X4008465D01*
X3669291Y5028937D02*
X4008465D01*
X2716535Y5471063D02*
X2976378D01*
X2362205D02*
X2622047D01*
X2185039Y6228937D02*
X2444882D01*
X2539370D02*
X2799213D01*
X2893701D02*
X3153543D01*
X3425197Y5471063D02*
X3751968D01*
X3068701D02*
X3330709D01*
X3248032Y6228937D02*
X3574803D01*
X4008465Y5471063D02*
Y5716142D01*
Y5810630D02*
Y5999606D01*
Y6094095D02*
Y6228937D01*
X2043307Y5471063D02*
X2269685D01*
X2043307D02*
Y6228937D01*
X2092716D01*
X3846457Y5471063D02*
X4008465D01*
X3669291Y6228937D02*
X4008465D01*
D17*
X4096881Y5733119D02*
X4123119Y5706881D01*
X4096881D02*
X4123119Y5733119D01*
X4096881Y5720000D02*
X4123119D01*
X4110000Y5706881D02*
Y5733119D01*
X4106881Y6243119D02*
X4133119Y6216881D01*
X4106881D02*
X4133119Y6243119D01*
X4106881Y6230000D02*
X4133119D01*
X4120000Y6216881D02*
Y6243119D01*
X5130906Y2869679D02*
Y2830321D01*
X5150585D01*
X5157144Y2836881D01*
Y2843441D01*
X5150585Y2850000D01*
X5130906D01*
X5150585D01*
X5157144Y2856560D01*
Y2863119D01*
X5150585Y2869679D01*
X5130906D01*
X5189942D02*
X5176823D01*
X5170263Y2863119D01*
Y2836881D01*
X5176823Y2830321D01*
X5189942D01*
X5196502Y2836881D01*
Y2863119D01*
X5189942Y2869679D01*
X5229299D02*
X5216180D01*
X5209621Y2863119D01*
Y2836881D01*
X5216180Y2830321D01*
X5229299D01*
X5235859Y2836881D01*
Y2863119D01*
X5229299Y2869679D01*
X5248978D02*
X5275216D01*
X5262097D01*
Y2830321D01*
X5327693D02*
Y2869679D01*
X5340812Y2856560D01*
X5353931Y2869679D01*
Y2830321D01*
X5386728Y2869679D02*
X5373609D01*
X5367050Y2863119D01*
Y2836881D01*
X5373609Y2830321D01*
X5386728D01*
X5393288Y2836881D01*
Y2863119D01*
X5386728Y2869679D01*
X5406407D02*
Y2830321D01*
X5426086D01*
X5432645Y2836881D01*
Y2863119D01*
X5426086Y2869679D01*
X5406407D01*
X5472003D02*
X5445764D01*
Y2830321D01*
X5472003D01*
X5445764Y2850000D02*
X5458883D01*
X4864025Y2690321D02*
X4850906Y2703441D01*
Y2716560D01*
X4864025Y2729679D01*
X4883704Y2690321D02*
X4896823D01*
X4890263D01*
Y2729679D01*
X4883704Y2723119D01*
X4916501D02*
X4923061Y2729679D01*
X4936180D01*
X4942740Y2723119D01*
Y2696881D01*
X4936180Y2690321D01*
X4923061D01*
X4916501Y2696881D01*
Y2723119D01*
X4955859Y2690321D02*
X4968978D01*
X4962418D01*
Y2729679D01*
X4955859Y2723119D01*
X4988656Y2690321D02*
X5001775Y2703441D01*
Y2716560D01*
X4988656Y2729679D01*
X5130906Y2760321D02*
Y2799679D01*
X5144025Y2786560D01*
X5157144Y2799679D01*
Y2760321D01*
X5196502Y2793119D02*
X5189942Y2799679D01*
X5176823D01*
X5170263Y2793119D01*
Y2786560D01*
X5176823Y2780000D01*
X5189942D01*
X5196502Y2773441D01*
Y2766881D01*
X5189942Y2760321D01*
X5176823D01*
X5170263Y2766881D01*
X5209621Y2799679D02*
X5235859D01*
X5222740D01*
Y2760321D01*
X5248978D02*
Y2799679D01*
X5268657D01*
X5275216Y2793119D01*
Y2780000D01*
X5268657Y2773441D01*
X5248978D01*
X5262097D02*
X5275216Y2760321D01*
X5353931Y2793119D02*
X5347371Y2799679D01*
X5334252D01*
X5327693Y2793119D01*
Y2786560D01*
X5334252Y2780000D01*
X5347371D01*
X5353931Y2773441D01*
Y2766881D01*
X5347371Y2760321D01*
X5334252D01*
X5327693Y2766881D01*
X5367050Y2760321D02*
Y2799679D01*
X5386728D01*
X5393288Y2793119D01*
Y2780000D01*
X5386728Y2773441D01*
X5367050D01*
X5406407Y2799679D02*
X5419526D01*
X5412967D01*
Y2760321D01*
X5406407D01*
X5419526D01*
X4864025D02*
X4850906Y2773441D01*
Y2786560D01*
X4864025Y2799679D01*
X4883704Y2793119D02*
X4890263Y2799679D01*
X4903382D01*
X4909942Y2793119D01*
Y2766881D01*
X4903382Y2760321D01*
X4890263D01*
X4883704Y2766881D01*
Y2793119D01*
X4923061D02*
X4929620Y2799679D01*
X4942740D01*
X4949299Y2793119D01*
Y2766881D01*
X4942740Y2760321D01*
X4929620D01*
X4923061Y2766881D01*
Y2793119D01*
X4962418Y2760321D02*
X4975537D01*
X4968978D01*
Y2799679D01*
X4962418Y2793119D01*
X4995216Y2760321D02*
X5008335Y2773441D01*
Y2786560D01*
X4995216Y2799679D01*
X4850906Y2830321D02*
Y2869679D01*
X4864025Y2856560D01*
X4877144Y2869679D01*
Y2830321D01*
X4903382D02*
X4890263D01*
Y2869679D01*
X4903382D01*
X4949299Y2830321D02*
X4923061D01*
X4949299Y2856560D01*
Y2863119D01*
X4942740Y2869679D01*
X4929620D01*
X4923061Y2863119D01*
X4962418Y2856560D02*
X4968978D01*
Y2850000D01*
X4962418D01*
Y2856560D01*
Y2836881D02*
X4968978D01*
Y2830321D01*
X4962418D01*
Y2836881D01*
X4995216Y2863119D02*
X5001775Y2869679D01*
X5014895D01*
X5021454Y2863119D01*
Y2836881D01*
X5014895Y2830321D01*
X5001775D01*
X4995216Y2836881D01*
Y2863119D01*
X5034573Y2830321D02*
X5047692D01*
Y2869679D01*
X5034573D01*
X5157144Y2729679D02*
X5144025D01*
X5150585D01*
Y2696881D01*
X5144025Y2690321D01*
X5137466D01*
X5130906Y2696881D01*
X5170263Y2729679D02*
X5196502D01*
X5183382D01*
Y2690321D01*
X5209621D02*
Y2716560D01*
X5222740Y2729679D01*
X5235859Y2716560D01*
Y2690321D01*
Y2710000D01*
X5209621D01*
X5275216Y2723119D02*
X5268657Y2729679D01*
X5255537D01*
X5248978Y2723119D01*
Y2696881D01*
X5255537Y2690321D01*
X5268657D01*
X5275216Y2696881D01*
Y2710000D01*
X5262097D01*
X4335047Y2383119D02*
X4328488Y2389679D01*
X4315368D01*
X4308809Y2383119D01*
Y2376560D01*
X4315368Y2370000D01*
X4328488D01*
X4335047Y2363441D01*
Y2356881D01*
X4328488Y2350321D01*
X4315368D01*
X4308809Y2356881D01*
X4348166Y2389679D02*
X4374404D01*
X4361285D01*
Y2350321D01*
X4387524D02*
Y2376560D01*
X4400643Y2389679D01*
X4413762Y2376560D01*
Y2350321D01*
Y2370000D01*
X4387524D01*
X4426881Y2350321D02*
Y2389679D01*
X4446560D01*
X4453119Y2383119D01*
Y2370000D01*
X4446560Y2363441D01*
X4426881D01*
X4440000D02*
X4453119Y2350321D01*
X4466238Y2389679D02*
X4492476D01*
X4479357D01*
Y2350321D01*
X4505596Y2389679D02*
Y2356881D01*
X4512155Y2350321D01*
X4525274D01*
X4531834Y2356881D01*
Y2389679D01*
X4544953Y2350321D02*
Y2389679D01*
X4564631D01*
X4571191Y2383119D01*
Y2370000D01*
X4564631Y2363441D01*
X4544953D01*
X4404083Y2583119D02*
X4397524Y2589679D01*
X4384404D01*
X4377845Y2583119D01*
Y2576560D01*
X4384404Y2570000D01*
X4397524D01*
X4404083Y2563441D01*
Y2556881D01*
X4397524Y2550321D01*
X4384404D01*
X4377845Y2556881D01*
X4417202Y2589679D02*
X4443440D01*
X4430321D01*
Y2550321D01*
X4456560D02*
Y2576560D01*
X4469679Y2589679D01*
X4482798Y2576560D01*
Y2550321D01*
Y2570000D01*
X4456560D01*
X4495917Y2589679D02*
X4522155D01*
X4509036D01*
Y2550321D01*
X4404083Y2513119D02*
X4397524Y2519679D01*
X4384404D01*
X4377845Y2513119D01*
Y2486881D01*
X4384404Y2480321D01*
X4397524D01*
X4404083Y2486881D01*
Y2500000D01*
X4390964D01*
X4436881Y2519679D02*
X4423762D01*
X4417202Y2513119D01*
Y2486881D01*
X4423762Y2480321D01*
X4436881D01*
X4443440Y2486881D01*
Y2513119D01*
X4436881Y2519679D01*
X4476238D02*
X4463119D01*
X4456560Y2513119D01*
Y2486881D01*
X4463119Y2480321D01*
X4476238D01*
X4482798Y2486881D01*
Y2513119D01*
X4476238Y2519679D01*
X4495917D02*
Y2480321D01*
X4515596D01*
X4522155Y2486881D01*
Y2513119D01*
X4515596Y2519679D01*
X4495917D01*
X4071125Y2390321D02*
Y2429679D01*
X4090803D01*
X4097363Y2423119D01*
Y2410000D01*
X4090803Y2403441D01*
X4071125D01*
X4110482Y2390321D02*
Y2429679D01*
X4123601Y2416560D01*
X4136720Y2429679D01*
Y2390321D01*
X4149839Y2429679D02*
X4162958D01*
X4156399D01*
Y2390321D01*
X4149839D01*
X4162958D01*
X4208875Y2423119D02*
X4202316Y2429679D01*
X4189197D01*
X4182637Y2423119D01*
Y2396881D01*
X4189197Y2390321D01*
X4202316D01*
X4208875Y2396881D01*
X4048166Y2320321D02*
Y2346560D01*
X4061285Y2359679D01*
X4074405Y2346560D01*
Y2320321D01*
Y2340000D01*
X4048166D01*
X4087524Y2359679D02*
Y2320321D01*
X4113762D01*
X4126881D02*
Y2346560D01*
X4140000Y2359679D01*
X4153119Y2346560D01*
Y2320321D01*
Y2340000D01*
X4126881D01*
X4166238Y2320321D02*
Y2359679D01*
X4185917D01*
X4192476Y2353119D01*
Y2340000D01*
X4185917Y2333441D01*
X4166238D01*
X4179357D02*
X4192476Y2320321D01*
X4205596D02*
Y2359679D01*
X4218715Y2346560D01*
X4231834Y2359679D01*
Y2320321D01*
X4087524Y2589679D02*
X4074405D01*
X4067845Y2583119D01*
Y2556881D01*
X4074405Y2550321D01*
X4087524D01*
X4094083Y2556881D01*
Y2583119D01*
X4087524Y2589679D01*
X4107202D02*
Y2563441D01*
X4120321Y2550321D01*
X4133440Y2563441D01*
Y2589679D01*
X4172798D02*
X4146560D01*
Y2550321D01*
X4172798D01*
X4146560Y2570000D02*
X4159679D01*
X4185917Y2550321D02*
Y2589679D01*
X4205596D01*
X4212155Y2583119D01*
Y2570000D01*
X4205596Y2563441D01*
X4185917D01*
X4199036D02*
X4212155Y2550321D01*
X4067845Y2519679D02*
X4094083D01*
X4080964D01*
Y2480321D01*
X4133440Y2519679D02*
X4107202D01*
Y2480321D01*
X4133440D01*
X4107202Y2500000D02*
X4120321D01*
X4146560Y2480321D02*
Y2519679D01*
X4159679Y2506560D01*
X4172798Y2519679D01*
Y2480321D01*
X4185917D02*
Y2519679D01*
X4205596D01*
X4212155Y2513119D01*
Y2500000D01*
X4205596Y2493441D01*
X4185917D01*
X3612089Y2350321D02*
Y2389679D01*
X3631767D01*
X3638327Y2383119D01*
Y2370000D01*
X3631767Y2363441D01*
X3612089D01*
X3625208D02*
X3638327Y2350321D01*
X3677684Y2389679D02*
X3651446D01*
Y2350321D01*
X3677684D01*
X3651446Y2370000D02*
X3664565D01*
X3690803Y2350321D02*
Y2376560D01*
X3703923Y2389679D01*
X3717042Y2376560D01*
Y2350321D01*
Y2370000D01*
X3690803D01*
X3730161Y2389679D02*
Y2350321D01*
X3749839D01*
X3756399Y2356881D01*
Y2383119D01*
X3749839Y2389679D01*
X3730161D01*
X3769518D02*
X3782637D01*
X3776077D01*
Y2350321D01*
X3769518D01*
X3782637D01*
X3802316D02*
Y2389679D01*
X3828554Y2350321D01*
Y2389679D01*
X3867911Y2383119D02*
X3861352Y2389679D01*
X3848233D01*
X3841673Y2383119D01*
Y2356881D01*
X3848233Y2350321D01*
X3861352D01*
X3867911Y2356881D01*
Y2370000D01*
X3854792D01*
X3694083Y2513119D02*
X3687524Y2519679D01*
X3674405D01*
X3667845Y2513119D01*
Y2486881D01*
X3674405Y2480321D01*
X3687524D01*
X3694083Y2486881D01*
Y2500000D01*
X3680964D01*
X3726881Y2519679D02*
X3713762D01*
X3707202Y2513119D01*
Y2486881D01*
X3713762Y2480321D01*
X3726881D01*
X3733441Y2486881D01*
Y2513119D01*
X3726881Y2519679D01*
X3766238D02*
X3753119D01*
X3746560Y2513119D01*
Y2486881D01*
X3753119Y2480321D01*
X3766238D01*
X3772798Y2486881D01*
Y2513119D01*
X3766238Y2519679D01*
X3785917D02*
Y2480321D01*
X3805595D01*
X3812155Y2486881D01*
Y2513119D01*
X3805595Y2519679D01*
X3785917D01*
X3667845Y2550321D02*
Y2589679D01*
X3687524D01*
X3694083Y2583119D01*
Y2570000D01*
X3687524Y2563441D01*
X3667845D01*
X3680964D02*
X3694083Y2550321D01*
X3733441Y2589679D02*
X3707202D01*
Y2550321D01*
X3733441D01*
X3707202Y2570000D02*
X3720321D01*
X3746560Y2550321D02*
Y2576560D01*
X3759679Y2589679D01*
X3772798Y2576560D01*
Y2550321D01*
Y2570000D01*
X3746560D01*
X3785917Y2589679D02*
Y2550321D01*
X3805595D01*
X3812155Y2556881D01*
Y2583119D01*
X3805595Y2589679D01*
X3785917D01*
X3344405Y2359679D02*
X3318166D01*
Y2320321D01*
X3344405D01*
X3318166Y2340000D02*
X3331285D01*
X3357524Y2320321D02*
Y2359679D01*
X3377202D01*
X3383762Y2353119D01*
Y2340000D01*
X3377202Y2333441D01*
X3357524D01*
X3370643D02*
X3383762Y2320321D01*
X3396881D02*
Y2359679D01*
X3416559D01*
X3423119Y2353119D01*
Y2340000D01*
X3416559Y2333441D01*
X3396881D01*
X3410000D02*
X3423119Y2320321D01*
X3455917Y2359679D02*
X3442798D01*
X3436238Y2353119D01*
Y2326881D01*
X3442798Y2320321D01*
X3455917D01*
X3462476Y2326881D01*
Y2353119D01*
X3455917Y2359679D01*
X3475595Y2320321D02*
Y2359679D01*
X3495274D01*
X3501834Y2353119D01*
Y2340000D01*
X3495274Y2333441D01*
X3475595D01*
X3488715D02*
X3501834Y2320321D01*
X3383762Y2423119D02*
X3377202Y2429679D01*
X3364083D01*
X3357524Y2423119D01*
Y2396881D01*
X3364083Y2390321D01*
X3377202D01*
X3383762Y2396881D01*
X3396881Y2390321D02*
Y2429679D01*
X3416559D01*
X3423119Y2423119D01*
Y2410000D01*
X3416559Y2403441D01*
X3396881D01*
X3410000D02*
X3423119Y2390321D01*
X3462476Y2423119D02*
X3455917Y2429679D01*
X3442798D01*
X3436238Y2423119D01*
Y2396881D01*
X3442798Y2390321D01*
X3455917D01*
X3462476Y2396881D01*
X3337845Y2550321D02*
Y2589679D01*
X3357524D01*
X3364083Y2583119D01*
Y2570000D01*
X3357524Y2563441D01*
X3337845D01*
X3350964D02*
X3364083Y2550321D01*
X3403441Y2589679D02*
X3377202D01*
Y2550321D01*
X3403441D01*
X3377202Y2570000D02*
X3390321D01*
X3416560Y2550321D02*
Y2576560D01*
X3429679Y2589679D01*
X3442798Y2576560D01*
Y2550321D01*
Y2570000D01*
X3416560D01*
X3455917Y2589679D02*
Y2550321D01*
X3475595D01*
X3482155Y2556881D01*
Y2583119D01*
X3475595Y2589679D01*
X3455917D01*
X3367363Y2519679D02*
X3341125D01*
Y2500000D01*
X3354244D01*
X3341125D01*
Y2480321D01*
X3380482D02*
Y2506560D01*
X3393601Y2519679D01*
X3406720Y2506560D01*
Y2480321D01*
Y2500000D01*
X3380482D01*
X3419839Y2519679D02*
X3432959D01*
X3426399D01*
Y2480321D01*
X3419839D01*
X3432959D01*
X3452637Y2519679D02*
Y2480321D01*
X3478875D01*
X2879130Y2389679D02*
Y2356881D01*
X2885690Y2350321D01*
X2898809D01*
X2905369Y2356881D01*
Y2389679D01*
X2944726Y2383119D02*
X2938166Y2389679D01*
X2925047D01*
X2918488Y2383119D01*
Y2376560D01*
X2925047Y2370000D01*
X2938166D01*
X2944726Y2363441D01*
Y2356881D01*
X2938166Y2350321D01*
X2925047D01*
X2918488Y2356881D01*
X2957845Y2389679D02*
Y2350321D01*
X2977524D01*
X2984083Y2356881D01*
Y2363441D01*
X2977524Y2370000D01*
X2957845D01*
X2977524D01*
X2984083Y2376560D01*
Y2383119D01*
X2977524Y2389679D01*
X2957845D01*
X3062798Y2383119D02*
X3056238Y2389679D01*
X3043119D01*
X3036560Y2383119D01*
Y2356881D01*
X3043119Y2350321D01*
X3056238D01*
X3062798Y2356881D01*
X3095595Y2389679D02*
X3082476D01*
X3075917Y2383119D01*
Y2356881D01*
X3082476Y2350321D01*
X3095595D01*
X3102155Y2356881D01*
Y2383119D01*
X3095595Y2389679D01*
X3115274Y2350321D02*
Y2389679D01*
X3141512Y2350321D01*
Y2389679D01*
X3154631Y2350321D02*
Y2389679D01*
X3180870Y2350321D01*
Y2389679D01*
X2967845Y2589679D02*
Y2550321D01*
X2987524D01*
X2994083Y2556881D01*
Y2563441D01*
X2987524Y2570000D01*
X2967845D01*
X2987524D01*
X2994083Y2576560D01*
Y2583119D01*
X2987524Y2589679D01*
X2967845D01*
X3026881D02*
X3013762D01*
X3007202Y2583119D01*
Y2556881D01*
X3013762Y2550321D01*
X3026881D01*
X3033441Y2556881D01*
Y2583119D01*
X3026881Y2589679D01*
X3066238D02*
X3053119D01*
X3046560Y2583119D01*
Y2556881D01*
X3053119Y2550321D01*
X3066238D01*
X3072798Y2556881D01*
Y2583119D01*
X3066238Y2589679D01*
X3085917D02*
X3112155D01*
X3099036D01*
Y2550321D01*
X2994083Y2513119D02*
X2987524Y2519679D01*
X2974405D01*
X2967845Y2513119D01*
Y2486881D01*
X2974405Y2480321D01*
X2987524D01*
X2994083Y2486881D01*
Y2500000D01*
X2980964D01*
X3026881Y2519679D02*
X3013762D01*
X3007202Y2513119D01*
Y2486881D01*
X3013762Y2480321D01*
X3026881D01*
X3033441Y2486881D01*
Y2513119D01*
X3026881Y2519679D01*
X3066238D02*
X3053119D01*
X3046560Y2513119D01*
Y2486881D01*
X3053119Y2480321D01*
X3066238D01*
X3072798Y2486881D01*
Y2513119D01*
X3066238Y2519679D01*
X3085917D02*
Y2480321D01*
X3105595D01*
X3112155Y2486881D01*
Y2513119D01*
X3105595Y2519679D01*
X3085917D01*
X2677363Y2359679D02*
X2651125D01*
Y2340000D01*
X2664244D01*
X2651125D01*
Y2320321D01*
X2690482D02*
Y2346560D01*
X2703601Y2359679D01*
X2716720Y2346560D01*
Y2320321D01*
Y2340000D01*
X2690482D01*
X2729839Y2359679D02*
X2742959D01*
X2736399D01*
Y2320321D01*
X2729839D01*
X2742959D01*
X2762637Y2359679D02*
Y2320321D01*
X2788875D01*
X2647845Y2429679D02*
Y2390321D01*
X2667524D01*
X2674083Y2396881D01*
Y2403441D01*
X2667524Y2410000D01*
X2647845D01*
X2667524D01*
X2674083Y2416560D01*
Y2423119D01*
X2667524Y2429679D01*
X2647845D01*
X2706881D02*
X2693762D01*
X2687202Y2423119D01*
Y2396881D01*
X2693762Y2390321D01*
X2706881D01*
X2713441Y2396881D01*
Y2423119D01*
X2706881Y2429679D01*
X2746238D02*
X2733119D01*
X2726560Y2423119D01*
Y2396881D01*
X2733119Y2390321D01*
X2746238D01*
X2752798Y2396881D01*
Y2423119D01*
X2746238Y2429679D01*
X2765917D02*
X2792155D01*
X2779036D01*
Y2390321D01*
X2592089Y2569679D02*
Y2530321D01*
X2611767D01*
X2618327Y2536881D01*
Y2543441D01*
X2611767Y2550000D01*
X2592089D01*
X2611767D01*
X2618327Y2556560D01*
Y2563119D01*
X2611767Y2569679D01*
X2592089D01*
X2651125D02*
X2638006D01*
X2631446Y2563119D01*
Y2536881D01*
X2638006Y2530321D01*
X2651125D01*
X2657684Y2536881D01*
Y2563119D01*
X2651125Y2569679D01*
X2690482D02*
X2677363D01*
X2670803Y2563119D01*
Y2536881D01*
X2677363Y2530321D01*
X2690482D01*
X2697042Y2536881D01*
Y2563119D01*
X2690482Y2569679D01*
X2710161D02*
X2736399D01*
X2723280D01*
Y2530321D01*
X2749518Y2569679D02*
X2762637D01*
X2756077D01*
Y2530321D01*
X2749518D01*
X2762637D01*
X2782316D02*
Y2569679D01*
X2808554Y2530321D01*
Y2569679D01*
X2847911Y2563119D02*
X2841352Y2569679D01*
X2828233D01*
X2821673Y2563119D01*
Y2536881D01*
X2828233Y2530321D01*
X2841352D01*
X2847911Y2536881D01*
Y2550000D01*
X2834792D01*
X2346986Y2399679D02*
Y2360321D01*
X2366665D01*
X2373224Y2366881D01*
Y2373441D01*
X2366665Y2380000D01*
X2346986D01*
X2366665D01*
X2373224Y2386560D01*
Y2393119D01*
X2366665Y2399679D01*
X2346986D01*
X2386343D02*
Y2360321D01*
X2412582D01*
X2425701Y2399679D02*
X2438820D01*
X2432260D01*
Y2360321D01*
X2425701D01*
X2438820D01*
X2458499D02*
Y2399679D01*
X2484737Y2360321D01*
Y2399679D01*
X2497856D02*
Y2360321D01*
Y2373441D01*
X2524094Y2399679D01*
X2504415Y2380000D01*
X2524094Y2360321D01*
X2373224Y2573119D02*
X2366665Y2579679D01*
X2353546D01*
X2346986Y2573119D01*
Y2566560D01*
X2353546Y2560000D01*
X2366665D01*
X2373224Y2553441D01*
Y2546881D01*
X2366665Y2540321D01*
X2353546D01*
X2346986Y2546881D01*
X2406022Y2579679D02*
X2392903D01*
X2386343Y2573119D01*
Y2546881D01*
X2392903Y2540321D01*
X2406022D01*
X2412582Y2546881D01*
Y2573119D01*
X2406022Y2579679D01*
X2425701D02*
Y2540321D01*
X2451939D01*
X2465058Y2579679D02*
X2478177D01*
X2471618D01*
Y2540321D01*
X2465058D01*
X2478177D01*
X2497856Y2579679D02*
Y2540321D01*
X2517534D01*
X2524094Y2546881D01*
Y2573119D01*
X2517534Y2579679D01*
X2497856D01*
X2974405Y2688119D02*
X2967845Y2694679D01*
X2954726D01*
X2948166Y2688119D01*
Y2661881D01*
X2954726Y2655321D01*
X2967845D01*
X2974405Y2661881D01*
Y2675000D01*
X2961285D01*
X2987524Y2655321D02*
Y2694679D01*
X3007202D01*
X3013762Y2688119D01*
Y2675000D01*
X3007202Y2668441D01*
X2987524D01*
X3000643D02*
X3013762Y2655321D01*
X3053119Y2694679D02*
X3026881D01*
Y2655321D01*
X3053119D01*
X3026881Y2675000D02*
X3040000D01*
X3092476Y2694679D02*
X3066238D01*
Y2655321D01*
X3092476D01*
X3066238Y2675000D02*
X3079357D01*
X3105595Y2655321D02*
Y2694679D01*
X3131834Y2655321D01*
Y2694679D01*
X2628166D02*
X2615047D01*
X2608488Y2688119D01*
Y2661881D01*
X2615047Y2655321D01*
X2628166D01*
X2634726Y2661881D01*
Y2688119D01*
X2628166Y2694679D01*
X2647845Y2655321D02*
Y2694679D01*
X2667524D01*
X2674083Y2688119D01*
Y2675000D01*
X2667524Y2668441D01*
X2647845D01*
X2660964D02*
X2674083Y2655321D01*
X2687202D02*
Y2681560D01*
X2700321Y2694679D01*
X2713441Y2681560D01*
Y2655321D01*
Y2675000D01*
X2687202D01*
X2726560Y2655321D02*
Y2694679D01*
X2752798Y2655321D01*
Y2694679D01*
X2792155Y2688119D02*
X2785595Y2694679D01*
X2772476D01*
X2765917Y2688119D01*
Y2661881D01*
X2772476Y2655321D01*
X2785595D01*
X2792155Y2661881D01*
Y2675000D01*
X2779036D01*
X2831512Y2694679D02*
X2805274D01*
Y2655321D01*
X2831512D01*
X2805274Y2675000D02*
X2818393D01*
X4394404Y2688119D02*
X4387845Y2694679D01*
X4374726D01*
X4368166Y2688119D01*
Y2661881D01*
X4374726Y2655321D01*
X4387845D01*
X4394404Y2661881D01*
Y2675000D01*
X4381285D01*
X4407524Y2655321D02*
Y2694679D01*
X4427202D01*
X4433762Y2688119D01*
Y2675000D01*
X4427202Y2668441D01*
X4407524D01*
X4420643D02*
X4433762Y2655321D01*
X4473119Y2694679D02*
X4446881D01*
Y2655321D01*
X4473119D01*
X4446881Y2675000D02*
X4460000D01*
X4512476Y2694679D02*
X4486238D01*
Y2655321D01*
X4512476D01*
X4486238Y2675000D02*
X4499357D01*
X4525596Y2655321D02*
Y2694679D01*
X4551834Y2655321D01*
Y2694679D01*
X4048166D02*
X4035047D01*
X4028488Y2688119D01*
Y2661881D01*
X4035047Y2655321D01*
X4048166D01*
X4054726Y2661881D01*
Y2688119D01*
X4048166Y2694679D01*
X4067845Y2655321D02*
Y2694679D01*
X4087524D01*
X4094083Y2688119D01*
Y2675000D01*
X4087524Y2668441D01*
X4067845D01*
X4080964D02*
X4094083Y2655321D01*
X4107202D02*
Y2681560D01*
X4120321Y2694679D01*
X4133440Y2681560D01*
Y2655321D01*
Y2675000D01*
X4107202D01*
X4146560Y2655321D02*
Y2694679D01*
X4172798Y2655321D01*
Y2694679D01*
X4212155Y2688119D02*
X4205596Y2694679D01*
X4192476D01*
X4185917Y2688119D01*
Y2661881D01*
X4192476Y2655321D01*
X4205596D01*
X4212155Y2661881D01*
Y2675000D01*
X4199036D01*
X4251512Y2694679D02*
X4225274D01*
Y2655321D01*
X4251512D01*
X4225274Y2675000D02*
X4238393D01*
X3328166Y2694679D02*
X3315047D01*
X3308488Y2688119D01*
Y2661881D01*
X3315047Y2655321D01*
X3328166D01*
X3334726Y2661881D01*
Y2688119D01*
X3328166Y2694679D01*
X3347845Y2655321D02*
Y2694679D01*
X3367524D01*
X3374083Y2688119D01*
Y2675000D01*
X3367524Y2668441D01*
X3347845D01*
X3360964D02*
X3374083Y2655321D01*
X3387202D02*
Y2681560D01*
X3400321Y2694679D01*
X3413441Y2681560D01*
Y2655321D01*
Y2675000D01*
X3387202D01*
X3426560Y2655321D02*
Y2694679D01*
X3452798Y2655321D01*
Y2694679D01*
X3492155Y2688119D02*
X3485595Y2694679D01*
X3472476D01*
X3465917Y2688119D01*
Y2661881D01*
X3472476Y2655321D01*
X3485595D01*
X3492155Y2661881D01*
Y2675000D01*
X3479036D01*
X3531512Y2694679D02*
X3505274D01*
Y2655321D01*
X3531512D01*
X3505274Y2675000D02*
X3518393D01*
X3674405Y2688119D02*
X3667845Y2694679D01*
X3654726D01*
X3648166Y2688119D01*
Y2661881D01*
X3654726Y2655321D01*
X3667845D01*
X3674405Y2661881D01*
Y2675000D01*
X3661285D01*
X3687524Y2655321D02*
Y2694679D01*
X3707202D01*
X3713762Y2688119D01*
Y2675000D01*
X3707202Y2668441D01*
X3687524D01*
X3700643D02*
X3713762Y2655321D01*
X3753119Y2694679D02*
X3726881D01*
Y2655321D01*
X3753119D01*
X3726881Y2675000D02*
X3740000D01*
X3792476Y2694679D02*
X3766238D01*
Y2655321D01*
X3792476D01*
X3766238Y2675000D02*
X3779357D01*
X3805595Y2655321D02*
Y2694679D01*
X3831834Y2655321D01*
Y2694679D01*
X4835906Y2944679D02*
X4849025D01*
X4842466D01*
Y2905321D01*
X4835906D01*
X4849025D01*
X4868704D02*
Y2944679D01*
X4894942Y2905321D01*
Y2944679D01*
X4908061D02*
X4921180D01*
X4914620D01*
Y2905321D01*
X4908061D01*
X4921180D01*
X4940859Y2944679D02*
X4967097D01*
X4953978D01*
Y2905321D01*
X5039252Y2944679D02*
X5026133D01*
X5019573Y2938119D01*
Y2911881D01*
X5026133Y2905321D01*
X5039252D01*
X5045811Y2911881D01*
Y2938119D01*
X5039252Y2944679D01*
X5085169D02*
X5058931D01*
Y2925000D01*
X5072050D01*
X5058931D01*
Y2905321D01*
X5124526Y2944679D02*
X5098288D01*
Y2925000D01*
X5111407D01*
X5098288D01*
Y2905321D01*
X5203241Y2938119D02*
X5196681Y2944679D01*
X5183562D01*
X5177002Y2938119D01*
Y2931560D01*
X5183562Y2925000D01*
X5196681D01*
X5203241Y2918441D01*
Y2911881D01*
X5196681Y2905321D01*
X5183562D01*
X5177002Y2911881D01*
X5216360Y2944679D02*
X5242598D01*
X5229479D01*
Y2905321D01*
X5275396Y2944679D02*
X5262277D01*
X5255717Y2938119D01*
Y2911881D01*
X5262277Y2905321D01*
X5275396D01*
X5281955Y2911881D01*
Y2938119D01*
X5275396Y2944679D01*
X5295074Y2905321D02*
Y2944679D01*
X5314753D01*
X5321313Y2938119D01*
Y2925000D01*
X5314753Y2918441D01*
X5295074D01*
X5360670Y2938119D02*
X5354110Y2944679D01*
X5340991D01*
X5334432Y2938119D01*
Y2931560D01*
X5340991Y2925000D01*
X5354110D01*
X5360670Y2918441D01*
Y2911881D01*
X5354110Y2905321D01*
X5340991D01*
X5334432Y2911881D01*
X5413146Y2944679D02*
Y2905321D01*
X5432825D01*
X5439385Y2911881D01*
Y2918441D01*
X5432825Y2925000D01*
X5413146D01*
X5432825D01*
X5439385Y2931560D01*
Y2938119D01*
X5432825Y2944679D01*
X5413146D01*
X5472182D02*
X5459063D01*
X5452504Y2938119D01*
Y2911881D01*
X5459063Y2905321D01*
X5472182D01*
X5478742Y2911881D01*
Y2938119D01*
X5472182Y2944679D01*
X5511539D02*
X5498420D01*
X5491861Y2938119D01*
Y2911881D01*
X5498420Y2905321D01*
X5511539D01*
X5518099Y2911881D01*
Y2938119D01*
X5511539Y2944679D01*
X5531218D02*
X5557456D01*
X5544337D01*
Y2905321D01*
D18*
X6773407Y7989987D02*
Y7910013D01*
Y7950000D01*
X6826723D01*
Y7989987D01*
Y7910013D01*
X6853381D02*
Y7989987D01*
X6893368D01*
X6906697Y7976658D01*
Y7950000D01*
X6893368Y7936671D01*
X6853381D01*
X6986671Y7976658D02*
X6973342Y7989987D01*
X6946684D01*
X6933355Y7976658D01*
Y7923342D01*
X6946684Y7910013D01*
X6973342D01*
X6986671Y7923342D01*
X7066645Y7976658D02*
X7053316Y7989987D01*
X7026658D01*
X7013329Y7976658D01*
Y7923342D01*
X7026658Y7910013D01*
X7053316D01*
X7066645Y7923342D01*
X7093303Y7950000D02*
X7146619D01*
X7173277Y7989987D02*
Y7910013D01*
X7213264D01*
X7226593Y7923342D01*
Y7936671D01*
X7213264Y7950000D01*
X7173277D01*
X7213264D01*
X7226593Y7963329D01*
Y7976658D01*
X7213264Y7989987D01*
X7173277D01*
X6763407Y2089987D02*
Y2010013D01*
Y2050000D01*
X6816723D01*
Y2089987D01*
Y2010013D01*
X6843381D02*
Y2089987D01*
X6883368D01*
X6896697Y2076658D01*
Y2050000D01*
X6883368Y2036671D01*
X6843381D01*
X6976671Y2076658D02*
X6963342Y2089987D01*
X6936684D01*
X6923355Y2076658D01*
Y2023342D01*
X6936684Y2010013D01*
X6963342D01*
X6976671Y2023342D01*
X7056645Y2076658D02*
X7043316Y2089987D01*
X7016658D01*
X7003329Y2076658D01*
Y2023342D01*
X7016658Y2010013D01*
X7043316D01*
X7056645Y2023342D01*
X7083303Y2050000D02*
X7136619D01*
X7163277Y2010013D02*
Y2063329D01*
X7189935Y2089987D01*
X7216593Y2063329D01*
Y2010013D01*
Y2050000D01*
X7163277D01*
D19*
X6114338Y8180321D02*
Y8219679D01*
X6140577Y8180321D01*
Y8219679D01*
X6173374D02*
X6160255D01*
X6153696Y8213119D01*
Y8186881D01*
X6160255Y8180321D01*
X6173374D01*
X6179934Y8186881D01*
Y8213119D01*
X6173374Y8219679D01*
X6193053D02*
X6219291D01*
X6206172D01*
Y8180321D01*
X6298006Y8213119D02*
X6291446Y8219679D01*
X6278327D01*
X6271767Y8213119D01*
Y8186881D01*
X6278327Y8180321D01*
X6291446D01*
X6298006Y8186881D01*
X6330803Y8219679D02*
X6317684D01*
X6311125Y8213119D01*
Y8186881D01*
X6317684Y8180321D01*
X6330803D01*
X6337363Y8186881D01*
Y8213119D01*
X6330803Y8219679D01*
X6350482Y8180321D02*
Y8219679D01*
X6363601Y8206560D01*
X6376720Y8219679D01*
Y8180321D01*
X6389839D02*
Y8219679D01*
X6409518D01*
X6416078Y8213119D01*
Y8200000D01*
X6409518Y8193441D01*
X6389839D01*
X6429197Y8180321D02*
Y8206560D01*
X6442316Y8219679D01*
X6455435Y8206560D01*
Y8180321D01*
Y8200000D01*
X6429197D01*
X6468554Y8219679D02*
X6494792D01*
X6481673D01*
Y8180321D01*
X6507911Y8219679D02*
X6521030D01*
X6514471D01*
Y8180321D01*
X6507911D01*
X6521030D01*
X6540709Y8219679D02*
Y8180321D01*
X6560388D01*
X6566947Y8186881D01*
Y8193441D01*
X6560388Y8200000D01*
X6540709D01*
X6560388D01*
X6566947Y8206560D01*
Y8213119D01*
X6560388Y8219679D01*
X6540709D01*
X6580066D02*
Y8180321D01*
X6606305D01*
X6645662Y8219679D02*
X6619424D01*
Y8180321D01*
X6645662D01*
X6619424Y8200000D02*
X6632543D01*
X6114338Y8149679D02*
Y8110321D01*
X6127457Y8123440D01*
X6140577Y8110321D01*
Y8149679D01*
X6153696D02*
X6166815D01*
X6160255D01*
Y8110321D01*
X6153696D01*
X6166815D01*
X6186493Y8149679D02*
X6212731D01*
X6199612D01*
Y8110321D01*
X6225851Y8149679D02*
Y8110321D01*
Y8130000D01*
X6252089D01*
Y8149679D01*
Y8110321D01*
X6330803Y8149679D02*
X6304565D01*
Y8130000D01*
X6317684D01*
X6304565D01*
Y8110321D01*
X6343922D02*
Y8149679D01*
X6357042Y8136560D01*
X6370161Y8149679D01*
Y8110321D01*
X6409518Y8143119D02*
X6402958Y8149679D01*
X6389839D01*
X6383280Y8143119D01*
Y8116881D01*
X6389839Y8110321D01*
X6402958D01*
X6409518Y8116881D01*
X6064338Y2119679D02*
Y2080321D01*
X6077457Y2093441D01*
X6090577Y2080321D01*
Y2119679D01*
X6103696D02*
X6116815D01*
X6110255D01*
Y2080321D01*
X6103696D01*
X6116815D01*
X6136493Y2119679D02*
X6162731D01*
X6149612D01*
Y2080321D01*
X6175851Y2119679D02*
Y2080321D01*
Y2100000D01*
X6202089D01*
Y2119679D01*
Y2080321D01*
X6280803Y2119679D02*
X6254565D01*
Y2100000D01*
X6267684D01*
X6254565D01*
Y2080321D01*
X6293922D02*
Y2119679D01*
X6307042Y2106560D01*
X6320161Y2119679D01*
Y2080321D01*
X6359518Y2113119D02*
X6352958Y2119679D01*
X6339839D01*
X6333280Y2113119D01*
Y2086881D01*
X6339839Y2080321D01*
X6352958D01*
X6359518Y2086881D01*
X6064338Y2150321D02*
Y2189679D01*
X6090577Y2150321D01*
Y2189679D01*
X6123374D02*
X6110255D01*
X6103696Y2183119D01*
Y2156881D01*
X6110255Y2150321D01*
X6123374D01*
X6129934Y2156881D01*
Y2183119D01*
X6123374Y2189679D01*
X6143053D02*
X6169291D01*
X6156172D01*
Y2150321D01*
X6248006Y2183119D02*
X6241446Y2189679D01*
X6228327D01*
X6221767Y2183119D01*
Y2156881D01*
X6228327Y2150321D01*
X6241446D01*
X6248006Y2156881D01*
X6280803Y2189679D02*
X6267684D01*
X6261125Y2183119D01*
Y2156881D01*
X6267684Y2150321D01*
X6280803D01*
X6287363Y2156881D01*
Y2183119D01*
X6280803Y2189679D01*
X6300482Y2150321D02*
Y2189679D01*
X6313601Y2176560D01*
X6326720Y2189679D01*
Y2150321D01*
X6339839D02*
Y2189679D01*
X6359518D01*
X6366078Y2183119D01*
Y2170000D01*
X6359518Y2163441D01*
X6339839D01*
X6379197Y2150321D02*
Y2176560D01*
X6392316Y2189679D01*
X6405435Y2176560D01*
Y2150321D01*
Y2170000D01*
X6379197D01*
X6418554Y2189679D02*
X6444792D01*
X6431673D01*
Y2150321D01*
X6457911Y2189679D02*
X6471030D01*
X6464471D01*
Y2150321D01*
X6457911D01*
X6471030D01*
X6490709Y2189679D02*
Y2150321D01*
X6510388D01*
X6516947Y2156881D01*
Y2163441D01*
X6510388Y2170000D01*
X6490709D01*
X6510388D01*
X6516947Y2176560D01*
Y2183119D01*
X6510388Y2189679D01*
X6490709D01*
X6530066D02*
Y2150321D01*
X6556305D01*
X6595662Y2189679D02*
X6569424D01*
Y2150321D01*
X6595662D01*
X6569424Y2170000D02*
X6582543D01*
D20*
X6960006Y4803368D02*
Y4776710D01*
X6999993D01*
Y4803368D01*
X6980000Y4776710D02*
Y4790039D01*
X6960006Y4816697D02*
X6999993Y4843355D01*
X6960006D02*
X6999993Y4816697D01*
X6960006Y4856684D02*
Y4883342D01*
Y4870013D01*
X6999993D01*
X6966671Y4963316D02*
X6960006Y4956652D01*
Y4943323D01*
X6966671Y4936658D01*
X6993329D01*
X6999993Y4943323D01*
Y4956652D01*
X6993329Y4963316D01*
X6960006Y4976645D02*
X6999993D01*
Y5003303D01*
X6960006Y5016632D02*
X6999993D01*
X6986664D01*
X6960006Y5043290D01*
X6980000Y5023297D01*
X6999993Y5043290D01*
X7250006Y4803400D02*
Y4776742D01*
X7289993D01*
Y4803400D01*
X7270000Y4776742D02*
Y4790071D01*
X7250006Y4816729D02*
X7289993Y4843387D01*
X7250006D02*
X7289993Y4816729D01*
X7250006Y4856716D02*
Y4883374D01*
Y4870045D01*
X7289993D01*
X7256671Y4963348D02*
X7250006Y4956684D01*
Y4943355D01*
X7256671Y4936690D01*
X7283329D01*
X7289993Y4943355D01*
Y4956684D01*
X7283329Y4963348D01*
X7250006Y4996671D02*
Y4983342D01*
X7256671Y4976677D01*
X7283329D01*
X7289993Y4983342D01*
Y4996671D01*
X7283329Y5003336D01*
X7256671D01*
X7250006Y4996671D01*
X7289993Y5016665D02*
X7250006D01*
X7289993Y5043323D01*
X7250006D01*
Y5083310D02*
Y5056652D01*
X7270000D01*
Y5069981D01*
Y5056652D01*
X7289993D01*
X7256671Y5163284D02*
X7250006Y5156619D01*
Y5143290D01*
X7256671Y5136626D01*
X7283329D01*
X7289993Y5143290D01*
Y5156619D01*
X7283329Y5163284D01*
X7250006Y5176613D02*
X7289993D01*
Y5203271D01*
X7250006Y5216600D02*
X7289993D01*
X7276664D01*
X7250006Y5243258D01*
X7270000Y5223265D01*
X7289993Y5243258D01*
D21*
X5955000Y5183352D02*
X5927170Y5211182D01*
X5941085Y5225097D01*
X5950362D01*
X5959638Y5215820D01*
Y5206544D01*
X5945723Y5192629D01*
X5955000Y5201905D02*
X5973553D01*
X5996745Y5225097D02*
X5968915Y5252927D01*
Y5225097D01*
X5987468Y5243650D01*
Y5262203D02*
X5987468Y5271480D01*
X5996745Y5280757D01*
X6006021D01*
X6024575Y5262203D01*
X6024574Y5252927D01*
X6015298Y5243650D01*
X6006021D01*
X5987468Y5262203D01*
X6024575Y5280757D02*
X6043128Y5299310D01*
X6057043Y5341055D02*
X6038489Y5322501D01*
X6052404Y5308586D01*
X6057043Y5322501D01*
X6061681Y5327140D01*
X6070958D01*
X6080234Y5317863D01*
X6080234Y5308586D01*
X6070958Y5299310D01*
X6061681D01*
X6070958Y5345693D02*
X6070958Y5354969D01*
X6080234Y5364246D01*
X6089511D01*
X6094149Y5359608D01*
Y5350331D01*
X6089511Y5345693D01*
X6094149Y5350331D01*
X6103426Y5350331D01*
X6108064Y5345693D01*
X6108064Y5336416D01*
X6098787Y5327140D01*
X6089511D01*
D22*
X5725905Y4524679D02*
Y4491881D01*
X5732465Y4485321D01*
X5745584D01*
X5752144Y4491881D01*
Y4524679D01*
X5765263Y4485321D02*
X5778382D01*
X5771822D01*
Y4524679D01*
X5765263Y4518119D01*
X5798061Y4491881D02*
X5804620Y4485321D01*
X5817739D01*
X5824299Y4491881D01*
Y4518119D01*
X5817739Y4524679D01*
X5804620D01*
X5798061Y4518119D01*
Y4511560D01*
X5804620Y4505000D01*
X5824299D01*
X3975905Y6429679D02*
X4002144Y6390321D01*
Y6429679D02*
X3975905Y6390321D01*
X4015263D02*
X4028382D01*
X4021822D01*
Y6429679D01*
X4015263Y6423119D01*
X6124095Y6090321D02*
Y6123119D01*
X6117535Y6129678D01*
X6104416D01*
X6097856Y6123119D01*
Y6090321D01*
X6084737Y6129678D02*
X6071618D01*
X6078178D01*
Y6090321D01*
X6084737Y6096881D01*
X6051939D02*
X6045380Y6090321D01*
X6032261D01*
X6025701Y6096881D01*
Y6103440D01*
X6032261Y6110000D01*
X6025701Y6116559D01*
Y6123119D01*
X6032261Y6129678D01*
X6045380D01*
X6051939Y6123119D01*
Y6116559D01*
X6045380Y6110000D01*
X6051939Y6103440D01*
Y6096881D01*
X6045380Y6110000D02*
X6032261D01*
X3735905Y5389679D02*
Y5356881D01*
X3742465Y5350321D01*
X3755584D01*
X3762144Y5356881D01*
Y5389679D01*
X3775263Y5350321D02*
X3788382D01*
X3781822D01*
Y5389679D01*
X3775263Y5383119D01*
X3808061Y5389679D02*
X3834299D01*
Y5383119D01*
X3808061Y5356881D01*
Y5350321D01*
X4685905Y5594679D02*
Y5561881D01*
X4692465Y5555321D01*
X4705584D01*
X4712144Y5561881D01*
Y5594679D01*
X4725263Y5555321D02*
X4738382D01*
X4731822D01*
Y5594679D01*
X4725263Y5588119D01*
X4784299Y5594679D02*
X4771180Y5588119D01*
X4758061Y5575000D01*
Y5561881D01*
X4764620Y5555321D01*
X4777739D01*
X4784299Y5561881D01*
Y5568440D01*
X4777739Y5575000D01*
X4758061D01*
X4765321Y6020905D02*
X4798119D01*
X4804679Y6027465D01*
Y6040584D01*
X4798119Y6047144D01*
X4765321D01*
X4804679Y6060263D02*
Y6073382D01*
Y6066822D01*
X4765321D01*
X4771881Y6060263D01*
X4765321Y6119299D02*
Y6093060D01*
X4785000D01*
X4778440Y6106180D01*
Y6112739D01*
X4785000Y6119299D01*
X4798119D01*
X4804679Y6112739D01*
Y6099620D01*
X4798119Y6093060D01*
X4245905Y6399679D02*
Y6366881D01*
X4252465Y6360321D01*
X4265584D01*
X4272144Y6366881D01*
Y6399679D01*
X4285263Y6360321D02*
X4298382D01*
X4291822D01*
Y6399679D01*
X4285263Y6393119D01*
X4337739Y6360321D02*
Y6399679D01*
X4318061Y6380000D01*
X4344299D01*
X4783321Y6400905D02*
X4816119D01*
X4822679Y6407465D01*
Y6420584D01*
X4816119Y6427144D01*
X4783321D01*
X4822679Y6440263D02*
Y6453382D01*
Y6446822D01*
X4783321D01*
X4789881Y6440263D01*
Y6473060D02*
X4783321Y6479620D01*
Y6492739D01*
X4789881Y6499299D01*
X4796440D01*
X4803000Y6492739D01*
Y6486180D01*
Y6492739D01*
X4809560Y6499299D01*
X4816119D01*
X4822679Y6492739D01*
Y6479620D01*
X4816119Y6473060D01*
X3355905Y7269679D02*
Y7236881D01*
X3362465Y7230321D01*
X3375584D01*
X3382144Y7236881D01*
Y7269679D01*
X3395263Y7230321D02*
X3408382D01*
X3401822D01*
Y7269679D01*
X3395263Y7263119D01*
X3454299Y7230321D02*
X3428061D01*
X3454299Y7256560D01*
Y7263119D01*
X3447739Y7269679D01*
X3434620D01*
X3428061Y7263119D01*
X4165905Y3679679D02*
Y3646881D01*
X4172465Y3640321D01*
X4185584D01*
X4192144Y3646881D01*
Y3679679D01*
X4205263Y3640321D02*
X4218382D01*
X4211822D01*
Y3679679D01*
X4205263Y3673119D01*
X4238061Y3640321D02*
X4251180D01*
X4244620D01*
Y3679679D01*
X4238061Y3673119D01*
X2215905Y3659679D02*
Y3626881D01*
X2222465Y3620321D01*
X2235584D01*
X2242144Y3626881D01*
Y3659679D01*
X2255263Y3620321D02*
X2268382D01*
X2261822D01*
Y3659679D01*
X2255263Y3653119D01*
X2288061D02*
X2294620Y3659679D01*
X2307739D01*
X2314299Y3653119D01*
Y3626881D01*
X2307739Y3620321D01*
X2294620D01*
X2288061Y3626881D01*
Y3653119D01*
X3020905Y3669679D02*
Y3636881D01*
X3027465Y3630321D01*
X3040584D01*
X3047144Y3636881D01*
Y3669679D01*
X3060263Y3636881D02*
X3066822Y3630321D01*
X3079941D01*
X3086501Y3636881D01*
Y3663119D01*
X3079941Y3669679D01*
X3066822D01*
X3060263Y3663119D01*
Y3656559D01*
X3066822Y3650000D01*
X3086501D01*
X3415905Y3649679D02*
Y3616881D01*
X3422465Y3610321D01*
X3435584D01*
X3442144Y3616881D01*
Y3649679D01*
X3455263Y3643119D02*
X3461822Y3649679D01*
X3474941D01*
X3481501Y3643119D01*
Y3636559D01*
X3474941Y3630000D01*
X3481501Y3623440D01*
Y3616881D01*
X3474941Y3610321D01*
X3461822D01*
X3455263Y3616881D01*
Y3623440D01*
X3461822Y3630000D01*
X3455263Y3636559D01*
Y3643119D01*
X3461822Y3630000D02*
X3474941D01*
X3840321Y3565905D02*
X3873119D01*
X3879679Y3572465D01*
Y3585584D01*
X3873119Y3592144D01*
X3840321D01*
Y3605263D02*
Y3631501D01*
X3846881D01*
X3873119Y3605263D01*
X3879679D01*
X2630321Y3555905D02*
X2663119D01*
X2669679Y3562465D01*
Y3575584D01*
X2663119Y3582144D01*
X2630321D01*
Y3621501D02*
X2636881Y3608382D01*
X2650000Y3595263D01*
X2663119D01*
X2669679Y3601822D01*
Y3614941D01*
X2663119Y3621501D01*
X2656559D01*
X2650000Y3614941D01*
Y3595263D01*
X4485905Y6159679D02*
Y6126881D01*
X4492465Y6120321D01*
X4505584D01*
X4512144Y6126881D01*
Y6159679D01*
X4551501D02*
X4525263D01*
Y6140000D01*
X4538382Y6146560D01*
X4544941D01*
X4551501Y6140000D01*
Y6126881D01*
X4544941Y6120321D01*
X4531822D01*
X4525263Y6126881D01*
X5905905Y5809679D02*
Y5776881D01*
X5912465Y5770321D01*
X5925584D01*
X5932144Y5776881D01*
Y5809679D01*
X5964941Y5770321D02*
Y5809679D01*
X5945263Y5790000D01*
X5971501D01*
X5784095Y5600321D02*
Y5633119D01*
X5777535Y5639678D01*
X5764416D01*
X5757856Y5633119D01*
Y5600321D01*
X5744737Y5606881D02*
X5738178Y5600321D01*
X5725059D01*
X5718499Y5606881D01*
Y5613440D01*
X5725059Y5620000D01*
X5731618D01*
X5725059D01*
X5718499Y5626559D01*
Y5633119D01*
X5725059Y5639678D01*
X5738178D01*
X5744737Y5633119D01*
X5239679Y6934095D02*
X5206881D01*
X5200321Y6927535D01*
Y6914416D01*
X5206881Y6907856D01*
X5239679D01*
X5200321Y6868499D02*
Y6894737D01*
X5226560Y6868499D01*
X5233119D01*
X5239679Y6875058D01*
Y6888177D01*
X5233119Y6894737D01*
X3885905Y6989679D02*
Y6956881D01*
X3892465Y6950321D01*
X3905584D01*
X3912144Y6956881D01*
Y6989679D01*
X3925263Y6950321D02*
X3938382D01*
X3931822D01*
Y6989679D01*
X3925263Y6983119D01*
X4562144Y3603119D02*
X4555584Y3609679D01*
X4542465D01*
X4535905Y3603119D01*
Y3596559D01*
X4542465Y3590000D01*
X4555584D01*
X4562144Y3583440D01*
Y3576881D01*
X4555584Y3570321D01*
X4542465D01*
X4535905Y3576881D01*
X4575263Y3609679D02*
Y3570321D01*
X4588382Y3583440D01*
X4601501Y3570321D01*
Y3609679D01*
X4614620Y3603119D02*
X4621180Y3609679D01*
X4634299D01*
X4640858Y3603119D01*
Y3596559D01*
X4634299Y3590000D01*
X4627739D01*
X4634299D01*
X4640858Y3583440D01*
Y3576881D01*
X4634299Y3570321D01*
X4621180D01*
X4614620Y3576881D01*
X3967144Y7733119D02*
X3960584Y7739679D01*
X3947465D01*
X3940905Y7733119D01*
Y7726560D01*
X3947465Y7720000D01*
X3960584D01*
X3967144Y7713440D01*
Y7706881D01*
X3960584Y7700321D01*
X3947465D01*
X3940905Y7706881D01*
X3980263Y7739679D02*
Y7700321D01*
X3993382Y7713440D01*
X4006501Y7700321D01*
Y7739679D01*
X4045858Y7700321D02*
X4019620D01*
X4045858Y7726560D01*
Y7733119D01*
X4039299Y7739679D01*
X4026180D01*
X4019620Y7733119D01*
X3662144D02*
X3655584Y7739679D01*
X3642465D01*
X3635905Y7733119D01*
Y7726560D01*
X3642465Y7720000D01*
X3655584D01*
X3662144Y7713440D01*
Y7706881D01*
X3655584Y7700321D01*
X3642465D01*
X3635905Y7706881D01*
X3675263Y7739679D02*
Y7700321D01*
X3688382Y7713440D01*
X3701501Y7700321D01*
Y7739679D01*
X3714620Y7700321D02*
X3727739D01*
X3721180D01*
Y7739679D01*
X3714620Y7733119D01*
X4245905Y3470321D02*
Y3509679D01*
X4265584D01*
X4272144Y3503119D01*
Y3490000D01*
X4265584Y3483440D01*
X4245905D01*
X4259025D02*
X4272144Y3470321D01*
X4285263D02*
X4298382D01*
X4291822D01*
Y3509679D01*
X4285263Y3503119D01*
X4318061D02*
X4324620Y3509679D01*
X4337739D01*
X4344299Y3503119D01*
Y3496559D01*
X4337739Y3490000D01*
X4331180D01*
X4337739D01*
X4344299Y3483440D01*
Y3476881D01*
X4337739Y3470321D01*
X4324620D01*
X4318061Y3476881D01*
X4357418D02*
X4363978Y3470321D01*
X4377097D01*
X4383656Y3476881D01*
Y3503119D01*
X4377097Y3509679D01*
X4363978D01*
X4357418Y3503119D01*
Y3496559D01*
X4363978Y3490000D01*
X4383656D01*
X4245905Y3290321D02*
Y3329679D01*
X4265584D01*
X4272144Y3323119D01*
Y3310000D01*
X4265584Y3303440D01*
X4245905D01*
X4259025D02*
X4272144Y3290321D01*
X4285263D02*
X4298382D01*
X4291822D01*
Y3329679D01*
X4285263Y3323119D01*
X4318061D02*
X4324620Y3329679D01*
X4337739D01*
X4344299Y3323119D01*
Y3316559D01*
X4337739Y3310000D01*
X4331180D01*
X4337739D01*
X4344299Y3303440D01*
Y3296881D01*
X4337739Y3290321D01*
X4324620D01*
X4318061Y3296881D01*
X4357418Y3323119D02*
X4363978Y3329679D01*
X4377097D01*
X4383656Y3323119D01*
Y3316559D01*
X4377097Y3310000D01*
X4383656Y3303440D01*
Y3296881D01*
X4377097Y3290321D01*
X4363978D01*
X4357418Y3296881D01*
Y3303440D01*
X4363978Y3310000D01*
X4357418Y3316559D01*
Y3323119D01*
X4363978Y3310000D02*
X4377097D01*
X4245905Y3350321D02*
Y3389679D01*
X4265584D01*
X4272144Y3383119D01*
Y3370000D01*
X4265584Y3363440D01*
X4245905D01*
X4259025D02*
X4272144Y3350321D01*
X4285263D02*
X4298382D01*
X4291822D01*
Y3389679D01*
X4285263Y3383119D01*
X4318061D02*
X4324620Y3389679D01*
X4337739D01*
X4344299Y3383119D01*
Y3376559D01*
X4337739Y3370000D01*
X4331180D01*
X4337739D01*
X4344299Y3363440D01*
Y3356881D01*
X4337739Y3350321D01*
X4324620D01*
X4318061Y3356881D01*
X4357418Y3389679D02*
X4383656D01*
Y3383119D01*
X4357418Y3356881D01*
Y3350321D01*
X4245905Y3410321D02*
Y3449679D01*
X4265584D01*
X4272144Y3443119D01*
Y3430000D01*
X4265584Y3423440D01*
X4245905D01*
X4259025D02*
X4272144Y3410321D01*
X4285263D02*
X4298382D01*
X4291822D01*
Y3449679D01*
X4285263Y3443119D01*
X4318061D02*
X4324620Y3449679D01*
X4337739D01*
X4344299Y3443119D01*
Y3436559D01*
X4337739Y3430000D01*
X4331180D01*
X4337739D01*
X4344299Y3423440D01*
Y3416881D01*
X4337739Y3410321D01*
X4324620D01*
X4318061Y3416881D01*
X4383656Y3449679D02*
X4370537Y3443119D01*
X4357418Y3430000D01*
Y3416881D01*
X4363978Y3410321D01*
X4377097D01*
X4383656Y3416881D01*
Y3423440D01*
X4377097Y3430000D01*
X4357418D01*
X5619679Y7630905D02*
X5580321D01*
Y7650584D01*
X5586881Y7657144D01*
X5600000D01*
X5606560Y7650584D01*
Y7630905D01*
Y7644024D02*
X5619679Y7657144D01*
Y7670263D02*
Y7683382D01*
Y7676822D01*
X5580321D01*
X5586881Y7670263D01*
Y7703060D02*
X5580321Y7709620D01*
Y7722739D01*
X5586881Y7729299D01*
X5593440D01*
X5600000Y7722739D01*
Y7716180D01*
Y7722739D01*
X5606560Y7729299D01*
X5613119D01*
X5619679Y7722739D01*
Y7709620D01*
X5613119Y7703060D01*
X5580321Y7768656D02*
Y7742418D01*
X5600000D01*
X5593440Y7755537D01*
Y7762097D01*
X5600000Y7768656D01*
X5613119D01*
X5619679Y7762097D01*
Y7748977D01*
X5613119Y7742418D01*
X5669679Y2475905D02*
X5630321D01*
Y2495584D01*
X5636881Y2502144D01*
X5650000D01*
X5656560Y2495584D01*
Y2475905D01*
Y2489024D02*
X5669679Y2502144D01*
Y2515263D02*
Y2528382D01*
Y2521822D01*
X5630321D01*
X5636881Y2515263D01*
Y2548061D02*
X5630321Y2554620D01*
Y2567739D01*
X5636881Y2574299D01*
X5643440D01*
X5650000Y2567739D01*
Y2561180D01*
Y2567739D01*
X5656560Y2574299D01*
X5663119D01*
X5669679Y2567739D01*
Y2554620D01*
X5663119Y2548061D01*
X5669679Y2607097D02*
X5630321D01*
X5650000Y2587418D01*
Y2613656D01*
X5619679Y7255905D02*
X5580321D01*
Y7275584D01*
X5586881Y7282144D01*
X5600000D01*
X5606560Y7275584D01*
Y7255905D01*
Y7269024D02*
X5619679Y7282144D01*
Y7295263D02*
Y7308382D01*
Y7301822D01*
X5580321D01*
X5586881Y7295263D01*
Y7328060D02*
X5580321Y7334620D01*
Y7347739D01*
X5586881Y7354299D01*
X5593440D01*
X5600000Y7347739D01*
Y7341180D01*
Y7347739D01*
X5606560Y7354299D01*
X5613119D01*
X5619679Y7347739D01*
Y7334620D01*
X5613119Y7328060D01*
X5586881Y7367418D02*
X5580321Y7373977D01*
Y7387097D01*
X5586881Y7393656D01*
X5593440D01*
X5600000Y7387097D01*
Y7380537D01*
Y7387097D01*
X5606560Y7393656D01*
X5613119D01*
X5619679Y7387097D01*
Y7373977D01*
X5613119Y7367418D01*
X5609679Y2475905D02*
X5570321D01*
Y2495584D01*
X5576881Y2502144D01*
X5590000D01*
X5596560Y2495584D01*
Y2475905D01*
Y2489024D02*
X5609679Y2502144D01*
Y2515263D02*
Y2528382D01*
Y2521822D01*
X5570321D01*
X5576881Y2515263D01*
Y2548061D02*
X5570321Y2554620D01*
Y2567739D01*
X5576881Y2574299D01*
X5583440D01*
X5590000Y2567739D01*
Y2561180D01*
Y2567739D01*
X5596560Y2574299D01*
X5603119D01*
X5609679Y2567739D01*
Y2554620D01*
X5603119Y2548061D01*
X5609679Y2613656D02*
Y2587418D01*
X5583440Y2613656D01*
X5576881D01*
X5570321Y2607097D01*
Y2593977D01*
X5576881Y2587418D01*
X4669679Y7535905D02*
X4630321D01*
Y7555584D01*
X4636881Y7562144D01*
X4650000D01*
X4656560Y7555584D01*
Y7535905D01*
Y7549025D02*
X4669679Y7562144D01*
Y7575263D02*
Y7588382D01*
Y7581822D01*
X4630321D01*
X4636881Y7575263D01*
Y7608061D02*
X4630321Y7614620D01*
Y7627739D01*
X4636881Y7634299D01*
X4643440D01*
X4650000Y7627739D01*
Y7621180D01*
Y7627739D01*
X4656560Y7634299D01*
X4663119D01*
X4669679Y7627739D01*
Y7614620D01*
X4663119Y7608061D01*
X4669679Y7647418D02*
Y7660537D01*
Y7653978D01*
X4630321D01*
X4636881Y7647418D01*
X5929679Y4695905D02*
X5890321D01*
Y4715584D01*
X5896881Y4722144D01*
X5910000D01*
X5916560Y4715584D01*
Y4695905D01*
Y4709024D02*
X5929679Y4722144D01*
Y4735263D02*
Y4748382D01*
Y4741822D01*
X5890321D01*
X5896881Y4735263D01*
Y4768060D02*
X5890321Y4774620D01*
Y4787739D01*
X5896881Y4794299D01*
X5903440D01*
X5910000Y4787739D01*
Y4781180D01*
Y4787739D01*
X5916560Y4794299D01*
X5923119D01*
X5929679Y4787739D01*
Y4774620D01*
X5923119Y4768060D01*
X5896881Y4807418D02*
X5890321Y4813977D01*
Y4827097D01*
X5896881Y4833656D01*
X5923119D01*
X5929679Y4827097D01*
Y4813977D01*
X5923119Y4807418D01*
X5896881D01*
X6685905Y4570321D02*
Y4609679D01*
X6705584D01*
X6712144Y4603119D01*
Y4590000D01*
X6705584Y4583440D01*
X6685905D01*
X6699025D02*
X6712144Y4570321D01*
X6725263D02*
X6738382D01*
X6731822D01*
Y4609679D01*
X6725263Y4603119D01*
X6784299Y4570321D02*
X6758061D01*
X6784299Y4596560D01*
Y4603119D01*
X6777739Y4609679D01*
X6764620D01*
X6758061Y4603119D01*
X6797418Y4576881D02*
X6803978Y4570321D01*
X6817097D01*
X6823656Y4576881D01*
Y4603119D01*
X6817097Y4609679D01*
X6803978D01*
X6797418Y4603119D01*
Y4596560D01*
X6803978Y4590000D01*
X6823656D01*
X6685905Y4630321D02*
Y4669679D01*
X6705584D01*
X6712144Y4663119D01*
Y4650000D01*
X6705584Y4643440D01*
X6685905D01*
X6699025D02*
X6712144Y4630321D01*
X6725263D02*
X6738382D01*
X6731822D01*
Y4669679D01*
X6725263Y4663119D01*
X6784299Y4630321D02*
X6758061D01*
X6784299Y4656560D01*
Y4663119D01*
X6777739Y4669679D01*
X6764620D01*
X6758061Y4663119D01*
X6797418D02*
X6803978Y4669679D01*
X6817097D01*
X6823656Y4663119D01*
Y4656560D01*
X6817097Y4650000D01*
X6823656Y4643440D01*
Y4636881D01*
X6817097Y4630321D01*
X6803978D01*
X6797418Y4636881D01*
Y4643440D01*
X6803978Y4650000D01*
X6797418Y4656560D01*
Y4663119D01*
X6803978Y4650000D02*
X6817097D01*
X5929679Y4525905D02*
X5890321D01*
Y4545584D01*
X5896881Y4552144D01*
X5910000D01*
X5916560Y4545584D01*
Y4525905D01*
Y4539024D02*
X5929679Y4552144D01*
Y4565263D02*
Y4578382D01*
Y4571822D01*
X5890321D01*
X5896881Y4565263D01*
X5929679Y4624299D02*
Y4598060D01*
X5903440Y4624299D01*
X5896881D01*
X5890321Y4617739D01*
Y4604620D01*
X5896881Y4598060D01*
X5890321Y4637418D02*
Y4663656D01*
X5896881D01*
X5923119Y4637418D01*
X5929679D01*
X6059679Y4755905D02*
X6020321D01*
Y4775584D01*
X6026881Y4782144D01*
X6040000D01*
X6046560Y4775584D01*
Y4755905D01*
Y4769024D02*
X6059679Y4782144D01*
Y4795263D02*
Y4808382D01*
Y4801822D01*
X6020321D01*
X6026881Y4795263D01*
X6059679Y4854299D02*
Y4828060D01*
X6033440Y4854299D01*
X6026881D01*
X6020321Y4847739D01*
Y4834620D01*
X6026881Y4828060D01*
X6020321Y4893656D02*
X6026881Y4880537D01*
X6040000Y4867418D01*
X6053119D01*
X6059679Y4873977D01*
Y4887097D01*
X6053119Y4893656D01*
X6046560D01*
X6040000Y4887097D01*
Y4867418D01*
X6659679Y4345905D02*
X6620321D01*
Y4365584D01*
X6626881Y4372144D01*
X6640000D01*
X6646560Y4365584D01*
Y4345905D01*
Y4359024D02*
X6659679Y4372144D01*
Y4385263D02*
Y4398382D01*
Y4391822D01*
X6620321D01*
X6626881Y4385263D01*
X6659679Y4444299D02*
Y4418060D01*
X6633440Y4444299D01*
X6626881D01*
X6620321Y4437739D01*
Y4424620D01*
X6626881Y4418060D01*
X6620321Y4483656D02*
Y4457418D01*
X6640000D01*
X6633440Y4470537D01*
Y4477097D01*
X6640000Y4483656D01*
X6653119D01*
X6659679Y4477097D01*
Y4463977D01*
X6653119Y4457418D01*
X6639679Y4755905D02*
X6600321D01*
Y4775584D01*
X6606881Y4782144D01*
X6620000D01*
X6626560Y4775584D01*
Y4755905D01*
Y4769024D02*
X6639679Y4782144D01*
Y4795263D02*
Y4808382D01*
Y4801822D01*
X6600321D01*
X6606881Y4795263D01*
X6639679Y4854299D02*
Y4828060D01*
X6613440Y4854299D01*
X6606881D01*
X6600321Y4847739D01*
Y4834620D01*
X6606881Y4828060D01*
X6639679Y4887097D02*
X6600321D01*
X6620000Y4867418D01*
Y4893656D01*
X5999679Y4385905D02*
X5960321D01*
Y4405584D01*
X5966881Y4412144D01*
X5980000D01*
X5986560Y4405584D01*
Y4385905D01*
Y4399024D02*
X5999679Y4412144D01*
Y4425263D02*
Y4438382D01*
Y4431822D01*
X5960321D01*
X5966881Y4425263D01*
X5999679Y4484299D02*
Y4458060D01*
X5973440Y4484299D01*
X5966881D01*
X5960321Y4477739D01*
Y4464620D01*
X5966881Y4458060D01*
Y4497418D02*
X5960321Y4503977D01*
Y4517097D01*
X5966881Y4523656D01*
X5973440D01*
X5980000Y4517097D01*
Y4510537D01*
Y4517097D01*
X5986560Y4523656D01*
X5993119D01*
X5999679Y4517097D01*
Y4503977D01*
X5993119Y4497418D01*
X6599679Y4345905D02*
X6560321D01*
Y4365584D01*
X6566881Y4372144D01*
X6580000D01*
X6586560Y4365584D01*
Y4345905D01*
Y4359024D02*
X6599679Y4372144D01*
Y4385263D02*
Y4398382D01*
Y4391822D01*
X6560321D01*
X6566881Y4385263D01*
X6599679Y4444299D02*
Y4418060D01*
X6573440Y4444299D01*
X6566881D01*
X6560321Y4437739D01*
Y4424620D01*
X6566881Y4418060D01*
X6599679Y4483656D02*
Y4457418D01*
X6573440Y4483656D01*
X6566881D01*
X6560321Y4477097D01*
Y4463977D01*
X6566881Y4457418D01*
X4605905Y5680321D02*
Y5719679D01*
X4625584D01*
X4632144Y5713119D01*
Y5700000D01*
X4625584Y5693440D01*
X4605905D01*
X4619025D02*
X4632144Y5680321D01*
X4645263D02*
X4658382D01*
X4651822D01*
Y5719679D01*
X4645263Y5713119D01*
X4704299Y5680321D02*
X4678061D01*
X4704299Y5706560D01*
Y5713119D01*
X4697739Y5719679D01*
X4684620D01*
X4678061Y5713119D01*
X4717418Y5680321D02*
X4730537D01*
X4723978D01*
Y5719679D01*
X4717418Y5713119D01*
X3259679Y7315905D02*
X3220321D01*
Y7335584D01*
X3226881Y7342144D01*
X3240000D01*
X3246559Y7335584D01*
Y7315905D01*
Y7329024D02*
X3259679Y7342144D01*
Y7355263D02*
Y7368382D01*
Y7361822D01*
X3220321D01*
X3226881Y7355263D01*
Y7388060D02*
X3220321Y7394620D01*
Y7407739D01*
X3226881Y7414299D01*
X3253119D01*
X3259679Y7407739D01*
Y7394620D01*
X3253119Y7388060D01*
X3226881D01*
X3220321Y7453656D02*
X3226881Y7440537D01*
X3240000Y7427418D01*
X3253119D01*
X3259679Y7433977D01*
Y7447097D01*
X3253119Y7453656D01*
X3246559D01*
X3240000Y7447097D01*
Y7427418D01*
X3239679Y6845905D02*
X3200321D01*
Y6865584D01*
X3206881Y6872144D01*
X3220000D01*
X3226559Y6865584D01*
Y6845905D01*
Y6859024D02*
X3239679Y6872144D01*
Y6885263D02*
Y6898382D01*
Y6891822D01*
X3200321D01*
X3206881Y6885263D01*
Y6918060D02*
X3200321Y6924620D01*
Y6937739D01*
X3206881Y6944299D01*
X3233119D01*
X3239679Y6937739D01*
Y6924620D01*
X3233119Y6918060D01*
X3206881D01*
X3200321Y6983656D02*
Y6957418D01*
X3220000D01*
X3213440Y6970537D01*
Y6977097D01*
X3220000Y6983656D01*
X3233119D01*
X3239679Y6977097D01*
Y6963977D01*
X3233119Y6957418D01*
X3309679Y6845905D02*
X3270321D01*
Y6865584D01*
X3276881Y6872144D01*
X3290000D01*
X3296559Y6865584D01*
Y6845905D01*
Y6859024D02*
X3309679Y6872144D01*
Y6885263D02*
Y6898382D01*
Y6891822D01*
X3270321D01*
X3276881Y6885263D01*
Y6918060D02*
X3270321Y6924620D01*
Y6937739D01*
X3276881Y6944299D01*
X3303119D01*
X3309679Y6937739D01*
Y6924620D01*
X3303119Y6918060D01*
X3276881D01*
X3309679Y6977097D02*
X3270321D01*
X3290000Y6957418D01*
Y6983656D01*
X4095905Y3460321D02*
Y3499679D01*
X4115584D01*
X4122144Y3493119D01*
Y3480000D01*
X4115584Y3473440D01*
X4095905D01*
X4109025D02*
X4122144Y3460321D01*
X4135263D02*
X4148382D01*
X4141822D01*
Y3499679D01*
X4135263Y3493119D01*
X4168061D02*
X4174620Y3499679D01*
X4187739D01*
X4194299Y3493119D01*
Y3466881D01*
X4187739Y3460321D01*
X4174620D01*
X4168061Y3466881D01*
Y3493119D01*
X4207418Y3460321D02*
X4220537D01*
X4213978D01*
Y3499679D01*
X4207418Y3493119D01*
X4069679Y3445905D02*
X4030321D01*
Y3465584D01*
X4036881Y3472144D01*
X4050000D01*
X4056559Y3465584D01*
Y3445905D01*
Y3459024D02*
X4069679Y3472144D01*
Y3485263D02*
Y3498382D01*
Y3491822D01*
X4030321D01*
X4036881Y3485263D01*
Y3518061D02*
X4030321Y3524620D01*
Y3537739D01*
X4036881Y3544299D01*
X4063119D01*
X4069679Y3537739D01*
Y3524620D01*
X4063119Y3518061D01*
X4036881D01*
Y3557418D02*
X4030321Y3563977D01*
Y3577097D01*
X4036881Y3583656D01*
X4063119D01*
X4069679Y3577097D01*
Y3563977D01*
X4063119Y3557418D01*
X4036881D01*
X2489679Y3375905D02*
X2450321D01*
Y3395584D01*
X2456881Y3402144D01*
X2470000D01*
X2476559Y3395584D01*
Y3375905D01*
Y3389024D02*
X2489679Y3402144D01*
X2483119Y3415263D02*
X2489679Y3421822D01*
Y3434941D01*
X2483119Y3441501D01*
X2456881D01*
X2450321Y3434941D01*
Y3421822D01*
X2456881Y3415263D01*
X2463440D01*
X2470000Y3421822D01*
Y3441501D01*
X2450321Y3480858D02*
X2456881Y3467739D01*
X2470000Y3454620D01*
X2483119D01*
X2489679Y3461180D01*
Y3474299D01*
X2483119Y3480858D01*
X2476559D01*
X2470000Y3474299D01*
Y3454620D01*
X2549679Y3375905D02*
X2510321D01*
Y3395584D01*
X2516881Y3402144D01*
X2530000D01*
X2536559Y3395584D01*
Y3375905D01*
Y3389024D02*
X2549679Y3402144D01*
X2543119Y3415263D02*
X2549679Y3421822D01*
Y3434941D01*
X2543119Y3441501D01*
X2516881D01*
X2510321Y3434941D01*
Y3421822D01*
X2516881Y3415263D01*
X2523440D01*
X2530000Y3421822D01*
Y3441501D01*
X2510321Y3480858D02*
Y3454620D01*
X2530000D01*
X2523440Y3467739D01*
Y3474299D01*
X2530000Y3480858D01*
X2543119D01*
X2549679Y3474299D01*
Y3461180D01*
X2543119Y3454620D01*
X2215905Y3500321D02*
Y3539679D01*
X2235584D01*
X2242144Y3533119D01*
Y3520000D01*
X2235584Y3513440D01*
X2215905D01*
X2229024D02*
X2242144Y3500321D01*
X2255263Y3506881D02*
X2261822Y3500321D01*
X2274941D01*
X2281501Y3506881D01*
Y3533119D01*
X2274941Y3539679D01*
X2261822D01*
X2255263Y3533119D01*
Y3526559D01*
X2261822Y3520000D01*
X2281501D01*
X2314299Y3500321D02*
Y3539679D01*
X2294620Y3520000D01*
X2320858D01*
X2215905Y3560321D02*
Y3599679D01*
X2235584D01*
X2242144Y3593119D01*
Y3580000D01*
X2235584Y3573440D01*
X2215905D01*
X2229024D02*
X2242144Y3560321D01*
X2255263Y3566881D02*
X2261822Y3560321D01*
X2274941D01*
X2281501Y3566881D01*
Y3593119D01*
X2274941Y3599679D01*
X2261822D01*
X2255263Y3593119D01*
Y3586559D01*
X2261822Y3580000D01*
X2281501D01*
X2294620Y3593119D02*
X2301180Y3599679D01*
X2314299D01*
X2320858Y3593119D01*
Y3586559D01*
X2314299Y3580000D01*
X2307739D01*
X2314299D01*
X2320858Y3573440D01*
Y3566881D01*
X2314299Y3560321D01*
X2301180D01*
X2294620Y3566881D01*
X2945905Y3435321D02*
Y3474679D01*
X2965584D01*
X2972144Y3468119D01*
Y3455000D01*
X2965584Y3448440D01*
X2945905D01*
X2959024D02*
X2972144Y3435321D01*
X2985263Y3468119D02*
X2991822Y3474679D01*
X3004941D01*
X3011501Y3468119D01*
Y3461559D01*
X3004941Y3455000D01*
X3011501Y3448440D01*
Y3441881D01*
X3004941Y3435321D01*
X2991822D01*
X2985263Y3441881D01*
Y3448440D01*
X2991822Y3455000D01*
X2985263Y3461559D01*
Y3468119D01*
X2991822Y3455000D02*
X3004941D01*
X3024620Y3441881D02*
X3031180Y3435321D01*
X3044299D01*
X3050858Y3441881D01*
Y3468119D01*
X3044299Y3474679D01*
X3031180D01*
X3024620Y3468119D01*
Y3461559D01*
X3031180Y3455000D01*
X3050858D01*
X3075905Y3435321D02*
Y3474679D01*
X3095584D01*
X3102144Y3468119D01*
Y3455000D01*
X3095584Y3448440D01*
X3075905D01*
X3089024D02*
X3102144Y3435321D01*
X3115263Y3468119D02*
X3121822Y3474679D01*
X3134941D01*
X3141501Y3468119D01*
Y3461559D01*
X3134941Y3455000D01*
X3141501Y3448440D01*
Y3441881D01*
X3134941Y3435321D01*
X3121822D01*
X3115263Y3441881D01*
Y3448440D01*
X3121822Y3455000D01*
X3115263Y3461559D01*
Y3468119D01*
X3121822Y3455000D02*
X3134941D01*
X3154620Y3468119D02*
X3161180Y3474679D01*
X3174299D01*
X3180858Y3468119D01*
Y3461559D01*
X3174299Y3455000D01*
X3180858Y3448440D01*
Y3441881D01*
X3174299Y3435321D01*
X3161180D01*
X3154620Y3441881D01*
Y3448440D01*
X3161180Y3455000D01*
X3154620Y3461559D01*
Y3468119D01*
X3161180Y3455000D02*
X3174299D01*
X2929679Y3485905D02*
X2890321D01*
Y3505584D01*
X2896881Y3512144D01*
X2910000D01*
X2916559Y3505584D01*
Y3485905D01*
Y3499024D02*
X2929679Y3512144D01*
X2896881Y3525263D02*
X2890321Y3531822D01*
Y3544941D01*
X2896881Y3551501D01*
X2903440D01*
X2910000Y3544941D01*
X2916559Y3551501D01*
X2923119D01*
X2929679Y3544941D01*
Y3531822D01*
X2923119Y3525263D01*
X2916559D01*
X2910000Y3531822D01*
X2903440Y3525263D01*
X2896881D01*
X2910000Y3531822D02*
Y3544941D01*
X2890321Y3564620D02*
Y3590858D01*
X2896881D01*
X2923119Y3564620D01*
X2929679D01*
X3615905Y3460321D02*
Y3499679D01*
X3635584D01*
X3642144Y3493119D01*
Y3480000D01*
X3635584Y3473440D01*
X3615905D01*
X3629024D02*
X3642144Y3460321D01*
X3655263Y3493119D02*
X3661822Y3499679D01*
X3674941D01*
X3681501Y3493119D01*
Y3486559D01*
X3674941Y3480000D01*
X3681501Y3473440D01*
Y3466881D01*
X3674941Y3460321D01*
X3661822D01*
X3655263Y3466881D01*
Y3473440D01*
X3661822Y3480000D01*
X3655263Y3486559D01*
Y3493119D01*
X3661822Y3480000D02*
X3674941D01*
X3694620Y3493119D02*
X3701180Y3499679D01*
X3714299D01*
X3720858Y3493119D01*
Y3486559D01*
X3714299Y3480000D01*
X3707739D01*
X3714299D01*
X3720858Y3473440D01*
Y3466881D01*
X3714299Y3460321D01*
X3701180D01*
X3694620Y3466881D01*
X3489679Y3475905D02*
X3450321D01*
Y3495584D01*
X3456881Y3502144D01*
X3470000D01*
X3476559Y3495584D01*
Y3475905D01*
Y3489024D02*
X3489679Y3502144D01*
X3456881Y3515263D02*
X3450321Y3521822D01*
Y3534941D01*
X3456881Y3541501D01*
X3463440D01*
X3470000Y3534941D01*
X3476559Y3541501D01*
X3483119D01*
X3489679Y3534941D01*
Y3521822D01*
X3483119Y3515263D01*
X3476559D01*
X3470000Y3521822D01*
X3463440Y3515263D01*
X3456881D01*
X3470000Y3521822D02*
Y3534941D01*
X3489679Y3580858D02*
Y3554620D01*
X3463440Y3580858D01*
X3456881D01*
X3450321Y3574299D01*
Y3561180D01*
X3456881Y3554620D01*
X3429679Y3475905D02*
X3390321D01*
Y3495584D01*
X3396881Y3502144D01*
X3410000D01*
X3416560Y3495584D01*
Y3475905D01*
Y3489024D02*
X3429679Y3502144D01*
X3396881Y3515263D02*
X3390321Y3521822D01*
Y3534941D01*
X3396881Y3541501D01*
X3403441D01*
X3410000Y3534941D01*
X3416560Y3541501D01*
X3423119D01*
X3429679Y3534941D01*
Y3521822D01*
X3423119Y3515263D01*
X3416560D01*
X3410000Y3521822D01*
X3403441Y3515263D01*
X3396881D01*
X3410000Y3521822D02*
Y3534941D01*
X3429679Y3554620D02*
Y3567739D01*
Y3561180D01*
X3390321D01*
X3396881Y3554620D01*
X5919679Y5585905D02*
X5880321D01*
Y5605584D01*
X5886881Y5612144D01*
X5900000D01*
X5906560Y5605584D01*
Y5585905D01*
Y5599024D02*
X5919679Y5612144D01*
X5880321Y5651501D02*
Y5625263D01*
X5900000D01*
X5893440Y5638382D01*
Y5644941D01*
X5900000Y5651501D01*
X5913119D01*
X5919679Y5644941D01*
Y5631822D01*
X5913119Y5625263D01*
X5880321Y5690858D02*
Y5664620D01*
X5900000D01*
X5893440Y5677739D01*
Y5684299D01*
X5900000Y5690858D01*
X5913119D01*
X5919679Y5684299D01*
Y5671180D01*
X5913119Y5664620D01*
X5979679Y5585905D02*
X5940321D01*
Y5605584D01*
X5946881Y5612144D01*
X5960000D01*
X5966560Y5605584D01*
Y5585905D01*
Y5599024D02*
X5979679Y5612144D01*
X5940321Y5651501D02*
Y5625263D01*
X5960000D01*
X5953440Y5638382D01*
Y5644941D01*
X5960000Y5651501D01*
X5973119D01*
X5979679Y5644941D01*
Y5631822D01*
X5973119Y5625263D01*
X5979679Y5684299D02*
X5940321D01*
X5960000Y5664620D01*
Y5690858D01*
X5745905Y5320321D02*
Y5359679D01*
X5765584D01*
X5772144Y5353119D01*
Y5340000D01*
X5765584Y5333440D01*
X5745905D01*
X5759025D02*
X5772144Y5320321D01*
X5785263Y5353119D02*
X5791822Y5359679D01*
X5804941D01*
X5811501Y5353119D01*
Y5346560D01*
X5804941Y5340000D01*
X5798382D01*
X5804941D01*
X5811501Y5333440D01*
Y5326881D01*
X5804941Y5320321D01*
X5791822D01*
X5785263Y5326881D01*
X5824620D02*
X5831180Y5320321D01*
X5844299D01*
X5850858Y5326881D01*
Y5353119D01*
X5844299Y5359679D01*
X5831180D01*
X5824620Y5353119D01*
Y5346560D01*
X5831180Y5340000D01*
X5850858D01*
X5589679Y5545905D02*
X5550321D01*
Y5565584D01*
X5556881Y5572144D01*
X5570000D01*
X5576560Y5565584D01*
Y5545905D01*
Y5559024D02*
X5589679Y5572144D01*
X5556881Y5585263D02*
X5550321Y5591822D01*
Y5604941D01*
X5556881Y5611501D01*
X5563440D01*
X5570000Y5604941D01*
Y5598382D01*
Y5604941D01*
X5576560Y5611501D01*
X5583119D01*
X5589679Y5604941D01*
Y5591822D01*
X5583119Y5585263D01*
X5556881Y5624620D02*
X5550321Y5631180D01*
Y5644299D01*
X5556881Y5650858D01*
X5563440D01*
X5570000Y5644299D01*
X5576560Y5650858D01*
X5583119D01*
X5589679Y5644299D01*
Y5631180D01*
X5583119Y5624620D01*
X5576560D01*
X5570000Y5631180D01*
X5563440Y5624620D01*
X5556881D01*
X5570000Y5631180D02*
Y5644299D01*
X5594679Y5240905D02*
X5555321D01*
Y5260584D01*
X5561881Y5267144D01*
X5575000D01*
X5581560Y5260584D01*
Y5240905D01*
Y5254024D02*
X5594679Y5267144D01*
X5561881Y5280263D02*
X5555321Y5286822D01*
Y5299941D01*
X5561881Y5306501D01*
X5568440D01*
X5575000Y5299941D01*
Y5293382D01*
Y5299941D01*
X5581560Y5306501D01*
X5588119D01*
X5594679Y5299941D01*
Y5286822D01*
X5588119Y5280263D01*
X5555321Y5319620D02*
Y5345858D01*
X5561881D01*
X5588119Y5319620D01*
X5594679D01*
X3089679Y3315905D02*
X3050321D01*
Y3335584D01*
X3056881Y3342144D01*
X3070000D01*
X3076559Y3335584D01*
Y3315905D01*
Y3329024D02*
X3089679Y3342144D01*
X3056881Y3355263D02*
X3050321Y3361822D01*
Y3374941D01*
X3056881Y3381501D01*
X3063440D01*
X3070000Y3374941D01*
Y3368382D01*
Y3374941D01*
X3076559Y3381501D01*
X3083119D01*
X3089679Y3374941D01*
Y3361822D01*
X3083119Y3355263D01*
X3050321Y3420858D02*
X3056881Y3407739D01*
X3070000Y3394620D01*
X3083119D01*
X3089679Y3401180D01*
Y3414299D01*
X3083119Y3420858D01*
X3076559D01*
X3070000Y3414299D01*
Y3394620D01*
X3029679Y3315905D02*
X2990321D01*
Y3335584D01*
X2996881Y3342144D01*
X3010000D01*
X3016559Y3335584D01*
Y3315905D01*
Y3329024D02*
X3029679Y3342144D01*
X2996881Y3355263D02*
X2990321Y3361822D01*
Y3374941D01*
X2996881Y3381501D01*
X3003440D01*
X3010000Y3374941D01*
Y3368382D01*
Y3374941D01*
X3016559Y3381501D01*
X3023119D01*
X3029679Y3374941D01*
Y3361822D01*
X3023119Y3355263D01*
X2990321Y3420858D02*
Y3394620D01*
X3010000D01*
X3003440Y3407739D01*
Y3414299D01*
X3010000Y3420858D01*
X3023119D01*
X3029679Y3414299D01*
Y3401180D01*
X3023119Y3394620D01*
X3149679Y3315905D02*
X3110321D01*
Y3335584D01*
X3116881Y3342144D01*
X3130000D01*
X3136559Y3335584D01*
Y3315905D01*
Y3329024D02*
X3149679Y3342144D01*
X3116881Y3355263D02*
X3110321Y3361822D01*
Y3374941D01*
X3116881Y3381501D01*
X3123440D01*
X3130000Y3374941D01*
Y3368382D01*
Y3374941D01*
X3136559Y3381501D01*
X3143119D01*
X3149679Y3374941D01*
Y3361822D01*
X3143119Y3355263D01*
X3149679Y3414299D02*
X3110321D01*
X3130000Y3394620D01*
Y3420858D01*
X3209679Y3315905D02*
X3170321D01*
Y3335584D01*
X3176881Y3342144D01*
X3190000D01*
X3196559Y3335584D01*
Y3315905D01*
Y3329024D02*
X3209679Y3342144D01*
X3176881Y3355263D02*
X3170321Y3361822D01*
Y3374941D01*
X3176881Y3381501D01*
X3183440D01*
X3190000Y3374941D01*
Y3368382D01*
Y3374941D01*
X3196559Y3381501D01*
X3203119D01*
X3209679Y3374941D01*
Y3361822D01*
X3203119Y3355263D01*
X3176881Y3394620D02*
X3170321Y3401180D01*
Y3414299D01*
X3176881Y3420858D01*
X3183440D01*
X3190000Y3414299D01*
Y3407739D01*
Y3414299D01*
X3196559Y3420858D01*
X3203119D01*
X3209679Y3414299D01*
Y3401180D01*
X3203119Y3394620D01*
X3509679Y3315905D02*
X3470321D01*
Y3335584D01*
X3476881Y3342144D01*
X3490000D01*
X3496559Y3335584D01*
Y3315905D01*
Y3329024D02*
X3509679Y3342144D01*
X3476881Y3355263D02*
X3470321Y3361822D01*
Y3374941D01*
X3476881Y3381501D01*
X3483440D01*
X3490000Y3374941D01*
Y3368382D01*
Y3374941D01*
X3496559Y3381501D01*
X3503119D01*
X3509679Y3374941D01*
Y3361822D01*
X3503119Y3355263D01*
X3509679Y3420858D02*
Y3394620D01*
X3483440Y3420858D01*
X3476881D01*
X3470321Y3414299D01*
Y3401180D01*
X3476881Y3394620D01*
X3569679Y3315905D02*
X3530321D01*
Y3335584D01*
X3536881Y3342144D01*
X3550000D01*
X3556560Y3335584D01*
Y3315905D01*
Y3329024D02*
X3569679Y3342144D01*
X3536881Y3355263D02*
X3530321Y3361822D01*
Y3374941D01*
X3536881Y3381501D01*
X3543441D01*
X3550000Y3374941D01*
Y3368382D01*
Y3374941D01*
X3556560Y3381501D01*
X3563119D01*
X3569679Y3374941D01*
Y3361822D01*
X3563119Y3355263D01*
X3569679Y3394620D02*
Y3407739D01*
Y3401180D01*
X3530321D01*
X3536881Y3394620D01*
X3689679Y3315905D02*
X3650321D01*
Y3335584D01*
X3656881Y3342144D01*
X3670000D01*
X3676559Y3335584D01*
Y3315905D01*
Y3329024D02*
X3689679Y3342144D01*
X3656881Y3355263D02*
X3650321Y3361822D01*
Y3374941D01*
X3656881Y3381501D01*
X3663440D01*
X3670000Y3374941D01*
Y3368382D01*
Y3374941D01*
X3676559Y3381501D01*
X3683119D01*
X3689679Y3374941D01*
Y3361822D01*
X3683119Y3355263D01*
X3656881Y3394620D02*
X3650321Y3401180D01*
Y3414299D01*
X3656881Y3420858D01*
X3683119D01*
X3689679Y3414299D01*
Y3401180D01*
X3683119Y3394620D01*
X3656881D01*
X3629679Y3315905D02*
X3590321D01*
Y3335584D01*
X3596881Y3342144D01*
X3610000D01*
X3616559Y3335584D01*
Y3315905D01*
Y3329024D02*
X3629679Y3342144D01*
Y3381501D02*
Y3355263D01*
X3603440Y3381501D01*
X3596881D01*
X3590321Y3374941D01*
Y3361822D01*
X3596881Y3355263D01*
X3623119Y3394620D02*
X3629679Y3401180D01*
Y3414299D01*
X3623119Y3420858D01*
X3596881D01*
X3590321Y3414299D01*
Y3401180D01*
X3596881Y3394620D01*
X3603440D01*
X3610000Y3401180D01*
Y3420858D01*
X3989679Y3315905D02*
X3950321D01*
Y3335584D01*
X3956881Y3342144D01*
X3970000D01*
X3976559Y3335584D01*
Y3315905D01*
Y3329024D02*
X3989679Y3342144D01*
Y3381501D02*
Y3355263D01*
X3963440Y3381501D01*
X3956881D01*
X3950321Y3374941D01*
Y3361822D01*
X3956881Y3355263D01*
Y3394620D02*
X3950321Y3401180D01*
Y3414299D01*
X3956881Y3420858D01*
X3963440D01*
X3970000Y3414299D01*
X3976559Y3420858D01*
X3983119D01*
X3989679Y3414299D01*
Y3401180D01*
X3983119Y3394620D01*
X3976559D01*
X3970000Y3401180D01*
X3963440Y3394620D01*
X3956881D01*
X3970000Y3401180D02*
Y3414299D01*
X4049679Y3315905D02*
X4010321D01*
Y3335584D01*
X4016881Y3342144D01*
X4030000D01*
X4036559Y3335584D01*
Y3315905D01*
Y3329024D02*
X4049679Y3342144D01*
Y3381501D02*
Y3355263D01*
X4023440Y3381501D01*
X4016881D01*
X4010321Y3374941D01*
Y3361822D01*
X4016881Y3355263D01*
X4010321Y3394620D02*
Y3420858D01*
X4016881D01*
X4043119Y3394620D01*
X4049679D01*
X4109679Y3315905D02*
X4070321D01*
Y3335584D01*
X4076881Y3342144D01*
X4090000D01*
X4096560Y3335584D01*
Y3315905D01*
Y3329024D02*
X4109679Y3342144D01*
Y3381501D02*
Y3355263D01*
X4083440Y3381501D01*
X4076881D01*
X4070321Y3374941D01*
Y3361822D01*
X4076881Y3355263D01*
X4070321Y3420858D02*
X4076881Y3407739D01*
X4090000Y3394620D01*
X4103119D01*
X4109679Y3401180D01*
Y3414299D01*
X4103119Y3420858D01*
X4096560D01*
X4090000Y3414299D01*
Y3394620D01*
X4169679Y3315905D02*
X4130321D01*
Y3335584D01*
X4136881Y3342144D01*
X4150000D01*
X4156560Y3335584D01*
Y3315905D01*
Y3329024D02*
X4169679Y3342144D01*
Y3381501D02*
Y3355263D01*
X4143440Y3381501D01*
X4136881D01*
X4130321Y3374941D01*
Y3361822D01*
X4136881Y3355263D01*
X4130321Y3420858D02*
Y3394620D01*
X4150000D01*
X4143440Y3407739D01*
Y3414299D01*
X4150000Y3420858D01*
X4163119D01*
X4169679Y3414299D01*
Y3401180D01*
X4163119Y3394620D01*
X3115905Y6710321D02*
Y6749679D01*
X3135584D01*
X3142144Y6743119D01*
Y6730000D01*
X3135584Y6723440D01*
X3115905D01*
X3129024D02*
X3142144Y6710321D01*
X3181501D02*
X3155263D01*
X3181501Y6736560D01*
Y6743119D01*
X3174941Y6749679D01*
X3161822D01*
X3155263Y6743119D01*
X3214299Y6710321D02*
Y6749679D01*
X3194620Y6730000D01*
X3220858D01*
X2605905Y6980321D02*
Y7019679D01*
X2625584D01*
X2632144Y7013119D01*
Y7000000D01*
X2625584Y6993440D01*
X2605905D01*
X2619024D02*
X2632144Y6980321D01*
X2671501D02*
X2645263D01*
X2671501Y7006560D01*
Y7013119D01*
X2664941Y7019679D01*
X2651822D01*
X2645263Y7013119D01*
X2684620D02*
X2691180Y7019679D01*
X2704299D01*
X2710858Y7013119D01*
Y7006560D01*
X2704299Y7000000D01*
X2697739D01*
X2704299D01*
X2710858Y6993440D01*
Y6986881D01*
X2704299Y6980321D01*
X2691180D01*
X2684620Y6986881D01*
X4315905Y6880321D02*
Y6919679D01*
X4335584D01*
X4342144Y6913119D01*
Y6900000D01*
X4335584Y6893440D01*
X4315905D01*
X4329025D02*
X4342144Y6880321D01*
X4381501D02*
X4355263D01*
X4381501Y6906560D01*
Y6913119D01*
X4374941Y6919679D01*
X4361822D01*
X4355263Y6913119D01*
X4420858Y6880321D02*
X4394620D01*
X4420858Y6906560D01*
Y6913119D01*
X4414299Y6919679D01*
X4401180D01*
X4394620Y6913119D01*
X2475905Y6980321D02*
Y7019679D01*
X2495584D01*
X2502144Y7013119D01*
Y7000000D01*
X2495584Y6993440D01*
X2475905D01*
X2489024D02*
X2502144Y6980321D01*
X2541501D02*
X2515263D01*
X2541501Y7006560D01*
Y7013119D01*
X2534941Y7019679D01*
X2521822D01*
X2515263Y7013119D01*
X2554620Y6980321D02*
X2567739D01*
X2561180D01*
Y7019679D01*
X2554620Y7013119D01*
X4435905Y7040321D02*
Y7079679D01*
X4455584D01*
X4462144Y7073119D01*
Y7060000D01*
X4455584Y7053440D01*
X4435905D01*
X4449025D02*
X4462144Y7040321D01*
X4501501D02*
X4475263D01*
X4501501Y7066560D01*
Y7073119D01*
X4494941Y7079679D01*
X4481822D01*
X4475263Y7073119D01*
X4514620D02*
X4521180Y7079679D01*
X4534299D01*
X4540858Y7073119D01*
Y7046881D01*
X4534299Y7040321D01*
X4521180D01*
X4514620Y7046881D01*
Y7073119D01*
X3795905Y7270321D02*
Y7309679D01*
X3815584D01*
X3822144Y7303119D01*
Y7290000D01*
X3815584Y7283440D01*
X3795905D01*
X3809024D02*
X3822144Y7270321D01*
X3835263D02*
X3848382D01*
X3841822D01*
Y7309679D01*
X3835263Y7303119D01*
X3868061Y7276881D02*
X3874620Y7270321D01*
X3887739D01*
X3894299Y7276881D01*
Y7303119D01*
X3887739Y7309679D01*
X3874620D01*
X3868061Y7303119D01*
Y7296560D01*
X3874620Y7290000D01*
X3894299D01*
X5245905Y6990321D02*
Y7029679D01*
X5265584D01*
X5272144Y7023119D01*
Y7010000D01*
X5265584Y7003440D01*
X5245905D01*
X5259025D02*
X5272144Y6990321D01*
X5285263D02*
X5298382D01*
X5291822D01*
Y7029679D01*
X5285263Y7023119D01*
X5318061D02*
X5324620Y7029679D01*
X5337739D01*
X5344299Y7023119D01*
Y7016560D01*
X5337739Y7010000D01*
X5344299Y7003440D01*
Y6996881D01*
X5337739Y6990321D01*
X5324620D01*
X5318061Y6996881D01*
Y7003440D01*
X5324620Y7010000D01*
X5318061Y7016560D01*
Y7023119D01*
X5324620Y7010000D02*
X5337739D01*
X5085905Y7240321D02*
Y7279679D01*
X5105584D01*
X5112144Y7273119D01*
Y7260000D01*
X5105584Y7253440D01*
X5085905D01*
X5099025D02*
X5112144Y7240321D01*
X5125263D02*
X5138382D01*
X5131822D01*
Y7279679D01*
X5125263Y7273119D01*
X5158061Y7279679D02*
X5184299D01*
Y7273119D01*
X5158061Y7246881D01*
Y7240321D01*
X4995905Y7370321D02*
Y7409679D01*
X5015584D01*
X5022144Y7403119D01*
Y7390000D01*
X5015584Y7383440D01*
X4995905D01*
X5009025D02*
X5022144Y7370321D01*
X5035263D02*
X5048382D01*
X5041822D01*
Y7409679D01*
X5035263Y7403119D01*
X5094299Y7409679D02*
X5081180Y7403119D01*
X5068061Y7390000D01*
Y7376881D01*
X5074620Y7370321D01*
X5087739D01*
X5094299Y7376881D01*
Y7383440D01*
X5087739Y7390000D01*
X5068061D01*
X5085905Y7300321D02*
Y7339679D01*
X5105584D01*
X5112144Y7333119D01*
Y7320000D01*
X5105584Y7313440D01*
X5085905D01*
X5099025D02*
X5112144Y7300321D01*
X5125263D02*
X5138382D01*
X5131822D01*
Y7339679D01*
X5125263Y7333119D01*
X5184299Y7339679D02*
X5158061D01*
Y7320000D01*
X5171180Y7326560D01*
X5177739D01*
X5184299Y7320000D01*
Y7306881D01*
X5177739Y7300321D01*
X5164620D01*
X5158061Y7306881D01*
X3838896Y6346602D02*
X3799539D01*
Y6366281D01*
X3806098Y6372841D01*
X3819218D01*
X3825777Y6366281D01*
Y6346602D01*
Y6359722D02*
X3838896Y6372841D01*
Y6385960D02*
Y6399079D01*
Y6392520D01*
X3799539D01*
X3806098Y6385960D01*
X3838896Y6438436D02*
X3799539D01*
X3819218Y6418758D01*
Y6444996D01*
X3779679Y6345905D02*
X3740321D01*
Y6365584D01*
X3746881Y6372144D01*
X3760000D01*
X3766559Y6365584D01*
Y6345905D01*
Y6359024D02*
X3779679Y6372144D01*
Y6385263D02*
Y6398382D01*
Y6391822D01*
X3740321D01*
X3746881Y6385263D01*
Y6418060D02*
X3740321Y6424620D01*
Y6437739D01*
X3746881Y6444299D01*
X3753440D01*
X3760000Y6437739D01*
Y6431180D01*
Y6437739D01*
X3766559Y6444299D01*
X3773119D01*
X3779679Y6437739D01*
Y6424620D01*
X3773119Y6418060D01*
X3719679Y6345905D02*
X3680321D01*
Y6365584D01*
X3686881Y6372144D01*
X3700000D01*
X3706559Y6365584D01*
Y6345905D01*
Y6359024D02*
X3719679Y6372144D01*
Y6385263D02*
Y6398382D01*
Y6391822D01*
X3680321D01*
X3686881Y6385263D01*
X3719679Y6444299D02*
Y6418060D01*
X3693440Y6444299D01*
X3686881D01*
X3680321Y6437739D01*
Y6424620D01*
X3686881Y6418060D01*
X3659679Y6345905D02*
X3620321D01*
Y6365584D01*
X3626881Y6372144D01*
X3640000D01*
X3646560Y6365584D01*
Y6345905D01*
Y6359025D02*
X3659679Y6372144D01*
Y6385263D02*
Y6398382D01*
Y6391822D01*
X3620321D01*
X3626881Y6385263D01*
X3659679Y6418061D02*
Y6431180D01*
Y6424620D01*
X3620321D01*
X3626881Y6418061D01*
X3599679Y6345905D02*
X3560321D01*
Y6365584D01*
X3566881Y6372144D01*
X3580000D01*
X3586559Y6365584D01*
Y6345905D01*
Y6359024D02*
X3599679Y6372144D01*
Y6385263D02*
Y6398382D01*
Y6391822D01*
X3560321D01*
X3566881Y6385263D01*
Y6418060D02*
X3560321Y6424620D01*
Y6437739D01*
X3566881Y6444299D01*
X3593119D01*
X3599679Y6437739D01*
Y6424620D01*
X3593119Y6418060D01*
X3566881D01*
X3595905Y6570321D02*
Y6609679D01*
X3615584D01*
X3622144Y6603119D01*
Y6590000D01*
X3615584Y6583440D01*
X3595905D01*
X3609024D02*
X3622144Y6570321D01*
X3635263Y6576881D02*
X3641822Y6570321D01*
X3654941D01*
X3661501Y6576881D01*
Y6603119D01*
X3654941Y6609679D01*
X3641822D01*
X3635263Y6603119D01*
Y6596560D01*
X3641822Y6590000D01*
X3661501D01*
X3595905Y6630321D02*
Y6669679D01*
X3615584D01*
X3622144Y6663119D01*
Y6650000D01*
X3615584Y6643440D01*
X3595905D01*
X3609024D02*
X3622144Y6630321D01*
X3635263Y6663119D02*
X3641822Y6669679D01*
X3654941D01*
X3661501Y6663119D01*
Y6656560D01*
X3654941Y6650000D01*
X3661501Y6643440D01*
Y6636881D01*
X3654941Y6630321D01*
X3641822D01*
X3635263Y6636881D01*
Y6643440D01*
X3641822Y6650000D01*
X3635263Y6656560D01*
Y6663119D01*
X3641822Y6650000D02*
X3654941D01*
X3595905Y6690321D02*
Y6729679D01*
X3615584D01*
X3622144Y6723119D01*
Y6710000D01*
X3615584Y6703440D01*
X3595905D01*
X3609024D02*
X3622144Y6690321D01*
X3635263Y6729679D02*
X3661501D01*
Y6723119D01*
X3635263Y6696881D01*
Y6690321D01*
X4119679Y6415905D02*
X4080321D01*
Y6435584D01*
X4086881Y6442144D01*
X4100000D01*
X4106560Y6435584D01*
Y6415905D01*
Y6429024D02*
X4119679Y6442144D01*
X4080321Y6481501D02*
X4086881Y6468382D01*
X4100000Y6455263D01*
X4113119D01*
X4119679Y6461822D01*
Y6474941D01*
X4113119Y6481501D01*
X4106560D01*
X4100000Y6474941D01*
Y6455263D01*
X3675905Y6890321D02*
Y6929679D01*
X3695584D01*
X3702144Y6923119D01*
Y6910000D01*
X3695584Y6903440D01*
X3675905D01*
X3689024D02*
X3702144Y6890321D01*
X3715263Y6923119D02*
X3721822Y6929679D01*
X3734941D01*
X3741501Y6923119D01*
Y6916560D01*
X3734941Y6910000D01*
X3728382D01*
X3734941D01*
X3741501Y6903440D01*
Y6896881D01*
X3734941Y6890321D01*
X3721822D01*
X3715263Y6896881D01*
X4179679Y6415905D02*
X4140321D01*
Y6435584D01*
X4146881Y6442144D01*
X4160000D01*
X4166560Y6435584D01*
Y6415905D01*
Y6429024D02*
X4179679Y6442144D01*
Y6481501D02*
Y6455263D01*
X4153440Y6481501D01*
X4146881D01*
X4140321Y6474941D01*
Y6461822D01*
X4146881Y6455263D01*
X4239679Y6415905D02*
X4200321D01*
Y6435584D01*
X4206881Y6442144D01*
X4220000D01*
X4226560Y6435584D01*
Y6415905D01*
Y6429025D02*
X4239679Y6442144D01*
Y6455263D02*
Y6468382D01*
Y6461822D01*
X4200321D01*
X4206881Y6455263D01*
X4038000Y3989357D02*
Y3950000D01*
X4064238D01*
X4077357D02*
X4090477D01*
X4083917D01*
Y3989357D01*
X4077357Y3982798D01*
X4110155D02*
X4116715Y3989357D01*
X4129834D01*
X4136393Y3982798D01*
Y3956560D01*
X4129834Y3950000D01*
X4116715D01*
X4110155Y3956560D01*
Y3982798D01*
X2345905Y3979679D02*
Y3940321D01*
X2372144D01*
X2385263Y3946881D02*
X2391822Y3940321D01*
X2404941D01*
X2411501Y3946881D01*
Y3973119D01*
X2404941Y3979679D01*
X2391822D01*
X2385263Y3973119D01*
Y3966559D01*
X2391822Y3960000D01*
X2411501D01*
X2905905Y3979679D02*
Y3940321D01*
X2932144D01*
X2945263Y3973119D02*
X2951822Y3979679D01*
X2964941D01*
X2971501Y3973119D01*
Y3966559D01*
X2964941Y3960000D01*
X2971501Y3953440D01*
Y3946881D01*
X2964941Y3940321D01*
X2951822D01*
X2945263Y3946881D01*
Y3953440D01*
X2951822Y3960000D01*
X2945263Y3966559D01*
Y3973119D01*
X2951822Y3960000D02*
X2964941D01*
X3525905Y3979679D02*
Y3940321D01*
X3552144D01*
X3565263Y3979679D02*
X3591501D01*
Y3973119D01*
X3565263Y3946881D01*
Y3940321D01*
X4085905Y5909679D02*
Y5870321D01*
X4112144D01*
X4151501Y5909679D02*
X4138382Y5903119D01*
X4125263Y5890000D01*
Y5876881D01*
X4131822Y5870321D01*
X4144941D01*
X4151501Y5876881D01*
Y5883440D01*
X4144941Y5890000D01*
X4125263D01*
X4200905Y4764679D02*
Y4725321D01*
X4227144D01*
X4240263Y4758119D02*
X4246822Y4764679D01*
X4259941D01*
X4266501Y4758119D01*
Y4751560D01*
X4259941Y4745000D01*
X4253382D01*
X4259941D01*
X4266501Y4738440D01*
Y4731881D01*
X4259941Y4725321D01*
X4246822D01*
X4240263Y4731881D01*
X7122144Y4899679D02*
X7109025D01*
X7115584D01*
Y4866881D01*
X7109025Y4860321D01*
X7102465D01*
X7095905Y4866881D01*
X7135263Y4860321D02*
X7148382D01*
X7141822D01*
Y4899679D01*
X7135263Y4893119D01*
X7194299Y4860321D02*
X7168061D01*
X7194299Y4886560D01*
Y4893119D01*
X7187739Y4899679D01*
X7174620D01*
X7168061Y4893119D01*
X6832144Y4899679D02*
X6819025D01*
X6825584D01*
Y4866881D01*
X6819025Y4860321D01*
X6812465D01*
X6805905Y4866881D01*
X6845263Y4860321D02*
X6858382D01*
X6851822D01*
Y4899679D01*
X6845263Y4893119D01*
X6878061Y4860321D02*
X6891180D01*
X6884620D01*
Y4899679D01*
X6878061Y4893119D01*
X5452144Y7709679D02*
X5439025D01*
X5445584D01*
Y7676881D01*
X5439025Y7670321D01*
X5432465D01*
X5425905Y7676881D01*
X5465263Y7670321D02*
X5478382D01*
X5471822D01*
Y7709679D01*
X5465263Y7703119D01*
X5498061D02*
X5504620Y7709679D01*
X5517739D01*
X5524299Y7703119D01*
Y7676881D01*
X5517739Y7670321D01*
X5504620D01*
X5498061Y7676881D01*
Y7703119D01*
X5472144Y2344679D02*
X5459025D01*
X5465584D01*
Y2311881D01*
X5459025Y2305321D01*
X5452465D01*
X5445905Y2311881D01*
X5485263D02*
X5491822Y2305321D01*
X5504941D01*
X5511501Y2311881D01*
Y2338119D01*
X5504941Y2344679D01*
X5491822D01*
X5485263Y2338119D01*
Y2331559D01*
X5491822Y2325000D01*
X5511501D01*
X4812144Y7709679D02*
X4799025D01*
X4805584D01*
Y7676881D01*
X4799025Y7670321D01*
X4792465D01*
X4785905Y7676881D01*
X4825263Y7703119D02*
X4831822Y7709679D01*
X4844941D01*
X4851501Y7703119D01*
Y7696560D01*
X4844941Y7690000D01*
X4851501Y7683440D01*
Y7676881D01*
X4844941Y7670321D01*
X4831822D01*
X4825263Y7676881D01*
Y7683440D01*
X4831822Y7690000D01*
X4825263Y7696560D01*
Y7703119D01*
X4831822Y7690000D02*
X4844941D01*
X6982144Y7849679D02*
X6969025D01*
X6975584D01*
Y7816881D01*
X6969025Y7810321D01*
X6962465D01*
X6955905Y7816881D01*
X6995263Y7849679D02*
X7021501D01*
Y7843119D01*
X6995263Y7816881D01*
Y7810321D01*
X6982144Y4349679D02*
X6969025D01*
X6975584D01*
Y4316881D01*
X6969025Y4310321D01*
X6962465D01*
X6955905Y4316881D01*
X7021501Y4349679D02*
X7008382Y4343119D01*
X6995263Y4330000D01*
Y4316881D01*
X7001822Y4310321D01*
X7014941D01*
X7021501Y4316881D01*
Y4323440D01*
X7014941Y4330000D01*
X6995263D01*
X2222144Y6319679D02*
X2209024D01*
X2215584D01*
Y6286881D01*
X2209024Y6280321D01*
X2202465D01*
X2195905Y6286881D01*
X2261501Y6319679D02*
X2235263D01*
Y6300000D01*
X2248382Y6306560D01*
X2254941D01*
X2261501Y6300000D01*
Y6286881D01*
X2254941Y6280321D01*
X2241822D01*
X2235263Y6286881D01*
X2222144Y5119679D02*
X2209024D01*
X2215584D01*
Y5086881D01*
X2209024Y5080321D01*
X2202465D01*
X2195905Y5086881D01*
X2254941Y5080321D02*
Y5119679D01*
X2235263Y5100000D01*
X2261501D01*
X2982144Y7489679D02*
X2969024D01*
X2975584D01*
Y7456881D01*
X2969024Y7450321D01*
X2962465D01*
X2955905Y7456881D01*
X2995263Y7483119D02*
X3001822Y7489679D01*
X3014941D01*
X3021501Y7483119D01*
Y7476560D01*
X3014941Y7470000D01*
X3008382D01*
X3014941D01*
X3021501Y7463440D01*
Y7456881D01*
X3014941Y7450321D01*
X3001822D01*
X2995263Y7456881D01*
X2222144Y7349679D02*
X2209024D01*
X2215584D01*
Y7316881D01*
X2209024Y7310321D01*
X2202465D01*
X2195905Y7316881D01*
X2261501Y7310321D02*
X2235263D01*
X2261501Y7336560D01*
Y7343119D01*
X2254941Y7349679D01*
X2241822D01*
X2235263Y7343119D01*
X4880321Y7142144D02*
Y7129025D01*
Y7135584D01*
X4913119D01*
X4919679Y7129025D01*
Y7122465D01*
X4913119Y7115905D01*
X4919679Y7155263D02*
Y7168382D01*
Y7161822D01*
X4880321D01*
X4886881Y7155263D01*
X2955905Y3149679D02*
Y3110321D01*
X2975584D01*
X2982144Y3116881D01*
Y3143119D01*
X2975584Y3149679D01*
X2955905D01*
X3014941Y3110321D02*
Y3149679D01*
X2995263Y3130000D01*
X3021501D01*
X3435905Y3149679D02*
Y3110321D01*
X3455584D01*
X3462144Y3116881D01*
Y3143119D01*
X3455584Y3149679D01*
X3435905D01*
X3475263Y3143119D02*
X3481822Y3149679D01*
X3494941D01*
X3501501Y3143119D01*
Y3136559D01*
X3494941Y3130000D01*
X3488382D01*
X3494941D01*
X3501501Y3123440D01*
Y3116881D01*
X3494941Y3110321D01*
X3481822D01*
X3475263Y3116881D01*
X3915905Y3149679D02*
Y3110321D01*
X3935584D01*
X3942144Y3116881D01*
Y3143119D01*
X3935584Y3149679D01*
X3915905D01*
X3981501Y3110321D02*
X3955263D01*
X3981501Y3136559D01*
Y3143119D01*
X3974941Y3149679D01*
X3961822D01*
X3955263Y3143119D01*
X2515905Y7359679D02*
Y7320321D01*
X2535584D01*
X2542144Y7326881D01*
Y7353119D01*
X2535584Y7359679D01*
X2515905D01*
X2555263Y7320321D02*
X2568382D01*
X2561822D01*
Y7359679D01*
X2555263Y7353119D01*
X5892144Y5893119D02*
X5885584Y5899679D01*
X5872465D01*
X5865905Y5893119D01*
Y5866881D01*
X5872465Y5860321D01*
X5885584D01*
X5892144Y5866881D01*
X5905263Y5860321D02*
X5918382D01*
X5911822D01*
Y5899679D01*
X5905263Y5893119D01*
X5964299Y5860321D02*
X5938061D01*
X5964299Y5886560D01*
Y5893119D01*
X5957739Y5899679D01*
X5944620D01*
X5938061Y5893119D01*
X5997097Y5860321D02*
Y5899679D01*
X5977418Y5880000D01*
X6003656D01*
X5596881Y4552144D02*
X5590321Y4545584D01*
Y4532465D01*
X5596881Y4525905D01*
X5623119D01*
X5629679Y4532465D01*
Y4545584D01*
X5623119Y4552144D01*
X5629679Y4565263D02*
Y4578382D01*
Y4571822D01*
X5590321D01*
X5596881Y4565263D01*
X5629679Y4624299D02*
Y4598060D01*
X5603440Y4624299D01*
X5596881D01*
X5590321Y4617739D01*
Y4604620D01*
X5596881Y4598060D01*
Y4637418D02*
X5590321Y4643977D01*
Y4657097D01*
X5596881Y4663656D01*
X5603440D01*
X5610000Y4657097D01*
Y4650537D01*
Y4657097D01*
X5616560Y4663656D01*
X5623119D01*
X5629679Y4657097D01*
Y4643977D01*
X5623119Y4637418D01*
X6026881Y4372144D02*
X6020321Y4365584D01*
Y4352465D01*
X6026881Y4345905D01*
X6053119D01*
X6059679Y4352465D01*
Y4365584D01*
X6053119Y4372144D01*
X6059679Y4385263D02*
Y4398382D01*
Y4391822D01*
X6020321D01*
X6026881Y4385263D01*
X6059679Y4444299D02*
Y4418060D01*
X6033440Y4444299D01*
X6026881D01*
X6020321Y4437739D01*
Y4424620D01*
X6026881Y4418060D01*
X6059679Y4483656D02*
Y4457418D01*
X6033440Y4483656D01*
X6026881D01*
X6020321Y4477097D01*
Y4463977D01*
X6026881Y4457418D01*
X3907144Y5333119D02*
X3900584Y5339679D01*
X3887465D01*
X3880905Y5333119D01*
Y5306881D01*
X3887465Y5300321D01*
X3900584D01*
X3907144Y5306881D01*
X3920263Y5300321D02*
X3933382D01*
X3926822D01*
Y5339679D01*
X3920263Y5333119D01*
X3979299Y5300321D02*
X3953061D01*
X3979299Y5326560D01*
Y5333119D01*
X3972739Y5339679D01*
X3959620D01*
X3953061Y5333119D01*
X3992418Y5300321D02*
X4005537D01*
X3998978D01*
Y5339679D01*
X3992418Y5333119D01*
X3606881Y5212144D02*
X3600321Y5205584D01*
Y5192465D01*
X3606881Y5185905D01*
X3633119D01*
X3639679Y5192465D01*
Y5205584D01*
X3633119Y5212144D01*
X3639679Y5225263D02*
Y5238382D01*
Y5231822D01*
X3600321D01*
X3606881Y5225263D01*
X3639679Y5284299D02*
Y5258060D01*
X3613440Y5284299D01*
X3606881D01*
X3600321Y5277739D01*
Y5264620D01*
X3606881Y5258060D01*
Y5297418D02*
X3600321Y5303977D01*
Y5317097D01*
X3606881Y5323656D01*
X3633119D01*
X3639679Y5317097D01*
Y5303977D01*
X3633119Y5297418D01*
X3606881D01*
X3902144Y5168119D02*
X3895584Y5174679D01*
X3882465D01*
X3875905Y5168119D01*
Y5141881D01*
X3882465Y5135321D01*
X3895584D01*
X3902144Y5141881D01*
X3915263Y5135321D02*
X3928382D01*
X3921822D01*
Y5174679D01*
X3915263Y5168119D01*
X3948061Y5135321D02*
X3961180D01*
X3954620D01*
Y5174679D01*
X3948061Y5168119D01*
X3980858Y5141881D02*
X3987418Y5135321D01*
X4000537D01*
X4007097Y5141881D01*
Y5168119D01*
X4000537Y5174679D01*
X3987418D01*
X3980858Y5168119D01*
Y5161560D01*
X3987418Y5155000D01*
X4007097D01*
X4502144Y6038119D02*
X4495584Y6044679D01*
X4482465D01*
X4475905Y6038119D01*
Y6011881D01*
X4482465Y6005321D01*
X4495584D01*
X4502144Y6011881D01*
X4515263Y6005321D02*
X4528382D01*
X4521822D01*
Y6044679D01*
X4515263Y6038119D01*
X4548061D02*
X4554620Y6044679D01*
X4567739D01*
X4574299Y6038119D01*
Y6011881D01*
X4567739Y6005321D01*
X4554620D01*
X4548061Y6011881D01*
Y6038119D01*
X4587418Y6005321D02*
X4600537D01*
X4593978D01*
Y6044679D01*
X4587418Y6038119D01*
X4442144Y6093119D02*
X4435584Y6099679D01*
X4422465D01*
X4415905Y6093119D01*
Y6066881D01*
X4422465Y6060321D01*
X4435584D01*
X4442144Y6066881D01*
X4455263Y6060321D02*
X4468382D01*
X4461822D01*
Y6099679D01*
X4455263Y6093119D01*
X4488061D02*
X4494620Y6099679D01*
X4507739D01*
X4514299Y6093119D01*
Y6066881D01*
X4507739Y6060321D01*
X4494620D01*
X4488061Y6066881D01*
Y6093119D01*
X4527418D02*
X4533978Y6099679D01*
X4547097D01*
X4553656Y6093119D01*
Y6066881D01*
X4547097Y6060321D01*
X4533978D01*
X4527418Y6066881D01*
Y6093119D01*
X4587144Y5923119D02*
X4580584Y5929679D01*
X4567465D01*
X4560905Y5923119D01*
Y5896881D01*
X4567465Y5890321D01*
X4580584D01*
X4587144Y5896881D01*
X4600263D02*
X4606822Y5890321D01*
X4619941D01*
X4626501Y5896881D01*
Y5923119D01*
X4619941Y5929679D01*
X4606822D01*
X4600263Y5923119D01*
Y5916560D01*
X4606822Y5910000D01*
X4626501D01*
X4639620Y5896881D02*
X4646180Y5890321D01*
X4659299D01*
X4665858Y5896881D01*
Y5923119D01*
X4659299Y5929679D01*
X4646180D01*
X4639620Y5923119D01*
Y5916560D01*
X4646180Y5910000D01*
X4665858D01*
X4732144Y5923119D02*
X4725584Y5929679D01*
X4712465D01*
X4705905Y5923119D01*
Y5896881D01*
X4712465Y5890321D01*
X4725584D01*
X4732144Y5896881D01*
X4745263D02*
X4751822Y5890321D01*
X4764941D01*
X4771501Y5896881D01*
Y5923119D01*
X4764941Y5929679D01*
X4751822D01*
X4745263Y5923119D01*
Y5916560D01*
X4751822Y5910000D01*
X4771501D01*
X4784620Y5923119D02*
X4791180Y5929679D01*
X4804299D01*
X4810858Y5923119D01*
Y5916560D01*
X4804299Y5910000D01*
X4810858Y5903440D01*
Y5896881D01*
X4804299Y5890321D01*
X4791180D01*
X4784620Y5896881D01*
Y5903440D01*
X4791180Y5910000D01*
X4784620Y5916560D01*
Y5923119D01*
X4791180Y5910000D02*
X4804299D01*
X4742144Y6238119D02*
X4735584Y6244679D01*
X4722465D01*
X4715905Y6238119D01*
Y6211881D01*
X4722465Y6205321D01*
X4735584D01*
X4742144Y6211881D01*
X4755263D02*
X4761822Y6205321D01*
X4774941D01*
X4781501Y6211881D01*
Y6238119D01*
X4774941Y6244679D01*
X4761822D01*
X4755263Y6238119D01*
Y6231560D01*
X4761822Y6225000D01*
X4781501D01*
X4794620Y6244679D02*
X4820858D01*
Y6238119D01*
X4794620Y6211881D01*
Y6205321D01*
X4586881Y6222144D02*
X4580321Y6215584D01*
Y6202465D01*
X4586881Y6195905D01*
X4613119D01*
X4619679Y6202465D01*
Y6215584D01*
X4613119Y6222144D01*
Y6235263D02*
X4619679Y6241822D01*
Y6254941D01*
X4613119Y6261501D01*
X4586881D01*
X4580321Y6254941D01*
Y6241822D01*
X4586881Y6235263D01*
X4593440D01*
X4600000Y6241822D01*
Y6261501D01*
X4580321Y6300858D02*
X4586881Y6287739D01*
X4600000Y6274620D01*
X4613119D01*
X4619679Y6281180D01*
Y6294299D01*
X4613119Y6300858D01*
X4606560D01*
X4600000Y6294299D01*
Y6274620D01*
X4272144Y6623119D02*
X4265584Y6629679D01*
X4252465D01*
X4245905Y6623119D01*
Y6596881D01*
X4252465Y6590321D01*
X4265584D01*
X4272144Y6596881D01*
X4285263D02*
X4291822Y6590321D01*
X4304941D01*
X4311501Y6596881D01*
Y6623119D01*
X4304941Y6629679D01*
X4291822D01*
X4285263Y6623119D01*
Y6616560D01*
X4291822Y6610000D01*
X4311501D01*
X4350858Y6629679D02*
X4324620D01*
Y6610000D01*
X4337739Y6616560D01*
X4344299D01*
X4350858Y6610000D01*
Y6596881D01*
X4344299Y6590321D01*
X4331180D01*
X4324620Y6596881D01*
X4272144Y6563119D02*
X4265584Y6569679D01*
X4252465D01*
X4245905Y6563119D01*
Y6536881D01*
X4252465Y6530321D01*
X4265584D01*
X4272144Y6536881D01*
X4285263D02*
X4291822Y6530321D01*
X4304941D01*
X4311501Y6536881D01*
Y6563119D01*
X4304941Y6569679D01*
X4291822D01*
X4285263Y6563119D01*
Y6556560D01*
X4291822Y6550000D01*
X4311501D01*
X4344299Y6530321D02*
Y6569679D01*
X4324620Y6550000D01*
X4350858D01*
X4232144Y6323119D02*
X4225584Y6329679D01*
X4212465D01*
X4205905Y6323119D01*
Y6296881D01*
X4212465Y6290321D01*
X4225584D01*
X4232144Y6296881D01*
X4245263D02*
X4251822Y6290321D01*
X4264941D01*
X4271501Y6296881D01*
Y6323119D01*
X4264941Y6329679D01*
X4251822D01*
X4245263Y6323119D01*
Y6316560D01*
X4251822Y6310000D01*
X4271501D01*
X4284620Y6323119D02*
X4291180Y6329679D01*
X4304299D01*
X4310858Y6323119D01*
Y6316560D01*
X4304299Y6310000D01*
X4297739D01*
X4304299D01*
X4310858Y6303440D01*
Y6296881D01*
X4304299Y6290321D01*
X4291180D01*
X4284620Y6296881D01*
X4352144Y6263119D02*
X4345584Y6269679D01*
X4332465D01*
X4325905Y6263119D01*
Y6236881D01*
X4332465Y6230321D01*
X4345584D01*
X4352144Y6236881D01*
X4365263D02*
X4371822Y6230321D01*
X4384941D01*
X4391501Y6236881D01*
Y6263119D01*
X4384941Y6269679D01*
X4371822D01*
X4365263Y6263119D01*
Y6256560D01*
X4371822Y6250000D01*
X4391501D01*
X4430858Y6230321D02*
X4404620D01*
X4430858Y6256560D01*
Y6263119D01*
X4424299Y6269679D01*
X4411180D01*
X4404620Y6263119D01*
X4552144Y6553119D02*
X4545584Y6559679D01*
X4532465D01*
X4525905Y6553119D01*
Y6526881D01*
X4532465Y6520321D01*
X4545584D01*
X4552144Y6526881D01*
X4565263D02*
X4571822Y6520321D01*
X4584941D01*
X4591501Y6526881D01*
Y6553119D01*
X4584941Y6559679D01*
X4571822D01*
X4565263Y6553119D01*
Y6546560D01*
X4571822Y6540000D01*
X4591501D01*
X4604620Y6520321D02*
X4617739D01*
X4611180D01*
Y6559679D01*
X4604620Y6553119D01*
X4552144Y6613119D02*
X4545584Y6619679D01*
X4532465D01*
X4525905Y6613119D01*
Y6586881D01*
X4532465Y6580321D01*
X4545584D01*
X4552144Y6586881D01*
X4565263D02*
X4571822Y6580321D01*
X4584941D01*
X4591501Y6586881D01*
Y6613119D01*
X4584941Y6619679D01*
X4571822D01*
X4565263Y6613119D01*
Y6606560D01*
X4571822Y6600000D01*
X4591501D01*
X4604620Y6613119D02*
X4611180Y6619679D01*
X4624299D01*
X4630858Y6613119D01*
Y6586881D01*
X4624299Y6580321D01*
X4611180D01*
X4604620Y6586881D01*
Y6613119D01*
X4776881Y6297144D02*
X4770321Y6290584D01*
Y6277465D01*
X4776881Y6270905D01*
X4803119D01*
X4809679Y6277465D01*
Y6290584D01*
X4803119Y6297144D01*
X4776881Y6310263D02*
X4770321Y6316822D01*
Y6329941D01*
X4776881Y6336501D01*
X4783440D01*
X4790000Y6329941D01*
X4796560Y6336501D01*
X4803119D01*
X4809679Y6329941D01*
Y6316822D01*
X4803119Y6310263D01*
X4796560D01*
X4790000Y6316822D01*
X4783440Y6310263D01*
X4776881D01*
X4790000Y6316822D02*
Y6329941D01*
X4803119Y6349620D02*
X4809679Y6356180D01*
Y6369299D01*
X4803119Y6375858D01*
X4776881D01*
X4770321Y6369299D01*
Y6356180D01*
X4776881Y6349620D01*
X4783440D01*
X4790000Y6356180D01*
Y6375858D01*
X4546881Y6342144D02*
X4540321Y6335584D01*
Y6322465D01*
X4546881Y6315905D01*
X4573119D01*
X4579679Y6322465D01*
Y6335584D01*
X4573119Y6342144D01*
X4546881Y6355263D02*
X4540321Y6361822D01*
Y6374941D01*
X4546881Y6381501D01*
X4553440D01*
X4560000Y6374941D01*
X4566560Y6381501D01*
X4573119D01*
X4579679Y6374941D01*
Y6361822D01*
X4573119Y6355263D01*
X4566560D01*
X4560000Y6361822D01*
X4553440Y6355263D01*
X4546881D01*
X4560000Y6361822D02*
Y6374941D01*
X4546881Y6394620D02*
X4540321Y6401180D01*
Y6414299D01*
X4546881Y6420858D01*
X4553440D01*
X4560000Y6414299D01*
X4566560Y6420858D01*
X4573119D01*
X4579679Y6414299D01*
Y6401180D01*
X4573119Y6394620D01*
X4566560D01*
X4560000Y6401180D01*
X4553440Y6394620D01*
X4546881D01*
X4560000Y6401180D02*
Y6414299D01*
X4456881Y6562144D02*
X4450321Y6555584D01*
Y6542465D01*
X4456881Y6535905D01*
X4483119D01*
X4489679Y6542465D01*
Y6555584D01*
X4483119Y6562144D01*
X4456881Y6575263D02*
X4450321Y6581822D01*
Y6594941D01*
X4456881Y6601501D01*
X4463440D01*
X4470000Y6594941D01*
X4476560Y6601501D01*
X4483119D01*
X4489679Y6594941D01*
Y6581822D01*
X4483119Y6575263D01*
X4476560D01*
X4470000Y6581822D01*
X4463440Y6575263D01*
X4456881D01*
X4470000Y6581822D02*
Y6594941D01*
X4450321Y6614620D02*
Y6640858D01*
X4456881D01*
X4483119Y6614620D01*
X4489679D01*
X4386881Y6632144D02*
X4380321Y6625584D01*
Y6612465D01*
X4386881Y6605905D01*
X4413119D01*
X4419679Y6612465D01*
Y6625584D01*
X4413119Y6632144D01*
X4386881Y6645263D02*
X4380321Y6651822D01*
Y6664941D01*
X4386881Y6671501D01*
X4393440D01*
X4400000Y6664941D01*
X4406560Y6671501D01*
X4413119D01*
X4419679Y6664941D01*
Y6651822D01*
X4413119Y6645263D01*
X4406560D01*
X4400000Y6651822D01*
X4393440Y6645263D01*
X4386881D01*
X4400000Y6651822D02*
Y6664941D01*
X4380321Y6710858D02*
X4386881Y6697739D01*
X4400000Y6684620D01*
X4413119D01*
X4419679Y6691180D01*
Y6704299D01*
X4413119Y6710858D01*
X4406560D01*
X4400000Y6704299D01*
Y6684620D01*
X4726881Y6562144D02*
X4720321Y6555584D01*
Y6542465D01*
X4726881Y6535905D01*
X4753119D01*
X4759679Y6542465D01*
Y6555584D01*
X4753119Y6562144D01*
X4726881Y6575263D02*
X4720321Y6581822D01*
Y6594941D01*
X4726881Y6601501D01*
X4733440D01*
X4740000Y6594941D01*
X4746560Y6601501D01*
X4753119D01*
X4759679Y6594941D01*
Y6581822D01*
X4753119Y6575263D01*
X4746560D01*
X4740000Y6581822D01*
X4733440Y6575263D01*
X4726881D01*
X4740000Y6581822D02*
Y6594941D01*
X4720321Y6640858D02*
Y6614620D01*
X4740000D01*
X4733440Y6627739D01*
Y6634299D01*
X4740000Y6640858D01*
X4753119D01*
X4759679Y6634299D01*
Y6621180D01*
X4753119Y6614620D01*
X4666881Y6632144D02*
X4660321Y6625584D01*
Y6612465D01*
X4666881Y6605905D01*
X4693119D01*
X4699679Y6612465D01*
Y6625584D01*
X4693119Y6632144D01*
X4666881Y6645263D02*
X4660321Y6651822D01*
Y6664941D01*
X4666881Y6671501D01*
X4673440D01*
X4680000Y6664941D01*
X4686560Y6671501D01*
X4693119D01*
X4699679Y6664941D01*
Y6651822D01*
X4693119Y6645263D01*
X4686560D01*
X4680000Y6651822D01*
X4673440Y6645263D01*
X4666881D01*
X4680000Y6651822D02*
Y6664941D01*
X4699679Y6704299D02*
X4660321D01*
X4680000Y6684620D01*
Y6710858D01*
X3286881Y7342144D02*
X3280321Y7335584D01*
Y7322465D01*
X3286881Y7315905D01*
X3313119D01*
X3319679Y7322465D01*
Y7335584D01*
X3313119Y7342144D01*
X3286881Y7355263D02*
X3280321Y7361822D01*
Y7374941D01*
X3286881Y7381501D01*
X3293440D01*
X3300000Y7374941D01*
X3306559Y7381501D01*
X3313119D01*
X3319679Y7374941D01*
Y7361822D01*
X3313119Y7355263D01*
X3306559D01*
X3300000Y7361822D01*
X3293440Y7355263D01*
X3286881D01*
X3300000Y7361822D02*
Y7374941D01*
X3286881Y7394620D02*
X3280321Y7401180D01*
Y7414299D01*
X3286881Y7420858D01*
X3293440D01*
X3300000Y7414299D01*
Y7407739D01*
Y7414299D01*
X3306559Y7420858D01*
X3313119D01*
X3319679Y7414299D01*
Y7401180D01*
X3313119Y7394620D01*
X3116881Y7152144D02*
X3110321Y7145584D01*
Y7132465D01*
X3116881Y7125905D01*
X3143119D01*
X3149679Y7132465D01*
Y7145584D01*
X3143119Y7152144D01*
X3116881Y7165263D02*
X3110321Y7171822D01*
Y7184941D01*
X3116881Y7191501D01*
X3123440D01*
X3130000Y7184941D01*
X3136559Y7191501D01*
X3143119D01*
X3149679Y7184941D01*
Y7171822D01*
X3143119Y7165263D01*
X3136559D01*
X3130000Y7171822D01*
X3123440Y7165263D01*
X3116881D01*
X3130000Y7171822D02*
Y7184941D01*
X3149679Y7230858D02*
Y7204620D01*
X3123440Y7230858D01*
X3116881D01*
X3110321Y7224299D01*
Y7211180D01*
X3116881Y7204620D01*
X3176881Y7152144D02*
X3170321Y7145584D01*
Y7132465D01*
X3176881Y7125905D01*
X3203119D01*
X3209679Y7132465D01*
Y7145584D01*
X3203119Y7152144D01*
X3176881Y7165263D02*
X3170321Y7171822D01*
Y7184941D01*
X3176881Y7191501D01*
X3183441D01*
X3190000Y7184941D01*
X3196560Y7191501D01*
X3203119D01*
X3209679Y7184941D01*
Y7171822D01*
X3203119Y7165263D01*
X3196560D01*
X3190000Y7171822D01*
X3183441Y7165263D01*
X3176881D01*
X3190000Y7171822D02*
Y7184941D01*
X3209679Y7204620D02*
Y7217739D01*
Y7211180D01*
X3170321D01*
X3176881Y7204620D01*
X3442144Y6753119D02*
X3435584Y6759679D01*
X3422465D01*
X3415905Y6753119D01*
Y6726881D01*
X3422465Y6720321D01*
X3435584D01*
X3442144Y6726881D01*
X3455263Y6753119D02*
X3461822Y6759679D01*
X3474941D01*
X3481501Y6753119D01*
Y6746560D01*
X3474941Y6740000D01*
X3481501Y6733440D01*
Y6726881D01*
X3474941Y6720321D01*
X3461822D01*
X3455263Y6726881D01*
Y6733440D01*
X3461822Y6740000D01*
X3455263Y6746560D01*
Y6753119D01*
X3461822Y6740000D02*
X3474941D01*
X3494620Y6753119D02*
X3501180Y6759679D01*
X3514299D01*
X3520858Y6753119D01*
Y6726881D01*
X3514299Y6720321D01*
X3501180D01*
X3494620Y6726881D01*
Y6753119D01*
X3442144Y7113119D02*
X3435584Y7119679D01*
X3422465D01*
X3415905Y7113119D01*
Y7086881D01*
X3422465Y7080321D01*
X3435584D01*
X3442144Y7086881D01*
X3455263Y7119679D02*
X3481501D01*
Y7113119D01*
X3455263Y7086881D01*
Y7080321D01*
X3494620Y7086881D02*
X3501180Y7080321D01*
X3514299D01*
X3520858Y7086881D01*
Y7113119D01*
X3514299Y7119679D01*
X3501180D01*
X3494620Y7113119D01*
Y7106560D01*
X3501180Y7100000D01*
X3520858D01*
X3442144Y7193119D02*
X3435584Y7199679D01*
X3422465D01*
X3415905Y7193119D01*
Y7166881D01*
X3422465Y7160321D01*
X3435584D01*
X3442144Y7166881D01*
X3455263Y7199679D02*
X3481501D01*
Y7193119D01*
X3455263Y7166881D01*
Y7160321D01*
X3494620Y7193119D02*
X3501180Y7199679D01*
X3514299D01*
X3520858Y7193119D01*
Y7186560D01*
X3514299Y7180000D01*
X3520858Y7173440D01*
Y7166881D01*
X3514299Y7160321D01*
X3501180D01*
X3494620Y7166881D01*
Y7173440D01*
X3501180Y7180000D01*
X3494620Y7186560D01*
Y7193119D01*
X3501180Y7180000D02*
X3514299D01*
X4276881Y3572144D02*
X4270321Y3565584D01*
Y3552465D01*
X4276881Y3545905D01*
X4303119D01*
X4309679Y3552465D01*
Y3565584D01*
X4303119Y3572144D01*
X4270321Y3585263D02*
Y3611501D01*
X4276881D01*
X4303119Y3585263D01*
X4309679D01*
X4270321Y3650858D02*
X4276881Y3637739D01*
X4290000Y3624620D01*
X4303119D01*
X4309679Y3631180D01*
Y3644299D01*
X4303119Y3650858D01*
X4296560D01*
X4290000Y3644299D01*
Y3624620D01*
X4336881Y3572144D02*
X4330321Y3565584D01*
Y3552465D01*
X4336881Y3545905D01*
X4363119D01*
X4369679Y3552465D01*
Y3565584D01*
X4363119Y3572144D01*
X4330321Y3585263D02*
Y3611501D01*
X4336881D01*
X4363119Y3585263D01*
X4369679D01*
X4330321Y3650858D02*
Y3624620D01*
X4350000D01*
X4343440Y3637739D01*
Y3644299D01*
X4350000Y3650858D01*
X4363119D01*
X4369679Y3644299D01*
Y3631180D01*
X4363119Y3624620D01*
X3926881Y3862144D02*
X3920321Y3855584D01*
Y3842465D01*
X3926881Y3835905D01*
X3953119D01*
X3959679Y3842465D01*
Y3855584D01*
X3953119Y3862144D01*
X3920321Y3875263D02*
Y3901501D01*
X3926881D01*
X3953119Y3875263D01*
X3959679D01*
Y3934299D02*
X3920321D01*
X3940000Y3914620D01*
Y3940858D01*
X4226881Y3862144D02*
X4220321Y3855584D01*
Y3842465D01*
X4226881Y3835905D01*
X4253119D01*
X4259679Y3842465D01*
Y3855584D01*
X4253119Y3862144D01*
X4220321Y3875263D02*
Y3901501D01*
X4226881D01*
X4253119Y3875263D01*
X4259679D01*
X4226881Y3914620D02*
X4220321Y3921180D01*
Y3934299D01*
X4226881Y3940858D01*
X4233440D01*
X4240000Y3934299D01*
Y3927739D01*
Y3934299D01*
X4246560Y3940858D01*
X4253119D01*
X4259679Y3934299D01*
Y3921180D01*
X4253119Y3914620D01*
X3916881Y3602144D02*
X3910321Y3595584D01*
Y3582465D01*
X3916881Y3575905D01*
X3943119D01*
X3949679Y3582465D01*
Y3595584D01*
X3943119Y3602144D01*
X3910321Y3615263D02*
Y3641501D01*
X3916881D01*
X3943119Y3615263D01*
X3949679D01*
Y3680858D02*
Y3654620D01*
X3923440Y3680858D01*
X3916881D01*
X3910321Y3674299D01*
Y3661180D01*
X3916881Y3654620D01*
X3976881Y3602144D02*
X3970321Y3595584D01*
Y3582465D01*
X3976881Y3575905D01*
X4003119D01*
X4009679Y3582465D01*
Y3595584D01*
X4003119Y3602144D01*
X3970321Y3615263D02*
Y3641501D01*
X3976881D01*
X4003119Y3615263D01*
X4009679D01*
Y3654620D02*
Y3667739D01*
Y3661180D01*
X3970321D01*
X3976881Y3654620D01*
X4266881Y3712144D02*
X4260321Y3705584D01*
Y3692465D01*
X4266881Y3685905D01*
X4293119D01*
X4299679Y3692465D01*
Y3705584D01*
X4293119Y3712144D01*
X4260321Y3725263D02*
Y3751501D01*
X4266881D01*
X4293119Y3725263D01*
X4299679D01*
X4266881Y3764620D02*
X4260321Y3771180D01*
Y3784299D01*
X4266881Y3790858D01*
X4293119D01*
X4299679Y3784299D01*
Y3771180D01*
X4293119Y3764620D01*
X4266881D01*
X4326881Y3712144D02*
X4320321Y3705584D01*
Y3692465D01*
X4326881Y3685905D01*
X4353119D01*
X4359679Y3692465D01*
Y3705584D01*
X4353119Y3712144D01*
X4320321Y3751501D02*
X4326881Y3738382D01*
X4340000Y3725263D01*
X4353119D01*
X4359679Y3731822D01*
Y3744941D01*
X4353119Y3751501D01*
X4346560D01*
X4340000Y3744941D01*
Y3725263D01*
X4353119Y3764620D02*
X4359679Y3771180D01*
Y3784299D01*
X4353119Y3790858D01*
X4326881D01*
X4320321Y3784299D01*
Y3771180D01*
X4326881Y3764620D01*
X4333440D01*
X4340000Y3771180D01*
Y3790858D01*
X2411881Y3512144D02*
X2405321Y3505584D01*
Y3492465D01*
X2411881Y3485905D01*
X2438119D01*
X2444679Y3492465D01*
Y3505584D01*
X2438119Y3512144D01*
X2405321Y3551501D02*
X2411881Y3538382D01*
X2425000Y3525263D01*
X2438119D01*
X2444679Y3531822D01*
Y3544941D01*
X2438119Y3551501D01*
X2431559D01*
X2425000Y3544941D01*
Y3525263D01*
X2405321Y3564620D02*
Y3590858D01*
X2411881D01*
X2438119Y3564620D01*
X2444679D01*
X2556881Y3562144D02*
X2550321Y3555584D01*
Y3542465D01*
X2556881Y3535905D01*
X2583119D01*
X2589679Y3542465D01*
Y3555584D01*
X2583119Y3562144D01*
X2550321Y3601501D02*
X2556881Y3588382D01*
X2570000Y3575263D01*
X2583119D01*
X2589679Y3581822D01*
Y3594941D01*
X2583119Y3601501D01*
X2576559D01*
X2570000Y3594941D01*
Y3575263D01*
X2550321Y3640858D02*
X2556881Y3627739D01*
X2570000Y3614620D01*
X2583119D01*
X2589679Y3621180D01*
Y3634299D01*
X2583119Y3640858D01*
X2576559D01*
X2570000Y3634299D01*
Y3614620D01*
X2276881Y3932144D02*
X2270321Y3925584D01*
Y3912465D01*
X2276881Y3905905D01*
X2303119D01*
X2309679Y3912465D01*
Y3925584D01*
X2303119Y3932144D01*
X2270321Y3971501D02*
X2276881Y3958382D01*
X2290000Y3945263D01*
X2303119D01*
X2309679Y3951822D01*
Y3964941D01*
X2303119Y3971501D01*
X2296559D01*
X2290000Y3964941D01*
Y3945263D01*
X2270321Y4010858D02*
Y3984620D01*
X2290000D01*
X2283440Y3997739D01*
Y4004299D01*
X2290000Y4010858D01*
X2303119D01*
X2309679Y4004299D01*
Y3991180D01*
X2303119Y3984620D01*
X2216881Y3932144D02*
X2210321Y3925584D01*
Y3912465D01*
X2216881Y3905905D01*
X2243119D01*
X2249679Y3912465D01*
Y3925584D01*
X2243119Y3932144D01*
X2210321Y3971501D02*
X2216881Y3958382D01*
X2230000Y3945263D01*
X2243119D01*
X2249679Y3951822D01*
Y3964941D01*
X2243119Y3971501D01*
X2236559D01*
X2230000Y3964941D01*
Y3945263D01*
X2249679Y4004299D02*
X2210321D01*
X2230000Y3984620D01*
Y4010858D01*
X2456881Y3932144D02*
X2450321Y3925584D01*
Y3912465D01*
X2456881Y3905905D01*
X2483119D01*
X2489679Y3912465D01*
Y3925584D01*
X2483119Y3932144D01*
X2450321Y3971501D02*
X2456881Y3958382D01*
X2470000Y3945263D01*
X2483119D01*
X2489679Y3951822D01*
Y3964941D01*
X2483119Y3971501D01*
X2476559D01*
X2470000Y3964941D01*
Y3945263D01*
X2456881Y3984620D02*
X2450321Y3991180D01*
Y4004299D01*
X2456881Y4010858D01*
X2463440D01*
X2470000Y4004299D01*
Y3997739D01*
Y4004299D01*
X2476559Y4010858D01*
X2483119D01*
X2489679Y4004299D01*
Y3991180D01*
X2483119Y3984620D01*
X2516881Y3932144D02*
X2510321Y3925584D01*
Y3912465D01*
X2516881Y3905905D01*
X2543119D01*
X2549679Y3912465D01*
Y3925584D01*
X2543119Y3932144D01*
X2510321Y3971501D02*
X2516881Y3958382D01*
X2530000Y3945263D01*
X2543119D01*
X2549679Y3951822D01*
Y3964941D01*
X2543119Y3971501D01*
X2536559D01*
X2530000Y3964941D01*
Y3945263D01*
X2549679Y4010858D02*
Y3984620D01*
X2523440Y4010858D01*
X2516881D01*
X2510321Y4004299D01*
Y3991180D01*
X2516881Y3984620D01*
X2121881Y3702144D02*
X2115321Y3695584D01*
Y3682465D01*
X2121881Y3675905D01*
X2148119D01*
X2154679Y3682465D01*
Y3695584D01*
X2148119Y3702144D01*
X2115321Y3741501D02*
X2121881Y3728382D01*
X2135000Y3715263D01*
X2148119D01*
X2154679Y3721822D01*
Y3734941D01*
X2148119Y3741501D01*
X2141560D01*
X2135000Y3734941D01*
Y3715263D01*
X2154679Y3754620D02*
Y3767739D01*
Y3761180D01*
X2115321D01*
X2121881Y3754620D01*
X2181881Y3702144D02*
X2175321Y3695584D01*
Y3682465D01*
X2181881Y3675905D01*
X2208119D01*
X2214679Y3682465D01*
Y3695584D01*
X2208119Y3702144D01*
X2175321Y3741501D02*
X2181881Y3728382D01*
X2195000Y3715263D01*
X2208119D01*
X2214679Y3721822D01*
Y3734941D01*
X2208119Y3741501D01*
X2201559D01*
X2195000Y3734941D01*
Y3715263D01*
X2181881Y3754620D02*
X2175321Y3761180D01*
Y3774299D01*
X2181881Y3780858D01*
X2208119D01*
X2214679Y3774299D01*
Y3761180D01*
X2208119Y3754620D01*
X2181881D01*
X2566881Y3692144D02*
X2560321Y3685584D01*
Y3672465D01*
X2566881Y3665905D01*
X2593119D01*
X2599679Y3672465D01*
Y3685584D01*
X2593119Y3692144D01*
X2560321Y3731501D02*
Y3705263D01*
X2580000D01*
X2573440Y3718382D01*
Y3724941D01*
X2580000Y3731501D01*
X2593119D01*
X2599679Y3724941D01*
Y3711822D01*
X2593119Y3705263D01*
Y3744620D02*
X2599679Y3751180D01*
Y3764299D01*
X2593119Y3770858D01*
X2566881D01*
X2560321Y3764299D01*
Y3751180D01*
X2566881Y3744620D01*
X2573440D01*
X2580000Y3751180D01*
Y3770858D01*
X2566881Y3822144D02*
X2560321Y3815584D01*
Y3802465D01*
X2566881Y3795905D01*
X2593119D01*
X2599679Y3802465D01*
Y3815584D01*
X2593119Y3822144D01*
X2560321Y3861501D02*
Y3835263D01*
X2580000D01*
X2573440Y3848382D01*
Y3854941D01*
X2580000Y3861501D01*
X2593119D01*
X2599679Y3854941D01*
Y3841822D01*
X2593119Y3835263D01*
X2566881Y3874620D02*
X2560321Y3881180D01*
Y3894299D01*
X2566881Y3900858D01*
X2573440D01*
X2580000Y3894299D01*
X2586559Y3900858D01*
X2593119D01*
X2599679Y3894299D01*
Y3881180D01*
X2593119Y3874620D01*
X2586559D01*
X2580000Y3881180D01*
X2573440Y3874620D01*
X2566881D01*
X2580000Y3881180D02*
Y3894299D01*
X3116881Y3542144D02*
X3110321Y3535584D01*
Y3522465D01*
X3116881Y3515905D01*
X3143119D01*
X3149679Y3522465D01*
Y3535584D01*
X3143119Y3542144D01*
X3110321Y3581501D02*
Y3555263D01*
X3130000D01*
X3123440Y3568382D01*
Y3574941D01*
X3130000Y3581501D01*
X3143119D01*
X3149679Y3574941D01*
Y3561822D01*
X3143119Y3555263D01*
X3110321Y3620858D02*
X3116881Y3607739D01*
X3130000Y3594620D01*
X3143119D01*
X3149679Y3601180D01*
Y3614299D01*
X3143119Y3620858D01*
X3136559D01*
X3130000Y3614299D01*
Y3594620D01*
X3176881Y3542144D02*
X3170321Y3535584D01*
Y3522465D01*
X3176881Y3515905D01*
X3203119D01*
X3209679Y3522465D01*
Y3535584D01*
X3203119Y3542144D01*
X3170321Y3581501D02*
Y3555263D01*
X3190000D01*
X3183440Y3568382D01*
Y3574941D01*
X3190000Y3581501D01*
X3203119D01*
X3209679Y3574941D01*
Y3561822D01*
X3203119Y3555263D01*
X3170321Y3620858D02*
Y3594620D01*
X3190000D01*
X3183440Y3607739D01*
Y3614299D01*
X3190000Y3620858D01*
X3203119D01*
X3209679Y3614299D01*
Y3601180D01*
X3203119Y3594620D01*
X2772144Y3993119D02*
X2765584Y3999679D01*
X2752465D01*
X2745905Y3993119D01*
Y3966881D01*
X2752465Y3960321D01*
X2765584D01*
X2772144Y3966881D01*
X2811501Y3999679D02*
X2785263D01*
Y3980000D01*
X2798382Y3986559D01*
X2804941D01*
X2811501Y3980000D01*
Y3966881D01*
X2804941Y3960321D01*
X2791822D01*
X2785263Y3966881D01*
X2844299Y3960321D02*
Y3999679D01*
X2824620Y3980000D01*
X2850858D01*
X3062144Y3993119D02*
X3055584Y3999679D01*
X3042465D01*
X3035905Y3993119D01*
Y3966881D01*
X3042465Y3960321D01*
X3055584D01*
X3062144Y3966881D01*
X3101501Y3999679D02*
X3075263D01*
Y3980000D01*
X3088382Y3986559D01*
X3094941D01*
X3101501Y3980000D01*
Y3966881D01*
X3094941Y3960321D01*
X3081822D01*
X3075263Y3966881D01*
X3114620Y3993119D02*
X3121180Y3999679D01*
X3134299D01*
X3140858Y3993119D01*
Y3986559D01*
X3134299Y3980000D01*
X3127739D01*
X3134299D01*
X3140858Y3973440D01*
Y3966881D01*
X3134299Y3960321D01*
X3121180D01*
X3114620Y3966881D01*
X2776881Y3582144D02*
X2770321Y3575584D01*
Y3562465D01*
X2776881Y3555905D01*
X2803119D01*
X2809679Y3562465D01*
Y3575584D01*
X2803119Y3582144D01*
X2770321Y3621501D02*
Y3595263D01*
X2790000D01*
X2783440Y3608382D01*
Y3614941D01*
X2790000Y3621501D01*
X2803119D01*
X2809679Y3614941D01*
Y3601822D01*
X2803119Y3595263D01*
X2809679Y3660858D02*
Y3634620D01*
X2783440Y3660858D01*
X2776881D01*
X2770321Y3654299D01*
Y3641180D01*
X2776881Y3634620D01*
X2836881Y3602144D02*
X2830321Y3595584D01*
Y3582465D01*
X2836881Y3575905D01*
X2863119D01*
X2869679Y3582465D01*
Y3595584D01*
X2863119Y3602144D01*
X2830321Y3641501D02*
Y3615263D01*
X2850000D01*
X2843441Y3628382D01*
Y3634941D01*
X2850000Y3641501D01*
X2863119D01*
X2869679Y3634941D01*
Y3621822D01*
X2863119Y3615263D01*
X2869679Y3654620D02*
Y3667739D01*
Y3661180D01*
X2830321D01*
X2836881Y3654620D01*
X3116881Y3662144D02*
X3110321Y3655584D01*
Y3642465D01*
X3116881Y3635905D01*
X3143119D01*
X3149679Y3642465D01*
Y3655584D01*
X3143119Y3662144D01*
X3110321Y3701501D02*
Y3675263D01*
X3130000D01*
X3123440Y3688382D01*
Y3694941D01*
X3130000Y3701501D01*
X3143119D01*
X3149679Y3694941D01*
Y3681822D01*
X3143119Y3675263D01*
X3116881Y3714620D02*
X3110321Y3721180D01*
Y3734299D01*
X3116881Y3740858D01*
X3143119D01*
X3149679Y3734299D01*
Y3721180D01*
X3143119Y3714620D01*
X3116881D01*
X3176881Y3662144D02*
X3170321Y3655584D01*
Y3642465D01*
X3176881Y3635905D01*
X3203119D01*
X3209679Y3642465D01*
Y3655584D01*
X3203119Y3662144D01*
X3209679Y3694941D02*
X3170321D01*
X3190000Y3675263D01*
Y3701501D01*
X3203119Y3714620D02*
X3209679Y3721180D01*
Y3734299D01*
X3203119Y3740858D01*
X3176881D01*
X3170321Y3734299D01*
Y3721180D01*
X3176881Y3714620D01*
X3183440D01*
X3190000Y3721180D01*
Y3740858D01*
X3726881Y3552144D02*
X3720321Y3545584D01*
Y3532465D01*
X3726881Y3525905D01*
X3753119D01*
X3759679Y3532465D01*
Y3545584D01*
X3753119Y3552144D01*
X3759679Y3584941D02*
X3720321D01*
X3740000Y3565263D01*
Y3591501D01*
X3720321Y3604620D02*
Y3630858D01*
X3726881D01*
X3753119Y3604620D01*
X3759679D01*
X3786881Y3552144D02*
X3780321Y3545584D01*
Y3532465D01*
X3786881Y3525905D01*
X3813119D01*
X3819679Y3532465D01*
Y3545584D01*
X3813119Y3552144D01*
X3819679Y3584941D02*
X3780321D01*
X3800000Y3565263D01*
Y3591501D01*
X3780321Y3630858D02*
X3786881Y3617739D01*
X3800000Y3604620D01*
X3813119D01*
X3819679Y3611180D01*
Y3624299D01*
X3813119Y3630858D01*
X3806559D01*
X3800000Y3624299D01*
Y3604620D01*
X3382144Y3993119D02*
X3375584Y3999679D01*
X3362465D01*
X3355905Y3993119D01*
Y3966881D01*
X3362465Y3960321D01*
X3375584D01*
X3382144Y3966881D01*
X3414941Y3960321D02*
Y3999679D01*
X3395263Y3980000D01*
X3421501D01*
X3460858Y3999679D02*
X3434620D01*
Y3980000D01*
X3447739Y3986559D01*
X3454299D01*
X3460858Y3980000D01*
Y3966881D01*
X3454299Y3960321D01*
X3441180D01*
X3434620Y3966881D01*
X3682144Y3993119D02*
X3675584Y3999679D01*
X3662465D01*
X3655905Y3993119D01*
Y3966881D01*
X3662465Y3960321D01*
X3675584D01*
X3682144Y3966881D01*
X3714941Y3960321D02*
Y3999679D01*
X3695263Y3980000D01*
X3721501D01*
X3754299Y3960321D02*
Y3999679D01*
X3734620Y3980000D01*
X3760858D01*
X3866881Y3882144D02*
X3860321Y3875584D01*
Y3862465D01*
X3866881Y3855905D01*
X3893119D01*
X3899679Y3862465D01*
Y3875584D01*
X3893119Y3882144D01*
X3899679Y3914941D02*
X3860321D01*
X3880000Y3895263D01*
Y3921501D01*
X3866881Y3934620D02*
X3860321Y3941180D01*
Y3954299D01*
X3866881Y3960858D01*
X3873440D01*
X3880000Y3954299D01*
Y3947739D01*
Y3954299D01*
X3886559Y3960858D01*
X3893119D01*
X3899679Y3954299D01*
Y3941180D01*
X3893119Y3934620D01*
X3366881Y3662144D02*
X3360321Y3655584D01*
Y3642465D01*
X3366881Y3635905D01*
X3393119D01*
X3399679Y3642465D01*
Y3655584D01*
X3393119Y3662144D01*
X3399679Y3694941D02*
X3360321D01*
X3380000Y3675263D01*
Y3701501D01*
X3399679Y3740858D02*
Y3714620D01*
X3373440Y3740858D01*
X3366881D01*
X3360321Y3734299D01*
Y3721180D01*
X3366881Y3714620D01*
X3806881Y3882144D02*
X3800321Y3875584D01*
Y3862465D01*
X3806881Y3855905D01*
X3833119D01*
X3839679Y3862465D01*
Y3875584D01*
X3833119Y3882144D01*
X3839679Y3914941D02*
X3800321D01*
X3820000Y3895263D01*
Y3921501D01*
X3839679Y3934620D02*
Y3947739D01*
Y3941180D01*
X3800321D01*
X3806881Y3934620D01*
X3306881Y3662144D02*
X3300321Y3655584D01*
Y3642465D01*
X3306881Y3635905D01*
X3333119D01*
X3339679Y3642465D01*
Y3655584D01*
X3333119Y3662144D01*
X3339679Y3694941D02*
X3300321D01*
X3320000Y3675263D01*
Y3701501D01*
X3306881Y3714620D02*
X3300321Y3721180D01*
Y3734299D01*
X3306881Y3740858D01*
X3333119D01*
X3339679Y3734299D01*
Y3721180D01*
X3333119Y3714620D01*
X3306881D01*
X4136881Y6292144D02*
X4130321Y6285584D01*
Y6272465D01*
X4136881Y6265905D01*
X4163119D01*
X4169679Y6272465D01*
Y6285584D01*
X4163119Y6292144D01*
X4136881Y6305263D02*
X4130321Y6311822D01*
Y6324941D01*
X4136881Y6331501D01*
X4143440D01*
X4150000Y6324941D01*
Y6318382D01*
Y6324941D01*
X4156560Y6331501D01*
X4163119D01*
X4169679Y6324941D01*
Y6311822D01*
X4163119Y6305263D01*
Y6344620D02*
X4169679Y6351180D01*
Y6364299D01*
X4163119Y6370858D01*
X4136881D01*
X4130321Y6364299D01*
Y6351180D01*
X4136881Y6344620D01*
X4143440D01*
X4150000Y6351180D01*
Y6370858D01*
X4076881Y6292144D02*
X4070321Y6285584D01*
Y6272465D01*
X4076881Y6265905D01*
X4103119D01*
X4109679Y6272465D01*
Y6285584D01*
X4103119Y6292144D01*
X4076881Y6305263D02*
X4070321Y6311822D01*
Y6324941D01*
X4076881Y6331501D01*
X4083440D01*
X4090000Y6324941D01*
Y6318382D01*
Y6324941D01*
X4096560Y6331501D01*
X4103119D01*
X4109679Y6324941D01*
Y6311822D01*
X4103119Y6305263D01*
X4076881Y6344620D02*
X4070321Y6351180D01*
Y6364299D01*
X4076881Y6370858D01*
X4083440D01*
X4090000Y6364299D01*
X4096560Y6370858D01*
X4103119D01*
X4109679Y6364299D01*
Y6351180D01*
X4103119Y6344620D01*
X4096560D01*
X4090000Y6351180D01*
X4083440Y6344620D01*
X4076881D01*
X4090000Y6351180D02*
Y6364299D01*
X4207144Y4583119D02*
X4200584Y4589679D01*
X4187465D01*
X4180905Y4583119D01*
Y4556881D01*
X4187465Y4550321D01*
X4200584D01*
X4207144Y4556881D01*
X4220263Y4583119D02*
X4226822Y4589679D01*
X4239941D01*
X4246501Y4583119D01*
Y4576560D01*
X4239941Y4570000D01*
X4233382D01*
X4239941D01*
X4246501Y4563440D01*
Y4556881D01*
X4239941Y4550321D01*
X4226822D01*
X4220263Y4556881D01*
X4259620Y4583119D02*
X4266180Y4589679D01*
X4279299D01*
X4285858Y4583119D01*
Y4576560D01*
X4279299Y4570000D01*
X4272739D01*
X4279299D01*
X4285858Y4563440D01*
Y4556881D01*
X4279299Y4550321D01*
X4266180D01*
X4259620Y4556881D01*
X4071881Y4482144D02*
X4065321Y4475584D01*
Y4462465D01*
X4071881Y4455905D01*
X4098119D01*
X4104679Y4462465D01*
Y4475584D01*
X4098119Y4482144D01*
X4071881Y4495263D02*
X4065321Y4501822D01*
Y4514941D01*
X4071881Y4521501D01*
X4078440D01*
X4085000Y4514941D01*
Y4508382D01*
Y4514941D01*
X4091559Y4521501D01*
X4098119D01*
X4104679Y4514941D01*
Y4501822D01*
X4098119Y4495263D01*
X4104679Y4560858D02*
Y4534620D01*
X4078440Y4560858D01*
X4071881D01*
X4065321Y4554299D01*
Y4541180D01*
X4071881Y4534620D01*
X3852144Y3803119D02*
X3845584Y3809679D01*
X3832465D01*
X3825905Y3803119D01*
Y3776881D01*
X3832465Y3770321D01*
X3845584D01*
X3852144Y3776881D01*
X3891501Y3770321D02*
X3865263D01*
X3891501Y3796559D01*
Y3803119D01*
X3884941Y3809679D01*
X3871822D01*
X3865263Y3803119D01*
X3904620D02*
X3911180Y3809679D01*
X3924299D01*
X3930858Y3803119D01*
Y3796559D01*
X3924299Y3790000D01*
X3917739D01*
X3924299D01*
X3930858Y3783440D01*
Y3776881D01*
X3924299Y3770321D01*
X3911180D01*
X3904620Y3776881D01*
X2636881Y3792144D02*
X2630321Y3785584D01*
Y3772465D01*
X2636881Y3765905D01*
X2663119D01*
X2669679Y3772465D01*
Y3785584D01*
X2663119Y3792144D01*
X2669679Y3831501D02*
Y3805263D01*
X2643440Y3831501D01*
X2636881D01*
X2630321Y3824941D01*
Y3811822D01*
X2636881Y3805263D01*
X2669679Y3870858D02*
Y3844620D01*
X2643440Y3870858D01*
X2636881D01*
X2630321Y3864299D01*
Y3851180D01*
X2636881Y3844620D01*
X4396881Y6142144D02*
X4390321Y6135584D01*
Y6122465D01*
X4396881Y6115905D01*
X4423119D01*
X4429679Y6122465D01*
Y6135584D01*
X4423119Y6142144D01*
X4429679Y6181501D02*
Y6155263D01*
X4403440Y6181501D01*
X4396881D01*
X4390321Y6174941D01*
Y6161822D01*
X4396881Y6155263D01*
X4429679Y6194620D02*
Y6207739D01*
Y6201180D01*
X4390321D01*
X4396881Y6194620D01*
X6111881Y5812144D02*
X6105321Y5805584D01*
Y5792465D01*
X6111881Y5785905D01*
X6138119D01*
X6144679Y5792465D01*
Y5805584D01*
X6138119Y5812144D01*
X6144679Y5851501D02*
Y5825263D01*
X6118440Y5851501D01*
X6111881D01*
X6105321Y5844941D01*
Y5831822D01*
X6111881Y5825263D01*
Y5864620D02*
X6105321Y5871180D01*
Y5884299D01*
X6111881Y5890858D01*
X6138119D01*
X6144679Y5884299D01*
Y5871180D01*
X6138119Y5864620D01*
X6111881D01*
X5621881Y5267144D02*
X5615321Y5260584D01*
Y5247465D01*
X5621881Y5240905D01*
X5648119D01*
X5654679Y5247465D01*
Y5260584D01*
X5648119Y5267144D01*
X5654679Y5280263D02*
Y5293382D01*
Y5286822D01*
X5615321D01*
X5621881Y5280263D01*
X5648119Y5313060D02*
X5654679Y5319620D01*
Y5332739D01*
X5648119Y5339299D01*
X5621881D01*
X5615321Y5332739D01*
Y5319620D01*
X5621881Y5313060D01*
X5628440D01*
X5635000Y5319620D01*
Y5339299D01*
X2436881Y6452144D02*
X2430321Y6445584D01*
Y6432465D01*
X2436881Y6425905D01*
X2463119D01*
X2469679Y6432465D01*
Y6445584D01*
X2463119Y6452144D01*
X2469679Y6465263D02*
Y6478382D01*
Y6471822D01*
X2430321D01*
X2436881Y6465263D01*
Y6498060D02*
X2430321Y6504620D01*
Y6517739D01*
X2436881Y6524299D01*
X2443440D01*
X2450000Y6517739D01*
X2456559Y6524299D01*
X2463119D01*
X2469679Y6517739D01*
Y6504620D01*
X2463119Y6498060D01*
X2456559D01*
X2450000Y6504620D01*
X2443440Y6498060D01*
X2436881D01*
X2450000Y6504620D02*
Y6517739D01*
X2436881Y6732144D02*
X2430321Y6725584D01*
Y6712465D01*
X2436881Y6705905D01*
X2463119D01*
X2469679Y6712465D01*
Y6725584D01*
X2463119Y6732144D01*
X2469679Y6745263D02*
Y6758382D01*
Y6751822D01*
X2430321D01*
X2436881Y6745263D01*
X2430321Y6778060D02*
Y6804299D01*
X2436881D01*
X2463119Y6778060D01*
X2469679D01*
X2786881Y7392144D02*
X2780321Y7385584D01*
Y7372465D01*
X2786881Y7365905D01*
X2813119D01*
X2819679Y7372465D01*
Y7385584D01*
X2813119Y7392144D01*
X2819679Y7405263D02*
Y7418382D01*
Y7411822D01*
X2780321D01*
X2786881Y7405263D01*
X2780321Y7464299D02*
X2786881Y7451180D01*
X2800000Y7438060D01*
X2813119D01*
X2819679Y7444620D01*
Y7457739D01*
X2813119Y7464299D01*
X2806559D01*
X2800000Y7457739D01*
Y7438060D01*
X4376881Y7642144D02*
X4370321Y7635584D01*
Y7622465D01*
X4376881Y7615905D01*
X4403119D01*
X4409679Y7622465D01*
Y7635584D01*
X4403119Y7642144D01*
X4409679Y7655263D02*
Y7668382D01*
Y7661822D01*
X4370321D01*
X4376881Y7655263D01*
X4370321Y7714299D02*
Y7688060D01*
X4390000D01*
X4383440Y7701180D01*
Y7707739D01*
X4390000Y7714299D01*
X4403119D01*
X4409679Y7707739D01*
Y7694620D01*
X4403119Y7688060D01*
X4296881Y7642144D02*
X4290321Y7635584D01*
Y7622465D01*
X4296881Y7615905D01*
X4323119D01*
X4329679Y7622465D01*
Y7635584D01*
X4323119Y7642144D01*
X4329679Y7655263D02*
Y7668382D01*
Y7661822D01*
X4290321D01*
X4296881Y7655263D01*
X4329679Y7707739D02*
X4290321D01*
X4310000Y7688060D01*
Y7714299D01*
X3896881Y6352144D02*
X3890321Y6345584D01*
Y6332465D01*
X3896881Y6325905D01*
X3923119D01*
X3929679Y6332465D01*
Y6345584D01*
X3923119Y6352144D01*
X3929679Y6365263D02*
Y6378382D01*
Y6371822D01*
X3890321D01*
X3896881Y6365263D01*
Y6398060D02*
X3890321Y6404620D01*
Y6417739D01*
X3896881Y6424299D01*
X3903440D01*
X3910000Y6417739D01*
Y6411180D01*
Y6417739D01*
X3916559Y6424299D01*
X3923119D01*
X3929679Y6417739D01*
Y6404620D01*
X3923119Y6398060D01*
X3902144Y6603119D02*
X3895584Y6609679D01*
X3882465D01*
X3875905Y6603119D01*
Y6576881D01*
X3882465Y6570321D01*
X3895584D01*
X3902144Y6576881D01*
X3915263Y6570321D02*
X3928382D01*
X3921822D01*
Y6609679D01*
X3915263Y6603119D01*
X3974299Y6570321D02*
X3948061D01*
X3974299Y6596560D01*
Y6603119D01*
X3967739Y6609679D01*
X3954620D01*
X3948061Y6603119D01*
X4212144Y6803119D02*
X4205584Y6809679D01*
X4192465D01*
X4185905Y6803119D01*
Y6776881D01*
X4192465Y6770321D01*
X4205584D01*
X4212144Y6776881D01*
X4225263Y6770321D02*
X4238382D01*
X4231822D01*
Y6809679D01*
X4225263Y6803119D01*
X4258061Y6770321D02*
X4271180D01*
X4264620D01*
Y6809679D01*
X4258061Y6803119D01*
X4196881Y6942144D02*
X4190321Y6935584D01*
Y6922465D01*
X4196881Y6915905D01*
X4223119D01*
X4229679Y6922465D01*
Y6935584D01*
X4223119Y6942144D01*
X4229679Y6955263D02*
Y6968382D01*
Y6961822D01*
X4190321D01*
X4196881Y6955263D01*
Y6988060D02*
X4190321Y6994620D01*
Y7007739D01*
X4196881Y7014299D01*
X4223119D01*
X4229679Y7007739D01*
Y6994620D01*
X4223119Y6988060D01*
X4196881D01*
X4136881Y7052144D02*
X4130321Y7045584D01*
Y7032465D01*
X4136881Y7025905D01*
X4163119D01*
X4169679Y7032465D01*
Y7045584D01*
X4163119Y7052144D01*
X4130321Y7065263D02*
Y7091501D01*
X4136881D01*
X4163119Y7065263D01*
X4169679D01*
X3802144Y6803119D02*
X3795584Y6809679D01*
X3782465D01*
X3775905Y6803119D01*
Y6776881D01*
X3782465Y6770321D01*
X3795584D01*
X3802144Y6776881D01*
X3841501Y6809679D02*
X3828382Y6803119D01*
X3815263Y6790000D01*
Y6776881D01*
X3821822Y6770321D01*
X3834941D01*
X3841501Y6776881D01*
Y6783440D01*
X3834941Y6790000D01*
X3815263D01*
X3802144Y6953119D02*
X3795584Y6959679D01*
X3782465D01*
X3775905Y6953119D01*
Y6926881D01*
X3782465Y6920321D01*
X3795584D01*
X3802144Y6926881D01*
X3841501Y6959679D02*
X3815263D01*
Y6940000D01*
X3828382Y6946560D01*
X3834941D01*
X3841501Y6940000D01*
Y6926881D01*
X3834941Y6920321D01*
X3821822D01*
X3815263Y6926881D01*
X4016881Y7052144D02*
X4010321Y7045584D01*
Y7032465D01*
X4016881Y7025905D01*
X4043119D01*
X4049679Y7032465D01*
Y7045584D01*
X4043119Y7052144D01*
X4049679Y7084941D02*
X4010321D01*
X4030000Y7065263D01*
Y7091501D01*
X4076881Y7052144D02*
X4070321Y7045584D01*
Y7032465D01*
X4076881Y7025905D01*
X4103119D01*
X4109679Y7032465D01*
Y7045584D01*
X4103119Y7052144D01*
X4076881Y7065263D02*
X4070321Y7071822D01*
Y7084941D01*
X4076881Y7091501D01*
X4083440D01*
X4090000Y7084941D01*
Y7078382D01*
Y7084941D01*
X4096560Y7091501D01*
X4103119D01*
X4109679Y7084941D01*
Y7071822D01*
X4103119Y7065263D01*
X4112144Y6603119D02*
X4105584Y6609679D01*
X4092465D01*
X4085905Y6603119D01*
Y6576881D01*
X4092465Y6570321D01*
X4105584D01*
X4112144Y6576881D01*
X4151501Y6570321D02*
X4125263D01*
X4151501Y6596560D01*
Y6603119D01*
X4144941Y6609679D01*
X4131822D01*
X4125263Y6603119D01*
X3956881Y7052144D02*
X3950321Y7045584D01*
Y7032465D01*
X3956881Y7025905D01*
X3983119D01*
X3989679Y7032465D01*
Y7045584D01*
X3983119Y7052144D01*
X3989679Y7065263D02*
Y7078382D01*
Y7071822D01*
X3950321D01*
X3956881Y7065263D01*
X6344095Y4419678D02*
Y4393440D01*
X6330975Y4380321D01*
X6317856Y4393440D01*
Y4419678D01*
Y4400000D01*
X6344095D01*
X6278499Y4419678D02*
X6304737D01*
X6278499Y4393440D01*
Y4386881D01*
X6285059Y4380321D01*
X6298178D01*
X6304737Y4386881D01*
X4239679Y7295905D02*
X4213440D01*
X4200321Y7309025D01*
X4213440Y7322144D01*
X4239679D01*
X4220000D01*
Y7295905D01*
X4239679Y7335263D02*
Y7348382D01*
Y7341822D01*
X4200321D01*
X4206881Y7335263D01*
M02*
