G04*
G04 #@! TF.GenerationSoftware,Altium Limited,Altium Designer,24.3.1 (35)*
G04*
G04 Layer_Color=3707366*
%FSLAX26Y26*%
%MOIN*%
G70*
G04*
G04 #@! TF.SameCoordinates,B8D88BDC-805E-4058-8E5C-6A9D1CDD6E12*
G04*
G04*
G04 #@! TF.FilePolarity,Positive*
G04*
G01*
G75*
%ADD13C,0.006024*%
%ADD106C,0.006000*%
D13*
X2344000Y2200000D02*
X5800000D01*
X2044000Y2500000D02*
X2044000Y4213000D01*
X6000000Y1900000D02*
Y2000000D01*
X2344000Y7810000D02*
X5800000D01*
X6000000Y8010000D02*
Y8110000D01*
X6200000Y8310000D02*
X7150000D01*
X7350000Y1900000D02*
X7350000Y8110000D01*
X6200000Y1700000D02*
X7150000D01*
X2044000Y7510000D02*
X2044000Y4213000D01*
D106*
X7350000Y8110000D02*
X7349743Y8120130D01*
X7348974Y8130234D01*
X7347694Y8140285D01*
X7345906Y8150260D01*
X7343615Y8160131D01*
X7340828Y8169873D01*
X7337550Y8179461D01*
X7333792Y8188871D01*
X7329561Y8198079D01*
X7324869Y8207060D01*
X7319729Y8215793D01*
X7314153Y8224254D01*
X7308155Y8232421D01*
X7301752Y8240274D01*
X7294958Y8247793D01*
X7287793Y8254959D01*
X7280274Y8261752D01*
X7272421Y8268155D01*
X7264254Y8274153D01*
X7255793Y8279729D01*
X7247060Y8284869D01*
X7238079Y8289561D01*
X7228871Y8293791D01*
X7219461Y8297550D01*
X7209873Y8300828D01*
X7200131Y8303615D01*
X7190260Y8305906D01*
X7180285Y8307694D01*
X7170234Y8308974D01*
X7160130Y8309743D01*
X7150000Y8310000D01*
Y1700000D02*
X7160130Y1700257D01*
X7170234Y1701026D01*
X7180286Y1702306D01*
X7190260Y1704094D01*
X7200131Y1706385D01*
X7209873Y1709172D01*
X7219461Y1712450D01*
X7228871Y1716209D01*
X7238079Y1720439D01*
X7247060Y1725131D01*
X7255793Y1730271D01*
X7264254Y1735848D01*
X7272421Y1741845D01*
X7280275Y1748249D01*
X7287793Y1755042D01*
X7294959Y1762207D01*
X7301752Y1769726D01*
X7308155Y1777579D01*
X7314153Y1785747D01*
X7319729Y1794207D01*
X7324869Y1802940D01*
X7329561Y1811921D01*
X7333792Y1821129D01*
X7337551Y1830539D01*
X7340828Y1840128D01*
X7343615Y1849870D01*
X7345906Y1859741D01*
X7347694Y1869715D01*
X7348974Y1879767D01*
X7349743Y1889871D01*
X7350000Y1900000D01*
X5800000Y7810000D02*
X5810130Y7810257D01*
X5820234Y7811026D01*
X5830286Y7812306D01*
X5840260Y7814094D01*
X5850131Y7816385D01*
X5859873Y7819172D01*
X5869461Y7822450D01*
X5878871Y7826208D01*
X5888079Y7830439D01*
X5897060Y7835131D01*
X5905793Y7840271D01*
X5914254Y7845847D01*
X5922421Y7851845D01*
X5930275Y7858248D01*
X5937793Y7865042D01*
X5944959Y7872207D01*
X5951752Y7879726D01*
X5958155Y7887579D01*
X5964153Y7895747D01*
X5969729Y7904207D01*
X5974869Y7912940D01*
X5979561Y7921921D01*
X5983792Y7931129D01*
X5987551Y7940539D01*
X5990828Y7950128D01*
X5993615Y7959870D01*
X5995906Y7969741D01*
X5997694Y7979715D01*
X5998974Y7989767D01*
X5999743Y7999870D01*
X6000000Y8010000D01*
X6200000Y8310000D02*
X6189870Y8309743D01*
X6179766Y8308974D01*
X6169714Y8307694D01*
X6159740Y8305906D01*
X6149869Y8303615D01*
X6140127Y8300828D01*
X6130539Y8297550D01*
X6121129Y8293791D01*
X6111921Y8289561D01*
X6102940Y8284869D01*
X6094207Y8279729D01*
X6085746Y8274153D01*
X6077579Y8268155D01*
X6069725Y8261752D01*
X6062207Y8254959D01*
X6055041Y8247793D01*
X6048248Y8240274D01*
X6041845Y8232421D01*
X6035847Y8224254D01*
X6030271Y8215793D01*
X6025131Y8207060D01*
X6020439Y8198079D01*
X6016208Y8188871D01*
X6012449Y8179461D01*
X6009172Y8169872D01*
X6006385Y8160130D01*
X6004094Y8150259D01*
X6002306Y8140285D01*
X6001026Y8130233D01*
X6000257Y8120130D01*
X6000000Y8110000D01*
X6000000Y2000000D02*
X5999743Y2010130D01*
X5998974Y2020234D01*
X5997694Y2030285D01*
X5995906Y2040260D01*
X5993615Y2050131D01*
X5990828Y2059873D01*
X5987550Y2069461D01*
X5983792Y2078871D01*
X5979561Y2088079D01*
X5974869Y2097060D01*
X5969729Y2105793D01*
X5964153Y2114254D01*
X5958155Y2122421D01*
X5951752Y2130274D01*
X5944958Y2137793D01*
X5937793Y2144959D01*
X5930274Y2151752D01*
X5922421Y2158155D01*
X5914254Y2164153D01*
X5905793Y2169729D01*
X5897060Y2174869D01*
X5888079Y2179561D01*
X5878871Y2183791D01*
X5869461Y2187550D01*
X5859873Y2190828D01*
X5850131Y2193615D01*
X5840260Y2195906D01*
X5830285Y2197694D01*
X5820234Y2198974D01*
X5810130Y2199743D01*
X5800000Y2200000D01*
X6000000Y1900000D02*
X6000257Y1889870D01*
X6001026Y1879766D01*
X6002306Y1869714D01*
X6004094Y1859740D01*
X6006385Y1849869D01*
X6009172Y1840127D01*
X6012450Y1830539D01*
X6016208Y1821129D01*
X6020439Y1811921D01*
X6025131Y1802939D01*
X6030271Y1794207D01*
X6035847Y1785746D01*
X6041845Y1777579D01*
X6048248Y1769725D01*
X6055042Y1762207D01*
X6062207Y1755041D01*
X6069726Y1748248D01*
X6077579Y1741845D01*
X6085747Y1735847D01*
X6094207Y1730271D01*
X6102940Y1725131D01*
X6111921Y1720439D01*
X6121129Y1716208D01*
X6130539Y1712449D01*
X6140128Y1709172D01*
X6149870Y1706384D01*
X6159741Y1704094D01*
X6169715Y1702306D01*
X6179767Y1701026D01*
X6189870Y1700257D01*
X6200000Y1700000D01*
X2344000Y7810000D02*
X2333976Y7809833D01*
X2323962Y7809330D01*
X2313971Y7808493D01*
X2304014Y7807323D01*
X2294101Y7805821D01*
X2284244Y7803989D01*
X2274454Y7801828D01*
X2264741Y7799341D01*
X2255117Y7796531D01*
X2245593Y7793401D01*
X2236178Y7789954D01*
X2226883Y7786195D01*
X2217720Y7782127D01*
X2208697Y7777756D01*
X2199825Y7773085D01*
X2191115Y7768120D01*
X2182575Y7762868D01*
X2174216Y7757332D01*
X2166046Y7751521D01*
X2158075Y7745440D01*
X2150312Y7739096D01*
X2142765Y7732496D01*
X2135442Y7725647D01*
X2128353Y7718558D01*
X2121505Y7711235D01*
X2114905Y7703689D01*
X2108560Y7695925D01*
X2102479Y7687954D01*
X2096668Y7679784D01*
X2091133Y7671425D01*
X2085880Y7662885D01*
X2080915Y7654175D01*
X2076244Y7645303D01*
X2071873Y7636281D01*
X2067805Y7627117D01*
X2064046Y7617823D01*
X2060599Y7608408D01*
X2057469Y7598883D01*
X2054659Y7589259D01*
X2052173Y7579547D01*
X2050012Y7569757D01*
X2048179Y7559900D01*
X2046677Y7549987D01*
X2045507Y7540029D01*
X2044670Y7530039D01*
X2044168Y7520025D01*
X2044000Y7510001D01*
X2044000Y2500000D02*
X2044167Y2489976D01*
X2044670Y2479962D01*
X2045506Y2469971D01*
X2046677Y2460014D01*
X2048179Y2450101D01*
X2050011Y2440244D01*
X2052172Y2430454D01*
X2054659Y2420742D01*
X2057469Y2411118D01*
X2060599Y2401593D01*
X2064046Y2392178D01*
X2067805Y2382884D01*
X2071872Y2373720D01*
X2076244Y2364697D01*
X2080915Y2355826D01*
X2085879Y2347115D01*
X2091132Y2338576D01*
X2096667Y2330216D01*
X2102479Y2322047D01*
X2108560Y2314076D01*
X2114904Y2306312D01*
X2121504Y2298765D01*
X2128352Y2291443D01*
X2135441Y2284354D01*
X2142764Y2277505D01*
X2150311Y2270905D01*
X2158074Y2264561D01*
X2166045Y2258480D01*
X2174215Y2252668D01*
X2182574Y2247133D01*
X2191114Y2241880D01*
X2199824Y2236916D01*
X2208696Y2232245D01*
X2217718Y2227873D01*
X2226882Y2223805D01*
X2236176Y2220046D01*
X2245591Y2216600D01*
X2255116Y2213470D01*
X2264740Y2210660D01*
X2274452Y2208173D01*
X2284243Y2206012D01*
X2294099Y2204179D01*
X2304012Y2202677D01*
X2313970Y2201507D01*
X2323960Y2200670D01*
X2333974Y2200168D01*
X2343998Y2200000D01*
M02*
