G04*
G04 #@! TF.GenerationSoftware,Altium Limited,Altium Designer,24.3.1 (35)*
G04*
G04 Layer_Color=5220458*
%FSLAX26Y26*%
%MOIN*%
G70*
G04*
G04 #@! TF.SameCoordinates,B8D88BDC-805E-4058-8E5C-6A9D1CDD6E12*
G04*
G04*
G04 #@! TF.FilePolarity,Positive*
G04*
G01*
G75*
%ADD13C,0.006024*%
%ADD20C,0.005906*%
D13*
X3713114Y7193748D02*
X3712081Y7203570D01*
X3709029Y7212963D01*
X3704091Y7221517D01*
X3697482Y7228857D01*
X3689492Y7234662D01*
X3680469Y7238679D01*
X3670808Y7240733D01*
X3660931D01*
X3651271Y7238679D01*
X3642248Y7234662D01*
X3634257Y7228857D01*
X3627648Y7221517D01*
X3622710Y7212963D01*
X3619658Y7203570D01*
X3618626Y7193748D01*
X3619658Y7183925D01*
X3622710Y7174532D01*
X3627648Y7165978D01*
X3634257Y7158638D01*
X3642248Y7152833D01*
X3651271Y7148816D01*
X3660931Y7146762D01*
X3670808D01*
X3680469Y7148816D01*
X3689492Y7152833D01*
X3697482Y7158638D01*
X3704091Y7165978D01*
X3709029Y7174532D01*
X3712081Y7183925D01*
X3713114Y7193748D01*
X6087766Y5815000D02*
X6086734Y5824823D01*
X6083681Y5834216D01*
X6078743Y5842769D01*
X6072134Y5850109D01*
X6064144Y5855915D01*
X6055121Y5859932D01*
X6045460Y5861985D01*
X6035583D01*
X6025923Y5859932D01*
X6016900Y5855915D01*
X6008909Y5850109D01*
X6002301Y5842769D01*
X5997362Y5834216D01*
X5994310Y5824823D01*
X5993278Y5815000D01*
X5994310Y5805177D01*
X5997362Y5795784D01*
X6002301Y5787231D01*
X6008909Y5779891D01*
X6016900Y5774085D01*
X6025923Y5770068D01*
X6035583Y5768015D01*
X6045460D01*
X6055121Y5770068D01*
X6064144Y5774085D01*
X6072134Y5779891D01*
X6078743Y5787231D01*
X6083681Y5795784D01*
X6086734Y5805177D01*
X6087766Y5815000D01*
X6087766Y5709478D02*
X6086733Y5719301D01*
X6083681Y5728694D01*
X6078743Y5737248D01*
X6072134Y5744587D01*
X6064144Y5750393D01*
X6055121Y5754410D01*
X6045460Y5756463D01*
X6035583D01*
X6025922Y5754410D01*
X6016900Y5750393D01*
X6008909Y5744587D01*
X6002300Y5737248D01*
X5997362Y5728694D01*
X5994310Y5719301D01*
X5993278Y5709478D01*
X5994310Y5699656D01*
X5997362Y5690262D01*
X6002300Y5681709D01*
X6008909Y5674369D01*
X6016900Y5668564D01*
X6025922Y5664546D01*
X6035583Y5662493D01*
X6045460D01*
X6055121Y5664546D01*
X6064144Y5668564D01*
X6072134Y5674369D01*
X6078743Y5681709D01*
X6083681Y5690262D01*
X6086733Y5699656D01*
X6087766Y5709478D01*
X4872244Y5720000D02*
X4871212Y5729823D01*
X4868160Y5739216D01*
X4863221Y5747769D01*
X4856613Y5755109D01*
X4848622Y5760915D01*
X4839599Y5764932D01*
X4829938Y5766985D01*
X4820062D01*
X4810401Y5764932D01*
X4801378Y5760915D01*
X4793387Y5755109D01*
X4786779Y5747769D01*
X4781840Y5739216D01*
X4778788Y5729823D01*
X4777756Y5720000D01*
X4778788Y5710177D01*
X4781840Y5700784D01*
X4786779Y5692231D01*
X4793387Y5684891D01*
X4801378Y5679085D01*
X4810401Y5675068D01*
X4820062Y5673015D01*
X4829938D01*
X4839599Y5675068D01*
X4848622Y5679085D01*
X4856613Y5684891D01*
X4863221Y5692231D01*
X4868160Y5700784D01*
X4871212Y5710177D01*
X4872244Y5720000D01*
X4272244Y5330000D02*
X4271212Y5339823D01*
X4268160Y5349216D01*
X4263221Y5357769D01*
X4256613Y5365109D01*
X4248622Y5370915D01*
X4239599Y5374932D01*
X4229938Y5376985D01*
X4220062D01*
X4210401Y5374932D01*
X4201378Y5370915D01*
X4193387Y5365109D01*
X4186779Y5357769D01*
X4181840Y5349216D01*
X4178788Y5339823D01*
X4177756Y5330000D01*
X4178788Y5320177D01*
X4181840Y5310784D01*
X4186779Y5302231D01*
X4193387Y5294891D01*
X4201378Y5289085D01*
X4210401Y5285068D01*
X4220062Y5283015D01*
X4229938D01*
X4239599Y5285068D01*
X4248622Y5289085D01*
X4256613Y5294891D01*
X4263221Y5302231D01*
X4268160Y5310784D01*
X4271212Y5320177D01*
X4272244Y5330000D01*
X5597537Y5923914D02*
X5596504Y5933737D01*
X5593452Y5943130D01*
X5588514Y5951683D01*
X5581905Y5959023D01*
X5573914Y5964829D01*
X5564892Y5968846D01*
X5555231Y5970899D01*
X5545354D01*
X5535693Y5968846D01*
X5526670Y5964829D01*
X5518680Y5959023D01*
X5512071Y5951683D01*
X5507133Y5943130D01*
X5504081Y5933737D01*
X5503048Y5923914D01*
X5504081Y5914091D01*
X5507133Y5904698D01*
X5512071Y5896145D01*
X5518680Y5888805D01*
X5526670Y5882999D01*
X5535693Y5878982D01*
X5545354Y5876929D01*
X5555231D01*
X5564892Y5878982D01*
X5573914Y5882999D01*
X5581905Y5888805D01*
X5588514Y5896145D01*
X5593452Y5904698D01*
X5596504Y5914091D01*
X5597537Y5923914D01*
X4872244Y5611123D02*
X4871212Y5620946D01*
X4868160Y5630339D01*
X4863221Y5638893D01*
X4856613Y5646232D01*
X4848622Y5652038D01*
X4839599Y5656055D01*
X4829938Y5658109D01*
X4820062D01*
X4810401Y5656055D01*
X4801378Y5652038D01*
X4793387Y5646232D01*
X4786779Y5638893D01*
X4781840Y5630339D01*
X4778788Y5620946D01*
X4777756Y5611123D01*
X4778788Y5601301D01*
X4781840Y5591907D01*
X4786779Y5583354D01*
X4793387Y5576014D01*
X4801378Y5570209D01*
X4810401Y5566191D01*
X4820062Y5564138D01*
X4829938D01*
X4839599Y5566191D01*
X4848622Y5570209D01*
X4856613Y5576014D01*
X4863221Y5583354D01*
X4868160Y5591907D01*
X4871212Y5601301D01*
X4872244Y5611123D01*
X5982244Y5815000D02*
X5981212Y5824823D01*
X5978160Y5834216D01*
X5973221Y5842769D01*
X5966613Y5850109D01*
X5958622Y5855915D01*
X5949599Y5859932D01*
X5939938Y5861985D01*
X5930062D01*
X5920401Y5859932D01*
X5911378Y5855915D01*
X5903387Y5850109D01*
X5896779Y5842769D01*
X5891840Y5834216D01*
X5888788Y5824823D01*
X5887756Y5815000D01*
X5888788Y5805177D01*
X5891840Y5795784D01*
X5896779Y5787231D01*
X5903387Y5779891D01*
X5911378Y5774085D01*
X5920401Y5770068D01*
X5930062Y5768015D01*
X5939938D01*
X5949599Y5770068D01*
X5958622Y5774085D01*
X5966613Y5779891D01*
X5973221Y5787231D01*
X5978160Y5795784D01*
X5981212Y5805177D01*
X5982244Y5815000D01*
X3713113Y6999420D02*
X3712081Y7009243D01*
X3709029Y7018636D01*
X3704091Y7027190D01*
X3697482Y7034529D01*
X3689491Y7040335D01*
X3680469Y7044352D01*
X3670808Y7046405D01*
X3660931D01*
X3651270Y7044352D01*
X3642247Y7040335D01*
X3634257Y7034529D01*
X3627648Y7027190D01*
X3622710Y7018636D01*
X3619658Y7009243D01*
X3618625Y6999420D01*
X3619658Y6989598D01*
X3622710Y6980204D01*
X3627648Y6971651D01*
X3634257Y6964311D01*
X3642247Y6958506D01*
X3651270Y6954488D01*
X3660931Y6952435D01*
X3670808D01*
X3680469Y6954488D01*
X3689491Y6958506D01*
X3697482Y6964311D01*
X3704091Y6971651D01*
X3709029Y6980204D01*
X3712081Y6989598D01*
X3713113Y6999420D01*
X4267244Y6970000D02*
X4266212Y6979823D01*
X4263160Y6989216D01*
X4258221Y6997769D01*
X4251613Y7005109D01*
X4243622Y7010915D01*
X4234599Y7014932D01*
X4224938Y7016985D01*
X4215062D01*
X4205401Y7014932D01*
X4196378Y7010915D01*
X4188387Y7005109D01*
X4181779Y6997769D01*
X4176840Y6989216D01*
X4173788Y6979823D01*
X4172756Y6970000D01*
X4173788Y6960177D01*
X4176840Y6950784D01*
X4181779Y6942231D01*
X4188387Y6934891D01*
X4196378Y6929085D01*
X4205401Y6925068D01*
X4215062Y6923015D01*
X4224938D01*
X4234599Y6925068D01*
X4243622Y6929085D01*
X4251613Y6934891D01*
X4258221Y6942231D01*
X4263160Y6950784D01*
X4266212Y6960177D01*
X4267244Y6970000D01*
X4123000Y6499000D02*
X4121968Y6508823D01*
X4118916Y6518216D01*
X4113977Y6526769D01*
X4107368Y6534109D01*
X4099378Y6539915D01*
X4090355Y6543932D01*
X4080694Y6545985D01*
X4070818D01*
X4061157Y6543932D01*
X4052134Y6539915D01*
X4044144Y6534109D01*
X4037535Y6526769D01*
X4032596Y6518216D01*
X4029544Y6508823D01*
X4028512Y6499000D01*
X4029544Y6489177D01*
X4032596Y6479784D01*
X4037535Y6471231D01*
X4044144Y6463891D01*
X4052134Y6458085D01*
X4061157Y6454068D01*
X4070818Y6452015D01*
X4080694D01*
X4090355Y6454068D01*
X4099378Y6458085D01*
X4107368Y6463891D01*
X4113977Y6471231D01*
X4118916Y6479784D01*
X4121968Y6489177D01*
X4123000Y6499000D01*
X3962825Y7410792D02*
X3961792Y7420615D01*
X3958740Y7430008D01*
X3953802Y7438562D01*
X3947193Y7445902D01*
X3939202Y7451707D01*
X3930180Y7455724D01*
X3920519Y7457778D01*
X3910642D01*
X3900981Y7455724D01*
X3891958Y7451707D01*
X3883968Y7445902D01*
X3877359Y7438562D01*
X3872421Y7430008D01*
X3869369Y7420615D01*
X3868336Y7410792D01*
X3869369Y7400970D01*
X3872421Y7391577D01*
X3877359Y7383023D01*
X3883968Y7375683D01*
X3891958Y7369878D01*
X3900981Y7365861D01*
X3910642Y7363807D01*
X3920519D01*
X3930180Y7365861D01*
X3939202Y7369878D01*
X3947193Y7375683D01*
X3953802Y7383023D01*
X3958740Y7391577D01*
X3961792Y7400970D01*
X3962825Y7410792D01*
X4764079Y5103465D02*
Y5114535D01*
X4723921Y5103465D02*
Y5114535D01*
X4842937Y5088715D02*
Y5109285D01*
X4785063Y5088715D02*
Y5109285D01*
X4682835Y5034685D02*
X4688819D01*
X4682827Y5004685D02*
X4688827D01*
X4763921Y4893465D02*
Y4904535D01*
X4804079Y4893465D02*
Y4904535D01*
X4887182Y4960236D02*
X4898251D01*
X4887182Y5000394D02*
X4898251D01*
X4922079Y4891936D02*
Y4903005D01*
X4881921Y4891936D02*
Y4903005D01*
X4996220Y4925945D02*
X5002205D01*
X4996212Y4955945D02*
X5002212D01*
X4996212Y4877205D02*
X5002212D01*
X4996220Y4847205D02*
X5002205D01*
X5074000Y4918756D02*
Y4924756D01*
X5044000Y4918764D02*
Y4924748D01*
X4911417Y5038976D02*
X5059055D01*
X4911417Y5157874D02*
X5077165D01*
Y5059055D02*
Y5157874D01*
X5080709Y5025591D02*
Y5049213D01*
X5068898Y5037402D02*
X5092520D01*
X4682008Y5310000D02*
X4687992D01*
X4682000Y5280000D02*
X4688000D01*
X4602905Y5319000D02*
X4608890D01*
X4602898Y5349000D02*
X4608898D01*
X4390921Y5375000D02*
X4398921D01*
X4390921Y5345000D02*
X4398921D01*
X4391000Y5333966D02*
X4399000D01*
X4391000Y5303966D02*
X4399000D01*
X5030063Y5441715D02*
Y5462285D01*
X5087937Y5441715D02*
Y5462285D01*
X5398993Y5235827D02*
X5410062D01*
X5398993Y5275984D02*
X5410062D01*
X4949937Y4536715D02*
Y4557285D01*
X4892063Y4536715D02*
Y4557285D01*
X5393307Y4708048D02*
Y4719117D01*
X5433465Y4708048D02*
Y4719117D01*
X5390000Y4426000D02*
Y4434000D01*
X5360000Y4426000D02*
Y4434000D01*
X5401034Y4426000D02*
Y4434000D01*
X5431034Y4426000D02*
Y4434000D01*
X2199968Y3591016D02*
Y3599016D01*
X2229968Y3591016D02*
Y3599016D01*
X2271625Y3591016D02*
Y3599016D01*
X2241625Y3591016D02*
Y3599016D01*
X2229968Y3519583D02*
Y3525583D01*
X2199968Y3519591D02*
Y3525575D01*
X2528218Y3589890D02*
Y3597890D01*
X2498218Y3589890D02*
Y3597890D01*
X2794492D02*
Y3605890D01*
X2764492Y3597890D02*
Y3605890D01*
X2806492Y3598890D02*
Y3606890D01*
X2836492Y3598890D02*
Y3606890D01*
X2764492Y3526959D02*
Y3532943D01*
X2794492Y3526951D02*
Y3532951D01*
X3059492Y3585890D02*
Y3593890D01*
X3089492Y3585890D02*
Y3593890D01*
X3457399Y3591016D02*
Y3599016D01*
X3427399Y3591016D02*
Y3599016D01*
X3385995Y3591016D02*
Y3599016D01*
X3415995Y3591016D02*
Y3599016D01*
X3416684Y3514659D02*
Y3520659D01*
X3386684Y3514667D02*
Y3520651D01*
X3705000Y3587968D02*
Y3595968D01*
X3675000Y3587968D02*
Y3595968D01*
X3934055Y3590858D02*
Y3598858D01*
X3904055Y3590858D02*
Y3598858D01*
Y3517622D02*
Y3523607D01*
X3934055Y3517615D02*
Y3523615D01*
X3945280Y3590858D02*
Y3598858D01*
X3975280Y3590858D02*
Y3598858D01*
X4206510Y3585890D02*
Y3593890D01*
X4236510Y3585890D02*
Y3593890D01*
X4425551Y4236260D02*
Y4383898D01*
X4544449Y4218150D02*
Y4383898D01*
X4445630Y4218150D02*
X4544449D01*
X4412165Y4214606D02*
X4435787D01*
X4423976Y4202795D02*
Y4226417D01*
X4070000Y4622008D02*
Y4627992D01*
X4100000Y4622000D02*
Y4628000D01*
X4118238Y4599465D02*
Y4610535D01*
X4158396Y4599465D02*
Y4610535D01*
X4214272Y4701339D02*
X4241831D01*
X4214272Y4618661D02*
X4241831D01*
X4229465Y4759045D02*
X4240535D01*
X4229465Y4718888D02*
X4240535D01*
X4247008Y4601939D02*
X4252992D01*
X4247000Y4571939D02*
X4253000D01*
X3931000Y4595000D02*
X3939000D01*
X3931000Y4625000D02*
X3939000D01*
X3931000Y4505000D02*
X3939000D01*
X3931000Y4535000D02*
X3939000D01*
X3536486Y4618661D02*
X3564045D01*
X3536486Y4701339D02*
X3564045D01*
X3619921Y4599465D02*
Y4610535D01*
X3660079Y4599465D02*
Y4610535D01*
X3680000Y4622008D02*
Y4627992D01*
X3710000Y4622000D02*
Y4628000D01*
X3696000Y4750000D02*
X3704000D01*
X3696000Y4720000D02*
X3704000D01*
X3536220Y5817661D02*
X3563780D01*
X3536220Y5900339D02*
X3563780D01*
X3619921Y5798465D02*
Y5809535D01*
X3660079Y5798465D02*
Y5809535D01*
X3680000Y5822110D02*
Y5828095D01*
X3710000Y5822102D02*
Y5828102D01*
X3691079Y5950000D02*
X3699079D01*
X3691079Y5920000D02*
X3699079D01*
X3905921Y5760000D02*
X3913921D01*
X3905921Y5790000D02*
X3913921D01*
X3905843Y5801034D02*
X3913843D01*
X3905843Y5831034D02*
X3913843D01*
X4100000Y5821898D02*
Y5827898D01*
X4070000Y5821905D02*
Y5827890D01*
X4118238Y5799465D02*
Y5810535D01*
X4158396Y5799465D02*
Y5810535D01*
X4252008Y5801939D02*
X4257992D01*
X4252000Y5771939D02*
X4258000D01*
X4214272Y5901339D02*
X4241831D01*
X4214272Y5818661D02*
X4241831D01*
X4229465Y5959045D02*
X4240535D01*
X4229465Y5918888D02*
X4240535D01*
X4694863Y6010129D02*
X4702863D01*
X4694863Y5980129D02*
X4702863D01*
X4767473Y6010346D02*
X4775473D01*
X4767473Y5980346D02*
X4775473D01*
X4767473Y5939313D02*
X4775473D01*
X4767473Y5969313D02*
X4775473D01*
X4805000Y6071000D02*
Y6079000D01*
X4775000Y6071000D02*
Y6079000D01*
X4697690Y6338253D02*
X4705690D01*
X4697690Y6308253D02*
X4705690D01*
X4777449Y6299478D02*
Y6307478D01*
X4747449Y6299478D02*
Y6307478D01*
X4775000Y6396000D02*
Y6404000D01*
X4805000Y6396000D02*
Y6404000D01*
X4486155Y6347104D02*
X4494155D01*
X4486155Y6317104D02*
X4494155D01*
X4486155Y6276069D02*
X4494155D01*
X4486155Y6306069D02*
X4494155D01*
X4416000Y6346885D02*
X4424000D01*
X4416000Y6316885D02*
X4424000D01*
X6785000Y7796000D02*
Y7804000D01*
X6815000Y7796000D02*
Y7804000D01*
X6835000Y7796000D02*
Y7804000D01*
X6865000Y7796000D02*
Y7804000D01*
X6985000Y7796000D02*
Y7804000D01*
X7015000Y7796000D02*
Y7804000D01*
X7035000Y7796000D02*
Y7804000D01*
X7065000Y7796000D02*
Y7804000D01*
X6790000Y5696000D02*
Y5704000D01*
X6760000Y5696000D02*
Y5704000D01*
X6870000Y5696079D02*
Y5704079D01*
X6840000Y5696079D02*
Y5704079D01*
X6950000Y5696079D02*
Y5704079D01*
X6920000Y5696079D02*
Y5704079D01*
X7090000Y5696079D02*
Y5704079D01*
X7060000Y5696079D02*
Y5704079D01*
X7190000Y5696079D02*
Y5704079D01*
X7160000Y5696079D02*
Y5704079D01*
X6850000Y4311000D02*
Y4319000D01*
X6880000Y4311000D02*
Y4319000D01*
X6895000Y4311000D02*
Y4319000D01*
X6925000Y4311000D02*
Y4319000D01*
X6970000Y4311000D02*
Y4319000D01*
X7000000Y4311000D02*
Y4319000D01*
X7015000Y4310921D02*
Y4318921D01*
X7045000Y4310921D02*
Y4318921D01*
X4030454Y6972986D02*
Y6978986D01*
X4060454Y6972994D02*
Y6978979D01*
X4115278Y6972986D02*
Y6978986D01*
X4145278Y6972994D02*
Y6978979D01*
X4051966Y7043926D02*
Y7051926D01*
X4081966Y7043926D02*
Y7051926D01*
X4123000Y7043926D02*
Y7051926D01*
X4093000Y7043926D02*
Y7051926D01*
X2592008Y7065984D02*
Y7074016D01*
X2728000Y7066000D02*
Y7074000D01*
X2727992Y7305984D02*
Y7314016D01*
X2592000Y7306000D02*
Y7314000D01*
X6820000Y2181079D02*
Y2189079D01*
X6790000Y2181079D02*
Y2189079D01*
X6865000Y2181079D02*
Y2189079D01*
X6835000Y2181079D02*
Y2189079D01*
X6906034Y2181000D02*
Y2189000D01*
X6876034Y2181000D02*
Y2189000D01*
X7130000Y2181000D02*
Y2189000D01*
X7100000Y2181000D02*
Y2189000D01*
X7175000Y2181000D02*
Y2189000D01*
X7145000Y2181000D02*
Y2189000D01*
D20*
X3960000Y7526357D02*
X3933762D01*
X3946881D01*
Y7487000D01*
X3920643D02*
Y7526357D01*
X3900964D01*
X3894404Y7519798D01*
Y7506679D01*
X3900964Y7500119D01*
X3920643D01*
X3881285Y7487000D02*
X3868166D01*
X3874726D01*
Y7526357D01*
X3881285Y7519798D01*
X2574095Y7089679D02*
X2547856D01*
X2560976D01*
Y7050321D01*
X2508499Y7089679D02*
X2521618D01*
X2515059D01*
Y7056881D01*
X2521618Y7050321D01*
X2528178D01*
X2534737Y7056881D01*
X2469142Y7050321D02*
X2495380D01*
X2469142Y7076560D01*
Y7083119D01*
X2475701Y7089679D01*
X2488820D01*
X2495380Y7083119D01*
X2574095Y7329679D02*
X2547856D01*
X2560976D01*
Y7290321D01*
X2508499Y7329679D02*
X2521618D01*
X2515059D01*
Y7296881D01*
X2521618Y7290321D01*
X2528178D01*
X2534737Y7296881D01*
X2495380Y7290321D02*
X2482261D01*
X2488820D01*
Y7329679D01*
X2495380Y7323119D01*
X5340321Y4475905D02*
X5379679D01*
Y4495584D01*
X5373119Y4502144D01*
X5360000D01*
X5353440Y4495584D01*
Y4475905D01*
Y4489024D02*
X5340321Y4502144D01*
Y4515263D02*
Y4528382D01*
Y4521822D01*
X5379679D01*
X5373119Y4515263D01*
X5340321Y4574299D02*
Y4548060D01*
X5366560Y4574299D01*
X5373119D01*
X5379679Y4567739D01*
Y4554620D01*
X5373119Y4548060D01*
Y4587418D02*
X5379679Y4593977D01*
Y4607097D01*
X5373119Y4613656D01*
X5346881D01*
X5340321Y4607097D01*
Y4593977D01*
X5346881Y4587418D01*
X5373119D01*
X5400321Y4475905D02*
X5439679D01*
Y4495584D01*
X5433119Y4502144D01*
X5420000D01*
X5413440Y4495584D01*
Y4475905D01*
Y4489024D02*
X5400321Y4502144D01*
Y4515263D02*
Y4528382D01*
Y4521822D01*
X5439679D01*
X5433119Y4515263D01*
X5400321Y4548060D02*
Y4561180D01*
Y4554620D01*
X5439679D01*
X5433119Y4548060D01*
X5406881Y4580858D02*
X5400321Y4587418D01*
Y4600537D01*
X5406881Y4607096D01*
X5433119D01*
X5439679Y4600537D01*
Y4587418D01*
X5433119Y4580858D01*
X5426560D01*
X5420000Y4587418D01*
Y4607096D01*
X4414095Y5250321D02*
Y5289679D01*
X4394416D01*
X4387856Y5283119D01*
Y5270000D01*
X4394416Y5263440D01*
X4414095D01*
X4400975D02*
X4387856Y5250321D01*
X4374737D02*
X4361618D01*
X4368178D01*
Y5289679D01*
X4374737Y5283119D01*
X4341939Y5250321D02*
X4328820D01*
X4335380D01*
Y5289679D01*
X4341939Y5283119D01*
X4309142D02*
X4302582Y5289679D01*
X4289463D01*
X4282903Y5283119D01*
Y5276560D01*
X4289463Y5270000D01*
X4282903Y5263440D01*
Y5256881D01*
X4289463Y5250321D01*
X4302582D01*
X4309142Y5256881D01*
Y5263440D01*
X4302582Y5270000D01*
X4309142Y5276560D01*
Y5283119D01*
X4302582Y5270000D02*
X4289463D01*
X4414095Y5390321D02*
Y5429679D01*
X4394416D01*
X4387856Y5423119D01*
Y5410000D01*
X4394416Y5403440D01*
X4414095D01*
X4400975D02*
X4387856Y5390321D01*
X4374737D02*
X4361618D01*
X4368178D01*
Y5429679D01*
X4374737Y5423119D01*
X4341939Y5390321D02*
X4328820D01*
X4335380D01*
Y5429679D01*
X4341939Y5423119D01*
X4309142Y5429679D02*
X4282903D01*
Y5423119D01*
X4309142Y5396881D01*
Y5390321D01*
X4944095Y5920321D02*
Y5959679D01*
X4924416D01*
X4917856Y5953119D01*
Y5940000D01*
X4924416Y5933440D01*
X4944095D01*
X4930975D02*
X4917856Y5920321D01*
X4904737D02*
X4891618D01*
X4898178D01*
Y5959679D01*
X4904737Y5953119D01*
X4871939Y5920321D02*
X4858820D01*
X4865380D01*
Y5959679D01*
X4871939Y5953119D01*
X4812903Y5959679D02*
X4826023Y5953119D01*
X4839142Y5940000D01*
Y5926881D01*
X4832582Y5920321D01*
X4819463D01*
X4812903Y5926881D01*
Y5933440D01*
X4819463Y5940000D01*
X4839142D01*
X4944095Y5980321D02*
Y6019679D01*
X4924416D01*
X4917856Y6013119D01*
Y6000000D01*
X4924416Y5993440D01*
X4944095D01*
X4930975D02*
X4917856Y5980321D01*
X4904737D02*
X4891618D01*
X4898178D01*
Y6019679D01*
X4904737Y6013119D01*
X4871939Y5980321D02*
X4858820D01*
X4865380D01*
Y6019679D01*
X4871939Y6013119D01*
X4812903Y6019679D02*
X4839142D01*
Y6000000D01*
X4826023Y6006560D01*
X4819463D01*
X4812903Y6000000D01*
Y5986881D01*
X4819463Y5980321D01*
X4832582D01*
X4839142Y5986881D01*
X4714095Y5920321D02*
Y5959679D01*
X4694416D01*
X4687856Y5953119D01*
Y5940000D01*
X4694416Y5933440D01*
X4714095D01*
X4700975D02*
X4687856Y5920321D01*
X4674737D02*
X4661618D01*
X4668178D01*
Y5959679D01*
X4674737Y5953119D01*
X4641939Y5920321D02*
X4628820D01*
X4635380D01*
Y5959679D01*
X4641939Y5953119D01*
X4589463Y5920321D02*
Y5959679D01*
X4609142Y5940000D01*
X4582903D01*
X4820321Y6045905D02*
X4859679D01*
Y6065584D01*
X4853119Y6072144D01*
X4840000D01*
X4833440Y6065584D01*
Y6045905D01*
Y6059024D02*
X4820321Y6072144D01*
Y6085263D02*
Y6098382D01*
Y6091822D01*
X4859679D01*
X4853119Y6085263D01*
X4820321Y6118060D02*
Y6131180D01*
Y6124620D01*
X4859679D01*
X4853119Y6118060D01*
Y6150858D02*
X4859679Y6157418D01*
Y6170537D01*
X4853119Y6177096D01*
X4846560D01*
X4840000Y6170537D01*
Y6163977D01*
Y6170537D01*
X4833440Y6177096D01*
X4826881D01*
X4820321Y6170537D01*
Y6157418D01*
X4826881Y6150858D01*
X4544095Y6220321D02*
Y6259679D01*
X4524416D01*
X4517856Y6253119D01*
Y6240000D01*
X4524416Y6233440D01*
X4544095D01*
X4530975D02*
X4517856Y6220321D01*
X4504737D02*
X4491618D01*
X4498178D01*
Y6259679D01*
X4504737Y6253119D01*
X4471939Y6220321D02*
X4458820D01*
X4465380D01*
Y6259679D01*
X4471939Y6253119D01*
X4412903Y6220321D02*
X4439142D01*
X4412903Y6246560D01*
Y6253119D01*
X4419463Y6259679D01*
X4432582D01*
X4439142Y6253119D01*
X4544095Y6370321D02*
Y6409679D01*
X4524416D01*
X4517856Y6403119D01*
Y6390000D01*
X4524416Y6383440D01*
X4544095D01*
X4530975D02*
X4517856Y6370321D01*
X4504737D02*
X4491618D01*
X4498178D01*
Y6409679D01*
X4504737Y6403119D01*
X4471939Y6370321D02*
X4458820D01*
X4465380D01*
Y6409679D01*
X4471939Y6403119D01*
X4439142Y6370321D02*
X4426023D01*
X4432582D01*
Y6409679D01*
X4439142Y6403119D01*
X4374095Y6310321D02*
Y6349679D01*
X4354416D01*
X4347856Y6343119D01*
Y6330000D01*
X4354416Y6323440D01*
X4374095D01*
X4360975D02*
X4347856Y6310321D01*
X4334737D02*
X4321618D01*
X4328178D01*
Y6349679D01*
X4334737Y6343119D01*
X4301939Y6310321D02*
X4288820D01*
X4295380D01*
Y6349679D01*
X4301939Y6343119D01*
X4269142D02*
X4262582Y6349679D01*
X4249463D01*
X4242903Y6343119D01*
Y6316881D01*
X4249463Y6310321D01*
X4262582D01*
X4269142Y6316881D01*
Y6343119D01*
X4790321Y6215905D02*
X4829679D01*
Y6235584D01*
X4823119Y6242144D01*
X4810000D01*
X4803440Y6235584D01*
Y6215905D01*
Y6229024D02*
X4790321Y6242144D01*
Y6255263D02*
Y6268382D01*
Y6261822D01*
X4829679D01*
X4823119Y6255263D01*
Y6288060D02*
X4829679Y6294620D01*
Y6307739D01*
X4823119Y6314299D01*
X4796881D01*
X4790321Y6307739D01*
Y6294620D01*
X4796881Y6288060D01*
X4823119D01*
X4796881Y6327418D02*
X4790321Y6333977D01*
Y6347097D01*
X4796881Y6353656D01*
X4823119D01*
X4829679Y6347097D01*
Y6333977D01*
X4823119Y6327418D01*
X4816560D01*
X4810000Y6333977D01*
Y6353656D01*
X4724095Y6250321D02*
Y6289679D01*
X4704416D01*
X4697856Y6283119D01*
Y6270000D01*
X4704416Y6263440D01*
X4724095D01*
X4710975D02*
X4697856Y6250321D01*
X4684737D02*
X4671618D01*
X4678178D01*
Y6289679D01*
X4684737Y6283119D01*
X4651939D02*
X4645380Y6289679D01*
X4632261D01*
X4625701Y6283119D01*
Y6256881D01*
X4632261Y6250321D01*
X4645380D01*
X4651939Y6256881D01*
Y6283119D01*
X4612582D02*
X4606022Y6289679D01*
X4592903D01*
X4586344Y6283119D01*
Y6276560D01*
X4592903Y6270000D01*
X4586344Y6263440D01*
Y6256881D01*
X4592903Y6250321D01*
X4606022D01*
X4612582Y6256881D01*
Y6263440D01*
X4606022Y6270000D01*
X4612582Y6276560D01*
Y6283119D01*
X4606022Y6270000D02*
X4592903D01*
X4820321Y6385905D02*
X4859679D01*
Y6405584D01*
X4853119Y6412144D01*
X4840000D01*
X4833440Y6405584D01*
Y6385905D01*
Y6399024D02*
X4820321Y6412144D01*
Y6425263D02*
Y6438382D01*
Y6431822D01*
X4859679D01*
X4853119Y6425263D01*
Y6458060D02*
X4859679Y6464620D01*
Y6477739D01*
X4853119Y6484299D01*
X4826881D01*
X4820321Y6477739D01*
Y6464620D01*
X4826881Y6458060D01*
X4853119D01*
X4859679Y6497418D02*
Y6523656D01*
X4853119D01*
X4826881Y6497418D01*
X4820321D01*
X3890321Y3635905D02*
X3929679D01*
Y3655584D01*
X3923119Y3662144D01*
X3910000D01*
X3903441Y3655584D01*
Y3635905D01*
Y3649024D02*
X3890321Y3662144D01*
Y3675263D02*
Y3688382D01*
Y3681822D01*
X3929679D01*
X3923119Y3675263D01*
Y3708061D02*
X3929679Y3714620D01*
Y3727739D01*
X3923119Y3734299D01*
X3896881D01*
X3890321Y3727739D01*
Y3714620D01*
X3896881Y3708061D01*
X3923119D01*
Y3747418D02*
X3929679Y3753977D01*
Y3767097D01*
X3923119Y3773656D01*
X3916560D01*
X3910000Y3767097D01*
Y3760537D01*
Y3767097D01*
X3903441Y3773656D01*
X3896881D01*
X3890321Y3767097D01*
Y3753977D01*
X3896881Y3747418D01*
X3950321Y3635905D02*
X3989679D01*
Y3655584D01*
X3983119Y3662144D01*
X3970000D01*
X3963441Y3655584D01*
Y3635905D01*
Y3649024D02*
X3950321Y3662144D01*
Y3675263D02*
Y3688382D01*
Y3681822D01*
X3989679D01*
X3983119Y3675263D01*
Y3708061D02*
X3989679Y3714620D01*
Y3727739D01*
X3983119Y3734299D01*
X3956881D01*
X3950321Y3727739D01*
Y3714620D01*
X3956881Y3708061D01*
X3983119D01*
X3950321Y3773656D02*
Y3747418D01*
X3976560Y3773656D01*
X3983119D01*
X3989679Y3767097D01*
Y3753977D01*
X3983119Y3747418D01*
X4250321Y3535905D02*
X4289679D01*
Y3555584D01*
X4283119Y3562144D01*
X4270000D01*
X4263440Y3555584D01*
Y3535905D01*
Y3549024D02*
X4250321Y3562144D01*
X4256881Y3575263D02*
X4250321Y3581822D01*
Y3594941D01*
X4256881Y3601501D01*
X4283119D01*
X4289679Y3594941D01*
Y3581822D01*
X4283119Y3575263D01*
X4276560D01*
X4270000Y3581822D01*
Y3601501D01*
X4256881Y3614620D02*
X4250321Y3621180D01*
Y3634299D01*
X4256881Y3640858D01*
X4283119D01*
X4289679Y3634299D01*
Y3621180D01*
X4283119Y3614620D01*
X4276560D01*
X4270000Y3621180D01*
Y3640858D01*
X2180321Y3635905D02*
X2219679D01*
Y3655584D01*
X2213119Y3662144D01*
X2200000D01*
X2193441Y3655584D01*
Y3635905D01*
Y3649024D02*
X2180321Y3662144D01*
X2186881Y3675263D02*
X2180321Y3681822D01*
Y3694941D01*
X2186881Y3701501D01*
X2213119D01*
X2219679Y3694941D01*
Y3681822D01*
X2213119Y3675263D01*
X2206560D01*
X2200000Y3681822D01*
Y3701501D01*
X2213119Y3714620D02*
X2219679Y3721180D01*
Y3734299D01*
X2213119Y3740858D01*
X2206560D01*
X2200000Y3734299D01*
X2193441Y3740858D01*
X2186881D01*
X2180321Y3734299D01*
Y3721180D01*
X2186881Y3714620D01*
X2193441D01*
X2200000Y3721180D01*
X2206560Y3714620D01*
X2213119D01*
X2200000Y3721180D02*
Y3734299D01*
X2240321Y3635905D02*
X2279679D01*
Y3655584D01*
X2273119Y3662144D01*
X2260000D01*
X2253441Y3655584D01*
Y3635905D01*
Y3649024D02*
X2240321Y3662144D01*
X2246881Y3675263D02*
X2240321Y3681822D01*
Y3694941D01*
X2246881Y3701501D01*
X2273119D01*
X2279679Y3694941D01*
Y3681822D01*
X2273119Y3675263D01*
X2266560D01*
X2260000Y3681822D01*
Y3701501D01*
X2279679Y3714620D02*
Y3740858D01*
X2273119D01*
X2246881Y3714620D01*
X2240321D01*
X2550321Y3545905D02*
X2589679D01*
Y3565584D01*
X2583119Y3572144D01*
X2570000D01*
X2563441Y3565584D01*
Y3545905D01*
Y3559024D02*
X2550321Y3572144D01*
X2556881Y3585263D02*
X2550321Y3591822D01*
Y3604941D01*
X2556881Y3611501D01*
X2583119D01*
X2589679Y3604941D01*
Y3591822D01*
X2583119Y3585263D01*
X2576560D01*
X2570000Y3591822D01*
Y3611501D01*
X2550321Y3650858D02*
Y3624620D01*
X2576560Y3650858D01*
X2583119D01*
X2589679Y3644299D01*
Y3631180D01*
X2583119Y3624620D01*
X2750321Y3645905D02*
X2789679D01*
Y3665584D01*
X2783119Y3672144D01*
X2770000D01*
X2763440Y3665584D01*
Y3645905D01*
Y3659024D02*
X2750321Y3672144D01*
X2756881Y3685263D02*
X2750321Y3691822D01*
Y3704941D01*
X2756881Y3711501D01*
X2783119D01*
X2789679Y3704941D01*
Y3691822D01*
X2783119Y3685263D01*
X2776559D01*
X2770000Y3691822D01*
Y3711501D01*
X2750321Y3724620D02*
Y3737739D01*
Y3731180D01*
X2789679D01*
X2783119Y3724620D01*
X2810321Y3645905D02*
X2849679D01*
Y3665584D01*
X2843119Y3672144D01*
X2830000D01*
X2823441Y3665584D01*
Y3645905D01*
Y3659024D02*
X2810321Y3672144D01*
X2816881Y3685263D02*
X2810321Y3691822D01*
Y3704941D01*
X2816881Y3711501D01*
X2843119D01*
X2849679Y3704941D01*
Y3691822D01*
X2843119Y3685263D01*
X2836560D01*
X2830000Y3691822D01*
Y3711501D01*
X2843119Y3724620D02*
X2849679Y3731180D01*
Y3744299D01*
X2843119Y3750858D01*
X2816881D01*
X2810321Y3744299D01*
Y3731180D01*
X2816881Y3724620D01*
X2843119D01*
X3110321Y3545905D02*
X3149679D01*
Y3565584D01*
X3143119Y3572144D01*
X3130000D01*
X3123441Y3565584D01*
Y3545905D01*
Y3559024D02*
X3110321Y3572144D01*
X3143119Y3585263D02*
X3149679Y3591822D01*
Y3604941D01*
X3143119Y3611501D01*
X3136560D01*
X3130000Y3604941D01*
X3123441Y3611501D01*
X3116881D01*
X3110321Y3604941D01*
Y3591822D01*
X3116881Y3585263D01*
X3123441D01*
X3130000Y3591822D01*
X3136560Y3585263D01*
X3143119D01*
X3130000Y3591822D02*
Y3604941D01*
X3149679Y3650858D02*
X3143119Y3637739D01*
X3130000Y3624620D01*
X3116881D01*
X3110321Y3631180D01*
Y3644299D01*
X3116881Y3650858D01*
X3123441D01*
X3130000Y3644299D01*
Y3624620D01*
X3380321Y3645905D02*
X3419679D01*
Y3665584D01*
X3413119Y3672144D01*
X3400000D01*
X3393441Y3665584D01*
Y3645905D01*
Y3659024D02*
X3380321Y3672144D01*
X3413119Y3685263D02*
X3419679Y3691822D01*
Y3704941D01*
X3413119Y3711501D01*
X3406560D01*
X3400000Y3704941D01*
X3393441Y3711501D01*
X3386881D01*
X3380321Y3704941D01*
Y3691822D01*
X3386881Y3685263D01*
X3393441D01*
X3400000Y3691822D01*
X3406560Y3685263D01*
X3413119D01*
X3400000Y3691822D02*
Y3704941D01*
X3419679Y3750858D02*
Y3724620D01*
X3400000D01*
X3406560Y3737739D01*
Y3744299D01*
X3400000Y3750858D01*
X3386881D01*
X3380321Y3744299D01*
Y3731180D01*
X3386881Y3724620D01*
X3440321Y3645905D02*
X3479679D01*
Y3665584D01*
X3473119Y3672144D01*
X3460000D01*
X3453441Y3665584D01*
Y3645905D01*
Y3659024D02*
X3440321Y3672144D01*
X3473119Y3685263D02*
X3479679Y3691822D01*
Y3704941D01*
X3473119Y3711501D01*
X3466560D01*
X3460000Y3704941D01*
X3453441Y3711501D01*
X3446881D01*
X3440321Y3704941D01*
Y3691822D01*
X3446881Y3685263D01*
X3453441D01*
X3460000Y3691822D01*
X3466560Y3685263D01*
X3473119D01*
X3460000Y3691822D02*
Y3704941D01*
X3440321Y3744299D02*
X3479679D01*
X3460000Y3724620D01*
Y3750858D01*
X3720321Y3545905D02*
X3759679D01*
Y3565584D01*
X3753119Y3572144D01*
X3740000D01*
X3733441Y3565584D01*
Y3545905D01*
Y3559024D02*
X3720321Y3572144D01*
X3753119Y3585263D02*
X3759679Y3591822D01*
Y3604941D01*
X3753119Y3611501D01*
X3746560D01*
X3740000Y3604941D01*
X3733441Y3611501D01*
X3726881D01*
X3720321Y3604941D01*
Y3591822D01*
X3726881Y3585263D01*
X3733441D01*
X3740000Y3591822D01*
X3746560Y3585263D01*
X3753119D01*
X3740000Y3591822D02*
Y3604941D01*
X3753119Y3624620D02*
X3759679Y3631180D01*
Y3644299D01*
X3753119Y3650858D01*
X3726881D01*
X3720321Y3644299D01*
Y3631180D01*
X3726881Y3624620D01*
X3753119D01*
X6760321Y5745905D02*
X6799679D01*
Y5765584D01*
X6793119Y5772144D01*
X6780000D01*
X6773440Y5765584D01*
Y5745905D01*
Y5759024D02*
X6760321Y5772144D01*
X6799679Y5785263D02*
Y5811501D01*
X6793119D01*
X6766881Y5785263D01*
X6760321D01*
X6766881Y5824620D02*
X6760321Y5831180D01*
Y5844299D01*
X6766881Y5850858D01*
X6793119D01*
X6799679Y5844299D01*
Y5831180D01*
X6793119Y5824620D01*
X6786560D01*
X6780000Y5831180D01*
Y5850858D01*
X7060321Y5745905D02*
X7099679D01*
Y5765584D01*
X7093119Y5772144D01*
X7080000D01*
X7073440Y5765584D01*
Y5745905D01*
Y5759024D02*
X7060321Y5772144D01*
X7099679Y5785263D02*
Y5811501D01*
X7093119D01*
X7066881Y5785263D01*
X7060321D01*
X7093119Y5824620D02*
X7099679Y5831180D01*
Y5844299D01*
X7093119Y5850858D01*
X7086560D01*
X7080000Y5844299D01*
X7073440Y5850858D01*
X7066881D01*
X7060321Y5844299D01*
Y5831180D01*
X7066881Y5824620D01*
X7073440D01*
X7080000Y5831180D01*
X7086560Y5824620D01*
X7093119D01*
X7080000Y5831180D02*
Y5844299D01*
X6840321Y7845905D02*
X6879679D01*
Y7865584D01*
X6873119Y7872144D01*
X6860000D01*
X6853440Y7865584D01*
Y7845905D01*
Y7859024D02*
X6840321Y7872144D01*
X6879679Y7885263D02*
Y7911501D01*
X6873119D01*
X6846881Y7885263D01*
X6840321D01*
X6879679Y7924620D02*
Y7950858D01*
X6873119D01*
X6846881Y7924620D01*
X6840321D01*
Y5745905D02*
X6879679D01*
Y5765584D01*
X6873119Y5772144D01*
X6860000D01*
X6853440Y5765584D01*
Y5745905D01*
Y5759024D02*
X6840321Y5772144D01*
X6879679Y5785263D02*
Y5811501D01*
X6873119D01*
X6846881Y5785263D01*
X6840321D01*
X6879679Y5850858D02*
X6873119Y5837739D01*
X6860000Y5824620D01*
X6846881D01*
X6840321Y5831180D01*
Y5844299D01*
X6846881Y5850858D01*
X6853440D01*
X6860000Y5844299D01*
Y5824620D01*
X7160321Y5745905D02*
X7199679D01*
Y5765584D01*
X7193119Y5772144D01*
X7180000D01*
X7173440Y5765584D01*
Y5745905D01*
Y5759024D02*
X7160321Y5772144D01*
X7199679Y5785263D02*
Y5811501D01*
X7193119D01*
X7166881Y5785263D01*
X7160321D01*
X7199679Y5850858D02*
Y5824620D01*
X7180000D01*
X7186560Y5837739D01*
Y5844299D01*
X7180000Y5850858D01*
X7166881D01*
X7160321Y5844299D01*
Y5831180D01*
X7166881Y5824620D01*
X6980321Y7845905D02*
X7019679D01*
Y7865584D01*
X7013119Y7872144D01*
X7000000D01*
X6993440Y7865584D01*
Y7845905D01*
Y7859024D02*
X6980321Y7872144D01*
X7019679Y7885263D02*
Y7911501D01*
X7013119D01*
X6986881Y7885263D01*
X6980321D01*
Y7944299D02*
X7019679D01*
X7000000Y7924620D01*
Y7950858D01*
X6920321Y5745905D02*
X6959679D01*
Y5765584D01*
X6953119Y5772144D01*
X6940000D01*
X6933440Y5765584D01*
Y5745905D01*
Y5759024D02*
X6920321Y5772144D01*
X6959679Y5785263D02*
Y5811501D01*
X6953119D01*
X6926881Y5785263D01*
X6920321D01*
X6953119Y5824620D02*
X6959679Y5831180D01*
Y5844299D01*
X6953119Y5850858D01*
X6946560D01*
X6940000Y5844299D01*
Y5837739D01*
Y5844299D01*
X6933440Y5850858D01*
X6926881D01*
X6920321Y5844299D01*
Y5831180D01*
X6926881Y5824620D01*
X6780321Y7845905D02*
X6819679D01*
Y7865584D01*
X6813119Y7872144D01*
X6800000D01*
X6793440Y7865584D01*
Y7845905D01*
Y7859024D02*
X6780321Y7872144D01*
X6819679Y7885263D02*
Y7911501D01*
X6813119D01*
X6786881Y7885263D01*
X6780321D01*
Y7950858D02*
Y7924620D01*
X6806560Y7950858D01*
X6813119D01*
X6819679Y7944299D01*
Y7931180D01*
X6813119Y7924620D01*
X7040321Y7845905D02*
X7079679D01*
Y7865584D01*
X7073119Y7872144D01*
X7060000D01*
X7053440Y7865584D01*
Y7845905D01*
Y7859025D02*
X7040321Y7872144D01*
X7079679Y7885263D02*
Y7911501D01*
X7073119D01*
X7046881Y7885263D01*
X7040321D01*
Y7924620D02*
Y7937739D01*
Y7931180D01*
X7079679D01*
X7073119Y7924620D01*
X6770321Y2225905D02*
X6809679D01*
Y2245584D01*
X6803119Y2252144D01*
X6790000D01*
X6783440Y2245584D01*
Y2225905D01*
Y2239024D02*
X6770321Y2252144D01*
X6809679Y2265263D02*
Y2291501D01*
X6803119D01*
X6776881Y2265263D01*
X6770321D01*
X6803119Y2304620D02*
X6809679Y2311180D01*
Y2324299D01*
X6803119Y2330858D01*
X6776881D01*
X6770321Y2324299D01*
Y2311180D01*
X6776881Y2304620D01*
X6803119D01*
X7090321Y2225905D02*
X7129679D01*
Y2245584D01*
X7123119Y2252144D01*
X7110000D01*
X7103440Y2245584D01*
Y2225905D01*
Y2239024D02*
X7090321Y2252144D01*
X7129679Y2291501D02*
X7123119Y2278382D01*
X7110000Y2265263D01*
X7096881D01*
X7090321Y2271822D01*
Y2284941D01*
X7096881Y2291501D01*
X7103440D01*
X7110000Y2284941D01*
Y2265263D01*
X7096881Y2304620D02*
X7090321Y2311180D01*
Y2324299D01*
X7096881Y2330858D01*
X7123119D01*
X7129679Y2324299D01*
Y2311180D01*
X7123119Y2304620D01*
X7116560D01*
X7110000Y2311180D01*
Y2330858D01*
X6900321Y4355905D02*
X6939679D01*
Y4375584D01*
X6933119Y4382144D01*
X6920000D01*
X6913440Y4375584D01*
Y4355905D01*
Y4369024D02*
X6900321Y4382144D01*
X6939679Y4421501D02*
X6933119Y4408382D01*
X6920000Y4395263D01*
X6906881D01*
X6900321Y4401822D01*
Y4414941D01*
X6906881Y4421501D01*
X6913440D01*
X6920000Y4414941D01*
Y4395263D01*
X6933119Y4434620D02*
X6939679Y4441180D01*
Y4454299D01*
X6933119Y4460858D01*
X6926560D01*
X6920000Y4454299D01*
X6913440Y4460858D01*
X6906881D01*
X6900321Y4454299D01*
Y4441180D01*
X6906881Y4434620D01*
X6913440D01*
X6920000Y4441180D01*
X6926560Y4434620D01*
X6933119D01*
X6920000Y4441180D02*
Y4454299D01*
X6830321Y2225905D02*
X6869679D01*
Y2245584D01*
X6863119Y2252144D01*
X6850000D01*
X6843440Y2245584D01*
Y2225905D01*
Y2239024D02*
X6830321Y2252144D01*
X6869679Y2291501D02*
X6863119Y2278382D01*
X6850000Y2265263D01*
X6836881D01*
X6830321Y2271822D01*
Y2284941D01*
X6836881Y2291501D01*
X6843440D01*
X6850000Y2284941D01*
Y2265263D01*
X6869679Y2304620D02*
Y2330858D01*
X6863119D01*
X6836881Y2304620D01*
X6830321D01*
X7150321Y2225905D02*
X7189679D01*
Y2245584D01*
X7183119Y2252144D01*
X7170000D01*
X7163440Y2245584D01*
Y2225905D01*
Y2239024D02*
X7150321Y2252144D01*
X7189679Y2291501D02*
X7183119Y2278382D01*
X7170000Y2265263D01*
X7156881D01*
X7150321Y2271822D01*
Y2284941D01*
X7156881Y2291501D01*
X7163440D01*
X7170000Y2284941D01*
Y2265263D01*
X7189679Y2330858D02*
X7183119Y2317739D01*
X7170000Y2304620D01*
X7156881D01*
X7150321Y2311180D01*
Y2324299D01*
X7156881Y2330858D01*
X7163440D01*
X7170000Y2324299D01*
Y2304620D01*
X6960321Y4355905D02*
X6999679D01*
Y4375584D01*
X6993119Y4382144D01*
X6980000D01*
X6973440Y4375584D01*
Y4355905D01*
Y4369024D02*
X6960321Y4382144D01*
X6999679Y4421501D02*
X6993119Y4408382D01*
X6980000Y4395263D01*
X6966881D01*
X6960321Y4401822D01*
Y4414941D01*
X6966881Y4421501D01*
X6973440D01*
X6980000Y4414941D01*
Y4395263D01*
X6999679Y4460858D02*
Y4434620D01*
X6980000D01*
X6986560Y4447739D01*
Y4454299D01*
X6980000Y4460858D01*
X6966881D01*
X6960321Y4454299D01*
Y4441180D01*
X6966881Y4434620D01*
X6890321Y2225905D02*
X6929679D01*
Y2245584D01*
X6923119Y2252144D01*
X6910000D01*
X6903440Y2245584D01*
Y2225905D01*
Y2239024D02*
X6890321Y2252144D01*
X6929679Y2291501D02*
X6923119Y2278382D01*
X6910000Y2265263D01*
X6896881D01*
X6890321Y2271822D01*
Y2284941D01*
X6896881Y2291501D01*
X6903440D01*
X6910000Y2284941D01*
Y2265263D01*
X6890321Y2324299D02*
X6929679D01*
X6910000Y2304620D01*
Y2330858D01*
X6840321Y4355905D02*
X6879679D01*
Y4375584D01*
X6873119Y4382144D01*
X6860000D01*
X6853440Y4375584D01*
Y4355905D01*
Y4369024D02*
X6840321Y4382144D01*
X6879679Y4421501D02*
X6873119Y4408382D01*
X6860000Y4395263D01*
X6846881D01*
X6840321Y4401822D01*
Y4414941D01*
X6846881Y4421501D01*
X6853440D01*
X6860000Y4414941D01*
Y4395263D01*
X6873119Y4434620D02*
X6879679Y4441180D01*
Y4454299D01*
X6873119Y4460858D01*
X6866560D01*
X6860000Y4454299D01*
Y4447739D01*
Y4454299D01*
X6853440Y4460858D01*
X6846881D01*
X6840321Y4454299D01*
Y4441180D01*
X6846881Y4434620D01*
X7020321Y4355905D02*
X7059679D01*
Y4375584D01*
X7053119Y4382144D01*
X7040000D01*
X7033440Y4375584D01*
Y4355905D01*
Y4369024D02*
X7020321Y4382144D01*
X7059679Y4421501D02*
X7053119Y4408382D01*
X7040000Y4395263D01*
X7026881D01*
X7020321Y4401822D01*
Y4414941D01*
X7026881Y4421501D01*
X7033440D01*
X7040000Y4414941D01*
Y4395263D01*
X7020321Y4460858D02*
Y4434620D01*
X7046560Y4460858D01*
X7053119D01*
X7059679Y4454299D01*
Y4441180D01*
X7053119Y4434620D01*
X3954095Y5850321D02*
Y5889679D01*
X3934416D01*
X3927856Y5883119D01*
Y5870000D01*
X3934416Y5863440D01*
X3954095D01*
X3940976D02*
X3927856Y5850321D01*
X3888499Y5889679D02*
X3901618Y5883119D01*
X3914737Y5870000D01*
Y5856881D01*
X3908178Y5850321D01*
X3895059D01*
X3888499Y5856881D01*
Y5863440D01*
X3895059Y5870000D01*
X3914737D01*
X3875380Y5850321D02*
X3862261D01*
X3868820D01*
Y5889679D01*
X3875380Y5883119D01*
X3984095Y4650321D02*
Y4689679D01*
X3964416D01*
X3957856Y4683119D01*
Y4670000D01*
X3964416Y4663440D01*
X3984095D01*
X3970976D02*
X3957856Y4650321D01*
X3918499Y4689679D02*
X3931618Y4683119D01*
X3944737Y4670000D01*
Y4656881D01*
X3938178Y4650321D01*
X3925059D01*
X3918499Y4656881D01*
Y4663440D01*
X3925059Y4670000D01*
X3944737D01*
X3905380Y4683119D02*
X3898820Y4689679D01*
X3885701D01*
X3879142Y4683119D01*
Y4656881D01*
X3885701Y4650321D01*
X3898820D01*
X3905380Y4656881D01*
Y4683119D01*
X3954095Y5700321D02*
Y5739679D01*
X3934416D01*
X3927856Y5733119D01*
Y5720000D01*
X3934416Y5713440D01*
X3954095D01*
X3940976D02*
X3927856Y5700321D01*
X3888499Y5739679D02*
X3914737D01*
Y5720000D01*
X3901618Y5726560D01*
X3895059D01*
X3888499Y5720000D01*
Y5706881D01*
X3895059Y5700321D01*
X3908178D01*
X3914737Y5706881D01*
X3875380D02*
X3868820Y5700321D01*
X3855701D01*
X3849142Y5706881D01*
Y5733119D01*
X3855701Y5739679D01*
X3868820D01*
X3875380Y5733119D01*
Y5726560D01*
X3868820Y5720000D01*
X3849142D01*
X3984095Y4440321D02*
Y4479679D01*
X3964416D01*
X3957856Y4473119D01*
Y4460000D01*
X3964416Y4453440D01*
X3984095D01*
X3970976D02*
X3957856Y4440321D01*
X3918499Y4479679D02*
X3944737D01*
Y4460000D01*
X3931618Y4466560D01*
X3925059D01*
X3918499Y4460000D01*
Y4446881D01*
X3925059Y4440321D01*
X3938178D01*
X3944737Y4446881D01*
X3905380Y4473119D02*
X3898820Y4479679D01*
X3885701D01*
X3879142Y4473119D01*
Y4466560D01*
X3885701Y4460000D01*
X3879142Y4453440D01*
Y4446881D01*
X3885701Y4440321D01*
X3898820D01*
X3905380Y4446881D01*
Y4453440D01*
X3898820Y4460000D01*
X3905380Y4466560D01*
Y4473119D01*
X3898820Y4460000D02*
X3885701D01*
X3734095Y5970321D02*
Y6009679D01*
X3714416D01*
X3707856Y6003119D01*
Y5990000D01*
X3714416Y5983440D01*
X3734095D01*
X3720976D02*
X3707856Y5970321D01*
X3668499Y6009679D02*
X3694737D01*
Y5990000D01*
X3681618Y5996560D01*
X3675059D01*
X3668499Y5990000D01*
Y5976881D01*
X3675059Y5970321D01*
X3688178D01*
X3694737Y5976881D01*
X3655380Y6009679D02*
X3629142D01*
Y6003119D01*
X3655380Y5976881D01*
Y5970321D01*
X3744095Y4770321D02*
Y4809679D01*
X3724416D01*
X3717856Y4803119D01*
Y4790000D01*
X3724416Y4783440D01*
X3744095D01*
X3730976D02*
X3717856Y4770321D01*
X3678499Y4809679D02*
X3704737D01*
Y4790000D01*
X3691618Y4796560D01*
X3685059D01*
X3678499Y4790000D01*
Y4776881D01*
X3685059Y4770321D01*
X3698178D01*
X3704737Y4776881D01*
X3639142Y4809679D02*
X3652261Y4803119D01*
X3665380Y4790000D01*
Y4776881D01*
X3658820Y4770321D01*
X3645701D01*
X3639142Y4776881D01*
Y4783440D01*
X3645701Y4790000D01*
X3665380D01*
X4040321Y7095905D02*
X4079679D01*
Y7115584D01*
X4073119Y7122144D01*
X4060000D01*
X4053441Y7115584D01*
Y7095905D01*
Y7109024D02*
X4040321Y7122144D01*
X4079679Y7161501D02*
Y7135263D01*
X4060000D01*
X4066560Y7148382D01*
Y7154941D01*
X4060000Y7161501D01*
X4046881D01*
X4040321Y7154941D01*
Y7141822D01*
X4046881Y7135263D01*
X4100321Y7095905D02*
X4139679D01*
Y7115584D01*
X4133119Y7122144D01*
X4120000D01*
X4113440Y7115584D01*
Y7095905D01*
Y7109024D02*
X4100321Y7122144D01*
Y7154941D02*
X4139679D01*
X4120000Y7135263D01*
Y7161501D01*
X4364095Y5879679D02*
Y5840321D01*
X4337856D01*
X4298499Y5879679D02*
X4324737D01*
Y5860000D01*
X4311618Y5866560D01*
X4305059D01*
X4298499Y5860000D01*
Y5846881D01*
X4305059Y5840321D01*
X4318178D01*
X4324737Y5846881D01*
X3584095Y5959679D02*
Y5920321D01*
X3557856D01*
X3525059D02*
Y5959679D01*
X3544737Y5940000D01*
X3518499D01*
X4364095Y4679679D02*
Y4640321D01*
X4337856D01*
X4298499D02*
X4324737D01*
X4298499Y4666560D01*
Y4673119D01*
X4305059Y4679679D01*
X4318178D01*
X4324737Y4673119D01*
X3584095Y4759679D02*
Y4720321D01*
X3557856D01*
X3544737D02*
X3531618D01*
X3538178D01*
Y4759679D01*
X3544737Y4753119D01*
X5437856Y5323119D02*
X5444416Y5329679D01*
X5457535D01*
X5464095Y5323119D01*
Y5296881D01*
X5457535Y5290321D01*
X5444416D01*
X5437856Y5296881D01*
X5424737Y5290321D02*
X5411618D01*
X5418178D01*
Y5329679D01*
X5424737Y5323119D01*
X5391939Y5290321D02*
X5378820D01*
X5385380D01*
Y5329679D01*
X5391939Y5323119D01*
X5359142D02*
X5352582Y5329679D01*
X5339463D01*
X5332903Y5323119D01*
Y5316560D01*
X5339463Y5310000D01*
X5332903Y5303440D01*
Y5296881D01*
X5339463Y5290321D01*
X5352582D01*
X5359142Y5296881D01*
Y5303440D01*
X5352582Y5310000D01*
X5359142Y5316560D01*
Y5323119D01*
X5352582Y5310000D02*
X5339463D01*
X5483119Y4682144D02*
X5489679Y4675584D01*
Y4662465D01*
X5483119Y4655905D01*
X5456881D01*
X5450321Y4662465D01*
Y4675584D01*
X5456881Y4682144D01*
X5450321Y4695263D02*
Y4708382D01*
Y4701822D01*
X5489679D01*
X5483119Y4695263D01*
X5450321Y4728060D02*
Y4741180D01*
Y4734620D01*
X5489679D01*
X5483119Y4728060D01*
X5489679Y4760858D02*
Y4787096D01*
X5483119D01*
X5456881Y4760858D01*
X5450321D01*
X4633119Y5102144D02*
X4639679Y5095584D01*
Y5082465D01*
X4633119Y5075905D01*
X4606881D01*
X4600321Y5082465D01*
Y5095584D01*
X4606881Y5102144D01*
X4600321Y5115263D02*
Y5128382D01*
Y5121822D01*
X4639679D01*
X4633119Y5115263D01*
X4600321Y5148060D02*
Y5161180D01*
Y5154620D01*
X4639679D01*
X4633119Y5148060D01*
X4639679Y5207096D02*
X4633119Y5193977D01*
X4620000Y5180858D01*
X4606881D01*
X4600321Y5187418D01*
Y5200537D01*
X4606881Y5207096D01*
X4613440D01*
X4620000Y5200537D01*
Y5180858D01*
X4793119Y4732144D02*
X4799679Y4725584D01*
Y4712465D01*
X4793119Y4705905D01*
X4766881D01*
X4760321Y4712465D01*
Y4725584D01*
X4766881Y4732144D01*
X4760321Y4745263D02*
Y4758382D01*
Y4751822D01*
X4799679D01*
X4793119Y4745263D01*
X4760321Y4778060D02*
Y4791180D01*
Y4784620D01*
X4799679D01*
X4793119Y4778060D01*
X4799679Y4837096D02*
Y4810858D01*
X4780000D01*
X4786560Y4823977D01*
Y4830537D01*
X4780000Y4837096D01*
X4766881D01*
X4760321Y4830537D01*
Y4817418D01*
X4766881Y4810858D01*
X4807856Y4988119D02*
X4814416Y4994679D01*
X4827535D01*
X4834095Y4988119D01*
Y4961881D01*
X4827535Y4955321D01*
X4814416D01*
X4807856Y4961881D01*
X4794737Y4955321D02*
X4781618D01*
X4788178D01*
Y4994679D01*
X4794737Y4988119D01*
X4761939Y4955321D02*
X4748820D01*
X4755380D01*
Y4994679D01*
X4761939Y4988119D01*
X4709463Y4955321D02*
Y4994679D01*
X4729142Y4975000D01*
X4702903D01*
X4903119Y4732144D02*
X4909679Y4725584D01*
Y4712465D01*
X4903119Y4705905D01*
X4876881D01*
X4870321Y4712465D01*
Y4725584D01*
X4876881Y4732144D01*
X4870321Y4745263D02*
Y4758382D01*
Y4751822D01*
X4909679D01*
X4903119Y4745263D01*
X4870321Y4778060D02*
Y4791180D01*
Y4784620D01*
X4909679D01*
X4903119Y4778060D01*
Y4810858D02*
X4909679Y4817418D01*
Y4830537D01*
X4903119Y4837096D01*
X4896560D01*
X4890000Y4830537D01*
Y4823977D01*
Y4830537D01*
X4883440Y4837096D01*
X4876881D01*
X4870321Y4830537D01*
Y4817418D01*
X4876881Y4810858D01*
X5057856Y5003119D02*
X5064416Y5009679D01*
X5077535D01*
X5084095Y5003119D01*
Y4976881D01*
X5077535Y4970321D01*
X5064416D01*
X5057856Y4976881D01*
X5044737Y4970321D02*
X5031618D01*
X5038178D01*
Y5009679D01*
X5044737Y5003119D01*
X5011939Y4970321D02*
X4998820D01*
X5005380D01*
Y5009679D01*
X5011939Y5003119D01*
X4952903Y4970321D02*
X4979142D01*
X4952903Y4996560D01*
Y5003119D01*
X4959463Y5009679D01*
X4972582D01*
X4979142Y5003119D01*
X5123119Y4872144D02*
X5129679Y4865584D01*
Y4852465D01*
X5123119Y4845905D01*
X5096881D01*
X5090321Y4852465D01*
Y4865584D01*
X5096881Y4872144D01*
X5090321Y4885263D02*
Y4898382D01*
Y4891822D01*
X5129679D01*
X5123119Y4885263D01*
X5090321Y4918061D02*
Y4931180D01*
Y4924620D01*
X5129679D01*
X5123119Y4918061D01*
X5090321Y4950858D02*
Y4963977D01*
Y4957418D01*
X5129679D01*
X5123119Y4950858D01*
X5037856Y4823119D02*
X5044416Y4829679D01*
X5057535D01*
X5064095Y4823119D01*
Y4796881D01*
X5057535Y4790321D01*
X5044416D01*
X5037856Y4796881D01*
X5024737Y4790321D02*
X5011618D01*
X5018178D01*
Y4829679D01*
X5024737Y4823119D01*
X4991939Y4790321D02*
X4978820D01*
X4985380D01*
Y4829679D01*
X4991939Y4823119D01*
X4959142D02*
X4952582Y4829679D01*
X4939463D01*
X4932903Y4823119D01*
Y4796881D01*
X4939463Y4790321D01*
X4952582D01*
X4959142Y4796881D01*
Y4823119D01*
X4693119Y5102144D02*
X4699679Y5095584D01*
Y5082465D01*
X4693119Y5075905D01*
X4666881D01*
X4660321Y5082465D01*
Y5095584D01*
X4666881Y5102144D01*
X4660321Y5115263D02*
Y5128382D01*
Y5121822D01*
X4699679D01*
X4693119Y5115263D01*
Y5148060D02*
X4699679Y5154620D01*
Y5167739D01*
X4693119Y5174299D01*
X4666881D01*
X4660321Y5167739D01*
Y5154620D01*
X4666881Y5148060D01*
X4693119D01*
X4666881Y5187418D02*
X4660321Y5193977D01*
Y5207097D01*
X4666881Y5213656D01*
X4693119D01*
X4699679Y5207097D01*
Y5193977D01*
X4693119Y5187418D01*
X4686560D01*
X4680000Y5193977D01*
Y5213656D01*
X4603119Y4262144D02*
X4609679Y4255584D01*
Y4242465D01*
X4603119Y4235905D01*
X4576881D01*
X4570321Y4242465D01*
Y4255584D01*
X4576881Y4262144D01*
X4570321Y4275263D02*
Y4288382D01*
Y4281822D01*
X4609679D01*
X4603119Y4275263D01*
Y4308060D02*
X4609679Y4314620D01*
Y4327739D01*
X4603119Y4334299D01*
X4576881D01*
X4570321Y4327739D01*
Y4314620D01*
X4576881Y4308060D01*
X4603119D01*
Y4347418D02*
X4609679Y4353977D01*
Y4367097D01*
X4603119Y4373656D01*
X4596560D01*
X4590000Y4367097D01*
X4583440Y4373656D01*
X4576881D01*
X4570321Y4367097D01*
Y4353977D01*
X4576881Y4347418D01*
X4583440D01*
X4590000Y4353977D01*
X4596560Y4347418D01*
X4603119D01*
X4590000Y4353977D02*
Y4367097D01*
X5037856Y5213119D02*
X5044416Y5219679D01*
X5057535D01*
X5064095Y5213119D01*
Y5186881D01*
X5057535Y5180321D01*
X5044416D01*
X5037856Y5186881D01*
X5024737Y5180321D02*
X5011618D01*
X5018178D01*
Y5219679D01*
X5024737Y5213119D01*
X4991939D02*
X4985380Y5219679D01*
X4972261D01*
X4965701Y5213119D01*
Y5186881D01*
X4972261Y5180321D01*
X4985380D01*
X4991939Y5186881D01*
Y5213119D01*
X4952582Y5219679D02*
X4926344D01*
Y5213119D01*
X4952582Y5186881D01*
Y5180321D01*
X5003119Y4512144D02*
X5009679Y4505584D01*
Y4492465D01*
X5003119Y4485905D01*
X4976881D01*
X4970321Y4492465D01*
Y4505584D01*
X4976881Y4512144D01*
X4970321Y4525263D02*
Y4538382D01*
Y4531822D01*
X5009679D01*
X5003119Y4525263D01*
Y4558060D02*
X5009679Y4564620D01*
Y4577739D01*
X5003119Y4584299D01*
X4976881D01*
X4970321Y4577739D01*
Y4564620D01*
X4976881Y4558060D01*
X5003119D01*
X5009679Y4623656D02*
X5003119Y4610537D01*
X4990000Y4597418D01*
X4976881D01*
X4970321Y4603977D01*
Y4617097D01*
X4976881Y4623656D01*
X4983440D01*
X4990000Y4617097D01*
Y4597418D01*
X5143119Y5412144D02*
X5149679Y5405584D01*
Y5392465D01*
X5143119Y5385905D01*
X5116881D01*
X5110321Y5392465D01*
Y5405584D01*
X5116881Y5412144D01*
X5110321Y5425263D02*
Y5438382D01*
Y5431822D01*
X5149679D01*
X5143119Y5425263D01*
Y5458060D02*
X5149679Y5464620D01*
Y5477739D01*
X5143119Y5484299D01*
X5116881D01*
X5110321Y5477739D01*
Y5464620D01*
X5116881Y5458060D01*
X5143119D01*
X5149679Y5523656D02*
Y5497418D01*
X5130000D01*
X5136560Y5510537D01*
Y5517097D01*
X5130000Y5523656D01*
X5116881D01*
X5110321Y5517097D01*
Y5503977D01*
X5116881Y5497418D01*
X4617856Y5033119D02*
X4624416Y5039679D01*
X4637535D01*
X4644095Y5033119D01*
Y5006881D01*
X4637535Y5000321D01*
X4624416D01*
X4617856Y5006881D01*
X4604737Y5000321D02*
X4591618D01*
X4598178D01*
Y5039679D01*
X4604737Y5033119D01*
X4571939D02*
X4565380Y5039679D01*
X4552261D01*
X4545701Y5033119D01*
Y5006881D01*
X4552261Y5000321D01*
X4565380D01*
X4571939Y5006881D01*
Y5033119D01*
X4512903Y5000321D02*
Y5039679D01*
X4532582Y5020000D01*
X4506344D01*
X4757856Y5363119D02*
X4764416Y5369679D01*
X4777535D01*
X4784095Y5363119D01*
Y5336881D01*
X4777535Y5330321D01*
X4764416D01*
X4757856Y5336881D01*
X4744737Y5330321D02*
X4731618D01*
X4738178D01*
Y5369679D01*
X4744737Y5363119D01*
X4711939D02*
X4705380Y5369679D01*
X4692261D01*
X4685701Y5363119D01*
Y5336881D01*
X4692261Y5330321D01*
X4705380D01*
X4711939Y5336881D01*
Y5363119D01*
X4672582D02*
X4666022Y5369679D01*
X4652903D01*
X4646344Y5363119D01*
Y5356560D01*
X4652903Y5350000D01*
X4659463D01*
X4652903D01*
X4646344Y5343440D01*
Y5336881D01*
X4652903Y5330321D01*
X4666022D01*
X4672582Y5336881D01*
X4837856Y5303119D02*
X4844416Y5309679D01*
X4857535D01*
X4864095Y5303119D01*
Y5276881D01*
X4857535Y5270321D01*
X4844416D01*
X4837856Y5276881D01*
X4824737Y5270321D02*
X4811618D01*
X4818178D01*
Y5309679D01*
X4824737Y5303119D01*
X4791939D02*
X4785380Y5309679D01*
X4772261D01*
X4765701Y5303119D01*
Y5276881D01*
X4772261Y5270321D01*
X4785380D01*
X4791939Y5276881D01*
Y5303119D01*
X4726344Y5270321D02*
X4752582D01*
X4726344Y5296560D01*
Y5303119D01*
X4732903Y5309679D01*
X4746022D01*
X4752582Y5303119D01*
X3883119Y3482144D02*
X3889679Y3475584D01*
Y3462465D01*
X3883119Y3455905D01*
X3856881D01*
X3850321Y3462465D01*
Y3475584D01*
X3856881Y3482144D01*
X3889679Y3495263D02*
Y3521501D01*
X3883119D01*
X3856881Y3495263D01*
X3850321D01*
X3889679Y3534620D02*
Y3560858D01*
X3883119D01*
X3856881Y3534620D01*
X3850321D01*
X2173119Y3492144D02*
X2179679Y3485584D01*
Y3472465D01*
X2173119Y3465905D01*
X2146881D01*
X2140321Y3472465D01*
Y3485584D01*
X2146881Y3492144D01*
X2179679Y3531501D02*
X2173119Y3518382D01*
X2160000Y3505263D01*
X2146881D01*
X2140321Y3511822D01*
Y3524941D01*
X2146881Y3531501D01*
X2153441D01*
X2160000Y3524941D01*
Y3505263D01*
X2173119Y3544620D02*
X2179679Y3551180D01*
Y3564299D01*
X2173119Y3570858D01*
X2166560D01*
X2160000Y3564299D01*
X2153441Y3570858D01*
X2146881D01*
X2140321Y3564299D01*
Y3551180D01*
X2146881Y3544620D01*
X2153441D01*
X2160000Y3551180D01*
X2166560Y3544620D01*
X2173119D01*
X2160000Y3551180D02*
Y3564299D01*
X2743119Y3502144D02*
X2749679Y3495584D01*
Y3482465D01*
X2743119Y3475905D01*
X2716881D01*
X2710321Y3482465D01*
Y3495584D01*
X2716881Y3502144D01*
X2749679Y3541501D02*
Y3515263D01*
X2730000D01*
X2736560Y3528382D01*
Y3534941D01*
X2730000Y3541501D01*
X2716881D01*
X2710321Y3534941D01*
Y3521822D01*
X2716881Y3515263D01*
X2749679Y3554620D02*
Y3580858D01*
X2743119D01*
X2716881Y3554620D01*
X2710321D01*
X3363119Y3482144D02*
X3369679Y3475584D01*
Y3462465D01*
X3363119Y3455905D01*
X3336881D01*
X3330321Y3462465D01*
Y3475584D01*
X3336881Y3482144D01*
X3330321Y3514941D02*
X3369679D01*
X3350000Y3495263D01*
Y3521501D01*
X3363119Y3534620D02*
X3369679Y3541180D01*
Y3554299D01*
X3363119Y3560858D01*
X3356560D01*
X3350000Y3554299D01*
X3343441Y3560858D01*
X3336881D01*
X3330321Y3554299D01*
Y3541180D01*
X3336881Y3534620D01*
X3343441D01*
X3350000Y3541180D01*
X3356560Y3534620D01*
X3363119D01*
X3350000Y3541180D02*
Y3554299D01*
X4143119Y5662144D02*
X4149679Y5655584D01*
Y5642465D01*
X4143119Y5635905D01*
X4116881D01*
X4110321Y5642465D01*
Y5655584D01*
X4116881Y5662144D01*
X4143119Y5675263D02*
X4149679Y5681822D01*
Y5694941D01*
X4143119Y5701501D01*
X4136560D01*
X4130000Y5694941D01*
Y5688382D01*
Y5694941D01*
X4123440Y5701501D01*
X4116881D01*
X4110321Y5694941D01*
Y5681822D01*
X4116881Y5675263D01*
X4149679Y5714620D02*
Y5740858D01*
X4143119D01*
X4116881Y5714620D01*
X4110321D01*
X4083119Y5692144D02*
X4089679Y5685584D01*
Y5672465D01*
X4083119Y5665905D01*
X4056881D01*
X4050321Y5672465D01*
Y5685584D01*
X4056881Y5692144D01*
X4083119Y5705263D02*
X4089679Y5711822D01*
Y5724941D01*
X4083119Y5731501D01*
X4076560D01*
X4070000Y5724941D01*
Y5718382D01*
Y5724941D01*
X4063441Y5731501D01*
X4056881D01*
X4050321Y5724941D01*
Y5711822D01*
X4056881Y5705263D01*
X4089679Y5770858D02*
X4083119Y5757739D01*
X4070000Y5744620D01*
X4056881D01*
X4050321Y5751180D01*
Y5764299D01*
X4056881Y5770858D01*
X4063441D01*
X4070000Y5764299D01*
Y5744620D01*
X3653119Y5662144D02*
X3659679Y5655584D01*
Y5642465D01*
X3653119Y5635905D01*
X3626881D01*
X3620321Y5642465D01*
Y5655584D01*
X3626881Y5662144D01*
X3653119Y5675263D02*
X3659679Y5681822D01*
Y5694941D01*
X3653119Y5701501D01*
X3646560D01*
X3640000Y5694941D01*
Y5688382D01*
Y5694941D01*
X3633441Y5701501D01*
X3626881D01*
X3620321Y5694941D01*
Y5681822D01*
X3626881Y5675263D01*
X3659679Y5740858D02*
Y5714620D01*
X3640000D01*
X3646560Y5727739D01*
Y5734299D01*
X3640000Y5740858D01*
X3626881D01*
X3620321Y5734299D01*
Y5721180D01*
X3626881Y5714620D01*
X3763119Y5802144D02*
X3769679Y5795584D01*
Y5782465D01*
X3763119Y5775905D01*
X3736881D01*
X3730321Y5782465D01*
Y5795584D01*
X3736881Y5802144D01*
X3763119Y5815263D02*
X3769679Y5821822D01*
Y5834941D01*
X3763119Y5841501D01*
X3756560D01*
X3750000Y5834941D01*
Y5828382D01*
Y5834941D01*
X3743441Y5841501D01*
X3736881D01*
X3730321Y5834941D01*
Y5821822D01*
X3736881Y5815263D01*
X3730321Y5874299D02*
X3769679D01*
X3750000Y5854620D01*
Y5880858D01*
X4153119Y4482144D02*
X4159679Y4475584D01*
Y4462465D01*
X4153119Y4455905D01*
X4126881D01*
X4120321Y4462465D01*
Y4475584D01*
X4126881Y4482144D01*
X4153119Y4495263D02*
X4159679Y4501822D01*
Y4514941D01*
X4153119Y4521501D01*
X4146560D01*
X4140000Y4514941D01*
Y4508382D01*
Y4514941D01*
X4133440Y4521501D01*
X4126881D01*
X4120321Y4514941D01*
Y4501822D01*
X4126881Y4495263D01*
X4120321Y4534620D02*
Y4547739D01*
Y4541180D01*
X4159679D01*
X4153119Y4534620D01*
X4093119Y4502144D02*
X4099679Y4495584D01*
Y4482465D01*
X4093119Y4475905D01*
X4066881D01*
X4060321Y4482465D01*
Y4495584D01*
X4066881Y4502144D01*
X4093119Y4515263D02*
X4099679Y4521822D01*
Y4534941D01*
X4093119Y4541501D01*
X4086560D01*
X4080000Y4534941D01*
Y4528382D01*
Y4534941D01*
X4073441Y4541501D01*
X4066881D01*
X4060321Y4534941D01*
Y4521822D01*
X4066881Y4515263D01*
X4093119Y4554620D02*
X4099679Y4561180D01*
Y4574299D01*
X4093119Y4580858D01*
X4066881D01*
X4060321Y4574299D01*
Y4561180D01*
X4066881Y4554620D01*
X4093119D01*
X3653119Y4462144D02*
X3659679Y4455584D01*
Y4442465D01*
X3653119Y4435905D01*
X3626881D01*
X3620321Y4442465D01*
Y4455584D01*
X3626881Y4462144D01*
X3620321Y4501501D02*
Y4475263D01*
X3646560Y4501501D01*
X3653119D01*
X3659679Y4494941D01*
Y4481822D01*
X3653119Y4475263D01*
X3626881Y4514620D02*
X3620321Y4521180D01*
Y4534299D01*
X3626881Y4540858D01*
X3653119D01*
X3659679Y4534299D01*
Y4521180D01*
X3653119Y4514620D01*
X3646560D01*
X3640000Y4521180D01*
Y4540858D01*
X3723119Y4502144D02*
X3729679Y4495584D01*
Y4482465D01*
X3723119Y4475905D01*
X3696881D01*
X3690321Y4482465D01*
Y4495584D01*
X3696881Y4502144D01*
X3690321Y4541501D02*
Y4515263D01*
X3716560Y4541501D01*
X3723119D01*
X3729679Y4534941D01*
Y4521822D01*
X3723119Y4515263D01*
Y4554620D02*
X3729679Y4561180D01*
Y4574299D01*
X3723119Y4580858D01*
X3716560D01*
X3710000Y4574299D01*
X3703441Y4580858D01*
X3696881D01*
X3690321Y4574299D01*
Y4561180D01*
X3696881Y4554620D01*
X3703441D01*
X3710000Y4561180D01*
X3716560Y4554620D01*
X3723119D01*
X3710000Y4561180D02*
Y4574299D01*
X4257856Y6013119D02*
X4264416Y6019679D01*
X4277535D01*
X4284095Y6013119D01*
Y5986881D01*
X4277535Y5980321D01*
X4264416D01*
X4257856Y5986881D01*
X4218499Y5980321D02*
X4244737D01*
X4218499Y6006560D01*
Y6013119D01*
X4225059Y6019679D01*
X4238178D01*
X4244737Y6013119D01*
X4205380Y6019679D02*
X4179142D01*
Y6013119D01*
X4205380Y5986881D01*
Y5980321D01*
X4277856Y5743119D02*
X4284416Y5749679D01*
X4297535D01*
X4304095Y5743119D01*
Y5716881D01*
X4297535Y5710321D01*
X4284416D01*
X4277856Y5716881D01*
X4238499Y5710321D02*
X4264737D01*
X4238499Y5736560D01*
Y5743119D01*
X4245059Y5749679D01*
X4258178D01*
X4264737Y5743119D01*
X4199142Y5749679D02*
X4212261Y5743119D01*
X4225380Y5730000D01*
Y5716881D01*
X4218820Y5710321D01*
X4205701D01*
X4199142Y5716881D01*
Y5723440D01*
X4205701Y5730000D01*
X4225380D01*
X4257856Y4813119D02*
X4264416Y4819679D01*
X4277535D01*
X4284095Y4813119D01*
Y4786881D01*
X4277535Y4780321D01*
X4264416D01*
X4257856Y4786881D01*
X4218499Y4780321D02*
X4244737D01*
X4218499Y4806560D01*
Y4813119D01*
X4225059Y4819679D01*
X4238178D01*
X4244737Y4813119D01*
X4179142Y4819679D02*
X4205380D01*
Y4800000D01*
X4192261Y4806560D01*
X4185701D01*
X4179142Y4800000D01*
Y4786881D01*
X4185701Y4780321D01*
X4198820D01*
X4205380Y4786881D01*
X4277856Y4543119D02*
X4284416Y4549679D01*
X4297535D01*
X4304095Y4543119D01*
Y4516881D01*
X4297535Y4510321D01*
X4284416D01*
X4277856Y4516881D01*
X4238499Y4510321D02*
X4264737D01*
X4238499Y4536560D01*
Y4543119D01*
X4245059Y4549679D01*
X4258178D01*
X4264737Y4543119D01*
X4205701Y4510321D02*
Y4549679D01*
X4225380Y4530000D01*
X4199142D01*
X4143119Y6892144D02*
X4149679Y6885584D01*
Y6872465D01*
X4143119Y6865905D01*
X4116881D01*
X4110321Y6872465D01*
Y6885584D01*
X4116881Y6892144D01*
Y6905263D02*
X4110321Y6911822D01*
Y6924941D01*
X4116881Y6931501D01*
X4143119D01*
X4149679Y6924941D01*
Y6911822D01*
X4143119Y6905263D01*
X4136560D01*
X4130000Y6911822D01*
Y6931501D01*
X4063119Y6892144D02*
X4069679Y6885584D01*
Y6872465D01*
X4063119Y6865905D01*
X4036881D01*
X4030321Y6872465D01*
Y6885584D01*
X4036881Y6892144D01*
X4063119Y6905263D02*
X4069679Y6911822D01*
Y6924941D01*
X4063119Y6931501D01*
X4056560D01*
X4050000Y6924941D01*
X4043441Y6931501D01*
X4036881D01*
X4030321Y6924941D01*
Y6911822D01*
X4036881Y6905263D01*
X4043441D01*
X4050000Y6911822D01*
X4056560Y6905263D01*
X4063119D01*
X4050000Y6911822D02*
Y6924941D01*
M02*
