G04*
G04 #@! TF.GenerationSoftware,Altium Limited,Altium Designer,24.4.1 (13)*
G04*
G04 Layer_Color=8388736*
%FSLAX26Y26*%
%MOIN*%
G70*
G04*
G04 #@! TF.SameCoordinates,905C8A78-2083-4C7B-A4A3-8DC1081A3543*
G04*
G04*
G04 #@! TF.FilePolarity,Negative*
G04*
G01*
G75*
%ADD71C,0.012400*%
G04:AMPARAMS|DCode=72|XSize=92.52mil|YSize=53.15mil|CornerRadius=3.199mil|HoleSize=0mil|Usage=FLASHONLY|Rotation=270.000|XOffset=0mil|YOffset=0mil|HoleType=Round|Shape=RoundedRectangle|*
%AMROUNDEDRECTD72*
21,1,0.092520,0.046752,0,0,270.0*
21,1,0.086122,0.053150,0,0,270.0*
1,1,0.006398,-0.023376,-0.043061*
1,1,0.006398,-0.023376,0.043061*
1,1,0.006398,0.023376,0.043061*
1,1,0.006398,0.023376,-0.043061*
%
%ADD72ROUNDEDRECTD72*%
%ADD73C,0.031102*%
G04:AMPARAMS|DCode=74|XSize=23.622mil|YSize=9.842mil|CornerRadius=1.23mil|HoleSize=0mil|Usage=FLASHONLY|Rotation=270.000|XOffset=0mil|YOffset=0mil|HoleType=Round|Shape=RoundedRectangle|*
%AMROUNDEDRECTD74*
21,1,0.023622,0.007382,0,0,270.0*
21,1,0.021161,0.009842,0,0,270.0*
1,1,0.002461,-0.003691,-0.010581*
1,1,0.002461,-0.003691,0.010581*
1,1,0.002461,0.003691,0.010581*
1,1,0.002461,0.003691,-0.010581*
%
%ADD74ROUNDEDRECTD74*%
G04:AMPARAMS|DCode=75|XSize=23.622mil|YSize=10.827mil|CornerRadius=1.353mil|HoleSize=0mil|Usage=FLASHONLY|Rotation=0.000|XOffset=0mil|YOffset=0mil|HoleType=Round|Shape=RoundedRectangle|*
%AMROUNDEDRECTD75*
21,1,0.023622,0.008120,0,0,0.0*
21,1,0.020915,0.010827,0,0,0.0*
1,1,0.002707,0.010458,-0.004060*
1,1,0.002707,-0.010458,-0.004060*
1,1,0.002707,-0.010458,0.004060*
1,1,0.002707,0.010458,0.004060*
%
%ADD75ROUNDEDRECTD75*%
G04:AMPARAMS|DCode=76|XSize=23.622mil|YSize=9.842mil|CornerRadius=1.23mil|HoleSize=0mil|Usage=FLASHONLY|Rotation=180.000|XOffset=0mil|YOffset=0mil|HoleType=Round|Shape=RoundedRectangle|*
%AMROUNDEDRECTD76*
21,1,0.023622,0.007382,0,0,180.0*
21,1,0.021161,0.009842,0,0,180.0*
1,1,0.002461,-0.010581,0.003691*
1,1,0.002461,0.010581,0.003691*
1,1,0.002461,0.010581,-0.003691*
1,1,0.002461,-0.010581,-0.003691*
%
%ADD76ROUNDEDRECTD76*%
G04:AMPARAMS|DCode=77|XSize=27.559mil|YSize=13.78mil|CornerRadius=3.199mil|HoleSize=0mil|Usage=FLASHONLY|Rotation=270.000|XOffset=0mil|YOffset=0mil|HoleType=Round|Shape=RoundedRectangle|*
%AMROUNDEDRECTD77*
21,1,0.027559,0.007382,0,0,270.0*
21,1,0.021161,0.013780,0,0,270.0*
1,1,0.006398,-0.003691,-0.010581*
1,1,0.006398,-0.003691,0.010581*
1,1,0.006398,0.003691,0.010581*
1,1,0.006398,0.003691,-0.010581*
%
%ADD77ROUNDEDRECTD77*%
G04:AMPARAMS|DCode=78|XSize=27.559mil|YSize=13.78mil|CornerRadius=3.199mil|HoleSize=0mil|Usage=FLASHONLY|Rotation=180.000|XOffset=0mil|YOffset=0mil|HoleType=Round|Shape=RoundedRectangle|*
%AMROUNDEDRECTD78*
21,1,0.027559,0.007382,0,0,180.0*
21,1,0.021161,0.013780,0,0,180.0*
1,1,0.006398,-0.010581,0.003691*
1,1,0.006398,0.010581,0.003691*
1,1,0.006398,0.010581,-0.003691*
1,1,0.006398,-0.010581,-0.003691*
%
%ADD78ROUNDEDRECTD78*%
G04:AMPARAMS|DCode=79|XSize=23.622mil|YSize=11.811mil|CornerRadius=1.476mil|HoleSize=0mil|Usage=FLASHONLY|Rotation=270.000|XOffset=0mil|YOffset=0mil|HoleType=Round|Shape=RoundedRectangle|*
%AMROUNDEDRECTD79*
21,1,0.023622,0.008858,0,0,270.0*
21,1,0.020669,0.011811,0,0,270.0*
1,1,0.002953,-0.004429,-0.010335*
1,1,0.002953,-0.004429,0.010335*
1,1,0.002953,0.004429,0.010335*
1,1,0.002953,0.004429,-0.010335*
%
%ADD79ROUNDEDRECTD79*%
G04:AMPARAMS|DCode=80|XSize=70.866mil|YSize=102.362mil|CornerRadius=1.772mil|HoleSize=0mil|Usage=FLASHONLY|Rotation=270.000|XOffset=0mil|YOffset=0mil|HoleType=Round|Shape=RoundedRectangle|*
%AMROUNDEDRECTD80*
21,1,0.070866,0.098819,0,0,270.0*
21,1,0.067323,0.102362,0,0,270.0*
1,1,0.003543,-0.049410,-0.033661*
1,1,0.003543,-0.049410,0.033661*
1,1,0.003543,0.049410,0.033661*
1,1,0.003543,0.049410,-0.033661*
%
%ADD80ROUNDEDRECTD80*%
G04:AMPARAMS|DCode=81|XSize=179.528mil|YSize=168.504mil|CornerRadius=1.685mil|HoleSize=0mil|Usage=FLASHONLY|Rotation=270.000|XOffset=0mil|YOffset=0mil|HoleType=Round|Shape=RoundedRectangle|*
%AMROUNDEDRECTD81*
21,1,0.179528,0.165134,0,0,270.0*
21,1,0.176158,0.168504,0,0,270.0*
1,1,0.003370,-0.082567,-0.088079*
1,1,0.003370,-0.082567,0.088079*
1,1,0.003370,0.082567,0.088079*
1,1,0.003370,0.082567,-0.088079*
%
%ADD81ROUNDEDRECTD81*%
G04:AMPARAMS|DCode=82|XSize=38.386mil|YSize=11.811mil|CornerRadius=2.953mil|HoleSize=0mil|Usage=FLASHONLY|Rotation=90.000|XOffset=0mil|YOffset=0mil|HoleType=Round|Shape=RoundedRectangle|*
%AMROUNDEDRECTD82*
21,1,0.038386,0.005906,0,0,90.0*
21,1,0.032480,0.011811,0,0,90.0*
1,1,0.005905,0.002953,0.016240*
1,1,0.005905,0.002953,-0.016240*
1,1,0.005905,-0.002953,-0.016240*
1,1,0.005905,-0.002953,0.016240*
%
%ADD82ROUNDEDRECTD82*%
G04:AMPARAMS|DCode=83|XSize=38.386mil|YSize=11.811mil|CornerRadius=2.953mil|HoleSize=0mil|Usage=FLASHONLY|Rotation=0.000|XOffset=0mil|YOffset=0mil|HoleType=Round|Shape=RoundedRectangle|*
%AMROUNDEDRECTD83*
21,1,0.038386,0.005906,0,0,0.0*
21,1,0.032480,0.011811,0,0,0.0*
1,1,0.005905,0.016240,-0.002953*
1,1,0.005905,-0.016240,-0.002953*
1,1,0.005905,-0.016240,0.002953*
1,1,0.005905,0.016240,0.002953*
%
%ADD83ROUNDEDRECTD83*%
G04:AMPARAMS|DCode=84|XSize=129.921mil|YSize=129.921mil|CornerRadius=3.858mil|HoleSize=0mil|Usage=FLASHONLY|Rotation=270.000|XOffset=0mil|YOffset=0mil|HoleType=Round|Shape=RoundedRectangle|*
%AMROUNDEDRECTD84*
21,1,0.129921,0.122205,0,0,270.0*
21,1,0.122205,0.129921,0,0,270.0*
1,1,0.007717,-0.061102,-0.061102*
1,1,0.007717,-0.061102,0.061102*
1,1,0.007717,0.061102,0.061102*
1,1,0.007717,0.061102,-0.061102*
%
%ADD84ROUNDEDRECTD84*%
G04:AMPARAMS|DCode=85|XSize=82.677mil|YSize=82.677mil|CornerRadius=3.307mil|HoleSize=0mil|Usage=FLASHONLY|Rotation=90.000|XOffset=0mil|YOffset=0mil|HoleType=Round|Shape=RoundedRectangle|*
%AMROUNDEDRECTD85*
21,1,0.082677,0.076063,0,0,90.0*
21,1,0.076063,0.082677,0,0,90.0*
1,1,0.006614,0.038032,0.038032*
1,1,0.006614,0.038032,-0.038032*
1,1,0.006614,-0.038032,-0.038032*
1,1,0.006614,-0.038032,0.038032*
%
%ADD85ROUNDEDRECTD85*%
G04:AMPARAMS|DCode=86|XSize=25.197mil|YSize=21.26mil|CornerRadius=5.315mil|HoleSize=0mil|Usage=FLASHONLY|Rotation=90.000|XOffset=0mil|YOffset=0mil|HoleType=Round|Shape=RoundedRectangle|*
%AMROUNDEDRECTD86*
21,1,0.025197,0.010630,0,0,90.0*
21,1,0.014567,0.021260,0,0,90.0*
1,1,0.010630,0.005315,0.007284*
1,1,0.010630,0.005315,-0.007284*
1,1,0.010630,-0.005315,-0.007284*
1,1,0.010630,-0.005315,0.007284*
%
%ADD86ROUNDEDRECTD86*%
%ADD87C,0.025197*%
G04:AMPARAMS|DCode=88|XSize=24.409mil|YSize=22.047mil|CornerRadius=5.512mil|HoleSize=0mil|Usage=FLASHONLY|Rotation=270.000|XOffset=0mil|YOffset=0mil|HoleType=Round|Shape=RoundedRectangle|*
%AMROUNDEDRECTD88*
21,1,0.024409,0.011024,0,0,270.0*
21,1,0.013386,0.022047,0,0,270.0*
1,1,0.011024,-0.005512,-0.006693*
1,1,0.011024,-0.005512,0.006693*
1,1,0.011024,0.005512,0.006693*
1,1,0.011024,0.005512,-0.006693*
%
%ADD88ROUNDEDRECTD88*%
G04:AMPARAMS|DCode=89|XSize=37.402mil|YSize=35.433mil|CornerRadius=4.429mil|HoleSize=0mil|Usage=FLASHONLY|Rotation=270.000|XOffset=0mil|YOffset=0mil|HoleType=Round|Shape=RoundedRectangle|*
%AMROUNDEDRECTD89*
21,1,0.037402,0.026575,0,0,270.0*
21,1,0.028543,0.035433,0,0,270.0*
1,1,0.008858,-0.013287,-0.014272*
1,1,0.008858,-0.013287,0.014272*
1,1,0.008858,0.013287,0.014272*
1,1,0.008858,0.013287,-0.014272*
%
%ADD89ROUNDEDRECTD89*%
G04:AMPARAMS|DCode=90|XSize=37.402mil|YSize=35.433mil|CornerRadius=4.429mil|HoleSize=0mil|Usage=FLASHONLY|Rotation=0.000|XOffset=0mil|YOffset=0mil|HoleType=Round|Shape=RoundedRectangle|*
%AMROUNDEDRECTD90*
21,1,0.037402,0.026575,0,0,0.0*
21,1,0.028543,0.035433,0,0,0.0*
1,1,0.008858,0.014272,-0.013287*
1,1,0.008858,-0.014272,-0.013287*
1,1,0.008858,-0.014272,0.013287*
1,1,0.008858,0.014272,0.013287*
%
%ADD90ROUNDEDRECTD90*%
G04:AMPARAMS|DCode=91|XSize=24.409mil|YSize=22.047mil|CornerRadius=5.512mil|HoleSize=0mil|Usage=FLASHONLY|Rotation=0.000|XOffset=0mil|YOffset=0mil|HoleType=Round|Shape=RoundedRectangle|*
%AMROUNDEDRECTD91*
21,1,0.024409,0.011024,0,0,0.0*
21,1,0.013386,0.022047,0,0,0.0*
1,1,0.011024,0.006693,-0.005512*
1,1,0.011024,-0.006693,-0.005512*
1,1,0.011024,-0.006693,0.005512*
1,1,0.011024,0.006693,0.005512*
%
%ADD91ROUNDEDRECTD91*%
G04:AMPARAMS|DCode=92|XSize=26.378mil|YSize=11.811mil|CornerRadius=1.476mil|HoleSize=0mil|Usage=FLASHONLY|Rotation=270.000|XOffset=0mil|YOffset=0mil|HoleType=Round|Shape=RoundedRectangle|*
%AMROUNDEDRECTD92*
21,1,0.026378,0.008858,0,0,270.0*
21,1,0.023425,0.011811,0,0,270.0*
1,1,0.002953,-0.004429,-0.011713*
1,1,0.002953,-0.004429,0.011713*
1,1,0.002953,0.004429,0.011713*
1,1,0.002953,0.004429,-0.011713*
%
%ADD92ROUNDEDRECTD92*%
G04:AMPARAMS|DCode=93|XSize=25.197mil|YSize=21.26mil|CornerRadius=5.315mil|HoleSize=0mil|Usage=FLASHONLY|Rotation=180.000|XOffset=0mil|YOffset=0mil|HoleType=Round|Shape=RoundedRectangle|*
%AMROUNDEDRECTD93*
21,1,0.025197,0.010630,0,0,180.0*
21,1,0.014567,0.021260,0,0,180.0*
1,1,0.010630,-0.007284,0.005315*
1,1,0.010630,0.007284,0.005315*
1,1,0.010630,0.007284,-0.005315*
1,1,0.010630,-0.007284,-0.005315*
%
%ADD93ROUNDEDRECTD93*%
G04:AMPARAMS|DCode=94|XSize=26.378mil|YSize=11.811mil|CornerRadius=1.476mil|HoleSize=0mil|Usage=FLASHONLY|Rotation=180.000|XOffset=0mil|YOffset=0mil|HoleType=Round|Shape=RoundedRectangle|*
%AMROUNDEDRECTD94*
21,1,0.026378,0.008858,0,0,180.0*
21,1,0.023425,0.011811,0,0,180.0*
1,1,0.002953,-0.011713,0.004429*
1,1,0.002953,0.011713,0.004429*
1,1,0.002953,0.011713,-0.004429*
1,1,0.002953,-0.011713,-0.004429*
%
%ADD94ROUNDEDRECTD94*%
G04:AMPARAMS|DCode=95|XSize=45.276mil|YSize=47.244mil|CornerRadius=3.396mil|HoleSize=0mil|Usage=FLASHONLY|Rotation=90.000|XOffset=0mil|YOffset=0mil|HoleType=Round|Shape=RoundedRectangle|*
%AMROUNDEDRECTD95*
21,1,0.045276,0.040453,0,0,90.0*
21,1,0.038484,0.047244,0,0,90.0*
1,1,0.006791,0.020226,0.019242*
1,1,0.006791,0.020226,-0.019242*
1,1,0.006791,-0.020226,-0.019242*
1,1,0.006791,-0.020226,0.019242*
%
%ADD95ROUNDEDRECTD95*%
G04:AMPARAMS|DCode=96|XSize=52.165mil|YSize=92.52mil|CornerRadius=4.956mil|HoleSize=0mil|Usage=FLASHONLY|Rotation=90.000|XOffset=0mil|YOffset=0mil|HoleType=Round|Shape=RoundedRectangle|*
%AMROUNDEDRECTD96*
21,1,0.052165,0.082608,0,0,90.0*
21,1,0.042254,0.092520,0,0,90.0*
1,1,0.009911,0.041304,0.021127*
1,1,0.009911,0.041304,-0.021127*
1,1,0.009911,-0.041304,-0.021127*
1,1,0.009911,-0.041304,0.021127*
%
%ADD96ROUNDEDRECTD96*%
G04:AMPARAMS|DCode=97|XSize=29.921mil|YSize=50mil|CornerRadius=7.48mil|HoleSize=0mil|Usage=FLASHONLY|Rotation=0.000|XOffset=0mil|YOffset=0mil|HoleType=Round|Shape=RoundedRectangle|*
%AMROUNDEDRECTD97*
21,1,0.029921,0.035039,0,0,0.0*
21,1,0.014961,0.050000,0,0,0.0*
1,1,0.014961,0.007480,-0.017520*
1,1,0.014961,-0.007480,-0.017520*
1,1,0.014961,-0.007480,0.017520*
1,1,0.014961,0.007480,0.017520*
%
%ADD97ROUNDEDRECTD97*%
G04:AMPARAMS|DCode=98|XSize=66.929mil|YSize=47.244mil|CornerRadius=5.906mil|HoleSize=0mil|Usage=FLASHONLY|Rotation=270.000|XOffset=0mil|YOffset=0mil|HoleType=Round|Shape=RoundedRectangle|*
%AMROUNDEDRECTD98*
21,1,0.066929,0.035433,0,0,270.0*
21,1,0.055118,0.047244,0,0,270.0*
1,1,0.011811,-0.017717,-0.027559*
1,1,0.011811,-0.017717,0.027559*
1,1,0.011811,0.017717,0.027559*
1,1,0.011811,0.017717,-0.027559*
%
%ADD98ROUNDEDRECTD98*%
G04:AMPARAMS|DCode=99|XSize=23.622mil|YSize=19.685mil|CornerRadius=1.476mil|HoleSize=0mil|Usage=FLASHONLY|Rotation=90.000|XOffset=0mil|YOffset=0mil|HoleType=Round|Shape=RoundedRectangle|*
%AMROUNDEDRECTD99*
21,1,0.023622,0.016732,0,0,90.0*
21,1,0.020669,0.019685,0,0,90.0*
1,1,0.002953,0.008366,0.010335*
1,1,0.002953,0.008366,-0.010335*
1,1,0.002953,-0.008366,-0.010335*
1,1,0.002953,-0.008366,0.010335*
%
%ADD99ROUNDEDRECTD99*%
G04:AMPARAMS|DCode=100|XSize=11.811mil|YSize=45.276mil|CornerRadius=1.476mil|HoleSize=0mil|Usage=FLASHONLY|Rotation=0.000|XOffset=0mil|YOffset=0mil|HoleType=Round|Shape=RoundedRectangle|*
%AMROUNDEDRECTD100*
21,1,0.011811,0.042323,0,0,0.0*
21,1,0.008858,0.045276,0,0,0.0*
1,1,0.002953,0.004429,-0.021161*
1,1,0.002953,-0.004429,-0.021161*
1,1,0.002953,-0.004429,0.021161*
1,1,0.002953,0.004429,0.021161*
%
%ADD100ROUNDEDRECTD100*%
G04:AMPARAMS|DCode=101|XSize=27.559mil|YSize=41.339mil|CornerRadius=4.921mil|HoleSize=0mil|Usage=FLASHONLY|Rotation=180.000|XOffset=0mil|YOffset=0mil|HoleType=Round|Shape=RoundedRectangle|*
%AMROUNDEDRECTD101*
21,1,0.027559,0.031496,0,0,180.0*
21,1,0.017716,0.041339,0,0,180.0*
1,1,0.009843,-0.008858,0.015748*
1,1,0.009843,0.008858,0.015748*
1,1,0.009843,0.008858,-0.015748*
1,1,0.009843,-0.008858,-0.015748*
%
%ADD101ROUNDEDRECTD101*%
G04:AMPARAMS|DCode=102|XSize=59.055mil|YSize=19.685mil|CornerRadius=4.921mil|HoleSize=0mil|Usage=FLASHONLY|Rotation=90.000|XOffset=0mil|YOffset=0mil|HoleType=Round|Shape=RoundedRectangle|*
%AMROUNDEDRECTD102*
21,1,0.059055,0.009843,0,0,90.0*
21,1,0.049213,0.019685,0,0,90.0*
1,1,0.009842,0.004921,0.024606*
1,1,0.009842,0.004921,-0.024606*
1,1,0.009842,-0.004921,-0.024606*
1,1,0.009842,-0.004921,0.024606*
%
%ADD102ROUNDEDRECTD102*%
G04:AMPARAMS|DCode=103|XSize=110.236mil|YSize=39.37mil|CornerRadius=4.921mil|HoleSize=0mil|Usage=FLASHONLY|Rotation=90.000|XOffset=0mil|YOffset=0mil|HoleType=Round|Shape=RoundedRectangle|*
%AMROUNDEDRECTD103*
21,1,0.110236,0.029528,0,0,90.0*
21,1,0.100394,0.039370,0,0,90.0*
1,1,0.009842,0.014764,0.050197*
1,1,0.009842,0.014764,-0.050197*
1,1,0.009842,-0.014764,-0.050197*
1,1,0.009842,-0.014764,0.050197*
%
%ADD103ROUNDEDRECTD103*%
G04:AMPARAMS|DCode=104|XSize=9.842mil|YSize=23.622mil|CornerRadius=1.034mil|HoleSize=0mil|Usage=FLASHONLY|Rotation=270.000|XOffset=0mil|YOffset=0mil|HoleType=Round|Shape=RoundedRectangle|*
%AMROUNDEDRECTD104*
21,1,0.009842,0.021555,0,0,270.0*
21,1,0.007776,0.023622,0,0,270.0*
1,1,0.002067,-0.010777,-0.003888*
1,1,0.002067,-0.010777,0.003888*
1,1,0.002067,0.010777,0.003888*
1,1,0.002067,0.010777,-0.003888*
%
%ADD104ROUNDEDRECTD104*%
G04:AMPARAMS|DCode=105|XSize=94.488mil|YSize=64.961mil|CornerRadius=1.299mil|HoleSize=0mil|Usage=FLASHONLY|Rotation=0.000|XOffset=0mil|YOffset=0mil|HoleType=Round|Shape=RoundedRectangle|*
%AMROUNDEDRECTD105*
21,1,0.094488,0.062362,0,0,0.0*
21,1,0.091890,0.064961,0,0,0.0*
1,1,0.002598,0.045945,-0.031181*
1,1,0.002598,-0.045945,-0.031181*
1,1,0.002598,-0.045945,0.031181*
1,1,0.002598,0.045945,0.031181*
%
%ADD105ROUNDEDRECTD105*%
G04:AMPARAMS|DCode=106|XSize=9.449mil|YSize=23.622mil|CornerRadius=0.992mil|HoleSize=0mil|Usage=FLASHONLY|Rotation=0.000|XOffset=0mil|YOffset=0mil|HoleType=Round|Shape=RoundedRectangle|*
%AMROUNDEDRECTD106*
21,1,0.009449,0.021638,0,0,0.0*
21,1,0.007465,0.023622,0,0,0.0*
1,1,0.001984,0.003732,-0.010819*
1,1,0.001984,-0.003732,-0.010819*
1,1,0.001984,-0.003732,0.010819*
1,1,0.001984,0.003732,0.010819*
%
%ADD106ROUNDEDRECTD106*%
G04:AMPARAMS|DCode=107|XSize=29.528mil|YSize=39.37mil|CornerRadius=2.362mil|HoleSize=0mil|Usage=FLASHONLY|Rotation=270.000|XOffset=0mil|YOffset=0mil|HoleType=Round|Shape=RoundedRectangle|*
%AMROUNDEDRECTD107*
21,1,0.029528,0.034646,0,0,270.0*
21,1,0.024803,0.039370,0,0,270.0*
1,1,0.004724,-0.017323,-0.012402*
1,1,0.004724,-0.017323,0.012402*
1,1,0.004724,0.017323,0.012402*
1,1,0.004724,0.017323,-0.012402*
%
%ADD107ROUNDEDRECTD107*%
G04:AMPARAMS|DCode=108|XSize=218.504mil|YSize=55.118mil|CornerRadius=1.654mil|HoleSize=0mil|Usage=FLASHONLY|Rotation=270.000|XOffset=0mil|YOffset=0mil|HoleType=Round|Shape=RoundedRectangle|*
%AMROUNDEDRECTD108*
21,1,0.218504,0.051811,0,0,270.0*
21,1,0.215197,0.055118,0,0,270.0*
1,1,0.003307,-0.025906,-0.107599*
1,1,0.003307,-0.025906,0.107599*
1,1,0.003307,0.025906,0.107599*
1,1,0.003307,0.025906,-0.107599*
%
%ADD108ROUNDEDRECTD108*%
G04:AMPARAMS|DCode=109|XSize=29.528mil|YSize=29.921mil|CornerRadius=2.362mil|HoleSize=0mil|Usage=FLASHONLY|Rotation=270.000|XOffset=0mil|YOffset=0mil|HoleType=Round|Shape=RoundedRectangle|*
%AMROUNDEDRECTD109*
21,1,0.029528,0.025197,0,0,270.0*
21,1,0.024803,0.029921,0,0,270.0*
1,1,0.004724,-0.012598,-0.012402*
1,1,0.004724,-0.012598,0.012402*
1,1,0.004724,0.012598,0.012402*
1,1,0.004724,0.012598,-0.012402*
%
%ADD109ROUNDEDRECTD109*%
G04:AMPARAMS|DCode=110|XSize=31.496mil|YSize=78.74mil|CornerRadius=7.874mil|HoleSize=0mil|Usage=FLASHONLY|Rotation=0.000|XOffset=0mil|YOffset=0mil|HoleType=Round|Shape=RoundedRectangle|*
%AMROUNDEDRECTD110*
21,1,0.031496,0.062992,0,0,0.0*
21,1,0.015748,0.078740,0,0,0.0*
1,1,0.015748,0.007874,-0.031496*
1,1,0.015748,-0.007874,-0.031496*
1,1,0.015748,-0.007874,0.031496*
1,1,0.015748,0.007874,0.031496*
%
%ADD110ROUNDEDRECTD110*%
G04:AMPARAMS|DCode=111|XSize=27.559mil|YSize=37.402mil|CornerRadius=4.331mil|HoleSize=0mil|Usage=FLASHONLY|Rotation=270.000|XOffset=0mil|YOffset=0mil|HoleType=Round|Shape=RoundedRectangle|*
%AMROUNDEDRECTD111*
21,1,0.027559,0.028740,0,0,270.0*
21,1,0.018898,0.037402,0,0,270.0*
1,1,0.008661,-0.014370,-0.009449*
1,1,0.008661,-0.014370,0.009449*
1,1,0.008661,0.014370,0.009449*
1,1,0.008661,0.014370,-0.009449*
%
%ADD111ROUNDEDRECTD111*%
G04:AMPARAMS|DCode=112|XSize=43.307mil|YSize=37.402mil|CornerRadius=5.315mil|HoleSize=0mil|Usage=FLASHONLY|Rotation=270.000|XOffset=0mil|YOffset=0mil|HoleType=Round|Shape=RoundedRectangle|*
%AMROUNDEDRECTD112*
21,1,0.043307,0.026772,0,0,270.0*
21,1,0.032677,0.037402,0,0,270.0*
1,1,0.010630,-0.013386,-0.016339*
1,1,0.010630,-0.013386,0.016339*
1,1,0.010630,0.013386,0.016339*
1,1,0.010630,0.013386,-0.016339*
%
%ADD112ROUNDEDRECTD112*%
%ADD113R,0.074803X0.017716*%
G04:AMPARAMS|DCode=114|XSize=59.055mil|YSize=19.685mil|CornerRadius=4.921mil|HoleSize=0mil|Usage=FLASHONLY|Rotation=180.000|XOffset=0mil|YOffset=0mil|HoleType=Round|Shape=RoundedRectangle|*
%AMROUNDEDRECTD114*
21,1,0.059055,0.009843,0,0,180.0*
21,1,0.049213,0.019685,0,0,180.0*
1,1,0.009842,-0.024606,0.004921*
1,1,0.009842,0.024606,0.004921*
1,1,0.009842,0.024606,-0.004921*
1,1,0.009842,-0.024606,-0.004921*
%
%ADD114ROUNDEDRECTD114*%
G04:AMPARAMS|DCode=115|XSize=66.929mil|YSize=31.496mil|CornerRadius=2.362mil|HoleSize=0mil|Usage=FLASHONLY|Rotation=180.000|XOffset=0mil|YOffset=0mil|HoleType=Round|Shape=RoundedRectangle|*
%AMROUNDEDRECTD115*
21,1,0.066929,0.026772,0,0,180.0*
21,1,0.062205,0.031496,0,0,180.0*
1,1,0.004724,-0.031102,0.013386*
1,1,0.004724,0.031102,0.013386*
1,1,0.004724,0.031102,-0.013386*
1,1,0.004724,-0.031102,-0.013386*
%
%ADD115ROUNDEDRECTD115*%
G04:AMPARAMS|DCode=116|XSize=43.307mil|YSize=45.276mil|CornerRadius=6.89mil|HoleSize=0mil|Usage=FLASHONLY|Rotation=270.000|XOffset=0mil|YOffset=0mil|HoleType=Round|Shape=RoundedRectangle|*
%AMROUNDEDRECTD116*
21,1,0.043307,0.031496,0,0,270.0*
21,1,0.029528,0.045276,0,0,270.0*
1,1,0.013779,-0.015748,-0.014764*
1,1,0.013779,-0.015748,0.014764*
1,1,0.013779,0.015748,0.014764*
1,1,0.013779,0.015748,-0.014764*
%
%ADD116ROUNDEDRECTD116*%
G04:AMPARAMS|DCode=117|XSize=45.276mil|YSize=90.551mil|CornerRadius=7.136mil|HoleSize=0mil|Usage=FLASHONLY|Rotation=270.000|XOffset=0mil|YOffset=0mil|HoleType=Round|Shape=RoundedRectangle|*
%AMROUNDEDRECTD117*
21,1,0.045276,0.076280,0,0,270.0*
21,1,0.031004,0.090551,0,0,270.0*
1,1,0.014272,-0.038140,-0.015502*
1,1,0.014272,-0.038140,0.015502*
1,1,0.014272,0.038140,0.015502*
1,1,0.014272,0.038140,-0.015502*
%
%ADD117ROUNDEDRECTD117*%
G04:AMPARAMS|DCode=118|XSize=7.874mil|YSize=23.622mil|CornerRadius=0.787mil|HoleSize=0mil|Usage=FLASHONLY|Rotation=90.000|XOffset=0mil|YOffset=0mil|HoleType=Round|Shape=RoundedRectangle|*
%AMROUNDEDRECTD118*
21,1,0.007874,0.022047,0,0,90.0*
21,1,0.006299,0.023622,0,0,90.0*
1,1,0.001575,0.011024,0.003150*
1,1,0.001575,0.011024,-0.003150*
1,1,0.001575,-0.011024,-0.003150*
1,1,0.001575,-0.011024,0.003150*
%
%ADD118ROUNDEDRECTD118*%
G04:AMPARAMS|DCode=119|XSize=7.874mil|YSize=62.992mil|CornerRadius=0.787mil|HoleSize=0mil|Usage=FLASHONLY|Rotation=90.000|XOffset=0mil|YOffset=0mil|HoleType=Round|Shape=RoundedRectangle|*
%AMROUNDEDRECTD119*
21,1,0.007874,0.061417,0,0,90.0*
21,1,0.006299,0.062992,0,0,90.0*
1,1,0.001575,0.030709,0.003150*
1,1,0.001575,0.030709,-0.003150*
1,1,0.001575,-0.030709,-0.003150*
1,1,0.001575,-0.030709,0.003150*
%
%ADD119ROUNDEDRECTD119*%
G04:AMPARAMS|DCode=120|XSize=9.449mil|YSize=35.433mil|CornerRadius=2.362mil|HoleSize=0mil|Usage=FLASHONLY|Rotation=90.000|XOffset=0mil|YOffset=0mil|HoleType=Round|Shape=RoundedRectangle|*
%AMROUNDEDRECTD120*
21,1,0.009449,0.030709,0,0,90.0*
21,1,0.004724,0.035433,0,0,90.0*
1,1,0.004724,0.015354,0.002362*
1,1,0.004724,0.015354,-0.002362*
1,1,0.004724,-0.015354,-0.002362*
1,1,0.004724,-0.015354,0.002362*
%
%ADD120ROUNDEDRECTD120*%
G04:AMPARAMS|DCode=121|XSize=9.449mil|YSize=35.433mil|CornerRadius=2.362mil|HoleSize=0mil|Usage=FLASHONLY|Rotation=180.000|XOffset=0mil|YOffset=0mil|HoleType=Round|Shape=RoundedRectangle|*
%AMROUNDEDRECTD121*
21,1,0.009449,0.030709,0,0,180.0*
21,1,0.004724,0.035433,0,0,180.0*
1,1,0.004724,-0.002362,0.015354*
1,1,0.004724,0.002362,0.015354*
1,1,0.004724,0.002362,-0.015354*
1,1,0.004724,-0.002362,-0.015354*
%
%ADD121ROUNDEDRECTD121*%
%ADD122C,0.050000*%
G04:AMPARAMS|DCode=123|XSize=62.992mil|YSize=43.307mil|CornerRadius=21.654mil|HoleSize=0mil|Usage=FLASHONLY|Rotation=0.000|XOffset=0mil|YOffset=0mil|HoleType=Round|Shape=RoundedRectangle|*
%AMROUNDEDRECTD123*
21,1,0.062992,0.000000,0,0,0.0*
21,1,0.019685,0.043307,0,0,0.0*
1,1,0.043307,0.009843,0.000000*
1,1,0.043307,-0.009843,0.000000*
1,1,0.043307,-0.009843,0.000000*
1,1,0.043307,0.009843,0.000000*
%
%ADD123ROUNDEDRECTD123*%
%ADD124C,0.062992*%
G04:AMPARAMS|DCode=125|XSize=62.992mil|YSize=62.992mil|CornerRadius=7.874mil|HoleSize=0mil|Usage=FLASHONLY|Rotation=0.000|XOffset=0mil|YOffset=0mil|HoleType=Round|Shape=RoundedRectangle|*
%AMROUNDEDRECTD125*
21,1,0.062992,0.047244,0,0,0.0*
21,1,0.047244,0.062992,0,0,0.0*
1,1,0.015748,0.023622,-0.023622*
1,1,0.015748,-0.023622,-0.023622*
1,1,0.015748,-0.023622,0.023622*
1,1,0.015748,0.023622,0.023622*
%
%ADD125ROUNDEDRECTD125*%
%ADD126C,0.070866*%
%ADD127C,0.068898*%
%ADD128C,0.118110*%
%ADD129C,0.196850*%
%ADD130C,0.013780*%
G36*
X6098249Y5971286D02*
X6098620Y5971174D01*
X6099705Y5970724D01*
X6100047Y5970542D01*
X6100347Y5970296D01*
X6101177Y5969465D01*
X6101270Y5969351D01*
X6101423Y5969165D01*
X6101606Y5968823D01*
X6102056Y5967738D01*
X6102168Y5967367D01*
X6102176Y5967291D01*
X6102206Y5966981D01*
Y5966395D01*
X6102207Y5966394D01*
X6102206Y5932929D01*
X6102207Y5932342D01*
Y5932342D01*
Y5932342D01*
X6102196Y5932238D01*
X6102169Y5931956D01*
X6102135Y5931844D01*
X6102056Y5931585D01*
X6101606Y5930500D01*
X6101424Y5930158D01*
X6101178Y5929858D01*
X6100347Y5929027D01*
X6100047Y5928781D01*
X6099705Y5928598D01*
X6098620Y5928149D01*
X6098361Y5928070D01*
X6098249Y5928036D01*
X6097863Y5927998D01*
X6097276Y5927998D01*
X6097275Y5927998D01*
X6076607D01*
X6076606Y5927998D01*
X6076413Y5928017D01*
X6076221Y5928036D01*
X6075936Y5928123D01*
X6075849Y5928149D01*
X6075507Y5928332D01*
X6075208Y5928578D01*
X6065366Y5938420D01*
X6065365Y5938420D01*
X6065119Y5938720D01*
X6064936Y5939062D01*
X6064824Y5939433D01*
X6064786Y5939819D01*
X6064786Y5966393D01*
X6064786Y5966981D01*
Y5966981D01*
Y5966981D01*
X6064806Y5967188D01*
X6064824Y5967367D01*
X6064824Y5967367D01*
Y5967367D01*
X6064908Y5967643D01*
X6064936Y5967738D01*
Y5967738D01*
X6064937Y5967738D01*
X6065386Y5968823D01*
X6065471Y5968983D01*
X6065569Y5969165D01*
X6065771Y5969411D01*
X6065815Y5969465D01*
X6065815D01*
Y5969465D01*
X6066646Y5970296D01*
X6066646Y5970296D01*
X6066646Y5970296D01*
X6066946Y5970542D01*
X6067288Y5970724D01*
X6068373Y5971174D01*
X6068744Y5971286D01*
X6068745D01*
X6068745Y5971286D01*
X6068979Y5971309D01*
X6069130Y5971324D01*
X6069131D01*
X6069131D01*
X6069708Y5971324D01*
X6069717Y5971324D01*
X6097863D01*
X6097863D01*
X6097863D01*
X6098249Y5971286D01*
D02*
G37*
G36*
X3752090Y5317644D02*
X3752283Y5317625D01*
X3752568Y5317539D01*
X3752655Y5317512D01*
X3752996Y5317330D01*
X3753296Y5317084D01*
X3763138Y5307242D01*
X3763139Y5307241D01*
X3763385Y5306941D01*
X3763568Y5306599D01*
X3763680Y5306228D01*
X3763718Y5305842D01*
X3763718Y5279268D01*
X3763718Y5278681D01*
Y5278681D01*
Y5278680D01*
X3763698Y5278473D01*
X3763680Y5278295D01*
X3763680Y5278295D01*
Y5278294D01*
X3763596Y5278019D01*
X3763568Y5277924D01*
Y5277924D01*
X3763567Y5277923D01*
X3763118Y5276838D01*
X3763032Y5276679D01*
X3762935Y5276496D01*
X3762733Y5276250D01*
X3762689Y5276196D01*
X3762689D01*
Y5276196D01*
X3761858Y5275366D01*
X3761858Y5275366D01*
X3761858Y5275366D01*
X3761558Y5275120D01*
X3761216Y5274937D01*
X3760131Y5274488D01*
X3759759Y5274375D01*
X3759759D01*
X3759759Y5274375D01*
X3759525Y5274352D01*
X3759374Y5274337D01*
X3759373D01*
X3759373D01*
X3758795Y5274338D01*
X3758787Y5274337D01*
X3730641D01*
X3730641D01*
X3730641D01*
X3730255Y5274375D01*
X3729884Y5274488D01*
X3728799Y5274937D01*
X3728457Y5275120D01*
X3728157Y5275366D01*
X3727327Y5276197D01*
X3727233Y5276310D01*
X3727081Y5276496D01*
X3726898Y5276838D01*
X3726448Y5277923D01*
X3726336Y5278294D01*
X3726328Y5278370D01*
X3726298Y5278680D01*
Y5279267D01*
X3726297Y5279268D01*
X3726298Y5312732D01*
X3726297Y5313319D01*
Y5313319D01*
Y5313320D01*
X3726308Y5313423D01*
X3726335Y5313705D01*
X3726369Y5313817D01*
X3726448Y5314077D01*
X3726897Y5315162D01*
X3727080Y5315504D01*
X3727326Y5315804D01*
X3728157Y5316634D01*
X3728457Y5316880D01*
X3728799Y5317063D01*
X3729884Y5317513D01*
X3730143Y5317591D01*
X3730255Y5317625D01*
X3730641Y5317663D01*
X3731227Y5317663D01*
X3731228Y5317663D01*
X3751896D01*
X3751898Y5317663D01*
X3752090Y5317644D01*
D02*
G37*
G36*
X5361402Y5244884D02*
X5361583Y5244809D01*
X5361652Y5244740D01*
X5361652Y5244740D01*
X5363740Y5242652D01*
X5363774Y5242618D01*
X5363828Y5242537D01*
X5363865Y5242448D01*
X5363884Y5242352D01*
X5363884Y5242304D01*
X5363884Y5242256D01*
X5363865Y5242160D01*
X5363828Y5242071D01*
X5363774Y5241990D01*
X5363740Y5241956D01*
X5363044Y5241260D01*
X5362975Y5241191D01*
X5362794Y5241116D01*
X5362598Y5241116D01*
X5362417Y5241191D01*
X5362348Y5241260D01*
X5360260Y5243348D01*
X5360191Y5243417D01*
X5360116Y5243598D01*
X5360116Y5243794D01*
X5360191Y5243975D01*
X5360260Y5244044D01*
Y5244044D01*
X5360956Y5244740D01*
X5361025Y5244809D01*
X5361206Y5244884D01*
X5361402Y5244884D01*
D02*
G37*
G36*
X5308794Y5244884D02*
X5308975Y5244809D01*
X5309044Y5244740D01*
X5309740Y5244044D01*
X5309740Y5244044D01*
X5309774Y5244010D01*
X5309828Y5243929D01*
X5309865Y5243839D01*
X5309884Y5243744D01*
X5309884Y5243696D01*
X5309884Y5243647D01*
X5309865Y5243552D01*
X5309828Y5243463D01*
X5309774Y5243382D01*
X5309740Y5243348D01*
X5307652Y5241260D01*
X5307652D01*
X5307583Y5241191D01*
X5307402Y5241116D01*
X5307206Y5241116D01*
X5307025Y5241191D01*
X5306956Y5241260D01*
X5306260Y5241956D01*
Y5241956D01*
X5306191Y5242025D01*
X5306116Y5242206D01*
X5306116Y5242402D01*
X5306191Y5242583D01*
X5306260Y5242652D01*
X5308348Y5244740D01*
X5308417Y5244809D01*
X5308598Y5244884D01*
X5308794Y5244884D01*
D02*
G37*
G36*
X5229743Y4929935D02*
X5229923Y4929860D01*
X5229993Y4929791D01*
X5230689Y4929095D01*
X5230689Y4929095D01*
X5230723Y4929061D01*
X5230777Y4928980D01*
X5230814Y4928891D01*
X5230833Y4928796D01*
X5230833Y4928747D01*
X5230833Y4928699D01*
X5230814Y4928604D01*
X5230777Y4928514D01*
X5230723Y4928433D01*
X5230689Y4928399D01*
X5228601Y4926311D01*
X5228601D01*
X5228532Y4926242D01*
X5228351Y4926167D01*
X5228155Y4926167D01*
X5227974Y4926242D01*
X5227905Y4926311D01*
X5227209Y4927007D01*
Y4927007D01*
X5227140Y4927076D01*
X5227065Y4927257D01*
X5227065Y4927453D01*
X5227140Y4927634D01*
X5227209Y4927703D01*
X5229297Y4929791D01*
X5229366Y4929860D01*
X5229547Y4929935D01*
X5229743Y4929935D01*
D02*
G37*
G36*
X5030794Y4892884D02*
X5030975Y4892809D01*
X5031044Y4892740D01*
X5031740Y4892044D01*
X5031740Y4892044D01*
X5031774Y4892010D01*
X5031828Y4891929D01*
X5031865Y4891839D01*
X5031884Y4891744D01*
X5031884Y4891696D01*
X5031884Y4891647D01*
X5031865Y4891552D01*
X5031828Y4891463D01*
X5031774Y4891382D01*
X5031740Y4891348D01*
X5029652Y4889260D01*
X5029652D01*
X5029583Y4889191D01*
X5029402Y4889116D01*
X5029206Y4889116D01*
X5029025Y4889191D01*
X5028956Y4889260D01*
X5028260Y4889956D01*
Y4889956D01*
X5028191Y4890025D01*
X5028116Y4890206D01*
X5028116Y4890402D01*
X5028191Y4890583D01*
X5028260Y4890652D01*
X5030348Y4892740D01*
X5030417Y4892809D01*
X5030598Y4892884D01*
X5030794Y4892884D01*
D02*
G37*
G36*
X5029402Y4875884D02*
X5029583Y4875809D01*
X5029652Y4875740D01*
X5029652Y4875740D01*
X5031740Y4873652D01*
X5031774Y4873618D01*
X5031828Y4873537D01*
X5031865Y4873448D01*
X5031884Y4873352D01*
X5031884Y4873304D01*
X5031884Y4873256D01*
X5031865Y4873160D01*
X5031828Y4873071D01*
X5031774Y4872990D01*
X5031740Y4872956D01*
X5031044Y4872260D01*
X5030975Y4872191D01*
X5030794Y4872116D01*
X5030598Y4872116D01*
X5030417Y4872191D01*
X5030348Y4872260D01*
X5028260Y4874348D01*
X5028191Y4874417D01*
X5028116Y4874598D01*
X5028116Y4874794D01*
X5028191Y4874975D01*
X5028260Y4875044D01*
Y4875044D01*
X5028956Y4875740D01*
X5029025Y4875809D01*
X5029206Y4875884D01*
X5029402Y4875884D01*
D02*
G37*
G36*
X5188909Y4853338D02*
X5188978Y4853269D01*
X5189674Y4852573D01*
X5189674Y4852573D01*
X5189708Y4852539D01*
X5189762Y4852458D01*
X5189799Y4852368D01*
X5189818Y4852273D01*
Y4852225D01*
X5189818Y4852176D01*
X5189799Y4852081D01*
X5189762Y4851992D01*
X5189708Y4851911D01*
X5189674Y4851877D01*
X5187586Y4849789D01*
X5187586D01*
X5187517Y4849720D01*
X5187336Y4849645D01*
X5187140Y4849645D01*
X5186959Y4849720D01*
X5186890Y4849789D01*
X5186194Y4850485D01*
X5186125Y4850554D01*
X5186050Y4850735D01*
X5186050Y4850931D01*
X5186125Y4851112D01*
X5186194Y4851181D01*
X5188282Y4853269D01*
Y4853269D01*
X5188351Y4853338D01*
X5188532Y4853413D01*
X5188728D01*
X5188909Y4853338D01*
D02*
G37*
G36*
X4914743Y4850935D02*
X4914923Y4850860D01*
X4914993Y4850791D01*
X4915689Y4850095D01*
X4915689Y4850095D01*
X4915723Y4850061D01*
X4915777Y4849980D01*
X4915814Y4849891D01*
X4915833Y4849796D01*
X4915833Y4849747D01*
X4915833Y4849699D01*
X4915814Y4849604D01*
X4915777Y4849514D01*
X4915723Y4849433D01*
X4915689Y4849399D01*
X4913601Y4847311D01*
X4913601D01*
X4913532Y4847242D01*
X4913351Y4847167D01*
X4913155Y4847167D01*
X4912974Y4847242D01*
X4912905Y4847311D01*
X4912209Y4848007D01*
Y4848007D01*
X4912140Y4848076D01*
X4912065Y4848257D01*
X4912065Y4848453D01*
X4912140Y4848634D01*
X4912209Y4848703D01*
X4914297Y4850791D01*
X4914366Y4850860D01*
X4914547Y4850935D01*
X4914743Y4850935D01*
D02*
G37*
G36*
X4875794Y4850884D02*
X4875975Y4850809D01*
X4876044Y4850740D01*
X4876740Y4850044D01*
X4876740Y4850044D01*
X4876774Y4850010D01*
X4876828Y4849929D01*
X4876865Y4849839D01*
X4876884Y4849744D01*
X4876884Y4849696D01*
X4876884Y4849647D01*
X4876865Y4849552D01*
X4876828Y4849463D01*
X4876774Y4849382D01*
X4876740Y4849348D01*
X4874652Y4847260D01*
X4874652D01*
X4874583Y4847191D01*
X4874402Y4847116D01*
X4874206Y4847116D01*
X4874025Y4847191D01*
X4873956Y4847260D01*
X4873260Y4847956D01*
Y4847956D01*
X4873191Y4848025D01*
X4873116Y4848206D01*
X4873116Y4848402D01*
X4873191Y4848583D01*
X4873260Y4848652D01*
X4875348Y4850740D01*
X4875417Y4850809D01*
X4875598Y4850884D01*
X4875794Y4850884D01*
D02*
G37*
D71*
X5143995Y5255905D02*
X5137795Y5262105D01*
X5131595Y5255905D01*
X5137795Y5249706D01*
X5143995Y5255905D01*
X5104625D02*
X5098425Y5262105D01*
X5092225Y5255905D01*
X5098425Y5249706D01*
X5104625Y5255905D01*
X5183365D02*
X5177165Y5262105D01*
X5170965Y5255905D01*
X5177165Y5249706D01*
X5183365Y5255905D01*
X5222735D02*
X5216535Y5262105D01*
X5210335Y5255905D01*
X5216535Y5249706D01*
X5222735Y5255905D01*
X5143995Y5295276D02*
X5137795Y5301476D01*
X5131595Y5295276D01*
X5137795Y5289076D01*
X5143995Y5295276D01*
X5104625D02*
X5098425Y5301476D01*
X5092225Y5295276D01*
X5098425Y5289076D01*
X5104625Y5295276D01*
X5183365D02*
X5177165Y5301476D01*
X5170965Y5295276D01*
X5177165Y5289076D01*
X5183365Y5295276D01*
X5222735D02*
X5216535Y5301476D01*
X5210335Y5295276D01*
X5216535Y5289076D01*
X5222735Y5295276D01*
X5143995Y5334646D02*
X5137795Y5340846D01*
X5131595Y5334646D01*
X5137795Y5328446D01*
X5143995Y5334646D01*
X5104625D02*
X5098425Y5340846D01*
X5092225Y5334646D01*
X5098425Y5328446D01*
X5104625Y5334646D01*
X5183365D02*
X5177165Y5340846D01*
X5170965Y5334646D01*
X5177165Y5328446D01*
X5183365Y5334646D01*
X5222735D02*
X5216535Y5340846D01*
X5210335Y5334646D01*
X5216535Y5328446D01*
X5222735Y5334646D01*
X5143995Y5374016D02*
X5137795Y5380216D01*
X5131595Y5374016D01*
X5137795Y5367816D01*
X5143995Y5374016D01*
X5104625D02*
X5098425Y5380216D01*
X5092225Y5374016D01*
X5098425Y5367816D01*
X5104625Y5374016D01*
X5183365D02*
X5177165Y5380216D01*
X5170965Y5374016D01*
X5177165Y5367816D01*
X5183365Y5374016D01*
X5222735D02*
X5216535Y5380216D01*
X5210335Y5374016D01*
X5216535Y5367816D01*
X5222735Y5374016D01*
X5262105Y5255905D02*
X5255905Y5262105D01*
X5249706Y5255905D01*
X5255905Y5249706D01*
X5262105Y5255905D01*
Y5295276D02*
X5255905Y5301476D01*
X5249706Y5295276D01*
X5255905Y5289076D01*
X5262105Y5295276D01*
Y5334646D02*
X5255905Y5340846D01*
X5249706Y5334646D01*
X5255905Y5328446D01*
X5262105Y5334646D01*
Y5374016D02*
X5255905Y5380216D01*
X5249706Y5374016D01*
X5255905Y5367816D01*
X5262105Y5374016D01*
X5143995Y5413386D02*
X5137795Y5419586D01*
X5131595Y5413386D01*
X5137795Y5407186D01*
X5143995Y5413386D01*
X5104625D02*
X5098425Y5419586D01*
X5092225Y5413386D01*
X5098425Y5407186D01*
X5104625Y5413386D01*
X5183365D02*
X5177165Y5419586D01*
X5170965Y5413386D01*
X5177165Y5407186D01*
X5183365Y5413386D01*
X5104625Y5452756D02*
X5098425Y5458956D01*
X5092225Y5452756D01*
X5098425Y5446556D01*
X5104625Y5452756D01*
X5143995D02*
X5137795Y5458956D01*
X5131595Y5452756D01*
X5137795Y5446556D01*
X5143995Y5452756D01*
X5183365D02*
X5177165Y5458956D01*
X5170965Y5452756D01*
X5177165Y5446556D01*
X5183365Y5452756D01*
X5104625Y5492126D02*
X5098425Y5498326D01*
X5092225Y5492126D01*
X5098425Y5485926D01*
X5104625Y5492126D01*
X5143995D02*
X5137795Y5498326D01*
X5131595Y5492126D01*
X5137795Y5485926D01*
X5143995Y5492126D01*
X5183365D02*
X5177165Y5498326D01*
X5170965Y5492126D01*
X5177165Y5485926D01*
X5183365Y5492126D01*
X5222735Y5413386D02*
X5216535Y5419586D01*
X5210335Y5413386D01*
X5216535Y5407186D01*
X5222735Y5413386D01*
X5262105D02*
X5255905Y5419586D01*
X5249706Y5413386D01*
X5255905Y5407186D01*
X5262105Y5413386D01*
X5222735Y5452756D02*
X5216535Y5458956D01*
X5210335Y5452756D01*
X5216535Y5446556D01*
X5222735Y5452756D01*
X5262105D02*
X5255905Y5458956D01*
X5249706Y5452756D01*
X5255905Y5446556D01*
X5262105Y5452756D01*
X5222735Y5492126D02*
X5216535Y5498326D01*
X5210335Y5492126D01*
X5216535Y5485926D01*
X5222735Y5492126D01*
X5262105D02*
X5255905Y5498326D01*
X5249706Y5492126D01*
X5255905Y5485926D01*
X5262105Y5492126D01*
X5301476Y5255905D02*
X5295276Y5262105D01*
X5289076Y5255905D01*
X5295276Y5249706D01*
X5301476Y5255905D01*
X5340846D02*
X5334646Y5262105D01*
X5328446Y5255905D01*
X5334646Y5249706D01*
X5340846Y5255905D01*
X5301476Y5295276D02*
X5295276Y5301476D01*
X5289076Y5295276D01*
X5295276Y5289076D01*
X5301476Y5295276D01*
X5340846D02*
X5334646Y5301476D01*
X5328446Y5295276D01*
X5334646Y5289076D01*
X5340846Y5295276D01*
Y5334646D02*
X5334646Y5340846D01*
X5328446Y5334646D01*
X5334646Y5328446D01*
X5340846Y5334646D01*
X5301476D02*
X5295276Y5340846D01*
X5289076Y5334646D01*
X5295276Y5328446D01*
X5301476Y5334646D01*
X5380216Y5255905D02*
X5374016Y5262105D01*
X5367816Y5255905D01*
X5374016Y5249706D01*
X5380216Y5255905D01*
X5419586D02*
X5413386Y5262105D01*
X5407186Y5255905D01*
X5413386Y5249706D01*
X5419586Y5255905D01*
X5458956D02*
X5452756Y5262105D01*
X5446556Y5255905D01*
X5452756Y5249706D01*
X5458956Y5255905D01*
X5380216Y5295276D02*
X5374016Y5301476D01*
X5367816Y5295276D01*
X5374016Y5289076D01*
X5380216Y5295276D01*
X5419586D02*
X5413386Y5301476D01*
X5407186Y5295276D01*
X5413386Y5289076D01*
X5419586Y5295276D01*
X5458956D02*
X5452756Y5301476D01*
X5446556Y5295276D01*
X5452756Y5289076D01*
X5458956Y5295276D01*
X5380216Y5334646D02*
X5374016Y5340846D01*
X5367816Y5334646D01*
X5374016Y5328446D01*
X5380216Y5334646D01*
X5458956D02*
X5452756Y5340846D01*
X5446556Y5334646D01*
X5452756Y5328446D01*
X5458956Y5334646D01*
X5301476Y5374016D02*
X5295276Y5380216D01*
X5289076Y5374016D01*
X5295276Y5367816D01*
X5301476Y5374016D01*
X5340846D02*
X5334646Y5380216D01*
X5328446Y5374016D01*
X5334646Y5367816D01*
X5340846Y5374016D01*
X5380216D02*
X5374016Y5380216D01*
X5367816Y5374016D01*
X5374016Y5367816D01*
X5380216Y5374016D01*
X5301476Y5413386D02*
X5295276Y5419586D01*
X5289076Y5413386D01*
X5295276Y5407186D01*
X5301476Y5413386D01*
X5340846D02*
X5334646Y5419586D01*
X5328446Y5413386D01*
X5334646Y5407186D01*
X5340846Y5413386D01*
X5301476Y5452756D02*
X5295276Y5458956D01*
X5289076Y5452756D01*
X5295276Y5446556D01*
X5301476Y5452756D01*
X5340846D02*
X5334646Y5458956D01*
X5328446Y5452756D01*
X5334646Y5446556D01*
X5340846Y5452756D01*
X5301476Y5492126D02*
X5295276Y5498326D01*
X5289076Y5492126D01*
X5295276Y5485926D01*
X5301476Y5492126D01*
X5340846D02*
X5334646Y5498326D01*
X5328446Y5492126D01*
X5334646Y5485926D01*
X5340846Y5492126D01*
X5419586Y5334646D02*
X5413386Y5340846D01*
X5407186Y5334646D01*
X5413386Y5328446D01*
X5419586Y5334646D01*
Y5374016D02*
X5413386Y5380216D01*
X5407186Y5374016D01*
X5413386Y5367816D01*
X5419586Y5374016D01*
X5458956D02*
X5452756Y5380216D01*
X5446556Y5374016D01*
X5452756Y5367816D01*
X5458956Y5374016D01*
X5380216Y5413386D02*
X5374016Y5419586D01*
X5367816Y5413386D01*
X5374016Y5407186D01*
X5380216Y5413386D01*
X5419586D02*
X5413386Y5419586D01*
X5407186Y5413386D01*
X5413386Y5407186D01*
X5419586Y5413386D01*
X5458956D02*
X5452756Y5419586D01*
X5446556Y5413386D01*
X5452756Y5407186D01*
X5458956Y5413386D01*
X5380216Y5452756D02*
X5374016Y5458956D01*
X5367816Y5452756D01*
X5374016Y5446556D01*
X5380216Y5452756D01*
X5419586D02*
X5413386Y5458956D01*
X5407186Y5452756D01*
X5413386Y5446556D01*
X5419586Y5452756D01*
X5458956D02*
X5452756Y5458956D01*
X5446556Y5452756D01*
X5452756Y5446556D01*
X5458956Y5452756D01*
X5380216Y5492126D02*
X5374016Y5498326D01*
X5367816Y5492126D01*
X5374016Y5485926D01*
X5380216Y5492126D01*
X5419586D02*
X5413386Y5498326D01*
X5407186Y5492126D01*
X5413386Y5485926D01*
X5419586Y5492126D01*
X5458956D02*
X5452756Y5498326D01*
X5446556Y5492126D01*
X5452756Y5485926D01*
X5458956Y5492126D01*
X5498326Y5255905D02*
X5492126Y5262105D01*
X5485926Y5255905D01*
X5492126Y5249706D01*
X5498326Y5255905D01*
Y5295276D02*
X5492126Y5301476D01*
X5485926Y5295276D01*
X5492126Y5289076D01*
X5498326Y5295276D01*
Y5334646D02*
X5492126Y5340846D01*
X5485926Y5334646D01*
X5492126Y5328446D01*
X5498326Y5334646D01*
Y5374016D02*
X5492126Y5380216D01*
X5485926Y5374016D01*
X5492126Y5367816D01*
X5498326Y5374016D01*
Y5413386D02*
X5492126Y5419586D01*
X5485926Y5413386D01*
X5492126Y5407186D01*
X5498326Y5413386D01*
Y5452756D02*
X5492126Y5458956D01*
X5485926Y5452756D01*
X5492126Y5446556D01*
X5498326Y5452756D01*
Y5492126D02*
X5492126Y5498326D01*
X5485926Y5492126D01*
X5492126Y5485926D01*
X5498326Y5492126D01*
X4750294Y5255905D02*
X4744095Y5262105D01*
X4737895Y5255905D01*
X4744095Y5249706D01*
X4750294Y5255905D01*
X4789665D02*
X4783465Y5262105D01*
X4777265Y5255905D01*
X4783465Y5249706D01*
X4789665Y5255905D01*
X4907775D02*
X4901575Y5262105D01*
X4895375Y5255905D01*
X4901575Y5249706D01*
X4907775Y5255905D01*
X5025885D02*
X5019685Y5262105D01*
X5013485Y5255905D01*
X5019685Y5249706D01*
X5025885Y5255905D01*
X4514074Y5295276D02*
X4507874Y5301476D01*
X4501674Y5295276D01*
X4507874Y5289076D01*
X4514074Y5295276D01*
Y5374016D02*
X4507874Y5380216D01*
X4501674Y5374016D01*
X4507874Y5367816D01*
X4514074Y5374016D01*
Y5255905D02*
X4507874Y5262105D01*
X4501674Y5255905D01*
X4507874Y5249706D01*
X4514074Y5255905D01*
Y5334646D02*
X4507874Y5340846D01*
X4501674Y5334646D01*
X4507874Y5328446D01*
X4514074Y5334646D01*
Y5413386D02*
X4507874Y5419586D01*
X4501674Y5413386D01*
X4507874Y5407186D01*
X4514074Y5413386D01*
Y5452756D02*
X4507874Y5458956D01*
X4501674Y5452756D01*
X4507874Y5446556D01*
X4514074Y5452756D01*
X4553444Y5334646D02*
X4547244Y5340846D01*
X4541044Y5334646D01*
X4547244Y5328446D01*
X4553444Y5334646D01*
Y5255905D02*
X4547244Y5262105D01*
X4541044Y5255905D01*
X4547244Y5249706D01*
X4553444Y5255905D01*
Y5374016D02*
X4547244Y5380216D01*
X4541044Y5374016D01*
X4547244Y5367816D01*
X4553444Y5374016D01*
Y5295276D02*
X4547244Y5301476D01*
X4541044Y5295276D01*
X4547244Y5289076D01*
X4553444Y5295276D01*
Y5452756D02*
X4547244Y5458956D01*
X4541044Y5452756D01*
X4547244Y5446556D01*
X4553444Y5452756D01*
X4514074Y5492126D02*
X4507874Y5498326D01*
X4501674Y5492126D01*
X4507874Y5485926D01*
X4514074Y5492126D01*
X4553444D02*
X4547244Y5498326D01*
X4541044Y5492126D01*
X4547244Y5485926D01*
X4553444Y5492126D01*
Y5413386D02*
X4547244Y5419586D01*
X4541044Y5413386D01*
X4547244Y5407186D01*
X4553444Y5413386D01*
X4592814Y5295276D02*
X4586614Y5301476D01*
X4580414Y5295276D01*
X4586614Y5289076D01*
X4592814Y5295276D01*
Y5334646D02*
X4586614Y5340846D01*
X4580414Y5334646D01*
X4586614Y5328446D01*
X4592814Y5334646D01*
Y5255905D02*
X4586614Y5262105D01*
X4580414Y5255905D01*
X4586614Y5249706D01*
X4592814Y5255905D01*
Y5374016D02*
X4586614Y5380216D01*
X4580414Y5374016D01*
X4586614Y5367816D01*
X4592814Y5374016D01*
Y5413386D02*
X4586614Y5419586D01*
X4580414Y5413386D01*
X4586614Y5407186D01*
X4592814Y5413386D01*
Y5452756D02*
X4586614Y5458956D01*
X4580414Y5452756D01*
X4586614Y5446556D01*
X4592814Y5452756D01*
X4632184Y5255905D02*
X4625984Y5262105D01*
X4619784Y5255905D01*
X4625984Y5249706D01*
X4632184Y5255905D01*
Y5334646D02*
X4625984Y5340846D01*
X4619784Y5334646D01*
X4625984Y5328446D01*
X4632184Y5334646D01*
Y5295276D02*
X4625984Y5301476D01*
X4619784Y5295276D01*
X4625984Y5289076D01*
X4632184Y5295276D01*
Y5374016D02*
X4625984Y5380216D01*
X4619784Y5374016D01*
X4625984Y5367816D01*
X4632184Y5374016D01*
Y5413386D02*
X4625984Y5419586D01*
X4619784Y5413386D01*
X4625984Y5407186D01*
X4632184Y5413386D01*
Y5452756D02*
X4625984Y5458956D01*
X4619784Y5452756D01*
X4625984Y5446556D01*
X4632184Y5452756D01*
X4592814Y5492126D02*
X4586614Y5498326D01*
X4580414Y5492126D01*
X4586614Y5485926D01*
X4592814Y5492126D01*
X4632184D02*
X4625984Y5498326D01*
X4619784Y5492126D01*
X4625984Y5485926D01*
X4632184Y5492126D01*
X4671554Y5295276D02*
X4665354Y5301476D01*
X4659154Y5295276D01*
X4665354Y5289076D01*
X4671554Y5295276D01*
Y5255905D02*
X4665354Y5262105D01*
X4659154Y5255905D01*
X4665354Y5249706D01*
X4671554Y5255905D01*
Y5334646D02*
X4665354Y5340846D01*
X4659154Y5334646D01*
X4665354Y5328446D01*
X4671554Y5334646D01*
X4710924Y5295276D02*
X4704724Y5301476D01*
X4698524Y5295276D01*
X4704724Y5289076D01*
X4710924Y5295276D01*
Y5255905D02*
X4704724Y5262105D01*
X4698524Y5255905D01*
X4704724Y5249706D01*
X4710924Y5255905D01*
Y5334646D02*
X4704724Y5340846D01*
X4698524Y5334646D01*
X4704724Y5328446D01*
X4710924Y5334646D01*
X4750294Y5295276D02*
X4744095Y5301476D01*
X4737895Y5295276D01*
X4744095Y5289076D01*
X4750294Y5295276D01*
Y5334646D02*
X4744095Y5340846D01*
X4737895Y5334646D01*
X4744095Y5328446D01*
X4750294Y5334646D01*
X4789665Y5295276D02*
X4783465Y5301476D01*
X4777265Y5295276D01*
X4783465Y5289076D01*
X4789665Y5295276D01*
Y5334646D02*
X4783465Y5340846D01*
X4777265Y5334646D01*
X4783465Y5328446D01*
X4789665Y5334646D01*
X4829035Y5255905D02*
X4822835Y5262105D01*
X4816635Y5255905D01*
X4822835Y5249706D01*
X4829035Y5255905D01*
Y5295276D02*
X4822835Y5301476D01*
X4816635Y5295276D01*
X4822835Y5289076D01*
X4829035Y5295276D01*
Y5334646D02*
X4822835Y5340846D01*
X4816635Y5334646D01*
X4822835Y5328446D01*
X4829035Y5334646D01*
X4868405Y5295276D02*
X4862205Y5301476D01*
X4856005Y5295276D01*
X4862205Y5289076D01*
X4868405Y5295276D01*
Y5255905D02*
X4862205Y5262105D01*
X4856005Y5255905D01*
X4862205Y5249706D01*
X4868405Y5255905D01*
Y5334646D02*
X4862205Y5340846D01*
X4856005Y5334646D01*
X4862205Y5328446D01*
X4868405Y5334646D01*
X4671554Y5374016D02*
X4665354Y5380216D01*
X4659154Y5374016D01*
X4665354Y5367816D01*
X4671554Y5374016D01*
Y5452756D02*
X4665354Y5458956D01*
X4659154Y5452756D01*
X4665354Y5446556D01*
X4671554Y5452756D01*
Y5413386D02*
X4665354Y5419586D01*
X4659154Y5413386D01*
X4665354Y5407186D01*
X4671554Y5413386D01*
X4710924D02*
X4704724Y5419586D01*
X4698524Y5413386D01*
X4704724Y5407186D01*
X4710924Y5413386D01*
Y5374016D02*
X4704724Y5380216D01*
X4698524Y5374016D01*
X4704724Y5367816D01*
X4710924Y5374016D01*
X4750294D02*
X4744095Y5380216D01*
X4737895Y5374016D01*
X4744095Y5367816D01*
X4750294Y5374016D01*
Y5413386D02*
X4744095Y5419586D01*
X4737895Y5413386D01*
X4744095Y5407186D01*
X4750294Y5413386D01*
Y5452756D02*
X4744095Y5458956D01*
X4737895Y5452756D01*
X4744095Y5446556D01*
X4750294Y5452756D01*
X4789665Y5413386D02*
X4783465Y5419586D01*
X4777265Y5413386D01*
X4783465Y5407186D01*
X4789665Y5413386D01*
Y5374016D02*
X4783465Y5380216D01*
X4777265Y5374016D01*
X4783465Y5367816D01*
X4789665Y5374016D01*
X4829035D02*
X4822835Y5380216D01*
X4816635Y5374016D01*
X4822835Y5367816D01*
X4829035Y5374016D01*
Y5413386D02*
X4822835Y5419586D01*
X4816635Y5413386D01*
X4822835Y5407186D01*
X4829035Y5413386D01*
Y5452756D02*
X4822835Y5458956D01*
X4816635Y5452756D01*
X4822835Y5446556D01*
X4829035Y5452756D01*
X4868405Y5413386D02*
X4862205Y5419586D01*
X4856005Y5413386D01*
X4862205Y5407186D01*
X4868405Y5413386D01*
Y5374016D02*
X4862205Y5380216D01*
X4856005Y5374016D01*
X4862205Y5367816D01*
X4868405Y5374016D01*
X4907775Y5295276D02*
X4901575Y5301476D01*
X4895375Y5295276D01*
X4901575Y5289076D01*
X4907775Y5295276D01*
Y5334646D02*
X4901575Y5340846D01*
X4895375Y5334646D01*
X4901575Y5328446D01*
X4907775Y5334646D01*
X4947145Y5255905D02*
X4940945Y5262105D01*
X4934745Y5255905D01*
X4940945Y5249706D01*
X4947145Y5255905D01*
Y5295276D02*
X4940945Y5301476D01*
X4934745Y5295276D01*
X4940945Y5289076D01*
X4947145Y5295276D01*
Y5334646D02*
X4940945Y5340846D01*
X4934745Y5334646D01*
X4940945Y5328446D01*
X4947145Y5334646D01*
Y5374016D02*
X4940945Y5380216D01*
X4934745Y5374016D01*
X4940945Y5367816D01*
X4947145Y5374016D01*
X4986515Y5295276D02*
X4980315Y5301476D01*
X4974115Y5295276D01*
X4980315Y5289076D01*
X4986515Y5295276D01*
Y5255905D02*
X4980315Y5262105D01*
X4974115Y5255905D01*
X4980315Y5249706D01*
X4986515Y5255905D01*
Y5334646D02*
X4980315Y5340846D01*
X4974115Y5334646D01*
X4980315Y5328446D01*
X4986515Y5334646D01*
X5025885Y5295276D02*
X5019685Y5301476D01*
X5013485Y5295276D01*
X5019685Y5289076D01*
X5025885Y5295276D01*
Y5334646D02*
X5019685Y5340846D01*
X5013485Y5334646D01*
X5019685Y5328446D01*
X5025885Y5334646D01*
X5065255D02*
X5059055Y5340846D01*
X5052855Y5334646D01*
X5059055Y5328446D01*
X5065255Y5334646D01*
Y5295276D02*
X5059055Y5301476D01*
X5052855Y5295276D01*
X5059055Y5289076D01*
X5065255Y5295276D01*
Y5255905D02*
X5059055Y5262105D01*
X5052855Y5255905D01*
X5059055Y5249706D01*
X5065255Y5255905D01*
X4907775Y5374016D02*
X4901575Y5380216D01*
X4895375Y5374016D01*
X4901575Y5367816D01*
X4907775Y5374016D01*
Y5413386D02*
X4901575Y5419586D01*
X4895375Y5413386D01*
X4901575Y5407186D01*
X4907775Y5413386D01*
Y5452756D02*
X4901575Y5458956D01*
X4895375Y5452756D01*
X4901575Y5446556D01*
X4907775Y5452756D01*
X4947145Y5413386D02*
X4940945Y5419586D01*
X4934745Y5413386D01*
X4940945Y5407186D01*
X4947145Y5413386D01*
X4986515Y5374016D02*
X4980315Y5380216D01*
X4974115Y5374016D01*
X4980315Y5367816D01*
X4986515Y5374016D01*
Y5413386D02*
X4980315Y5419586D01*
X4974115Y5413386D01*
X4980315Y5407186D01*
X4986515Y5413386D01*
X5025885Y5374016D02*
X5019685Y5380216D01*
X5013485Y5374016D01*
X5019685Y5367816D01*
X5025885Y5374016D01*
Y5452756D02*
X5019685Y5458956D01*
X5013485Y5452756D01*
X5019685Y5446556D01*
X5025885Y5452756D01*
Y5413386D02*
X5019685Y5419586D01*
X5013485Y5413386D01*
X5019685Y5407186D01*
X5025885Y5413386D01*
X5065255Y5374016D02*
X5059055Y5380216D01*
X5052855Y5374016D01*
X5059055Y5367816D01*
X5065255Y5374016D01*
Y5413386D02*
X5059055Y5419586D01*
X5052855Y5413386D01*
X5059055Y5407186D01*
X5065255Y5413386D01*
X4671554Y5492126D02*
X4665354Y5498326D01*
X4659154Y5492126D01*
X4665354Y5485926D01*
X4671554Y5492126D01*
X4710924Y5452756D02*
X4704724Y5458956D01*
X4698524Y5452756D01*
X4704724Y5446556D01*
X4710924Y5452756D01*
Y5492126D02*
X4704724Y5498326D01*
X4698524Y5492126D01*
X4704724Y5485926D01*
X4710924Y5492126D01*
X4750294D02*
X4744095Y5498326D01*
X4737895Y5492126D01*
X4744095Y5485926D01*
X4750294Y5492126D01*
X4789665Y5452756D02*
X4783465Y5458956D01*
X4777265Y5452756D01*
X4783465Y5446556D01*
X4789665Y5452756D01*
Y5492126D02*
X4783465Y5498326D01*
X4777265Y5492126D01*
X4783465Y5485926D01*
X4789665Y5492126D01*
X4829035D02*
X4822835Y5498326D01*
X4816635Y5492126D01*
X4822835Y5485926D01*
X4829035Y5492126D01*
X4868405Y5452756D02*
X4862205Y5458956D01*
X4856005Y5452756D01*
X4862205Y5446556D01*
X4868405Y5452756D01*
Y5492126D02*
X4862205Y5498326D01*
X4856005Y5492126D01*
X4862205Y5485926D01*
X4868405Y5492126D01*
X4907775D02*
X4901575Y5498326D01*
X4895375Y5492126D01*
X4901575Y5485926D01*
X4907775Y5492126D01*
X4947145Y5452756D02*
X4940945Y5458956D01*
X4934745Y5452756D01*
X4940945Y5446556D01*
X4947145Y5452756D01*
Y5492126D02*
X4940945Y5498326D01*
X4934745Y5492126D01*
X4940945Y5485926D01*
X4947145Y5492126D01*
X4986515Y5452756D02*
X4980315Y5458956D01*
X4974115Y5452756D01*
X4980315Y5446556D01*
X4986515Y5452756D01*
Y5492126D02*
X4980315Y5498326D01*
X4974115Y5492126D01*
X4980315Y5485926D01*
X4986515Y5492126D01*
X5025885D02*
X5019685Y5498326D01*
X5013485Y5492126D01*
X5019685Y5485926D01*
X5025885Y5492126D01*
X5065255Y5452756D02*
X5059055Y5458956D01*
X5052855Y5452756D01*
X5059055Y5446556D01*
X5065255Y5452756D01*
Y5492126D02*
X5059055Y5498326D01*
X5052855Y5492126D01*
X5059055Y5485926D01*
X5065255Y5492126D01*
X5262105Y4507874D02*
X5255905Y4514074D01*
X5249706Y4507874D01*
X5255905Y4501674D01*
X5262105Y4507874D01*
X5301476D02*
X5295276Y4514074D01*
X5289076Y4507874D01*
X5295276Y4501674D01*
X5301476Y4507874D01*
X5380216D02*
X5374016Y4514074D01*
X5367816Y4507874D01*
X5374016Y4501674D01*
X5380216Y4507874D01*
X5419586D02*
X5413386Y4514074D01*
X5407186Y4507874D01*
X5413386Y4501674D01*
X5419586Y4507874D01*
X5458956D02*
X5452756Y4514074D01*
X5446556Y4507874D01*
X5452756Y4501674D01*
X5458956Y4507874D01*
X5498326D02*
X5492126Y4514074D01*
X5485926Y4507874D01*
X5492126Y4501674D01*
X5498326Y4507874D01*
X5340846D02*
X5334646Y4514074D01*
X5328446Y4507874D01*
X5334646Y4501674D01*
X5340846Y4507874D01*
Y4547244D02*
X5334646Y4553444D01*
X5328446Y4547244D01*
X5334646Y4541044D01*
X5340846Y4547244D01*
X5380216D02*
X5374016Y4553444D01*
X5367816Y4547244D01*
X5374016Y4541044D01*
X5380216Y4547244D01*
X5498326D02*
X5492126Y4553444D01*
X5485926Y4547244D01*
X5492126Y4541044D01*
X5498326Y4547244D01*
X5262105D02*
X5255905Y4553444D01*
X5249706Y4547244D01*
X5255905Y4541044D01*
X5262105Y4547244D01*
Y4586614D02*
X5255905Y4592814D01*
X5249706Y4586614D01*
X5255905Y4580414D01*
X5262105Y4586614D01*
X5301476Y4547244D02*
X5295276Y4553444D01*
X5289076Y4547244D01*
X5295276Y4541044D01*
X5301476Y4547244D01*
Y4586614D02*
X5295276Y4592814D01*
X5289076Y4586614D01*
X5295276Y4580414D01*
X5301476Y4586614D01*
X5340846D02*
X5334646Y4592814D01*
X5328446Y4586614D01*
X5334646Y4580414D01*
X5340846Y4586614D01*
X5380216D02*
X5374016Y4592814D01*
X5367816Y4586614D01*
X5374016Y4580414D01*
X5380216Y4586614D01*
X5419586Y4547244D02*
X5413386Y4553444D01*
X5407186Y4547244D01*
X5413386Y4541044D01*
X5419586Y4547244D01*
Y4586614D02*
X5413386Y4592814D01*
X5407186Y4586614D01*
X5413386Y4580414D01*
X5419586Y4586614D01*
X5458956Y4547244D02*
X5452756Y4553444D01*
X5446556Y4547244D01*
X5452756Y4541044D01*
X5458956Y4547244D01*
Y4586614D02*
X5452756Y4592814D01*
X5446556Y4586614D01*
X5452756Y4580414D01*
X5458956Y4586614D01*
X5262105Y4625984D02*
X5255905Y4632184D01*
X5249706Y4625984D01*
X5255905Y4619784D01*
X5262105Y4625984D01*
Y4665354D02*
X5255905Y4671554D01*
X5249706Y4665354D01*
X5255905Y4659154D01*
X5262105Y4665354D01*
X5301476Y4625984D02*
X5295276Y4632184D01*
X5289076Y4625984D01*
X5295276Y4619784D01*
X5301476Y4625984D01*
Y4665354D02*
X5295276Y4671554D01*
X5289076Y4665354D01*
X5295276Y4659154D01*
X5301476Y4665354D01*
X5340846Y4625984D02*
X5334646Y4632184D01*
X5328446Y4625984D01*
X5334646Y4619784D01*
X5340846Y4625984D01*
Y4665354D02*
X5334646Y4671554D01*
X5328446Y4665354D01*
X5334646Y4659154D01*
X5340846Y4665354D01*
X5380216Y4625984D02*
X5374016Y4632184D01*
X5367816Y4625984D01*
X5374016Y4619784D01*
X5380216Y4625984D01*
Y4665354D02*
X5374016Y4671554D01*
X5367816Y4665354D01*
X5374016Y4659154D01*
X5380216Y4665354D01*
X5419586Y4625984D02*
X5413386Y4632184D01*
X5407186Y4625984D01*
X5413386Y4619784D01*
X5419586Y4625984D01*
Y4665354D02*
X5413386Y4671554D01*
X5407186Y4665354D01*
X5413386Y4659154D01*
X5419586Y4665354D01*
X5458956Y4625984D02*
X5452756Y4632184D01*
X5446556Y4625984D01*
X5452756Y4619784D01*
X5458956Y4625984D01*
Y4665354D02*
X5452756Y4671554D01*
X5446556Y4665354D01*
X5452756Y4659154D01*
X5458956Y4665354D01*
Y4704724D02*
X5452756Y4710924D01*
X5446556Y4704724D01*
X5452756Y4698524D01*
X5458956Y4704724D01*
X5498326Y4586614D02*
X5492126Y4592814D01*
X5485926Y4586614D01*
X5492126Y4580414D01*
X5498326Y4586614D01*
Y4704724D02*
X5492126Y4710924D01*
X5485926Y4704724D01*
X5492126Y4698524D01*
X5498326Y4704724D01*
Y4625984D02*
X5492126Y4632184D01*
X5485926Y4625984D01*
X5492126Y4619784D01*
X5498326Y4625984D01*
Y4665354D02*
X5492126Y4671554D01*
X5485926Y4665354D01*
X5492126Y4659154D01*
X5498326Y4665354D01*
X5262105Y4744095D02*
X5255905Y4750294D01*
X5249706Y4744095D01*
X5255905Y4737895D01*
X5262105Y4744095D01*
Y4704724D02*
X5255905Y4710924D01*
X5249706Y4704724D01*
X5255905Y4698524D01*
X5262105Y4704724D01*
Y4783465D02*
X5255905Y4789665D01*
X5249706Y4783465D01*
X5255905Y4777265D01*
X5262105Y4783465D01*
X5301476Y4704724D02*
X5295276Y4710924D01*
X5289076Y4704724D01*
X5295276Y4698524D01*
X5301476Y4704724D01*
Y4744095D02*
X5295276Y4750294D01*
X5289076Y4744095D01*
X5295276Y4737895D01*
X5301476Y4744095D01*
Y4783465D02*
X5295276Y4789665D01*
X5289076Y4783465D01*
X5295276Y4777265D01*
X5301476Y4783465D01*
X5340846Y4744095D02*
X5334646Y4750294D01*
X5328446Y4744095D01*
X5334646Y4737895D01*
X5340846Y4744095D01*
Y4704724D02*
X5334646Y4710924D01*
X5328446Y4704724D01*
X5334646Y4698524D01*
X5340846Y4704724D01*
Y4783465D02*
X5334646Y4789665D01*
X5328446Y4783465D01*
X5334646Y4777265D01*
X5340846Y4783465D01*
X5380216Y4704724D02*
X5374016Y4710924D01*
X5367816Y4704724D01*
X5374016Y4698524D01*
X5380216Y4704724D01*
Y4783465D02*
X5374016Y4789665D01*
X5367816Y4783465D01*
X5374016Y4777265D01*
X5380216Y4783465D01*
X5262105Y4822835D02*
X5255905Y4829035D01*
X5249706Y4822835D01*
X5255905Y4816635D01*
X5262105Y4822835D01*
X5301476D02*
X5295276Y4829035D01*
X5289076Y4822835D01*
X5295276Y4816635D01*
X5301476Y4822835D01*
X5340846D02*
X5334646Y4829035D01*
X5328446Y4822835D01*
X5334646Y4816635D01*
X5340846Y4822835D01*
X5380216Y4744095D02*
X5374016Y4750294D01*
X5367816Y4744095D01*
X5374016Y4737895D01*
X5380216Y4744095D01*
X5419586Y4704724D02*
X5413386Y4710924D01*
X5407186Y4704724D01*
X5413386Y4698524D01*
X5419586Y4704724D01*
Y4744095D02*
X5413386Y4750294D01*
X5407186Y4744095D01*
X5413386Y4737895D01*
X5419586Y4744095D01*
Y4783465D02*
X5413386Y4789665D01*
X5407186Y4783465D01*
X5413386Y4777265D01*
X5419586Y4783465D01*
X5458956Y4744095D02*
X5452756Y4750294D01*
X5446556Y4744095D01*
X5452756Y4737895D01*
X5458956Y4744095D01*
Y4783465D02*
X5452756Y4789665D01*
X5446556Y4783465D01*
X5452756Y4777265D01*
X5458956Y4783465D01*
X5498326Y4744095D02*
X5492126Y4750294D01*
X5485926Y4744095D01*
X5492126Y4737895D01*
X5498326Y4744095D01*
Y4783465D02*
X5492126Y4789665D01*
X5485926Y4783465D01*
X5492126Y4777265D01*
X5498326Y4783465D01*
X5380216Y4822835D02*
X5374016Y4829035D01*
X5367816Y4822835D01*
X5374016Y4816635D01*
X5380216Y4822835D01*
X5419586D02*
X5413386Y4829035D01*
X5407186Y4822835D01*
X5413386Y4816635D01*
X5419586Y4822835D01*
X5458956D02*
X5452756Y4829035D01*
X5446556Y4822835D01*
X5452756Y4816635D01*
X5458956Y4822835D01*
X5498326D02*
X5492126Y4829035D01*
X5485926Y4822835D01*
X5492126Y4816635D01*
X5498326Y4822835D01*
X5262105Y4862205D02*
X5255905Y4868405D01*
X5249706Y4862205D01*
X5255905Y4856005D01*
X5262105Y4862205D01*
X5301476D02*
X5295276Y4868405D01*
X5289076Y4862205D01*
X5295276Y4856005D01*
X5301476Y4862205D01*
X5262105Y4901575D02*
X5255905Y4907775D01*
X5249706Y4901575D01*
X5255905Y4895375D01*
X5262105Y4901575D01*
X5301476D02*
X5295276Y4907775D01*
X5289076Y4901575D01*
X5295276Y4895375D01*
X5301476Y4901575D01*
X5262105Y4940945D02*
X5255905Y4947145D01*
X5249706Y4940945D01*
X5255905Y4934745D01*
X5262105Y4940945D01*
Y4980315D02*
X5255905Y4986515D01*
X5249706Y4980315D01*
X5255905Y4974115D01*
X5262105Y4980315D01*
Y5019685D02*
X5255905Y5025885D01*
X5249706Y5019685D01*
X5255905Y5013485D01*
X5262105Y5019685D01*
Y5059055D02*
X5255905Y5065255D01*
X5249706Y5059055D01*
X5255905Y5052855D01*
X5262105Y5059055D01*
Y5098425D02*
X5255905Y5104625D01*
X5249706Y5098425D01*
X5255905Y5092225D01*
X5262105Y5098425D01*
Y5137795D02*
X5255905Y5143995D01*
X5249706Y5137795D01*
X5255905Y5131595D01*
X5262105Y5137795D01*
Y5177165D02*
X5255905Y5183365D01*
X5249706Y5177165D01*
X5255905Y5170965D01*
X5262105Y5177165D01*
Y5216535D02*
X5255905Y5222735D01*
X5249706Y5216535D01*
X5255905Y5210335D01*
X5262105Y5216535D01*
X5340846Y4862205D02*
X5334646Y4868405D01*
X5328446Y4862205D01*
X5334646Y4856005D01*
X5340846Y4862205D01*
X5380216D02*
X5374016Y4868405D01*
X5367816Y4862205D01*
X5374016Y4856005D01*
X5380216Y4862205D01*
X5340846Y4901575D02*
X5334646Y4907775D01*
X5328446Y4901575D01*
X5334646Y4895375D01*
X5340846Y4901575D01*
X5380216D02*
X5374016Y4907775D01*
X5367816Y4901575D01*
X5374016Y4895375D01*
X5380216Y4901575D01*
X5340846Y4940945D02*
X5334646Y4947145D01*
X5328446Y4940945D01*
X5334646Y4934745D01*
X5340846Y4940945D01*
X5301476D02*
X5295276Y4947145D01*
X5289076Y4940945D01*
X5295276Y4934745D01*
X5301476Y4940945D01*
X5380216D02*
X5374016Y4947145D01*
X5367816Y4940945D01*
X5374016Y4934745D01*
X5380216Y4940945D01*
X5301476Y4980315D02*
X5295276Y4986515D01*
X5289076Y4980315D01*
X5295276Y4974115D01*
X5301476Y4980315D01*
X5340846D02*
X5334646Y4986515D01*
X5328446Y4980315D01*
X5334646Y4974115D01*
X5340846Y4980315D01*
X5380216D02*
X5374016Y4986515D01*
X5367816Y4980315D01*
X5374016Y4974115D01*
X5380216Y4980315D01*
X5340846Y5019685D02*
X5334646Y5025885D01*
X5328446Y5019685D01*
X5334646Y5013485D01*
X5340846Y5019685D01*
X5301476D02*
X5295276Y5025885D01*
X5289076Y5019685D01*
X5295276Y5013485D01*
X5301476Y5019685D01*
X5380216D02*
X5374016Y5025885D01*
X5367816Y5019685D01*
X5374016Y5013485D01*
X5380216Y5019685D01*
X5340846Y5059055D02*
X5334646Y5065255D01*
X5328446Y5059055D01*
X5334646Y5052855D01*
X5340846Y5059055D01*
X5301476D02*
X5295276Y5065255D01*
X5289076Y5059055D01*
X5295276Y5052855D01*
X5301476Y5059055D01*
X5380216D02*
X5374016Y5065255D01*
X5367816Y5059055D01*
X5374016Y5052855D01*
X5380216Y5059055D01*
X5419586Y4862205D02*
X5413386Y4868405D01*
X5407186Y4862205D01*
X5413386Y4856005D01*
X5419586Y4862205D01*
X5458956D02*
X5452756Y4868405D01*
X5446556Y4862205D01*
X5452756Y4856005D01*
X5458956Y4862205D01*
X5419586Y4901575D02*
X5413386Y4907775D01*
X5407186Y4901575D01*
X5413386Y4895375D01*
X5419586Y4901575D01*
X5458956D02*
X5452756Y4907775D01*
X5446556Y4901575D01*
X5452756Y4895375D01*
X5458956Y4901575D01*
X5419586Y4940945D02*
X5413386Y4947145D01*
X5407186Y4940945D01*
X5413386Y4934745D01*
X5419586Y4940945D01*
X5458956D02*
X5452756Y4947145D01*
X5446556Y4940945D01*
X5452756Y4934745D01*
X5458956Y4940945D01*
X5419586Y4980315D02*
X5413386Y4986515D01*
X5407186Y4980315D01*
X5413386Y4974115D01*
X5419586Y4980315D01*
X5458956D02*
X5452756Y4986515D01*
X5446556Y4980315D01*
X5452756Y4974115D01*
X5458956Y4980315D01*
X5419586Y5019685D02*
X5413386Y5025885D01*
X5407186Y5019685D01*
X5413386Y5013485D01*
X5419586Y5019685D01*
X5458956D02*
X5452756Y5025885D01*
X5446556Y5019685D01*
X5452756Y5013485D01*
X5458956Y5019685D01*
X5419586Y5059055D02*
X5413386Y5065255D01*
X5407186Y5059055D01*
X5413386Y5052855D01*
X5419586Y5059055D01*
X5458956D02*
X5452756Y5065255D01*
X5446556Y5059055D01*
X5452756Y5052855D01*
X5458956Y5059055D01*
X5301476Y5098425D02*
X5295276Y5104625D01*
X5289076Y5098425D01*
X5295276Y5092225D01*
X5301476Y5098425D01*
X5380216D02*
X5374016Y5104625D01*
X5367816Y5098425D01*
X5374016Y5092225D01*
X5380216Y5098425D01*
X5340846D02*
X5334646Y5104625D01*
X5328446Y5098425D01*
X5334646Y5092225D01*
X5340846Y5098425D01*
X5380216Y5137795D02*
X5374016Y5143995D01*
X5367816Y5137795D01*
X5374016Y5131595D01*
X5380216Y5137795D01*
X5340846D02*
X5334646Y5143995D01*
X5328446Y5137795D01*
X5334646Y5131595D01*
X5340846Y5137795D01*
X5301476D02*
X5295276Y5143995D01*
X5289076Y5137795D01*
X5295276Y5131595D01*
X5301476Y5137795D01*
X5380216Y5177165D02*
X5374016Y5183365D01*
X5367816Y5177165D01*
X5374016Y5170965D01*
X5380216Y5177165D01*
X5301476D02*
X5295276Y5183365D01*
X5289076Y5177165D01*
X5295276Y5170965D01*
X5301476Y5177165D01*
X5340846D02*
X5334646Y5183365D01*
X5328446Y5177165D01*
X5334646Y5170965D01*
X5340846Y5177165D01*
X5380216Y5216535D02*
X5374016Y5222735D01*
X5367816Y5216535D01*
X5374016Y5210335D01*
X5380216Y5216535D01*
X5301476D02*
X5295276Y5222735D01*
X5289076Y5216535D01*
X5295276Y5210335D01*
X5301476Y5216535D01*
X5340846D02*
X5334646Y5222735D01*
X5328446Y5216535D01*
X5334646Y5210335D01*
X5340846Y5216535D01*
X5419586Y5098425D02*
X5413386Y5104625D01*
X5407186Y5098425D01*
X5413386Y5092225D01*
X5419586Y5098425D01*
X5458956D02*
X5452756Y5104625D01*
X5446556Y5098425D01*
X5452756Y5092225D01*
X5458956Y5098425D01*
X5419586Y5137795D02*
X5413386Y5143995D01*
X5407186Y5137795D01*
X5413386Y5131595D01*
X5419586Y5137795D01*
X5458956D02*
X5452756Y5143995D01*
X5446556Y5137795D01*
X5452756Y5131595D01*
X5458956Y5137795D01*
X5419586Y5177165D02*
X5413386Y5183365D01*
X5407186Y5177165D01*
X5413386Y5170965D01*
X5419586Y5177165D01*
X5458956D02*
X5452756Y5183365D01*
X5446556Y5177165D01*
X5452756Y5170965D01*
X5458956Y5177165D01*
X5419586Y5216535D02*
X5413386Y5222735D01*
X5407186Y5216535D01*
X5413386Y5210335D01*
X5419586Y5216535D01*
X5458956D02*
X5452756Y5222735D01*
X5446556Y5216535D01*
X5452756Y5210335D01*
X5458956Y5216535D01*
X5498326Y4901575D02*
X5492126Y4907775D01*
X5485926Y4901575D01*
X5492126Y4895375D01*
X5498326Y4901575D01*
Y4940945D02*
X5492126Y4947145D01*
X5485926Y4940945D01*
X5492126Y4934745D01*
X5498326Y4940945D01*
Y4980315D02*
X5492126Y4986515D01*
X5485926Y4980315D01*
X5492126Y4974115D01*
X5498326Y4980315D01*
Y5098425D02*
X5492126Y5104625D01*
X5485926Y5098425D01*
X5492126Y5092225D01*
X5498326Y5098425D01*
Y5137795D02*
X5492126Y5143995D01*
X5485926Y5137795D01*
X5492126Y5131595D01*
X5498326Y5137795D01*
Y5177165D02*
X5492126Y5183365D01*
X5485926Y5177165D01*
X5492126Y5170965D01*
X5498326Y5177165D01*
Y5216535D02*
X5492126Y5222735D01*
X5485926Y5216535D01*
X5492126Y5210335D01*
X5498326Y5216535D01*
Y4862205D02*
X5492126Y4868405D01*
X5485926Y4862205D01*
X5492126Y4856005D01*
X5498326Y4862205D01*
Y5019685D02*
X5492126Y5025885D01*
X5485926Y5019685D01*
X5492126Y5013485D01*
X5498326Y5019685D01*
Y5059055D02*
X5492126Y5065255D01*
X5485926Y5059055D01*
X5492126Y5052855D01*
X5498326Y5059055D01*
X4514074Y4783465D02*
X4507874Y4789665D01*
X4501674Y4783465D01*
X4507874Y4777265D01*
X4514074Y4783465D01*
Y4744095D02*
X4507874Y4750294D01*
X4501674Y4744095D01*
X4507874Y4737895D01*
X4514074Y4744095D01*
Y4822835D02*
X4507874Y4829035D01*
X4501674Y4822835D01*
X4507874Y4816635D01*
X4514074Y4822835D01*
X4553444Y4744095D02*
X4547244Y4750294D01*
X4541044Y4744095D01*
X4547244Y4737895D01*
X4553444Y4744095D01*
Y4783465D02*
X4547244Y4789665D01*
X4541044Y4783465D01*
X4547244Y4777265D01*
X4553444Y4783465D01*
Y4822835D02*
X4547244Y4829035D01*
X4541044Y4822835D01*
X4547244Y4816635D01*
X4553444Y4822835D01*
X4592814Y4744095D02*
X4586614Y4750294D01*
X4580414Y4744095D01*
X4586614Y4737895D01*
X4592814Y4744095D01*
Y4822835D02*
X4586614Y4829035D01*
X4580414Y4822835D01*
X4586614Y4816635D01*
X4592814Y4822835D01*
Y4783465D02*
X4586614Y4789665D01*
X4580414Y4783465D01*
X4586614Y4777265D01*
X4592814Y4783465D01*
X4632184Y4744095D02*
X4625984Y4750294D01*
X4619784Y4744095D01*
X4625984Y4737895D01*
X4632184Y4744095D01*
Y4822835D02*
X4625984Y4829035D01*
X4619784Y4822835D01*
X4625984Y4816635D01*
X4632184Y4822835D01*
Y4783465D02*
X4625984Y4789665D01*
X4619784Y4783465D01*
X4625984Y4777265D01*
X4632184Y4783465D01*
X4671554Y4744095D02*
X4665354Y4750294D01*
X4659154Y4744095D01*
X4665354Y4737895D01*
X4671554Y4744095D01*
Y4783465D02*
X4665354Y4789665D01*
X4659154Y4783465D01*
X4665354Y4777265D01*
X4671554Y4783465D01*
Y4822835D02*
X4665354Y4829035D01*
X4659154Y4822835D01*
X4665354Y4816635D01*
X4671554Y4822835D01*
X4710924Y4507874D02*
X4704724Y4514074D01*
X4698524Y4507874D01*
X4704724Y4501674D01*
X4710924Y4507874D01*
X4750294D02*
X4744095Y4514074D01*
X4737895Y4507874D01*
X4744095Y4501674D01*
X4750294Y4507874D01*
X4789665D02*
X4783465Y4514074D01*
X4777265Y4507874D01*
X4783465Y4501674D01*
X4789665Y4507874D01*
X4829035D02*
X4822835Y4514074D01*
X4816635Y4507874D01*
X4822835Y4501674D01*
X4829035Y4507874D01*
X4947145D02*
X4940945Y4514074D01*
X4934745Y4507874D01*
X4940945Y4501674D01*
X4947145Y4507874D01*
X5025885D02*
X5019685Y4514074D01*
X5013485Y4507874D01*
X5019685Y4501674D01*
X5025885Y4507874D01*
X5065255D02*
X5059055Y4514074D01*
X5052855Y4507874D01*
X5059055Y4501674D01*
X5065255Y4507874D01*
X4829035Y4547244D02*
X4822835Y4553444D01*
X4816635Y4547244D01*
X4822835Y4541044D01*
X4829035Y4547244D01*
X4868405Y4507874D02*
X4862205Y4514074D01*
X4856005Y4507874D01*
X4862205Y4501674D01*
X4868405Y4507874D01*
X4907775D02*
X4901575Y4514074D01*
X4895375Y4507874D01*
X4901575Y4501674D01*
X4907775Y4507874D01*
X4986515D02*
X4980315Y4514074D01*
X4974115Y4507874D01*
X4980315Y4501674D01*
X4986515Y4507874D01*
X5065255Y4547244D02*
X5059055Y4553444D01*
X5052855Y4547244D01*
X5059055Y4541044D01*
X5065255Y4547244D01*
X5104625Y4507874D02*
X5098425Y4514074D01*
X5092225Y4507874D01*
X5098425Y4501674D01*
X5104625Y4507874D01*
Y4547244D02*
X5098425Y4553444D01*
X5092225Y4547244D01*
X5098425Y4541044D01*
X5104625Y4547244D01*
X5143995Y4507874D02*
X5137795Y4514074D01*
X5131595Y4507874D01*
X5137795Y4501674D01*
X5143995Y4507874D01*
X5183365D02*
X5177165Y4514074D01*
X5170965Y4507874D01*
X5177165Y4501674D01*
X5183365Y4507874D01*
X5222735D02*
X5216535Y4514074D01*
X5210335Y4507874D01*
X5216535Y4501674D01*
X5222735Y4507874D01*
X4710924Y4547244D02*
X4704724Y4553444D01*
X4698524Y4547244D01*
X4704724Y4541044D01*
X4710924Y4547244D01*
Y4586614D02*
X4704724Y4592814D01*
X4698524Y4586614D01*
X4704724Y4580414D01*
X4710924Y4586614D01*
X4750294Y4547244D02*
X4744095Y4553444D01*
X4737895Y4547244D01*
X4744095Y4541044D01*
X4750294Y4547244D01*
Y4586614D02*
X4744095Y4592814D01*
X4737895Y4586614D01*
X4744095Y4580414D01*
X4750294Y4586614D01*
Y4625984D02*
X4744095Y4632184D01*
X4737895Y4625984D01*
X4744095Y4619784D01*
X4750294Y4625984D01*
X4789665Y4547244D02*
X4783465Y4553444D01*
X4777265Y4547244D01*
X4783465Y4541044D01*
X4789665Y4547244D01*
Y4586614D02*
X4783465Y4592814D01*
X4777265Y4586614D01*
X4783465Y4580414D01*
X4789665Y4586614D01*
X4829035D02*
X4822835Y4592814D01*
X4816635Y4586614D01*
X4822835Y4580414D01*
X4829035Y4586614D01*
X4868405Y4547244D02*
X4862205Y4553444D01*
X4856005Y4547244D01*
X4862205Y4541044D01*
X4868405Y4547244D01*
Y4586614D02*
X4862205Y4592814D01*
X4856005Y4586614D01*
X4862205Y4580414D01*
X4868405Y4586614D01*
X4907775Y4547244D02*
X4901575Y4553444D01*
X4895375Y4547244D01*
X4901575Y4541044D01*
X4907775Y4547244D01*
Y4586614D02*
X4901575Y4592814D01*
X4895375Y4586614D01*
X4901575Y4580414D01*
X4907775Y4586614D01*
X4710924Y4625984D02*
X4704724Y4632184D01*
X4698524Y4625984D01*
X4704724Y4619784D01*
X4710924Y4625984D01*
Y4665354D02*
X4704724Y4671554D01*
X4698524Y4665354D01*
X4704724Y4659154D01*
X4710924Y4665354D01*
X4750294D02*
X4744095Y4671554D01*
X4737895Y4665354D01*
X4744095Y4659154D01*
X4750294Y4665354D01*
Y4704724D02*
X4744095Y4710924D01*
X4737895Y4704724D01*
X4744095Y4698524D01*
X4750294Y4704724D01*
X4789665Y4625984D02*
X4783465Y4632184D01*
X4777265Y4625984D01*
X4783465Y4619784D01*
X4789665Y4625984D01*
Y4665354D02*
X4783465Y4671554D01*
X4777265Y4665354D01*
X4783465Y4659154D01*
X4789665Y4665354D01*
Y4704724D02*
X4783465Y4710924D01*
X4777265Y4704724D01*
X4783465Y4698524D01*
X4789665Y4704724D01*
X4829035Y4625984D02*
X4822835Y4632184D01*
X4816635Y4625984D01*
X4822835Y4619784D01*
X4829035Y4625984D01*
Y4665354D02*
X4822835Y4671554D01*
X4816635Y4665354D01*
X4822835Y4659154D01*
X4829035Y4665354D01*
Y4704724D02*
X4822835Y4710924D01*
X4816635Y4704724D01*
X4822835Y4698524D01*
X4829035Y4704724D01*
X4868405Y4625984D02*
X4862205Y4632184D01*
X4856005Y4625984D01*
X4862205Y4619784D01*
X4868405Y4625984D01*
Y4665354D02*
X4862205Y4671554D01*
X4856005Y4665354D01*
X4862205Y4659154D01*
X4868405Y4665354D01*
Y4704724D02*
X4862205Y4710924D01*
X4856005Y4704724D01*
X4862205Y4698524D01*
X4868405Y4704724D01*
X4907775Y4625984D02*
X4901575Y4632184D01*
X4895375Y4625984D01*
X4901575Y4619784D01*
X4907775Y4625984D01*
Y4665354D02*
X4901575Y4671554D01*
X4895375Y4665354D01*
X4901575Y4659154D01*
X4907775Y4665354D01*
Y4704724D02*
X4901575Y4710924D01*
X4895375Y4704724D01*
X4901575Y4698524D01*
X4907775Y4704724D01*
X4947145Y4547244D02*
X4940945Y4553444D01*
X4934745Y4547244D01*
X4940945Y4541044D01*
X4947145Y4547244D01*
Y4586614D02*
X4940945Y4592814D01*
X4934745Y4586614D01*
X4940945Y4580414D01*
X4947145Y4586614D01*
Y4625984D02*
X4940945Y4632184D01*
X4934745Y4625984D01*
X4940945Y4619784D01*
X4947145Y4625984D01*
X4986515Y4547244D02*
X4980315Y4553444D01*
X4974115Y4547244D01*
X4980315Y4541044D01*
X4986515Y4547244D01*
Y4586614D02*
X4980315Y4592814D01*
X4974115Y4586614D01*
X4980315Y4580414D01*
X4986515Y4586614D01*
Y4625984D02*
X4980315Y4632184D01*
X4974115Y4625984D01*
X4980315Y4619784D01*
X4986515Y4625984D01*
X5025885Y4547244D02*
X5019685Y4553444D01*
X5013485Y4547244D01*
X5019685Y4541044D01*
X5025885Y4547244D01*
Y4586614D02*
X5019685Y4592814D01*
X5013485Y4586614D01*
X5019685Y4580414D01*
X5025885Y4586614D01*
Y4625984D02*
X5019685Y4632184D01*
X5013485Y4625984D01*
X5019685Y4619784D01*
X5025885Y4625984D01*
X5065255Y4586614D02*
X5059055Y4592814D01*
X5052855Y4586614D01*
X5059055Y4580414D01*
X5065255Y4586614D01*
X5104625D02*
X5098425Y4592814D01*
X5092225Y4586614D01*
X5098425Y4580414D01*
X5104625Y4586614D01*
X5143995Y4547244D02*
X5137795Y4553444D01*
X5131595Y4547244D01*
X5137795Y4541044D01*
X5143995Y4547244D01*
Y4586614D02*
X5137795Y4592814D01*
X5131595Y4586614D01*
X5137795Y4580414D01*
X5143995Y4586614D01*
X4947145Y4704724D02*
X4940945Y4710924D01*
X4934745Y4704724D01*
X4940945Y4698524D01*
X4947145Y4704724D01*
Y4665354D02*
X4940945Y4671554D01*
X4934745Y4665354D01*
X4940945Y4659154D01*
X4947145Y4665354D01*
X4986515Y4704724D02*
X4980315Y4710924D01*
X4974115Y4704724D01*
X4980315Y4698524D01*
X4986515Y4704724D01*
Y4665354D02*
X4980315Y4671554D01*
X4974115Y4665354D01*
X4980315Y4659154D01*
X4986515Y4665354D01*
X5025885Y4704724D02*
X5019685Y4710924D01*
X5013485Y4704724D01*
X5019685Y4698524D01*
X5025885Y4704724D01*
Y4665354D02*
X5019685Y4671554D01*
X5013485Y4665354D01*
X5019685Y4659154D01*
X5025885Y4665354D01*
X5065255Y4625984D02*
X5059055Y4632184D01*
X5052855Y4625984D01*
X5059055Y4619784D01*
X5065255Y4625984D01*
Y4704724D02*
X5059055Y4710924D01*
X5052855Y4704724D01*
X5059055Y4698524D01*
X5065255Y4704724D01*
Y4665354D02*
X5059055Y4671554D01*
X5052855Y4665354D01*
X5059055Y4659154D01*
X5065255Y4665354D01*
X5104625Y4625984D02*
X5098425Y4632184D01*
X5092225Y4625984D01*
X5098425Y4619784D01*
X5104625Y4625984D01*
Y4704724D02*
X5098425Y4710924D01*
X5092225Y4704724D01*
X5098425Y4698524D01*
X5104625Y4704724D01*
Y4665354D02*
X5098425Y4671554D01*
X5092225Y4665354D01*
X5098425Y4659154D01*
X5104625Y4665354D01*
X5143995Y4625984D02*
X5137795Y4632184D01*
X5131595Y4625984D01*
X5137795Y4619784D01*
X5143995Y4625984D01*
Y4665354D02*
X5137795Y4671554D01*
X5131595Y4665354D01*
X5137795Y4659154D01*
X5143995Y4665354D01*
Y4704724D02*
X5137795Y4710924D01*
X5131595Y4704724D01*
X5137795Y4698524D01*
X5143995Y4704724D01*
X4710924Y4744095D02*
X4704724Y4750294D01*
X4698524Y4744095D01*
X4704724Y4737895D01*
X4710924Y4744095D01*
Y4783465D02*
X4704724Y4789665D01*
X4698524Y4783465D01*
X4704724Y4777265D01*
X4710924Y4783465D01*
X4750294Y4744095D02*
X4744095Y4750294D01*
X4737895Y4744095D01*
X4744095Y4737895D01*
X4750294Y4744095D01*
Y4783465D02*
X4744095Y4789665D01*
X4737895Y4783465D01*
X4744095Y4777265D01*
X4750294Y4783465D01*
Y4822835D02*
X4744095Y4829035D01*
X4737895Y4822835D01*
X4744095Y4816635D01*
X4750294Y4822835D01*
X4789665Y4744095D02*
X4783465Y4750294D01*
X4777265Y4744095D01*
X4783465Y4737895D01*
X4789665Y4744095D01*
Y4783465D02*
X4783465Y4789665D01*
X4777265Y4783465D01*
X4783465Y4777265D01*
X4789665Y4783465D01*
X4829035Y4744095D02*
X4822835Y4750294D01*
X4816635Y4744095D01*
X4822835Y4737895D01*
X4829035Y4744095D01*
Y4783465D02*
X4822835Y4789665D01*
X4816635Y4783465D01*
X4822835Y4777265D01*
X4829035Y4783465D01*
Y4822835D02*
X4822835Y4829035D01*
X4816635Y4822835D01*
X4822835Y4816635D01*
X4829035Y4822835D01*
X4868405Y4744095D02*
X4862205Y4750294D01*
X4856005Y4744095D01*
X4862205Y4737895D01*
X4868405Y4744095D01*
Y4783465D02*
X4862205Y4789665D01*
X4856005Y4783465D01*
X4862205Y4777265D01*
X4868405Y4783465D01*
X4907775Y4744095D02*
X4901575Y4750294D01*
X4895375Y4744095D01*
X4901575Y4737895D01*
X4907775Y4744095D01*
Y4783465D02*
X4901575Y4789665D01*
X4895375Y4783465D01*
X4901575Y4777265D01*
X4907775Y4783465D01*
X4710924Y4822835D02*
X4704724Y4829035D01*
X4698524Y4822835D01*
X4704724Y4816635D01*
X4710924Y4822835D01*
X4789665D02*
X4783465Y4829035D01*
X4777265Y4822835D01*
X4783465Y4816635D01*
X4789665Y4822835D01*
X4868405D02*
X4862205Y4829035D01*
X4856005Y4822835D01*
X4862205Y4816635D01*
X4868405Y4822835D01*
X4907775D02*
X4901575Y4829035D01*
X4895375Y4822835D01*
X4901575Y4816635D01*
X4907775Y4822835D01*
X4947145Y4744095D02*
X4940945Y4750294D01*
X4934745Y4744095D01*
X4940945Y4737895D01*
X4947145Y4744095D01*
Y4783465D02*
X4940945Y4789665D01*
X4934745Y4783465D01*
X4940945Y4777265D01*
X4947145Y4783465D01*
X4986515Y4744095D02*
X4980315Y4750294D01*
X4974115Y4744095D01*
X4980315Y4737895D01*
X4986515Y4744095D01*
Y4783465D02*
X4980315Y4789665D01*
X4974115Y4783465D01*
X4980315Y4777265D01*
X4986515Y4783465D01*
X5025885Y4744095D02*
X5019685Y4750294D01*
X5013485Y4744095D01*
X5019685Y4737895D01*
X5025885Y4744095D01*
Y4783465D02*
X5019685Y4789665D01*
X5013485Y4783465D01*
X5019685Y4777265D01*
X5025885Y4783465D01*
X5065255Y4744095D02*
X5059055Y4750294D01*
X5052855Y4744095D01*
X5059055Y4737895D01*
X5065255Y4744095D01*
Y4783465D02*
X5059055Y4789665D01*
X5052855Y4783465D01*
X5059055Y4777265D01*
X5065255Y4783465D01*
X5104625Y4744095D02*
X5098425Y4750294D01*
X5092225Y4744095D01*
X5098425Y4737895D01*
X5104625Y4744095D01*
Y4783465D02*
X5098425Y4789665D01*
X5092225Y4783465D01*
X5098425Y4777265D01*
X5104625Y4783465D01*
X5143995Y4744095D02*
X5137795Y4750294D01*
X5131595Y4744095D01*
X5137795Y4737895D01*
X5143995Y4744095D01*
Y4783465D02*
X5137795Y4789665D01*
X5131595Y4783465D01*
X5137795Y4777265D01*
X5143995Y4783465D01*
X5183365Y4744095D02*
X5177165Y4750294D01*
X5170965Y4744095D01*
X5177165Y4737895D01*
X5183365Y4744095D01*
X4947145Y4822835D02*
X4940945Y4829035D01*
X4934745Y4822835D01*
X4940945Y4816635D01*
X4947145Y4822835D01*
X4986515D02*
X4980315Y4829035D01*
X4974115Y4822835D01*
X4980315Y4816635D01*
X4986515Y4822835D01*
X5025885D02*
X5019685Y4829035D01*
X5013485Y4822835D01*
X5019685Y4816635D01*
X5025885Y4822835D01*
X5065255D02*
X5059055Y4829035D01*
X5052855Y4822835D01*
X5059055Y4816635D01*
X5065255Y4822835D01*
X5104625D02*
X5098425Y4829035D01*
X5092225Y4822835D01*
X5098425Y4816635D01*
X5104625Y4822835D01*
X5143995D02*
X5137795Y4829035D01*
X5131595Y4822835D01*
X5137795Y4816635D01*
X5143995Y4822835D01*
X5183365D02*
X5177165Y4829035D01*
X5170965Y4822835D01*
X5177165Y4816635D01*
X5183365Y4822835D01*
Y4547244D02*
X5177165Y4553444D01*
X5170965Y4547244D01*
X5177165Y4541044D01*
X5183365Y4547244D01*
Y4586614D02*
X5177165Y4592814D01*
X5170965Y4586614D01*
X5177165Y4580414D01*
X5183365Y4586614D01*
X5222735Y4547244D02*
X5216535Y4553444D01*
X5210335Y4547244D01*
X5216535Y4541044D01*
X5222735Y4547244D01*
Y4586614D02*
X5216535Y4592814D01*
X5210335Y4586614D01*
X5216535Y4580414D01*
X5222735Y4586614D01*
X5183365Y4625984D02*
X5177165Y4632184D01*
X5170965Y4625984D01*
X5177165Y4619784D01*
X5183365Y4625984D01*
Y4665354D02*
X5177165Y4671554D01*
X5170965Y4665354D01*
X5177165Y4659154D01*
X5183365Y4665354D01*
X5222735Y4625984D02*
X5216535Y4632184D01*
X5210335Y4625984D01*
X5216535Y4619784D01*
X5222735Y4625984D01*
Y4665354D02*
X5216535Y4671554D01*
X5210335Y4665354D01*
X5216535Y4659154D01*
X5222735Y4665354D01*
X5183365Y4704724D02*
X5177165Y4710924D01*
X5170965Y4704724D01*
X5177165Y4698524D01*
X5183365Y4704724D01*
Y4783465D02*
X5177165Y4789665D01*
X5170965Y4783465D01*
X5177165Y4777265D01*
X5183365Y4783465D01*
X5222735Y4744095D02*
X5216535Y4750294D01*
X5210335Y4744095D01*
X5216535Y4737895D01*
X5222735Y4744095D01*
Y4704724D02*
X5216535Y4710924D01*
X5210335Y4704724D01*
X5216535Y4698524D01*
X5222735Y4704724D01*
Y4783465D02*
X5216535Y4789665D01*
X5210335Y4783465D01*
X5216535Y4777265D01*
X5222735Y4783465D01*
Y4822835D02*
X5216535Y4829035D01*
X5210335Y4822835D01*
X5216535Y4816635D01*
X5222735Y4822835D01*
X4514074Y4507874D02*
X4507874Y4514074D01*
X4501674Y4507874D01*
X4507874Y4501674D01*
X4514074Y4507874D01*
Y4547244D02*
X4507874Y4553444D01*
X4501674Y4547244D01*
X4507874Y4541044D01*
X4514074Y4547244D01*
Y4586614D02*
X4507874Y4592814D01*
X4501674Y4586614D01*
X4507874Y4580414D01*
X4514074Y4586614D01*
X4553444Y4507874D02*
X4547244Y4514074D01*
X4541044Y4507874D01*
X4547244Y4501674D01*
X4553444Y4507874D01*
Y4547244D02*
X4547244Y4553444D01*
X4541044Y4547244D01*
X4547244Y4541044D01*
X4553444Y4547244D01*
X4592814Y4507874D02*
X4586614Y4514074D01*
X4580414Y4507874D01*
X4586614Y4501674D01*
X4592814Y4507874D01*
X4632184D02*
X4625984Y4514074D01*
X4619784Y4507874D01*
X4625984Y4501674D01*
X4632184Y4507874D01*
X4592814Y4547244D02*
X4586614Y4553444D01*
X4580414Y4547244D01*
X4586614Y4541044D01*
X4592814Y4547244D01*
X4632184Y4586614D02*
X4625984Y4592814D01*
X4619784Y4586614D01*
X4625984Y4580414D01*
X4632184Y4586614D01*
Y4547244D02*
X4625984Y4553444D01*
X4619784Y4547244D01*
X4625984Y4541044D01*
X4632184Y4547244D01*
X4671554Y4507874D02*
X4665354Y4514074D01*
X4659154Y4507874D01*
X4665354Y4501674D01*
X4671554Y4507874D01*
Y4547244D02*
X4665354Y4553444D01*
X4659154Y4547244D01*
X4665354Y4541044D01*
X4671554Y4547244D01*
Y4586614D02*
X4665354Y4592814D01*
X4659154Y4586614D01*
X4665354Y4580414D01*
X4671554Y4586614D01*
X4514074Y4665354D02*
X4507874Y4671554D01*
X4501674Y4665354D01*
X4507874Y4659154D01*
X4514074Y4665354D01*
Y4625984D02*
X4507874Y4632184D01*
X4501674Y4625984D01*
X4507874Y4619784D01*
X4514074Y4625984D01*
Y4704724D02*
X4507874Y4710924D01*
X4501674Y4704724D01*
X4507874Y4698524D01*
X4514074Y4704724D01*
X4553444Y4625984D02*
X4547244Y4632184D01*
X4541044Y4625984D01*
X4547244Y4619784D01*
X4553444Y4625984D01*
Y4586614D02*
X4547244Y4592814D01*
X4541044Y4586614D01*
X4547244Y4580414D01*
X4553444Y4586614D01*
Y4665354D02*
X4547244Y4671554D01*
X4541044Y4665354D01*
X4547244Y4659154D01*
X4553444Y4665354D01*
Y4704724D02*
X4547244Y4710924D01*
X4541044Y4704724D01*
X4547244Y4698524D01*
X4553444Y4704724D01*
X4592814Y4625984D02*
X4586614Y4632184D01*
X4580414Y4625984D01*
X4586614Y4619784D01*
X4592814Y4625984D01*
Y4586614D02*
X4586614Y4592814D01*
X4580414Y4586614D01*
X4586614Y4580414D01*
X4592814Y4586614D01*
Y4665354D02*
X4586614Y4671554D01*
X4580414Y4665354D01*
X4586614Y4659154D01*
X4592814Y4665354D01*
Y4704724D02*
X4586614Y4710924D01*
X4580414Y4704724D01*
X4586614Y4698524D01*
X4592814Y4704724D01*
X4632184Y4625984D02*
X4625984Y4632184D01*
X4619784Y4625984D01*
X4625984Y4619784D01*
X4632184Y4625984D01*
Y4665354D02*
X4625984Y4671554D01*
X4619784Y4665354D01*
X4625984Y4659154D01*
X4632184Y4665354D01*
Y4704724D02*
X4625984Y4710924D01*
X4619784Y4704724D01*
X4625984Y4698524D01*
X4632184Y4704724D01*
X4671554Y4625984D02*
X4665354Y4632184D01*
X4659154Y4625984D01*
X4665354Y4619784D01*
X4671554Y4625984D01*
Y4665354D02*
X4665354Y4671554D01*
X4659154Y4665354D01*
X4665354Y4659154D01*
X4671554Y4665354D01*
Y4704724D02*
X4665354Y4710924D01*
X4659154Y4704724D01*
X4665354Y4698524D01*
X4671554Y4704724D01*
X4710924D02*
X4704724Y4710924D01*
X4698524Y4704724D01*
X4704724Y4698524D01*
X4710924Y4704724D01*
X4592814Y4862205D02*
X4586614Y4868405D01*
X4580414Y4862205D01*
X4586614Y4856005D01*
X4592814Y4862205D01*
X4671554D02*
X4665354Y4868405D01*
X4659154Y4862205D01*
X4665354Y4856005D01*
X4671554Y4862205D01*
X4710924D02*
X4704724Y4868405D01*
X4698524Y4862205D01*
X4704724Y4856005D01*
X4710924Y4862205D01*
X4868405D02*
X4862205Y4868405D01*
X4856005Y4862205D01*
X4862205Y4856005D01*
X4868405Y4862205D01*
X4514074Y5216535D02*
X4507874Y5222735D01*
X4501674Y5216535D01*
X4507874Y5210335D01*
X4514074Y5216535D01*
X4632184Y5177165D02*
X4625984Y5183365D01*
X4619784Y5177165D01*
X4625984Y5170965D01*
X4632184Y5177165D01*
Y5216535D02*
X4625984Y5222735D01*
X4619784Y5216535D01*
X4625984Y5210335D01*
X4632184Y5216535D01*
X4671554Y5177165D02*
X4665354Y5183365D01*
X4659154Y5177165D01*
X4665354Y5170965D01*
X4671554Y5177165D01*
Y5216535D02*
X4665354Y5222735D01*
X4659154Y5216535D01*
X4665354Y5210335D01*
X4671554Y5216535D01*
X4710924Y5177165D02*
X4704724Y5183365D01*
X4698524Y5177165D01*
X4704724Y5170965D01*
X4710924Y5177165D01*
Y5216535D02*
X4704724Y5222735D01*
X4698524Y5216535D01*
X4704724Y5210335D01*
X4710924Y5216535D01*
X4750294Y5177165D02*
X4744095Y5183365D01*
X4737895Y5177165D01*
X4744095Y5170965D01*
X4750294Y5177165D01*
Y5216535D02*
X4744095Y5222735D01*
X4737895Y5216535D01*
X4744095Y5210335D01*
X4750294Y5216535D01*
X4789665Y5177165D02*
X4783465Y5183365D01*
X4777265Y5177165D01*
X4783465Y5170965D01*
X4789665Y5177165D01*
Y5216535D02*
X4783465Y5222735D01*
X4777265Y5216535D01*
X4783465Y5210335D01*
X4789665Y5216535D01*
X4671554Y5019685D02*
X4665354Y5025885D01*
X4659154Y5019685D01*
X4665354Y5013485D01*
X4671554Y5019685D01*
Y4980315D02*
X4665354Y4986515D01*
X4659154Y4980315D01*
X4665354Y4974115D01*
X4671554Y4980315D01*
X4750294Y4940945D02*
X4744095Y4947145D01*
X4737895Y4940945D01*
X4744095Y4934745D01*
X4750294Y4940945D01*
X4789665Y4862205D02*
X4783465Y4868405D01*
X4777265Y4862205D01*
X4783465Y4856005D01*
X4789665Y4862205D01*
Y4901575D02*
X4783465Y4907775D01*
X4777265Y4901575D01*
X4783465Y4895375D01*
X4789665Y4901575D01*
Y4940945D02*
X4783465Y4947145D01*
X4777265Y4940945D01*
X4783465Y4934745D01*
X4789665Y4940945D01*
X4514074Y4901575D02*
X4507874Y4907775D01*
X4501674Y4901575D01*
X4507874Y4895375D01*
X4514074Y4901575D01*
Y4862205D02*
X4507874Y4868405D01*
X4501674Y4862205D01*
X4507874Y4856005D01*
X4514074Y4862205D01*
Y4940945D02*
X4507874Y4947145D01*
X4501674Y4940945D01*
X4507874Y4934745D01*
X4514074Y4940945D01*
X4553444Y4901575D02*
X4547244Y4907775D01*
X4541044Y4901575D01*
X4547244Y4895375D01*
X4553444Y4901575D01*
Y4862205D02*
X4547244Y4868405D01*
X4541044Y4862205D01*
X4547244Y4856005D01*
X4553444Y4862205D01*
X4592814Y4901575D02*
X4586614Y4907775D01*
X4580414Y4901575D01*
X4586614Y4895375D01*
X4592814Y4901575D01*
X4632184D02*
X4625984Y4907775D01*
X4619784Y4901575D01*
X4625984Y4895375D01*
X4632184Y4901575D01*
Y4862205D02*
X4625984Y4868405D01*
X4619784Y4862205D01*
X4625984Y4856005D01*
X4632184Y4862205D01*
X4514074Y4980315D02*
X4507874Y4986515D01*
X4501674Y4980315D01*
X4507874Y4974115D01*
X4514074Y4980315D01*
Y5019685D02*
X4507874Y5025885D01*
X4501674Y5019685D01*
X4507874Y5013485D01*
X4514074Y5019685D01*
Y5059055D02*
X4507874Y5065255D01*
X4501674Y5059055D01*
X4507874Y5052855D01*
X4514074Y5059055D01*
X4553444Y4940945D02*
X4547244Y4947145D01*
X4541044Y4940945D01*
X4547244Y4934745D01*
X4553444Y4940945D01*
Y4980315D02*
X4547244Y4986515D01*
X4541044Y4980315D01*
X4547244Y4974115D01*
X4553444Y4980315D01*
Y5019685D02*
X4547244Y5025885D01*
X4541044Y5019685D01*
X4547244Y5013485D01*
X4553444Y5019685D01*
Y5059055D02*
X4547244Y5065255D01*
X4541044Y5059055D01*
X4547244Y5052855D01*
X4553444Y5059055D01*
X4592814Y4940945D02*
X4586614Y4947145D01*
X4580414Y4940945D01*
X4586614Y4934745D01*
X4592814Y4940945D01*
Y4980315D02*
X4586614Y4986515D01*
X4580414Y4980315D01*
X4586614Y4974115D01*
X4592814Y4980315D01*
Y5019685D02*
X4586614Y5025885D01*
X4580414Y5019685D01*
X4586614Y5013485D01*
X4592814Y5019685D01*
X4632184Y4940945D02*
X4625984Y4947145D01*
X4619784Y4940945D01*
X4625984Y4934745D01*
X4632184Y4940945D01*
Y4980315D02*
X4625984Y4986515D01*
X4619784Y4980315D01*
X4625984Y4974115D01*
X4632184Y4980315D01*
Y5019685D02*
X4625984Y5025885D01*
X4619784Y5019685D01*
X4625984Y5013485D01*
X4632184Y5019685D01*
X4671554Y4901575D02*
X4665354Y4907775D01*
X4659154Y4901575D01*
X4665354Y4895375D01*
X4671554Y4901575D01*
Y4940945D02*
X4665354Y4947145D01*
X4659154Y4940945D01*
X4665354Y4934745D01*
X4671554Y4940945D01*
X4710924Y4901575D02*
X4704724Y4907775D01*
X4698524Y4901575D01*
X4704724Y4895375D01*
X4710924Y4901575D01*
Y4940945D02*
X4704724Y4947145D01*
X4698524Y4940945D01*
X4704724Y4934745D01*
X4710924Y4940945D01*
X4750294Y4901575D02*
X4744095Y4907775D01*
X4737895Y4901575D01*
X4744095Y4895375D01*
X4750294Y4901575D01*
Y4862205D02*
X4744095Y4868405D01*
X4737895Y4862205D01*
X4744095Y4856005D01*
X4750294Y4862205D01*
Y5019685D02*
X4744095Y5025885D01*
X4737895Y5019685D01*
X4744095Y5013485D01*
X4750294Y5019685D01*
X4789665Y4980315D02*
X4783465Y4986515D01*
X4777265Y4980315D01*
X4783465Y4974115D01*
X4789665Y4980315D01*
Y5019685D02*
X4783465Y5025885D01*
X4777265Y5019685D01*
X4783465Y5013485D01*
X4789665Y5019685D01*
X4829035D02*
X4822835Y5025885D01*
X4816635Y5019685D01*
X4822835Y5013485D01*
X4829035Y5019685D01*
X4514074Y5098425D02*
X4507874Y5104625D01*
X4501674Y5098425D01*
X4507874Y5092225D01*
X4514074Y5098425D01*
Y5137795D02*
X4507874Y5143995D01*
X4501674Y5137795D01*
X4507874Y5131595D01*
X4514074Y5137795D01*
Y5177165D02*
X4507874Y5183365D01*
X4501674Y5177165D01*
X4507874Y5170965D01*
X4514074Y5177165D01*
X4553444Y5098425D02*
X4547244Y5104625D01*
X4541044Y5098425D01*
X4547244Y5092225D01*
X4553444Y5098425D01*
Y5137795D02*
X4547244Y5143995D01*
X4541044Y5137795D01*
X4547244Y5131595D01*
X4553444Y5137795D01*
Y5177165D02*
X4547244Y5183365D01*
X4541044Y5177165D01*
X4547244Y5170965D01*
X4553444Y5177165D01*
X4592814Y5059055D02*
X4586614Y5065255D01*
X4580414Y5059055D01*
X4586614Y5052855D01*
X4592814Y5059055D01*
Y5098425D02*
X4586614Y5104625D01*
X4580414Y5098425D01*
X4586614Y5092225D01*
X4592814Y5098425D01*
Y5137795D02*
X4586614Y5143995D01*
X4580414Y5137795D01*
X4586614Y5131595D01*
X4592814Y5137795D01*
Y5177165D02*
X4586614Y5183365D01*
X4580414Y5177165D01*
X4586614Y5170965D01*
X4592814Y5177165D01*
X4553444Y5216535D02*
X4547244Y5222735D01*
X4541044Y5216535D01*
X4547244Y5210335D01*
X4553444Y5216535D01*
X4592814D02*
X4586614Y5222735D01*
X4580414Y5216535D01*
X4586614Y5210335D01*
X4592814Y5216535D01*
X4632184Y5059055D02*
X4625984Y5065255D01*
X4619784Y5059055D01*
X4625984Y5052855D01*
X4632184Y5059055D01*
Y5098425D02*
X4625984Y5104625D01*
X4619784Y5098425D01*
X4625984Y5092225D01*
X4632184Y5098425D01*
Y5137795D02*
X4625984Y5143995D01*
X4619784Y5137795D01*
X4625984Y5131595D01*
X4632184Y5137795D01*
X4671554Y5098425D02*
X4665354Y5104625D01*
X4659154Y5098425D01*
X4665354Y5092225D01*
X4671554Y5098425D01*
Y5059055D02*
X4665354Y5065255D01*
X4659154Y5059055D01*
X4665354Y5052855D01*
X4671554Y5059055D01*
Y5137795D02*
X4665354Y5143995D01*
X4659154Y5137795D01*
X4665354Y5131595D01*
X4671554Y5137795D01*
X4710924Y5098425D02*
X4704724Y5104625D01*
X4698524Y5098425D01*
X4704724Y5092225D01*
X4710924Y5098425D01*
Y5059055D02*
X4704724Y5065255D01*
X4698524Y5059055D01*
X4704724Y5052855D01*
X4710924Y5059055D01*
Y5137795D02*
X4704724Y5143995D01*
X4698524Y5137795D01*
X4704724Y5131595D01*
X4710924Y5137795D01*
X4750294Y5098425D02*
X4744095Y5104625D01*
X4737895Y5098425D01*
X4744095Y5092225D01*
X4750294Y5098425D01*
Y5059055D02*
X4744095Y5065255D01*
X4737895Y5059055D01*
X4744095Y5052855D01*
X4750294Y5059055D01*
Y5137795D02*
X4744095Y5143995D01*
X4737895Y5137795D01*
X4744095Y5131595D01*
X4750294Y5137795D01*
X4789665Y5098425D02*
X4783465Y5104625D01*
X4777265Y5098425D01*
X4783465Y5092225D01*
X4789665Y5098425D01*
Y5059055D02*
X4783465Y5065255D01*
X4777265Y5059055D01*
X4783465Y5052855D01*
X4789665Y5059055D01*
Y5137795D02*
X4783465Y5143995D01*
X4777265Y5137795D01*
X4783465Y5131595D01*
X4789665Y5137795D01*
X4710924Y5019685D02*
X4704724Y5025885D01*
X4698524Y5019685D01*
X4704724Y5013485D01*
X4710924Y5019685D01*
Y4980315D02*
X4704724Y4986515D01*
X4698524Y4980315D01*
X4704724Y4974115D01*
X4710924Y4980315D01*
X4750294D02*
X4744095Y4986515D01*
X4737895Y4980315D01*
X4744095Y4974115D01*
X4750294Y4980315D01*
X4829035Y4901575D02*
X4822835Y4907775D01*
X4816635Y4901575D01*
X4822835Y4895375D01*
X4829035Y4901575D01*
Y4862205D02*
X4822835Y4868405D01*
X4816635Y4862205D01*
X4822835Y4856005D01*
X4829035Y4862205D01*
Y4940945D02*
X4822835Y4947145D01*
X4816635Y4940945D01*
X4822835Y4934745D01*
X4829035Y4940945D01*
Y4980315D02*
X4822835Y4986515D01*
X4816635Y4980315D01*
X4822835Y4974115D01*
X4829035Y4980315D01*
X4868405Y4940945D02*
X4862205Y4947145D01*
X4856005Y4940945D01*
X4862205Y4934745D01*
X4868405Y4940945D01*
Y4901575D02*
X4862205Y4907775D01*
X4856005Y4901575D01*
X4862205Y4895375D01*
X4868405Y4901575D01*
Y4980315D02*
X4862205Y4986515D01*
X4856005Y4980315D01*
X4862205Y4974115D01*
X4868405Y4980315D01*
Y5019685D02*
X4862205Y5025885D01*
X4856005Y5019685D01*
X4862205Y5013485D01*
X4868405Y5019685D01*
X4829035Y5059055D02*
X4822835Y5065255D01*
X4816635Y5059055D01*
X4822835Y5052855D01*
X4829035Y5059055D01*
Y5098425D02*
X4822835Y5104625D01*
X4816635Y5098425D01*
X4822835Y5092225D01*
X4829035Y5098425D01*
X4868405Y5059055D02*
X4862205Y5065255D01*
X4856005Y5059055D01*
X4862205Y5052855D01*
X4868405Y5059055D01*
Y5098425D02*
X4862205Y5104625D01*
X4856005Y5098425D01*
X4862205Y5092225D01*
X4868405Y5098425D01*
X4829035Y5137795D02*
X4822835Y5143995D01*
X4816635Y5137795D01*
X4822835Y5131595D01*
X4829035Y5137795D01*
Y5177165D02*
X4822835Y5183365D01*
X4816635Y5177165D01*
X4822835Y5170965D01*
X4829035Y5177165D01*
Y5216535D02*
X4822835Y5222735D01*
X4816635Y5216535D01*
X4822835Y5210335D01*
X4829035Y5216535D01*
X4868405Y5137795D02*
X4862205Y5143995D01*
X4856005Y5137795D01*
X4862205Y5131595D01*
X4868405Y5137795D01*
Y5216535D02*
X4862205Y5222735D01*
X4856005Y5216535D01*
X4862205Y5210335D01*
X4868405Y5216535D01*
Y5177165D02*
X4862205Y5183365D01*
X4856005Y5177165D01*
X4862205Y5170965D01*
X4868405Y5177165D01*
X5143995Y4980315D02*
X5137795Y4986515D01*
X5131595Y4980315D01*
X5137795Y4974115D01*
X5143995Y4980315D01*
X5222735D02*
X5216535Y4986515D01*
X5210335Y4980315D01*
X5216535Y4974115D01*
X5222735Y4980315D01*
X5183365D02*
X5177165Y4986515D01*
X5170965Y4980315D01*
X5177165Y4974115D01*
X5183365Y4980315D01*
X5143995Y5019685D02*
X5137795Y5025885D01*
X5131595Y5019685D01*
X5137795Y5013485D01*
X5143995Y5019685D01*
X5104625D02*
X5098425Y5025885D01*
X5092225Y5019685D01*
X5098425Y5013485D01*
X5104625Y5019685D01*
X5183365D02*
X5177165Y5025885D01*
X5170965Y5019685D01*
X5177165Y5013485D01*
X5183365Y5019685D01*
X5143995Y5059055D02*
X5137795Y5065255D01*
X5131595Y5059055D01*
X5137795Y5052855D01*
X5143995Y5059055D01*
X5104625D02*
X5098425Y5065255D01*
X5092225Y5059055D01*
X5098425Y5052855D01*
X5104625Y5059055D01*
Y5098425D02*
X5098425Y5104625D01*
X5092225Y5098425D01*
X5098425Y5092225D01*
X5104625Y5098425D01*
X5143995D02*
X5137795Y5104625D01*
X5131595Y5098425D01*
X5137795Y5092225D01*
X5143995Y5098425D01*
Y5137795D02*
X5137795Y5143995D01*
X5131595Y5137795D01*
X5137795Y5131595D01*
X5143995Y5137795D01*
X5183365D02*
X5177165Y5143995D01*
X5170965Y5137795D01*
X5177165Y5131595D01*
X5183365Y5137795D01*
X5104625Y5177165D02*
X5098425Y5183365D01*
X5092225Y5177165D01*
X5098425Y5170965D01*
X5104625Y5177165D01*
X5143995D02*
X5137795Y5183365D01*
X5131595Y5177165D01*
X5137795Y5170965D01*
X5143995Y5177165D01*
Y5216535D02*
X5137795Y5222735D01*
X5131595Y5216535D01*
X5137795Y5210335D01*
X5143995Y5216535D01*
X5183365D02*
X5177165Y5222735D01*
X5170965Y5216535D01*
X5177165Y5210335D01*
X5183365Y5216535D01*
X5222735Y5019685D02*
X5216535Y5025885D01*
X5210335Y5019685D01*
X5216535Y5013485D01*
X5222735Y5019685D01*
X5183365Y5059055D02*
X5177165Y5065255D01*
X5170965Y5059055D01*
X5177165Y5052855D01*
X5183365Y5059055D01*
X5222735D02*
X5216535Y5065255D01*
X5210335Y5059055D01*
X5216535Y5052855D01*
X5222735Y5059055D01*
X5183365Y5098425D02*
X5177165Y5104625D01*
X5170965Y5098425D01*
X5177165Y5092225D01*
X5183365Y5098425D01*
X5222735D02*
X5216535Y5104625D01*
X5210335Y5098425D01*
X5216535Y5092225D01*
X5222735Y5098425D01*
Y5137795D02*
X5216535Y5143995D01*
X5210335Y5137795D01*
X5216535Y5131595D01*
X5222735Y5137795D01*
X5183365Y5177165D02*
X5177165Y5183365D01*
X5170965Y5177165D01*
X5177165Y5170965D01*
X5183365Y5177165D01*
X5222735D02*
X5216535Y5183365D01*
X5210335Y5177165D01*
X5216535Y5170965D01*
X5222735Y5177165D01*
Y5216535D02*
X5216535Y5222735D01*
X5210335Y5216535D01*
X5216535Y5210335D01*
X5222735Y5216535D01*
X4907775Y4980315D02*
X4901575Y4986515D01*
X4895375Y4980315D01*
X4901575Y4974115D01*
X4907775Y4980315D01*
Y5019685D02*
X4901575Y5025885D01*
X4895375Y5019685D01*
X4901575Y5013485D01*
X4907775Y5019685D01*
X4947145Y4980315D02*
X4940945Y4986515D01*
X4934745Y4980315D01*
X4940945Y4974115D01*
X4947145Y4980315D01*
Y5019685D02*
X4940945Y5025885D01*
X4934745Y5019685D01*
X4940945Y5013485D01*
X4947145Y5019685D01*
X4986515Y4980315D02*
X4980315Y4986515D01*
X4974115Y4980315D01*
X4980315Y4974115D01*
X4986515Y4980315D01*
Y5019685D02*
X4980315Y5025885D01*
X4974115Y5019685D01*
X4980315Y5013485D01*
X4986515Y5019685D01*
X5025885D02*
X5019685Y5025885D01*
X5013485Y5019685D01*
X5019685Y5013485D01*
X5025885Y5019685D01*
Y4980315D02*
X5019685Y4986515D01*
X5013485Y4980315D01*
X5019685Y4974115D01*
X5025885Y4980315D01*
X5065255Y5019685D02*
X5059055Y5025885D01*
X5052855Y5019685D01*
X5059055Y5013485D01*
X5065255Y5019685D01*
Y4980315D02*
X5059055Y4986515D01*
X5052855Y4980315D01*
X5059055Y4974115D01*
X5065255Y4980315D01*
X5104625D02*
X5098425Y4986515D01*
X5092225Y4980315D01*
X5098425Y4974115D01*
X5104625Y4980315D01*
X4907775Y5059055D02*
X4901575Y5065255D01*
X4895375Y5059055D01*
X4901575Y5052855D01*
X4907775Y5059055D01*
Y5098425D02*
X4901575Y5104625D01*
X4895375Y5098425D01*
X4901575Y5092225D01*
X4907775Y5098425D01*
Y5216535D02*
X4901575Y5222735D01*
X4895375Y5216535D01*
X4901575Y5210335D01*
X4907775Y5216535D01*
Y5177165D02*
X4901575Y5183365D01*
X4895375Y5177165D01*
X4901575Y5170965D01*
X4907775Y5177165D01*
Y5137795D02*
X4901575Y5143995D01*
X4895375Y5137795D01*
X4901575Y5131595D01*
X4907775Y5137795D01*
X4947145D02*
X4940945Y5143995D01*
X4934745Y5137795D01*
X4940945Y5131595D01*
X4947145Y5137795D01*
Y5177165D02*
X4940945Y5183365D01*
X4934745Y5177165D01*
X4940945Y5170965D01*
X4947145Y5177165D01*
Y5059055D02*
X4940945Y5065255D01*
X4934745Y5059055D01*
X4940945Y5052855D01*
X4947145Y5059055D01*
Y5098425D02*
X4940945Y5104625D01*
X4934745Y5098425D01*
X4940945Y5092225D01*
X4947145Y5098425D01*
X4986515Y5059055D02*
X4980315Y5065255D01*
X4974115Y5059055D01*
X4980315Y5052855D01*
X4986515Y5059055D01*
Y5098425D02*
X4980315Y5104625D01*
X4974115Y5098425D01*
X4980315Y5092225D01*
X4986515Y5098425D01*
X5025885Y5059055D02*
X5019685Y5065255D01*
X5013485Y5059055D01*
X5019685Y5052855D01*
X5025885Y5059055D01*
Y5098425D02*
X5019685Y5104625D01*
X5013485Y5098425D01*
X5019685Y5092225D01*
X5025885Y5098425D01*
X5065255Y5059055D02*
X5059055Y5065255D01*
X5052855Y5059055D01*
X5059055Y5052855D01*
X5065255Y5059055D01*
Y5098425D02*
X5059055Y5104625D01*
X5052855Y5098425D01*
X5059055Y5092225D01*
X5065255Y5098425D01*
X4947145Y5216535D02*
X4940945Y5222735D01*
X4934745Y5216535D01*
X4940945Y5210335D01*
X4947145Y5216535D01*
X4986515Y5137795D02*
X4980315Y5143995D01*
X4974115Y5137795D01*
X4980315Y5131595D01*
X4986515Y5137795D01*
Y5216535D02*
X4980315Y5222735D01*
X4974115Y5216535D01*
X4980315Y5210335D01*
X4986515Y5216535D01*
Y5177165D02*
X4980315Y5183365D01*
X4974115Y5177165D01*
X4980315Y5170965D01*
X4986515Y5177165D01*
X5025885Y5137795D02*
X5019685Y5143995D01*
X5013485Y5137795D01*
X5019685Y5131595D01*
X5025885Y5137795D01*
Y5216535D02*
X5019685Y5222735D01*
X5013485Y5216535D01*
X5019685Y5210335D01*
X5025885Y5216535D01*
Y5177165D02*
X5019685Y5183365D01*
X5013485Y5177165D01*
X5019685Y5170965D01*
X5025885Y5177165D01*
X5065255Y5137795D02*
X5059055Y5143995D01*
X5052855Y5137795D01*
X5059055Y5131595D01*
X5065255Y5137795D01*
Y5177165D02*
X5059055Y5183365D01*
X5052855Y5177165D01*
X5059055Y5170965D01*
X5065255Y5177165D01*
Y5216535D02*
X5059055Y5222735D01*
X5052855Y5216535D01*
X5059055Y5210335D01*
X5065255Y5216535D01*
X5104625Y5137795D02*
X5098425Y5143995D01*
X5092225Y5137795D01*
X5098425Y5131595D01*
X5104625Y5137795D01*
Y5216535D02*
X5098425Y5222735D01*
X5092225Y5216535D01*
X5098425Y5210335D01*
X5104625Y5216535D01*
Y4901575D02*
X5098425Y4907775D01*
X5092225Y4901575D01*
X5098425Y4895375D01*
X5104625Y4901575D01*
X5183365D02*
X5177165Y4907775D01*
X5170965Y4901575D01*
X5177165Y4895375D01*
X5183365Y4901575D01*
X5143995D02*
X5137795Y4907775D01*
X5131595Y4901575D01*
X5137795Y4895375D01*
X5143995Y4901575D01*
Y4940945D02*
X5137795Y4947145D01*
X5131595Y4940945D01*
X5137795Y4934745D01*
X5143995Y4940945D01*
X5183365D02*
X5177165Y4947145D01*
X5170965Y4940945D01*
X5177165Y4934745D01*
X5183365Y4940945D01*
X5065255Y4901575D02*
X5059055Y4907775D01*
X5052855Y4901575D01*
X5059055Y4895375D01*
X5065255Y4901575D01*
Y4940945D02*
X5059055Y4947145D01*
X5052855Y4940945D01*
X5059055Y4934745D01*
X5065255Y4940945D01*
X5104625D02*
X5098425Y4947145D01*
X5092225Y4940945D01*
X5098425Y4934745D01*
X5104625Y4940945D01*
X4907775D02*
X4901575Y4947145D01*
X4895375Y4940945D01*
X4901575Y4934745D01*
X4907775Y4940945D01*
X4947145D02*
X4940945Y4947145D01*
X4934745Y4940945D01*
X4940945Y4934745D01*
X4947145Y4940945D01*
X4986515D02*
X4980315Y4947145D01*
X4974115Y4940945D01*
X4980315Y4934745D01*
X4986515Y4940945D01*
X5025885D02*
X5019685Y4947145D01*
X5013485Y4940945D01*
X5019685Y4934745D01*
X5025885Y4940945D01*
X4907775Y4901575D02*
X4901575Y4907775D01*
X4895375Y4901575D01*
X4901575Y4895375D01*
X4907775Y4901575D01*
X4947145D02*
X4940945Y4907775D01*
X4934745Y4901575D01*
X4940945Y4895375D01*
X4947145Y4901575D01*
X4986515D02*
X4980315Y4907775D01*
X4974115Y4901575D01*
X4980315Y4895375D01*
X4986515Y4901575D01*
X5025885D02*
X5019685Y4907775D01*
X5013485Y4901575D01*
X5019685Y4895375D01*
X5025885Y4901575D01*
X4947145Y4862205D02*
X4940945Y4868405D01*
X4934745Y4862205D01*
X4940945Y4856005D01*
X4947145Y4862205D01*
X4986515D02*
X4980315Y4868405D01*
X4974115Y4862205D01*
X4980315Y4856005D01*
X4986515Y4862205D01*
X5025885D02*
X5019685Y4868405D01*
X5013485Y4862205D01*
X5019685Y4856005D01*
X5025885Y4862205D01*
X4907775D02*
X4901575Y4868405D01*
X4895375Y4862205D01*
X4901575Y4856005D01*
X4907775Y4862205D01*
X5065255D02*
X5059055Y4868405D01*
X5052855Y4862205D01*
X5059055Y4856005D01*
X5065255Y4862205D01*
X5104625D02*
X5098425Y4868405D01*
X5092225Y4862205D01*
X5098425Y4856005D01*
X5104625Y4862205D01*
X5222735Y4901575D02*
X5216535Y4907775D01*
X5210335Y4901575D01*
X5216535Y4895375D01*
X5222735Y4901575D01*
X5143995Y4862205D02*
X5137795Y4868405D01*
X5131595Y4862205D01*
X5137795Y4856005D01*
X5143995Y4862205D01*
X5183365D02*
X5177165Y4868405D01*
X5170965Y4862205D01*
X5177165Y4856005D01*
X5183365Y4862205D01*
X5222735D02*
X5216535Y4868405D01*
X5210335Y4862205D01*
X5216535Y4856005D01*
X5222735Y4862205D01*
Y4940945D02*
X5216535Y4947145D01*
X5210335Y4940945D01*
X5216535Y4934745D01*
X5222735Y4940945D01*
D72*
X2385000Y3680000D02*
D03*
X4090000D02*
D03*
X2945000D02*
D03*
X3560000D02*
D03*
D73*
X5504005Y7459662D02*
D03*
X5454005D02*
D03*
X5504005Y7509662D02*
D03*
X5454005D02*
D03*
X5504005Y7559662D02*
D03*
X5454005D02*
D03*
X4852076Y7459661D02*
D03*
X4802076D02*
D03*
X4852076Y7509661D02*
D03*
X4802076D02*
D03*
X4852076Y7559661D02*
D03*
X4802076D02*
D03*
X5505000Y2450000D02*
D03*
X5455000D02*
D03*
X5505000Y2500000D02*
D03*
Y2550000D02*
D03*
X5455000D02*
D03*
Y2500000D02*
D03*
D74*
X4050630Y3729213D02*
D03*
X4129370D02*
D03*
X4050630Y3745945D02*
D03*
X4129370D02*
D03*
X4090000D02*
D03*
X4109685D02*
D03*
X4070315D02*
D03*
X2345630Y3729213D02*
D03*
X2424370D02*
D03*
X2345630Y3745945D02*
D03*
X2424370D02*
D03*
X2385000D02*
D03*
X2404685D02*
D03*
X2365315D02*
D03*
X2905630Y3729213D02*
D03*
X2984370D02*
D03*
X2905630Y3745945D02*
D03*
X2984370D02*
D03*
X2945000D02*
D03*
X2964685D02*
D03*
X2925315D02*
D03*
X3520630Y3729213D02*
D03*
X3599370D02*
D03*
X3520630Y3745945D02*
D03*
X3599370D02*
D03*
X3560000D02*
D03*
X3579685D02*
D03*
X3540315D02*
D03*
D75*
X4099842Y3739547D02*
D03*
X4080157D02*
D03*
X2394843D02*
D03*
X2375157D02*
D03*
X2954843D02*
D03*
X2935157D02*
D03*
X3569843D02*
D03*
X3550157D02*
D03*
D76*
X4043740Y3739055D02*
D03*
X4136260Y3719370D02*
D03*
X4043740D02*
D03*
X4136260Y3739055D02*
D03*
X2338740D02*
D03*
X2431260Y3719370D02*
D03*
X2338740D02*
D03*
X2431260Y3739055D02*
D03*
X2898740D02*
D03*
X2991260Y3719370D02*
D03*
X2898740D02*
D03*
X2991260Y3739055D02*
D03*
X3513740D02*
D03*
X3606260Y3719370D02*
D03*
X3513740D02*
D03*
X3606260Y3739055D02*
D03*
D77*
X4050630Y3614055D02*
D03*
X4129370D02*
D03*
X4070315D02*
D03*
X4090000D02*
D03*
X4109685D02*
D03*
X2345630D02*
D03*
X2424370D02*
D03*
X2365315D02*
D03*
X2385000D02*
D03*
X2404685D02*
D03*
X2905630D02*
D03*
X2984370D02*
D03*
X2925315D02*
D03*
X2945000D02*
D03*
X2964685D02*
D03*
X3520630D02*
D03*
X3599370D02*
D03*
X3540315D02*
D03*
X3560000D02*
D03*
X3579685D02*
D03*
D78*
X4043740Y3620945D02*
D03*
Y3699685D02*
D03*
Y3680000D02*
D03*
Y3660315D02*
D03*
Y3640630D02*
D03*
X4136260Y3699685D02*
D03*
Y3680000D02*
D03*
Y3660315D02*
D03*
Y3640630D02*
D03*
Y3620945D02*
D03*
X2338740D02*
D03*
Y3699685D02*
D03*
Y3680000D02*
D03*
Y3660315D02*
D03*
Y3640630D02*
D03*
X2431260Y3699685D02*
D03*
Y3680000D02*
D03*
Y3660315D02*
D03*
Y3640630D02*
D03*
Y3620945D02*
D03*
X2898740D02*
D03*
Y3699685D02*
D03*
Y3680000D02*
D03*
Y3660315D02*
D03*
Y3640630D02*
D03*
X2991260Y3699685D02*
D03*
Y3680000D02*
D03*
Y3660315D02*
D03*
Y3640630D02*
D03*
Y3620945D02*
D03*
X3513740D02*
D03*
Y3699685D02*
D03*
Y3680000D02*
D03*
Y3660315D02*
D03*
Y3640630D02*
D03*
X3606260Y3699685D02*
D03*
Y3680000D02*
D03*
Y3660315D02*
D03*
Y3640630D02*
D03*
Y3620945D02*
D03*
D79*
X4459370Y6463150D02*
D03*
X4420000D02*
D03*
X4439685D02*
D03*
X4400315D02*
D03*
X4380630D02*
D03*
X4459370Y6356850D02*
D03*
X4420000D02*
D03*
X4439685D02*
D03*
X4400315D02*
D03*
X4380630D02*
D03*
X4660630Y6020000D02*
D03*
X4680315D02*
D03*
X4719685D02*
D03*
X4700000D02*
D03*
X4739370D02*
D03*
X4660630Y6126299D02*
D03*
X4680315D02*
D03*
X4719685D02*
D03*
X4700000D02*
D03*
X4739370D02*
D03*
X4661260Y6350000D02*
D03*
X4680945D02*
D03*
X4720315D02*
D03*
X4700630D02*
D03*
X4740000D02*
D03*
X4661260Y6456299D02*
D03*
X4680945D02*
D03*
X4720315D02*
D03*
X4700630D02*
D03*
X4740000D02*
D03*
D80*
X4420000Y6410000D02*
D03*
X4700000Y6073150D02*
D03*
X4700630Y6403150D02*
D03*
D81*
X2660000Y7190000D02*
D03*
D82*
X4103614Y6646665D02*
D03*
X4119362D02*
D03*
Y6917335D02*
D03*
X4103614D02*
D03*
X4087866D02*
D03*
X4072118D02*
D03*
X4056370D02*
D03*
X4040622D02*
D03*
X4024874D02*
D03*
X4009126D02*
D03*
X3993378D02*
D03*
X3977630D02*
D03*
X3961882D02*
D03*
X3946134D02*
D03*
X3930386D02*
D03*
X3914638D02*
D03*
X4087866Y6646665D02*
D03*
X4072118D02*
D03*
X4056370D02*
D03*
X4040622D02*
D03*
X4024874D02*
D03*
X4009126D02*
D03*
X3993378D02*
D03*
X3977630D02*
D03*
X3961882D02*
D03*
X3946134D02*
D03*
X3930386D02*
D03*
X3914638D02*
D03*
D83*
X3881665Y6789874D02*
D03*
Y6805622D02*
D03*
Y6821370D02*
D03*
Y6837118D02*
D03*
Y6852866D02*
D03*
Y6868614D02*
D03*
Y6774126D02*
D03*
Y6758378D02*
D03*
Y6742630D02*
D03*
Y6726882D02*
D03*
Y6711134D02*
D03*
Y6695386D02*
D03*
Y6679638D02*
D03*
Y6884362D02*
D03*
X4152335Y6789874D02*
D03*
Y6805622D02*
D03*
Y6821370D02*
D03*
Y6837118D02*
D03*
Y6852866D02*
D03*
Y6868614D02*
D03*
Y6774126D02*
D03*
Y6758378D02*
D03*
Y6742630D02*
D03*
Y6726882D02*
D03*
Y6711134D02*
D03*
Y6695386D02*
D03*
Y6679638D02*
D03*
Y6884362D02*
D03*
D84*
X4017000Y6782000D02*
D03*
D85*
X5798709Y5477158D02*
D03*
D86*
X3139921Y6780000D02*
D03*
X4181431Y3530919D02*
D03*
X4221588D02*
D03*
X3690079Y3537545D02*
D03*
X3649921D02*
D03*
X4445079Y3470000D02*
D03*
X4404921D02*
D03*
X4445079Y3425000D02*
D03*
X4404921D02*
D03*
X4445079Y3375000D02*
D03*
X4404921D02*
D03*
X4445079Y3325000D02*
D03*
X4404921D02*
D03*
X2345139Y3571269D02*
D03*
X2385297D02*
D03*
Y3530236D02*
D03*
X2345139D02*
D03*
X3726078Y6859595D02*
D03*
X3685921D02*
D03*
X3685921Y6693000D02*
D03*
X3726079D02*
D03*
X3685921Y6651758D02*
D03*
X3726078D02*
D03*
X3685921Y6610484D02*
D03*
X3726079D02*
D03*
X5060079Y7337067D02*
D03*
X5019921D02*
D03*
Y7296034D02*
D03*
X5060079D02*
D03*
Y7255000D02*
D03*
X5019921D02*
D03*
X5179921Y7010000D02*
D03*
X5220079D02*
D03*
X4410079Y7064662D02*
D03*
X4369921D02*
D03*
X3309764Y7021882D02*
D03*
X3269606D02*
D03*
X3239793D02*
D03*
X3199636D02*
D03*
X3180079Y6780000D02*
D03*
X2650079Y6940000D02*
D03*
X2609921D02*
D03*
X2560630D02*
D03*
X2520472D02*
D03*
X4640620Y5643368D02*
D03*
X4680778D02*
D03*
X6624921Y4645000D02*
D03*
X6665079D02*
D03*
X6624921Y4595000D02*
D03*
X6665079D02*
D03*
X5995079Y4690000D02*
D03*
X5954921D02*
D03*
X5995079Y4645000D02*
D03*
X5954921D02*
D03*
X5999921Y5662235D02*
D03*
X6040079D02*
D03*
X5999921Y5621202D02*
D03*
X6040079D02*
D03*
X5999921Y5580168D02*
D03*
X6040079D02*
D03*
X5999876Y5539134D02*
D03*
X6040033D02*
D03*
X5999921Y5498101D02*
D03*
X6040079D02*
D03*
X5999921Y5457067D02*
D03*
X6040079D02*
D03*
X5999921Y5416034D02*
D03*
X6040079D02*
D03*
X5999921Y5375000D02*
D03*
X6040079D02*
D03*
D87*
X7225000Y6875000D02*
D03*
Y6825000D02*
D03*
Y6675000D02*
D03*
Y6625000D02*
D03*
Y6475000D02*
D03*
Y6425000D02*
D03*
Y6275000D02*
D03*
Y6225000D02*
D03*
Y6075000D02*
D03*
Y6025000D02*
D03*
Y5875000D02*
D03*
Y5825000D02*
D03*
X7175000Y7575000D02*
D03*
Y7525000D02*
D03*
Y7375000D02*
D03*
Y7325000D02*
D03*
Y7175000D02*
D03*
Y7125000D02*
D03*
Y6975000D02*
D03*
Y6925000D02*
D03*
X6775000Y5775000D02*
D03*
X6825000D02*
D03*
X6875000D02*
D03*
X6925000D02*
D03*
X6975000D02*
D03*
X7025000D02*
D03*
X7075000D02*
D03*
X7125000D02*
D03*
X7175000D02*
D03*
X7225000D02*
D03*
X6775000Y5825000D02*
D03*
X6825000D02*
D03*
X6875000D02*
D03*
X6925000D02*
D03*
X6975000D02*
D03*
X7025000D02*
D03*
X7075000D02*
D03*
X7125000D02*
D03*
X7175000D02*
D03*
X6775000Y5875000D02*
D03*
X6825000D02*
D03*
X6875000D02*
D03*
X6925000D02*
D03*
X6975000D02*
D03*
X7025000D02*
D03*
X7075000D02*
D03*
X7125000D02*
D03*
X7175000D02*
D03*
X6775000Y5925000D02*
D03*
X6825000D02*
D03*
X6875000D02*
D03*
X6925000D02*
D03*
X6975000D02*
D03*
X7025000D02*
D03*
X7075000D02*
D03*
X7125000D02*
D03*
X7175000D02*
D03*
X7225000D02*
D03*
X6775000Y5975000D02*
D03*
X6825000D02*
D03*
X6875000D02*
D03*
X6925000D02*
D03*
X6975000D02*
D03*
X7025000D02*
D03*
X7075000D02*
D03*
X7125000D02*
D03*
X7175000D02*
D03*
X7225000D02*
D03*
X6775000Y6025000D02*
D03*
X6825000D02*
D03*
X6875000D02*
D03*
X6925000D02*
D03*
X6975000D02*
D03*
X7025000D02*
D03*
X7075000D02*
D03*
X7125000D02*
D03*
X7175000D02*
D03*
X6775000Y6075000D02*
D03*
X6825000D02*
D03*
X6875000D02*
D03*
X6925000D02*
D03*
X6975000D02*
D03*
X7025000D02*
D03*
X7075000D02*
D03*
X7125000D02*
D03*
X7175000D02*
D03*
X6775000Y6125000D02*
D03*
X6825000D02*
D03*
X6875000D02*
D03*
X6925000D02*
D03*
X6975000D02*
D03*
X7025000D02*
D03*
X7075000D02*
D03*
X7125000D02*
D03*
X7175000D02*
D03*
X7225000D02*
D03*
X6775000Y6175000D02*
D03*
X6825000D02*
D03*
X6875000D02*
D03*
X6925000D02*
D03*
X6975000D02*
D03*
X7025000D02*
D03*
X7075000D02*
D03*
X7125000D02*
D03*
X7175000D02*
D03*
X7225000D02*
D03*
X6775000Y6225000D02*
D03*
X6825000D02*
D03*
X6875000D02*
D03*
X6925000D02*
D03*
X6975000D02*
D03*
X7025000D02*
D03*
X7075000D02*
D03*
X7125000D02*
D03*
X7175000D02*
D03*
X6775000Y6275000D02*
D03*
X6825000D02*
D03*
X6875000D02*
D03*
X6925000D02*
D03*
X6975000D02*
D03*
X7025000D02*
D03*
X7075000D02*
D03*
X7125000D02*
D03*
X7175000D02*
D03*
X6775000Y6325000D02*
D03*
X6825000D02*
D03*
X6875000D02*
D03*
X6925000D02*
D03*
X6975000D02*
D03*
X7025000D02*
D03*
X7075000D02*
D03*
X7125000D02*
D03*
X7175000D02*
D03*
X7225000D02*
D03*
X6775000Y6375000D02*
D03*
X6825000D02*
D03*
X6875000D02*
D03*
X6925000D02*
D03*
X6975000D02*
D03*
X7025000D02*
D03*
X7075000D02*
D03*
X7125000D02*
D03*
X7175000D02*
D03*
X7225000D02*
D03*
X6775000Y6425000D02*
D03*
X6825000D02*
D03*
X6875000D02*
D03*
X6925000D02*
D03*
X6975000D02*
D03*
X7025000D02*
D03*
X7075000D02*
D03*
X7125000D02*
D03*
X7175000D02*
D03*
X6775000Y6475000D02*
D03*
X6825000D02*
D03*
X6875000D02*
D03*
X6925000D02*
D03*
X6975000D02*
D03*
X7025000D02*
D03*
X7075000D02*
D03*
X7125000D02*
D03*
X7175000D02*
D03*
X6775000Y6525000D02*
D03*
X6825000D02*
D03*
X6875000D02*
D03*
X6925000D02*
D03*
X6975000D02*
D03*
X7025000D02*
D03*
X7075000D02*
D03*
X7125000D02*
D03*
X7175000D02*
D03*
X7225000D02*
D03*
X6775000Y6575000D02*
D03*
X6825000D02*
D03*
X6875000D02*
D03*
X6925000D02*
D03*
X6975000D02*
D03*
X7025000D02*
D03*
X7075000D02*
D03*
X7125000D02*
D03*
X7175000D02*
D03*
X7225000D02*
D03*
X6775000Y6625000D02*
D03*
X6825000D02*
D03*
X6875000D02*
D03*
X6925000D02*
D03*
X6975000D02*
D03*
X7025000D02*
D03*
X7075000D02*
D03*
X7125000D02*
D03*
X7175000D02*
D03*
X6775000Y6675000D02*
D03*
X6825000D02*
D03*
X6875000D02*
D03*
X6925000D02*
D03*
X6975000D02*
D03*
X7025000D02*
D03*
X7075000D02*
D03*
X7125000D02*
D03*
X7175000D02*
D03*
X6775000Y6725000D02*
D03*
X6825000D02*
D03*
X6875000D02*
D03*
X6925000D02*
D03*
X6975000D02*
D03*
X7025000D02*
D03*
X7075000D02*
D03*
X7125000D02*
D03*
X7175000D02*
D03*
X7225000D02*
D03*
X6775000Y6775000D02*
D03*
X6825000D02*
D03*
X6875000D02*
D03*
X6925000D02*
D03*
X6975000D02*
D03*
X7025000D02*
D03*
X7075000D02*
D03*
X7125000D02*
D03*
X7175000D02*
D03*
X7225000D02*
D03*
X6775000Y6825000D02*
D03*
X6825000D02*
D03*
X6875000D02*
D03*
X6925000D02*
D03*
X6975000D02*
D03*
X7025000D02*
D03*
X7075000D02*
D03*
X7125000D02*
D03*
X7175000D02*
D03*
X6775000Y6875000D02*
D03*
X6825000D02*
D03*
X6875000D02*
D03*
X6925000D02*
D03*
X6975000D02*
D03*
X7025000D02*
D03*
X7075000D02*
D03*
X7125000D02*
D03*
X7175000D02*
D03*
X6775000Y6925000D02*
D03*
X6825000D02*
D03*
X6875000D02*
D03*
X6925000D02*
D03*
X6975000D02*
D03*
X7025000D02*
D03*
X7075000D02*
D03*
X7125000D02*
D03*
X7225000D02*
D03*
X6775000Y6975000D02*
D03*
X6825000D02*
D03*
X6875000D02*
D03*
X6925000D02*
D03*
X6975000D02*
D03*
X7025000D02*
D03*
X7075000D02*
D03*
X7125000D02*
D03*
X7225000D02*
D03*
X6775000Y7025000D02*
D03*
X6825000D02*
D03*
X6875000D02*
D03*
X6925000D02*
D03*
X6975000D02*
D03*
X7025000D02*
D03*
X7075000D02*
D03*
X7125000D02*
D03*
X7175000D02*
D03*
X7225000D02*
D03*
X6775000Y7075000D02*
D03*
X6825000D02*
D03*
X6875000D02*
D03*
X6925000D02*
D03*
X6975000D02*
D03*
X7025000D02*
D03*
X7075000D02*
D03*
X7125000D02*
D03*
X7175000D02*
D03*
X7225000D02*
D03*
X6775000Y7125000D02*
D03*
X6825000D02*
D03*
X6875000D02*
D03*
X6925000D02*
D03*
X6975000D02*
D03*
X7025000D02*
D03*
X7075000D02*
D03*
X7125000D02*
D03*
X7225000D02*
D03*
X6775000Y7175000D02*
D03*
X6825000D02*
D03*
X6875000D02*
D03*
X6925000D02*
D03*
X6975000D02*
D03*
X7025000D02*
D03*
X7075000D02*
D03*
X7125000D02*
D03*
X7225000D02*
D03*
X6775000Y7225000D02*
D03*
X6825000D02*
D03*
X6875000D02*
D03*
X6925000D02*
D03*
X6975000D02*
D03*
X7025000D02*
D03*
X7075000D02*
D03*
X7125000D02*
D03*
X7175000D02*
D03*
X7225000D02*
D03*
X6775000Y7275000D02*
D03*
X6825000D02*
D03*
X6875000D02*
D03*
X6925000D02*
D03*
X6975000D02*
D03*
X7025000D02*
D03*
X7075000D02*
D03*
X7125000D02*
D03*
X7175000D02*
D03*
X7225000D02*
D03*
X6775000Y7325000D02*
D03*
X6825000D02*
D03*
X6875000D02*
D03*
X6925000D02*
D03*
X6975000D02*
D03*
X7025000D02*
D03*
X7075000D02*
D03*
X7125000D02*
D03*
X7225000D02*
D03*
X6775000Y7375000D02*
D03*
X6825000D02*
D03*
X6875000D02*
D03*
X6925000D02*
D03*
X6975000D02*
D03*
X7025000D02*
D03*
X7075000D02*
D03*
X7125000D02*
D03*
X7225000D02*
D03*
X6775000Y7425000D02*
D03*
X6825000D02*
D03*
X6875000D02*
D03*
X6925000D02*
D03*
X6975000D02*
D03*
X7025000D02*
D03*
X7075000D02*
D03*
X7125000D02*
D03*
X7175000D02*
D03*
X7225000D02*
D03*
X6775000Y7475000D02*
D03*
X6825000D02*
D03*
X6875000D02*
D03*
X6925000D02*
D03*
X6975000D02*
D03*
X7025000D02*
D03*
X7075000D02*
D03*
X7125000D02*
D03*
X7175000D02*
D03*
X7225000D02*
D03*
X6775000Y7525000D02*
D03*
X6825000D02*
D03*
X6875000D02*
D03*
X6925000D02*
D03*
X6975000D02*
D03*
X7025000D02*
D03*
X7075000D02*
D03*
X7125000D02*
D03*
X7225000D02*
D03*
X6775000Y7575000D02*
D03*
X6825000D02*
D03*
X6875000D02*
D03*
X6925000D02*
D03*
X6975000D02*
D03*
X7025000D02*
D03*
X7075000D02*
D03*
X7125000D02*
D03*
X7225000D02*
D03*
X6775000Y7625000D02*
D03*
X6825000D02*
D03*
X6875000D02*
D03*
X6925000D02*
D03*
X6975000D02*
D03*
X7025000D02*
D03*
X7075000D02*
D03*
X7125000D02*
D03*
X7175000D02*
D03*
X7225000D02*
D03*
X6775000Y7675000D02*
D03*
X6825000D02*
D03*
X6875000D02*
D03*
X6925000D02*
D03*
X6975000D02*
D03*
X7025000D02*
D03*
X7075000D02*
D03*
X7125000D02*
D03*
X7175000D02*
D03*
X7225000D02*
D03*
X6775000Y7725000D02*
D03*
X6825000D02*
D03*
X6875000D02*
D03*
X6925000D02*
D03*
X6975000D02*
D03*
X7025000D02*
D03*
X7075000D02*
D03*
X7125000D02*
D03*
X7175000D02*
D03*
X7225000D02*
D03*
X6775000Y2275000D02*
D03*
X6825000D02*
D03*
X6875000D02*
D03*
X6925000D02*
D03*
X6975000D02*
D03*
X7025000D02*
D03*
X7075000D02*
D03*
X7125000D02*
D03*
X7175000D02*
D03*
X7225000D02*
D03*
X6775000Y2325000D02*
D03*
X6825000D02*
D03*
X6875000D02*
D03*
X6925000D02*
D03*
X6975000D02*
D03*
X7025000D02*
D03*
X7075000D02*
D03*
X7125000D02*
D03*
X7175000D02*
D03*
X7225000D02*
D03*
X6775000Y2375000D02*
D03*
X6825000D02*
D03*
X6875000D02*
D03*
X6925000D02*
D03*
X6975000D02*
D03*
X7025000D02*
D03*
X7075000D02*
D03*
X7125000D02*
D03*
X7175000D02*
D03*
X7225000D02*
D03*
X6775000Y2425000D02*
D03*
X6825000D02*
D03*
X6875000D02*
D03*
X6925000D02*
D03*
X6975000D02*
D03*
X7025000D02*
D03*
X7075000D02*
D03*
X7125000D02*
D03*
X7175000D02*
D03*
X7225000D02*
D03*
X6775000Y2475000D02*
D03*
X6825000D02*
D03*
X6875000D02*
D03*
X6925000D02*
D03*
X6975000D02*
D03*
X7025000D02*
D03*
X7075000D02*
D03*
X7125000D02*
D03*
X7175000D02*
D03*
X7225000D02*
D03*
X6775000Y2525000D02*
D03*
X6825000D02*
D03*
X6875000D02*
D03*
X6925000D02*
D03*
X6975000D02*
D03*
X7025000D02*
D03*
X7075000D02*
D03*
X7125000D02*
D03*
X7175000D02*
D03*
X7225000D02*
D03*
X6775000Y2575000D02*
D03*
X6825000D02*
D03*
X6875000D02*
D03*
X6925000D02*
D03*
X6975000D02*
D03*
X7025000D02*
D03*
X7075000D02*
D03*
X7125000D02*
D03*
X7175000D02*
D03*
X7225000D02*
D03*
X6775000Y2625000D02*
D03*
X6825000D02*
D03*
X6875000D02*
D03*
X6925000D02*
D03*
X6975000D02*
D03*
X7025000D02*
D03*
X7075000D02*
D03*
X7125000D02*
D03*
X7175000D02*
D03*
X7225000D02*
D03*
X6775000Y2675000D02*
D03*
X6825000D02*
D03*
X6875000D02*
D03*
X6925000D02*
D03*
X6975000D02*
D03*
X7025000D02*
D03*
X7075000D02*
D03*
X7125000D02*
D03*
X7175000D02*
D03*
X7225000D02*
D03*
X6775000Y2725000D02*
D03*
X6825000D02*
D03*
X6875000D02*
D03*
X6925000D02*
D03*
X6975000D02*
D03*
X7025000D02*
D03*
X7075000D02*
D03*
X7125000D02*
D03*
X7175000D02*
D03*
X7225000D02*
D03*
X6775000Y2775000D02*
D03*
X6825000D02*
D03*
X6875000D02*
D03*
X6925000D02*
D03*
X6975000D02*
D03*
X7025000D02*
D03*
X7075000D02*
D03*
X7125000D02*
D03*
X7175000D02*
D03*
X7225000D02*
D03*
X6775000Y2825000D02*
D03*
X6825000D02*
D03*
X6875000D02*
D03*
X6925000D02*
D03*
X6975000D02*
D03*
X7025000D02*
D03*
X7075000D02*
D03*
X7125000D02*
D03*
X7175000D02*
D03*
X7225000D02*
D03*
X6775000Y2875000D02*
D03*
X6825000D02*
D03*
X6875000D02*
D03*
X6925000D02*
D03*
X6975000D02*
D03*
X7025000D02*
D03*
X7075000D02*
D03*
X7125000D02*
D03*
X7175000D02*
D03*
X7225000D02*
D03*
X6775000Y2925000D02*
D03*
X6825000D02*
D03*
X6875000D02*
D03*
X6925000D02*
D03*
X6975000D02*
D03*
X7025000D02*
D03*
X7075000D02*
D03*
X7125000D02*
D03*
X7175000D02*
D03*
X7225000D02*
D03*
X6775000Y2975000D02*
D03*
X6825000D02*
D03*
X6875000D02*
D03*
X6925000D02*
D03*
X6975000D02*
D03*
X7025000D02*
D03*
X7075000D02*
D03*
X7125000D02*
D03*
X7175000D02*
D03*
X7225000D02*
D03*
X6775000Y3025000D02*
D03*
X6825000D02*
D03*
X6875000D02*
D03*
X6925000D02*
D03*
X6975000D02*
D03*
X7025000D02*
D03*
X7075000D02*
D03*
X7125000D02*
D03*
X7175000D02*
D03*
X7225000D02*
D03*
X6775000Y3075000D02*
D03*
X6825000D02*
D03*
X6875000D02*
D03*
X6925000D02*
D03*
X6975000D02*
D03*
X7025000D02*
D03*
X7075000D02*
D03*
X7125000D02*
D03*
X7175000D02*
D03*
X7225000D02*
D03*
X6775000Y3125000D02*
D03*
X6825000D02*
D03*
X6875000D02*
D03*
X6925000D02*
D03*
X6975000D02*
D03*
X7025000D02*
D03*
X7075000D02*
D03*
X7125000D02*
D03*
X7175000D02*
D03*
X7225000D02*
D03*
X6775000Y3175000D02*
D03*
X6825000D02*
D03*
X6875000D02*
D03*
X6925000D02*
D03*
X6975000D02*
D03*
X7025000D02*
D03*
X7075000D02*
D03*
X7125000D02*
D03*
X7175000D02*
D03*
X7225000D02*
D03*
X6775000Y3225000D02*
D03*
X6825000D02*
D03*
X6875000D02*
D03*
X6925000D02*
D03*
X6975000D02*
D03*
X7025000D02*
D03*
X7075000D02*
D03*
X7125000D02*
D03*
X7175000D02*
D03*
X7225000D02*
D03*
X6775000Y3275000D02*
D03*
X6825000D02*
D03*
X6875000D02*
D03*
X6925000D02*
D03*
X6975000D02*
D03*
X7025000D02*
D03*
X7075000D02*
D03*
X7125000D02*
D03*
X7175000D02*
D03*
X7225000D02*
D03*
X6775000Y3325000D02*
D03*
X6825000D02*
D03*
X6875000D02*
D03*
X6925000D02*
D03*
X6975000D02*
D03*
X7025000D02*
D03*
X7075000D02*
D03*
X7125000D02*
D03*
X7175000D02*
D03*
X7225000D02*
D03*
X6775000Y3375000D02*
D03*
X6825000D02*
D03*
X6875000D02*
D03*
X6925000D02*
D03*
X6975000D02*
D03*
X7025000D02*
D03*
X7075000D02*
D03*
X7125000D02*
D03*
X7175000D02*
D03*
X7225000D02*
D03*
X6775000Y3425000D02*
D03*
X6825000D02*
D03*
X6875000D02*
D03*
X6925000D02*
D03*
X6975000D02*
D03*
X7025000D02*
D03*
X7075000D02*
D03*
X7125000D02*
D03*
X7175000D02*
D03*
X7225000D02*
D03*
X6775000Y3475000D02*
D03*
X6825000D02*
D03*
X6875000D02*
D03*
X6925000D02*
D03*
X6975000D02*
D03*
X7025000D02*
D03*
X7075000D02*
D03*
X7125000D02*
D03*
X7175000D02*
D03*
X7225000D02*
D03*
X6775000Y3525000D02*
D03*
X6825000D02*
D03*
X6875000D02*
D03*
X6925000D02*
D03*
X6975000D02*
D03*
X7025000D02*
D03*
X7075000D02*
D03*
X7125000D02*
D03*
X7175000D02*
D03*
X7225000D02*
D03*
X6775000Y3575000D02*
D03*
X6825000D02*
D03*
X6875000D02*
D03*
X6925000D02*
D03*
X6975000D02*
D03*
X7025000D02*
D03*
X7075000D02*
D03*
X7125000D02*
D03*
X7175000D02*
D03*
X7225000D02*
D03*
X6775000Y3625000D02*
D03*
X6825000D02*
D03*
X6875000D02*
D03*
X6925000D02*
D03*
X6975000D02*
D03*
X7025000D02*
D03*
X7075000D02*
D03*
X7125000D02*
D03*
X7175000D02*
D03*
X7225000D02*
D03*
X6775000Y3675000D02*
D03*
X6825000D02*
D03*
X6875000D02*
D03*
X6925000D02*
D03*
X6975000D02*
D03*
X7025000D02*
D03*
X7075000D02*
D03*
X7125000D02*
D03*
X7175000D02*
D03*
X7225000D02*
D03*
X6775000Y3725000D02*
D03*
X6825000D02*
D03*
X6875000D02*
D03*
X6925000D02*
D03*
X6975000D02*
D03*
X7025000D02*
D03*
X7075000D02*
D03*
X7125000D02*
D03*
X7175000D02*
D03*
X7225000D02*
D03*
X6775000Y3775000D02*
D03*
X6825000D02*
D03*
X6875000D02*
D03*
X6925000D02*
D03*
X6975000D02*
D03*
X7025000D02*
D03*
X7075000D02*
D03*
X7125000D02*
D03*
X7175000D02*
D03*
X7225000D02*
D03*
X6775000Y3825000D02*
D03*
X6825000D02*
D03*
X6875000D02*
D03*
X6925000D02*
D03*
X6975000D02*
D03*
X7025000D02*
D03*
X7075000D02*
D03*
X7125000D02*
D03*
X7175000D02*
D03*
X7225000D02*
D03*
X6775000Y3875000D02*
D03*
X6825000D02*
D03*
X6875000D02*
D03*
X6925000D02*
D03*
X6975000D02*
D03*
X7025000D02*
D03*
X7075000D02*
D03*
X7125000D02*
D03*
X7175000D02*
D03*
X7225000D02*
D03*
X6775000Y3925000D02*
D03*
X6825000D02*
D03*
X6875000D02*
D03*
X6925000D02*
D03*
X6975000D02*
D03*
X7025000D02*
D03*
X7075000D02*
D03*
X7125000D02*
D03*
X7175000D02*
D03*
X7225000D02*
D03*
X6775000Y3975000D02*
D03*
X6825000D02*
D03*
X6875000D02*
D03*
X6925000D02*
D03*
X6975000D02*
D03*
X7025000D02*
D03*
X7075000D02*
D03*
X7125000D02*
D03*
X7175000D02*
D03*
X7225000D02*
D03*
X6775000Y4025000D02*
D03*
X6825000D02*
D03*
X6875000D02*
D03*
X6925000D02*
D03*
X6975000D02*
D03*
X7025000D02*
D03*
X7075000D02*
D03*
X7125000D02*
D03*
X7175000D02*
D03*
X7225000D02*
D03*
X6775000Y4075000D02*
D03*
X6825000D02*
D03*
X6875000D02*
D03*
X6925000D02*
D03*
X6975000D02*
D03*
X7025000D02*
D03*
X7075000D02*
D03*
X7125000D02*
D03*
X7175000D02*
D03*
X7225000D02*
D03*
X6775000Y4125000D02*
D03*
X6825000D02*
D03*
X6875000D02*
D03*
X6925000D02*
D03*
X6975000D02*
D03*
X7025000D02*
D03*
X7075000D02*
D03*
X7125000D02*
D03*
X7175000D02*
D03*
X7225000D02*
D03*
X6775000Y4175000D02*
D03*
X6825000D02*
D03*
X6875000D02*
D03*
X6925000D02*
D03*
X6975000D02*
D03*
X7025000D02*
D03*
X7075000D02*
D03*
X7125000D02*
D03*
X7175000D02*
D03*
X7225000D02*
D03*
X6775000Y4225000D02*
D03*
X6825000D02*
D03*
X6875000D02*
D03*
X6925000D02*
D03*
X6975000D02*
D03*
X7025000D02*
D03*
X7075000D02*
D03*
X7125000D02*
D03*
X7175000D02*
D03*
X7225000D02*
D03*
D88*
X4761524Y6168573D02*
D03*
X4723728D02*
D03*
X4617352Y6119833D02*
D03*
X4579557D02*
D03*
X4761464Y6498478D02*
D03*
X4723669D02*
D03*
X4617779Y6492431D02*
D03*
X4579984D02*
D03*
X4617779Y6449739D02*
D03*
X4579984D02*
D03*
X4483880Y6505999D02*
D03*
X4446085D02*
D03*
X4617352Y6162244D02*
D03*
X4579557D02*
D03*
X4455651Y6307707D02*
D03*
X4417856D02*
D03*
X4343643Y6308455D02*
D03*
X4381438D02*
D03*
X4337352Y6456308D02*
D03*
X4299557D02*
D03*
X4337352Y6499000D02*
D03*
X4299557D02*
D03*
X3829725Y3740473D02*
D03*
X3867520D02*
D03*
X2630179Y3735270D02*
D03*
X2667974D02*
D03*
X4192089Y6742630D02*
D03*
X4229884D02*
D03*
X4192089Y6884362D02*
D03*
X4229884D02*
D03*
X3794195Y6884362D02*
D03*
X3831990D02*
D03*
Y6742630D02*
D03*
X3794195D02*
D03*
X3930000Y6460000D02*
D03*
X3892205D02*
D03*
X4371102Y7581520D02*
D03*
X4408898D02*
D03*
X4330000D02*
D03*
X4292205D02*
D03*
X3888968Y5212591D02*
D03*
X3926764D02*
D03*
X3888968Y5260002D02*
D03*
X3926764D02*
D03*
X6033102Y5889295D02*
D03*
X6070898D02*
D03*
X6031102Y5838160D02*
D03*
X6068898D02*
D03*
D89*
X4762135Y5965699D02*
D03*
X4701111D02*
D03*
X4597828Y5965699D02*
D03*
X4658852D02*
D03*
X4720142Y6292150D02*
D03*
X4659118D02*
D03*
D90*
X4674742Y6235756D02*
D03*
Y6174732D02*
D03*
X4674565Y6504638D02*
D03*
Y6565661D02*
D03*
X4400917Y6566040D02*
D03*
Y6505016D02*
D03*
X4002313Y3816583D02*
D03*
Y3877606D02*
D03*
X4177687Y3816583D02*
D03*
Y3877606D02*
D03*
X2243090Y3877402D02*
D03*
Y3816378D02*
D03*
X2297313Y3877606D02*
D03*
Y3816583D02*
D03*
X2527094Y3877606D02*
D03*
Y3816583D02*
D03*
X2472687Y3877606D02*
D03*
Y3816583D02*
D03*
X4138317Y5835512D02*
D03*
Y5774488D02*
D03*
Y4635512D02*
D03*
Y4574488D02*
D03*
D91*
X4614630Y6365047D02*
D03*
Y6327252D02*
D03*
X4464365Y6239764D02*
D03*
Y6201969D02*
D03*
X4226004Y3744173D02*
D03*
Y3706378D02*
D03*
X4183593Y3744173D02*
D03*
Y3706378D02*
D03*
X4179734Y3569492D02*
D03*
Y3607288D02*
D03*
X4222146Y3569492D02*
D03*
Y3607288D02*
D03*
X3996407Y3744173D02*
D03*
Y3706378D02*
D03*
X3953996Y3744173D02*
D03*
Y3706378D02*
D03*
X3686412Y3691919D02*
D03*
Y3729715D02*
D03*
X3644000Y3691919D02*
D03*
Y3729715D02*
D03*
X3692146Y3613913D02*
D03*
Y3576118D02*
D03*
X3649734Y3613913D02*
D03*
Y3576118D02*
D03*
X3476249Y3691919D02*
D03*
Y3729715D02*
D03*
X3433838Y3691919D02*
D03*
Y3729715D02*
D03*
X3076903D02*
D03*
Y3691919D02*
D03*
X3034492Y3729715D02*
D03*
Y3691919D02*
D03*
X3077146Y3607787D02*
D03*
Y3569992D02*
D03*
X3034734Y3570992D02*
D03*
Y3608787D02*
D03*
X2855262Y3729715D02*
D03*
Y3691919D02*
D03*
X2812850Y3729715D02*
D03*
Y3691919D02*
D03*
X2521188Y3706378D02*
D03*
Y3744173D02*
D03*
X2478592Y3706378D02*
D03*
Y3744173D02*
D03*
X2291408Y3706378D02*
D03*
Y3744173D02*
D03*
X2248996Y3706378D02*
D03*
Y3744173D02*
D03*
X2517630Y3611787D02*
D03*
Y3573992D02*
D03*
X2475218Y3611787D02*
D03*
Y3573992D02*
D03*
X4130278Y6957089D02*
D03*
Y6994884D02*
D03*
X4087866D02*
D03*
Y6957089D02*
D03*
X4045454D02*
D03*
Y6994884D02*
D03*
X4003043D02*
D03*
Y6957089D02*
D03*
X4054412Y6569116D02*
D03*
Y6606911D02*
D03*
X4012000D02*
D03*
Y6569116D02*
D03*
X3289641Y7291116D02*
D03*
Y7253321D02*
D03*
X3380685Y7194302D02*
D03*
Y7156507D02*
D03*
Y7081809D02*
D03*
Y7119604D02*
D03*
X3154759Y7102793D02*
D03*
Y7064998D02*
D03*
X3197641Y7103379D02*
D03*
Y7065584D02*
D03*
X2800000Y7343898D02*
D03*
Y7306102D02*
D03*
X4085000Y5842898D02*
D03*
Y5805102D02*
D03*
X3671504Y5234346D02*
D03*
Y5272142D02*
D03*
X4085000Y4643898D02*
D03*
Y4606102D02*
D03*
X6050000Y4545000D02*
D03*
Y4507205D02*
D03*
X5664051Y4617065D02*
D03*
Y4579270D02*
D03*
X5670000Y5446102D02*
D03*
Y5483898D02*
D03*
D92*
X4519685Y6191732D02*
D03*
X4500000D02*
D03*
Y6250000D02*
D03*
X4519685D02*
D03*
X4539370D02*
D03*
Y6191732D02*
D03*
D93*
X4109510Y3528811D02*
D03*
Y3568968D02*
D03*
X3570000Y3574880D02*
D03*
Y3534722D02*
D03*
X3525000Y3574880D02*
D03*
Y3534722D02*
D03*
X3077146Y3495612D02*
D03*
Y3535769D02*
D03*
X3035424D02*
D03*
Y3495612D02*
D03*
X4131225Y3292831D02*
D03*
Y3252673D02*
D03*
X4090191Y3292280D02*
D03*
Y3252122D02*
D03*
X4028508Y3292280D02*
D03*
Y3252122D02*
D03*
X3987475Y3292382D02*
D03*
Y3252224D02*
D03*
X3653717Y3292278D02*
D03*
Y3252121D02*
D03*
X3612683Y3292278D02*
D03*
Y3252120D02*
D03*
X3551000Y3292278D02*
D03*
Y3252120D02*
D03*
X3509966Y3292279D02*
D03*
Y3252121D02*
D03*
X3168659Y3252675D02*
D03*
Y3292832D02*
D03*
X3126920Y3252674D02*
D03*
Y3292831D02*
D03*
X3068044Y3252675D02*
D03*
Y3292833D02*
D03*
X3027011Y3252675D02*
D03*
Y3292832D02*
D03*
X2964492Y3576880D02*
D03*
Y3536722D02*
D03*
X2516941Y3540693D02*
D03*
Y3500536D02*
D03*
X2474529D02*
D03*
Y3540693D02*
D03*
X4275000Y6883593D02*
D03*
Y6923750D02*
D03*
X4116860Y6540311D02*
D03*
Y6500154D02*
D03*
X4157894D02*
D03*
Y6540311D02*
D03*
X4198927Y6500154D02*
D03*
Y6540311D02*
D03*
X3930306Y6499921D02*
D03*
Y6540079D02*
D03*
X3889272Y6499921D02*
D03*
Y6540079D02*
D03*
X3848239Y6500154D02*
D03*
Y6540311D02*
D03*
X3807205Y6500154D02*
D03*
Y6540311D02*
D03*
X3766000Y6500154D02*
D03*
Y6540311D02*
D03*
X5599005Y7607311D02*
D03*
Y7567153D02*
D03*
X5599005Y7419583D02*
D03*
Y7459740D02*
D03*
X4704408Y7607311D02*
D03*
Y7567153D02*
D03*
X3760000Y7315079D02*
D03*
Y7274921D02*
D03*
X3247918Y7252140D02*
D03*
Y7292297D02*
D03*
X5628282Y2450079D02*
D03*
Y2409921D02*
D03*
X5581718D02*
D03*
Y2450079D02*
D03*
X6615000Y4735079D02*
D03*
Y4694921D02*
D03*
X6615000Y4504921D02*
D03*
Y4545079D02*
D03*
X6570000Y4504921D02*
D03*
Y4545079D02*
D03*
X6050689Y4735079D02*
D03*
Y4694921D02*
D03*
X6005000Y4544921D02*
D03*
Y4585079D02*
D03*
X5956034Y5750079D02*
D03*
Y5709921D02*
D03*
X5915000Y5750079D02*
D03*
Y5709921D02*
D03*
X5620000Y5544921D02*
D03*
Y5585079D02*
D03*
Y5485079D02*
D03*
Y5444921D02*
D03*
X5670000Y5364921D02*
D03*
Y5405079D02*
D03*
X5904134Y5290000D02*
D03*
Y5249843D02*
D03*
X5863101Y5290079D02*
D03*
Y5249921D02*
D03*
X5822067Y5290079D02*
D03*
Y5249921D02*
D03*
X5781034Y5290079D02*
D03*
Y5249921D02*
D03*
X5740000Y5290079D02*
D03*
Y5249921D02*
D03*
X5698966Y5290079D02*
D03*
Y5249921D02*
D03*
D94*
X3879134Y3685000D02*
D03*
Y3704685D02*
D03*
X3820866Y3685000D02*
D03*
X3879134Y3665315D02*
D03*
X3820866D02*
D03*
Y3704685D02*
D03*
X2679134Y3660315D02*
D03*
Y3680000D02*
D03*
Y3699685D02*
D03*
X2620866D02*
D03*
Y3680000D02*
D03*
Y3660315D02*
D03*
D95*
X3525551Y3790772D02*
D03*
X3594449Y3901008D02*
D03*
X3525551D02*
D03*
X3594449Y3790772D02*
D03*
X2979448D02*
D03*
X2910551Y3901008D02*
D03*
X2979448D02*
D03*
X2910551Y3790772D02*
D03*
X2350551D02*
D03*
X2419449Y3901008D02*
D03*
X2350551D02*
D03*
X2419449Y3790772D02*
D03*
X4055551D02*
D03*
X4124449Y3901008D02*
D03*
X4055551D02*
D03*
X4124449Y3790772D02*
D03*
D96*
X3706880Y3776358D02*
D03*
Y3897421D02*
D03*
X3413120D02*
D03*
Y3776358D02*
D03*
X3091927Y3897421D02*
D03*
Y3776358D02*
D03*
X2798072Y3897421D02*
D03*
Y3776358D02*
D03*
D97*
X4624606Y3520000D02*
D03*
X4674606D02*
D03*
X4575000D02*
D03*
X4525000D02*
D03*
X4624606Y3220000D02*
D03*
X4674606D02*
D03*
X4575000D02*
D03*
X4525000D02*
D03*
D98*
X4027012Y3176181D02*
D03*
Y3073819D02*
D03*
X4090004D02*
D03*
Y3176181D02*
D03*
X3612496D02*
D03*
Y3073819D02*
D03*
X3549504D02*
D03*
Y3176181D02*
D03*
X3130155Y3176182D02*
D03*
Y3073820D02*
D03*
X3067163D02*
D03*
Y3176182D02*
D03*
D99*
X4011653Y6469000D02*
D03*
X3980157Y6512307D02*
D03*
Y6469000D02*
D03*
X4011653Y6512307D02*
D03*
D100*
X5010732Y7191465D02*
D03*
X5109158D02*
D03*
X5089472D02*
D03*
X5069787D02*
D03*
X5128842D02*
D03*
X5148528D02*
D03*
X5168213D02*
D03*
X5227268D02*
D03*
Y7074535D02*
D03*
X5128842D02*
D03*
X5148528D02*
D03*
X5168213D02*
D03*
X5109158D02*
D03*
X5089472D02*
D03*
X5069787D02*
D03*
X5010732D02*
D03*
D101*
X5156402Y6949291D02*
D03*
X5081598D02*
D03*
Y6860709D02*
D03*
X5155762Y6860395D02*
D03*
X5119000Y6949291D02*
D03*
Y6860709D02*
D03*
D102*
X4520000Y7480000D02*
D03*
X4470000D02*
D03*
X4420000D02*
D03*
X4370000D02*
D03*
X4520000Y7165040D02*
D03*
X4470000D02*
D03*
X4420000D02*
D03*
X4370000Y7165040D02*
D03*
D103*
X4073256Y7637173D02*
D03*
Y7408826D02*
D03*
X3915776D02*
D03*
Y7637173D02*
D03*
X3759610Y7408827D02*
D03*
Y7637173D02*
D03*
X3602129D02*
D03*
Y7408827D02*
D03*
D104*
X3234882Y7149842D02*
D03*
Y7130157D02*
D03*
X3345118D02*
D03*
Y7149842D02*
D03*
D105*
X3290000Y7140000D02*
D03*
D106*
X3329370Y7195118D02*
D03*
X3309685D02*
D03*
X3290000D02*
D03*
X3270315D02*
D03*
X3250630D02*
D03*
X3329370Y7084882D02*
D03*
X3309685D02*
D03*
X3290000D02*
D03*
X3270315D02*
D03*
X3250630D02*
D03*
D107*
X2520236Y7115000D02*
D03*
Y7165000D02*
D03*
Y7215000D02*
D03*
Y7265000D02*
D03*
D108*
X2603307Y7190000D02*
D03*
D109*
X2751339Y7265000D02*
D03*
Y7215000D02*
D03*
Y7165000D02*
D03*
Y7115000D02*
D03*
D110*
X4188681Y5860000D02*
D03*
X4267422D02*
D03*
Y4660000D02*
D03*
X4188681D02*
D03*
D111*
X3745008Y5254661D02*
D03*
X3808000D02*
D03*
X6020504Y5991000D02*
D03*
X6083496D02*
D03*
D112*
X3745008Y5213323D02*
D03*
X3808000D02*
D03*
Y5296000D02*
D03*
X6020504Y5949661D02*
D03*
Y6032339D02*
D03*
X6083496D02*
D03*
D113*
X3888583Y4941339D02*
D03*
Y4909842D02*
D03*
Y4878346D02*
D03*
Y4846850D02*
D03*
Y4815354D02*
D03*
Y4783858D02*
D03*
Y4752362D02*
D03*
Y4720866D02*
D03*
Y4689370D02*
D03*
Y4657874D02*
D03*
Y4626378D02*
D03*
Y4594882D02*
D03*
Y4563386D02*
D03*
Y4531890D02*
D03*
Y4500394D02*
D03*
Y4468898D02*
D03*
Y4437402D02*
D03*
Y4405905D02*
D03*
Y4374409D02*
D03*
X3790157Y4358661D02*
D03*
Y4390158D02*
D03*
Y4421654D02*
D03*
Y4453150D02*
D03*
Y4484646D02*
D03*
Y4516142D02*
D03*
Y4547638D02*
D03*
Y4579134D02*
D03*
Y4610630D02*
D03*
Y4642126D02*
D03*
Y4673622D02*
D03*
Y4705118D02*
D03*
Y4736614D02*
D03*
Y4768110D02*
D03*
Y4799606D02*
D03*
Y4831102D02*
D03*
Y4862598D02*
D03*
Y4894095D02*
D03*
Y4925591D02*
D03*
X3888583Y6141339D02*
D03*
Y6109842D02*
D03*
Y6078346D02*
D03*
Y6046850D02*
D03*
Y6015354D02*
D03*
Y5983858D02*
D03*
Y5952362D02*
D03*
Y5889370D02*
D03*
Y5857874D02*
D03*
Y5763386D02*
D03*
Y5731890D02*
D03*
Y5700394D02*
D03*
Y5668898D02*
D03*
Y5637402D02*
D03*
Y5605905D02*
D03*
Y5574409D02*
D03*
X3790157Y5558661D02*
D03*
Y5590158D02*
D03*
Y5621654D02*
D03*
Y5653150D02*
D03*
Y5684646D02*
D03*
Y5716142D02*
D03*
Y5747638D02*
D03*
Y5779134D02*
D03*
Y5810630D02*
D03*
Y5842126D02*
D03*
Y5873622D02*
D03*
Y5936614D02*
D03*
Y5968110D02*
D03*
Y5999606D02*
D03*
Y6031102D02*
D03*
Y6062598D02*
D03*
Y6094095D02*
D03*
Y6125591D02*
D03*
Y5905118D02*
D03*
X3888583Y5794882D02*
D03*
Y5920866D02*
D03*
Y5826378D02*
D03*
D114*
X6152520Y4695000D02*
D03*
Y4645000D02*
D03*
Y4595000D02*
D03*
Y4545000D02*
D03*
X6467480Y4695000D02*
D03*
Y4645000D02*
D03*
Y4595000D02*
D03*
X6467480Y4545000D02*
D03*
D115*
X5827181Y4629000D02*
D03*
Y4579000D02*
D03*
Y4679000D02*
D03*
X5724819Y4579000D02*
D03*
Y4679000D02*
D03*
Y4629000D02*
D03*
D116*
X7084961Y5000000D02*
D03*
X6789961D02*
D03*
D117*
X7145000Y5058071D02*
D03*
Y4941929D02*
D03*
X6850000D02*
D03*
Y5058071D02*
D03*
D118*
X6054685Y5790748D02*
D03*
X6015315D02*
D03*
Y5759252D02*
D03*
X6054685D02*
D03*
D119*
X6035000Y5775000D02*
D03*
D120*
X5879417Y5427945D02*
D03*
X5718000D02*
D03*
X5879417Y5447630D02*
D03*
Y5467315D02*
D03*
Y5487000D02*
D03*
Y5506685D02*
D03*
Y5526370D02*
D03*
X5718000Y5447630D02*
D03*
Y5467315D02*
D03*
Y5487000D02*
D03*
Y5506685D02*
D03*
Y5526370D02*
D03*
D121*
X5847921Y5396449D02*
D03*
X5828236D02*
D03*
X5808551D02*
D03*
X5788866D02*
D03*
X5749496D02*
D03*
X5769181D02*
D03*
X5749496Y5557866D02*
D03*
X5808551D02*
D03*
X5828236D02*
D03*
X5847921D02*
D03*
X5769181D02*
D03*
X5788866D02*
D03*
D122*
X7120079Y7820433D02*
D03*
X7000000Y5679488D02*
D03*
X7120079Y4320433D02*
D03*
X7000000Y2179488D02*
D03*
D123*
X5276480Y7074535D02*
D03*
Y7191465D02*
D03*
X4961520D02*
D03*
Y7074535D02*
D03*
D124*
X3519483Y6910000D02*
D03*
X2668425Y6750000D02*
D03*
X2670000Y6470000D02*
D03*
X3500000Y4980709D02*
D03*
Y4319291D02*
D03*
Y6180709D02*
D03*
Y5519291D02*
D03*
D125*
X3421058Y6910000D02*
D03*
X2570000Y6750000D02*
D03*
X2571575Y6470000D02*
D03*
D126*
X3040000Y6480000D02*
D03*
X2940000D02*
D03*
X3040000Y6580000D02*
D03*
X2940000D02*
D03*
X3040000Y6680000D02*
D03*
X2940000D02*
D03*
X3040000Y6780000D02*
D03*
Y6880000D02*
D03*
Y6980000D02*
D03*
X2940000D02*
D03*
X3040000Y7080000D02*
D03*
X2940000D02*
D03*
X3040000Y7180000D02*
D03*
X2940000D02*
D03*
X3040000Y7280000D02*
D03*
X2940000D02*
D03*
X3040000Y7380000D02*
D03*
X2940000D02*
D03*
Y6880000D02*
D03*
Y6780000D02*
D03*
D127*
X4003543Y4846850D02*
D03*
Y4563386D02*
D03*
X3622047Y5024016D02*
D03*
X3799213Y4275984D02*
D03*
X2314961D02*
D03*
X2669291D02*
D03*
X3023622D02*
D03*
X3377953D02*
D03*
X2137795Y5024016D02*
D03*
X2492126D02*
D03*
X2846457D02*
D03*
X3200787D02*
D03*
X4003543Y6046850D02*
D03*
Y5763386D02*
D03*
X3622047Y6224016D02*
D03*
X3799213Y5475984D02*
D03*
X2314961D02*
D03*
X2669291D02*
D03*
X3023622D02*
D03*
X3377953D02*
D03*
X2137795Y6224016D02*
D03*
X2492126D02*
D03*
X2846457D02*
D03*
X3200787D02*
D03*
D128*
X2330701Y7150000D02*
D03*
Y6950000D02*
D03*
Y6750000D02*
D03*
D129*
X2500000Y2992500D02*
D03*
Y7492500D02*
D03*
X6500000Y1992500D02*
D03*
Y7992500D02*
D03*
X5750000Y5750000D02*
D03*
X4250000Y4250000D02*
D03*
X7000000Y8125000D02*
D03*
Y1875000D02*
D03*
Y4625000D02*
D03*
Y5375000D02*
D03*
D130*
X5798709Y5477158D02*
D03*
X5828236D02*
D03*
X5769181D02*
D03*
X5798709Y5447630D02*
D03*
Y5506685D02*
D03*
X5828236D02*
D03*
Y5447630D02*
D03*
X5769181D02*
D03*
Y5506685D02*
D03*
M02*
