M48
;Layer_Color=9474304
;FILE_FORMAT=2:4
INCH,TZ
;TYPE=PLATED
T01F00S00C0.0079
T03F00S00C0.0315
T04F00S00C0.0402
T05F00S00C0.0433
T06F00S00C0.0551
T07F00S00C0.1063
;TYPE=NON_PLATED
T08F00S00C0.0280
T10F00S00C0.0394
T11F00S00C0.0500
T12F00S00C0.0630
%
T01
X62632Y17256
X62932
X63231
X63531
X63831
X64131
X64431
X64730
X65030
X65330
X65630
X65930
X66229
X66529
X66829
X67129
X67429
X67728
X68028
X68328
X68628
X68928
X69227
X69527
X69827
X70127
X70427
X70726
X71026
X71326
X71626Y17263
X71922Y17308
X72205Y17406
X72467Y17552
X72702Y17738
X72901Y17962
X73057Y18218
X73169Y18497
X73232Y18790
X73244Y19089
Y19389
Y19689
Y19989
Y20288
Y20588
Y20888
Y21188
Y21488
Y21787
Y22087
Y22387
Y22687
Y22987
Y23286
Y23586
Y23886
Y24186
Y24486
Y24785
Y25085
Y25385
Y25685
Y25985
Y26284
Y26584
Y26884
Y27184
Y27484
Y27783
Y28083
Y28383
Y28683
Y28983
Y29282
Y29582
Y29882
Y30182
Y30482
Y30781
Y31081
X72250Y30750
Y30250
Y29750
Y29250
Y28750
Y28250
Y27750
Y27250
Y26750
Y26250
Y25750
Y25250
Y24750
Y24250
Y23750
Y23250
Y22750
X71750
X71250
X70750
X70250
X69750
X69250
X68750
X68250
X67750
Y23250
X68250
X68750
X69250
X69750
Y23750
X69250
X68750
X68250
X67750
Y24250
X68250
X68750
X69250
X69750
X70250
X70750
Y23750
Y23250
X71750
Y23750
X71250Y24250
Y24750
X70750
X70250
X69750
X69250
X68750
X68250
X67750
Y25250
X68250
X68750
X69250
X69750
X70250
X70750
Y25750
X70250
X69750
X69250
X68750
X68250
X67750
Y26250
X68250
X68750
X69250
X69750
X70250
X70750
X71250
Y26750
X70750
X70250
X69750
X69250
X68750
X68250
X67750
Y27250
X68250
X68750
X69250
X69750
X70250
X70750
Y27750
X70250
X69750
X69250
X68750
X68250
X67750
Y28250
X68250
X68750
X69250
X69750
X70250
X70750
X71250
Y28750
X70750
X70250
X69750
X69250
X68750
X68250
X67750
Y29250
X68250
X68750
X69250
X69750
X70250
X70750
Y29750
X70250
X69750
X69250
X68750
X68250
X67750
Y30250
Y30750
X68250
Y30250
X68750
X69250
X69750
X70250
X70750
X71250
Y30750
X70750
X70250
X69750
X69250
X68750
X71750Y29750
Y29250
Y27750
Y27250
Y25750
Y25250
X71150Y21649
X71000Y21250
X71500
X72000
X72450
X72900
X70500
X70000
X69500
X69000
X68500
Y21650
X68000Y21250
X67750Y21500
X67500Y21750
X67250Y22000
X66750
X66250
X65750
X65250
X64750
X64250
X63750
X63250
X62700Y22150
X63200Y22800
X63800
X63000Y23900
X62600Y24200
X62500Y25020
X63400
X64606Y20607
X65000Y20712
X65394Y20607
X65682Y20319
X65787Y19925
X65682Y19531
X65394Y19243
X65000Y19138
X64606Y19243
X64318Y19531
X64213Y19925
X64318Y20319
X67913Y19685
X69318Y19244
X69213Y18850
X69318Y18456
X69606Y18168
X70000Y18063
X70394Y18168
X70682Y18456
X70787Y18850
X70682Y19244
X70394Y19532
X70000Y19637
X69606Y19532
X62008Y18701
X62032Y17256
X62332
X61733Y17277
X61442Y17350
X61167Y17469
X60917Y17633
X60700Y17841
X60520Y18080
X60382Y18347
X60297Y18634
X60259Y18931
X60256Y19231
Y19531
Y19831
X60249Y20131
X60212Y20428
X60136Y20718
X60022Y20995
X59872Y21255
X59688Y21492
X59475Y21703
X59236Y21884
X58975Y22031
X58697Y22143
X58406Y22217
X58108Y22251
X57809Y22256
X57509
X57209
X56909
X56610
X56310
X56010
X55710
X55410
X55111
X54811
X54511
X54211
X53911
X53612
X53312
X53012
X52712
X52412
X52113
X51813
X51513
X51213
X50913
X50614
X50314
X50014
X49714
X49414
X49115
X48815
X48515
X48215
X47915
X47616
X47316
X47016
X48228Y24606
X50197
X52165
X53500Y24850
X54550Y25000
X54800Y24750
Y25250
X54550Y25500
X55050
Y25000
X54550Y24500
X55817Y24501
Y24099
X56283
Y24501
X56050Y25250
X58071Y24606
X59750Y25000
X60250Y24500
X60750Y24000
X61250Y23500
X61750Y23000
X62250Y22500
X62008Y20669
X60039Y22638
X59250Y25500
X58750Y26000
X58250Y26500
X57750Y27000
X57250Y27500
X56750Y28000
X56250Y28500
X55750Y29000
X55250Y29500
X54450
X54750Y30000
X54250Y30500
X53750Y31000
X53500Y29500
X52165Y28543
X50197
X48228
Y26575
X50197
X52165
X53500Y27000
X54450
X61400Y27060
X61100Y28100
X60900Y29000
X60500Y30000
X60100Y31000
X61790Y26030
X62490
X46334Y26603
X46260Y24606
X44291
Y26575
X42323
Y24606
X40354
Y26575
X38386
Y24606
X36417
Y26575
X34449
Y24606
X32480
Y26575
X32626Y22256
X32326
X32026
X31726
X31426
X32925
X33225
X33525
X33825
X34125
X34424
X34724
X35024
X35324
X35624
X35923
X36223
X36523
X36823
X37123
X37422
X37722
X38022
X38322
X38622
X38921
X39221
X39521
X39821
X40121
X40420
X40720
X41020
X41320
X41620
X41919
X42219
X42519
X42819
X43119
X43418
X43718
X44018
X44318
X44618
X44917
X45217
X45517
X45817
X46117
X46416
X46716
X40900Y30738
X40270
X36125
X35495
X31302Y30738
X30672
X28543Y28543
X26575
X25682Y29531
X25787Y29925
X25682Y30319
X25394Y30607
X25000Y30712
X24606Y30607
X24318Y30319
X24213Y29925
X24318Y29531
X24606Y29243
X25000Y29138
X25394Y29243
X22638Y28543
Y26575
X24606
X26575
X28543
X30512
Y24606
X28543
X26575
X24606
X22638
X20711Y24698
X20695Y24998
X20696Y25298
Y25597
Y25897
Y26197
Y26497
Y26797
Y27096
Y27396
Y27696
Y27996
Y28296
Y28595
Y28895
Y29195
Y29495
Y29794
Y30094
Y30394
Y30694
Y30994
X20760Y24403
X20842Y24114
X20954Y23836
X21096Y23572
X21266Y23325
X21462Y23098
X21682Y22894
X21922Y22715
X22181Y22563
X22454Y22441
X22740Y22348
X23033Y22288
X23332Y22260
X23632Y22256
X23931
X24231
X24531
X24831
X25131
X25430
X25730
X26030
X26330
X26630
X26929
X27229
X27529
X27829
X28129
X28428
X28728
X29028
X29328
X29628
X29927
X30227
X30527
X30827
X31127
X30475Y32928
X29645Y35367
X29450Y36475
X29607Y36643
X29293
Y36967
Y37164
X29450Y37066
Y36869
X29607Y36967
Y37164
X30380Y37339
X30530Y37489
X30680Y37639
X30980
X31130Y37789
X30980Y37939
X30830Y37789
X30680Y37939
X30530Y37789
X30830Y37489
X30680Y37339
X30730Y36939
X31030
X30880Y36739
X31180
X30745Y36509
X30563Y36359
X30355
X30430Y36939
X30530Y38639
Y38939
X30830
X30680Y39089
X30980
X31130Y38939
X30980Y38789
X30680
X30830Y38639
X31130
X28380
X28080
Y38939
X27930Y39089
X27630
X27780Y38939
Y38639
X27630Y38789
X27930
X28230
Y39089
X28380Y38939
X28370Y37789
Y37489
X28520Y37339
X28220
X28070Y37489
X28220Y37639
Y37939
X28070Y37789
X27920Y37939
Y37639
X27620
X27770Y37789
X27620Y37939
X27570Y36939
X27870
X28170
X28470
X28454Y36508
X28225Y36569
X28020Y36739
X27720
X26950Y36800
X26500Y36600
Y37000
X26680Y37353
X26302
X26200Y36450
X26800Y36050
X27795Y35488
Y35111
X28215Y35828
X28715Y36199
Y36407
X31094Y35698
X25542Y35736
X25135Y36486
X24950Y36379
X24742
X24942Y36839
X25192
X25442
X25292Y37039
X25042
X24792
X24892Y37489
X25192
X25042Y37689
X25342
X25192Y37889
X24892
X25042Y38089
X25342
X25392Y38589
Y38839
Y39089
X25192Y38989
X24992Y39089
Y38839
Y38589
X24792Y38689
Y38989
X25192Y38689
X24742Y38089
X24692Y37689
X24007Y37164
Y36967
X23850Y36869
Y37066
X23693Y36967
Y37164
Y36643
X24007
X23850Y36475
X23135Y36407
X23132Y36199
X22862Y36289
X22572Y36519
X22508Y36839
X22258
X22408Y37039
X22658
X22908
X22758Y36839
X22808Y37489
X22508
X22358Y37689
X22658
X23008
X22808Y37889
X22508
X22358Y38089
X22658
X22958
X22908Y38689
Y38989
X22708Y39089
Y38839
Y38589
X22508Y38689
X22308Y38589
Y38839
Y39089
X22508Y38989
X20696Y39088
Y39388
Y39688
Y39988
Y40287
Y40587
Y40887
Y41187
Y41487
Y41786
X20700Y42086
Y42386
Y42685
Y42985
Y43285
Y43585
Y43885
Y44184
Y44484
Y44784
Y45084
Y45384
Y45683
Y45983
Y46283
Y46583
X20696Y38788
Y38489
Y38189
Y37889
Y37589
Y37290
Y36990
Y36690
Y36390
Y36090
Y35791
Y35491
Y35191
Y34891
Y34591
Y34292
Y33992
Y33692
Y33392
Y33092
Y32792
Y32493
Y32193
Y31893
Y31593
Y31293
X25000Y31800
X25400
X25800
X26200
X26600
Y33000
X26200
X25800
X25400
X25000
X23450Y35300
X22566Y35749
X22150Y35415
X22150Y35050
X30500Y41450
X31350
Y41150
X31300Y40550
X31280Y39089
Y38789
Y37939
Y37639
X31330Y36939
X33720
X34020
X34320
X34620
X34670Y37339
X34520Y37489
X34370Y37639
X34070
X33920Y37789
X33770Y37939
Y37639
X34070Y37939
X34220Y37789
X34370Y37939
X34520Y37789
X34220Y37489
X34370Y37339
X34170Y36739
X33870
X34410Y36519
X34643Y36432
X34878Y36406
X34881Y36198
X34424Y35749
X34017Y35366
Y34988
X35250Y35347
X35700
X35600Y36475
X35757Y36643
X35443
Y36967
Y37164
X35600Y37066
Y36869
X35757Y36967
Y37164
X36530Y37339
X36830
X36980Y37489
X36680
Y37789
X36830Y37939
Y37639
X36980Y37789
X37130Y37939
Y37639
X37430
X37280Y37789
X37430Y37939
X37280Y38639
X36980
X36680
X36830Y38789
X37130
Y39089
X36980Y38939
X36680
X36830Y39089
X37280Y38939
X37430Y38789
Y39089
X37480Y36939
X37180
X36880
X36580
X36490Y36389
X36698
X36903Y36526
X37030Y36739
X37330
X37280Y35719
X37350Y35080
X37650
Y34580
X37350
X39191Y35017
Y35395
X39603Y35748
X39959Y36305
X40202Y36407
X40205Y36199
X39749Y36545
X39808Y36839
X39558
X39458Y37039
X39708
X39958
X39858Y37489
X39558
X39708Y37689
X39858Y37889
X39558
X39708Y38089
X40008
X40058Y37689
X40165Y38619
Y38869
Y39119
X39865
Y38869
Y38619
X41635
Y38869
Y39119
X41935
Y38869
Y38619
X41792Y38089
X42092
X42242Y37889
X41942
X42092Y37689
X41742
X41942Y37489
X42242
X42337Y37039
X42092Y37039
X41842
X41992Y36839
X42242
X42215Y36519
X42043Y36359
X41835
X40900Y36475
X40743Y36643
X41057
Y36967
Y37164
X40900Y37066
Y36869
X40743Y36967
Y37164
X40450Y35560
Y35330
X40950Y35200
X42540Y35700
X44050Y34700
Y34250
X44450
Y33750
X44050
Y33250
X44450
X45300Y33350
X45600Y33650
X45496Y35200
X45992
X46750Y38000
X46250Y38500
X45750Y39000
X45250Y39500
X44900Y39850
X44750Y40250
Y40750
Y41250
Y41750
X44800Y42200
Y42550
X44600Y42400
Y42700
X44400Y42550
Y42200
X44200Y42400
Y42700
X44500Y43100
X44900
X44700Y43300
Y43750
X44550Y43900
X44900
Y43600
X44500
X44334Y43754
X44177Y43557
X43817Y43599
X43487Y43601
X43150Y43600
X42900
X42610Y43650
X42300Y43640
X42020Y43550
X41790Y43410
X41590Y43210
X41400Y43000
X41100
X40800
X40500
X40200
X39900
X39700Y42900
X39500Y42800
X39200
X38900
X38600
X38400Y42600
X37550
X37500Y42800
X37200
X36900
X36600
X36400Y43000
X36200Y43200
X36000Y43400
X35800Y43600
X35600Y43800
X35400Y44000
X35200Y44200
X35000Y44400
X34800Y44600
X34587Y44780
X34600Y45114
Y45386
Y45714
Y45986
Y46314
Y46600
X35109
X35100Y46350
Y46850
X36400Y45745
X36762Y45383
Y45133
Y44883
Y44633
X37622Y44531
X38181
X38607Y44689
X39165
Y45634
X38607
X38181Y45476
X37622
X37902Y45791
Y46106
Y46421
X37652
X38152
X37902Y46736
X38636Y46579
X38886
X39136
X38886Y46264
Y45949
X36950Y46061
X37622Y43587
X38181
X38607Y43744
X39165
X40450Y44500
Y44750
Y45000
Y45250
X41050Y45850
X40850Y46061
X41383Y45745
X41900Y45750
X42311Y45869
X42689
X42700Y46300
Y46600
X43780Y46860
X43800Y45618
X43950Y44750
X43550
X42850Y45300
X42894Y43182
X42500Y43287
X42106Y43182
X41818Y42894
X41713Y42500
X41818Y42106
X42106Y41818
X42500Y41713
X42894Y41818
X43182Y42106
X43287Y42500
X43182Y42894
X45000Y42700
Y42400
X44800Y44100
X44950Y44350
X45000Y44600
X45050Y44850
X45079Y45079
X45472
X45866
X46260
X46654
X46260Y45472
Y45866
X45866
X45472
Y46260
Y46654
X45079
Y46260
X45866
Y46654
X46260
Y46260
X46654
Y46654
X46750Y32200
X43340Y31700
Y31450
X41104Y32923
X40076Y32924
X36331Y32923
X35301
X31477Y32928
X33780Y38789
X34080
X34230Y38939
X34380Y38789
X34530Y38939
X34380Y39089
X34080
X33780
X33930Y38939
Y38639
X34230
X34530
X34400Y40000
X33350Y40250
X33800Y40800
Y41150
X32300Y44250
X31700Y45150
Y46800
X38297Y37405
X38675
X38950Y36850
X38500Y36650
X38200Y36300
X38800Y35950
X48750Y36000
X49250Y35500
X49750Y35000
X50250Y34500
X50750Y34000
X51250Y33500
X51750Y33000
X52250Y32500
X52750Y32000
X53250Y31500
X59400Y32100
X60400
X60000Y33000
X59100
X58700Y34000
X59600
X59500Y35000
Y36000
X59100Y37000
X58600Y38000
Y39000
Y40000
X57700Y41000
Y42100
X57500Y43250
X58000
X58500
X59000
X59500
X60000
X60500
X61000
X61500
X62000
X62200Y45450
X62100Y46450
X60400
X59549
X59650Y45450
X60050Y45451
X60500Y45450
Y45072
X58650Y45200
X57770Y45790
Y46290
X58060Y46790
X58460
X56450Y46550
X56641Y46171
Y45793
X56510Y45640
X56513Y45055
X56750Y45200
X54921Y45079
X54134
X53740
X53346
X52953
Y45472
X53346
X53740
X54134
X54528
Y45866
Y46260
Y46654
X54921
Y46260
X54134Y46654
X53740
Y46260
X53346
Y46654
X52953
Y46260
Y45866
X53346
X53740
X53750Y44501
X54160
X54160Y44099
X54000Y43850
X53500Y44100
X53400Y44600
X52165Y45472
Y45866
X51772
X51378
Y46260
X51772
Y46654
X51378
X50984
Y46260
X50591
Y46654
X50197
Y46260
Y45866
Y45472
X49803Y45866
X49409
Y46260
X49803
Y46654
X49409
X49016
Y46260
X48622
Y46654
X48228
Y46260
X47835
Y46654
X47441
Y46260
Y45866
X47835
X48228
Y45472
X49016Y45079
X47047
Y46260
Y46654
X52165
Y46260
X52559
Y46654
X50984Y45079
X54500Y43500
X55000Y43250
X55500
X56000
X56500
X57000
X55400Y42100
X56000Y41000
X56300Y40000
X56700Y39000
X57100Y38000
X57500Y37000
X58000Y36000
X58300Y35000
X48250Y36500
X47750Y37000
X47250Y37500
X67750Y37750
Y38250
Y38750
Y39250
Y39750
Y40250
Y40750
Y41250
Y41750
Y42250
X68250
X68750
X69250
X69750
X70250
X70750
X71250
X71750
X72250
Y41750
X71750
Y41250
X72250
Y40750
Y40250
Y39750
X71750
Y39250
X72250
Y38750
Y38250
Y37750
X71750
Y37250
X72250
Y36750
Y36250
X71750
X71250
Y36750
X70750Y37250
Y37750
X70250
Y38250
Y38750
Y39250
Y39750
Y40250
Y40750
Y41250
Y41750
X70750
Y41250
X69750
Y41750
X69250
X68750
X68250
Y41250
X68750
X69250
Y40750
X68750
X68250
Y40250
X68750
X69250
X69750
Y40750
Y39750
X69250
X68750
X68250
Y39250
X68750
X69250
X69750
Y38750
X69250
X68750
X68250
Y38250
X68750
X69250
X69750
Y37750
X69250
X68750
X68250
Y37250
X67750
Y36750
X68250
X68750
Y37250
X69250
X69750
X70250
Y36750
X69750
X69250
Y36250
X68750
X68250
X67750
Y35750
X68250
X68750
X69250
X69750
Y36250
X70250
Y35750
X70750
Y35250
X70250
X69750
X69250
X68750
X68250
X67750
Y34750
X68250
X68750
X69250
X69750
X70250
Y34250
X69750
X69250
X68750
X68250
X67750
Y33750
Y33250
Y32750
Y32250
Y31750
Y31250
X68250
Y31750
Y32250
Y32750
Y33250
Y33750
X68750
X69250
X69750
X70250
X70750
Y33250
X70250
X69750
X69250
X68750
Y32750
Y32250
Y31750
Y31250
X69250
X69750
X70250
X70750
Y31750
Y32250
X71250
Y32750
X70750
X70250
X69750
X69250
Y32250
Y31750
X69750
X70250
Y32250
X69750
X72250
Y31750
Y31250
X71750
Y31750
X72250Y32750
Y33250
Y33750
Y34250
Y34750
Y35250
Y35750
X71750
Y35250
Y34750
X71250
Y34250
X71750
Y33750
Y33250
X73244Y33180
Y33480
Y33779
Y34079
Y34379
Y34679
Y34979
Y35278
Y35578
Y35878
Y36178
Y36478
Y36777
Y37077
Y37377
Y37677
Y37977
Y38276
Y38576
Y38876
Y39176
Y39476
X73244Y39775
Y40075
Y40375
Y40675
Y40975
Y41274
Y41574
Y41874
Y42174
Y42474
Y42773
Y43073
Y43373
Y43673
Y43973
Y44272
Y44572
Y44872
Y45172
Y45472
Y45771
Y46071
Y46371
Y46671
X72050Y46000
X70682Y45856
X70787Y46250
X70682Y46644
X70394Y45568
X70000Y45463
X69606Y45568
X69318Y45856
X69213Y46250
X69318Y46644
X67200Y46450
X66651
Y45950
X67050
X66600Y45050
X66150Y45049
X65700
Y45451
X65300Y45700
X63250Y45450
X63500Y43250
X64000
X64500
X65000
X65500
X66000
X66500
X67000
X67500
X68000Y43500
X68500Y43750
X69000
X69400
X69750
X70250
X70300Y43350
X70750Y43750
X71250
X71750
X72250
X72600Y43350
X69100Y43351
X71250Y40750
Y40250
X70750Y39750
Y39250
X71250Y38750
Y38250
X73244Y32880
Y32580
Y32280
Y31981
Y31681
Y31381
X63000Y43250
X62500
Y48250
X63000
X63500
X64000
X64500
X65000
X65250Y48500
X65500Y48750
X65750Y49000
X66000Y49250
X66250Y49500
X66500Y49750
X66750Y50000
X66710Y50310
X67000Y50250
X67250Y50500
X67600
X67950
X68350Y50461
X68600
X68850
X68750Y50711
X68500
X68240Y50710
X68260Y49550
X68500
X68750
X68850Y49300
X68600
X68350
X70027Y49079
X70050Y48000
X70000Y47037
X70394Y46932
X69606
X73244Y46971
Y47270
Y47570
Y47870
Y48170
Y48470
Y48769
Y49069
Y49369
Y49669
Y49969
Y50268
Y50568
Y50868
Y51168
Y51468
Y51767
Y52067
Y52367
Y52667
Y52967
Y53266
Y53566
Y53866
Y54166
Y54466
Y54765
Y55065
Y55365
Y55665
Y55965
Y56264
Y56564
Y56864
Y57164
Y57464
Y57763
Y58063
Y58363
Y58663
Y58963
Y59262
Y59562
Y59862
Y60162
X73244Y60462
Y60761
Y61061
Y61361
Y61661
Y61961
Y62260
X72250Y62250
Y61750
Y61250
Y60750
X71750
Y60250
X72250Y59750
Y59250
X71750Y58750
Y58250
Y57750
X72250
X72650
X72260Y57170
X72250Y56760
Y56330
Y55850
X72000Y55500
Y55000
Y54500
Y54000
Y53500
Y53000
Y52500
X71750Y52250
X71500Y52000
Y51500
Y51000
X71450Y50711
X71210Y50710
X71150Y50500
X71550Y50461
X71800
X71700Y50711
X72250Y50500
X72680Y50350
X71700Y49550
X71450
X71210
X71300Y49300
X71550
X71800
X72350Y47900
X70700Y50500
X70250
X69750
X69250
X69600Y52350
X69606Y53068
X70000Y52963
X70394Y53068
X70682Y53356
X70787Y53750
X70682Y54144
X70394Y54432
X70000Y54537
X69606Y54432
X69318Y54144
X69213Y53750
X69318Y53356
X68600Y52350
X66400Y51600
X66500Y51250
X66200Y53500
X64900Y52850
X64100
X62950Y53000
X62550Y51850
X63261Y48566
X63500Y48800
X64480Y46950
X64870
X65750Y47350
X66150Y47351
X66900Y48550
X66600Y55050
X67450Y55750
Y56150
X67750Y57750
X68250
X68750
X69250
X69750
X70250
X70750
X71250
X70750Y58250
Y58750
Y59250
X71250
Y59750
X70750
X70250
Y59250
X69750
Y58750
Y58250
X69250
X68750
X68250
X67750
Y58750
X68250
X68750
X69250
Y59250
X68750
X68250
X67750
Y59750
X68250
X68750
X69250
X69750
Y60250
X69250
X68750
X68250
X67750
Y60750
X68250
X68750
X69250
X69750
X70250
Y60250
X70750
Y60750
Y61250
X71250
Y61750
X70750
X70250
Y61250
X69750
X69250
X68750
X68250
X67750
Y61750
X68250
X68750
X69250
X69750
Y62250
X69250
X68750
X68250
X67750
X66250Y61500
X64650
X63000Y62100
X70250Y62250
X70750
X71750
X70750Y56500
X70900Y55000
X60950Y55150
X60900Y54800
X60753Y54566
X60950Y54350
X60900Y53750
X60903Y53319
X60781Y52964
X60581Y52736
X60250Y52450
X59750Y52350
X59550Y52100
X59350Y51900
X59100Y52100
X58800Y52166
X58750Y51850
X58500Y52100
X58000
X58013Y52499
X57810Y52901
X58221
X57400
X56990
X57197Y52500
X57150Y52100
X57050Y51850
X56450
X56200Y51977
X55983Y52103
X55760Y52210
X55750Y52460
X55800Y52750
X55550Y52950
X55323Y52552
X55325Y52256
X54921Y52165
Y51772
X54528
Y52165
X54134
Y51772
Y51378
X53740
X53346
Y51772
X53740
Y52165
X53346
Y52559
X53740
X54134
X54528
X54921
Y52953
Y53346
Y53740
Y54134
Y54528
Y54921
X54528
Y54528
X54134
X53740
X53346
Y54921
X52953
X52559
Y54528
X52953
Y54134
Y53740
X53346
Y54134
X53740
Y53740
X54134
Y54134
X54528
Y53740
Y53346
Y52953
X54134
Y53346
X53346
X52953
Y52953
Y52559
Y52165
Y51772
Y51378
Y50984
X53346
Y50591
X53740
Y50197
X53346
Y49803
X53740
X54134
Y49409
X53740
X53346
Y49016
X53740
Y48622
X53346
Y48228
X53740
Y47835
X53346
X52953
Y48228
Y48622
Y49016
Y49409
Y49803
Y50197
Y50591
X52559
Y50197
Y49803
Y49409
X52165
Y49016
X52559
Y48622
Y48228
Y47835
Y47441
X52953
X53346
Y47047
X53740
X54134
X54528
X54921
Y47441
Y47835
X54528
Y48228
Y48622
X54134
X54921
Y48228
Y49016
X55770Y48420
X56000Y48250
X56500
X57000
X57500
X58000
X58500
X59000
X59500
X60000
X60550Y48350
X61000Y48250
X61500
X62000
X60507Y47351
X60200Y47150
X59549Y46900
X56450Y47000
X56200Y47100
X55550Y48050
X54134Y47441
X52953Y47047
X52559
X52165
X51772
X51378
X50984
X50591
X50197
X49803
X49409
X49016
X48622
X48228
X47835
X47441
X47047
Y47441
Y47835
Y48228
Y48622
Y49016
X47441
X47835
X48228
Y49409
Y49803
X47835
X47441
X47047
Y49409
X47441
Y48622
Y48228
Y47835
Y47441
X47835
X48228
X48622
X49016
X49409
X49803
X50197
X50591
X50984
X51378
X51772
X52165
Y47835
Y48228
X52354Y48422
X51974
X52165Y48622
X51772
Y48228
X51574Y48422
X51378Y48228
X51184Y48422
X50984Y48228
X50790Y48420
X50591Y48228
Y48622
X50197
Y48228
Y47835
X50591
X50790Y48020
X50984Y47835
X51378
X51772
X51378Y48622
Y49016
X51772
Y49409
X51378
X51570Y49610
X51378Y49803
X51180Y49610
X50984Y49803
X50591
X50197
Y50197
Y50591
X49803
Y50197
X49409
Y49803
X49803
Y49409
X49409
X49016
Y49016
Y48622
Y48228
X48622
Y48622
Y49016
Y49409
Y49803
Y50197
Y50591
Y50984
X48228
X47835
X47441
X47047
Y50591
Y50197
X47441
X47835
X48228
Y50591
X49016
Y50197
Y49803
X49409Y49016
X49803
X50197
X50591
X50984
Y48622
Y49409
X50591
X50197
X49803Y48622
X49409
Y48228
X49803
Y47835
X49409
X49016
X48622
X48228
X47835
Y48228
Y48622
X48228
Y48228
X47835Y51378
Y51772
Y52165
X48228
Y51772
X48622
X48820Y51580
X49016Y51772
Y52165
X48622
Y52559
Y52953
Y53346
X48228
X47835
Y53740
X48228
X48622
Y54134
X49016
Y53740
X49409
Y54134
X49803Y53740
X50197
X50591
Y54134
X50984Y53740
X51378
Y54134
X51772
Y53740
Y53346
X51378
X50984
Y52953
X51378
X51772
Y52559
X51378
X50984
X50591
Y52165
Y51772
X50197
Y52165
Y52559
X49803
X49409
Y52953
X49803
Y53346
X49409
X49016
Y52953
Y52559
X48228
X47835
Y52953
X48228
X47441
Y53346
Y53740
Y54134
Y54528
X47835
Y54921
X48228
X47441
X47047
Y54528
Y54134
Y53346
Y52559
Y52165
Y51772
X47441
Y52165
Y52559
Y51378
X48622
X48830Y51180
X49409Y50984
X49803
Y51378
Y51772
X49409
X49220Y51580
X49409Y52165
X49803
X50197Y51378
X50591Y50984
X50984
Y51378
Y51772
Y52165
X51378
Y51772
X51772
Y52165
X52165
Y51772
X52559
Y52165
Y52559
Y52953
X52165Y53346
Y52559
Y51378
X52559
Y50984
X52165
Y50591
Y50197
Y49803
X51772
X51580Y50000
X51772Y50197
Y50591
X51378
Y50197
X50984
Y50591
X50591Y50197
X51378Y50984
X51772
Y51378
X51378
X50591Y52953
Y53346
X50197
Y52953
X49803Y54528
X49016Y54921
X50984
X51772Y54528
X52559Y54134
X53740Y52953
X55750Y51850
X54921Y50984
X54528Y50197
X54134
X57750Y51850
X57550Y52100
X58250Y51850
X58836Y52498
X59350Y52986
X59438Y53950
X58950Y53700
X58523Y53965
X58280Y53960
X58282Y54476
Y54772
X57987
X57692
Y54476
X57987
Y55067
X58282
X57692
X56700Y54839
Y54461
X56200Y54449
X55850Y54720
X55380
X55630Y54330
X56700Y53649
X57100Y53650
X59999Y53750
Y54160
Y54571
Y54981
X59999Y55391
X59999Y55802
Y56212
Y56622
X60400Y56420
X60405Y57095
X59560Y57099
X59150
X59350Y57500
X58287Y57500
X58182Y57894
X57894Y58182
X57500Y58287
X57106Y58182
X56818Y57894
X56713Y57500
X56818Y57106
X57106Y56818
X57500Y56713
X57894Y56818
X58182Y57106
X58400Y58600
X58600Y58850
X58775Y59025
X59025Y59275
X59200Y59450
X59850Y59400
X59750Y59850
X59800Y60400
X59400Y60500
X58900Y60050
X58450Y59600
X57950Y59150
X57450Y59100
X57000Y59450
X56450Y59400
X56200Y59250
X56050Y59050
X55700Y58650
X55372Y58344
X55050Y58000
X54695Y57782
X54736Y57558
X55000Y57000
X55050Y56650
X54851Y56545
X54950Y56050
X55000Y55700
X54650Y55650
X54521Y55378
X53370Y55960
X53500Y56350
X53701Y56737
X54230Y57212
X55400Y57400
X56000Y57300
Y57950
X56600Y58600
X56200Y55851
X58750Y55850
X59127Y54673
X60400Y54780
Y55600
X60950Y55950
Y56750
Y57500
Y58390
Y59100
X60709Y58893
X60331
X60470Y58710
X60170
X60800Y60350
X60900Y60850
Y61550
X60450
X59900Y61050
X56100Y61650
X54100Y61850
X54050Y59600
X51600Y59250
X50700Y60500
X49950Y61850
X47600Y61700
X47300
X47100
X46900
X47000Y61550
X47200
X47457Y61389
X47704Y61427
X47600Y61200
X47394Y60968
X47000
Y60495
X47394
X47657Y60549
X47650Y60300
X47293Y59953
X46900Y59750
X47000Y59600
X46900Y59450
X47100
X47015Y59170
X47594Y59192
X47600Y59600
X47515Y58829
X47514Y58482
X47512Y58133
X47500Y57600
Y57100
X47100Y57150
Y56900
X47300Y56800
X47300Y56500
Y56200
Y55900
Y55600
Y55300
X47236Y60732
X47700Y62350
X52300Y57600
X60399Y53956
X60850Y51450
X61300Y51850
X46654Y51772
Y52165
X46260
X45866
Y51772
X46260
Y51378
X45866
X45472
X45079
Y51772
X45472
Y52559
X45079
Y52953
Y53346
Y53740
Y54134
X45472
Y53740
Y53346
Y52953
X45866
X46260
Y53740
Y54134
X45866
Y53740
Y54528
X46260
X46654
Y54921
Y54134
Y53346
Y52559
Y50984
X46260
X45866
X45472
X45079
Y50591
Y50197
Y49803
Y49409
Y49016
Y48622
Y48228
Y47835
Y47441
Y47047
X45472
Y47441
Y47835
Y48228
Y48622
Y49016
Y49409
Y49803
Y50197
Y50591
X45866
X46260
X46654
Y50197
Y49803
X46260
X45866
Y49016
X46260
Y48622
X45866
Y48228
X46260
Y47835
X45866
Y47441
X46260
Y47047
X45866
X46654
Y47441
Y47835
Y48228
Y48622
Y49016
Y49409
X43790Y50400
X43936Y50987
X42800Y50350
X42300Y49900
X42100Y49402
Y49152
Y48902
Y48652
X42150Y48200
X42045Y47390
X41700Y47400
X41000Y47550
X41045Y48350
X40795
X40545
X41295
X41300Y49500
X39165Y49413
X38607
X38181Y49256
X37622
X36970Y49160
Y48910
Y48660
Y48410
X37622Y48311
X38181
X38607Y48468
X39165
Y47524
X38607
X38181Y47366
X37622
X37902Y47051
X38886Y47209
X36800Y47350
X34600Y47216
Y47486
Y47814
Y48100
Y48400
Y48700
Y49000
X34800Y49200
X35100
X35300Y49400
X35500Y49600
X35700Y49800
X35760Y50070
X35700Y50300
X35800Y50500
Y50800
Y51100
Y51400
Y51700
Y52000
Y52300
Y52600
Y52900
X35600Y53100
X35400Y53300
X35200Y53500
X35000Y53700
X34800Y53900
X34600Y54100
X34400Y54300
X34200Y54500
Y54900
Y55200
Y55500
Y55800
Y56100
Y56400
Y56700
Y57000
Y57300
Y57586
Y57914
Y58186
Y58514
Y58800
Y59086
Y59414
Y59686
Y60014
X34400Y60200
X34600Y60400
X34784Y60584
X35016Y60816
X35200Y61000
X35400Y61200
X35600Y61400
X35800Y61600
X36000Y61800
X35800Y62050
X36700Y62400
X37000
X37300
X37600
X37900
X38200
X38500
X38800
X39100
X39400
X39700
X40000
X39165Y61413
X38607
X38181Y61256
X37622
X37062Y61159
Y60909
Y60659
Y60409
X37622Y60311
X38181
X38607Y60469
X39165
Y59524
X38607
X38531Y59209
X38181Y59366
X37622
X37902Y59051
Y58736
Y58421
X37652
X38152
X38482Y58579
X38531Y58271
Y57942
X38536Y57599
X38181Y57476
X37622
X37902Y57791
Y58106
X36950Y58062
X37060Y57380
Y57130
Y56880
Y56630
X37622Y56532
X38181
X38607Y56689
X39165
Y55744
X38607
X38181Y55587
X37622
X39850Y55150
Y53700
X40824Y53723
X41050Y54400
X41650Y55450
X42000Y56350
X41800Y57150
X41883Y57875
X42361Y57869
X42750Y57850
X42700Y58300
Y58600
Y58900
X42500Y59250
X42161Y59267
X41934Y59267
X41000Y59250
X40700Y60200
X41500Y60250
Y60500
Y60750
Y61000
X42066Y61021
X42650Y61100
X42550Y60050
X43183Y59685
X44250Y59550
X45300Y59700
X45500Y59500
X45700Y59300
X45930Y59170
X45940Y58830
X46200
X46480Y58820
X46483Y58488
X46500Y58114
Y57786
Y57500
Y57200
X46700Y57100
X46159Y56434
X46160Y56150
X46229Y55650
X46438
X46620Y55820
X46000Y55460
X45472Y54921
X45079
X44000Y55050
X43650Y55850
X43751Y56387
Y56637
Y56887
Y57137
X43900Y57500
X43650Y57700
X43350Y57950
X43137Y58285
X44200Y57200
X44500Y55850
X44680Y53550
X44500Y53340
X44690Y53150
X43750Y53400
X43250Y53750
X42900Y52800
X42150Y51600
X40800Y52050
X39993Y51994
Y52244
Y52494
Y52744
X39950Y51000
X39650Y50100
X38400Y51100
X38200Y50950
Y51250
X38000Y51100
X37800Y50950
Y51250
X37600Y51100
X37400Y50950
Y51250
X37200Y51100
X37450Y52133
X36715Y52343
Y52721
X32050Y52450
Y51050
Y54000
X31700Y48300
X34600Y46887
X42700Y46900
X42500Y47250
X43720Y47700
X41383Y57745
X41050Y57850
X40850Y58060
X39550Y58580
X39240Y58579
X36750Y59350
X36400Y57735
X35100Y58350
X35106Y58590
X35100Y58850
X42000Y62350
X42426Y62357
X42422Y62119
X42900Y62100
X43051Y61949
X43284Y61716
X43516Y61484
X43700Y61300
X43900Y61100
X44100Y60900
X44300Y60700
X44500Y60500
X44700Y60300
X44900Y60100
X45100Y59900
X45978Y59657
X46100Y60200
X46021Y60871
X45796Y61198
Y61622
X45394Y61682
X45395Y62376
X44644Y62398
Y61726
X45400Y60950
X46606Y60968
X46803Y60732
X46606Y60495
X46600Y59900
X46800
X46700Y59750
X46800Y59600
Y61550
X46700Y61700
X46747Y62358
X42850Y62400
X30450Y54000
X22750Y53000
Y52500
Y52000
X22250
Y52500
Y53000
X20696Y52879
Y52579
Y52280
Y51980
Y51680
Y51380
Y51080
X20700Y50780
Y50480
Y50180
Y49881
Y49581
Y49281
Y48981
Y48681
Y48382
Y48082
Y47782
Y47482
Y47182
Y46883
X20696Y53179
Y53479
Y53779
X20700Y54076
Y54376
Y54675
Y54975
Y55275
Y55575
Y55875
Y56174
Y56474
Y56774
Y57074
Y57374
Y57673
Y57973
Y58273
Y58573
X20700Y58873
Y59172
Y59472
Y59772
Y60072
Y60372
Y60671
Y60971
Y61271
Y61571
Y61871
Y62170
Y62470
Y62770
X20696Y63072
Y63372
Y63672
Y63972
Y64271
Y64571
Y64871
Y65171
Y65471
Y65771
Y66070
Y66370
Y66670
Y66970
Y67270
Y67569
Y67869
Y68169
Y68469
Y68769
Y69068
Y69368
Y69668
Y69968
Y70268
Y70567
Y70867
Y71167
Y71467
Y71767
Y72066
Y72366
Y72666
Y72966
Y73266
Y73565
Y73865
Y74165
Y74465
Y74764
Y75064
X20709Y75364
X20754Y75660
X20831Y75950
X20940Y76229
X21078Y76495
X21245Y76744
X21438Y76974
X21654Y77181
X21892Y77364
X22149Y77519
X22421Y77645
X22705Y77741
X22997Y77806
X23295Y77838
X23595Y77844
X23895
X24195
X24495
X24794
X25094
X25394
X25694
X25994
X26293
X26593
X26893
X27193
X27493
X27792
X28092
X28392
X28692
X28992
X29291
X29591
X29891
X30191
X30491
X30790
X31090
X30512Y76772
X28543
X26575
X24606
Y75607
X25000Y75712
X25394Y75607
X25682Y75319
X25787Y74925
X25682Y74531
X25394Y74243
X25000Y74138
X24606Y74243
X24318Y74531
X24213Y74925
X24318Y75319
X23622Y73819
X23700Y72100
X23950Y71850
X24000Y71500
X23950Y71150
X23700Y70900
X23300Y70800
X22900Y70900
X22650Y71150
X22600Y71500
X22650Y71850
X22900Y72100
X23300Y72200
X24700Y72500
Y72800
X25000
Y72500
Y72200
Y71900
Y71600
Y71300
X24700
Y71000
X25000
X25300
Y71300
Y71600
Y71900
Y72200
Y72500
Y72800
X26100
Y72500
Y72200
Y71900
Y71600
Y71300
Y71000
Y70500
X25800
Y70200
Y69900
X26100
X26400
X26700
X27000
X27300
Y70200
Y70500
X27000
Y70200
X26700
X26400
X26100
X26400Y70500
X26700
Y71300
X27000
X27300
Y71600
Y71900
Y72200
Y72500
X27000
X26700
X26400
Y72200
X26700
X27000
Y71900
Y71600
X26700
X26400
Y71300
Y71900
X26700
Y73300
X26400
X26100
Y73600
X26400
X26700
X27000
Y73300
X27300
Y73600
Y73900
X27000
X26700
X26400
X26100
X25800
Y73600
Y73300
X28000Y73450
Y73050
X27150Y69400
X26500
X26100
X26000Y68000
X25700
X25400
X25200Y67800
Y67500
Y67200
X25400Y67000
X25700
X26000
X26400Y67100
X26700Y67000
X27000Y67100
X27200Y67300
Y67600
X27000Y67900
X26700Y68000
X26400Y67900
X23950Y67850
X24050Y67500
X23950Y67150
X23700Y66900
X23300Y66750
X22900Y66900
X22650Y67150
X22600Y67500
X22650Y67850
X22900Y68100
X23300Y68250
Y68750
X23700Y68900
X23950Y69150
X24050Y69500
X23950Y69850
X23700Y70100
X23300Y70250
X22900Y70100
X22650Y69850
X22600Y69500
X22650Y69150
X22900Y68900
X23700Y68100
X21654Y67913
Y69882
Y73819
X22638Y74803
Y76772
X21654Y64961
X25200Y65000
Y64700
Y64400
X25400Y64200
X25700
X26000
X26400Y64300
X26700Y64200
X27000Y64300
X27200Y64500
Y64800
X27000Y65100
X26700Y65200
X26400Y65100
X26000Y65200
X25700
X25400
X29500Y64150
X29700Y63750
X30100Y63500
X29900Y63100
X30300
X29300Y63300
X31399Y67800
X31800
X31990Y70220
X31980Y71030
X31540
X32150Y71400
X32664Y71400
X32506Y71636
X32900
X33294
X33097Y71400
X32900Y71164
X33294
X33810Y71200
X33650Y71400
X33810Y71560
X33600Y72150
X33300
X33150Y72300
X33450
X33750
X32896Y72533
Y72911
X32479Y72923
X32700Y72170
X32506Y71164
X33600Y70400
X33750Y70250
X33900Y70400
X34200
X34340Y70240
X34200Y70100
X34050Y70240
Y69950
X34350
X34500Y70100
Y69800
X34200
X33900
Y70100
X34900Y69500
X35200Y69600
X35500Y69500
X35700Y69250
Y68950
X35500Y68700
X35200Y68600
X34900Y68750
X36859Y68841
X37700Y68850
X37650Y69350
X38318Y68960
X39145Y68891
X39339Y68727
X39650Y68800
X40050
X40549Y68750
X40757
X41150
X41100Y68250
Y67900
X40960Y67640
X41160Y67460
X41039Y67281
X41180Y67111
X40800Y67050
X40465Y67525
X40170
Y67820
Y68115
X40465
Y67820
X39875
Y67525
Y68115
X39150Y68150
Y67700
X38515Y68056
X38150Y68100
X37950Y67900
X37700Y67700
Y68150
X37942Y67426
X38320
X38435Y66428
X38893Y65401
X39303
X39100Y65000
X38922Y64600
X39300
X38680Y64770
X38480Y64580
X38070
X37750Y64300
X37500
X37250
X37000
X36750
X37150Y65000
X36950Y65300
X37410Y65410
X36632Y66105
X36640Y66930
X37261
X36659Y69994
X38250Y70250
X39750Y69850
X39600Y69650
X40030Y69571
Y69949
X40455
Y69571
X41303
Y69949
X41570Y69760
X42200Y69700
X42500Y69050
X42299Y68844
X41921
X42400Y68300
Y68000
Y67700
X42299Y67426
X41921
X42100Y67140
X43450Y67300
X44631Y67359
X45350Y67250
X45972Y67062
X46028Y68860
X46600Y68650
X46700Y70250
X46124Y70239
X46108Y72250
X46650Y72250
X46600Y73750
Y74500
Y75250
X45200Y74800
X44700
X44200
X44300Y74050
X43250
Y72750
X44900
X45500Y72950
X45200Y71850
Y71450
X44700Y71650
X44200
X44101Y70647
X43699
X42823Y68470
X43300Y66050
X44009Y65660
X44000Y64950
X44200
X44100Y64800
X44300
X44200Y64336
X43806
X44003Y64100
X44200Y63864
X43806
X44594
X44436Y64100
X44594Y64336
X44789Y64626
X44839Y65060
X45800Y64924
Y64497
X46173Y64479
X46613Y64268
X46809Y64032
X46613Y63795
X46550Y63400
X46750
Y63200
X46550
Y63000
X46750
Y62800
X46550
X46146Y63650
X45369Y63754
X44427Y63336
X44557Y63077
X44700Y62900
X44243Y62970
X44079Y63158
X43436Y63085
X43000Y63250
X42421Y63678
X42400Y64564
X42996Y64563
Y64990
X42463Y65147
X41989Y65002
X41529Y65000
X41518Y65662
X41994Y65671
X40544Y65691
Y66069
X40120
Y65691
X40117Y65123
X40758Y64990
X40700Y62600
X40986
X41314
X41586
X41914
X40400
X40200Y62500
X38650Y62950
Y63200
Y63450
Y63700
Y63950
X36500Y62600
X36659Y71937
X36614Y73622
X36021Y74088
X36614Y75197
X35039
X36021Y76372
X36614Y76772
X36487Y77844
X36187
X35887
X35587
X35287
X34988
X34688
X34388
X34088
X33788
X33489
X33189
X32889
X32589
X32289
X31990
X31690
X31390
X32480Y76772
X34449
X36786Y77844
X37086
X37386
X37686
X37986
X38285
X38585
X38885
X39185
X39485
X39784
X40084
X40384
X40684
X40984
X41283
X41583
X41883
X42183
X42483
X42782
X43082
X43382
X43682
X43982
X44281
X44581
X44881
X45181
X45481
X45780
X46080
X46380
X46680
X45276Y76772
X43307
X43300Y75815
X42922
X43711
X44089
X41732Y75197
X39764
Y73622
X39156Y74108
X38189Y73622
X37600Y72750
X38189Y75197
Y76772
X39764
X40733Y76372
Y74088
X45401Y65622
X46746Y65657
X46700Y65000
X46800Y64850
X47000
X47200
X47100Y65000
X46900
X47300
X47615Y64985
X47750Y64700
X47701Y64400
X48000Y64500
X47400Y64268
X47006
Y63795
X47400
X47657Y63850
X47600Y63600
X47224Y63255
X47201Y62922
X47600Y62800
X47243Y64032
X48500Y65000
X49000Y65500
X49500Y66000
X50000Y66500
X50500Y67000
X51000Y67500
X51500Y68000
X52000Y68500
X51554Y68980
X51304
X51096
X50846
X51190Y69700
X52280Y70390
X52000Y70750
X52280Y71100
Y71600
X51850Y71460
Y71260
X51630Y71260
Y71469
X52000Y71900
X52280Y72250
X51304Y72320
X51096
X51090Y72540
X51310
X50100Y72250
X50400Y71900
X50100Y71600
Y71100
X50400Y70750
X50100Y70400
X50900Y71350
X50601Y73371
X50197Y76772
X50277Y77844
X50577
X50877
X51177
X51477
X51776
X52076
X52376
X52676
X52976
X53275
X53575
X53875
X54175
X54475
X54774
X55074
X55374
X55674
X55974
X56273
X56573
X56873
X57173
X57473
X57772
X58072Y77847
X58371Y77876
X58662Y77945
X58942Y78052
X59950Y77300
X60500Y77000
X60000Y76500
X59150
X59500Y76000
X59000Y75500
X58400Y75750
X58500Y75000
X58150Y74650
X57800Y74300
X57500Y74000
X57000Y73500
X56500Y73000
X56000Y72500
X55500Y72000
X55000Y71500
X54500Y71000
X54000Y70500
X53500Y70000
X53000Y69500
X52500Y69000
X53700Y68050
X54800Y67000
X56000Y65900
X56150Y64050
X53300Y63300
X52300Y64450
X51250Y65550
X49150Y63300
X47200Y68406
X47250Y69950
Y72450
X47281Y74991
X48021Y74597
X48521Y75097
Y75597
X47044Y76073
X46980Y77844
X47279
X47579
X47879
X48179
X48479
X48778
X49078
X49378
X49678
X49978
X52165Y76772
X54200Y75350
Y74850
X54540Y75097
Y75597
X55040
Y75097
X55450Y75100
X56200
X55990Y74597
Y74196
X55990Y75672
Y76073
X57300Y75100
X54540Y74597
X58500Y72800
X59550Y71700
X59950Y69900
X60900Y70650
X60950Y72700
X61650Y73600
Y74500
X60250
X61200Y76400
X61000Y77500
X61500
X62000
X61900Y78100
X60900
X61200Y68650
X60150Y67900
X58250Y68200
X57050Y69300
X55950Y70250
X58050Y65850
X61300Y66800
X62150Y66250
X61650Y64600
X60350Y63300
X62400Y62600
X67750Y62750
X68250
X68750
X69250
X69750
X70250
X70750
Y63250
X71250
Y63750
X70750
X70250
Y63250
X69750
X69250
X68750
X68250
X67750
Y63750
X68250
X68750
X69250
X69750
Y64250
X69250
X68750
X68250
X67750
Y64750
X68250
X68750
X69250
X69750
X70250
Y64250
X70750
Y64750
Y65250
X71250
Y65750
X70750
X70250
Y65250
X69750
X69250
X68750
X68250
X67750
Y65750
Y66250
Y66750
Y67250
Y67750
Y68250
Y68750
Y69250
Y69750
Y70250
Y70750
Y71250
Y71750
Y72250
Y72750
Y73250
Y73750
Y74250
Y74750
Y75250
Y75750
Y76250
Y76750
Y77250
X67500Y77500
X67000
X66500
X66000
X65500
X65000
X64500
X64000
X63500
X63000
X62500
X62800Y76400
X63450Y78100
X65000
X66500
X68200Y77520
X68250Y77250
X68750
X69250
X69750
X70250
X70750
X71250
X71750
X72250
X72750
X73244Y77250
Y77550
Y77850
Y76951
Y76651
Y76351
Y76051
Y75751
Y75452
Y75152
Y74852
Y74552
Y74252
Y73953
Y73653
Y73353
Y73053
Y72753
Y72454
Y72154
Y71854
Y71554
Y71254
Y70955
Y70655
Y70355
Y70055
Y69755
Y69456
Y69156
Y68856
Y68556
Y68256
Y67957
Y67657
Y67357
Y67057
Y66757
Y66458
Y66158
Y65858
Y65558
Y65258
Y64959
Y64659
Y64359
Y64059
Y63759
Y63460
Y63160
Y62860
Y62560
X72250Y62750
X71750
X72250Y63250
Y63750
Y64250
Y64750
X71750
Y64250
X72250Y65250
Y65750
Y66250
Y66750
Y67250
Y67750
Y68250
Y68750
Y69250
X71750
Y69750
Y70250
Y70750
Y71250
Y71750
Y72250
Y72750
Y73250
Y73750
Y74250
Y74750
Y75250
Y75750
Y76250
Y76750
X72250
Y76250
Y75750
Y75250
Y74750
Y74250
X72700
X72250Y73750
Y73250
Y72750
Y72250
Y71750
Y71250
Y70750
Y70250
Y69750
X71250
Y69250
X71750Y68750
Y68250
X71250Y67750
Y67250
X70750
Y66750
Y66250
X70250
X69750
Y65750
X69250
X68750
X68250
Y66250
Y66750
Y67250
Y67750
Y68250
Y68750
Y69250
Y69750
Y70250
Y70750
Y71250
Y71750
Y72250
Y72750
Y73250
Y73750
Y74250
Y74750
Y75250
Y75750
Y76250
Y76750
X68750
X69250
X69750
X70250
X70750
Y76250
X70250
X69750
X69250
X68750
Y75750
X69250
X69750
X70250
Y75250
X69750
X69250
X68750
Y74750
X69250
X69750
X70250
X70750
Y74250
X70250
X69750
X69250
X68750
Y73750
X69250
X69750
X70250
Y73250
X69750
X69250
X68750
Y72750
X69250
X69750
X70250
X70750
Y72250
X70250
X69750
X69250
X68750
Y71750
X69250
X69750
X70250
Y71250
X69750
X69250
X68750
Y70750
X69250
X69750
X70250
X70750
Y70250
X70250
X69750
X69250
X68750
Y69750
X69250
X69750
X70250
Y69250
X69750
X69250
X68750
Y68750
X69250
X69750
X70250
X70750
Y68250
X70250
X69750
X69250
X68750
Y67750
Y67250
Y66750
Y66250
X69250
Y66750
Y67250
Y67750
X69750
X70250
X70750
X70250Y67250
Y66750
X69750
Y67250
X71750Y66750
Y66250
X71250Y71250
Y71750
Y73250
Y73750
Y75250
Y75750
X70000Y78201
X70150Y79150
X69150
X68050
X67300Y78750
X68500Y78201
X69606Y80568
X70000Y80463
X70394Y80568
X70682Y80856
X70787Y81250
X70682Y81644
X70394Y81932
X70000Y82037
X69606Y81932
X69318Y81644
X69213Y81250
X69318Y80856
X69390Y82844
X69690
X69989
X70289
X70589
X70889
X71189
X71488
X71787Y82819
X72077Y82743
X72352Y82622
X72599Y82453
X72814Y82244
X72992Y82003
X73124Y81734
X73207Y81446
X73242Y81148
X73244Y80848
Y80548
Y80248
Y79949
Y79649
Y79349
Y79049
Y78749
Y78450
Y78150
X72550Y78900
X71700Y79100
X71850Y80709
X69090Y82844
X68790
X68490
X68191
X67891
X67591
X67291
X66991
X66692
X66392
X66092
X65792
X65492
X65193
X64893
X64593
X64293
X63993
X63694
X63394
X63094
X62794
X64606Y80607
X65000Y80712
X65394Y80607
X65682Y80319
X65787Y79925
X65682Y79531
X65394Y79243
X65000Y79138
X64606Y79243
X64318Y79531
X64213Y79925
X64318Y80319
X66929Y80709
X62008Y79724
X60205Y79636
X60247Y79932
X60256Y80232
Y80532
Y80832
X60257Y81131
X60290Y81429
X60370Y81718
X60499Y81989
X60675Y82231
X60889Y82442
X61134Y82615
X61407Y82738
X61697Y82816
X61995Y82845
X62240Y82850
X62494Y82844
X62008Y81693
X60124Y79347
X60005Y79072
X59851Y78815
X59664Y78580
X59448Y78373
X59206Y78196
T03
X25716Y64700
X26700
X26684Y67500
X25700
X34211Y69100
X35195
T04
X29400Y64800
X30400
Y65800
X29400
Y66800
X30400
Y67800
Y68800
Y69800
X29400
Y70800
X30400
Y71800
X29400
Y72800
X30400
Y73800
X29400
Y68800
Y67800
T05
X23150Y42760
X26693
X30236
X33780
X37992
X40035Y45634
Y48468
X36220Y50240
X32008
X33780Y54760
X37992
X40035Y57634
Y60469
X36220Y62240
X32008
X28465
X24921
X21378
X23150Y54760
X26693
X30236
X28465Y50240
X24921
X21378
T06
X23307Y67500
Y69500
Y71500
T07
X65000Y19925
X70000Y18850
X25000Y29925
X42500Y42500
X70000Y46250
Y53750
X57500Y57500
X25000Y74925
X65000Y79925
X70000Y81250
T08
X49615Y71330
T10
X54800Y24000
X54400Y26000
X55200
X54790Y74097
X55190Y76097
X54390
X48271Y76097
X48671Y74097
X47871
T11
X70000Y21795
X71201Y43204
X70000Y56795
X71201Y78204
T12
X35000Y43193
Y49807
Y55193
Y61807
M30
